<svg width="300" height="268" viewBox="0 0 300 268" fill="none" xmlns="http://www.w3.org/2000/svg">
<path d="M194.09 0H0V253.07H194.09V0Z" fill="#00CD73"/>
<path d="M170.4 99.15H23.6902C20.5402 99.15 17.9902 96.6 17.9902 93.45V77.32C17.9902 74.17 20.5402 71.62 23.6902 71.62H170.4C173.55 71.62 176.1 74.17 176.1 77.32V93.45C176.11 96.6 173.55 99.15 170.4 99.15Z" fill="#7DE6AF"/>
<path d="M170.4 53.87H23.6902C20.5402 53.87 17.9902 51.32 17.9902 48.17V32.04C17.9902 28.89 20.5402 26.34 23.6902 26.34H170.4C173.55 26.34 176.1 28.89 176.1 32.04V48.17C176.11 51.32 173.55 53.87 170.4 53.87Z" fill="#7DE6AF"/>
<path d="M170.4 150.12H23.6902C20.5402 150.12 17.9902 147.57 17.9902 144.42V128.29C17.9902 125.14 20.5402 122.59 23.6902 122.59H170.4C173.55 122.59 176.1 125.14 176.1 128.29V144.42C176.11 147.57 173.55 150.12 170.4 150.12Z" fill="#7DE6AF"/>
<path d="M170.4 196.53H23.6902C20.5402 196.53 17.9902 193.98 17.9902 190.83V174.7C17.9902 171.55 20.5402 169 23.6902 169H170.4C173.55 169 176.1 171.55 176.1 174.7V190.83C176.11 193.98 173.55 196.53 170.4 196.53Z" fill="#7DE6AF"/>
<path d="M104.99 236.2H89.0999C85.9499 236.2 83.3999 233.65 83.3999 230.5V214.37C83.3999 211.22 85.9499 208.67 89.0999 208.67H104.99C108.14 208.67 110.69 211.22 110.69 214.37V230.5C110.69 233.65 108.14 236.2 104.99 236.2Z" fill="#7DE6AF"/>
<path d="M107.64 145.22C115.29 160.91 134.69 204.05 192.95 213.34L221.05 239.8L268.66 196.42L245.78 164.41L231.26 108.63L189.42 71.61L129.29 87.9L107.64 145.22Z" fill="#648CFF"/>
<path d="M120.39 148.47C122.95 144.94 125.51 141.41 128.06 137.88C131.9 132.58 139.58 121.99 139.58 121.99C139.58 121.99 148.42 117.57 154.16 114.69C163.31 110.11 172.46 105.53 181.61 100.95C183.71 99.9 185.8 98.85 187.9 97.8C189.89 96.73 191.49 95.26 192.69 93.4C194.2 91.75 195.22 89.82 195.75 87.59C196.46 85.32 196.56 83.05 196.05 80.78C195.95 78.51 195.27 76.39 194.02 74.43C191.67 70.78 188.17 67.58 183.82 66.58C182.31 66.38 180.79 66.17 179.28 65.97C176.2 65.98 173.33 66.76 170.66 68.3C166.37 70.45 162.09 72.59 157.8 74.74C149.72 78.79 141.63 82.83 133.55 86.88C128.95 89.18 124.3 91.41 119.74 93.79C116.18 95.64 113.37 100.22 110.91 103.62C108.5 106.94 106.09 110.26 103.68 113.58C99.4899 119.35 94.0799 127.41 91.1199 130.9C89.2099 133.15 87.6199 138.74 89.1699 144.37C90.7199 149.99 94.2599 152.7 97.0199 154.57C99.7799 156.44 105.91 157.57 110.18 156.29C113.38 155.36 118.88 151.04 120.39 148.47Z" fill="#648CFF"/>
<path fill-rule="evenodd" clip-rule="evenodd" d="M155.075 114.253C155.322 114.747 155.121 115.347 154.627 115.594L143.927 120.944C141.512 122.152 139.436 123.917 137.849 126.098C137.849 126.098 137.849 126.097 137.849 126.098L135.95 128.717C135.626 129.164 135 129.264 134.553 128.94C134.106 128.615 134.006 127.99 134.331 127.543L136.231 124.922C138.005 122.483 140.329 120.508 143.033 119.156L153.733 113.806C154.227 113.559 154.828 113.759 155.075 114.253Z" fill="black"/>
<path d="M102.27 80.84C104.23 80.46 110.71 79.21 114.94 78.4C121.71 77.09 128.47 75.79 135.24 74.48C136.79 74.18 138.33 73.88 139.88 73.58C136.85 73.58 133.83 73.58 130.8 73.58C133.1 74.09 135.41 74.6 137.71 75.1C143.24 76.32 148.78 77.54 154.31 78.76C161.01 80.24 167.71 81.71 174.41 83.19C180.21 84.47 186 85.75 191.8 87.03C194.63 87.65 197.46 88.31 200.3 88.9C200.34 88.91 200.38 88.92 200.42 88.93C196.45 84.96 192.47 80.98 188.5 77.01C189.86 82.59 191.21 88.17 192.57 93.76C194.72 102.62 196.87 111.48 199.03 120.33C199.52 122.36 200.02 124.4 200.51 126.43C201.04 128.65 202.06 130.59 203.57 132.24C204.77 134.1 206.37 135.56 208.36 136.64C210.32 137.89 212.44 138.56 214.71 138.67C216.98 139.18 219.25 139.08 221.52 138.37C225.65 137.03 229.64 134.47 231.72 130.52C232.29 129.16 232.87 127.8 233.44 126.44C234.25 123.41 234.25 120.39 233.44 117.36C232.08 111.78 230.73 106.2 229.37 100.61C227.22 91.75 225.07 82.89 222.91 74.04C222.42 72.01 221.92 69.97 221.43 67.94C220.09 62.44 215.1 57.25 209.51 56.02C204.46 54.91 199.4 53.79 194.35 52.68C184.3 50.46 174.25 48.25 164.21 46.03C156.73 44.38 149.24 42.73 141.76 41.08C141.18 40.95 140.6 40.82 140.01 40.69C136.27 39.89 134.52 39.97 130.76 40.68C130.48 40.73 130.2 40.79 129.92 40.84C126.29 41.54 122.66 42.24 119.04 42.94C110.61 44.57 98.8901 46.74 93.7401 47.82C88.5901 48.91 85.7301 51.5 83.0201 55.77C80.3101 60.04 80.5901 66.66 81.3001 68.93C82.6401 73.06 85.1301 76.35 89.1501 79.13C93.1301 81.9 99.2501 81.65 102.27 80.84C102.27 80.84 100.31 81.22 102.27 80.84Z" fill="#648CFF"/>
<path d="M208.8 78.8401C207.51 78.7501 206.22 78.6601 204.94 78.5601C201.44 78.3101 197.93 78.0601 194.43 77.8101C189.25 77.4401 184.06 77.0701 178.88 76.7001C172.55 76.2501 166.23 75.8001 159.9 75.3401C152.94 74.8401 145.98 74.3501 139.01 73.8501C132.01 73.3501 125.02 72.8501 118.02 72.3501C111.5 71.8801 104.97 71.4201 98.45 70.9501C92.94 70.5601 87.4201 70.1601 81.9101 69.7701C77.9401 69.4901 73.9801 69.2001 70.0101 68.9201C66.2801 68.6501 62.5401 69.1301 59 70.3201C54.5201 71.8201 48.07 73.9901 43 75.7001C40.17 76.6601 39.9901 80.5901 42.7201 81.8001L60.5801 89.6901C62.9201 90.7301 65.43 91.3501 67.99 91.5301C71.49 91.7801 75 92.0301 78.5 92.2801C83.68 92.6501 88.8701 93.0201 94.0501 93.3901C100.38 93.8401 106.7 94.2901 113.03 94.7501C119.99 95.2501 126.95 95.7401 133.92 96.2401C140.92 96.7401 147.91 97.2401 154.91 97.7401C161.43 98.2101 167.96 98.6701 174.48 99.1401C179.99 99.5301 185.51 99.9301 191.02 100.32C194.99 100.6 198.95 100.89 202.92 101.17C204.8 101.3 206.68 101.46 208.57 101.57C208.65 101.57 208.73 101.58 208.82 101.59C211.61 101.79 214.95 100.18 216.87 98.2601C218.84 96.2901 220.33 93.0501 220.2 90.2101C220.07 87.2701 219.1 84.2101 216.87 82.1601L214.57 80.3801C212.77 79.3601 210.85 78.8501 208.8 78.8401Z" fill="#FCCD09"/>
<path d="M48.87 78.61C48.87 76.97 48.38 75.45 47.55 74.17C45.97 74.7 44.42 75.22 42.98 75.71C40.15 76.67 39.97 80.6 42.7 81.81L47.04 83.73C48.18 82.33 48.87 80.55 48.87 78.61Z" fill="black"/>
<path fill-rule="evenodd" clip-rule="evenodd" d="M63.5626 79.82C63.6012 79.2691 64.0792 78.8538 64.6301 78.8925L211.75 89.2225C212.301 89.2612 212.716 89.7392 212.678 90.2901C212.639 90.841 212.161 91.2563 211.61 91.2176L64.4901 80.8876C63.9391 80.8489 63.5239 80.3709 63.5626 79.82Z" fill="black"/>
<path fill-rule="evenodd" clip-rule="evenodd" d="M69.0626 74.0999C69.1013 73.549 69.5793 73.1337 70.1302 73.1724L211.75 83.1224C212.301 83.1611 212.716 83.6391 212.678 84.1901C212.639 84.741 212.161 85.1562 211.61 85.1175L69.99 75.1675C69.4391 75.1288 69.0239 74.6508 69.0626 74.0999Z" fill="black"/>
<path fill-rule="evenodd" clip-rule="evenodd" d="M69.0123 86.81C69.051 86.2591 69.5289 85.8438 70.0799 85.8825L211.75 95.8325C212.301 95.8712 212.716 96.3492 212.677 96.9001C212.639 97.451 212.161 97.8663 211.61 97.8276L69.9397 87.8776C69.3888 87.8389 68.9736 87.3609 69.0123 86.81Z" fill="black"/>
<path d="M79.5801 105.44C82.7101 110.55 85.8501 115.65 88.9801 120.76C92.3301 126.22 95.6101 131.75 99.0401 137.16C99.0501 137.18 99.0601 137.19 99.0701 137.21C99.0701 137.21 99.0701 137.21 99.0701 137.22C99.5101 137.8 99.9601 138.37 100.4 138.95C101.6 140.81 103.2 142.27 105.19 143.35C105.21 143.36 105.23 143.38 105.24 143.39C105.38 143.5 105.52 143.61 105.66 143.71C106.32 144.22 106.97 144.72 107.63 145.23C110.11 147.14 112.59 149.04 115.06 150.95C121.98 156.28 128.91 161.61 135.83 166.94C140.26 170.35 144.65 173.8 149.11 177.16C149.18 177.21 149.25 177.27 149.32 177.33C151.28 178.58 153.4 179.25 155.67 179.36C157.94 179.87 160.21 179.77 162.48 179.06C164.7 178.53 166.64 177.51 168.29 176C170.15 174.8 171.61 173.2 172.69 171.21C174.78 167.25 175.83 162.45 174.41 158.05C173.84 156.69 173.26 155.33 172.69 153.97C171.17 151.4 169.13 149.36 166.57 147.85C161.6 144.03 156.63 140.2 151.66 136.38C143.74 130.28 126.9 117.33 126.9 117.33C126.9 117.33 124.16 112.86 121.96 109.28C118.46 103.58 114.96 97.88 111.47 92.18C110.66 90.86 109.86 89.55 109.05 88.23C106.77 84.52 103.08 81.55 98.8501 80.38C96.5801 79.67 88.9001 80.07 85.6901 82.1C82.4801 84.13 78.8401 87.95 77.8401 92.3C76.8501 96.72 77.1501 101.48 79.5801 105.44Z" fill="#648CFF"/>
<path fill-rule="evenodd" clip-rule="evenodd" d="M93.9903 128.996C94.4622 128.709 95.0773 128.859 95.3643 129.33C95.3882 129.37 95.4129 129.41 95.4382 129.452C96.2042 130.712 97.6358 133.067 99.442 135.558C101.318 138.145 103.55 140.811 105.809 142.547L107.928 144.175L107.93 144.176L107.932 144.178L107.937 144.182C108.116 145.578 106.719 145.768 106.715 145.765L106.713 145.764L106.712 145.763M104.601 144.141L104.591 144.133C102.1 142.219 99.732 139.365 97.8228 136.732C95.9682 134.174 94.5013 131.761 93.7329 130.497C93.7063 130.453 93.6805 130.411 93.6555 130.37C93.3685 129.898 93.5184 129.283 93.9903 128.996M104.601 144.141C104.621 144.158 104.641 144.174 104.661 144.189L104.692 144.212L106.705 145.758" fill="black"/>
<path fill-rule="evenodd" clip-rule="evenodd" d="M116.257 99.9277C116.728 99.6389 117.344 99.7864 117.632 100.257C118.497 101.667 119.364 103.079 120.231 104.491L120.232 104.492C121.1 105.904 121.967 107.317 122.832 108.727L122.833 108.728C123.55 109.9 124.328 111.165 125.05 112.339C125.455 112.998 125.843 113.628 126.192 114.197L126.194 114.2C127.168 115.802 128.435 117.201 129.921 118.348C129.921 118.348 129.921 118.348 129.921 118.348L152.28 135.558C152.718 135.894 152.799 136.522 152.462 136.96C152.126 137.398 151.498 137.479 151.06 137.143L128.699 119.932C127.026 118.64 125.592 117.059 124.487 115.242C124.139 114.676 123.753 114.048 123.349 113.39C122.626 112.215 121.846 110.946 121.128 109.773M116.257 99.9277C115.786 100.216 115.639 100.832 115.928 101.303L116.257 99.9277ZM115.928 101.303C116.793 102.713 117.66 104.126 118.528 105.538L115.928 101.303ZM118.528 105.538C119.395 106.951 120.263 108.363 121.128 109.773L118.528 105.538Z" fill="black"/>
<path d="M217.56 82.9199C217.59 82.9599 217.63 82.9899 217.66 83.0299C217.63 82.9899 217.6 82.9599 217.56 82.9199Z" fill="#00CD73"/>
<path d="M205.81 101.26C205.31 101.13 204.83 100.97 204.35 100.78C203.72 100.53 203.12 100.22 202.56 99.87C201.71 99.34 200.93 98.7 200.25 97.97C200.02 97.73 199.81 97.48 199.6 97.21C199.5 97.08 199.4 96.95 199.3 96.81C199.11 96.54 198.92 96.26 198.75 95.97C197.72 94.25 197.13 92.23 197.13 90.08C197.13 88.46 197.46 86.92 198.07 85.52C198.2 85.21 198.35 84.91 198.51 84.61C198.75 84.17 199.02 83.74 199.31 83.33C199.41 83.19 199.51 83.06 199.61 82.93C199.82 82.67 200.04 82.42 200.26 82.17C200.49 81.93 200.73 81.69 200.98 81.47C201.23 81.25 201.49 81.04 201.75 80.84C202.02 80.64 202.29 80.45 202.58 80.27C202.86 80.09 203.16 79.93 203.46 79.78C203.91 79.55 204.38 79.35 204.86 79.18C205.02 79.12 205.18 79.07 205.35 79.02C205.68 78.92 206.01 78.84 206.35 78.77C206.52 78.74 206.69 78.7 206.86 78.68C206.22 78.63 205.58 78.59 204.93 78.54C203.36 78.43 201.78 78.32 200.21 78.2C199.26 78.87 198.39 79.66 197.62 80.55C195.34 83.19 194.08 86.57 194.08 90.06C194.08 93.54 195.33 96.92 197.6 99.55C198 100.02 198.43 100.45 198.88 100.86C200.22 100.96 201.55 101.05 202.89 101.15C204.19 101.24 205.5 101.35 206.81 101.44C206.48 101.42 206.14 101.35 205.81 101.26Z" fill="black"/>
<path d="M217.31 82.6399C217.28 82.5999 217.24 82.5699 217.21 82.5299C217.25 82.5699 217.28 82.5999 217.31 82.6399Z" fill="#00CD73"/>
<path d="M220.18 90.22C220.18 90.26 220.18 90.3 220.18 90.34C220.05 96.47 215.14 101.41 209.03 101.61C211.77 101.71 214.98 100.14 216.85 98.27C218.82 96.3 220.31 93.06 220.18 90.22Z" fill="#00CD73"/>
<path d="M218.86 84.8699C218.85 84.8499 218.84 84.8199 218.82 84.7999C218.83 84.8199 218.85 84.8399 218.86 84.8699Z" fill="#00CD73"/>
<path d="M218.61 84.41C218.6 84.39 218.58 84.36 218.57 84.34C218.58 84.36 218.6 84.38 218.61 84.41Z" fill="#00CD73"/>
<path d="M206.82 101.47C207.4 101.51 207.97 101.55 208.55 101.58C207.98 101.55 207.4 101.51 206.82 101.47Z" fill="#00CD73"/>
<path d="M219.11 85.3999C219.1 85.3699 219.08 85.3399 219.07 85.2999C219.08 85.3399 219.1 85.3699 219.11 85.3999Z" fill="#00CD73"/>
<path d="M218.32 83.92C218.3 83.89 218.28 83.86 218.26 83.83C218.28 83.86 218.3 83.89 218.32 83.92Z" fill="#00CD73"/>
<path d="M198.51 84.62C198.75 84.18 199.02 83.75 199.31 83.34C199.01 83.75 198.74 84.18 198.51 84.62Z" fill="#00CD73"/>
<path d="M199.61 82.9499C199.82 82.6899 200.04 82.4399 200.26 82.1899C200.03 82.4299 199.82 82.6799 199.61 82.9499Z" fill="#00CD73"/>
<path d="M198.06 85.53C198.19 85.22 198.34 84.92 198.5 84.62C198.35 84.92 198.2 85.22 198.06 85.53Z" fill="#00CD73"/>
<path d="M200.25 97.98C200.02 97.74 199.81 97.49 199.6 97.22C199.8 97.48 200.02 97.73 200.25 97.98Z" fill="#00CD73"/>
<path d="M200.98 81.49C201.23 81.27 201.49 81.06 201.75 80.86C201.49 81.06 201.23 81.27 200.98 81.49Z" fill="#00CD73"/>
<path d="M204.35 100.79C203.72 100.54 203.12 100.23 202.56 99.88C203.12 100.23 203.72 100.54 204.35 100.79Z" fill="#00CD73"/>
<path d="M199.3 96.82C199.11 96.55 198.92 96.27 198.75 95.98C198.92 96.27 199.1 96.55 199.3 96.82Z" fill="#00CD73"/>
<path d="M205.81 101.26C205.31 101.13 204.83 100.97 204.35 100.78C204.82 100.98 205.31 101.14 205.81 101.26Z" fill="#00CD73"/>
<path d="M202.58 80.29C202.86 80.11 203.16 79.95 203.46 79.8C203.16 79.95 202.87 80.11 202.58 80.29Z" fill="#00CD73"/>
<path d="M205.35 79.04C205.68 78.94 206.01 78.86 206.35 78.79C206.01 78.86 205.68 78.95 205.35 79.04Z" fill="#00CD73"/>
<path d="M203.46 79.8C203.91 79.57 204.38 79.37 204.86 79.2C204.38 79.37 203.91 79.57 203.46 79.8Z" fill="#00CD73"/>
<path d="M219.49 86.39C219.73 87.1 219.9 87.83 220.01 88.56C219.9 87.83 219.73 87.09 219.49 86.39Z" fill="#00CD73"/>
<path d="M220.09 89.11C220.13 89.48 220.16 89.85 220.18 90.22C220.16 89.85 220.13 89.48 220.09 89.11Z" fill="#00CD73"/>
<path d="M217.97 83.4301C218.52 84.1801 218.96 85.0001 219.3 85.8701C218.97 85.0001 218.53 84.1701 217.97 83.4301Z" fill="#00CD73"/>
<path d="M220.09 89.11C220.07 88.93 220.04 88.74 220.01 88.56C219.89 87.82 219.72 87.09 219.49 86.39C219.43 86.21 219.37 86.04 219.3 85.86C218.96 84.99 218.53 84.17 217.97 83.42C217.64 82.97 217.26 82.55 216.84 82.17L214.54 80.39C212.76 79.36 210.85 78.84 208.8 78.84C208.15 78.79 207.51 78.75 206.86 78.7C206.69 78.73 206.52 78.76 206.35 78.79C206.01 78.86 205.68 78.94 205.35 79.04C205.19 79.09 205.02 79.14 204.86 79.2C204.38 79.37 203.91 79.57 203.46 79.8C203.16 79.95 202.87 80.12 202.58 80.29C202.3 80.47 202.02 80.66 201.75 80.86C201.48 81.06 201.22 81.27 200.98 81.49C200.73 81.71 200.49 81.95 200.26 82.19C200.03 82.43 199.81 82.69 199.61 82.95C199.51 83.08 199.41 83.21 199.31 83.35C199.02 83.76 198.75 84.18 198.51 84.63C198.35 84.93 198.2 85.23 198.07 85.54C197.47 86.94 197.13 88.48 197.13 90.1C197.13 92.25 197.72 94.27 198.75 95.99C198.92 96.28 199.1 96.56 199.3 96.83C199.4 96.97 199.5 97.1 199.6 97.23C199.81 97.49 200.02 97.74 200.25 97.99C200.93 98.72 201.71 99.36 202.56 99.89C203.13 100.24 203.73 100.55 204.35 100.8C204.82 100.99 205.31 101.15 205.81 101.28C206.14 101.36 206.48 101.43 206.82 101.49C207.4 101.53 207.97 101.57 208.55 101.6C208.63 101.6 208.71 101.61 208.8 101.62C208.88 101.63 208.96 101.62 209.03 101.63C215.14 101.44 220.05 96.49 220.18 90.36C220.18 90.32 220.18 90.28 220.18 90.24C220.16 89.85 220.13 89.48 220.09 89.11Z" fill="#FF84F9"/>
<path d="M94.5099 109.66C101.601 109.66 107.35 103.911 107.35 96.82C107.35 89.7286 101.601 83.98 94.5099 83.98C87.4186 83.98 81.6699 89.7286 81.6699 96.82C81.6699 103.911 87.4186 109.66 94.5099 109.66Z" fill="#C8E6FF"/>
<path d="M82.99 55.76C82.14 57.09 81.59 58.66 81.25 60.25C83.55 63.72 87.48 66.0101 91.96 66.0101C99.05 66.0101 104.8 60.26 104.8 53.17C104.8 50.54 104.01 48.09 102.65 46.05C99.03 46.74 95.83 47.3701 93.72 47.8101C88.56 48.9001 85.7 51.49 82.99 55.76Z" fill="#C8E6FF"/>
<path d="M246.76 171.08L265.14 196.47L222.39 234.35L212.45 216.69L246.76 171.08Z" fill="#648CFF"/>
<path fill-rule="evenodd" clip-rule="evenodd" d="M116.558 205.984C116.959 206.364 116.976 206.997 116.596 207.398L96.3557 228.748C96.1388 228.977 95.8267 229.09 95.5137 229.053C95.2006 229.017 94.9231 228.834 94.7649 228.562L89.4349 219.372C89.1578 218.894 89.3205 218.282 89.7983 218.005C90.276 217.728 90.8879 217.891 91.165 218.368L95.8242 226.402L115.144 206.022C115.524 205.621 116.157 205.604 116.558 205.984Z" fill="black"/>
<path d="M180.27 223.59L190.52 233.06C187.1 240.65 188.85 249.98 195.61 256.17L202.64 262.61C211.03 270.3 224.03 270.27 231.9 262.55L294.34 201.31C302.16 193.64 302.08 181.17 294.17 173.12L287.49 166.33C281.02 159.75 271.29 158.11 263.44 161.54L253.64 151.7C249.71 147.76 242.78 148.15 238.28 152.56L180.98 208.76C176.53 213.14 176.2 219.82 180.27 223.59Z" fill="#FDCD01"/>
<mask id="mask0" mask-type="alpha" maskUnits="userSpaceOnUse" x="177" y="149" width="123" height="120">
<path d="M179.852 223.609L190.102 233.079C186.682 240.669 188.432 249.999 195.192 256.189L202.222 262.629C210.612 270.319 223.612 270.289 231.482 262.569L293.922 201.329C301.742 193.659 301.662 181.189 293.752 173.139L287.072 166.349C280.602 159.769 270.872 158.129 263.022 161.559L253.222 151.719C249.292 147.779 242.362 148.169 237.862 152.579L180.562 208.779C176.112 213.159 175.782 219.839 179.852 223.609Z" fill="#FDCD01"/>
</mask>
<g mask="url(#mask0)">
<path d="M228.93 160.51C251.15 152.79 275.19 162.66 292.99 176.2C301.92 183 310.78 191.93 313.3 203.26C315.6 213.62 311.82 226.01 301.41 230.3C290.27 234.88 277.79 228.59 269.49 221.17C261.22 213.77 251.89 200.93 257.96 189.48C264.57 176.99 281.22 182.78 290.02 189.13C299.13 195.69 306.19 204.83 311.28 214.77C316.16 224.28 320.28 235.36 320.5 246.16C320.77 259.2 313.38 267.73 300.96 270.88C276.95 276.99 252.41 265.6 235.57 248.83C227.04 240.33 219.43 230.25 215.51 218.76C211.78 207.83 211.5 191.35 222.88 184.63C235.87 176.97 249.52 189.12 256.62 199.07C263.33 208.46 268.41 219.55 270.3 230.98C272.21 242.48 269.8 255.94 257.24 259.98C246.13 263.55 233.56 259.47 223.97 253.67C204.57 241.95 190.01 220.76 183.56 199.28C180.36 188.61 178.22 176.01 180.88 164.99C183.76 153.06 194.03 147.66 205.69 148.17C226.79 149.08 245.9 165.27 255.42 183.29C260.43 192.76 263.8 204.28 262.05 215.05C259.79 228.9 247.92 236.03 234.37 233.41C222.5 231.12 212.03 222.76 203.21 214.92C194.52 207.19 186.81 198.36 180.38 188.67C174.46 179.75 168.73 169.68 168.07 158.75C167.29 145.87 176.1 137.24 188.71 136.64C199.81 136.12 211.11 140.34 221.14 144.65C231.81 149.24 242.05 155.3 250.03 163.85C258.16 172.56 265.91 186.11 262.96 198.47C260.55 208.55 250.02 213.72 240.37 214.08C218.07 214.9 199.9 190.49 195.09 170.85C192.19 159 195.96 147.34 207.02 141.46C215.63 136.88 225.96 135.98 235.53 136.88C256.05 138.8 275.94 147.92 291.52 161.28C307.4 174.89 323.63 196.88 321.92 218.88C320.97 231.08 312.36 242.97 299.56 244.26C293.4 244.88 287.2 243.19 281.31 241.59C274.91 239.85 268.49 237.84 262.69 234.57C244.55 224.35 237.67 201.78 242.86 182.26C245.96 170.56 253.67 160.11 266.98 161.03C278.61 161.83 290.21 168.9 298.91 176.28C316.51 191.2 326.81 212.88 328.85 235.72C329.89 247.32 329.02 259.21 326.24 270.53C323.65 281.05 318.7 291.98 308.56 297.12C297.3 302.83 282.78 300.92 270.79 299.09C258.43 297.21 245.65 294.08 234.42 288.49C213.85 278.25 202.57 255.48 207.37 232.81C209.97 220.53 219 210.96 232.33 214.68C243.66 217.84 252.24 227.76 257.68 237.73C266 252.97 276.69 289.57 253.19 297.43C242.03 301.17 229.63 295.94 220.37 289.81C211.35 283.84 203.75 275.89 197.66 266.99C191.76 258.38 187.19 248.91 183.74 239.07C179.78 227.79 176.52 215.52 177.11 203.48C177.68 191.92 183.01 179.85 193.74 174.35C205.43 168.36 218.73 173.09 228.18 181.04C236.96 188.43 243.25 198.87 246.36 209.87C249.74 221.81 250.98 241.42 233.3 240.63C221.97 240.12 210.98 230.7 203.03 223.39C195.1 216.09 188.26 207.63 182.76 198.36C177.33 189.21 173.23 179.26 170.76 168.91C168.32 158.67 164.88 142.77 173.22 134.31C182.05 125.35 198.01 127.68 208.67 131.31C219.75 135.09 229.77 141.47 239.48 147.87C248.79 154.01 258.36 160.64 264.93 169.83C266.37 171.85 267.67 174 268.73 176.25C269.7 178.32 270.33 179.36 268.12 180.54C266.4 181.46 262.77 180.97 261.02 180.64C255.28 179.56 249.92 176.42 245.03 173.35C235.28 167.23 225.43 158.77 219.32 148.87C215.79 143.15 215.65 136.96 220.78 132.16C226.19 127.1 233.98 126.76 240.95 127.53C263.94 130.05 289.77 137.23 306.58 153.9C321.79 168.98 328.89 195.1 311.34 211.55C301.91 220.38 288.04 220.74 275.94 218.77C264.41 216.89 251.96 211.15 248.68 198.89C245.36 186.48 255.44 178.02 267.16 178.31C278.82 178.59 288.03 186.7 295.2 195.14C309.7 212.17 325.53 235.33 318.98 258.86C311.62 285.32 280.93 287.41 258.81 280.82C237.66 274.52 209.43 261.55 207.2 236.29C206.95 233.47 207.02 230.37 207.82 227.63C208.15 226.83 208.47 226.03 208.8 225.23C211.13 224.49 213.47 223.76 215.8 223.02C217.55 223.12 219.96 224.73 221.51 225.63C226.33 228.44 230.74 231.96 234.64 235.95C242.32 243.79 248.06 253.68 250.66 264.37C252.27 271.02 252.99 278.73 248.71 284.56C243.24 291.99 234.87 290.43 228.06 285.88C218.85 279.72 211.13 271.17 204.8 262.15C198.91 253.76 194.06 244.67 189.75 235.38C184.71 224.52 179.69 213.28 176.52 201.71C174.74 195.2 173.65 188.39 174.31 181.63C174.72 177.39 175.67 173 180 171.09C183.18 169.69 186.84 170.31 190.03 171.4C199.84 174.74 207.65 184.06 211.7 193.31C215.84 202.75 217.29 215.24 212.44 224.74C204.49 240.31 186.96 225.1 179.64 217.29C171.7 208.82 165.34 198.97 159.6 188.92C153.53 178.3 147.57 166.02 149.82 153.45C151.99 141.33 161.31 132.89 173.84 133.26C185.08 133.59 196.68 138.69 206.3 144.21C210.41 146.57 214.35 149.31 217.64 152.74C219.49 154.68 221.13 156.84 222.38 159.22C223.4 161.15 224.21 161.95 222.92 163.64C221.3 165.76 216.57 164.94 214.41 164.43C208.66 163.08 204.14 159.07 200.08 155.01C195.6 150.53 190.12 145.53 189.14 138.97C186.95 124.32 203.8 117.99 215.43 117.99C227.34 117.99 239.88 120.65 251.1 124.56C262.31 128.46 272.96 134.6 280.88 143.57C287.91 151.53 299.03 170.02 286.47 178.01C276.14 184.58 261.36 177.47 252.84 170.75C248.36 167.22 244.13 162.35 243.9 156.35C243.62 149.1 249.34 143.47 255.65 140.98C266.62 136.66 280.32 139.34 291.39 142.08C302.37 144.8 312.95 149.17 322.55 155.18C341.84 167.28 356.72 186.69 361.14 209.26C363.42 220.92 363.05 234 357.47 244.72C352.31 254.62 343.13 261.6 333.61 267.01C313.56 278.41 287.11 288.63 264.98 276.97C255.66 272.06 247.11 263 246.82 251.91C246.69 247.02 248.27 241.74 251.96 238.37C257.8 233.04 266.05 234.9 272.03 238.86C290.53 251.12 296.79 282.36 284.17 300.71C268.46 323.54 234.62 308.13 216.32 297.72C196.4 286.4 178.22 269.58 172.54 246.6C171.3 241.58 170.72 236.38 170.96 231.21C171.08 228.63 171.05 224.47 172.3 222.15C172.42 221.73 172.54 221.32 172.66 220.9C175.33 220.35 178 219.8 180.67 219.25C182.41 219.82 183.95 223.17 184.91 224.71C191.04 234.5 192.78 252.42 178.13 255.81C166.1 258.59 154.03 247.38 147.95 238.28C142.15 229.6 138.75 219.44 136.74 209.26C134.29 196.82 134.07 183.22 140.84 172.02C147.2 161.5 158.84 155.91 171.02 157.85C176.97 158.8 182.39 161.48 186.8 165.6C189.09 167.74 198.13 178.2 193.33 180.67C187.58 183.64 178.98 175.63 175.25 172.21C170.99 168.3 166.86 164.1 163.74 159.19C157 148.59 157.78 136.41 166.63 127.3C175.46 118.21 188.49 115.71 200.7 115.8C221.87 115.95 252.21 120.18 265.04 139.4C281.2 163.62 232.64 182.91 223.17 157.27C218.86 145.62 225.83 133.99 236.24 128.68C248.08 122.64 261.89 123.92 274.42 126.8C295.06 131.55 317.25 139.61 331.19 156.39C344.8 172.78 347.76 195.66 340.65 215.47C334.03 233.92 315.86 253.89 294.75 253.77C283.6 253.71 270.27 245.21 272.9 232.56C273.97 227.4 277.64 222.78 282.89 221.52C290.31 219.74 297.54 225.16 302.09 230.41C317.34 248.01 316.09 275.06 298.39 290.39C279.04 307.15 250.52 301.71 229.5 291.06C209.45 280.9 192.96 262.72 189.26 240.02C188.76 236.97 188.52 233.88 188.55 230.79C188.56 229.34 188.49 227.7 188.88 226.29C189.94 222.37 194.33 220.4 197.89 222.34C202.74 224.99 206.43 232.02 208.51 236.95C211.33 243.64 210.58 251.87 202.25 253.62C195.67 255 189.56 251.41 184.96 247.06C169.6 232.53 152.47 206.67 166.14 185.86C166.65 185.08 165.4 184.36 164.89 185.13C154.46 201 161.73 220.17 171.97 234.07C177.14 241.09 183.16 249.4 191.18 253.35C196.55 256 204.12 256.46 208.66 251.9C213.8 246.74 211.43 239.04 208.46 233.43C205.53 227.9 200.48 218.91 192.99 219.88C185.67 220.83 186.88 231.09 187.36 236.29C188.19 245.17 191.09 253.79 195.48 261.53C204.5 277.45 219.64 289.02 236.45 295.77C253.72 302.7 274.61 306.28 291.64 296.85C305.91 288.94 315.02 273.77 314.27 257.35C313.6 242.8 303.93 221.49 287.31 219.86C273.48 218.5 267.04 235.42 274.53 245.61C284.84 259.64 304.25 255.83 316.93 247.77C344.26 230.42 353.99 192.4 338.26 164.11C329.69 148.7 314.34 138.9 298.31 132.57C280.79 125.65 258.31 118.72 239.8 125.55C226.38 130.51 215.82 144.63 222.39 159.09C228.91 173.45 247.65 173.22 259.33 165.75C265.38 161.88 270.83 155.71 270 148.07C269.18 140.54 263.58 134.22 257.77 129.85C242.81 118.59 222.65 115.19 204.36 114.42C187.35 113.71 166.57 117.93 159.38 135.57C152.77 151.79 166.04 166.76 177.81 176.33C182.95 180.51 190.06 184.61 196.43 180.71C196.71 180.54 196.84 180.21 196.76 179.89C192.12 161.55 171.78 150.91 154.12 158.35C135.59 166.16 131.9 188.22 134.72 205.96C137.59 224.01 145.26 244.09 161.94 253.61C168.95 257.61 178 259.66 184.76 254.04C191.09 248.78 192.45 240.02 190.15 232.45C188.56 227.2 183.26 215.02 176.13 215.81C168.8 216.63 169.3 230.84 169.52 235.85C170.46 256.82 183.16 275.14 199.13 287.88C207.31 294.4 216.39 299.74 225.81 304.24C235.59 308.91 245.99 313.16 256.94 313.68C265.52 314.08 274.75 311.91 281.3 306.1C288.21 299.97 291.18 290.19 291.88 281.24C293.23 263.98 284.86 241.06 267.23 234.72C250.15 228.58 241.52 247.57 247.62 261.34C255.55 279.23 277.34 285.41 295.26 282.87C305.98 281.35 316.19 277.32 325.89 272.62C334.88 268.26 343.82 263.17 350.89 255.99C365.16 241.5 366.39 219.86 360.63 201.21C354.52 181.44 340.71 164.82 323.3 153.88C306.42 143.27 283.67 135.57 263.52 137.63C255.37 138.46 246.65 142.32 243.49 150.46C240.57 158 244.58 165.36 250.19 170.37C256.9 176.34 266.76 181.37 275.84 181.88C283.24 182.29 291.32 178.82 293.15 171.04C295.14 162.57 289.85 152.76 284.97 146.22C279.22 138.52 271.49 132.43 262.99 128.03C252.74 122.72 241.46 119.72 230.1 117.91C220.43 116.37 209.72 115.13 200.48 119.21C193.37 122.35 187.17 129.45 187.52 137.6C187.9 146.39 196.45 153.95 202.59 159.31C208.91 164.82 217.32 168.56 225.38 164.53C225.66 164.39 225.8 164.01 225.71 163.71C223.2 155.19 216.92 149.07 209.57 144.42C200.92 138.95 190.55 134.43 180.49 132.51C171.74 130.84 162.28 131.84 155.72 138.41C149.8 144.34 147.41 153.18 148 161.39C148.81 172.69 154.47 183.04 160.12 192.6C165.92 202.41 172.36 211.98 180.41 220.1C186.37 226.12 194.98 233.94 204.25 232.67C212.53 231.53 215.56 222.77 216.5 215.54C218.76 198.28 209.16 178.77 193.24 171.11C186.91 168.06 177.74 167.17 174.35 174.75C169.99 184.51 173.63 197.97 176.82 207.5C183.78 228.29 193.36 249.82 206.82 267.23C214.78 277.53 236.94 302.81 249.87 285.49C255.67 277.71 253.36 266.58 250.35 258.17C247.07 248.97 241.58 240.61 234.61 233.78C229.52 228.8 219.15 219 211.25 221.49C203.66 223.87 205.3 236.69 206.92 242.36C212.93 263.41 234.85 274.2 253.99 280.72C272.74 287.11 297.2 289.47 312.27 273.76C326.72 258.7 322.77 235.63 313.75 218.94C308.47 209.16 301.56 199.79 294.08 191.58C287.8 184.69 279.96 178.39 270.46 177.06C262.96 176.01 254.19 177.9 249.54 184.36C244.92 190.79 246.21 199.44 250.25 205.82C255.27 213.74 264.3 217.84 273.21 219.66C283.05 221.67 294.37 222.21 303.77 218.17C320.14 211.14 326.44 191.13 321.5 174.89C315.36 154.71 296.52 141.52 277.58 134.6C266.43 130.53 254.48 127.78 242.72 126.23C233.95 125.07 223.68 125.47 217.87 133.19C212.37 140.51 216.56 147.94 221.53 154.19C228.42 162.84 236.93 170.19 246.45 175.81C253.79 180.15 263.05 184.9 271.42 180.61C271.69 180.47 271.85 180.08 271.75 179.79C268.05 169.32 260.46 161.39 251.82 154.7C241.42 146.64 229.86 139.11 217.97 133.48C200.66 125.29 168.03 120.51 166.82 147.79C165.84 170.02 176.1 193.4 189.46 210.63C196.8 220.09 205.66 228.42 215.67 235.01C223.7 240.3 235.48 245.68 244.37 238.93C252.73 232.58 250.35 218.95 248 210.18C244.91 198.66 238.38 187.66 229.23 179.93C221.21 173.17 210.47 168.39 199.82 170.58C190.3 172.54 182.83 179.9 178.98 188.6C173.79 200.34 175.41 213.8 178.37 225.89C181.13 237.2 185.22 248.26 190.82 258.48C201.08 277.21 219.15 297.06 241.58 299.71C289.67 305.4 266.12 213.11 226.71 212.24C203.03 211.72 202.46 245.3 207.92 260.98C216.5 285.62 241.14 294.9 264.84 299.43C277.05 301.76 291.02 303.92 303.22 300.57C313.38 297.79 320.34 290.27 324.38 280.77C333.95 258.29 332.74 229.52 323.38 207.25C314.69 186.58 297.1 167.89 275.3 161.14C265.38 158.06 255.02 159.1 248.2 167.62C242.08 175.27 239.69 185.85 239.74 195.48C239.79 205.6 242.72 215.85 248.73 224.06C255.08 232.74 264.41 237.73 274.47 240.99C285.54 244.58 298.93 248.81 309.71 242.27C318.42 236.99 323.16 227.05 323.46 217.08C324.16 194.24 307.18 171.94 290.26 158.24C273.56 144.72 251.8 135.29 230.09 135.04C210.41 134.81 189.38 145.05 193.04 167.92C194.81 178.98 200.98 189.61 208.02 198.18C214.81 206.45 224.12 213.7 235.01 215.17C243.24 216.28 252.43 214.19 258.61 208.44C266.54 201.07 265.91 189.85 262.34 180.43C253.72 157.65 229.83 144.84 207.8 138.07C198.42 135.18 186.98 133.09 177.75 137.64C168.59 142.15 165.57 151.93 166.92 161.52C168.47 172.47 174.34 182.42 180.52 191.37C187.84 201.97 196.67 211.52 206.65 219.66C215.88 227.19 226.69 234.84 239.04 235.31C248.71 235.67 257.63 231.15 261.53 222.06C270.13 202.05 256.59 176.93 242.06 163.48C229 151.39 203.7 138.59 187.14 151.78C178.65 158.54 177.91 170.34 178.61 180.36C179.41 191.84 182.6 203.07 187.52 213.45C197.3 234.07 215.31 255.55 238.35 261.27C247.74 263.6 259.42 263.42 266.47 255.82C273.19 248.57 273.19 237.48 271.29 228.38C268.8 216.46 263.24 204.98 255.74 195.42C249.19 187.07 239.39 179.29 228.07 181.18C217.64 182.93 212.45 193.2 211.78 202.91C210.97 214.71 216.12 226.18 222.69 235.69C236.58 255.78 258.57 272.02 283.53 273.72C293.82 274.42 306.45 272.97 314.49 265.85C322.24 258.99 322.83 248.02 321.14 238.48C317.41 217.42 304.22 193.48 284.3 183.91C276.18 180.01 264.77 178.28 258.35 186.16C251.91 194.05 254.88 205.05 260.12 212.65C270.04 227.04 296.25 243.77 310.43 225.02C324.03 207.02 308.26 185.91 293.71 174.86C275.6 161.11 251.12 151.17 228.54 159.02C227.67 159.42 228.05 160.82 228.93 160.51Z" fill="#FF84F9"/>
</g>
</svg>
