<svg width="35" height="32" viewBox="0 0 35 32" fill="none" xmlns="http://www.w3.org/2000/svg">
<path fill-rule="evenodd" clip-rule="evenodd" d="M1.6 0H17.3135C28.5918 0 35 5.59467 35 15.8032C35 26.2736 28.5918 32 17.3135 32H1.6C0.716345 32 0 31.2837 0 30.4V24H2.568V17.568H9.216V24H13.344V7.992H9.216V13.968H2.568V7.992H0V1.6C0 0.716345 0.716344 0 1.6 0ZM28.0131 18.192C28.0131 21.456 25.6611 24.288 21.6771 24.288C17.7411 24.288 15.3651 21.456 15.3651 18.192C15.3651 14.928 17.7411 12.12 21.6771 12.12C25.6611 12.12 28.0131 14.928 28.0131 18.192ZM19.1811 18.192C19.1811 19.752 20.0691 21.024 21.6771 21.024C23.3091 21.024 24.2211 19.752 24.2211 18.192C24.2211 16.656 23.3091 15.384 21.6771 15.384C20.0691 15.384 19.1811 16.656 19.1811 18.192Z" fill="#58D289"/>
</svg>
