<svg width="35" height="32" viewBox="0 0 35 32" fill="none" xmlns="http://www.w3.org/2000/svg">
<path fill-rule="evenodd" clip-rule="evenodd" d="M1.6 0H17.3135C28.5918 0 35 5.59467 35 15.8032C35 26.2736 28.5918 32 17.3135 32H1.6C0.716345 32 0 31.2837 0 30.4V21.7344C1.42007 22.7268 3.20526 23.288 5.192 23.288C10.088 23.288 13.736 19.88 13.736 15.008C13.736 10.136 10.088 6.728 5.192 6.728C3.20526 6.728 1.42007 7.28918 0 8.28163V1.6C0 0.716345 0.716344 0 1.6 0ZM5.192 19.64C7.832 19.64 9.536 17.6 9.536 15.008C9.536 12.392 7.832 10.376 5.192 10.376C2.528 10.376 0.824 12.392 0.824 15.008C0.824 17.6 2.528 19.64 5.192 19.64ZM19.415 21.632V27.416H15.719V11.408H19.415V12.752C20.327 11.648 21.527 11.12 22.847 11.12C25.751 11.12 27.935 13.28 27.935 17.192C27.935 21.128 25.751 23.288 22.847 23.288C21.551 23.288 20.375 22.784 19.415 21.632ZM21.623 20.024C23.063 20.024 24.167 18.944 24.167 17.192C24.167 15.464 23.063 14.384 21.623 14.384C20.831 14.384 19.871 14.816 19.415 15.44V18.968C19.871 19.568 20.831 20.024 21.623 20.024Z" fill="#00AC4A"/>
</svg>
