<svg width="116" height="53" viewBox="0 0 116 53" fill="none" xmlns="http://www.w3.org/2000/svg">
<path opacity="0.9" d="M23.8806 30.0962H29.3482V14.3263H23.8806V30.0962ZM31.1741 3.62417H27.534V7.25569H31.1741V3.62417ZM10.6537 5.43332H5.47202V10.0208H10.3708C13.4774 10.0208 15.243 11.526 15.2341 14.2705C15.2341 17.0841 13.4656 18.6231 10.3604 18.6231H5.4676V10.0208H0V30.0933H5.4676V23.2091H10.6493C16.9333 23.2091 20.5352 19.8111 20.5381 14.0767C20.5381 8.62576 16.9378 5.43479 10.6537 5.43332ZM34.8231 0H23.8879V10.896H34.8231V0ZM32.9972 9.07952H25.7066V1.81649H32.9972V9.07952ZM64.8419 5.45829H59.8562V10.0472H64.5589C67.667 10.0472 69.4311 11.5524 69.4311 14.297C69.4311 17.1106 67.6626 18.6495 64.556 18.648H59.8547V10.0472H54.3871V30.1197H59.8547V23.2267H64.8404C71.1259 23.2267 74.7278 19.8287 74.7292 14.0943C74.7292 8.64339 71.1303 5.45241 64.8448 5.45094L64.8419 5.45829ZM110.412 11.2073L105.743 22.955L101.093 11.2073H95.4796L102.909 30.0933L100.045 37.3019H105.746L116 11.2132L110.412 11.2073ZM86.0166 11.1324C82.6978 11.1324 80.2617 11.9048 77.4365 13.3102L79.1298 17.0401C81.1076 15.9505 83.1089 15.388 84.7993 15.388C87.4123 15.388 88.7784 16.5511 88.7784 18.5555V18.9417H83.5127C78.8528 18.9417 76.2752 21.0681 76.2737 24.6218C76.2737 28.0697 78.7452 30.525 82.8053 30.5264C85.4581 30.5264 87.3356 29.6454 88.7755 28.0565V30.1256H94.1031L94.0722 17.8507C94.0338 13.5862 91.104 11.1266 86.0196 11.1251L86.0166 11.1324ZM89.2029 23.7979C88.6266 25.4133 87.063 26.6468 84.7684 26.6468C82.9321 26.6468 81.7929 25.6893 81.7929 24.2458C81.7929 22.7333 82.8083 22.0945 84.8878 22.0945H89.1999L89.2029 23.7979ZM43.1321 25.9581C40.4794 25.9581 38.6136 23.8802 38.6136 20.8184C38.6136 17.7919 40.4867 15.7522 43.1351 15.7537C43.9667 15.7202 44.7943 15.8847 45.5493 16.2335C46.3044 16.5824 46.9651 17.1055 47.4767 17.7596L51.1508 15.1164C49.456 12.5833 46.5615 11.1398 42.9243 11.1383C37.0986 11.1383 33.1784 15.04 33.177 20.8463C33.177 26.5733 37.0927 30.4515 42.8477 30.453C46.7325 30.453 49.6977 28.9067 51.2878 26.2694L47.546 23.7348C46.5925 25.2194 45.073 25.9581 43.1321 25.9581Z" fill="black"/>
<path d="M23.3047 50.85V52.0086H16.5151V42.6853H23.1175V43.8439H17.8518V46.7074H22.5427V47.8396H17.8518V50.85H23.3047Z" fill="black"/>
<path d="M34.1456 52.0086L34.1324 45.2155L30.7428 50.8764H30.143L26.7534 45.2566V52.0116H25.4712V42.6853H26.5662L30.4701 49.2376L34.3196 42.6853H35.4145L35.4293 52.0086H34.1456Z" fill="black"/>
<path d="M44.7442 43.5517C45.4378 44.1293 45.7851 44.9237 45.7861 45.935C45.7871 46.9463 45.4398 47.7413 44.7442 48.3198C44.0485 48.8974 43.095 49.1857 41.8836 49.1848H39.5742V52.0086H38.2375V42.6853H41.8866C43.096 42.6853 44.0485 42.9741 44.7442 43.5517ZM43.7818 47.4916C44.2269 47.1313 44.4494 46.614 44.4494 45.9394C44.4494 45.2654 44.2269 44.747 43.7818 44.3887C43.3367 44.0304 42.6897 43.8483 41.8438 43.8483H39.5742V48.0305H41.8438C42.6888 48.0276 43.3348 47.848 43.7818 47.4916Z" fill="black"/>
<path d="M54.007 52.0086L51.988 49.1451C51.7384 49.1627 51.5419 49.1715 51.3985 49.1715H49.0877V52.0086H47.751V42.6853H51.4C52.6134 42.6853 53.5669 42.9741 54.2605 43.5517C54.9542 44.1293 55.3019 44.9237 55.3039 45.935C55.3234 46.5886 55.1363 47.2317 54.7689 47.7736C54.3915 48.2939 53.8579 48.6811 53.2451 48.8793L55.4557 52.0086H54.007ZM53.2982 47.4916C53.7432 47.1274 53.9662 46.6081 53.9672 45.9336C53.9672 45.2595 53.7432 44.7412 53.2982 44.3829C52.8531 44.0245 52.2061 43.8425 51.3602 43.8425H49.0877V48.0379H51.3646C52.2076 48.0389 52.8521 47.8568 53.2982 47.4916Z" fill="black"/>
<path d="M64.2587 50.85V52.0086H57.4692V42.6853H64.0715V43.8439H58.8059V46.7074H63.4968V47.8396H58.8059V50.85H64.2587Z" fill="black"/>
<path d="M67.1119 51.7884C66.5431 51.6188 66.0171 51.3305 65.5688 50.9426L66.0625 49.9044C66.464 50.2505 66.9296 50.5149 67.4331 50.6827C67.9842 50.8801 68.5659 50.9795 69.1515 50.9764C69.9267 50.9764 70.5059 50.8457 70.8891 50.5843C71.0668 50.4739 71.213 50.3196 71.3134 50.1365C71.4139 49.9533 71.4652 49.7474 71.4624 49.5387C71.4681 49.3941 71.4431 49.2498 71.389 49.1154C71.3349 48.9811 71.2529 48.8596 71.1485 48.759C70.9267 48.5517 70.6621 48.3953 70.3733 48.3008C70.0667 48.1941 69.6325 48.0742 69.0705 47.941C68.4919 47.81 67.9228 47.6408 67.3668 47.4344C66.9386 47.2686 66.5576 47.0009 66.2571 46.6547C65.9496 46.3052 65.7958 45.8328 65.7958 45.2376C65.7896 44.76 65.9272 44.2915 66.1908 43.8925C66.488 43.4647 66.9031 43.1317 67.386 42.9336C68.0173 42.675 68.6963 42.5524 69.3785 42.5738C69.9288 42.5733 70.4768 42.6449 71.0085 42.7867C71.4995 42.9096 71.9653 43.1168 72.3849 43.3991L71.9428 44.4652C71.5533 44.217 71.1299 44.0261 70.6857 43.8984C70.2609 43.7726 69.8202 43.7078 69.377 43.706C68.6195 43.706 68.0511 43.8435 67.6719 44.1186C67.4957 44.2348 67.3514 44.3931 67.2523 44.579C67.1532 44.765 67.1024 44.9727 67.1045 45.1833C67.0997 45.3285 67.1258 45.473 67.1812 45.6075C67.2366 45.7419 67.3199 45.863 67.4258 45.963C67.6548 46.1721 67.9255 46.3307 68.2201 46.4285C68.6432 46.5696 69.0737 46.6877 69.5096 46.7824C70.0862 46.913 70.6534 47.0817 71.2074 47.2876C71.6312 47.4541 72.0091 47.7189 72.3098 48.06C72.6173 48.4065 72.771 48.873 72.771 49.4594C72.7751 49.9353 72.6354 50.4014 72.3702 50.7972C72.0686 51.2293 71.6456 51.5629 71.1544 51.7561C70.5173 52.0083 69.8353 52.1282 69.1501 52.1085C68.4577 52.1128 67.7693 52.0047 67.1119 51.7884Z" fill="black"/>
<path d="M80.692 49.6782H75.7211L74.6895 52.0086H73.313L77.55 42.6853H78.8764L83.1266 52.0086H81.7236L80.692 49.6782ZM80.2248 48.6121L78.2073 44.0436L76.1882 48.6121H80.2248Z" fill="black"/>
<path d="M85.1963 51.7882C84.6276 51.6187 84.1016 51.3303 83.6533 50.9424L84.147 49.9042C84.5485 50.2504 85.0141 50.5148 85.5176 50.6825C86.0683 50.8798 86.6494 50.9792 87.2345 50.9762C88.0097 50.9762 88.5889 50.8455 88.9721 50.5841C89.1502 50.474 89.2968 50.3198 89.3975 50.1366C89.4982 49.9534 89.5496 49.7474 89.5468 49.5385C89.5526 49.3939 89.5276 49.2496 89.4735 49.1152C89.4194 48.9809 89.3374 48.8594 89.2329 48.7588C89.0112 48.5515 88.7466 48.3951 88.4577 48.3006C88.1512 48.1939 87.7169 48.074 87.1549 47.9408C86.5764 47.8098 86.0073 47.6406 85.4513 47.4342C85.0228 47.269 84.6417 47.0012 84.3416 46.6545C84.034 46.305 83.8803 45.8326 83.8803 45.2374C83.8744 44.76 84.0114 44.2917 84.2738 43.8923C84.5716 43.4644 84.9872 43.1314 85.4705 42.9334C86.1017 42.6747 86.7807 42.552 87.463 42.5736C88.0135 42.5751 88.5616 42.6487 89.0929 42.7924C89.584 42.9152 90.0498 43.1224 90.4694 43.4047L90.0273 44.4708C89.6378 44.2227 89.2144 44.0318 88.7702 43.904C88.3454 43.7782 87.9047 43.7135 87.4615 43.7117C86.704 43.7117 86.1356 43.8492 85.7564 44.1243C85.5801 44.2405 85.4359 44.3987 85.3368 44.5847C85.2377 44.7707 85.1869 44.9784 85.189 45.1889C85.1834 45.3341 85.2091 45.4788 85.2642 45.6133C85.3194 45.7478 85.4028 45.8689 85.5088 45.9687C85.7382 46.1779 86.0094 46.3365 86.3046 46.4342C86.7277 46.5752 87.1582 46.6934 87.5941 46.7881C88.1707 46.9187 88.7379 47.0874 89.2919 47.2933C89.7157 47.4598 90.0936 47.7246 90.3942 48.0657C90.7028 48.4122 90.8565 48.8787 90.8555 49.4651C90.8588 49.9409 90.7192 50.4068 90.4547 50.8029C90.1531 51.235 89.7301 51.5686 89.2388 51.7618C88.6013 52.014 87.9188 52.1339 87.2331 52.1142C86.5409 52.1165 85.853 52.0064 85.1963 51.7882Z" fill="black"/>
</svg>
