<svg width="185" height="27" viewBox="0 0 185 27" fill="none" xmlns="http://www.w3.org/2000/svg">
<path fill-rule="evenodd" clip-rule="evenodd" d="M30.6937 18.8054C28.8093 18.8054 27.4778 17.3018 27.4778 15.0849C27.4778 12.8934 28.8093 11.4153 30.6937 11.4153C32.0253 11.3899 33.0554 11.9504 33.7841 12.8678L36.397 10.9566C35.191 9.12188 33.1308 8.07698 30.5429 8.07698C26.3973 8.07698 23.6086 10.9056 23.6086 15.1105C23.6086 19.2641 26.3973 22.0672 30.4927 22.0672C33.2564 22.0672 35.3669 20.946 36.4976 19.0348L33.8343 17.2C33.1559 18.2704 32.0755 18.8054 30.6937 18.8054ZM63.4783 17.2251C63.0688 18.3973 61.9568 19.2892 60.3235 19.2892C59.0172 19.2892 58.2061 18.5963 58.2061 17.5515C58.2061 16.4557 58.9277 15.9921 60.4099 15.9921H63.4783V17.2251ZM61.2085 8.05144C58.8468 8.05144 57.1131 8.6121 55.1033 9.63145L56.3092 12.3326C57.7161 11.5426 59.1372 11.1348 60.3431 11.1348C62.2023 11.1348 63.1713 11.9759 63.1713 13.4284V13.7077H59.4245C56.1082 13.7077 54.2742 15.25 54.2742 17.8237C54.2742 20.3211 56.0344 22.0988 58.9238 22.0988C60.8081 22.0988 62.1475 21.4555 63.1713 20.3089V21.8077H66.9619L66.9369 12.9164C66.9118 9.83302 64.8263 8.05144 61.2085 8.05144ZM78.5677 8.10006L75.2483 16.6109L71.9367 8.10006H67.9419L73.2332 21.778L71.1967 27H75.2476L82.5393 8.10006H78.5677ZM46.1393 3.946H42.5919V7.26907H45.9384C48.1493 7.26907 49.4056 8.35841 49.4056 10.3461C49.4056 12.3848 48.1493 13.4998 45.9384 13.4998H42.5919V7.26907H38.7013V21.8075H42.5919V16.8229H46.1393C50.6116 16.8229 53.1742 14.3598 53.1742 10.206C53.1742 6.25616 50.6116 3.946 46.1393 3.946ZM18.2928 6.57703H23.4804V1.31547H18.2928V6.57703ZM16.9962 7.89228H24.7774V0H16.9962V7.89228ZM7.57742 3.946H3.89063V7.26907H7.37633C9.58734 7.26907 10.8436 8.35841 10.8436 10.3461C10.8436 12.3848 9.58734 13.4998 7.37633 13.4998H3.89063V7.26907H0V21.8075H3.89063V16.8229H7.57742C12.0495 16.8229 14.6122 14.3598 14.6122 10.206C14.6122 6.25616 12.0495 3.946 7.57742 3.946ZM19.5895 5.26126H22.1832V2.63053H19.5895V5.26126ZM16.9962 21.8076H20.8868V10.3845H16.9962V21.8076Z" fill="#11C76F"/>
<path fill-rule="evenodd" clip-rule="evenodd" d="M92.6888 3H91.3484V24.9241H92.6888V3ZM158.081 18.7398C158.808 18.981 159.56 19.1016 160.337 19.1016C161.212 19.1016 161.949 18.9709 162.548 18.7097C163.148 18.4384 163.595 18.0766 163.89 17.6244C164.185 17.1622 164.333 16.6547 164.333 16.1021C164.333 15.4389 164.161 14.9113 163.817 14.5194C163.482 14.1275 163.079 13.8361 162.607 13.6452C162.136 13.4543 161.511 13.2634 160.735 13.0724C160.135 12.9318 159.658 12.8011 159.305 12.6806C158.96 12.5499 158.671 12.3741 158.435 12.153C158.199 11.9219 158.081 11.6255 158.081 11.2637C158.081 10.7713 158.287 10.3694 158.7 10.0579C159.123 9.74638 159.752 9.59063 160.587 9.59063C161.059 9.59063 161.541 9.66599 162.032 9.81672C162.524 9.9574 162.986 10.1684 163.418 10.4498L163.905 9.24395C163.482 8.9425 162.976 8.71138 162.386 8.5506C161.796 8.38983 161.197 8.30944 160.587 8.30944C159.712 8.30944 158.98 8.44509 158.39 8.7164C157.801 8.98771 157.358 9.34946 157.063 9.80165C156.778 10.2538 156.636 10.7613 156.636 11.324C156.636 11.9973 156.803 12.5348 157.137 12.9368C157.481 13.3287 157.889 13.6201 158.361 13.811C158.843 14.0019 159.472 14.1929 160.248 14.3838C160.868 14.5345 161.344 14.6702 161.678 14.7907C162.023 14.9113 162.308 15.0872 162.534 15.3183C162.77 15.5394 162.888 15.8308 162.888 16.1925C162.888 16.6849 162.676 17.0818 162.254 17.3833C161.831 17.6747 161.192 17.8204 160.337 17.8204C159.688 17.8204 159.054 17.7098 158.435 17.4888C157.825 17.2577 157.324 16.9612 156.931 16.5995L156.385 17.7752C156.798 18.1671 157.363 18.4886 158.081 18.7398ZM109.77 18.981V17.6697H103.754V14.2632H108.93V12.982H103.754V9.74135H109.564V8.43002H102.28V18.981H109.77ZM121.713 11.2939L121.727 18.981H123.143L123.128 8.43002H121.919L117.672 15.8458L113.367 8.43002H112.158V18.981H113.573V11.3391L117.304 17.6998H117.982L121.713 11.2939ZM130.266 8.43002C131.603 8.43002 132.654 8.7566 133.421 9.40975C134.188 10.0629 134.571 10.9623 134.571 12.1078C134.571 13.2533 134.188 14.1527 133.421 14.8058C132.654 15.459 131.603 15.7856 130.266 15.7856H127.715V18.981H126.24V8.43002H130.266ZM130.222 14.4742C131.155 14.4742 131.868 14.2732 132.36 13.8713C132.851 13.4593 133.097 12.8715 133.097 12.1078C133.097 11.3441 132.851 10.7613 132.36 10.3593C131.868 9.94735 131.155 9.74135 130.222 9.74135H127.715V14.4742H130.222ZM141.412 15.7403L143.638 18.981H145.245L142.798 15.4389C143.525 15.1776 144.085 14.7606 144.479 14.1878C144.872 13.6151 145.068 12.9217 145.068 12.1078C145.068 10.9623 144.685 10.0629 143.918 9.40975C143.152 8.7566 142.1 8.43002 140.763 8.43002H136.738V18.981H138.212V15.7705H140.763C140.92 15.7705 141.136 15.7604 141.412 15.7403ZM142.857 13.8713C142.365 14.2833 141.653 14.4893 140.719 14.4893H138.212V9.74135H140.719C141.653 9.74135 142.365 9.94735 142.857 10.3593C143.348 10.7613 143.594 11.3441 143.594 12.1078C143.594 12.8715 143.348 13.4593 142.857 13.8713ZM154.941 17.6697V18.981H147.451V8.43002H154.735V9.74135H148.925V12.982H154.101V14.2632H148.925V17.6697H154.941ZM167.578 16.3432L166.443 18.981H164.924L169.598 8.43002H171.058L175.747 18.981H174.198L173.063 16.3432H167.578ZM172.547 15.1374L170.32 9.96745L168.094 15.1374H172.547ZM178.038 18.7398C178.766 18.981 179.518 19.1016 180.294 19.1016C181.169 19.1016 181.906 18.9709 182.506 18.7097C183.106 18.4384 183.553 18.0766 183.848 17.6244C184.143 17.1622 184.29 16.6547 184.29 16.1021C184.29 15.4389 184.118 14.9113 183.774 14.5194C183.44 14.1275 183.037 13.8361 182.565 13.6452C182.093 13.4543 181.469 13.2634 180.692 13.0724C180.093 12.9318 179.616 12.8011 179.262 12.6806C178.918 12.5499 178.628 12.3741 178.392 12.153C178.156 11.9219 178.038 11.6255 178.038 11.2637C178.038 10.7713 178.245 10.3694 178.658 10.0579C179.08 9.74638 179.709 9.59063 180.545 9.59063C181.017 9.59063 181.498 9.66599 181.99 9.81672C182.481 9.9574 182.943 10.1684 183.376 10.4498L183.863 9.24395C183.44 8.9425 182.934 8.71138 182.344 8.5506C181.754 8.38983 181.154 8.30944 180.545 8.30944C179.67 8.30944 178.938 8.44509 178.348 8.7164C177.758 8.98771 177.316 9.34946 177.021 9.80165C176.736 10.2538 176.593 10.7613 176.593 11.324C176.593 11.9973 176.76 12.5348 177.095 12.9368C177.439 13.3287 177.847 13.6201 178.318 13.811C178.8 14.0019 179.429 14.1929 180.206 14.3838C180.825 14.5345 181.302 14.6702 181.636 14.7907C181.98 14.9113 182.265 15.0872 182.491 15.3183C182.727 15.5394 182.845 15.8308 182.845 16.1925C182.845 16.6849 182.634 17.0818 182.211 17.3833C181.788 17.6747 181.149 17.8204 180.294 17.8204C179.645 17.8204 179.011 17.7098 178.392 17.4888C177.783 17.2577 177.281 16.9612 176.888 16.5995L176.343 17.7752C176.755 18.1671 177.321 18.4886 178.038 18.7398Z" fill="#E5E5E5"/>
</svg>
