<svg width="186" height="49" viewBox="0 0 186 49" fill="none" xmlns="http://www.w3.org/2000/svg">
<path fill-rule="evenodd" clip-rule="evenodd" d="M31.5487 18.8054C29.6643 18.8054 28.3327 17.3018 28.3327 15.0849C28.3327 12.8934 29.6643 11.4153 31.5487 11.4153C32.8802 11.3899 33.9104 11.9504 34.639 12.8678L37.2519 10.9566C36.0459 9.12188 33.9857 8.07698 31.3978 8.07698C27.2523 8.07698 24.4635 10.9056 24.4635 15.1105C24.4635 19.2641 27.2523 22.0672 31.3477 22.0672C34.1114 22.0672 36.2218 20.946 37.3526 19.0348L34.6892 17.2C34.0108 18.2704 32.9304 18.8054 31.5487 18.8054ZM64.3332 17.2251C63.9237 18.3973 62.8117 19.2892 61.1784 19.2892C59.8721 19.2892 59.061 18.5963 59.061 17.5515C59.061 16.4557 59.7826 15.9921 61.2649 15.9921H64.3332V17.2251ZM62.0634 8.05144C59.7017 8.05144 57.968 8.6121 55.9582 9.63145L57.1641 12.3326C58.5711 11.5426 59.9922 11.1348 61.1981 11.1348C63.0573 11.1348 64.0262 11.9759 64.0262 13.4284V13.7077H60.2795C56.9631 13.7077 55.1291 15.25 55.1291 17.8237C55.1291 20.3211 56.8893 22.0988 59.7787 22.0988C61.663 22.0988 63.0024 21.4555 64.0262 20.3089V21.8077H67.8168L67.7919 12.9164C67.7667 9.83302 65.6812 8.05144 62.0634 8.05144ZM79.4226 8.10006L76.1033 16.6109L72.7916 8.10006H68.7969L74.0881 21.778L72.0516 27H76.1025L83.3942 8.10006H79.4226ZM46.9942 3.946H43.4469V7.26907H46.7933C49.0042 7.26907 50.2605 8.35841 50.2605 10.3461C50.2605 12.3848 49.0042 13.4998 46.7933 13.4998H43.4469V7.26907H39.5562V21.8075H43.4469V16.8229H46.9942C51.4665 16.8229 54.0291 14.3598 54.0291 10.206C54.0291 6.25616 51.4665 3.946 46.9942 3.946ZM19.1478 6.57703H24.3353V1.31547H19.1478V6.57703ZM17.8511 7.89228H25.6324V0H17.8511V7.89228ZM8.43234 3.946H4.74555V7.26907H8.23125C10.4423 7.26907 11.6985 8.35841 11.6985 10.3461C11.6985 12.3848 10.4423 13.4998 8.23125 13.4998H4.74555V7.26907H0.854919V21.8075H4.74555V16.8229H8.43234C12.9044 16.8229 15.4671 14.3598 15.4671 10.206C15.4671 6.25616 12.9044 3.946 8.43234 3.946ZM20.4444 5.26126H23.0381V2.63053H20.4444V5.26126ZM17.8511 21.8076H21.7417V10.3845H17.8511V21.8076Z" fill="#11C76F"/>
<path fill-rule="evenodd" clip-rule="evenodd" d="M93.5438 3H92.2033V24.9241H93.5438V3ZM158.936 18.7398C159.663 18.981 160.415 19.1016 161.192 19.1016C162.066 19.1016 162.804 18.9709 163.403 18.7097C164.003 18.4384 164.45 18.0766 164.745 17.6244C165.04 17.1622 165.188 16.6547 165.188 16.1021C165.188 15.4389 165.015 14.9113 164.671 14.5194C164.337 14.1275 163.934 13.8361 163.462 13.6452C162.991 13.4543 162.366 13.2634 161.59 13.0724C160.99 12.9318 160.513 12.8011 160.159 12.6806C159.815 12.5499 159.525 12.3741 159.29 12.153C159.054 11.9219 158.936 11.6255 158.936 11.2637C158.936 10.7713 159.142 10.3694 159.555 10.0579C159.978 9.74638 160.607 9.59063 161.442 9.59063C161.914 9.59063 162.396 9.66599 162.887 9.81672C163.379 9.9574 163.841 10.1684 164.273 10.4498L164.76 9.24395C164.337 8.9425 163.831 8.71138 163.241 8.5506C162.651 8.38983 162.052 8.30944 161.442 8.30944C160.567 8.30944 159.835 8.44509 159.245 8.7164C158.655 8.98771 158.213 9.34946 157.918 9.80165C157.633 10.2538 157.491 10.7613 157.491 11.324C157.491 11.9973 157.658 12.5348 157.992 12.9368C158.336 13.3287 158.744 13.6201 159.216 13.811C159.697 14.0019 160.327 14.1929 161.103 14.3838C161.722 14.5345 162.199 14.6702 162.533 14.7907C162.877 14.9113 163.163 15.0872 163.389 15.3183C163.625 15.5394 163.743 15.8308 163.743 16.1925C163.743 16.6849 163.531 17.0818 163.108 17.3833C162.686 17.6747 162.047 17.8204 161.192 17.8204C160.543 17.8204 159.909 17.7098 159.29 17.4888C158.68 17.2577 158.179 16.9612 157.786 16.5995L157.24 17.7752C157.653 18.1671 158.218 18.4886 158.936 18.7398ZM110.625 18.981V17.6697H104.609V14.2632H109.785V12.982H104.609V9.74135H110.419V8.43002H103.135V18.981H110.625ZM122.567 11.2939L122.582 18.981H123.998L123.983 8.43002H122.774L118.527 15.8458L114.222 8.43002H113.013V18.981H114.428V11.3391L118.159 17.6998H118.837L122.567 11.2939ZM131.121 8.43002C132.458 8.43002 133.509 8.7566 134.276 9.40975C135.043 10.0629 135.426 10.9623 135.426 12.1078C135.426 13.2533 135.043 14.1527 134.276 14.8058C133.509 15.459 132.458 15.7856 131.121 15.7856H128.57V18.981H127.095V8.43002H131.121ZM131.076 14.4742C132.01 14.4742 132.723 14.2732 133.214 13.8713C133.706 13.4593 133.952 12.8715 133.952 12.1078C133.952 11.3441 133.706 10.7613 133.214 10.3593C132.723 9.94735 132.01 9.74135 131.076 9.74135H128.57V14.4742H131.076ZM142.267 15.7403L144.493 18.981H146.1L143.653 15.4389C144.38 15.1776 144.94 14.7606 145.334 14.1878C145.727 13.6151 145.923 12.9217 145.923 12.1078C145.923 10.9623 145.54 10.0629 144.773 9.40975C144.007 8.7566 142.955 8.43002 141.618 8.43002H137.592V18.981H139.067V15.7705H141.618C141.775 15.7705 141.991 15.7604 142.267 15.7403ZM143.712 13.8713C143.22 14.2833 142.507 14.4893 141.574 14.4893H139.067V9.74135H141.574C142.507 9.74135 143.22 9.94735 143.712 10.3593C144.203 10.7613 144.449 11.3441 144.449 12.1078C144.449 12.8715 144.203 13.4593 143.712 13.8713ZM155.796 17.6697V18.981H148.306V8.43002H155.59V9.74135H149.78V12.982H154.956V14.2632H149.78V17.6697H155.796ZM168.433 16.3432L167.297 18.981H165.779L170.453 8.43002H171.913L176.602 18.981H175.053L173.918 16.3432H168.433ZM173.402 15.1374L171.175 9.96745L168.949 15.1374H173.402ZM178.893 18.7398C179.621 18.981 180.373 19.1016 181.149 19.1016C182.024 19.1016 182.761 18.9709 183.361 18.7097C183.961 18.4384 184.408 18.0766 184.703 17.6244C184.998 17.1622 185.145 16.6547 185.145 16.1021C185.145 15.4389 184.973 14.9113 184.629 14.5194C184.295 14.1275 183.892 13.8361 183.42 13.6452C182.948 13.4543 182.324 13.2634 181.547 13.0724C180.948 12.9318 180.471 12.8011 180.117 12.6806C179.773 12.5499 179.483 12.3741 179.247 12.153C179.011 11.9219 178.893 11.6255 178.893 11.2637C178.893 10.7713 179.1 10.3694 179.512 10.0579C179.935 9.74638 180.564 9.59063 181.4 9.59063C181.872 9.59063 182.353 9.66599 182.845 9.81672C183.336 9.9574 183.798 10.1684 184.231 10.4498L184.717 9.24395C184.295 8.9425 183.789 8.71138 183.199 8.5506C182.609 8.38983 182.009 8.30944 181.4 8.30944C180.525 8.30944 179.793 8.44509 179.203 8.7164C178.613 8.98771 178.171 9.34946 177.876 9.80165C177.591 10.2538 177.448 10.7613 177.448 11.324C177.448 11.9973 177.615 12.5348 177.95 12.9368C178.294 13.3287 178.702 13.6201 179.173 13.811C179.655 14.0019 180.284 14.1929 181.061 14.3838C181.68 14.5345 182.157 14.6702 182.491 14.7907C182.835 14.9113 183.12 15.0872 183.346 15.3183C183.582 15.5394 183.7 15.8308 183.7 16.1925C183.7 16.6849 183.489 17.0818 183.066 17.3833C182.643 17.6747 182.004 17.8204 181.149 17.8204C180.5 17.8204 179.866 17.7098 179.247 17.4888C178.638 17.2577 178.136 16.9612 177.743 16.5995L177.198 17.7752C177.61 18.1671 178.176 18.4886 178.893 18.7398Z" fill="#525F66"/>
<rect x="134" y="29" width="51" height="20" rx="10" fill="#00AC4A"/>
<path d="M150.374 38.632C150.862 38.768 151.238 39.016 151.502 39.376C151.774 39.736 151.91 40.176 151.91 40.696C151.91 41.416 151.65 41.98 151.13 42.388C150.618 42.796 149.91 43 149.006 43H145.166V34.54H148.886C149.766 34.54 150.454 34.736 150.95 35.128C151.454 35.512 151.706 36.052 151.706 36.748C151.706 37.196 151.586 37.584 151.346 37.912C151.114 38.24 150.79 38.48 150.374 38.632ZM146.678 38.104H148.634C149.698 38.104 150.23 37.708 150.23 36.916C150.23 36.516 150.098 36.22 149.834 36.028C149.57 35.836 149.17 35.74 148.634 35.74H146.678V38.104ZM148.838 41.8C149.398 41.8 149.806 41.7 150.062 41.5C150.318 41.3 150.446 40.988 150.446 40.564C150.446 40.14 150.314 39.824 150.05 39.616C149.794 39.408 149.39 39.304 148.838 39.304H146.678V41.8H148.838ZM153.357 43V34.54H159.021V35.764H154.869V38.092H158.781V39.304H154.869V41.776H159.021V43H153.357ZM162.427 43V35.812H159.667V34.54H166.735V35.812H163.975V43H162.427ZM173.22 43L172.368 41.02H168.252L167.4 43H165.84L169.668 34.54H170.928L174.756 43H173.22ZM168.756 39.82H171.852L170.304 36.22L168.756 39.82Z" fill="white"/>
</svg>
