<svg width="144" height="144" viewBox="0 0 144 144" fill="none" xmlns="http://www.w3.org/2000/svg">
<g clip-path="url(#clip0)">
<path d="M71.9217 144.026C111.514 144.026 143.609 111.785 143.609 72.0131C143.609 32.2414 111.514 0 71.9217 0C32.33 0 0.234497 32.2414 0.234497 72.0131C0.234497 111.785 32.33 144.026 71.9217 144.026Z" fill="#7DE6AF"/>
<mask id="mask0" mask-type="alpha" maskUnits="userSpaceOnUse" x="0" y="0" width="144" height="145">
<path d="M71.9214 144.026C111.513 144.026 143.609 111.785 143.609 72.0131C143.609 32.2414 111.513 0 71.9214 0C32.3296 0 0.234131 32.2414 0.234131 72.0131C0.234131 111.785 32.3296 144.026 71.9214 144.026Z" fill="#7DE6AF"/>
</mask>
<g mask="url(#mask0)">
<path d="M44.8617 63.7986C45.7674 61.6189 48.1782 60.5324 50.3806 61.2393C50.6412 60.3164 50.9475 59.3935 51.3254 58.4836C56.3751 46.3025 70.2995 40.5426 82.4255 45.6153C94.5514 50.688 100.285 64.6756 95.2356 76.8567C91.7887 85.176 84.1912 90.504 75.864 91.4269L80.2948 111.77C80.2948 111.77 62.7216 111.934 62.689 111.927C62.6629 111.927 66.2206 98.568 68.2275 91.0211C66.8526 90.72 65.4843 90.2946 64.1355 89.7316C55.7627 86.2298 50.4392 78.4735 49.6052 69.9971C48.8428 70.1018 48.0414 70.0167 47.279 69.696C44.992 68.7404 43.9104 66.096 44.8617 63.7986Z" fill="#648CFF"/>
<path d="M125.73 164.651H18.114C3.43385 164.651 -8.47058 152.692 -8.47058 137.945C-8.47058 123.199 3.43385 111.24 18.114 111.24H125.73C140.41 111.24 152.314 123.199 152.314 137.945C152.314 152.699 140.41 164.651 125.73 164.651Z" fill="#FF84F9"/>
<mask id="mask1" mask-type="alpha" maskUnits="userSpaceOnUse" x="-9" y="111" width="162" height="54">
<path d="M125.73 164.684H18.114C3.43385 164.684 -8.47058 152.725 -8.47058 137.978C-8.47058 123.231 3.43385 111.273 18.114 111.273H125.73C140.41 111.273 152.314 123.231 152.314 137.978C152.314 152.732 140.41 164.684 125.73 164.684Z" fill="#FF84F9"/>
</mask>
<g mask="url(#mask1)">
<path d="M51.527 150.002C56.0489 144.484 60.7925 138.528 61.9784 131.269C62.9231 125.503 61.1183 119.651 57.5411 115.095C54.2506 110.9 49.4679 107.81 44.151 107.09C40.3067 106.573 34.0906 108.02 34.9572 113.197C35.8564 118.545 43.1606 119.906 47.5262 119.69C53.1038 119.422 58.4924 116.954 62.5257 113.112C66.7414 109.106 68.7483 104.119 69.3738 98.411C69.843 94.163 70.1166 89.699 74.1174 87.2117C77.9031 84.8553 82.9072 84.7441 87.1034 85.8306C94.7856 87.8204 101.484 94.0059 103.53 101.795C105.537 109.44 101.621 117.825 93.3651 119.114C91.5146 119.402 89.4426 119.298 87.7615 118.368C83.5132 116.025 86.0478 112.818 89.2667 111.98C93.2088 110.952 97.5678 112.111 101.002 114.12C107.628 118.002 111.974 125.084 113.128 132.631C114.346 140.583 111.727 149.099 104.423 153.164C101.393 154.846 97.7438 155.664 94.3034 155.042C89.2145 154.126 83.7217 148.876 88.5955 143.895C94.4402 137.919 103.478 143.241 106.41 149.348C109.55 155.893 110.013 165.207 107.876 172.113C105.511 179.778 98.8515 184.091 91.1041 184.752C83.7803 185.374 74.5669 183.142 70.4229 176.537C68.2922 173.147 67.6211 169.01 67.5103 165.07C67.4321 162.327 68.2727 158.839 66.7545 156.345C63.7832 151.449 56.5572 155.219 53.1494 157.458C48.4906 160.514 42.8088 165.888 41.9422 171.72C41.0299 177.866 47.3568 179.869 52.2502 180.111C65.119 180.74 77.8379 171.471 77.7727 157.811C77.7206 145.322 65.3275 136.754 53.7879 141.205C46.816 143.895 40.8996 148.942 32.9633 147.482C25.1834 146.049 18.7458 139.994 16.1069 132.624C13.2725 124.711 14.2759 115.842 17.3188 108.144C18.85 104.276 21.0328 100.034 24.9228 98.1099C27.1317 97.0168 30.0573 96.6372 32.2792 97.9266C34.5727 99.2553 35.9541 102.659 34.4946 105.081C32.0902 109.074 25.8741 107.535 23.0853 105.009C19.1563 101.455 19.7818 96.1004 22.1601 91.8262C26.037 84.8619 34.3382 78.179 42.6133 78.5913C50.7516 78.9906 56.9612 85.8895 63.7702 89.555C69.6149 92.7033 76.033 94.7193 82.601 95.5833C89.4426 96.4866 96.4341 96.1593 103.152 94.5622C106.208 93.8357 109.192 92.8342 112.079 91.5841C114.529 90.5172 117.813 89.2604 119.018 86.6095C121.409 81.3404 113.695 81.5695 110.821 82.715C105.185 84.9601 102.285 90.851 102.227 96.7222C102.103 109.794 113.929 119.023 125.364 122.348C132.91 124.54 140.859 124.881 148.659 125.221C149.284 125.247 149.747 124.468 149.395 123.932C146.104 118.924 139.784 116.922 134.128 118.767C127.945 120.783 123.527 126.7 122.146 132.925C120.693 139.471 122.419 146.671 127.717 151.01C132.16 154.65 139.119 156.116 144.052 152.535C148.483 149.315 148.183 143.404 144.339 139.811C140.012 135.766 133.659 137.18 129.691 140.983C115.949 154.172 135.477 175.798 123.143 189.301C117.813 195.14 108.293 195.807 101.086 193.844C95.7369 192.384 92.8895 188.463 93.9841 182.808C94.7856 178.678 97.7242 173.991 101.79 172.42C106.136 170.738 107.98 175.019 106.742 178.573C106.038 180.602 104.611 182.448 103.224 184.045C100.448 187.252 96.9684 189.805 93.124 191.559C85.6439 194.97 75.1664 195.637 68.7222 189.674C65.7315 186.906 64.2393 182.69 65.0278 178.645C65.3861 176.793 66.3831 173.815 68.5724 173.834C70.3838 173.847 70.4033 175.124 70.4164 176.898C70.4294 178.671 69.8169 180.386 68.9829 181.924C64.9431 189.367 55.2475 192.214 47.3438 191.383C38.9644 190.499 31.7384 185.465 27.2555 178.403C23.6913 172.787 17.4231 157.451 27.8158 155.494C30.5264 154.983 35.0614 154.918 36.4949 157.759C37.6743 160.102 36.6774 163.348 34.5141 164.736C28.9496 168.297 23.385 162.196 22.0949 157.261C19.7753 148.353 24.8185 139.065 21.5476 130.242C19.2475 124.036 12.9597 120.345 6.5351 120.103C0.455821 119.874 -7.29151 123.303 -7.25893 130.333C-7.25241 131.433 -5.54527 131.439 -5.55178 130.333C-5.58436 124.612 0.775096 121.903 5.675 121.804C10.0993 121.719 14.706 123.532 17.6381 126.91C24.5774 134.902 18.6415 146.514 20.0685 155.795C21.0459 162.144 26.3302 169.141 33.5628 167.02C38.6973 165.515 40.9061 157.641 35.7847 154.682C30.5525 151.658 21.6649 153.91 20.5832 160.383C19.3257 167.937 23.5675 176.963 28.2133 182.631C37.7394 194.256 58.0623 198.007 68.6375 185.426C70.8138 182.834 72.4688 179.346 72.0583 175.876C71.8173 173.828 70.69 170.522 68.012 171.465C65.334 172.407 63.7572 176.066 63.3206 178.619C62.7733 181.787 63.4314 185.223 65.0994 187.966C69.035 194.433 77.4795 196.436 84.5231 195.676C92.2965 194.832 99.7116 190.905 104.755 184.89C106.99 182.226 109.433 178.737 108.814 175.052C108.41 172.636 106.566 170.385 104.032 170.175C100.832 169.913 97.5222 172.931 95.6913 175.235C93.4955 177.997 92.1467 181.46 92.0424 185.001C91.8013 193.255 99.3271 195.919 106.286 196.423C113.206 196.927 120.966 195.14 125.338 189.314C130.89 181.924 128.727 172.159 127.267 163.807C126.238 157.922 125.417 151.285 128.264 145.748C130.531 141.33 136.278 137.239 141.289 139.759C146.997 142.626 146.977 150.336 140.644 152.365C135.36 154.06 129.541 151.41 126.348 147.096C119.956 138.463 124.289 123.834 134.584 120.423C139.471 118.807 145.062 120.443 147.929 124.802C148.176 124.37 148.417 123.945 148.665 123.513C132.727 122.819 110.547 120.868 104.826 102.541C103.582 98.5484 103.543 94.0386 105.348 90.1964C106.397 87.971 108.052 86.0793 110.209 84.8815C111.583 84.1222 119.989 81.7724 116.737 86.9106C115.741 88.4815 112.926 89.3586 111.316 90.059C109.472 90.8575 107.589 91.5448 105.661 92.1208C101.484 93.371 97.1639 94.1041 92.8113 94.3135C85.0509 94.6801 77.2254 93.443 69.9863 90.5761C62.3172 87.539 56.4399 81.5302 48.9141 78.3819C42.6328 75.7572 36.1561 76.9288 30.559 80.627C25.0727 84.2532 19.0651 90.5302 18.4917 97.4488C18.0225 103.084 22.0493 108.118 27.5943 109.054C32.3248 109.852 37.6873 106.907 36.6448 101.5C35.5045 95.5899 28.8323 94.2022 24.0562 96.6437C17.9639 99.7593 15.149 107.699 13.7351 113.963C10.6857 127.42 15.136 142.894 28.9496 148.137C35.6804 150.69 41.8574 149.053 48.0345 145.892C51.7355 144 55.5212 141.755 59.7695 141.559C63.8614 141.369 67.8622 143.077 70.8529 145.846C77.4535 151.966 77.4079 162.085 72.4558 169.22C67.4777 176.387 57.5736 179.83 49.1422 178.049C35.5436 175.183 50.7841 160.403 56.6484 157.418C58.4468 156.502 60.8511 155.343 62.9362 155.834C66.4156 156.659 65.8618 159.912 65.7966 162.563C65.7054 166.294 65.966 170.136 67.1975 173.69C71.4719 186.022 88.2958 189.38 99.2033 184.464C111.844 178.77 113.206 161.09 108.352 149.57C106.266 144.635 102.416 140.708 96.9814 139.929C92.062 139.222 86.1782 141.467 85.1096 146.88C83.9041 152.98 90.5959 156.633 95.7434 156.94C101.432 157.281 107.224 154.479 110.756 150.042C119.324 139.281 114.581 122.217 104.377 114.369C99.7897 110.841 92.7657 108.295 87.149 110.919C82.2361 113.217 82.803 118.204 87.6182 120.188C92.5376 122.21 98.2976 120.155 101.855 116.45C106.071 112.052 106.657 105.585 104.742 99.9753C100.708 88.2066 83.8911 77.7666 72.4102 86.315C66.8522 90.4517 68.5919 97.8219 66.6698 103.654C64.298 110.841 57.5932 116.234 50.2824 117.668C46.6596 118.375 42.2745 118.276 39.1208 116.149C36.3451 114.277 35.5697 110.52 39.3619 109.132C41.3688 108.399 43.6298 108.648 45.6627 109.139C53.1429 110.946 59.1309 117.864 60.3298 125.431C61.7568 134.463 55.671 142.279 50.3215 148.811C49.6308 149.636 50.8298 150.853 51.527 150.002Z" fill="#00CD73"/>
</g>
<path d="M50.3806 61.2458C50.4979 61.2851 50.6152 61.3244 50.7325 61.3702C51.9574 61.8807 52.8371 62.8822 53.2411 64.0538C58.5645 63.288 68.3904 59.6553 74.0005 43.7956C74.0266 43.7956 74.0527 43.7956 74.0787 43.7956C73.792 46.2436 73.0362 61.4553 96.7343 71.6138C96.7408 71.6138 96.7408 71.6138 96.7408 71.6138C98.5327 60.8989 92.8378 49.9746 82.4255 45.6153C70.2995 40.5426 56.3752 46.3025 51.3254 58.4836C50.9475 59.4 50.6412 60.3164 50.3806 61.2458Z" fill="black"/>
<path d="M104.142 55.0931C111.868 55.0931 118.132 48.8013 118.132 41.04C118.132 33.2787 111.868 26.9869 104.142 26.9869C96.416 26.9869 90.1527 33.2787 90.1527 41.04C90.1527 48.8013 96.416 55.0931 104.142 55.0931Z" fill="black"/>
<path d="M42.4047 55.1127C50.1309 55.1127 56.3942 48.8209 56.3942 41.0596C56.3942 33.2983 50.1309 27.0065 42.4047 27.0065C34.6785 27.0065 28.4152 33.2983 28.4152 41.0596C28.4152 48.8209 34.6785 55.1127 42.4047 55.1127Z" fill="black"/>
</g>
</g>
<defs>
<clipPath id="clip0">
<rect width="144" height="144" fill="white"/>
</clipPath>
</defs>
</svg>
