<svg width="586" height="586" viewBox="0 0 586 586" fill="none" xmlns="http://www.w3.org/2000/svg">
<g clip-path="url(#clip0)">
<path d="M294.012 586.106C455.861 586.106 587.065 454.902 587.065 293.053C587.065 131.204 455.861 0 294.012 0C132.163 0 0.958984 131.204 0.958984 293.053C0.958984 454.902 132.163 586.106 294.012 586.106Z" fill="#7DE6AF"/>
<mask id="mask0" mask-type="alpha" maskUnits="userSpaceOnUse" x="0" y="0" width="588" height="587">
<path d="M294.011 586.106C455.859 586.106 587.064 454.902 587.064 293.053C587.064 131.204 455.859 0 294.011 0C132.162 0 0.957275 131.204 0.957275 293.053C0.957275 454.902 132.162 586.106 294.011 586.106Z" fill="#7DE6AF"/>
</mask>
<g mask="url(#mask0)">
<path d="M391.9 327.547C387.398 280.294 345.419 245.64 298.166 250.142C257.972 253.977 226.914 284.902 221.294 323.152C218.897 322.539 216.393 322.3 213.809 322.539C201.769 323.685 192.953 334.366 194.098 346.406C195.243 358.445 205.925 367.262 217.964 366.116C220.548 365.877 222.999 365.158 225.209 364.119C235.544 393.738 261.461 415.447 292.333 420.535L279.068 494.104H330.743L316.226 421.067C362.6 415.687 396.348 374.214 391.9 327.547Z" fill="#648CFF"/>
<path d="M51.2492 180.248C62.543 164.48 86.4359 167.17 104.415 159.845C127.269 150.522 138.776 125.724 150.789 104.148C162.802 82.5994 181.821 60.065 206.459 61.6898C228.461 63.1282 248.438 84.091 269.428 77.352C279.496 74.129 286.448 65.2325 293.72 57.5878C308.024 42.5383 326.429 30.5519 346.966 27.5686C367.503 24.5854 390.17 31.8837 402.263 48.7712C418.218 71.0125 412.412 101.564 405.54 128.068C391.529 182.139 384.79 222.307 367.476 275.393C367.476 275.42 367.45 275.447 367.45 275.473C360.125 282.399 346.247 278.057 336.898 274.301C327.548 270.519 319.744 263.807 311.3 258.319C305.227 254.377 298.355 250.968 291.136 251.367C290.604 251.394 290.098 251.447 289.591 251.527C288.419 251.687 287.274 251.927 286.155 252.273C278.351 254.644 271.931 261.329 267.936 268.681C263.115 277.551 260.877 287.54 257.015 296.862C253.153 306.185 246.867 316.999 237.624 321.021C230.885 323.951 221.296 323.286 221.296 323.286C218.899 322.673 216.395 322.433 213.784 322.673C210.881 322.939 208.191 323.792 205.767 325.07C184.884 313.137 119.305 274.861 76.6337 241.405C67.018 233.867 57.2957 225.85 51.3824 215.142C45.4691 204.301 44.1373 190.184 51.2492 180.248Z" fill="black"/>
<path d="M513.975 694.783H74.0492C14.0374 694.783 -34.6272 646.118 -34.6272 586.106C-34.6272 526.095 14.0374 477.43 74.0492 477.43H513.975C573.987 477.43 622.652 526.095 622.652 586.106C622.652 646.145 573.987 694.783 513.975 694.783Z" fill="#FF84F9"/>
<mask id="mask1" mask-type="alpha" maskUnits="userSpaceOnUse" x="-35" y="476" width="658" height="219">
<path d="M513.975 694.144H74.0492C14.0374 694.144 -34.6272 645.479 -34.6272 585.467C-34.6272 525.456 14.0374 476.791 74.0492 476.791H513.975C573.987 476.791 622.652 525.456 622.652 585.467C622.652 645.506 573.987 694.144 513.975 694.144Z" fill="#FF84F9"/>
</mask>
<g mask="url(#mask1)">
<path d="M14.4906 493.439C52.1544 434.253 93.787 377.784 139.229 324.325C137.364 323.552 135.5 322.78 133.608 322.007C124.259 448.37 43.4443 554.676 23.0675 678.508C22.8544 679.84 23.1741 681.572 24.5858 682.211C35.6399 687.245 43.2845 678.588 49.7572 670.358C60.1986 657.119 69.5746 643.002 78.4179 628.672C97.0101 598.573 112.805 566.875 128.334 535.151C159.685 471.171 190.557 405.779 239.967 353.411C238.236 353.198 236.531 352.959 234.8 352.746C244.043 374.294 231.897 398.853 224.332 419.177C216.634 439.926 208.43 460.49 199.747 480.813C183.099 519.729 164.666 557.872 144.503 595.083C108.943 660.662 57.242 725.681 55.2975 803.38C55.2442 805.058 56.8424 806.816 58.5738 806.656C77.2725 805.138 87.9803 787.664 97.8358 773.574C111.687 753.756 123.407 732.5 133.715 710.658C153.373 668.919 167.916 625.076 183.365 581.712C213.251 497.834 250.702 408.895 328.56 358.686C326.962 357.46 325.337 356.208 323.739 354.983C287.034 446.106 252.753 538.188 221.082 631.176C205.527 676.857 190.61 722.751 176.307 768.832C169.621 790.354 160.937 812.463 156.702 834.597C154.465 846.211 154.918 859.662 166.717 865.602C167.889 866.188 169.781 866.268 170.713 865.096C261.942 747.523 290.31 598.679 338.122 461.129C350.295 426.075 366.703 382.818 406.578 372.377C405.219 371.604 403.888 370.858 402.529 370.086C416.567 420.748 397.948 472.156 381.22 519.756C365.052 565.73 347.072 611.012 329.839 656.587C312.685 702.002 296.223 747.763 283.225 794.563C276.752 817.896 271.105 841.496 266.71 865.309C263.887 880.598 259.918 897.672 271.611 910.165C272.757 911.39 275.127 911.497 276.246 910.165C368.967 800.583 365.398 647.743 414.356 518.983C429.006 480.467 448.85 444.162 476.285 413.21C474.421 412.438 472.556 411.665 470.665 410.893C470.425 572.709 362.122 709.7 350.988 869.784C350.801 872.661 354.69 874.073 356.608 872.101C447.012 778.155 454.657 640.125 498.58 523.485C512.085 487.632 529.398 453.191 552.971 422.879C551.24 422.666 549.535 422.426 547.804 422.213C569.246 454.15 566.609 493.306 559.071 529.345C551.16 567.088 539.573 604.299 527.88 641.004C503.295 718.196 474.048 793.764 444.828 869.278C443.576 872.474 448.131 874.605 450.315 872.474C525.429 799.464 554.463 695.635 580.647 597.427C578.542 597.427 576.411 597.427 574.307 597.427C593.272 691.107 513.949 775.917 538.827 869.731C539.92 873.806 546.259 872.075 545.167 867.973C520.422 774.719 599.638 689.562 580.647 595.669C579.981 592.42 575.106 592.659 574.307 595.669C548.417 692.785 519.942 795.602 445.653 867.813C447.491 868.878 449.303 869.944 451.141 871.009C482.199 790.727 513.283 710.365 538.774 628.112C550.547 590.156 563.067 551.32 568.82 511.871C573.508 479.721 572.043 446.559 553.451 418.884C552.412 417.339 549.668 416.433 548.283 418.218C467.735 521.913 464.592 659.17 412.278 775.731C397.149 809.426 377.571 840.777 351.92 867.467C353.785 868.239 355.649 869.012 357.54 869.784C368.648 709.7 476.978 572.868 477.218 410.893C477.218 408.176 473.542 406.391 471.597 408.575C376.346 515.973 379.009 669.452 331.756 798.265C317.533 837.075 298.328 873.886 271.532 905.53C273.076 905.53 274.621 905.53 276.166 905.53C265.432 894.05 271.265 875.831 273.849 862.299C275.98 851.192 278.377 840.138 280.987 829.137C286.208 807.135 292.335 785.373 299.074 763.798C313.084 718.916 329.679 674.912 346.486 631.016C363.32 587.066 380.448 543.169 395.364 498.5C409.348 456.547 420.935 412.171 408.789 368.328C408.309 366.596 406.471 365.584 404.74 366.037C349.23 380.581 333.488 452.392 318.358 499.405C297.209 565.117 278.91 631.788 254.324 696.328C241.912 728.878 227.901 760.868 211.12 791.42C203.396 805.484 195.112 819.255 186.162 832.573C182.406 838.167 178.384 845.838 173.51 850.553C169.221 854.681 165.466 859.529 162.722 851.005C160.937 845.518 162.482 838.433 163.708 833.053C172.284 795.362 186.348 758.045 198.175 721.26C210.295 683.516 222.84 645.905 235.786 608.455C265.086 523.751 296.543 439.82 330.052 356.714C331.144 354.024 327.495 351.547 325.23 353.012C256.322 397.468 217.593 472.37 189.145 546.871C172.95 589.277 159.392 632.641 142.265 674.699C133.236 696.887 123.22 718.729 111.42 739.586C105.48 750.107 99.0877 760.362 92.1622 770.271C84.1181 781.777 74.236 798.851 58.5738 800.103C59.6659 801.195 60.758 802.287 61.8501 803.38C62.9422 759.243 81.268 719.155 102.577 681.279C123.087 644.813 144.956 609.227 164.107 571.99C183.205 534.832 200.599 496.795 216.261 458.066C224.252 438.302 232.163 418.351 238.875 398.081C244.283 381.726 247.452 365.718 240.447 349.443C239.621 347.498 236.611 347.392 235.279 348.777C168.555 419.496 135.899 512.324 89.6851 596.122C78.1249 617.058 65.6857 637.542 51.6217 656.906C48.0791 661.807 44.3233 668.919 39.4489 672.515C37.8773 673.075 36.3324 673.634 34.7609 674.193C29.9663 677.443 28.6611 676.564 30.8453 671.53C30.5257 669.585 32.2038 664.418 32.5234 662.873C35.1871 649.928 38.5166 637.115 42.2723 624.436C56.6293 576.118 77.5655 530.144 96.4773 483.504C117.547 431.536 135.952 378.29 140.108 321.981C140.321 319.237 136.299 317.532 134.487 319.663C88.6995 373.549 46.694 430.444 8.73715 490.109C6.55297 493.705 12.2265 497.008 14.4906 493.439Z" fill="#00CD73"/>
</g>
</g>
</g>
<defs>
<clipPath id="clip0">
<rect width="586" height="586" fill="white"/>
</clipPath>
</defs>
</svg>
