<svg width="197" height="188" viewBox="0 0 197 188" fill="none" xmlns="http://www.w3.org/2000/svg">
<circle cx="99" cy="94" r="94" fill="#F2F2F2"/>
<g clip-path="url(#clip0)">
<path d="M110.446 84.0609V37.1588H14.2683V84.0609C17.1712 84.1297 19.932 85.3266 21.9607 87.3958C23.9894 89.465 25.1251 92.2424 25.1251 95.1345C25.1251 98.0266 23.9894 100.804 21.9607 102.873C19.932 104.942 17.1712 106.139 14.2683 106.208V153.11H110.446V106.208C107.543 106.139 104.782 104.942 102.753 102.873C100.725 100.804 99.589 98.0266 99.589 95.1345C99.589 92.2424 100.725 89.465 102.753 87.3958C104.782 85.3266 107.543 84.1297 110.446 84.0609V84.0609Z" fill="#E0FFDE"/>
<path d="M64.2357 112.119V114.796H60.3838V112.119C51.5723 111.718 45.5491 108.358 45.4609 100.516H56.3935C56.4879 102.792 58.2313 103.55 60.3838 103.77V98.5916C54.8704 97.7015 45.9456 96.5418 45.9456 88.6119C45.9456 82.5 51.5472 78.7513 60.3775 78.394V75.4478H64.2294V78.4379C71.5367 78.883 78.1705 81.5158 77.9942 90.0851H67.3449C67.2568 87.9036 66.1805 86.9507 64.2483 86.6498V91.8716C70.1205 92.4985 79.2656 93.3887 79.2656 101.782C79.253 108.327 73.4689 111.674 64.2357 112.119ZM60.3838 91.2761V86.5872C58.6782 86.8128 57.2369 87.4334 57.2369 88.8188C57.2746 89.4895 57.5579 90.5615 60.3838 91.2761ZM67.7792 101.632C67.7792 100.604 66.8855 99.977 64.2357 99.3501V103.77C66.4323 103.594 67.7792 102.967 67.7792 101.632Z" fill="#00CD73"/>
<path d="M23.6274 141.664C23.4408 141.662 23.2623 141.588 23.1302 141.457C23.096 141.425 23.0663 141.39 23.0421 141.35C23.0161 141.313 22.995 141.273 22.9791 141.231C22.9608 141.191 22.9481 141.149 22.9414 141.106C22.9356 141.06 22.9356 141.014 22.9414 140.968C22.9352 140.922 22.9352 140.876 22.9414 140.83C22.9473 140.784 22.96 140.74 22.9791 140.698C22.9963 140.657 23.0174 140.617 23.0421 140.579C23.0647 140.539 23.0946 140.502 23.1302 140.473C23.2119 140.392 23.3117 140.333 23.4212 140.299C23.5307 140.265 23.6467 140.258 23.7596 140.278L23.8918 140.316C23.9337 140.335 23.9737 140.358 24.0113 140.385C24.0512 140.409 24.0872 140.438 24.1183 140.473C24.154 140.502 24.1838 140.539 24.2065 140.579C24.2335 140.615 24.2548 140.655 24.2694 140.698C24.2878 140.741 24.3026 140.785 24.3135 140.83C24.3166 140.876 24.3166 140.922 24.3135 140.968C24.3163 141.014 24.3163 141.06 24.3135 141.106C24.3016 141.148 24.2869 141.19 24.2694 141.231C24.2562 141.274 24.2348 141.315 24.2065 141.35C24.1822 141.39 24.1526 141.425 24.1183 141.457C24.0872 141.491 24.0512 141.521 24.0113 141.544C23.975 141.571 23.9347 141.593 23.8918 141.607C23.8509 141.63 23.8061 141.645 23.7596 141.651L23.6274 141.664Z" fill="#7DE6AF"/>
<path d="M95.825 140.968C95.825 140.782 95.8993 140.603 96.0315 140.471C96.1637 140.34 96.343 140.266 96.5299 140.266C96.7158 140.267 96.8935 140.342 97.0243 140.474C97.1552 140.605 97.2286 140.783 97.2286 140.968V140.968C97.2286 141.152 97.155 141.329 97.0239 141.46C96.8929 141.59 96.7152 141.664 96.5299 141.664V141.664C96.3441 141.664 96.1657 141.591 96.0337 141.46C95.9017 141.33 95.8267 141.153 95.825 140.968V140.968ZM91.2682 140.968C91.2682 140.782 91.3425 140.603 91.4747 140.471C91.6069 140.34 91.7862 140.266 91.9731 140.266C92.159 140.267 92.3367 140.342 92.4675 140.474C92.5984 140.605 92.6718 140.783 92.6718 140.968V140.968C92.6718 141.152 92.5982 141.329 92.4671 141.46C92.3361 141.59 92.1584 141.664 91.9731 141.664V141.664C91.8806 141.664 91.7887 141.647 91.7029 141.613C91.617 141.578 91.5389 141.527 91.4728 141.462C91.4068 141.398 91.3542 141.321 91.318 141.236C91.2818 141.151 91.2627 141.06 91.2619 140.968H91.2682ZM86.7114 140.968C86.7114 140.782 86.7857 140.603 86.9179 140.471C87.0501 140.34 87.2294 140.266 87.4163 140.266C87.6033 140.266 87.7826 140.34 87.9148 140.471C88.047 140.603 88.1213 140.782 88.1213 140.968C88.1196 141.153 88.0446 141.33 87.9126 141.46C87.7806 141.591 87.6022 141.664 87.4163 141.664V141.664C87.2305 141.664 87.0521 141.591 86.9201 141.46C86.7881 141.33 86.7131 141.153 86.7114 140.968V140.968ZM82.1546 140.968C82.1546 140.782 82.2289 140.603 82.3611 140.471C82.4933 140.34 82.6726 140.266 82.8595 140.266C83.0465 140.266 83.2258 140.34 83.358 140.471C83.4902 140.603 83.5645 140.782 83.5645 140.968C83.5628 141.153 83.4878 141.33 83.3558 141.46C83.2238 141.591 83.0454 141.664 82.8595 141.664V141.664C82.6737 141.664 82.4953 141.591 82.3633 141.46C82.2313 141.33 82.1563 141.153 82.1546 140.968V140.968ZM77.5978 140.968C77.5978 140.782 77.6721 140.603 77.8043 140.471C77.9365 140.34 78.1158 140.266 78.3027 140.266C78.4897 140.266 78.669 140.34 78.8012 140.471C78.9334 140.603 79.0076 140.782 79.0076 140.968C79.006 141.153 78.931 141.33 78.799 141.46C78.6669 141.591 78.4886 141.664 78.3027 141.664V141.664C78.1169 141.664 77.9385 141.591 77.8065 141.46C77.6745 141.33 77.5995 141.153 77.5978 140.968V140.968ZM73.041 140.968C73.041 140.782 73.1153 140.603 73.2475 140.471C73.3797 140.34 73.559 140.266 73.7459 140.266C73.9329 140.266 74.1122 140.34 74.2444 140.471C74.3766 140.603 74.4508 140.782 74.4508 140.968C74.4492 141.153 74.3742 141.33 74.2422 141.46C74.1101 141.591 73.9318 141.664 73.7459 141.664V141.664C73.56 141.664 73.3817 141.591 73.2497 141.46C73.1177 141.33 73.0427 141.153 73.041 140.968V140.968ZM68.4842 140.968C68.4842 140.782 68.5585 140.603 68.6907 140.471C68.8229 140.34 69.0022 140.266 69.1891 140.266C69.3761 140.266 69.5554 140.34 69.6876 140.471C69.8198 140.603 69.894 140.782 69.894 140.968C69.8924 141.153 69.8174 141.33 69.6854 141.46C69.5533 141.591 69.375 141.664 69.1891 141.664V141.664C69.0032 141.664 68.8249 141.591 68.6929 141.46C68.5609 141.33 68.4859 141.153 68.4842 140.968V140.968ZM63.9337 140.968C63.9337 140.783 64.0071 140.605 64.1379 140.474C64.2688 140.342 64.4464 140.267 64.6323 140.266V140.266C64.8193 140.266 64.9986 140.34 65.1308 140.471C65.263 140.603 65.3372 140.782 65.3372 140.968C65.3356 141.153 65.2606 141.33 65.1285 141.46C64.9965 141.591 64.8182 141.664 64.6323 141.664V141.664C64.447 141.664 64.2693 141.59 64.1383 141.46C64.0073 141.329 63.9337 141.152 63.9337 140.968V140.968ZM59.3769 140.968C59.3769 140.783 59.4503 140.605 59.5811 140.474C59.712 140.342 59.8896 140.267 60.0755 140.266V140.266C60.2625 140.266 60.4418 140.34 60.574 140.471C60.7062 140.603 60.7804 140.782 60.7804 140.968V140.968C60.7788 141.153 60.7038 141.33 60.5717 141.46C60.4397 141.591 60.2614 141.664 60.0755 141.664V141.664C59.8902 141.664 59.7125 141.59 59.5815 141.46C59.4505 141.329 59.3769 141.152 59.3769 140.968V140.968ZM54.8201 140.968C54.8201 140.783 54.8935 140.605 55.0243 140.474C55.1552 140.342 55.3328 140.267 55.5187 140.266V140.266C55.7057 140.266 55.885 140.34 56.0172 140.471C56.1494 140.603 56.2236 140.782 56.2236 140.968V140.968C56.222 141.153 56.147 141.33 56.0149 141.46C55.8829 141.591 55.7046 141.664 55.5187 141.664V141.664C55.3334 141.664 55.1557 141.59 55.0247 141.46C54.8937 141.329 54.8201 141.152 54.8201 140.968V140.968ZM50.2633 140.968C50.2633 140.875 50.2819 140.782 50.3181 140.696C50.3543 140.61 50.4074 140.532 50.4742 140.467C50.541 140.402 50.6202 140.35 50.7071 140.316C50.7941 140.281 50.8872 140.264 50.9808 140.266V140.266C51.1666 140.267 51.3443 140.342 51.4752 140.474C51.606 140.605 51.6794 140.783 51.6794 140.968V140.968C51.6794 141.152 51.6058 141.329 51.4748 141.46C51.3438 141.59 51.1661 141.664 50.9808 141.664V141.664C50.8877 141.665 50.7952 141.649 50.7086 141.614C50.622 141.58 50.5431 141.529 50.4764 141.465C50.4097 141.4 50.3565 141.323 50.3199 141.237C50.2833 141.152 50.2641 141.061 50.2633 140.968V140.968ZM45.7065 140.968C45.7065 140.782 45.7807 140.603 45.9129 140.471C46.0451 140.34 46.2244 140.266 46.4114 140.266C46.5972 140.267 46.7749 140.342 46.9058 140.474C47.0366 140.605 47.11 140.783 47.11 140.968V140.968C47.11 141.152 47.0364 141.329 46.9054 141.46C46.7744 141.59 46.5967 141.664 46.4114 141.664V141.664C46.2255 141.664 46.0472 141.591 45.9151 141.46C45.7831 141.33 45.7081 141.153 45.7065 140.968V140.968ZM41.1497 140.968C41.1497 140.782 41.2239 140.603 41.3561 140.471C41.4883 140.34 41.6676 140.266 41.8546 140.266C42.0404 140.267 42.2181 140.342 42.349 140.474C42.4798 140.605 42.5532 140.783 42.5532 140.968V140.968C42.5532 141.152 42.4796 141.329 42.3486 141.46C42.2176 141.59 42.0399 141.664 41.8546 141.664V141.664C41.6687 141.664 41.4904 141.591 41.3583 141.46C41.2263 141.33 41.1513 141.153 41.1497 140.968V140.968ZM36.5929 140.968C36.5929 140.876 36.6111 140.784 36.6465 140.699C36.6819 140.614 36.7339 140.537 36.7993 140.471C36.8648 140.406 36.9425 140.354 37.028 140.319C37.1135 140.284 37.2052 140.266 37.2978 140.266C37.4847 140.266 37.664 140.34 37.7962 140.471C37.9284 140.603 38.0027 140.782 38.0027 140.968C38.001 141.153 37.926 141.33 37.794 141.46C37.662 141.591 37.4836 141.664 37.2978 141.664V141.664C37.1119 141.664 36.9336 141.591 36.8015 141.46C36.6695 141.33 36.5945 141.153 36.5929 140.968V140.968ZM32.0361 140.968C32.036 140.784 32.1086 140.607 32.238 140.476C32.3675 140.344 32.5436 140.269 32.7284 140.266V140.266C32.9153 140.266 33.0946 140.34 33.2268 140.471C33.359 140.603 33.4333 140.782 33.4333 140.968V140.968C33.4316 141.153 33.3566 141.33 33.2246 141.46C33.0926 141.591 32.9143 141.664 32.7284 141.664V141.664C32.5447 141.66 32.3696 141.586 32.2402 141.456C32.1109 141.326 32.0377 141.151 32.0361 140.968V140.968ZM27.4792 140.968C27.4792 140.876 27.4975 140.784 27.5329 140.699C27.5683 140.614 27.6203 140.537 27.6857 140.471C27.7512 140.406 27.8289 140.354 27.9144 140.319C27.9999 140.284 28.0916 140.266 28.1842 140.266C28.3711 140.266 28.5504 140.34 28.6826 140.471C28.8148 140.603 28.8891 140.782 28.8891 140.968V140.968C28.8874 141.153 28.8124 141.33 28.6804 141.46C28.5484 141.591 28.37 141.664 28.1842 141.664V141.664C27.9983 141.664 27.8199 141.591 27.6879 141.46C27.5559 141.33 27.4809 141.153 27.4792 140.968V140.968Z" fill="#7DE6AF"/>
<path d="M101.081 141.663C100.942 141.663 100.807 141.622 100.691 141.546C100.576 141.469 100.487 141.36 100.434 141.232C100.382 141.104 100.368 140.964 100.396 140.829C100.424 140.693 100.491 140.569 100.59 140.472C100.62 140.44 100.654 140.41 100.69 140.385L100.816 140.316L100.948 140.278C101.038 140.259 101.13 140.259 101.219 140.278L101.351 140.316L101.477 140.385C101.517 140.408 101.553 140.438 101.584 140.472C101.618 140.503 101.645 140.539 101.666 140.579C101.694 140.616 101.717 140.656 101.735 140.698C101.751 140.741 101.764 140.785 101.773 140.83C101.79 140.919 101.79 141.01 101.773 141.099C101.763 141.144 101.751 141.188 101.735 141.231C101.717 141.273 101.694 141.313 101.666 141.35C101.644 141.389 101.616 141.425 101.584 141.457C101.45 141.589 101.269 141.663 101.081 141.663V141.663Z" fill="#7DE6AF"/>
<path d="M23.6275 50.0032C23.4409 50.0018 23.2623 49.9275 23.1302 49.7963C23.065 49.7321 23.0136 49.6553 22.9792 49.5706C22.9601 49.5289 22.9473 49.4845 22.9414 49.439C22.9353 49.3953 22.9353 49.351 22.9414 49.3073C22.9349 49.2616 22.9349 49.2152 22.9414 49.1694C22.9473 49.1239 22.9601 49.0795 22.9792 49.0378L23.0421 48.9124C23.068 48.8742 23.0975 48.8385 23.1302 48.8059C23.2122 48.7264 23.3123 48.6678 23.4218 48.6351C23.5314 48.6024 23.6473 48.5964 23.7596 48.6178L23.8918 48.6554C23.9337 48.6746 23.9738 48.6977 24.0114 48.7244C24.0497 48.748 24.0855 48.7753 24.1184 48.8059C24.1511 48.8385 24.1806 48.8742 24.2065 48.9124C24.2325 48.9516 24.2536 48.9936 24.2695 49.0378C24.2879 49.0803 24.3026 49.1244 24.3135 49.1694C24.3302 49.2585 24.3302 49.3499 24.3135 49.439C24.3026 49.4841 24.2879 49.5281 24.2695 49.5706C24.2548 49.6134 24.2336 49.6536 24.2065 49.6897C24.1806 49.728 24.1511 49.7637 24.1184 49.7963C24.0873 49.8306 24.0512 49.8602 24.0114 49.8841C23.9751 49.9111 23.9347 49.9322 23.8918 49.9468C23.8498 49.967 23.8054 49.9817 23.7596 49.9906L23.6275 50.0032Z" fill="#7DE6AF"/>
<path d="M95.825 49.3076C95.825 49.1213 95.8993 48.9428 96.0315 48.8111C96.1637 48.6794 96.343 48.6055 96.5299 48.6055C96.7158 48.6071 96.8935 48.6818 97.0243 48.8133C97.1552 48.9448 97.2286 49.1224 97.2286 49.3076V49.3076C97.2286 49.4921 97.155 49.6691 97.0239 49.7996C96.8929 49.9301 96.7152 50.0034 96.5299 50.0034V50.0034C96.3441 50.0034 96.1657 49.9303 96.0337 49.8C95.9017 49.6697 95.8267 49.4927 95.825 49.3076V49.3076ZM91.2682 49.3076C91.2682 49.1213 91.3425 48.9428 91.4747 48.8111C91.6069 48.6794 91.7862 48.6055 91.9731 48.6055C92.159 48.6071 92.3367 48.6818 92.4675 48.8133C92.5984 48.9448 92.6718 49.1224 92.6718 49.3076V49.3076C92.6718 49.4921 92.5982 49.6691 92.4671 49.7996C92.3361 49.9301 92.1584 50.0034 91.9731 50.0034V50.0034C91.8806 50.0042 91.7887 49.9869 91.7029 49.9523C91.617 49.9178 91.5389 49.8668 91.4728 49.8022C91.4068 49.7376 91.3542 49.6606 91.318 49.5758C91.2818 49.4909 91.2627 49.3998 91.2619 49.3076H91.2682ZM86.7114 49.3076C86.7114 49.1213 86.7857 48.9428 86.9179 48.8111C87.0501 48.6794 87.2294 48.6055 87.4163 48.6055C87.6022 48.6071 87.7799 48.6818 87.9107 48.8133C88.0416 48.9448 88.115 49.1224 88.115 49.3076V49.3076C88.1133 49.4927 88.0383 49.6697 87.9063 49.8C87.7743 49.9303 87.5959 50.0034 87.41 50.0034C87.2253 50.0017 87.0485 49.9279 86.9178 49.7978C86.7872 49.6676 86.7131 49.4916 86.7114 49.3076V49.3076ZM82.1546 49.3076C82.1546 49.1213 82.2289 48.9428 82.3611 48.8111C82.4933 48.6794 82.6726 48.6055 82.8595 48.6055C83.0465 48.6055 83.2258 48.6794 83.358 48.8111C83.4902 48.9428 83.5645 49.1213 83.5645 49.3076C83.5628 49.4927 83.4878 49.6697 83.3558 49.8C83.2238 49.9303 83.0454 50.0034 82.8595 50.0034C82.6737 50.0034 82.4953 49.9303 82.3633 49.8C82.2313 49.6697 82.1563 49.4927 82.1546 49.3076V49.3076ZM77.5978 49.3076C77.5978 49.1213 77.6721 48.9428 77.8043 48.8111C77.9365 48.6794 78.1158 48.6055 78.3027 48.6055C78.4897 48.6055 78.669 48.6794 78.8012 48.8111C78.9334 48.9428 79.0076 49.1213 79.0076 49.3076C79.006 49.4927 78.931 49.6697 78.799 49.8C78.6669 49.9303 78.4886 50.0034 78.3027 50.0034C78.1169 50.0034 77.9385 49.9303 77.8065 49.8C77.6745 49.6697 77.5995 49.4927 77.5978 49.3076ZM73.041 49.3076C73.041 49.1213 73.1153 48.9428 73.2475 48.8111C73.3797 48.6794 73.559 48.6055 73.7459 48.6055C73.9329 48.6055 74.1122 48.6794 74.2444 48.8111C74.3766 48.9428 74.4508 49.1213 74.4508 49.3076C74.4492 49.4927 74.3742 49.6697 74.2422 49.8C74.1101 49.9303 73.9318 50.0034 73.7459 50.0034C73.56 50.0034 73.3817 49.9303 73.2497 49.8C73.1177 49.6697 73.0427 49.4927 73.041 49.3076V49.3076ZM68.4842 49.3076C68.4842 49.1213 68.5585 48.9428 68.6907 48.8111C68.8229 48.6794 69.0022 48.6055 69.1891 48.6055C69.3761 48.6055 69.5554 48.6794 69.6876 48.8111C69.8198 48.9428 69.894 49.1213 69.894 49.3076C69.8924 49.4927 69.8174 49.6697 69.6854 49.8C69.5533 49.9303 69.375 50.0034 69.1891 50.0034C69.0032 50.0034 68.8249 49.9303 68.6929 49.8C68.5609 49.6697 68.4859 49.4927 68.4842 49.3076V49.3076ZM63.9337 49.3076C63.9337 49.1224 64.0071 48.9448 64.1379 48.8133C64.2688 48.6818 64.4464 48.6071 64.6323 48.6055V48.6055C64.8193 48.6055 64.9986 48.6794 65.1308 48.8111C65.263 48.9428 65.3372 49.1213 65.3372 49.3076C65.3356 49.4927 65.2606 49.6697 65.1285 49.8C64.9965 49.9303 64.8182 50.0034 64.6323 50.0034C64.447 50.0034 64.2693 49.9301 64.1383 49.7996C64.0073 49.6691 63.9337 49.4921 63.9337 49.3076V49.3076ZM59.3769 49.3076C59.3769 49.1224 59.4503 48.9448 59.5811 48.8133C59.712 48.6818 59.8896 48.6071 60.0755 48.6055V48.6055C60.2625 48.6055 60.4418 48.6794 60.574 48.8111C60.7062 48.9428 60.7804 49.1213 60.7804 49.3076V49.3076C60.7788 49.4927 60.7038 49.6697 60.5717 49.8C60.4397 49.9303 60.2614 50.0034 60.0755 50.0034V50.0034C59.8902 50.0034 59.7125 49.9301 59.5815 49.7996C59.4505 49.6691 59.3769 49.4921 59.3769 49.3076V49.3076ZM54.8201 49.3076C54.8201 49.1224 54.8935 48.9448 55.0243 48.8133C55.1552 48.6818 55.3328 48.6071 55.5187 48.6055V48.6055C55.7057 48.6055 55.885 48.6794 56.0172 48.8111C56.1494 48.9428 56.2236 49.1213 56.2236 49.3076V49.3076C56.222 49.4927 56.147 49.6697 56.0149 49.8C55.8829 49.9303 55.7046 50.0034 55.5187 50.0034V50.0034C55.3334 50.0034 55.1557 49.9301 55.0247 49.7996C54.8937 49.6691 54.8201 49.4921 54.8201 49.3076V49.3076ZM50.2633 49.3076C50.2633 49.1213 50.3375 48.9428 50.4697 48.8111C50.6019 48.6794 50.7812 48.6055 50.9682 48.6055C51.1541 48.6071 51.3317 48.6818 51.4626 48.8133C51.5934 48.9448 51.6668 49.1224 51.6668 49.3076V49.3076C51.6668 49.4921 51.5932 49.6691 51.4622 49.7996C51.3312 49.9301 51.1535 50.0034 50.9682 50.0034V50.0034C50.7823 50.0034 50.604 49.9303 50.472 49.8C50.3399 49.6697 50.2649 49.4927 50.2633 49.3076V49.3076ZM45.7065 49.3076C45.7065 49.1213 45.7807 48.9428 45.9129 48.8111C46.0451 48.6794 46.2244 48.6055 46.4114 48.6055C46.5972 48.6071 46.7749 48.6818 46.9058 48.8133C47.0366 48.9448 47.11 49.1224 47.11 49.3076V49.3076C47.11 49.4921 47.0364 49.6691 46.9054 49.7996C46.7744 49.9301 46.5967 50.0034 46.4114 50.0034V50.0034C46.2255 50.0034 46.0472 49.9303 45.9151 49.8C45.7831 49.6697 45.7081 49.4927 45.7065 49.3076V49.3076ZM41.1497 49.3076C41.1497 49.1213 41.2239 48.9428 41.3561 48.8111C41.4883 48.6794 41.6676 48.6055 41.8546 48.6055C42.0404 48.6071 42.2181 48.6818 42.349 48.8133C42.4798 48.9448 42.5532 49.1224 42.5532 49.3076V49.3076C42.5532 49.4921 42.4796 49.6691 42.3486 49.7996C42.2176 49.9301 42.0399 50.0034 41.8546 50.0034V50.0034C41.6687 50.0034 41.4904 49.9303 41.3583 49.8C41.2263 49.6697 41.1513 49.4927 41.1497 49.3076V49.3076ZM36.5929 49.3076C36.5929 49.2154 36.6111 49.1241 36.6465 49.0389C36.6819 48.9537 36.7339 48.8763 36.7993 48.8111C36.8648 48.7459 36.9425 48.6942 37.028 48.6589C37.1135 48.6236 37.2052 48.6055 37.2978 48.6055C37.4847 48.6055 37.664 48.6794 37.7962 48.8111C37.9284 48.9428 38.0027 49.1213 38.0027 49.3076C38.001 49.4927 37.926 49.6697 37.794 49.8C37.662 49.9303 37.4836 50.0034 37.2978 50.0034V50.0034C37.1119 50.0034 36.9336 49.9303 36.8015 49.8C36.6695 49.6697 36.5945 49.4927 36.5929 49.3076V49.3076ZM32.0361 49.3076C32.036 49.1235 32.1086 48.9468 32.238 48.8155C32.3675 48.6842 32.5436 48.6088 32.7284 48.6055V48.6055C32.9153 48.6055 33.0946 48.6794 33.2268 48.8111C33.359 48.9428 33.4333 49.1213 33.4333 49.3076V49.3076C33.4316 49.4927 33.3566 49.6697 33.2246 49.8C33.0926 49.9303 32.9143 50.0034 32.7284 50.0034V50.0034C32.5447 50.0001 32.3696 49.9256 32.2402 49.7956C32.1109 49.6656 32.0377 49.4905 32.0361 49.3076V49.3076ZM27.4792 49.3076C27.4792 49.2154 27.4975 49.1241 27.5329 49.0389C27.5683 48.9537 27.6203 48.8763 27.6857 48.8111C27.7512 48.7459 27.8289 48.6942 27.9144 48.6589C27.9999 48.6236 28.0916 48.6055 28.1842 48.6055C28.3711 48.6055 28.5504 48.6794 28.6826 48.8111C28.8148 48.9428 28.8891 49.1213 28.8891 49.3076V49.3076C28.8874 49.4927 28.8124 49.6697 28.6804 49.8C28.5484 49.9303 28.37 50.0034 28.1842 50.0034V50.0034C27.9983 50.0034 27.8199 49.9303 27.6879 49.8C27.5559 49.6697 27.4809 49.4927 27.4792 49.3076V49.3076Z" fill="#7DE6AF"/>
<path d="M101.08 50.0034C100.896 50.0002 100.72 49.9259 100.59 49.7961C100.46 49.6663 100.385 49.4911 100.382 49.3076C100.382 49.1197 100.457 48.9396 100.59 48.8061L100.69 48.7246L100.816 48.6557C100.859 48.6394 100.903 48.6268 100.948 48.6181C101.037 48.5985 101.13 48.5985 101.219 48.6181C101.264 48.626 101.308 48.6386 101.351 48.6557L101.477 48.7246C101.556 48.7695 101.621 48.8344 101.666 48.9127C101.72 48.9893 101.757 49.0771 101.773 49.1697C101.789 49.2588 101.789 49.3502 101.773 49.4392C101.763 49.4839 101.75 49.5279 101.735 49.5709C101.716 49.6126 101.693 49.6525 101.666 49.69C101.642 49.7281 101.615 49.7638 101.584 49.7965C101.45 49.9287 101.269 50.0031 101.08 50.0034V50.0034Z" fill="#7DE6AF"/>
<path d="M28.675 58.8735C20.7006 56.4977 16.3892 50.0974 14.2682 41.3213C12.1849 50.0974 7.89243 56.5165 -0.0756836 58.9174C7.90502 61.2932 12.2164 67.6935 14.3311 76.4696C16.4144 67.6935 20.7069 61.2744 28.675 58.8735Z" fill="#FED4FF"/>
<path fill-rule="evenodd" clip-rule="evenodd" d="M184.456 65.5997C184.717 65.5997 184.928 65.8102 184.928 66.0699V89.9535C184.928 90.2131 184.717 90.4236 184.456 90.4236C184.195 90.4236 183.984 90.2131 183.984 89.9535V66.0699C183.984 65.8102 184.195 65.5997 184.456 65.5997Z" fill="black"/>
<path fill-rule="evenodd" clip-rule="evenodd" d="M171.994 78.0115C171.994 77.7519 172.205 77.5414 172.466 77.5414H196.446C196.707 77.5414 196.918 77.7519 196.918 78.0115C196.918 78.2712 196.707 78.4817 196.446 78.4817H172.466C172.205 78.4817 171.994 78.2712 171.994 78.0115Z" fill="black"/>
<path fill-rule="evenodd" clip-rule="evenodd" d="M193.268 69.2354C193.452 69.419 193.452 69.7166 193.268 69.9003L176.312 86.788C176.128 86.9716 175.829 86.9716 175.645 86.788C175.46 86.6044 175.46 86.3067 175.645 86.1231L192.6 69.2354C192.785 69.0518 193.084 69.0518 193.268 69.2354Z" fill="black"/>
<path fill-rule="evenodd" clip-rule="evenodd" d="M175.645 69.2354C175.829 69.0518 176.128 69.0518 176.312 69.2354L193.268 86.1231C193.452 86.3067 193.452 86.6044 193.268 86.788C193.084 86.9716 192.785 86.9716 192.6 86.788L175.645 69.9003C175.46 69.7166 175.46 69.419 175.645 69.2354Z" fill="black"/>
<path d="M156.241 11.6204H85.6038C81.151 11.6204 77.5413 15.2156 77.5413 19.6505V166.45C77.5413 170.885 81.151 174.48 85.6038 174.48H156.241C160.693 174.48 164.303 170.885 164.303 166.45V19.6505C164.303 15.2156 160.693 11.6204 156.241 11.6204Z" fill="#00CD73"/>
<path d="M156.241 177.031H85.5975C82.7791 177.028 80.0772 175.912 78.0843 173.927C76.0914 171.942 74.9704 169.251 74.967 166.444V19.6568C74.967 16.8481 76.0868 14.1545 78.0802 12.1679C80.0737 10.1813 82.7775 9.06441 85.5975 9.06274H156.241C159.06 9.06606 161.763 10.1835 163.756 12.1697C165.749 14.1559 166.869 16.8487 166.871 19.6568V166.444C166.868 169.251 165.747 171.942 163.754 173.927C161.761 175.912 159.059 177.028 156.241 177.031V177.031ZM85.5975 14.178C84.1402 14.178 82.7427 14.7545 81.7122 15.7808C80.6818 16.8071 80.1029 18.1991 80.1029 19.6505V166.444C80.1029 167.895 80.6818 169.287 81.7122 170.313C82.7427 171.34 84.1402 171.916 85.5975 171.916H156.241C157.697 171.915 159.094 171.337 160.124 170.311C161.154 169.286 161.733 167.895 161.735 166.444V19.6568C161.733 18.2059 161.154 16.8149 160.124 15.7889C159.094 14.763 157.697 14.1859 156.241 14.1842L85.5975 14.178Z" fill="black"/>
<path d="M97.386 11.6204H144.452V12.8741C144.452 14.8841 143.65 16.8118 142.223 18.2331C140.796 19.6544 138.861 20.4529 136.843 20.4529H104.995C102.977 20.4529 101.042 19.6544 99.6147 18.2331C98.1877 16.8118 97.386 14.8841 97.386 12.8741V11.6204Z" fill="black"/>
<path d="M136.843 21.0923H104.995C102.807 21.0907 100.71 20.2243 99.1625 18.6835C97.6154 17.1426 96.7456 15.0532 96.7439 12.8741V10.9935H145.094V12.8741C145.092 15.0532 144.222 17.1426 142.675 18.6835C141.128 20.2243 139.03 21.0907 136.843 21.0923V21.0923ZM98.0279 12.2598V12.8867C98.0295 14.7266 98.7641 16.4907 100.07 17.7917C101.377 19.0928 103.148 19.8244 104.995 19.8261H136.843C137.757 19.8261 138.664 19.6466 139.509 19.2978C140.354 18.9491 141.122 18.438 141.769 17.7936C142.416 17.1492 142.929 16.3842 143.28 15.5423C143.63 14.7003 143.81 13.798 143.81 12.8867V12.2598H98.0279Z" fill="black"/>
<path d="M120.919 166.268C125.469 166.268 129.158 162.594 129.158 158.062C129.158 153.531 125.469 149.857 120.919 149.857C116.369 149.857 112.68 153.531 112.68 158.062C112.68 162.594 116.369 166.268 120.919 166.268Z" fill="black"/>
<path fill-rule="evenodd" clip-rule="evenodd" d="M113.631 62.503C113.146 59.9955 112.082 59.7072 111.113 59.4376C110.326 59.2182 107.016 59.751 104.731 61.2116C102.446 62.6722 98.8713 64.7346 97.2915 71.4045C95.7117 78.0743 99.0727 85.6782 99.5384 86.7439C100.004 87.8095 105.404 103.989 117.967 112.677C128.402 119.893 130.958 119.541 133.507 119.905C136.056 120.269 141.613 118.921 144.206 115.605C146.8 112.289 147.29 109.675 145.377 108.001C144.175 107.004 137.195 101.3 136.024 100.554C134.854 99.8077 134.061 99.3689 132.802 100.522C131.543 101.676 128.239 104.108 127.232 104.829C126.225 105.55 125.4 105.456 124.198 104.478C122.996 103.5 118.949 101.018 114.839 95.1752C112.521 91.7311 110.727 87.9647 109.514 83.9982C109.042 82.4561 109.98 81.9672 110.773 81.3716C112.362 80.1979 113.866 78.9138 115.273 77.529C115.543 77.1979 115.726 76.805 115.805 76.3857C115.885 75.9665 115.857 75.5342 115.726 75.128C115.525 74.3695 114.21 65.4681 113.631 62.503Z" fill="#0010F3"/>
<path d="M84.4016 144.309C79.1587 142.748 76.3265 138.554 74.9607 132.781C73.5886 138.561 70.7752 142.761 65.5198 144.34C70.7626 145.901 73.5949 150.095 74.9607 155.868C76.3265 150.089 79.1461 145.882 84.4016 144.309Z" fill="#FED4FF"/>
<path d="M70.3661 126.594C67.7541 125.817 66.338 123.723 65.6457 120.839C64.9596 123.723 63.5561 125.823 60.9441 126.613C63.5561 127.39 64.9722 129.484 65.6645 132.361C66.3506 129.477 67.7541 127.384 70.3661 126.594Z" fill="#FED4FF"/>
<path d="M174.109 61.5438C170.156 60.3653 168.023 57.2059 166.972 52.8555C165.939 57.2059 163.825 60.3779 159.866 61.5689C163.818 62.7411 165.952 65.9068 167.003 70.2573C168.035 65.8692 170.15 62.7349 174.109 61.5438Z" fill="#FED4FF"/>
</g>
<defs>
<clipPath id="clip0">
<rect width="197" height="168" fill="white" transform="translate(0 9)"/>
</clipPath>
</defs>
</svg>
