<svg width="194" height="200" viewBox="0 0 194 200" fill="none" xmlns="http://www.w3.org/2000/svg">
<g clip-path="url(#clip0)">
<rect width="194" height="200" fill="white"/>
<rect width="170" height="169" rx="16" transform="matrix(0.987793 -0.155774 0.157098 0.987583 0 29)" fill="#FEF8E3"/>
<g clip-path="url(#clip1)">
<path d="M72.438 108.865L102.834 141.606L124.607 131.329L97.3908 90.1763L72.438 108.865Z" fill="#648CFF"/>
<path d="M101.929 179L105.456 185.212L101.858 191.406H94.6986L91.1364 185.188L94.7338 178.994H101.893L101.929 179ZM106.725 170.671L89.949 170.624L81.5139 185.135L89.8608 199.7L106.643 199.753L115.072 185.235L106.725 170.671V170.671Z" fill="#00CD73"/>
<path d="M159.67 75.5471C159.587 75.2718 159.443 75.0188 159.248 74.8069C159.054 74.5951 158.814 74.4298 158.547 74.3236C158.265 74.2059 155.808 73.1118 154.803 73.0059C154.137 72.9313 153.467 72.9096 152.798 72.9412C152.305 72.8934 151.845 72.6676 151.505 72.3059C151.564 71.5824 151.623 70.8883 151.664 70.4471C151.684 68.6946 152.008 66.9589 152.622 65.3177L153.468 65.153L156.055 64.6412C156.611 64.4852 157.082 64.115 157.366 63.6118C157.589 63.2302 157.684 62.7868 157.636 62.3471C157.981 62.3299 158.317 62.2333 158.618 62.0647C158.867 61.924 159.084 61.7333 159.256 61.5045C159.428 61.2758 159.551 61.0139 159.617 60.7353C159.689 60.4175 159.694 60.0882 159.633 59.7682C159.571 59.4482 159.444 59.1446 159.258 58.8765C159.175 58.7616 159.078 58.657 158.97 58.5647C159.131 58.3358 159.256 58.084 159.341 57.8177C159.414 57.5333 159.431 57.2373 159.39 56.9465C159.348 56.6557 159.25 56.376 159.1 56.1236L159.041 56.0412C159.017 56.0065 158.992 55.9731 158.965 55.9412C158.919 55.8745 158.868 55.8116 158.812 55.753L158.688 55.6412C158.628 55.5849 158.566 55.5318 158.5 55.4824C158.44 55.4398 158.377 55.4005 158.312 55.3647C158.253 55.3647 158.2 55.2941 158.147 55.2706C158.027 55.2108 157.901 55.1635 157.771 55.1294C157.487 55.0547 157.191 55.0387 156.901 55.0824C156.611 55.121 156.331 55.217 156.078 55.3647L156.002 55.4118L155.902 55.4706H155.861L155.59 55.6412L154.932 56.0353L153.251 57.0588L152.434 56.8941L152.24 56.853C151.651 56.7041 151.028 56.7951 150.506 57.1059C150 57.4294 149.507 57.7706 149.013 58.1L146.732 59.6177C146.073 60.021 145.448 60.4774 144.863 60.9824C144.097 61.7315 143.557 62.6815 143.305 63.7236C143.182 64.2412 137.427 75.1 137.427 75.1L138.514 78.0412L143.481 82.7471L149.207 78.5471C150.551 78.0418 151.95 77.6943 153.374 77.5118C154.638 77.4353 156.243 78.1824 156.637 78.3471C157.179 78.5782 157.788 78.6033 158.347 78.4177C158.886 78.2155 159.326 77.813 159.576 77.2941C159.83 76.7455 159.864 76.1199 159.67 75.5471Z" fill="#648CFF"/>
<path fill-rule="evenodd" clip-rule="evenodd" d="M152.417 57.6328C152.487 57.7406 152.456 57.8844 152.348 57.954L151.814 58.299L147.316 62.0836C147.218 62.1662 147.072 62.1536 146.989 62.0554C146.907 61.9571 146.919 61.8106 147.018 61.728L151.537 57.9244L152.096 57.5635C152.204 57.4939 152.348 57.525 152.417 57.6328Z" fill="black"/>
<path d="M148.648 88.0236L138.026 62.9942L123.813 68.6119L108.159 62.353L103.622 66.0824L111.204 85.6001C112.289 88.4171 114.383 90.7292 117.077 92.0863C119.772 93.4433 122.875 93.7481 125.782 92.9413V92.9413L148.648 88.0236Z" fill="#0010F3"/>
<path d="M193.687 33.2528L180.308 3.61164C179.509 3.52656 178.702 3.65392 177.968 3.98086C177.234 4.3078 176.599 4.82274 176.127 5.47372C175.655 6.12471 175.364 6.88869 175.281 7.68854C175.199 8.48839 175.329 9.29581 175.658 10.0293L178.292 15.8646C178.581 16.5105 178.696 17.2214 178.624 17.9257C178.551 18.63 178.295 19.3028 177.88 19.8763L170.827 29.594C170.411 30.1693 169.85 30.6246 169.202 30.9138C168.554 31.203 167.841 31.3159 167.135 31.2411L155.173 29.9999C154.468 29.9293 153.793 29.6749 153.216 29.262C152.64 28.8492 152.182 28.2923 151.887 27.6469L146.955 16.7058C146.663 16.0607 146.547 15.3498 146.618 14.6452C146.689 13.9406 146.946 13.2674 147.361 12.694L151.117 7.51164C151.587 6.85904 151.877 6.09405 151.957 5.29377C152.037 4.49349 151.905 3.68616 151.574 2.95313C151.244 2.22011 150.726 1.58726 150.073 1.11836C149.42 0.649463 148.655 0.361065 147.855 0.282227V0.282227L128.78 26.6175L144.334 61.3646L127.875 177.941C127.478 180.901 127.788 183.914 128.778 186.731C129.768 189.549 131.41 192.092 133.571 194.153L133.859 194.429C136.93 197.37 140.901 199.191 145.133 199.598C149.364 200.004 153.609 198.973 157.183 196.67V196.67C159.639 195.091 161.696 192.965 163.193 190.457C164.69 187.95 165.586 185.13 165.813 182.218L171.632 63.6411L193.687 33.2528Z" fill="#00CD73"/>
<path fill-rule="evenodd" clip-rule="evenodd" d="M148.742 62.9539C149.05 62.9895 149.271 63.2682 149.235 63.5764L136.903 170.565C136.867 170.873 136.589 171.094 136.281 171.058C135.973 171.023 135.752 170.744 135.788 170.436L148.12 63.4476C148.155 63.1394 148.434 62.9184 148.742 62.9539Z" fill="black"/>
<path fill-rule="evenodd" clip-rule="evenodd" d="M154.759 63.447C155.068 63.4783 155.293 63.7539 155.261 64.0626L143.881 176.41C143.85 176.718 143.574 176.943 143.266 176.912C142.958 176.881 142.733 176.605 142.764 176.296L154.144 63.9492C154.176 63.6406 154.451 63.4157 154.759 63.447Z" fill="black"/>
<path fill-rule="evenodd" clip-rule="evenodd" d="M160.774 63.946C161.083 63.9713 161.313 64.2425 161.287 64.5517L151.982 178.316C151.957 178.626 151.686 178.856 151.377 178.83C151.068 178.805 150.838 178.534 150.863 178.225L160.168 64.4601C160.194 64.1508 160.465 63.9207 160.774 63.946Z" fill="black"/>
<path fill-rule="evenodd" clip-rule="evenodd" d="M166.79 64.4456C167.099 64.4661 167.334 64.7338 167.313 65.0433L160.083 174.049C160.062 174.359 159.795 174.593 159.486 174.573C159.176 174.552 158.942 174.284 158.963 173.975L166.193 64.9689C166.213 64.6593 166.481 64.425 166.79 64.4456Z" fill="black"/>
<path d="M94.7455 42.7117C94.9227 42.4836 95.1777 42.3287 95.4617 42.2766C95.7458 42.2246 96.039 42.2789 96.2856 42.4294C96.4107 42.2251 96.5481 42.0287 96.697 41.8411C97.3494 40.9776 98.2185 40.3021 99.2161 39.8834C100.214 39.4646 101.304 39.3174 102.377 39.4568C103.45 39.5962 104.467 40.0172 105.324 40.677C106.182 41.3368 106.85 42.212 107.26 43.2136C107.671 44.2153 107.809 45.3078 107.661 46.3802C107.513 47.4526 107.084 48.4667 106.418 49.3196C105.752 50.1725 104.872 50.8338 103.867 51.2364C102.863 51.6389 101.77 51.7684 100.7 51.6117L100.494 56.9529L96.0916 55.8529C96.0916 55.8529 97.855 52.7588 98.8191 51.0117C98.4889 50.8469 98.1758 50.6499 97.8844 50.4235C97.0016 49.7533 96.3168 48.8563 95.9028 47.8278C95.4888 46.7993 95.361 45.6777 95.5332 44.5823C95.3343 44.5524 95.1464 44.4719 94.9875 44.3485C94.8286 44.2252 94.704 44.0631 94.6256 43.8778C94.5471 43.6925 94.5175 43.4901 94.5395 43.2901C94.5616 43.0901 94.6345 42.899 94.7514 42.7352L94.7455 42.7117Z" fill="#648CFF"/>
<path d="M96.2856 42.4296L96.3679 42.4884C96.4966 42.5878 96.6032 42.7129 96.6811 42.8556C96.759 42.9984 96.8065 43.1557 96.8206 43.3178C98.1961 43.4707 100.882 43.206 103.287 39.6237C103.057 40.2119 101.888 43.9472 107.143 48.006C107.753 46.6309 107.837 45.0793 107.379 43.6461C106.921 42.2129 105.953 40.9981 104.658 40.2327C103.364 39.4673 101.833 39.2047 100.358 39.4947C98.8824 39.7848 97.565 40.6074 96.656 41.806C96.5071 41.9936 96.3697 42.19 96.2445 42.3943" fill="black"/>
<path d="M111.375 44.2354L111.487 43.3354L107.636 42.8531C107.633 41.4387 107.115 40.0739 106.179 39.014C105.244 37.954 103.954 37.2716 102.552 37.0942V37.0942C101.026 36.9064 99.4875 37.3324 98.2751 38.2787C97.0627 39.2251 96.2753 40.6143 96.0858 42.1413V42.2766V42.3119L111.375 44.2354Z" fill="#FF84F9"/>
<path d="M92.4177 102.447L64.7022 93.5293L48.0905 128.941H48.1316C47.3723 130.438 46.9566 132.086 46.9149 133.765C46.839 136.34 47.637 138.865 49.1789 140.928C50.7208 142.991 52.9156 144.471 55.4056 145.126C57.8956 145.781 60.5338 145.573 62.8903 144.535C65.2468 143.497 67.1825 141.691 68.3819 139.412V139.412L92.4177 102.447Z" fill="#648CFF"/>
<path d="M45.663 129.106L21.4921 154.276L32.4313 164.453L66.1543 144.747C66.7162 144.438 67.1873 143.987 67.5203 143.439C67.8534 142.891 68.0369 142.265 68.0523 141.623C68.0678 140.982 67.9148 140.348 67.6085 139.784C67.3022 139.221 66.8535 138.747 66.3071 138.412L50.201 128.523C49.4912 128.089 48.6548 127.911 47.8297 128.017C47.0047 128.122 46.2404 128.507 45.663 129.106V129.106Z" fill="#0010F3"/>
<path d="M111.434 105.882L93.4173 85.1528L93.2291 85.2998C91.4239 83.0371 89.0754 81.2686 86.4027 80.1594C83.73 79.0502 80.8201 78.6363 77.9445 78.9564C75.0688 79.2765 72.3209 80.3201 69.9571 81.9899C67.5933 83.6597 65.6905 85.9013 64.4262 88.5057L49.4604 114.329L78.5867 128.688L80.9026 125.041L85.6052 130.97L111.434 105.882Z" fill="#00CD73"/>
<path d="M126.835 136.965C126.419 134.679 125.789 132.438 124.954 130.271C124.846 129.976 124.675 129.709 124.454 129.487C124.232 129.265 123.965 129.094 123.671 128.986C123.376 128.878 123.062 128.835 122.75 128.861C122.437 128.887 122.134 128.98 121.862 129.135L102.863 139.941C102.597 140.094 102.367 140.303 102.187 140.552C102.008 140.801 101.883 141.085 101.822 141.386C101.761 141.687 101.765 141.998 101.833 142.298C101.901 142.597 102.032 142.879 102.217 143.124C102.357 143.306 102.475 143.503 102.57 143.712L113.503 179.006L129.098 177.335C129.098 177.335 126.923 137.647 126.835 136.965Z" fill="#0010F3"/>
<path d="M146.603 68.2352C146.188 67.9279 145.733 67.6786 145.251 67.4941C144.894 67.3278 144.529 67.1806 144.157 67.0529C144.69 66.9908 145.181 66.7351 145.538 66.3344C145.894 65.9336 146.091 65.4158 146.091 64.8793C146.091 64.3429 145.894 63.8251 145.538 63.4243C145.181 63.0236 144.69 62.7679 144.157 62.7058L143.681 62.6117C143.54 62.0301 143.257 61.4928 142.857 61.0481C142.457 60.6035 141.952 60.2655 141.389 60.0646C141.389 60.0646 137.597 58.8882 136.392 58.6882C135.187 58.4882 133.6 59.0529 132.448 59.8646C131.414 60.5999 130.602 61.8705 129.785 62.8529L128.61 62.747C128.068 62.6992 127.527 62.8407 127.078 63.1475C126.629 63.4542 126.3 63.9072 126.147 64.4294L124.971 67.3705L134.929 78.7529C135.342 78.1188 135.674 77.435 135.916 76.7176C138.138 70.247 143.405 71.4235 143.405 71.4235H143.434L143.811 71.5941L143.752 71.5529L143.828 71.5999C143.9 71.6341 143.967 71.6776 144.028 71.7294L144.081 71.7646C144.933 72.5176 146.515 72.1646 147.108 71.2529C147.42 70.779 147.542 70.2044 147.448 69.6447C147.354 69.0849 147.052 68.5813 146.603 68.2352V68.2352Z" fill="#648CFF"/>
<path fill-rule="evenodd" clip-rule="evenodd" d="M134.335 62.9665C133.21 63.5623 132.578 64.431 132.242 65.0198C132.088 65.2892 131.745 65.383 131.476 65.2292C131.207 65.0754 131.113 64.7323 131.267 64.4628C131.666 63.7633 132.433 62.7026 133.81 61.9734C135.193 61.241 137.13 60.8761 139.805 61.4594L141.986 61.7979C142.292 61.8455 142.502 62.1325 142.455 62.4391C142.407 62.7457 142.12 62.9557 141.814 62.9082L139.598 62.5643L139.581 62.5606C137.116 62.0198 135.451 62.3755 134.335 62.9665Z" fill="black"/>
<path fill-rule="evenodd" clip-rule="evenodd" d="M137.119 66.0243C139.249 65.512 141.477 65.5931 143.564 66.2588C143.859 66.3531 144.022 66.6691 143.928 66.9647C143.834 67.2603 143.518 67.4235 143.223 67.3293C141.336 66.7271 139.32 66.6527 137.394 67.1138C135.971 67.5254 134.674 68.285 133.618 69.324C133.397 69.5416 133.041 69.5386 132.824 69.3173C132.606 69.0961 132.609 68.7404 132.831 68.5229C134.023 67.3498 135.489 66.4932 137.095 66.0307L137.107 66.0272L137.119 66.0243Z" fill="black"/>
<path fill-rule="evenodd" clip-rule="evenodd" d="M129.3 63.4531C129.55 63.6367 129.604 63.9882 129.421 64.2384C128.171 65.9434 126.505 68.5282 125.332 70.441C125.17 70.7054 124.824 70.7883 124.56 70.6261C124.296 70.4638 124.213 70.1179 124.375 69.8535C125.554 67.931 127.238 65.3157 128.516 63.5737C128.699 63.3236 129.05 63.2696 129.3 63.4531Z" fill="black"/>
<path d="M140.924 85.5764L123.878 66.0882L117.476 74.2646L109.717 61.3235L109.676 61.3588C108.523 58.9622 106.677 56.9676 104.377 55.6335C102.078 54.2994 99.4307 53.6872 96.7794 53.8764V53.8764L95.9682 53.9293C91.3884 54.2387 87.0872 56.241 83.9003 59.547C73.4901 70.3999 60.6875 88.7352 60.8051 89.3176L103.492 97.647L105.062 99.8117C106.221 101.358 107.796 102.542 109.604 103.224C111.411 103.906 113.375 104.059 115.266 103.665C116.709 103.364 118.067 102.75 119.246 101.865V101.865L140.924 85.5764Z" fill="#0010F3"/>
<mask id="mask0" mask-type="alpha" maskUnits="userSpaceOnUse" x="60" y="53" width="83" height="51">
<path fill-rule="evenodd" clip-rule="evenodd" d="M111.02 63.4968L109.717 61.3235L109.676 61.3588C108.523 58.9622 106.677 56.9676 104.377 55.6335C102.078 54.2994 99.4307 53.6872 96.7794 53.8764L95.9682 53.9293C91.3884 54.2387 87.0872 56.241 83.9003 59.547C73.4901 70.3999 60.6875 88.7352 60.8051 89.3176L103.492 97.647L105.062 99.8117C106.221 101.358 107.796 102.542 109.604 103.224C111.411 103.906 113.375 104.059 115.266 103.665C116.709 103.364 118.067 102.75 119.246 101.865L133.411 91.2218L140.137 89.7059L141.018 86.4706L142.488 73.8235L141.606 71.1765L135.14 78.8235L125.501 67.9444L123.878 66.0882L122.358 68.0298L111.02 63.4968Z" fill="#0010F3"/>
</mask>
<g mask="url(#mask0)">
<path d="M71.5091 61.6116C68.188 70.5469 64.7845 79.6057 63.509 89.1057C63.1622 91.6528 63.0681 94.2587 63.9087 96.7234C63.9307 96.8006 63.9724 96.8709 64.0297 96.9272C64.0869 96.9835 64.1578 97.0241 64.2354 97.0448C64.3129 97.0656 64.3946 97.0658 64.4723 97.0456C64.55 97.0253 64.6211 96.9852 64.6787 96.9293C65.8543 95.9351 66.3834 94.4293 66.9712 93.0528C67.6295 91.4998 68.2703 89.9351 68.8992 88.3469C70.1513 85.194 71.3387 82.0175 72.5202 78.8351C74.9243 72.3645 77.2932 65.8587 80.0971 59.541C81.6842 55.9645 83.4124 52.4822 85.3463 49.0469L84.4999 48.694C79.4799 62.3469 74.4247 76.1469 72.238 90.594C71.6172 94.6295 71.254 98.7005 71.1506 102.782C71.1514 102.894 71.1924 103.002 71.2663 103.086C71.3401 103.17 71.4418 103.224 71.5526 103.239C71.6634 103.254 71.7758 103.229 71.8694 103.168C71.9629 103.106 72.0312 103.013 72.0617 102.906C75.8472 88.5881 79.6445 74.2351 84.8761 60.3645C86.0517 57.2057 87.1921 53.341 90.1664 51.4234L89.4728 51.0234C88.644 64.0587 83.7768 76.3175 81.5549 89.1351C80.9288 92.6522 80.5653 96.2111 80.4674 99.7822C80.4708 99.872 80.4997 99.9589 80.5509 100.033C80.602 100.107 80.6732 100.164 80.756 100.199C80.8389 100.234 80.9299 100.244 81.0183 100.228C81.1068 100.213 81.1889 100.172 81.2551 100.112C83.4183 97.841 84.1001 94.5587 84.9819 91.6528C86.0399 88.1469 87.0765 84.6371 88.0914 81.1234C89.1064 77.6096 90.0978 74.0802 91.0658 70.5351C91.9592 67.2763 92.7939 63.994 93.8109 60.7704C94.8732 57.1817 96.3945 53.7454 98.337 50.5469L97.4906 50.4351C98.5251 54.0528 97.4906 57.9763 96.8205 61.5704C96.1504 65.1645 95.3686 68.7116 94.5985 72.2763C93.0526 79.4234 91.4831 86.5763 90.5544 93.8351C90.008 97.9793 89.737 102.155 89.7432 106.335C89.7432 106.77 90.4015 107 90.6073 106.57C96.6383 94.1175 98.4017 80.2587 102.328 67.094C103.43 63.3322 104.789 59.651 106.396 56.0763H105.597C106.508 57.4351 106.408 59.1998 106.414 60.7822C106.414 62.4704 106.367 64.1587 106.255 65.841C106.026 69.2704 105.579 72.6822 105.05 76.0763C104.009 82.7704 102.669 89.4293 102.034 96.1822C101.649 99.9877 101.585 103.819 101.84 107.635C101.841 107.747 101.882 107.855 101.956 107.939C102.03 108.023 102.132 108.077 102.242 108.092C102.353 108.107 102.466 108.082 102.559 108.021C102.653 107.959 102.721 107.866 102.752 107.759C106.337 94.8685 109.974 81.9998 113.661 69.1528C114.712 65.494 115.768 61.8351 116.83 58.1763H115.936C117.059 61.4175 116.783 64.8645 116.377 68.2057C115.954 71.6587 115.331 75.0881 114.655 78.4998C113.367 85.0646 111.874 91.6175 111.228 98.2881C110.825 102.118 110.808 105.978 111.175 109.812C111.177 109.902 111.205 109.99 111.256 110.065C111.307 110.139 111.379 110.197 111.463 110.232C111.547 110.266 111.638 110.275 111.727 110.258C111.816 110.241 111.898 110.198 111.963 110.135C113.967 107.941 114.902 104.906 115.848 102.141C116.837 99.1003 117.657 96.0074 118.305 92.8763C119.634 86.6234 120.468 80.2881 121.632 74.0057C122.285 70.4763 123.049 66.9469 124.048 63.4175L123.143 63.294C122.825 69.6704 122.508 76.0469 122.367 82.4293C122.296 85.6469 122.267 88.8587 122.308 92.0763C122.247 95.0231 122.381 97.9707 122.708 100.9C122.87 102.23 123.269 103.521 123.884 104.712C124.319 105.512 125.194 106.476 126.235 106.247C127.275 106.017 127.646 104.647 127.998 103.776C128.483 102.4 128.859 100.988 129.121 99.5528C130.22 93.794 130.638 87.9057 131.443 82.0998C132.348 75.5587 133.6 69.0351 136.075 62.8881L135.17 62.7645C135.569 71.8881 133.177 80.9469 134.053 90.0645C134.244 92.2177 134.66 94.345 135.293 96.4116C135.522 97.1351 135.851 98.0116 136.621 98.3116C136.939 98.4134 137.283 98.3852 137.58 98.233C137.876 98.0808 138.1 97.8171 138.203 97.4998C139.019 95.5139 139.599 93.4389 139.931 91.3175C140.342 89.2234 140.63 87.1116 140.901 84.9998C141.547 80.0116 142.129 74.9645 143.999 70.2587L143.093 70.1351C143.587 74.841 142.946 79.5881 143.093 84.3234C143.12 86.6114 143.448 88.8859 144.069 91.0881C144.586 92.8234 145.398 94.5469 147.008 95.5057C147.116 95.5644 147.242 95.5794 147.36 95.5477C147.478 95.5159 147.579 95.4398 147.643 95.3351C148.145 94.2237 148.425 93.0247 148.466 91.8057C148.466 91.2175 147.567 91.2175 147.543 91.8057C147.512 92.8707 147.274 93.9195 146.844 94.894L147.473 94.7293C145.762 93.7116 145.121 91.6528 144.675 89.8234C144.197 87.6686 143.97 85.4657 143.999 83.2587C143.999 78.8881 144.486 74.5175 143.999 70.1587C143.994 70.05 143.951 69.9465 143.878 69.8662C143.804 69.7859 143.705 69.7339 143.597 69.7192C143.49 69.7045 143.38 69.7281 143.288 69.7858C143.196 69.8436 143.127 69.9318 143.093 70.0351C140.072 77.6116 140.448 85.9175 138.391 93.7528C138.15 94.6763 137.879 95.5881 137.562 96.4881C137.356 97.0763 136.974 97.8469 136.469 97.0234C136.228 96.5595 136.052 96.0647 135.945 95.5528C135.373 93.5482 135.004 91.4906 134.846 89.4116C134.517 85.2175 134.876 81.0057 135.27 76.8292C135.716 72.1587 136.228 67.4704 136.022 62.7704C136.017 62.6618 135.974 62.5583 135.901 62.478C135.828 62.3977 135.728 62.3457 135.621 62.331C135.513 62.3163 135.404 62.3399 135.312 62.3976C135.219 62.4553 135.15 62.5435 135.117 62.6469C131.002 72.841 130.302 83.9057 128.868 94.6822C128.586 97.4239 128.059 100.135 127.293 102.782C127.088 103.452 126.836 104.106 126.54 104.741C126.123 105.612 125.424 105.329 124.924 104.665C124.195 103.533 123.746 102.245 123.613 100.906C123.172 98.1116 123.249 95.194 123.213 92.3704C123.172 89.3998 123.213 86.4293 123.249 83.4587C123.378 76.7351 123.707 70.0175 124.042 63.2998C124.041 63.188 124 63.0801 123.926 62.9961C123.853 62.9121 123.751 62.8576 123.64 62.8426C123.529 62.8276 123.417 62.8531 123.323 62.9144C123.23 62.9757 123.162 63.0687 123.131 63.1763C119.681 75.1998 119.152 87.8469 115.572 99.8351C115.06 101.541 114.49 103.223 113.849 104.882C113.299 106.553 112.447 108.109 111.334 109.47L112.121 109.8C110.705 95.9646 115.448 82.5822 117.218 69.0175C117.7 65.341 118.094 61.494 116.853 57.9175C116.822 57.8233 116.762 57.7414 116.682 57.6832C116.602 57.6251 116.506 57.5938 116.407 57.5938C116.307 57.5938 116.211 57.6251 116.131 57.6832C116.051 57.7414 115.991 57.8233 115.96 57.9175C112.237 70.7645 108.569 83.6253 104.956 96.4998C103.929 100.163 102.904 103.829 101.882 107.5L102.793 107.623C101.746 93.641 106.179 80.0881 107.172 66.241C107.307 64.3292 107.384 62.4116 107.36 60.4998C107.36 58.8351 107.36 57.041 106.42 55.6057C106.377 55.5376 106.318 55.4814 106.249 55.4424C106.179 55.4035 106.1 55.383 106.02 55.383C105.94 55.383 105.861 55.4035 105.791 55.4424C105.721 55.4814 105.662 55.5376 105.62 55.6057C99.8595 68.1998 98.1607 82.0763 94.0813 95.1998C92.9421 98.9466 91.5315 102.605 89.8607 106.147L90.7248 106.382C90.6425 91.3351 94.9042 76.794 97.714 62.1351C98.4017 58.294 99.5186 54.1175 98.4017 50.2351C98.375 50.1493 98.3244 50.073 98.2557 50.015C98.187 49.9571 98.1032 49.9201 98.0142 49.9084C97.9252 49.8966 97.8346 49.9106 97.7533 49.9487C97.672 49.9868 97.6032 50.0474 97.5552 50.1234C94.093 55.5998 92.4824 61.9234 90.8012 68.1057C88.8967 75.1214 86.9001 82.1116 84.8114 89.0763C84.2236 90.9587 83.6946 92.8469 83.095 94.7234C82.6449 96.4765 81.7982 98.1027 80.6203 99.4763L81.4079 99.8057C81.6842 86.7293 86.4514 74.3822 88.9731 61.6763C89.6875 58.1689 90.1686 54.618 90.4133 51.0469C90.4126 50.966 90.3907 50.8866 90.35 50.8167C90.3092 50.7468 90.2509 50.6888 90.1808 50.6484C90.1107 50.608 90.0313 50.5866 89.9504 50.5863C89.8695 50.5861 89.79 50.6069 89.7197 50.6469C87.2156 52.2469 85.9753 54.9881 84.929 57.6587C83.5358 61.1881 82.2485 64.794 81.0317 68.4057C78.6276 75.5587 76.5232 82.8116 74.5246 90.094C73.349 94.2822 72.2674 98.4822 71.1564 102.682L72.0617 102.806C72.4085 88.2351 76.4644 74.1116 81.2375 60.4528C82.5777 56.6116 83.9767 52.8057 85.3816 48.9763C85.5638 48.4763 84.7938 48.1704 84.5351 48.6175C77.8282 60.4469 73.7134 73.4881 68.7875 86.1293C68.1096 87.8744 67.4121 89.6116 66.6949 91.341C66.0131 92.9881 65.4252 95.0881 64.0262 96.2763L64.8022 96.4822C64.1403 94.2847 63.9875 91.9652 64.3554 89.6998C64.6524 87.3667 65.0762 85.0515 65.6251 82.7646C66.7239 78.2102 68.0761 73.7209 69.6752 69.3175C70.5569 66.8175 71.4797 64.341 72.4026 61.8587C72.6084 61.2998 71.7149 61.0587 71.5091 61.6116V61.6116Z" fill="#FDCD01"/>
</g>
<path fill-rule="evenodd" clip-rule="evenodd" d="M111.856 64.8652C112.122 64.7057 112.467 64.792 112.626 65.0581L117.55 73.2751L121.026 68.8358C121.217 68.5916 121.57 68.5488 121.814 68.7401C122.058 68.9315 122.101 69.2846 121.91 69.5288L117.426 75.2542L111.663 65.6359C111.504 65.3698 111.59 65.0248 111.856 64.8652Z" fill="black"/>
<path fill-rule="evenodd" clip-rule="evenodd" d="M136.087 80.0478C136.32 79.8434 136.675 79.867 136.879 80.1004L141.746 85.6623L136 89.9729C135.752 90.159 135.4 90.1086 135.214 89.8604C135.028 89.6121 135.079 89.26 135.327 89.0739L140.103 85.4904L136.035 80.8405C135.83 80.6071 135.854 80.2522 136.087 80.0478Z" fill="black"/>
<path fill-rule="evenodd" clip-rule="evenodd" d="M88.2968 76.6747C88.5478 76.4925 88.8988 76.5484 89.0808 76.7995L102.195 94.8878C102.377 95.1389 102.321 95.4902 102.07 95.6724C101.819 95.8546 101.468 95.7987 101.286 95.5476L88.1721 77.4593C87.99 77.2082 88.0459 76.8569 88.2968 76.6747Z" fill="black"/>
<path fill-rule="evenodd" clip-rule="evenodd" d="M62.7777 94.3745C63.0872 94.3927 63.3234 94.6584 63.3053 94.9682C63.0754 98.8966 64.2439 102.78 66.6033 105.928L66.9343 106.369L66.8932 106.401L78.1917 120.663C78.3843 120.906 78.3435 121.259 78.1006 121.452C77.8576 121.645 77.5045 121.604 77.3119 121.361L65.3095 106.211L65.381 106.155C63.0799 102.877 61.9499 98.9121 62.1845 94.9025C62.2026 94.5928 62.4682 94.3564 62.7777 94.3745Z" fill="black"/>
<path d="M8.75395 161.406C9.39948 160.918 9.99069 160.362 10.5174 159.747L16.6953 152.635C17.3341 151.894 17.9983 151.181 18.688 150.494L21.0099 148.177C21.1715 148.015 21.375 147.901 21.5977 147.848C21.8203 147.796 22.0532 147.806 22.2701 147.879C22.487 147.952 22.6793 148.084 22.8254 148.26C22.9714 148.436 23.0653 148.65 23.0966 148.877V151.641C23.0993 152.574 23.3059 153.495 23.702 154.339C24.098 155.184 24.6738 155.931 25.3891 156.53L33.4481 163.241C33.405 162.9 33.4553 162.553 33.5935 162.237C33.7318 161.922 33.9528 161.65 34.2332 161.45C34.5136 161.25 34.8427 161.131 35.1858 161.103C35.5288 161.076 35.8729 161.142 36.1814 161.294L39.5908 162.994C39.7624 163.081 39.9124 163.206 40.0299 163.358C40.1474 163.511 40.2295 163.687 40.27 163.876C40.3106 164.064 40.3086 164.259 40.2643 164.446C40.22 164.634 40.1345 164.809 40.014 164.959V164.959C39.4441 165.655 39.0292 166.465 38.7971 167.334C38.565 168.203 38.5209 169.112 38.6679 170C39.773 176.635 42.3594 192.888 41.6716 195.418C41.3539 196.794 40.5814 198.023 39.4791 198.906C38.9989 199.267 38.4061 199.446 37.8064 199.411C37.2067 199.375 36.6391 199.127 36.2049 198.712L1.94116 166.194L8.75395 161.406Z" fill="#FF84F9"/>
<path fill-rule="evenodd" clip-rule="evenodd" d="M9.75121 160.465C10.0204 160.311 10.3633 160.405 10.5171 160.674C10.5122 160.666 10.5134 160.667 10.5258 160.685C10.5374 160.701 10.5587 160.731 10.594 160.779C10.6551 160.863 10.7422 160.981 10.8541 161.131C11.0777 161.43 11.3967 161.853 11.798 162.382C12.6004 163.441 13.7291 164.923 15.0747 166.685C17.7658 170.21 21.3233 174.855 24.8707 179.483C28.4181 184.111 31.9552 188.721 34.6055 192.174C35.9306 193.9 37.034 195.337 37.8062 196.343L39.0188 197.922C39.019 197.922 39.0191 197.922 38.6239 198.226L39.0188 197.922C39.2078 198.168 39.162 198.521 38.9162 198.71C38.6703 198.899 38.3179 198.853 38.129 198.607L38.5245 198.303C38.129 198.607 38.1292 198.607 38.129 198.607L38.1277 198.605L36.9159 197.027C36.1437 196.022 35.0403 194.585 33.7151 192.858C31.0647 189.405 27.5275 184.795 23.9799 180.167C20.4324 175.539 16.8744 170.893 14.1826 167.367C12.8368 165.605 11.7071 164.122 10.9035 163.061C10.5017 162.531 10.1809 162.106 9.95498 161.803C9.84218 161.652 9.75211 161.531 9.68717 161.442C9.63443 161.37 9.57229 161.284 9.54232 161.232C9.3885 160.962 9.48202 160.619 9.75121 160.465Z" fill="black"/>
<path fill-rule="evenodd" clip-rule="evenodd" d="M9.8207 160.431C9.5329 160.547 9.39307 160.874 9.50837 161.162C9.62363 161.45 9.95019 161.59 10.2379 161.474" fill="black"/>
<path fill-rule="evenodd" clip-rule="evenodd" d="M41.0207 180.355C41.2272 180.587 41.2072 180.942 40.976 181.148L34.7452 186.719C34.514 186.926 34.1591 186.906 33.9526 186.674C33.746 186.443 33.766 186.088 33.9972 185.881L40.228 180.311C40.4592 180.104 40.8141 180.124 41.0207 180.355Z" fill="black"/>
<path fill-rule="evenodd" clip-rule="evenodd" d="M33.2302 181.268C33.394 181.004 33.7402 180.924 34.0034 181.088L41.7273 185.9C41.9905 186.064 42.0711 186.41 41.9072 186.673C41.7434 186.937 41.3972 187.017 41.134 186.853L33.4101 182.042C33.1469 181.878 33.0664 181.531 33.2302 181.268Z" fill="black"/>
<path fill-rule="evenodd" clip-rule="evenodd" d="M39.9447 173.361C40.1513 173.592 40.1314 173.947 39.9002 174.154L33.8692 179.548C33.6381 179.755 33.2832 179.735 33.0766 179.504C32.87 179.272 32.8899 178.917 33.1211 178.711L39.152 173.317C39.3832 173.11 39.7381 173.13 39.9447 173.361Z" fill="black"/>
<path fill-rule="evenodd" clip-rule="evenodd" d="M32.3543 174.097C32.5181 173.834 32.8643 173.753 33.1275 173.917L40.6516 178.605C40.9147 178.769 40.9952 179.116 40.8314 179.379C40.6675 179.642 40.3213 179.723 40.0581 179.559L32.5341 174.871C32.2709 174.707 32.1904 174.36 32.3543 174.097Z" fill="black"/>
<path d="M107.854 191.653C107.99 190.851 108.041 190.036 108.007 189.224L107.577 179.812C107.536 178.841 107.525 177.865 107.577 176.871L107.666 173.588C107.672 173.36 107.741 173.138 107.867 172.947C107.992 172.756 108.168 172.603 108.375 172.507C108.582 172.41 108.811 172.373 109.038 172.4C109.265 172.427 109.48 172.517 109.658 172.659L111.569 174.665C112.21 175.341 112.992 175.868 113.86 176.208C114.727 176.549 115.659 176.694 116.589 176.635L127.052 175.947C126.786 175.728 126.584 175.441 126.468 175.117C126.353 174.792 126.327 174.443 126.394 174.105C126.461 173.767 126.618 173.453 126.849 173.198C127.079 172.942 127.375 172.754 127.704 172.653L131.343 171.541C131.527 171.485 131.722 171.471 131.913 171.501C132.103 171.53 132.285 171.602 132.444 171.711C132.603 171.82 132.736 171.963 132.832 172.13C132.928 172.297 132.986 172.484 133 172.676V172.676C133.067 173.575 133.324 174.449 133.754 175.241C134.185 176.032 134.78 176.722 135.499 177.265C140.865 181.324 153.915 191.329 155.161 193.635C155.877 194.853 156.161 196.277 155.966 197.676C155.867 198.27 155.56 198.808 155.1 199.195C154.64 199.582 154.057 199.792 153.456 199.788H106.208L107.854 191.653Z" fill="#FF84F9"/>
<path fill-rule="evenodd" clip-rule="evenodd" d="M107.926 190.291C108.012 189.993 108.324 189.821 108.621 189.907C108.614 189.905 108.616 189.906 108.636 189.909C108.656 189.913 108.693 189.92 108.753 189.931C108.855 189.95 108.999 189.975 109.184 190.006C109.551 190.069 110.074 190.156 110.729 190.263C112.039 190.478 113.876 190.775 116.064 191.126C120.44 191.829 126.216 192.749 131.972 193.663C137.729 194.578 143.466 195.486 147.763 196.166C149.912 196.506 151.701 196.789 152.953 196.987L154.919 197.298C154.919 197.298 154.919 197.298 154.832 197.853C154.744 198.408 154.744 198.408 154.744 198.408L152.778 198.097C151.526 197.899 149.737 197.616 147.588 197.276C143.29 196.596 137.553 195.687 131.796 194.773C126.04 193.859 120.263 192.939 115.886 192.236C113.698 191.884 111.859 191.587 110.547 191.372C109.891 191.264 109.367 191.177 108.995 191.114C108.81 191.082 108.661 191.057 108.553 191.037C108.465 191.021 108.364 191.002 108.309 190.986C108.011 190.9 107.84 190.589 107.926 190.291ZM155.386 197.94C155.338 198.247 155.05 198.456 154.744 198.408L154.832 197.853L154.919 197.298C155.225 197.346 155.435 197.634 155.386 197.94Z" fill="black"/>
<path fill-rule="evenodd" clip-rule="evenodd" d="M144.298 183.176C144.607 183.201 144.836 183.472 144.811 183.782L144.123 192.111C144.098 192.42 143.826 192.65 143.517 192.625C143.209 192.599 142.979 192.328 143.004 192.019L143.692 183.689C143.718 183.38 143.989 183.15 144.298 183.176Z" fill="black"/>
<path fill-rule="evenodd" clip-rule="evenodd" d="M149.286 187.146C149.349 187.45 149.153 187.747 148.849 187.809L139.938 189.639C139.634 189.701 139.337 189.505 139.275 189.201C139.213 188.897 139.409 188.6 139.712 188.538L148.624 186.709C148.927 186.646 149.224 186.842 149.286 187.146Z" fill="black"/>
<path fill-rule="evenodd" clip-rule="evenodd" d="M138.707 178.84C139.016 178.866 139.246 179.137 139.221 179.446L138.556 187.511C138.531 187.82 138.26 188.05 137.951 188.024C137.642 187.999 137.412 187.728 137.437 187.418L138.102 179.354C138.127 179.045 138.398 178.815 138.707 178.84Z" fill="black"/>
<path fill-rule="evenodd" clip-rule="evenodd" d="M143.49 182.593C143.553 182.897 143.357 183.194 143.053 183.256L134.365 185.039C134.062 185.101 133.765 184.905 133.703 184.601C133.64 184.297 133.836 184 134.14 183.938L142.828 182.156C143.131 182.093 143.428 182.289 143.49 182.593Z" fill="black"/>
</g>
</g>
<defs>
<clipPath id="clip0">
<rect width="194" height="200" fill="white"/>
</clipPath>
<clipPath id="clip1">
<rect width="191.628" height="200" fill="white" transform="translate(2)"/>
</clipPath>
</defs>
</svg>
