<svg width="130" height="166" viewBox="0 0 130 166" fill="none" xmlns="http://www.w3.org/2000/svg">
<g clip-path="url(#clip0)">
<path d="M4.81521 138.753C5.27545 138.405 5.69696 138.008 6.07247 137.57L10.4771 132.465C10.9325 131.937 11.406 131.428 11.8978 130.939L13.5532 129.287C13.6683 129.172 13.8135 129.091 13.9722 129.053C14.131 129.016 14.297 129.023 14.4516 129.075C14.6063 129.127 14.7434 129.221 14.8475 129.347C14.9516 129.472 15.0186 129.624 15.0409 129.786V131.756C15.0428 132.421 15.1901 133.077 15.4725 133.679C15.7548 134.281 16.1654 134.813 16.6753 135.24L22.421 140.039C22.3903 139.796 22.4262 139.549 22.5247 139.324C22.6233 139.099 22.7809 138.905 22.9808 138.763C23.1806 138.621 23.4153 138.535 23.6599 138.516C23.9045 138.496 24.1498 138.543 24.3698 138.652L26.8005 139.863C26.9228 139.925 27.0298 140.014 27.1136 140.123C27.1973 140.231 27.2558 140.357 27.2847 140.492C27.3136 140.626 27.3123 140.765 27.2807 140.898C27.2491 141.032 27.1881 141.157 27.1022 141.264C26.6947 141.761 26.3983 142.339 26.2328 142.96C26.0673 143.581 26.0365 144.23 26.1425 144.864C26.9304 149.593 28.7744 161.175 28.284 162.978C28.0575 163.959 27.5067 164.834 26.7208 165.463C26.3785 165.721 25.9559 165.848 25.5283 165.823C25.1007 165.798 24.696 165.621 24.3865 165.325L-0.0419922 142.144L4.81521 138.753Z" fill="#FF84F9"/>
<path fill-rule="evenodd" clip-rule="evenodd" d="M5.52619 138.061C5.71811 137.951 5.96259 138.018 6.07225 138.21C6.06878 138.204 6.06958 138.205 6.07846 138.218C6.0867 138.229 6.10188 138.251 6.12704 138.285C6.17063 138.345 6.23269 138.429 6.31249 138.535C6.47191 138.748 6.69939 139.05 6.98549 139.427C7.55755 140.182 8.36223 141.238 9.3216 142.494C11.2403 145.005 13.7766 148.316 16.3057 151.614C18.8348 154.912 21.3566 158.197 23.2462 160.657C24.1909 161.888 24.9776 162.912 25.5281 163.628L26.3927 164.754C26.3928 164.754 26.3929 164.754 26.1111 164.971L26.3927 164.754C26.5274 164.929 26.4947 165.181 26.3195 165.315C26.1442 165.45 25.8929 165.417 25.7582 165.242L26.0403 165.025C25.7582 165.242 25.7584 165.242 25.7582 165.242L25.7573 165.241L24.8934 164.116C24.3429 163.4 23.5561 162.375 22.6114 161.145C20.7218 158.684 18.1999 155.399 15.6706 152.101C13.1414 148.803 10.6047 145.492 8.68556 142.98C7.72604 141.724 6.92065 140.667 6.34769 139.911C6.06128 139.533 5.83251 139.23 5.67147 139.015C5.59105 138.907 5.52683 138.821 5.48053 138.757C5.44293 138.706 5.39863 138.645 5.37726 138.607C5.2676 138.415 5.33427 138.171 5.52619 138.061Z" fill="black"/>
<path fill-rule="evenodd" clip-rule="evenodd" d="M5.57583 138.037C5.37064 138.119 5.27095 138.352 5.35315 138.558C5.43533 138.763 5.66815 138.863 5.87328 138.781" fill="black"/>
<path fill-rule="evenodd" clip-rule="evenodd" d="M27.82 152.235C27.9672 152.4 27.953 152.653 27.7881 152.8L23.3458 156.77C23.181 156.918 22.928 156.903 22.7807 156.738C22.6335 156.573 22.6477 156.32 22.8125 156.173L27.2548 152.203C27.4197 152.056 27.6727 152.07 27.82 152.235Z" fill="black"/>
<path fill-rule="evenodd" clip-rule="evenodd" d="M22.2657 152.886C22.3825 152.698 22.6293 152.64 22.817 152.757L28.3238 156.186C28.5114 156.303 28.5689 156.55 28.452 156.738C28.3352 156.925 28.0884 156.983 27.9008 156.866L22.394 153.437C22.2063 153.32 22.1489 153.073 22.2657 152.886Z" fill="black"/>
<path fill-rule="evenodd" clip-rule="evenodd" d="M27.0529 147.251C27.2002 147.416 27.186 147.669 27.0212 147.816L22.7214 151.66C22.5566 151.808 22.3036 151.793 22.1563 151.629C22.009 151.464 22.0232 151.211 22.188 151.063L26.4878 147.219C26.6526 147.072 26.9056 147.086 27.0529 147.251Z" fill="black"/>
<path fill-rule="evenodd" clip-rule="evenodd" d="M21.6412 147.776C21.7581 147.588 22.0049 147.531 22.1925 147.647L27.5568 150.988C27.7445 151.105 27.8019 151.352 27.685 151.54C27.5682 151.727 27.3214 151.785 27.1337 151.668L21.7694 148.327C21.5818 148.21 21.5244 147.963 21.6412 147.776Z" fill="black"/>
<path d="M75.4689 160.286C75.5657 159.715 75.6023 159.134 75.5778 158.555L75.2719 151.848C75.2425 151.156 75.2342 150.461 75.2719 149.752L75.3347 147.413C75.3391 147.25 75.3887 147.092 75.478 146.956C75.5673 146.82 75.6928 146.711 75.8403 146.642C75.9878 146.574 76.1516 146.547 76.3133 146.566C76.4749 146.586 76.628 146.649 76.7554 146.751L78.1175 148.18C78.5749 148.662 79.1326 149.037 79.751 149.28C80.3694 149.523 81.0335 149.627 81.6965 149.584L89.1562 149.094C88.9667 148.938 88.8229 148.734 88.7403 148.502C88.6577 148.271 88.6393 148.022 88.687 147.781C88.7347 147.54 88.8468 147.317 89.0113 147.135C89.1759 146.953 89.3867 146.818 89.6214 146.746L92.2155 145.954C92.3471 145.914 92.4859 145.904 92.6218 145.925C92.7577 145.946 92.8871 145.997 93.0005 146.075C93.114 146.153 93.2085 146.255 93.2772 146.374C93.3459 146.493 93.387 146.626 93.3974 146.763C93.4444 147.404 93.6277 148.027 93.9349 148.591C94.242 149.154 94.666 149.646 95.1785 150.033C99.0047 152.925 108.308 160.056 109.197 161.699C109.707 162.567 109.91 163.582 109.771 164.579C109.7 165.002 109.481 165.385 109.153 165.661C108.825 165.937 108.41 166.087 107.982 166.084H74.2954L75.4689 160.286Z" fill="#FF84F9"/>
<path fill-rule="evenodd" clip-rule="evenodd" d="M75.5203 159.316C75.5818 159.103 75.8038 158.981 76.0161 159.043C76.0106 159.041 76.0125 159.041 76.0265 159.044C76.0406 159.047 76.067 159.052 76.1103 159.06C76.1831 159.073 76.2857 159.091 76.417 159.113C76.6793 159.158 77.0516 159.22 77.5186 159.296C78.4525 159.449 79.7626 159.661 81.3226 159.911C84.4424 160.412 88.5603 161.068 92.6644 161.719C96.7684 162.371 100.858 163.018 103.923 163.503C105.455 163.745 106.73 163.947 107.623 164.088L109.024 164.309C109.024 164.309 109.025 164.309 108.962 164.705C108.9 165.1 108.9 165.1 108.899 165.1L107.498 164.879C106.605 164.738 105.33 164.536 103.798 164.294C100.733 163.809 96.6432 163.162 92.5389 162.51C88.4347 161.858 84.3162 161.203 81.1957 160.702C79.6355 160.451 78.3244 160.239 77.3892 160.086C76.9217 160.01 76.5474 159.947 76.2827 159.902C76.1505 159.88 76.0446 159.861 75.9677 159.848C75.9043 159.836 75.8325 159.823 75.7934 159.812C75.581 159.75 75.4588 159.528 75.5203 159.316ZM109.358 164.767C109.323 164.985 109.118 165.135 108.899 165.1L108.962 164.705L109.024 164.309C109.243 164.344 109.392 164.549 109.358 164.767Z" fill="black"/>
<path fill-rule="evenodd" clip-rule="evenodd" d="M101.452 154.245C101.672 154.263 101.836 154.457 101.818 154.677L101.327 160.613C101.309 160.833 101.116 160.997 100.895 160.979C100.675 160.961 100.511 160.767 100.53 160.547L101.02 154.611C101.038 154.391 101.231 154.227 101.452 154.245Z" fill="black"/>
<path fill-rule="evenodd" clip-rule="evenodd" d="M105.008 157.075C105.053 157.291 104.913 157.503 104.697 157.547L98.3434 158.851C98.1269 158.895 97.9153 158.756 97.8709 158.539C97.8265 158.323 97.966 158.111 98.1825 158.067L104.536 156.763C104.752 156.718 104.964 156.858 105.008 157.075Z" fill="black"/>
<path fill-rule="evenodd" clip-rule="evenodd" d="M97.4661 151.156C97.6864 151.174 97.8503 151.367 97.8321 151.588L97.3586 157.335C97.3404 157.555 97.1471 157.719 96.9268 157.701C96.7065 157.683 96.5427 157.489 96.5608 157.269L97.0344 151.522C97.0525 151.301 97.2458 151.138 97.4661 151.156Z" fill="black"/>
<path fill-rule="evenodd" clip-rule="evenodd" d="M100.876 153.83C100.921 154.047 100.781 154.258 100.565 154.303L94.3705 155.573C94.1539 155.617 93.9424 155.478 93.898 155.261C93.8536 155.044 93.9932 154.833 94.2097 154.788L100.404 153.518C100.62 153.474 100.832 153.613 100.876 153.83Z" fill="black"/>
<path d="M104.554 86.4373L96.9806 68.6007L86.8471 72.604L75.6869 68.1228L72.4515 70.7805L77.8577 84.6767C78.6255 86.6887 80.1152 88.3423 82.0361 89.315C83.957 90.2877 86.1712 90.5096 88.2469 89.9375L104.554 86.4373Z" fill="#0010F3"/>
<path d="M82.7359 13.3387L83.3939 16.9102L85.1792 26.6397L87.8278 41.0305L91.059 58.5905L94.6128 77.9152L98.1834 97.3364L101.536 115.445L104.352 130.75L106.377 141.762C107.008 145.209 108.314 148.497 110.22 151.437C112.642 155.151 116.124 160.5 118.874 164.705C119.213 165.22 119.7 165.621 120.271 165.856C120.842 166.091 121.47 166.148 122.074 166.021C122.678 165.893 123.229 165.586 123.656 165.141C124.083 164.695 124.366 164.131 124.468 163.523L127.444 145.46C127.835 143.087 127.812 140.665 127.377 138.3L125.587 128.57L122.939 114.18L119.712 96.6196L116.154 77.2948L112.583 57.8485L109.251 39.7394L106.448 24.4473L104.424 13.4351C104.105 11.6955 103.808 9.94745 103.464 8.212C103.464 8.13654 103.435 8.06109 103.422 7.98564C102.948 5.40761 100.698 2.75412 98.5019 1.45882C96.3059 0.163517 92.9532 -0.461082 90.4094 0.322807C87.765 1.13604 85.2211 2.72897 83.8842 5.24412L82.8072 7.75927C82.2913 9.58212 82.2711 11.5096 82.7485 13.3429L82.7359 13.3387Z" fill="#FF84F9"/>
<path d="M120.114 158.677C118.683 159.046 117.391 159.826 116.397 160.919L118.87 164.692C119.208 165.209 119.694 165.612 120.264 165.848C120.835 166.084 121.463 166.143 122.068 166.017C122.672 165.891 123.225 165.585 123.653 165.14C124.081 164.695 124.365 164.131 124.469 163.523L125.194 159.129C123.604 158.396 121.809 158.236 120.114 158.677Z" fill="black"/>
<path fill-rule="evenodd" clip-rule="evenodd" d="M92.3195 7.63623C92.5471 7.59407 92.7658 7.74443 92.8079 7.97208L118.003 144.042C118.046 144.269 117.895 144.488 117.668 144.53C117.44 144.572 117.221 144.422 117.179 144.194L91.9838 8.12476C91.9416 7.89712 92.0919 7.6784 92.3195 7.63623Z" fill="black"/>
<path fill-rule="evenodd" clip-rule="evenodd" d="M86.7709 9.06983C86.9985 9.02766 87.2172 9.17802 87.2593 9.40566L111.516 140.391C111.558 140.618 111.408 140.837 111.18 140.879C110.953 140.921 110.734 140.771 110.692 140.543L86.4352 9.55836C86.393 9.33072 86.5433 9.112 86.7709 9.06983Z" fill="black"/>
<path fill-rule="evenodd" clip-rule="evenodd" d="M98.3167 6.08106C98.5443 6.03889 98.763 6.18925 98.8051 6.41689L123.07 137.448C123.112 137.676 122.962 137.894 122.734 137.936C122.507 137.979 122.288 137.828 122.246 137.601L97.981 6.56959C97.9388 6.34195 98.0891 6.12323 98.3167 6.08106Z" fill="black"/>
<path d="M84.3787 4.41396L84.4583 4.30078L84.3787 4.41396Z" fill="#00CD73"/>
<path d="M103.803 10.7815C103.804 11.2609 103.774 11.7398 103.711 12.2152C103.627 12.8413 103.487 13.4586 103.292 14.0596C103.011 14.9559 102.614 15.8113 102.11 16.6041C101.947 16.8682 101.767 17.1239 101.578 17.3754C101.482 17.497 101.385 17.6227 101.285 17.7401C101.088 17.9832 100.866 18.2138 100.656 18.436C99.4538 19.6495 97.9813 20.5609 96.3591 21.0957C94.7369 21.6305 93.0111 21.7735 91.3231 21.5128C91.0088 21.4667 90.6987 21.4038 90.3927 21.3284C89.9356 21.2184 89.4862 21.0784 89.0475 20.9092L88.6284 20.7289C88.349 20.6032 88.0696 20.4635 87.7902 20.3098C87.5178 20.1588 87.2496 19.9954 86.9897 19.8235C86.7299 19.6516 86.4743 19.463 86.2312 19.266C85.9881 19.069 85.7493 18.8468 85.5229 18.6498C85.2966 18.4527 85.0787 18.2054 84.8692 17.9665C84.5543 17.6086 84.2631 17.2305 83.9975 16.8347C83.9095 16.7005 83.8215 16.5664 83.7418 16.4155C83.5742 16.1388 83.4191 15.8579 83.2766 15.5771C83.2054 15.4304 83.1383 15.2836 83.0713 15.1327C83.1803 15.728 83.2892 16.3232 83.4024 16.9143C83.665 18.3731 83.9318 19.8291 84.2028 21.2823C85.6567 22.5053 87.3495 23.4117 89.1733 23.9434C90.9971 24.4752 92.9117 24.6206 94.7948 24.3705C96.678 24.1205 98.4883 23.4803 100.11 22.4909C101.732 21.5016 103.13 20.1848 104.214 18.6246C104.541 18.1516 104.837 17.6588 105.103 17.1491L104.42 13.4392C104.197 12.2319 104 11.0247 103.762 9.81738C103.787 10.136 103.799 10.4797 103.803 10.7815Z" fill="black"/>
<path d="M84.186 4.70752L84.1106 4.82908L84.186 4.70752Z" fill="#00CD73"/>
<path d="M90.397 0.322826L90.5059 0.293483C93.1981 -0.340923 96.031 0.0807674 98.4218 1.47181C100.813 2.86285 102.58 5.11747 103.359 7.77187C102.806 5.25671 100.627 2.71641 98.4895 1.45884C96.2307 0.13 92.9408 -0.461063 90.397 0.322826Z" fill="#00CD73"/>
<path d="M85.8455 2.77917L85.791 2.82948L85.8455 2.77917Z" fill="#00CD73"/>
<path d="M85.4935 3.11462L85.4348 3.16912L85.4935 3.11462Z" fill="#00CD73"/>
<path d="M103.753 9.80903C103.655 9.27526 103.555 8.74289 103.451 8.21191C103.558 8.74569 103.658 9.27806 103.753 9.80903Z" fill="#00CD73"/>
<path d="M86.273 2.42712L86.1934 2.49L86.273 2.42712Z" fill="#00CD73"/>
<path d="M85.1122 3.49597L85.0452 3.57143L85.1122 3.49597Z" fill="#00CD73"/>
<path d="M89.412 0.662355C89.2485 0.725234 89.0893 0.792303 88.9258 0.863566C88.2831 1.13922 87.6648 1.46876 87.0777 1.84867C86.931 1.94508 86.7843 2.0415 86.6586 2.1463C85.9464 2.64932 85.3063 3.2473 84.7559 3.92367C84.4253 4.33598 84.1334 4.77802 83.8842 5.24412L82.8072 7.75927C82.2913 9.58212 82.2711 11.5096 82.7485 13.3429L83.0754 15.1329C83.1424 15.2838 83.2095 15.4305 83.2807 15.5772C83.4232 15.8706 83.5783 16.1515 83.7459 16.4156C83.8255 16.5539 83.9136 16.6881 84.0016 16.8348C84.2672 17.2306 84.5584 17.6087 84.8733 17.9666C85.0828 18.2055 85.2923 18.4319 85.527 18.6499C85.7617 18.8679 85.9922 19.0691 86.2353 19.2661C86.4784 19.4631 86.734 19.6476 86.9938 19.8236C87.2537 19.9997 87.5219 20.159 87.7943 20.3099C88.0667 20.4608 88.3517 20.5991 88.6325 20.7291L89.0515 20.9093C89.4903 21.0785 89.9397 21.2186 90.3968 21.3285C90.7027 21.404 91.0129 21.4669 91.3272 21.513C93.0159 21.776 94.7429 21.6351 96.3666 21.1017C97.9903 20.5684 99.4646 19.6577 100.669 18.4445C100.887 18.2223 101.088 17.9917 101.297 17.7486C101.398 17.6312 101.494 17.5055 101.591 17.3839C101.779 17.1324 101.959 16.8767 102.123 16.6126C102.626 15.8199 103.024 14.9644 103.305 14.0681C103.499 13.4671 103.639 12.8498 103.724 12.2237C103.786 11.7484 103.817 11.2694 103.816 10.79C103.816 10.4673 103.816 10.1445 103.766 9.81751C103.668 9.28373 103.567 8.75136 103.464 8.22039C103.464 8.14493 103.435 8.06948 103.422 7.99402C103.409 7.91857 103.388 7.8515 103.372 7.78023C102.594 5.12518 100.828 2.8693 98.4381 1.47668C96.048 0.0840611 93.2152 -0.339382 90.5225 0.293464L90.4136 0.322808C90.0657 0.419222 89.7389 0.536598 89.412 0.662355Z" fill="#7DE6AF"/>
<path d="M62.6197 55.4716C62.6696 55.271 62.794 55.097 62.9676 54.9848C63.1412 54.8727 63.351 54.8309 63.5543 54.8679C63.5773 54.6914 63.6109 54.5164 63.6548 54.3439C63.8476 53.5981 64.234 52.9166 64.7751 52.3683C65.3161 51.8201 65.9924 51.4248 66.7355 51.2224C67.4786 51.02 68.2619 51.0178 69.0061 51.216C69.7504 51.4141 70.4289 51.8056 70.9731 52.3508C71.5172 52.8959 71.9075 53.5753 72.1045 54.32C72.3014 55.0647 72.2979 55.8482 72.0944 56.5912C71.8909 57.3341 71.4946 58.01 70.9457 58.5503C70.3968 59.0906 69.7148 59.4761 68.9689 59.6677L70.2974 63.2308L67.1039 63.7171C67.1039 63.7171 67.3973 61.2019 67.5691 59.7851C67.3073 59.7675 67.0477 59.7254 66.7938 59.6593C66.0283 59.4627 65.3307 59.0616 64.7756 58.499C64.2204 57.9363 63.8287 57.2333 63.6423 56.4651C63.5051 56.5027 63.3603 56.5027 63.2232 56.4651C63.0137 56.4096 62.8339 56.2751 62.7213 56.0899C62.6088 55.9047 62.5724 55.6831 62.6197 55.4716Z" fill="#648CFF"/>
<path d="M59.091 54.9142C59.376 55.7316 59.091 56.6664 59.3886 57.4755C59.7742 58.4983 61.0146 58.972 62.0959 58.8337C62.8916 58.6961 63.6496 58.3933 64.3212 57.945C64.0046 57.4974 63.7757 56.9939 63.6465 56.461C63.5093 56.4987 63.3646 56.4987 63.2274 56.461C63.0176 56.4029 62.8386 56.2655 62.7283 56.0777C62.618 55.8899 62.5851 55.6666 62.6365 55.455C62.6864 55.2544 62.8108 55.0804 62.9844 54.9682C63.158 54.8561 63.3678 54.8143 63.5711 54.8513C63.5932 54.8473 63.616 54.8473 63.6381 54.8513C63.7507 54.8789 63.8559 54.9306 63.9463 55.003C64.0368 55.0754 64.1104 55.1667 64.162 55.2705C65.1133 54.9939 66.8022 54.08 67.4141 51.0786C67.4141 51.5313 67.6823 54.3022 72.2545 55.5262C72.2453 55.8601 72.1989 56.1919 72.1162 56.5155C71.8992 57.3641 71.4301 58.127 70.771 58.7037C71.2658 58.8131 71.7227 59.0518 72.0953 59.3954C73.1411 60.3772 74.5052 60.95 75.9383 61.0093C76.7702 61.033 77.594 60.8399 78.3287 60.4489C79.0635 60.0579 79.6839 59.4825 80.1292 58.7792C80.5463 58.0608 80.7282 57.2299 80.6493 56.4029C80.5704 55.576 80.2346 54.7945 79.6891 54.168C78.8258 53.2668 77.5937 52.8853 76.4496 52.3404C75.3055 51.7954 74.2075 50.8858 74.1195 49.6408C74.065 48.8443 74.4463 48.094 74.5888 47.3101C74.7334 46.5129 74.6241 45.6905 74.2764 44.9587C73.9288 44.227 73.3602 43.6229 72.651 43.2316C71.9418 42.8403 71.1276 42.6816 70.3234 42.7778C69.5192 42.874 68.7654 43.2203 68.1684 43.7679C67.2465 44.6063 66.7394 45.9016 65.6539 46.522C63.6633 47.6622 61.1781 45.9225 58.9066 46.2411C58.2205 46.3375 57.5745 46.6225 57.0408 47.0644C56.507 47.5063 56.1064 48.0878 55.8835 48.744C55.6606 49.4002 55.6242 50.1054 55.7784 50.7811C55.9326 51.4568 56.2713 52.0764 56.7567 52.5709C57.5404 53.3674 58.7181 53.8662 59.091 54.9142Z" fill="black"/>
<path d="M44.704 90.3527L32.8606 115.596L47.3358 123.054L64.4639 96.716L44.704 90.3527Z" fill="#648CFF"/>
<path d="M91.3984 116.007C90.8618 113.682 89.6877 111.552 88.008 109.858L65.1762 84.3708L65.0421 84.4756C64.8996 84.2995 64.753 84.1277 64.623 83.9558L64.5518 83.8761C64.4177 83.7294 64.2794 83.5869 64.1327 83.457L64.0489 83.3731C63.8938 83.2222 63.7346 83.0755 63.5711 82.9288L63.5376 82.8994C63.3574 82.7401 63.1688 82.5892 62.976 82.4383C62.8 82.3084 62.624 82.1784 62.4438 82.0569L62.2804 81.9479C62.1421 81.8556 61.9996 81.7676 61.8613 81.6796L61.6601 81.5622C61.5176 81.4784 61.3709 81.3987 61.241 81.3233L61.0524 81.2227C60.8387 81.1179 60.6333 81.0131 60.407 80.9208C57.5417 79.6783 54.3088 79.583 51.3753 80.6547C48.4418 81.7264 46.0313 83.8833 44.641 86.6805L29.7551 111.413C29.6922 111.493 29.6336 111.568 29.5749 111.652L8.38171 129.245L30.8824 147.271L48.484 129.245C49.7895 128.157 50.87 126.824 51.6649 125.322L58.035 112.951L66.2533 121.985L71.2195 152.435L100.447 147.195L91.3984 116.007Z" fill="#00CD73"/>
<path d="M91.1177 68.4833L90.2795 68.412C89.8939 68.3778 89.5084 68.478 89.1883 68.6958C88.8682 68.9135 88.6333 69.2354 88.5236 69.6067L86.2605 75.2533L88.4062 77.5672L91.1177 68.4833Z" fill="#648CFF"/>
<path d="M101.021 68.3283C100.92 67.9138 100.718 67.5309 100.433 67.214C100.148 66.8972 99.7879 66.6563 99.3863 66.5132C99.3863 66.5132 96.6832 65.6748 95.8241 65.5323C94.965 65.3897 93.8334 65.7922 93.012 66.3706C92.266 66.8988 91.6877 67.8127 91.101 68.5169C89.63 70.2649 86.6419 75.3623 86.248 75.8192C85.7157 76.4354 85.1667 76.8337 85.8289 77.2571C85.9401 77.3274 86.058 77.3863 86.1809 77.4331L86.0678 77.7727L89.4959 81.8346C89.4959 81.8346 93.9005 82.9623 95.4888 78.3637C97.0772 73.7652 100.828 74.591 100.828 74.591H100.849L101.117 74.7126L101.075 74.6832L101.13 74.7168C101.181 74.7411 101.229 74.7721 101.272 74.809L101.31 74.8341C101.918 75.3707 103.045 75.1192 103.468 74.4694C103.694 74.1302 103.782 73.7176 103.714 73.3157C103.647 72.9138 103.428 72.5528 103.104 72.3064C102.808 72.0874 102.483 71.9097 102.14 71.7782C101.886 71.6598 101.625 71.5548 101.36 71.4638C101.74 71.4196 102.09 71.2374 102.344 70.9518C102.598 70.6662 102.739 70.2972 102.739 69.9149C102.739 69.5326 102.598 69.1636 102.344 68.878C102.09 68.5925 101.74 68.4103 101.36 68.366L101.021 68.3283Z" fill="#648CFF"/>
<path fill-rule="evenodd" clip-rule="evenodd" d="M94.3489 68.5809C93.5465 69.0055 93.0959 69.6246 92.8565 70.0441C92.747 70.2361 92.5025 70.3029 92.3105 70.1933C92.1186 70.0837 92.0518 69.8392 92.1613 69.6472C92.4458 69.1487 92.9926 68.3928 93.9745 67.8732C94.9605 67.3514 96.3408 67.0914 98.247 67.5066L99.7965 67.7351C100.015 67.7674 100.166 67.9708 100.134 68.1896C100.102 68.4083 99.8985 68.5595 99.6798 68.5272L98.1029 68.2946L98.0893 68.2917C96.3313 67.9063 95.1448 68.1597 94.3489 68.5809Z" fill="black"/>
<path fill-rule="evenodd" clip-rule="evenodd" d="M96.334 70.7602C97.8521 70.3951 99.4411 70.4529 100.929 70.9273C101.139 70.9945 101.255 71.2197 101.188 71.4303C101.121 71.641 100.896 71.7573 100.685 71.6901C99.3401 71.2611 97.903 71.208 96.5298 71.5366C95.5156 71.8299 94.5903 72.3712 93.8375 73.1117C93.6798 73.2667 93.4264 73.2645 93.2715 73.1069C93.1165 72.9492 93.1186 72.6958 93.2762 72.5408C94.1262 71.7048 95.1714 71.0943 96.3169 70.7647L96.3254 70.7623L96.334 70.7602Z" fill="black"/>
<path fill-rule="evenodd" clip-rule="evenodd" d="M90.7594 68.9278C90.9376 69.0586 90.976 69.3092 90.8453 69.4874C89.9539 70.7025 88.7662 72.5444 87.9301 73.9075C87.8146 74.096 87.5681 74.155 87.3797 74.0394C87.1913 73.9238 87.1323 73.6773 87.2479 73.4889C88.0881 72.1189 89.2892 70.2552 90.1999 69.0137C90.3307 68.8355 90.5812 68.797 90.7594 68.9278Z" fill="black"/>
<path d="M99.0468 84.6768L86.8933 70.7889L82.3294 76.6157L76.7975 67.3935L76.7682 67.4186C75.9455 65.7112 74.6292 64.2901 72.9899 63.3394C71.3505 62.3888 69.4636 61.9523 67.5734 62.0865L66.9951 62.1243C63.7299 62.3447 60.6633 63.7716 58.3913 66.1275C50.9693 73.8616 41.8416 86.9278 41.9254 87.3428L72.351 93.2786L73.47 94.8212C74.2964 95.9231 75.4197 96.7666 76.7082 97.2529C77.9967 97.7392 79.3971 97.8481 80.7453 97.5669C81.7737 97.3529 82.7424 96.915 83.5825 96.2842L99.0468 84.6768Z" fill="#0010F3"/>
<path fill-rule="evenodd" clip-rule="evenodd" d="M78.3224 69.9385C78.512 69.8248 78.7578 69.8862 78.8715 70.0758L82.3817 75.9275L84.86 72.7638C84.9964 72.5898 85.2479 72.5593 85.4219 72.6956C85.5959 72.832 85.6264 73.0836 85.4901 73.2577L82.294 77.3376L78.1851 70.4878C78.0714 70.2982 78.1329 70.0523 78.3224 69.9385Z" fill="black"/>
<path fill-rule="evenodd" clip-rule="evenodd" d="M95.5981 80.7537C95.7644 80.608 96.0173 80.6248 96.1629 80.7912L99.6324 84.7547L95.5361 87.8265C95.3592 87.9592 95.1084 87.9233 94.9758 87.7464C94.8432 87.5695 94.8791 87.3186 95.0559 87.1859L98.4613 84.6322L95.5607 81.3186C95.415 81.1522 95.4318 80.8993 95.5981 80.7537Z" fill="black"/>
<path fill-rule="evenodd" clip-rule="evenodd" d="M61.5257 78.35C61.7046 78.2202 61.9549 78.26 62.0847 78.4389L71.4345 91.3291C71.5643 91.508 71.5245 91.7584 71.3456 91.8882C71.1667 92.018 70.9164 91.9782 70.7866 91.7993L61.4368 78.9091C61.307 78.7302 61.3468 78.4798 61.5257 78.35Z" fill="black"/>
<path fill-rule="evenodd" clip-rule="evenodd" d="M43.3328 90.9654C43.5639 90.9789 43.7402 91.1773 43.7267 91.4084C43.5631 94.2034 44.3948 96.9661 46.0743 99.206L46.3214 99.5356L46.2926 99.558L54.336 109.706C54.4798 109.888 54.4493 110.151 54.268 110.295C54.0866 110.439 53.823 110.408 53.6792 110.227L45.1101 99.4157L45.1619 99.3753C43.5259 97.039 42.7228 94.215 42.89 91.3594C42.9035 91.1282 43.1018 90.9519 43.3328 90.9654Z" fill="black"/>
<path fill-rule="evenodd" clip-rule="evenodd" d="M66.7626 55.216C66.7626 54.9949 66.9418 54.8157 67.1628 54.8157H68.9355C69.1566 54.8157 69.3358 54.9949 69.3358 55.216C69.3358 55.4371 69.1566 55.6163 68.9355 55.6163H67.1628C66.9418 55.6163 66.7626 55.4371 66.7626 55.216Z" fill="black"/>
<path d="M65.7546 56.9933C66.736 56.9933 67.5315 56.1976 67.5315 55.216C67.5315 54.2344 66.736 53.4386 65.7546 53.4386C64.7732 53.4386 63.9777 54.2344 63.9777 55.216C63.9777 56.1976 64.7732 56.9933 65.7546 56.9933Z" fill="#648CFF"/>
<path fill-rule="evenodd" clip-rule="evenodd" d="M65.7547 53.8389C64.9943 53.8389 64.378 54.4554 64.378 55.2159C64.378 55.9764 64.9943 56.593 65.7547 56.593C66.515 56.593 67.1314 55.9764 67.1314 55.2159C67.1314 54.4554 66.515 53.8389 65.7547 53.8389ZM63.5775 55.2159C63.5775 54.0132 64.5523 53.0382 65.7547 53.0382C66.9571 53.0382 67.9318 54.0132 67.9318 55.2159C67.9318 56.4186 66.9571 57.3936 65.7547 57.3936C64.5523 57.3936 63.5775 56.4186 63.5775 55.2159Z" fill="black"/>
<path d="M70.3436 56.9933C71.3249 56.9933 72.1205 56.1976 72.1205 55.216C72.1205 54.2344 71.3249 53.4386 70.3436 53.4386C69.3622 53.4386 68.5667 54.2344 68.5667 55.216C68.5667 56.1976 69.3622 56.9933 70.3436 56.9933Z" fill="#648CFF"/>
<path fill-rule="evenodd" clip-rule="evenodd" d="M70.3435 53.8389C69.5832 53.8389 68.9668 54.4554 68.9668 55.2159C68.9668 55.9764 69.5832 56.593 70.3435 56.593C71.1039 56.593 71.7202 55.9764 71.7202 55.2159C71.7202 54.4554 71.1039 53.8389 70.3435 53.8389ZM68.1664 55.2159C68.1664 54.0132 69.1411 53.0382 70.3435 53.0382C71.546 53.0382 72.5207 54.0132 72.5207 55.2159C72.5207 56.4186 71.546 57.3936 70.3435 57.3936C69.1411 57.3936 68.1664 56.4186 68.1664 55.2159Z" fill="black"/>
</g>
<defs>
<clipPath id="clip0">
<rect width="129.078" height="166" fill="white"/>
</clipPath>
</defs>
</svg>
