<svg width="188" height="192" viewBox="0 0 188 192" fill="none" xmlns="http://www.w3.org/2000/svg">
<circle cx="94" cy="96" r="94" fill="#E3F7EA"/>
<path d="M113.738 57.218C113.738 57.1644 113.732 57.1167 113.732 57.063V57.3671C113.738 57.3194 113.738 57.2717 113.738 57.218Z" fill="#FCCD09"/>
<path d="M113.738 57.2179C113.738 49.9926 107.773 44.1624 99.7369 44.1624C91.7064 44.1624 47.0204 44.1624 47.0204 44.1624V100.11H113.732V57.3669C113.738 57.3192 113.738 57.2716 113.738 57.2179Z" fill="#00CD73"/>
<path d="M79.1965 98.1311V101.869C79.1965 101.869 79.1965 138.526 79.1965 141.131C79.1965 143.736 80.0528 146.317 81.4661 148.386C83.8316 151.844 88.3049 154.109 92.3352 154.109C96.3654 154.109 137.74 154.079 137.74 154.079V98.1311H79.1965V98.1311Z" fill="#00CD73"/>
<path fill-rule="evenodd" clip-rule="evenodd" d="M15 72.1276C15 71.8806 15.2011 71.6804 15.4491 71.6804H36.9478C37.1958 71.6804 37.3969 71.8806 37.3969 72.1276C37.3969 72.3746 37.1958 72.5748 36.9478 72.5748H15.4491C15.2011 72.5748 15 72.3746 15 72.1276Z" fill="black"/>
<path fill-rule="evenodd" clip-rule="evenodd" d="M15.4491 56.6218C15.6972 56.6218 15.8983 56.822 15.8983 57.0689C15.8983 61.5735 19.5659 65.2301 24.0965 65.2301H30.8814C31.1295 65.2301 31.3306 65.4303 31.3306 65.6773C31.3306 65.9242 31.1295 66.1244 30.8814 66.1244H24.0965C19.0694 66.1244 15 62.0669 15 57.0689C15 56.822 15.2011 56.6218 15.4491 56.6218Z" fill="black"/>
<path fill-rule="evenodd" clip-rule="evenodd" d="M15 87.2576C15 82.2596 19.0694 78.2021 24.0965 78.2021H30.8814C31.1295 78.2021 31.3306 78.4023 31.3306 78.6493C31.3306 78.8962 31.1295 79.0964 30.8814 79.0964H24.0965C19.5659 79.0964 15.8983 82.753 15.8983 87.2576C15.8983 87.5045 15.6972 87.7047 15.4491 87.7047C15.2011 87.7047 15 87.5045 15 87.2576Z" fill="black"/>
<path fill-rule="evenodd" clip-rule="evenodd" d="M151.603 131.474C151.603 131.227 151.804 131.026 152.052 131.026H173.551C173.799 131.026 174 131.227 174 131.474C174 131.721 173.799 131.921 173.551 131.921H152.052C151.804 131.921 151.603 131.721 151.603 131.474Z" fill="black"/>
<path fill-rule="evenodd" clip-rule="evenodd" d="M157.669 137.918C157.669 137.671 157.871 137.471 158.119 137.471H164.904C169.931 137.471 174 141.528 174 146.526C174 146.773 173.799 146.973 173.551 146.973C173.303 146.973 173.102 146.773 173.102 146.526C173.102 142.022 169.434 138.365 164.904 138.365H158.119C157.871 138.365 157.669 138.165 157.669 137.918Z" fill="black"/>
<path fill-rule="evenodd" clip-rule="evenodd" d="M173.551 115.896C173.799 115.896 174 116.096 174 116.343C174 121.341 169.931 125.399 164.904 125.399H158.119C157.871 125.399 157.669 125.199 157.669 124.952C157.669 124.705 157.871 124.505 158.119 124.505H164.904C169.434 124.505 173.102 120.848 173.102 116.343C173.102 116.096 173.303 115.896 173.551 115.896Z" fill="black"/>
<path d="M138.267 52.7229C152.892 52.7229 164.748 40.9205 164.748 26.3615C164.748 11.8024 152.892 0 138.267 0C123.642 0 111.786 11.8024 111.786 26.3615C111.786 40.9205 123.642 52.7229 138.267 52.7229Z" fill="#FDCD01"/>
<path fill-rule="evenodd" clip-rule="evenodd" d="M159.31 25.9143C159.558 25.9143 159.759 26.1145 159.759 26.3614C159.759 38.1795 150.138 47.757 138.267 47.757C138.019 47.757 137.818 47.5568 137.818 47.3099C137.818 47.063 138.019 46.8628 138.267 46.8628C149.642 46.8628 158.861 37.6856 158.861 26.3614C158.861 26.1145 159.062 25.9143 159.31 25.9143Z" fill="black"/>
<path fill-rule="evenodd" clip-rule="evenodd" d="M138.267 5.86004C126.891 5.86004 117.672 15.0372 117.672 26.3614C117.672 26.6083 117.471 26.8085 117.223 26.8085C116.975 26.8085 116.774 26.6083 116.774 26.3614C116.774 14.5433 126.395 4.96582 138.267 4.96582C138.515 4.96582 138.716 5.166 138.716 5.41293C138.716 5.65986 138.515 5.86004 138.267 5.86004Z" fill="black"/>
<path d="M140.351 39.6197H136.123V37.9028C131.29 37.563 125.883 35.7687 125.847 29.4376L125.841 28.6686H130.997C128.368 27.7565 126.05 26.0396 126.05 22.5462C126.05 18.2122 129.799 15.4282 136.117 15.0109V13.1033H140.345V15.0825C146.812 15.6011 150.004 18.4745 149.824 23.6252L149.801 24.3644H146.243C148.687 25.2765 150.687 27.0053 150.687 30.4034C150.687 33.5331 148.872 37.3246 140.351 37.9088V39.6197V39.6197ZM137.662 38.0876H138.806V36.4483L139.542 36.4184C145.914 36.1323 149.142 34.1054 149.142 30.4034C149.142 25.819 144.459 25.1215 139.668 24.7996L138.806 24.74V20.9664L139.746 21.1751C140.686 21.3837 141.243 21.9262 141.429 22.8323H148.285C148.118 18.862 145.315 16.8649 139.542 16.5669L138.812 16.5311V14.6413H137.668V16.4834L136.925 16.5073C131.087 16.7159 127.601 18.9753 127.601 22.5462C127.601 26.7371 131.943 27.6373 136.386 28.1976C136.602 28.2274 136.806 28.2513 137.003 28.2751L137.674 28.3645V31.7745L136.835 31.697C135.548 31.5837 134.769 31.077 134.5 30.1947H127.44C127.811 34.1233 130.931 36.1561 136.937 36.4006L137.674 36.4304V38.0876H137.662ZM135.937 29.6939C135.961 29.7953 136.009 29.8907 136.123 29.9682V29.7178C136.063 29.7059 135.997 29.6999 135.937 29.6939ZM138.806 31.8162V28.5672L139.746 28.7759C140.572 28.9607 141.71 29.2111 141.71 30.2603C141.71 31.1664 141.009 31.6731 139.632 31.7626L138.806 31.8162ZM137.662 24.6208L136.692 24.3644C135.111 23.9471 134.829 23.2019 134.877 22.6416C134.889 22.2779 135.087 21.2883 136.794 21.0737L137.662 20.9664V24.6208V24.6208Z" fill="#00CD73"/>
<path d="M43.4512 192C58.0763 192 69.9323 180.198 69.9323 165.639C69.9323 151.08 58.0763 139.277 43.4512 139.277C28.8262 139.277 16.9702 151.08 16.9702 165.639C16.9702 180.198 28.8262 192 43.4512 192Z" fill="#FDCD01"/>
<path fill-rule="evenodd" clip-rule="evenodd" d="M64.4948 165.191C64.7428 165.191 64.9439 165.392 64.9439 165.639C64.9439 177.457 55.323 187.034 43.4513 187.034C43.2032 187.034 43.0021 186.834 43.0021 186.587C43.0021 186.34 43.2032 186.14 43.4513 186.14C54.8269 186.14 64.0456 176.963 64.0456 165.639C64.0456 165.392 64.2467 165.191 64.4948 165.191Z" fill="black"/>
<path fill-rule="evenodd" clip-rule="evenodd" d="M43.4513 145.137C32.0757 145.137 22.8569 154.314 22.8569 165.639C22.8569 165.885 22.6558 166.086 22.4078 166.086C22.1597 166.086 21.9586 165.885 21.9586 165.639C21.9586 153.82 31.5796 144.243 43.4513 144.243C43.6993 144.243 43.9004 144.443 43.9004 144.69C43.9004 144.937 43.6993 145.137 43.4513 145.137Z" fill="black"/>
<path d="M45.5352 178.897H41.3074V177.18C36.4747 176.84 31.0671 175.046 31.0311 168.715L31.0251 167.946H36.1812C33.5523 167.034 31.2347 165.317 31.2347 161.823C31.2347 157.489 34.9835 154.705 41.3014 154.288V152.38H45.5292V154.36C51.9968 154.878 55.1886 157.752 55.009 162.902L54.985 163.642H51.4279C53.8712 164.554 55.8713 166.282 55.8713 169.68C55.8713 172.81 54.0568 176.602 45.5352 177.186V178.897V178.897ZM42.8464 177.365H43.9902V175.725L44.7268 175.696C51.0985 175.415 54.3263 173.388 54.3263 169.686C54.3263 165.102 49.6433 164.405 44.8525 164.083L43.9902 164.023V160.249L44.9304 160.458C45.8706 160.667 46.4275 161.209 46.6131 162.115H53.4699C53.3023 158.145 50.4997 156.148 44.7268 155.85L43.9962 155.814V153.924H42.8464V155.766L42.1038 155.79C36.2651 155.999 32.7798 158.258 32.7798 161.829C32.7798 166.02 37.1214 166.92 41.5649 167.481C41.7804 167.51 41.9841 167.534 42.1817 167.558L42.8524 167.648V171.058L42.014 170.98C40.7265 170.867 39.948 170.36 39.6785 169.478H32.6121C32.9834 173.406 36.1034 175.439 42.1098 175.684L42.8464 175.713V177.365V177.365ZM41.1217 168.971C41.1457 169.072 41.1936 169.168 41.3074 169.245V168.995C41.2475 168.989 41.1876 168.977 41.1217 168.971ZM43.9962 171.093V167.844L44.9364 168.053C45.7628 168.238 46.9006 168.488 46.9006 169.537C46.9006 170.444 46.1999 170.95 44.8226 171.04L43.9962 171.093ZM42.8464 163.904L41.8763 163.647C40.2953 163.23 40.0138 162.485 40.0618 161.925C40.0737 161.561 40.2714 160.571 41.9781 160.357L42.8464 160.249V163.904V163.904Z" fill="#00CD73"/>
<path d="M80.1007 75.6744L78.7233 75.3704V80.1336L79.927 80.0561C80.1725 80.0382 80.4001 80.0143 80.6157 79.9786C80.9331 78.6909 81.4481 77.4748 82.1308 76.3719C81.5439 75.9963 80.7594 75.8175 80.1007 75.6744Z" fill="#7DE6AF"/>
<path d="M72.9744 66.6966C72.9026 67.5133 73.3098 68.5983 75.6273 69.2183L77.0466 69.5938V64.2405L75.777 64.4014C73.2798 64.7114 72.9924 66.166 72.9744 66.6966Z" fill="#7DE6AF"/>
<path d="M79.8013 86.864L78.7233 86.9117V89.3142H77.0466V86.9117L75.9627 86.864C67.1596 86.5004 62.5964 83.5256 62.0514 77.7729H72.3935C72.7888 79.0605 73.9326 79.7997 75.8189 79.9667L77.0526 80.0799V75.0842L76.0705 74.9531C75.783 74.9173 75.4836 74.8756 75.1722 74.8398C68.6627 74.0171 62.3029 72.6937 62.3029 66.5594C62.3029 61.3312 67.4111 58.0226 75.9627 57.7126L77.0526 57.6709V54.9704H78.7293V57.7365L79.8013 57.7901C88.257 58.2253 92.3591 61.1464 92.6106 66.9648H82.5679C82.2925 65.6413 81.478 64.8485 80.1007 64.5444L78.7293 64.2404V69.7666L79.9869 69.8501C82.9991 70.0528 85.9754 70.3568 88.4007 71.1676C89.5206 70.7324 90.7123 70.4522 91.9579 70.3509C91.2273 69.8978 90.4428 69.5222 89.6164 69.2182H94.8264L94.8623 68.1332C95.1258 60.586 90.4548 56.3773 80.981 55.6202V52.7229H74.7889V55.5188C65.5307 56.1328 60.0393 60.2105 60.0393 66.5534C60.0393 71.6743 63.4348 74.19 67.2854 75.5194H59.7339L59.7399 76.6521C59.7938 85.9221 67.7105 88.5511 74.7889 89.0459V91.5557H80.981V89.344C80.6936 88.5273 80.478 87.6808 80.3582 86.8223C80.1726 86.8342 79.9929 86.8521 79.8013 86.864ZM74.7889 77.0515V77.4152C74.6212 77.3019 74.5494 77.1707 74.5194 77.0157C74.6093 77.0336 74.6991 77.0396 74.7889 77.0515Z" fill="#7DE6AF"/>
<path d="M119.577 98.1431H98.0002V154.091H119.577V98.1431Z" fill="#7DE6AF"/>
<path d="M108.785 146.055C119.845 146.055 128.811 137.13 128.811 126.12C128.811 115.11 119.845 106.185 108.785 106.185C97.7257 106.185 88.76 115.11 88.76 126.12C88.76 137.13 97.7257 146.055 108.785 146.055Z" fill="#7DE6AF"/>
<path fill-rule="evenodd" clip-rule="evenodd" d="M118.43 143.601C118.545 143.82 118.459 144.09 118.239 144.204C115.41 145.673 112.195 146.502 108.791 146.502C105.382 146.502 102.167 145.673 99.3431 144.204C99.1233 144.089 99.0383 143.819 99.1532 143.6C99.2681 143.382 99.5395 143.297 99.7593 143.411C102.457 144.815 105.53 145.608 108.791 145.608C112.047 145.608 115.12 144.815 117.824 143.411C118.044 143.297 118.315 143.382 118.43 143.601Z" fill="black"/>
<path fill-rule="evenodd" clip-rule="evenodd" d="M108.785 106.626C105.53 106.626 102.457 107.419 99.753 108.823C99.533 108.937 99.2617 108.852 99.147 108.633C99.0323 108.414 99.1176 108.144 99.3375 108.03C102.167 106.561 105.382 105.732 108.785 105.732C112.189 105.732 115.41 106.561 118.234 108.03C118.454 108.145 118.539 108.415 118.424 108.634C118.309 108.852 118.037 108.937 117.818 108.823C115.12 107.419 112.041 106.626 108.785 106.626Z" fill="black"/>
<path d="M113.798 72.1094V72.1035V70.3031H113.792L113.738 57.2178C113.738 64.3417 108.019 70.1302 100.899 70.2912V70.2972H93.0298C85.9634 70.2972 80.2385 75.9963 80.2385 83.0308V85.1888C80.2385 91.7822 85.0412 98.1371 91.5207 98.1371C98.0003 98.1371 113.798 98.1371 113.798 98.1371V72.1094V72.1094Z" fill="#008C50"/>
<path d="M142.974 75.3703C139.123 74.2198 137.045 71.1318 136.027 66.8872C135.009 71.1318 132.937 74.2198 129.08 75.3703C132.931 76.5209 135.009 79.6089 136.027 83.8535C137.045 79.6089 139.123 76.5209 142.974 75.3703Z" fill="#FED4FF"/>
<path d="M69.7287 128.046C65.8781 126.895 63.8001 123.807 62.782 119.562C61.764 123.807 59.692 126.895 55.8354 128.046C59.686 129.196 61.764 132.284 62.782 136.529C63.8001 132.284 65.8721 129.196 69.7287 128.046Z" fill="#FED4FF"/>
</svg>