<svg width="156" height="144" viewBox="0 0 156 144" fill="none" xmlns="http://www.w3.org/2000/svg">
<g clip-path="url(#clip0)">
<path d="M139.609 4.53566C139.609 4.53566 77.769 -13.4067 55.118 21.8645C31.6504 58.4053 94.2982 93.0652 94.2982 93.0652L143.83 92.6303L138.102 48.0784L139.609 4.53566Z" fill="#648CFF"/>
<path d="M103.618 68.5736C97.2151 68.5736 88.7393 73.1463 88.7393 85.1777C88.7393 97.209 97.9866 102.334 103.697 102.334C109.408 102.334 130.094 102.305 136.289 102.305C142.489 102.305 151.162 95.2281 151.162 85.3421C151.162 75.4561 144.781 68.5382 136.204 68.5382C127.627 68.5441 110.016 68.5736 103.618 68.5736Z" fill="#648CFF"/>
<path d="M118.616 4.29064C112.213 4.29064 103.737 8.86337 103.737 20.8947C103.737 32.926 112.984 38.0513 118.695 38.0513C124.406 38.0513 130.094 38.0219 136.289 38.0219C142.489 38.0219 151.162 30.9453 151.162 21.0593C151.162 11.1732 144.781 4.25538 136.204 4.25538C127.627 4.25537 125.014 4.29064 118.616 4.29064Z" fill="#648CFF"/>
<path d="M112.855 36.8522C103.298 36.8522 95.6665 42.5593 95.6665 53.95C95.6665 65.3406 104.621 70.6069 110.427 70.6069C116.234 70.6069 135.342 70.6069 141.137 70.6069C146.932 70.6069 155.955 66.4339 155.955 53.95C155.955 41.4661 146.887 36.7993 141.137 36.7993C135.387 36.8052 122.412 36.8522 112.855 36.8522Z" fill="#648CFF"/>
<path d="M138.338 36.805L118.205 36.8521" stroke="black" stroke-width="1.5474" stroke-linecap="round"/>
<path d="M127.452 70.6128L141.137 70.6128" stroke="black" stroke-width="1.5" stroke-miterlimit="10" stroke-linecap="round"/>
<path d="M56.2047 20.9358C52.1161 26.6488 47.177 36.8052 47.177 48.8836C47.177 64.7765 48.0725 75.6617 61.0819 87.9693C71.2922 97.6261 74.5249 102.616 76.7607 108.899C78.7487 114.489 79.9708 121.771 80.4326 129.43C80.6691 133.432 83.3668 144 94.4107 144C106.339 144 108.366 132.445 108.366 129.406C108.366 126.367 107.904 116.928 106.378 109.91C104.565 101.588 102.002 93.2415 100.003 89.6973C98.6908 87.3698 96.8323 87.6813 95.2723 85.5301C92.6873 81.9742 89.9841 78.5123 87.3541 74.9917C88.1256 76.0202 88.8915 77.0429 89.6631 78.0715C85.6364 72.6877 81.8912 67.0629 78.8895 60.9796C78.0842 59.3456 77.3351 57.6823 76.6537 55.9896C77.138 57.1945 77.6167 58.3935 78.1011 59.5984C76.5805 55.7838 75.4034 51.7989 74.8797 47.6963C75.0374 48.9482 75.1951 50.1943 75.3528 51.4462C75.0205 48.7954 74.9698 46.1094 75.2908 43.4586C75.1388 44.6929 74.9867 45.9213 74.8346 47.1556C75.105 44.9809 75.6231 42.8473 76.4059 40.8078C75.961 41.9598 75.5161 43.1118 75.0712 44.2638C75.8484 42.2655 76.8733 40.3788 78.1067 38.6508C77.3858 39.6617 76.6593 40.6668 75.9385 41.6777C77.0873 40.079 78.4052 38.6155 79.8525 37.3048C80.2299 36.9639 80.6128 36.6348 81.0014 36.3174C80.0159 37.1226 79.0359 37.922 78.0504 38.7272C79.7681 37.3342 81.6265 36.1234 83.592 35.1536C83.9018 35.0008 84.2115 34.8539 84.5269 34.7187C83.3724 35.2242 82.2235 35.7238 81.069 36.2292C81.2549 36.1469 81.4463 36.0647 81.6378 35.9941C83.5357 35.5416 85.1802 34.6364 86.5712 33.2787C88.1312 32.2207 89.3477 30.8101 90.215 29.0469C91.178 27.3953 91.6962 25.632 91.7806 23.7394C92.1636 21.8763 92.0847 20.0072 91.5385 18.144C91.0541 16.9391 90.5754 15.7401 90.0911 14.5352C88.8127 12.2665 87.0725 10.4856 84.8817 9.1925C83.7779 8.72817 82.6741 8.26385 81.5702 7.79952C79.1936 7.15887 76.8114 7.16474 74.4348 7.81715C74.4179 7.82303 62.304 12.4016 56.2047 20.9358Z" fill="#648CFF"/>
<path d="M56.1543 76.4551L55.1181 21.8703C55.0392 17.5797 51.5926 14.2001 47.487 14.3823L17.0698 15.7047L18.3764 84.4133L48.8612 84.2605C52.9555 84.2311 56.2388 80.7222 56.1543 76.4551Z" fill="#FED4FF"/>
<path d="M39.608 88.1222L38.1381 10.8441L0.24195 12.578L1.68368 88.2456L39.608 88.1222Z" fill="#FDCD01"/>
<path d="M39.608 88.1222L38.1381 10.8441L0.24195 12.578L1.68368 88.2456L39.608 88.1222Z" fill="#FDCD01"/>
<mask id="mask0" mask-type="alpha" maskUnits="userSpaceOnUse" x="0" y="10" width="40" height="79">
<path d="M39.6083 88.1222L38.1384 10.8441L0.242194 12.578L1.68392 88.2456L39.6083 88.1222Z" fill="#FDCD01"/>
</mask>
<g mask="url(#mask0)">
<path d="M8.76835 -4.51383C3.20416 2.05727 -1.89259 9.02804 -6.4318 16.4102C-8.44797 19.684 -10.4529 23.0166 -12.1649 26.4785C-12.6324 27.4248 -14.2994 29.5054 -11.9228 29.7758C-11.5285 29.8228 -10.5993 29.1469 -10.1826 28.9118C-8.44797 27.942 -6.79786 26.7547 -5.22097 25.5322C5.26539 17.3977 12.7951 5.52502 24.3965 -1.11661C28.84 -3.66159 36.3133 -5.8304 39.27 0.270495C40.5259 2.86249 39.7149 5.77187 38.9659 8.38151C37.8959 12.1079 36.6175 15.8107 34.8941 19.2667C29.1779 30.7221 18.179 36.6231 7.9799 42.9768C2.5734 46.3505 -2.75425 50.0063 -6.92176 55.0081C-7.82848 56.1013 -8.78025 57.2475 -9.43353 58.5229C-9.73202 59.1048 -10.4304 60.6329 -10.2107 61.3559C-9.36595 64.1183 -6.82039 62.1376 -5.78978 61.5087C-2.30371 59.381 1.08661 57.0711 4.41499 54.6966C17.2329 45.5394 29.0427 34.9833 41.3538 25.1267C44.5301 22.5817 47.7064 19.7781 51.1249 17.5916C53.0453 16.3632 55.4107 15.8225 56.5258 18.3969C59.0938 24.3214 53.0735 31.2746 49.9366 35.4888C40.5315 48.1196 29.8086 59.669 17.9988 69.8607C14.7718 72.6466 11.3702 75.2269 8.21643 78.1069C6.55506 79.6233 4.93874 81.2279 3.55333 83.0264C1.99333 85.0483 -0.0622707 88.9745 3.81239 89.8091C5.51881 90.1794 8.76834 88.275 10.2495 87.5756C11.7025 86.8879 13.1161 86.1062 14.4902 85.2599C17.6384 83.332 20.5894 81.0692 23.3828 78.6182C34.3704 68.9791 43.201 56.9595 55.1403 48.4664C55.6472 48.1079 56.5032 48.3371 56.7792 48.9131C61.2058 58.3172 52.668 68.7322 47.6782 75.9028C44.6878 80.1993 41.6522 84.4958 39.2644 89.2037C37.6706 92.3423 32.8385 102.175 38.4252 104.127C39.5685 104.526 39.1067 106.366 37.924 106.025C28.4795 103.316 36.9103 88.0282 39.7431 83.379C42.7448 78.4595 46.2252 73.8927 49.3565 69.0731C52.7468 63.8479 57.5564 56.6891 54.7123 50.1768C55.2586 50.3237 55.8049 50.4765 56.3512 50.6235C44.8342 58.3231 36.2795 69.7137 26.0522 79.0179C21.361 83.285 16.3205 87.1877 10.6325 89.9031C8.28401 91.0257 5.3386 92.6421 2.6804 92.1601C0.162999 91.7075 -1.05909 89.4329 -0.788768 86.9115C-0.490284 84.102 1.3513 81.7862 3.10842 79.7761C5.89051 76.5905 9.17946 73.9573 12.4065 71.2889C18.6634 66.1108 24.6612 60.6212 30.3324 54.7495C36.2458 48.631 41.8099 42.1422 46.9799 35.3301C49.2889 32.2914 51.9359 29.1351 53.5128 25.5851C53.9971 24.4919 54.6222 22.8638 54.5715 21.6178C54.5715 21.3004 54.5659 20.983 54.5659 20.6656C53.9126 19.1492 53.1636 18.8377 52.3188 19.7252C51.5473 19.9485 50.4941 21.0594 49.8408 21.5472C48.7427 22.3642 47.6501 23.1871 46.5632 24.0217C33.2384 34.2251 20.6852 45.4924 7.12387 55.3608C4.08835 57.5707 1.00214 59.7101 -2.15165 61.7379C-4.28046 63.1074 -7.6201 66.1049 -10.3571 64.7707C-15.2962 62.3609 -10.0643 55.2021 -8.01996 52.7511C0.382644 42.6653 13.1611 38.3218 22.9886 30.1167C28.8907 25.1913 32.8047 19.0551 35.2884 11.6142C36.4767 8.05236 39.3489 1.77514 34.9561 -0.499472C30.935 -2.58013 26.0579 0.723062 22.7689 2.98592C16.1854 7.51163 10.8634 13.6831 5.26539 19.4019C2.62409 22.0997 -0.0847916 24.7211 -3.01331 27.078C-5.48003 29.0646 -8.74082 32.0034 -11.934 32.4795C-14.5922 32.8732 -16.2987 30.6633 -15.6397 28.0008C-14.6823 24.1275 -11.72 20.2071 -9.71512 16.8687C-4.78169 8.65187 0.838819 0.899387 7.00561 -6.35351C8.08128 -7.5878 9.82149 -5.754 8.76835 -4.51383Z" fill="#00CD73"/>
</g>
</g>
<defs>
<clipPath id="clip0">
<rect width="156" height="144" fill="white" transform="matrix(1 8.74228e-08 8.74228e-08 -1 0 144)"/>
</clipPath>
</defs>
</svg>