<svg width="161" height="176" viewBox="0 0 161 176" fill="none" xmlns="http://www.w3.org/2000/svg">
    <g clip-path="url(#clip0)">
        <path d="M85.3438 90.7503L94.2724 160.498L106.518 160.21L106.807 87.0773L85.3438 90.7503Z" fill="#648CFF" />
        <path
            d="M89.8562 169.163C89.9711 168.503 90.0128 167.833 89.9804 167.164L89.6216 159.413C89.5848 158.612 89.5802 157.806 89.6216 157.005L89.6952 154.304C89.7004 154.116 89.7591 153.933 89.8647 153.775C89.9702 153.618 90.1185 153.493 90.2929 153.413C90.4672 153.334 90.6608 153.303 90.8518 153.326C91.0428 153.348 91.2237 153.422 91.3742 153.539L92.9842 155.191C93.525 155.748 94.1845 156.182 94.9158 156.462C95.6472 156.742 96.4325 156.861 97.2162 156.811L106.034 156.248C105.813 156.068 105.645 155.833 105.549 155.567C105.452 155.302 105.431 155.015 105.487 154.739C105.543 154.462 105.674 154.206 105.867 153.996C106.06 153.786 106.307 153.631 106.582 153.548L109.65 152.647C109.804 152.604 109.966 152.594 110.125 152.619C110.283 152.644 110.434 152.703 110.566 152.792C110.699 152.882 110.809 152.999 110.889 153.135C110.969 153.271 111.017 153.423 111.03 153.579C111.086 154.32 111.303 155.041 111.666 155.694C112.03 156.347 112.531 156.917 113.137 157.365C117.659 160.705 128.662 168.956 129.697 170.869C130.3 171.872 130.542 173.045 130.382 174.2C130.296 174.688 130.036 175.131 129.648 175.449C129.259 175.767 128.768 175.94 128.262 175.937H88.467L89.8562 169.163Z"
            fill="#FED4FF" />
        <path fill-rule="evenodd" clip-rule="evenodd"
            d="M89.9116 168.042C89.9827 167.803 90.2381 167.666 90.482 167.736C90.4764 167.734 90.4789 167.735 90.4939 167.737C90.5106 167.741 90.5427 167.747 90.5963 167.756C90.6829 167.772 90.8049 167.793 90.9606 167.819C91.2718 167.871 91.713 167.942 92.2662 168.031C93.3723 168.209 94.9227 168.454 96.7683 168.744C100.459 169.323 105.329 170.081 110.182 170.834C115.035 171.587 119.871 172.335 123.493 172.895C125.304 173.175 126.812 173.408 127.867 173.571L129.524 173.827C129.525 173.827 129.525 173.827 129.453 174.272C129.382 174.716 129.381 174.716 129.381 174.716L127.724 174.46C126.669 174.297 125.161 174.065 123.35 173.785C119.727 173.225 114.891 172.476 110.038 171.723C105.185 170.97 100.314 170.212 96.6226 169.632C94.7767 169.343 93.225 169.097 92.1173 168.919C91.5636 168.831 91.12 168.758 90.8059 168.706C90.649 168.68 90.5232 168.658 90.4316 168.642C90.3552 168.628 90.2706 168.613 90.2244 168.6C89.9805 168.53 89.8405 168.28 89.9116 168.042ZM129.908 174.342C129.868 174.587 129.632 174.755 129.381 174.716L129.453 174.272L129.524 173.827C129.775 173.866 129.947 174.096 129.908 174.342Z"
            fill="black" />
        <path fill-rule="evenodd" clip-rule="evenodd"
            d="M120.567 162.191C120.82 162.212 121.008 162.429 120.988 162.677L120.408 169.542C120.387 169.789 120.165 169.974 119.912 169.953C119.658 169.933 119.47 169.715 119.491 169.467L120.071 162.603C120.092 162.355 120.314 162.171 120.567 162.191Z"
            fill="black" />
        <path fill-rule="evenodd" clip-rule="evenodd"
            d="M124.761 165.453C124.812 165.697 124.652 165.935 124.403 165.985L116.891 167.492C116.642 167.542 116.399 167.386 116.348 167.142C116.297 166.898 116.457 166.661 116.706 166.611L124.218 165.103C124.467 165.053 124.71 165.21 124.761 165.453Z"
            fill="black" />
        <path fill-rule="evenodd" clip-rule="evenodd"
            d="M115.852 158.617C116.105 158.638 116.293 158.855 116.273 159.103L115.716 165.751C115.695 165.999 115.473 166.183 115.22 166.163C114.967 166.143 114.778 165.926 114.799 165.678L115.356 159.029C115.377 158.782 115.599 158.597 115.852 158.617Z"
            fill="black" />
        <path fill-rule="evenodd" clip-rule="evenodd"
            d="M119.876 161.704C119.927 161.947 119.766 162.185 119.518 162.235L112.199 163.702C111.95 163.752 111.707 163.595 111.656 163.352C111.605 163.108 111.765 162.87 112.014 162.82L119.333 161.353C119.582 161.303 119.825 161.46 119.876 161.704Z"
            fill="black" />
        <path d="M80.868 90.0796L74.1889 159.719L61.4101 159.543L58.2913 88.009L80.868 90.0796Z" fill="#648CFF" />
        <path
            d="M78.8901 169.163C78.7737 168.503 78.7305 167.833 78.7613 167.164L79.1201 159.413C79.1569 158.612 79.1661 157.806 79.1431 157.005L79.0649 154.304C79.0597 154.116 79.001 153.933 78.8954 153.775C78.7899 153.618 78.6416 153.493 78.4672 153.413C78.2929 153.334 78.0993 153.303 77.9083 153.326C77.7173 153.348 77.5364 153.422 77.3859 153.539L75.7805 155.191C75.2397 155.748 74.5802 156.182 73.8489 156.462C73.1175 156.742 72.3321 156.861 71.5485 156.811L62.7257 156.248C62.9474 156.069 63.1154 155.834 63.2121 155.568C63.3087 155.303 63.3304 155.017 63.2748 154.74C63.2192 154.464 63.0885 154.207 62.8963 153.997C62.7041 153.787 62.4577 153.632 62.1829 153.548L59.1101 152.647C58.9559 152.604 58.7937 152.594 58.6352 152.619C58.4767 152.644 58.3259 152.703 58.1937 152.792C58.0616 152.882 57.9514 152.999 57.8712 153.135C57.791 153.271 57.7428 153.423 57.7301 153.579C57.6748 154.32 57.4587 155.041 57.0962 155.694C56.7337 156.347 56.2331 156.916 55.6279 157.365C51.1015 160.705 40.1029 168.956 39.0679 170.869C38.4675 171.874 38.2279 173.046 38.3871 174.2C38.4721 174.688 38.7315 175.13 39.1191 175.448C39.5067 175.767 39.9971 175.94 40.5031 175.937H80.3069L78.8901 169.163Z"
            fill="#FED4FF" />
        <path fill-rule="evenodd" clip-rule="evenodd"
            d="M78.8352 168.043C78.9058 168.282 78.7652 168.531 78.5211 168.6C78.4753 168.613 78.3912 168.628 78.3144 168.642C78.2227 168.658 78.0968 168.68 77.9398 168.706C77.6255 168.758 77.1817 168.831 76.6279 168.919C75.5199 169.097 73.968 169.343 72.122 169.632C68.4299 170.212 63.5594 170.97 58.7066 171.723C53.8538 172.476 49.0184 173.225 45.3962 173.785C43.5851 174.065 42.0773 174.297 41.0223 174.46L39.3654 174.716C39.3651 174.716 39.3649 174.716 39.2933 174.272C39.2217 173.827 39.2218 173.827 39.2221 173.827L40.8789 173.571C41.9338 173.408 43.4416 173.175 45.2526 172.895C48.8747 172.335 53.7099 171.587 58.5625 170.834C63.4152 170.081 68.285 169.323 71.9762 168.744C73.822 168.454 75.3726 168.209 76.479 168.031C77.0323 167.942 77.4737 167.871 77.7852 167.819C77.941 167.793 78.0631 167.772 78.1499 167.756C78.2045 167.747 78.237 167.74 78.2537 167.737C78.268 167.734 78.2706 167.734 78.2655 167.735C78.5095 167.666 78.7646 167.804 78.8352 168.043ZM38.8389 174.342C38.7994 174.096 38.9712 173.866 39.2221 173.827L39.2933 174.272L39.3654 174.716C39.1144 174.755 38.8785 174.587 38.8389 174.342Z"
            fill="black" />
        <path fill-rule="evenodd" clip-rule="evenodd"
            d="M78.7878 167.979C78.7879 167.979 78.788 167.98 78.3701 168.168L78.788 167.98C78.8942 168.205 78.7932 168.473 78.5624 168.577C78.3317 168.681 78.0586 168.582 77.9523 168.356L77.9522 168.356M64.6865 164.722C59.1437 168.717 54.1911 171.915 47.4161 173.472C47.1688 173.529 46.9212 173.379 46.8631 173.137C46.805 172.895 46.9584 172.652 47.2058 172.595C53.7892 171.083 58.6161 167.979 64.1409 163.997L64.1411 163.997C66.4776 162.315 68.5845 161.69 70.4427 161.744C72.2981 161.797 73.8495 162.526 75.0809 163.453C76.3098 164.377 77.2343 165.508 77.8491 166.401C78.1575 166.848 78.3905 167.239 78.547 167.52C78.6253 167.66 78.6846 167.773 78.7248 167.852C78.7449 167.891 78.7603 167.922 78.7708 167.944L78.783 167.969L78.7864 167.976L78.7875 167.978L78.7878 167.979M77.9522 168.356L77.9521 168.356L77.9501 168.351L77.941 168.333C77.9326 168.315 77.9194 168.289 77.9017 168.254C77.8661 168.184 77.812 168.081 77.7395 167.951C77.5944 167.691 77.3761 167.325 77.0863 166.904C76.5045 166.06 75.6442 165.012 74.5202 164.166C73.3987 163.323 72.0291 162.69 70.4155 162.644C68.8047 162.597 66.8948 163.132 64.6865 164.722"
            fill="black" />
        <path fill-rule="evenodd" clip-rule="evenodd"
            d="M48.1792 162.191C48.4324 162.171 48.6546 162.355 48.6755 162.603L49.2551 169.467C49.2761 169.715 49.0878 169.933 48.8346 169.953C48.5814 169.974 48.3592 169.789 48.3383 169.542L47.7587 162.677C47.7377 162.429 47.926 162.212 48.1792 162.191Z"
            fill="black" />
        <path fill-rule="evenodd" clip-rule="evenodd"
            d="M43.9853 165.453C44.0364 165.21 44.2795 165.053 44.5284 165.103L52.0402 166.611C52.289 166.661 52.4494 166.898 52.3983 167.142C52.3473 167.386 52.1042 167.542 51.8553 167.492L44.3435 165.985C44.0946 165.935 43.9343 165.697 43.9853 165.453Z"
            fill="black" />
        <path fill-rule="evenodd" clip-rule="evenodd"
            d="M52.8897 158.618C53.1429 158.597 53.3651 158.781 53.386 159.029L53.9472 165.677C53.9681 165.925 53.7798 166.143 53.5266 166.163C53.2734 166.184 53.0512 165.999 53.0303 165.752L52.4691 159.103C52.4482 158.855 52.6365 158.638 52.8897 158.618Z"
            fill="black" />
        <path fill-rule="evenodd" clip-rule="evenodd"
            d="M48.8705 161.704C48.9215 161.46 49.1646 161.303 49.4135 161.353L56.7321 162.82C56.981 162.87 57.1414 163.108 57.0904 163.352C57.0394 163.595 56.7963 163.752 56.5474 163.702L49.2288 162.235C48.98 162.185 48.8195 161.947 48.8705 161.704Z"
            fill="black" />
        <path
            d="M106.311 59.1063L83.6832 59.5655L61.226 59.1063L54.8274 92.3663L56.5846 92.3843L59.3584 88.2836L60.3888 92.4248L84.3732 92.6544L109.066 92.4113L106.311 59.1063Z"
            fill="#00CD73" />
        <path fill-rule="evenodd" clip-rule="evenodd"
            d="M84.4499 72.0753C84.7035 72.0894 84.8975 72.302 84.8831 72.5502L83.7193 92.6529C83.705 92.9011 83.4877 93.0909 83.234 93.0768C82.9804 93.0628 82.7864 92.8502 82.8008 92.602L83.9646 72.4993C83.979 72.2511 84.1962 72.0613 84.4499 72.0753Z"
            fill="black" />
        <path fill-rule="evenodd" clip-rule="evenodd"
            d="M87.4849 72.5189C87.4984 72.4766 87.5056 72.4317 87.5056 72.3851C87.5056 72.1365 87.2997 71.9349 87.0456 71.9349L87.0456 72.3851C87.0456 71.9349 87.0332 71.9351 87.0208 71.9356C87.0167 71.9358 87.0043 71.9368 86.9961 71.9375C86.9797 71.9393 86.9637 71.9419 86.948 71.9452C86.9164 71.9519 86.8874 71.9615 86.861 71.9728C86.8086 71.9952 86.7685 72.0237 86.7394 72.049C86.6846 72.0967 86.6541 72.1463 86.6399 72.1719C86.6114 72.2232 86.5987 72.2698 86.5936 72.2894C86.5816 72.3359 86.5733 72.3913 86.566 72.4567C86.5508 72.5936 86.5325 72.8474 86.5146 73.3309C86.4786 74.3015 86.443 76.2324 86.443 80.0823C86.443 80.4993 86.2982 80.7912 86.0883 81.011C85.8686 81.2409 85.5594 81.4095 85.2167 81.5291C84.8766 81.6478 84.5299 81.709 84.2638 81.74C84.1319 81.7553 84.0227 81.7629 83.9476 81.7666C83.9102 81.7685 83.8814 81.7694 83.8629 81.7698C83.8536 81.7701 83.8469 81.7702 83.8429 81.7702L83.8394 81.7702M83.8394 82.2204C83.8394 82.6705 83.8396 82.6705 83.8398 82.6705L83.8412 82.6705L83.8442 82.6705L83.8535 82.6704C83.8611 82.6703 83.8716 82.6701 83.8847 82.6698C83.911 82.6692 83.9481 82.668 83.9944 82.6657C84.0869 82.6611 84.217 82.652 84.3724 82.6339C84.6807 82.5981 85.0999 82.5257 85.5257 82.3771C85.9489 82.2294 86.4056 81.9971 86.7604 81.6257C87.1249 81.2441 87.363 80.7342 87.363 80.0823C87.363 76.2349 87.3987 74.3172 87.434 73.3635C87.4517 72.8849 87.4691 72.6576 87.4806 72.554C87.4824 72.5385 87.4838 72.5271 87.4849 72.5189M83.8394 81.7702C83.8393 81.7702 83.8389 81.7702 83.8388 81.7702C83.8388 81.7702 83.8388 81.7702 83.8388 81.7702C83.585 81.7706 83.3794 81.972 83.3794 82.2204C83.3794 82.469 83.5857 82.6705 83.8398 82.6705L83.8394 82.2204"
            fill="black" />
        <path
            d="M160.959 18.1266C160.829 17.4041 160.419 16.7587 159.813 16.3261C159.301 15.9798 158.693 15.7945 158.07 15.795C157.971 15.6624 157.857 15.5415 157.729 15.4349C157.406 15.1696 157.029 14.974 156.623 14.8607C156.218 14.7475 155.792 14.7192 155.374 14.7777C155.006 14.8313 154.653 14.958 154.336 15.1499C154.02 15.3419 153.747 15.5951 153.534 15.894C153.12 16.5187 152.946 17.2666 153.042 18.0051V18.1627C152.789 17.9291 152.49 17.7484 152.163 17.6315C151.444 17.3714 150.648 17.4005 149.951 17.7125C149.616 17.8616 149.314 18.0739 149.063 18.3373C148.812 18.6007 148.617 18.91 148.488 19.2475C148.181 20.3158 147.867 21.3841 147.545 22.4524C147.444 22.8035 147.338 23.1501 147.237 23.5012C144.261 24.4014 141.873 24.1629 140.535 24.1629H137.08C133.86 24.0098 134.619 21.5071 134.619 21.5071C134.878 20.7172 135.075 19.9092 135.208 19.0899C135.415 17.8296 134.89 14.4671 134.84 14.089C134.804 13.7232 134.683 13.3703 134.485 13.058C134.287 12.7457 134.018 12.4824 133.699 12.2885C133.069 11.8644 132.298 11.6906 131.542 11.8023C130.812 11.9344 130.161 12.3356 129.725 12.9232C129.3 13.5435 129.125 14.2953 129.232 15.0343C129.297 15.5654 129.692 17.78 129.159 19.297C128.542 21.057 126.445 24.1764 125.479 25.3467C124.513 26.517 123.377 27.6288 122.328 28.7677L121.606 29.5509C121.19 30.1747 121.015 30.9234 121.113 31.662C121.244 32.3832 121.652 33.0278 122.254 33.4625C122.743 33.7895 123.318 33.9722 123.91 33.9891L126.781 39.2466L130.037 41.5378L150.098 34.9344C151.333 34.684 152.483 34.1293 153.438 33.323C154.155 32.6446 154.81 31.9066 155.397 31.1173L157.601 28.4166C158.084 27.8269 158.576 27.2417 159.05 26.6431C159.506 26.0175 159.689 25.2404 159.56 24.4824L159.533 24.2349C159.487 23.8658 159.441 23.4967 159.399 23.1231L159.243 21.8582L160.453 20.2242C160.89 19.6145 161.071 18.8635 160.959 18.1266Z"
            fill="#648CFF" />
        <path fill-rule="evenodd" clip-rule="evenodd"
            d="M158.964 22.2908C159.165 22.4435 159.201 22.7263 159.044 22.9225L156.778 25.7711L151.385 31.0616C151.206 31.2376 150.914 31.238 150.735 31.0624C150.555 30.8869 150.554 30.6019 150.734 30.4259L156.087 25.1744L158.319 22.3694C158.475 22.1733 158.764 22.1381 158.964 22.2908Z"
            fill="black" />
        <path
            d="M40.02 28.9388C39.9623 28.5737 39.8031 28.2311 39.56 27.9485C39.3162 27.6874 39.0724 27.4308 38.824 27.1743C37.7568 26.049 36.639 24.9686 35.604 23.7983C34.569 22.628 32.453 19.5581 31.809 17.8071C31.257 16.2992 31.6112 14.0801 31.6664 13.5444C31.7607 12.8045 31.5741 12.0565 31.142 11.4423C30.6948 10.861 30.0357 10.4708 29.302 10.353C28.5453 10.2496 27.7768 10.4332 27.1538 10.8661C26.8402 11.0632 26.5768 11.328 26.3838 11.6401C26.1909 11.9522 26.0735 12.3033 26.0406 12.6666C25.9992 13.0493 25.5254 16.4207 25.7508 17.6721C25.8969 18.4891 26.106 19.2941 26.3764 20.0803C26.3764 20.0803 27.1906 22.5695 23.9568 22.781L20.5022 22.835C19.1636 22.835 16.7808 23.1231 13.7908 22.2769C13.6804 21.9303 13.5746 21.5837 13.4642 21.2326L12.4706 18.0457C12.2005 17.3673 11.666 16.8216 10.9848 16.5287C10.6369 16.3798 10.2623 16.2995 9.88264 16.2926C9.50294 16.2856 9.12558 16.3521 8.77221 16.4882C8.44563 16.6068 8.14795 16.7908 7.89821 17.0284V16.8708C7.98113 16.131 7.79372 15.3863 7.36921 14.7687C7.15434 14.4743 6.88034 14.2258 6.56396 14.0385C6.24759 13.8512 5.89549 13.729 5.52921 13.6794C5.11729 13.6329 4.7 13.6692 4.30293 13.7861C3.90585 13.903 3.53735 14.098 3.22001 14.3591C3.09608 14.4712 2.98361 14.5948 2.88421 14.7282C2.25963 14.7428 1.65452 14.9438 1.15001 15.3044C0.55704 15.743 0.158599 16.3874 0.0368103 17.1049C-0.0731885 17.8456 0.114804 18.5992 0.56121 19.207C0.56121 19.207 1.14541 19.9677 1.79861 20.823L1.66521 22.0563C1.62841 22.4254 1.58701 22.799 1.55021 23.1681L1.52261 23.4157C1.40802 24.1755 1.60476 24.9488 2.07001 25.5673C2.55301 26.157 3.05441 26.7376 3.54661 27.3183L5.79141 29.9921C6.39027 30.7742 7.05831 31.5032 7.78781 32.1707C8.75045 32.9744 9.90859 33.5217 11.1504 33.7596L31.3168 40.0614L34.5368 37.7163L37.3244 32.4093C37.9159 32.3812 38.487 32.1892 38.9712 31.8556C39.5628 31.4158 39.9608 30.772 40.0844 30.0551C40.1656 29.6841 40.1434 29.2985 40.02 28.9388Z"
            fill="#648CFF" />
        <path fill-rule="evenodd" clip-rule="evenodd"
            d="M2.09473 21.2149C2.29277 21.0591 2.58231 21.09 2.74145 21.2838L5.0191 24.0575L10.4544 29.2236C10.6366 29.3968 10.6408 29.6818 10.4638 29.8601C10.2868 30.0385 9.9956 30.0426 9.81336 29.8694L4.33744 24.6646L2.02429 21.8477C1.86516 21.6539 1.8967 21.3706 2.09473 21.2149Z"
            fill="black" />
        <path d="M78.1632 10.2585L77.786 10.6141L77.418 10.2945L77.809 9.26367L78.1632 10.2585Z" fill="#333132" />
        <path
            d="M74.4371 9.16014C74.4995 8.85643 74.6756 8.58649 74.9309 8.40329C75.1862 8.22009 75.5023 8.13683 75.8171 8.16985C75.8361 7.90369 75.8729 7.63905 75.9275 7.37763C76.1603 6.23942 76.6966 5.18172 77.482 4.31183C78.2674 3.44194 79.274 2.79081 80.3997 2.42451C81.5253 2.05821 82.7299 1.98977 83.8913 2.22613C85.0527 2.46249 86.1295 2.99524 87.0125 3.77034C87.8956 4.54543 88.5534 5.53528 88.9192 6.63947C89.2851 7.74367 89.346 8.92291 89.0957 10.0576C88.8454 11.1922 88.2929 12.2419 87.4942 13.1001C86.6955 13.9584 85.679 14.5946 84.5479 14.9443L86.8985 20.1973L82.0271 21.1921C82.0271 21.1921 82.2709 17.393 82.4089 15.2459C82.004 15.2413 81.6004 15.1991 81.2037 15.1198C80.0115 14.8864 78.9064 14.3406 78.0063 13.5407C77.1063 12.7408 76.445 11.7169 76.0931 10.578C75.8801 10.6496 75.6517 10.6652 75.4307 10.6231C75.1007 10.5579 74.8107 10.3672 74.6243 10.0929C74.438 9.81857 74.3707 9.48306 74.4371 9.16014Z"
            fill="#648CFF" />
        <path
            d="M74.4371 9.16014C74.4995 8.85643 74.6756 8.58649 74.9309 8.40329C75.1862 8.22009 75.5023 8.13683 75.8171 8.16985C75.8361 7.90369 75.8729 7.63905 75.9275 7.37763C76.1603 6.23942 76.6966 5.18172 77.482 4.31183C78.2674 3.44194 79.274 2.79081 80.3997 2.42451C81.5253 2.05821 82.7299 1.98977 83.8913 2.22613C85.0527 2.46249 86.1295 2.99524 87.0125 3.77034C87.8956 4.54543 88.5534 5.53528 88.9192 6.63947C89.2851 7.74367 89.346 8.92291 89.0957 10.0576C88.8454 11.1922 88.2929 12.2419 87.4942 13.1001C86.6955 13.9584 85.679 14.5946 84.5479 14.9443L86.8985 20.1973L82.0271 21.1921C82.0271 21.1921 82.2709 17.393 82.4089 15.2459C82.004 15.2413 81.6004 15.1991 81.2037 15.1198C80.0115 14.8864 78.9064 14.3406 78.0063 13.5407C77.1063 12.7408 76.445 11.7169 76.0931 10.578C75.8801 10.6496 75.6517 10.6652 75.4307 10.6231C75.1007 10.5579 74.8107 10.3672 74.6243 10.0929C74.438 9.81857 74.3707 9.48306 74.4371 9.16014Z"
            fill="#648CFF" />
        <path
            d="M75.8263 8.16976H75.9321C76.1071 8.20412 76.2726 8.27446 76.4177 8.37612C76.5628 8.47777 76.6842 8.60842 76.7739 8.75943C78.2045 8.26429 80.7299 6.75185 81.4153 2.16505C81.4659 2.84024 82.0961 6.99042 89.2353 8.46684C89.1804 6.8551 88.5227 5.31919 87.3869 4.15067C86.2512 2.98215 84.7165 2.26238 83.0742 2.128C81.432 1.99362 79.7965 2.45398 78.4782 3.42169C77.1599 4.38941 76.2506 5.7971 75.9229 7.37753C75.8684 7.63895 75.8315 7.9036 75.8125 8.16976"
            fill="#333132" />
        <path
            d="M91.5907 2.85833L91.2733 1.95807L87.2345 3.30845C86.557 1.94371 85.3941 0.867566 83.9639 0.281715C82.5336 -0.304136 80.9341 -0.359484 79.4651 0.126046C78.6721 0.388 77.9396 0.800287 77.3095 1.33935C76.6794 1.87841 76.164 2.53367 75.7928 3.26771C75.4216 4.00175 75.2018 4.80017 75.146 5.61735C75.0902 6.43453 75.1995 7.25446 75.4677 8.03029L75.5183 8.16983V8.21035L91.5907 2.85833Z"
            fill="#00CD73" />
        <path
            d="M123.372 21.003L114.374 32.0896L108.822 24.8336C107.389 23.0731 105.598 21.6219 103.564 20.5715C101.529 19.521 99.2944 18.894 97.0002 18.7298H95.4638V18.6623L64.8048 18.5768C62.5117 18.7784 60.2861 19.4424 58.2682 20.527C56.2502 21.6116 54.4835 23.0932 53.0794 24.8786L47.61 32.2157L38.64 21.5161L17.6548 41.1822C17.6548 41.1822 38.7136 59.4979 48.829 61.8881C50.6611 62.3214 52.584 62.2069 54.349 61.5595L57.1366 71.4263L109.117 72.3761L110.86 61.8071C111.853 61.876 112.85 61.7863 113.813 61.5415C123.892 58.9848 144.633 40.3495 144.633 40.3495L123.372 21.003Z"
            fill="#FDCD01" />
        <mask id="mask0" mask-type="alpha" maskUnits="userSpaceOnUse" x="17" y="18" width="128" height="55">
            <path
                d="M123.372 21.003L114.374 32.0896L108.822 24.8336C107.389 23.0731 105.598 21.6219 103.564 20.5715C101.529 19.521 99.2944 18.894 97.0002 18.7298H95.4638V18.6623L64.8048 18.5768C62.5117 18.7784 60.2861 19.4424 58.2682 20.527C56.2502 21.6116 54.4835 23.0932 53.0794 24.8786L47.61 32.2157L38.64 21.5161L17.6548 41.1822C17.6548 41.1822 38.7136 59.4979 48.829 61.8881C50.6611 62.3214 52.584 62.2069 54.349 61.5595L57.1366 71.4263L109.117 72.3761L110.86 61.8071C111.853 61.876 112.85 61.7863 113.813 61.5415C123.892 58.9848 144.633 40.3495 144.633 40.3495L123.372 21.003Z"
                fill="#FDCD01" />
        </mask>
        <g mask="url(#mask0)">
            <path
                d="M104.333 59.6284C94.9669 67.9962 81.2267 69.045 69.2759 66.7539C60.3749 65.0524 50.4987 61.6629 45.2961 53.8667C42.0301 48.9693 41.2527 42.537 44.5417 37.4506C48.1343 31.8915 55.1217 30.289 61.4099 31.4819C65.9997 32.4298 70.3356 34.3082 74.1381 36.9959C78.7887 40.2099 83.0621 46.5522 79.9939 52.1157C77.3627 56.8781 71.1849 58.377 66.0651 57.7874C61.2765 57.2382 56.5799 55.2306 52.4583 52.8359C39.1689 45.1838 18.4965 22.4838 38.1431 10.1143C53.6221 0.369047 72.9191 2.70521 87.7173 12.536C93.7203 16.5196 99.2771 21.7726 102.585 28.1599C105.036 32.9043 106.237 39.026 102.419 43.4283C100.478 45.6789 97.1749 47.6145 94.1895 47.9836C90.5831 48.4337 86.6869 47.1373 83.4853 45.6384C75.8815 42.0779 69.2897 35.8571 64.9519 28.8216C61.3317 22.97 58.4015 14.449 63.4937 8.50286C69.0137 2.04802 79.6397 1.53938 87.4137 3.16884C96.6137 5.09539 105.069 9.97928 112.143 15.9255C119.089 21.7771 125.267 29.0197 128.8 37.356C130.277 40.8445 131.293 44.6166 131.252 48.4157C131.201 52.8855 128.809 56.6485 125.125 59.2503C117.613 64.5438 107.047 63.5085 98.7527 60.7987C89.9621 57.9224 81.8845 52.2733 76.8429 44.5941C72.7029 38.2923 69.6071 28.6641 75.2881 22.2723C81.1807 15.6419 91.4709 16.6592 99.2541 18.6442C108.29 21.0326 116.838 24.9277 124.522 30.1585C131.118 34.5968 138.391 40.5925 140.893 48.3437C143.129 55.2846 139.513 61.2173 133.202 64.4132C126.891 67.6091 119.522 68.0728 112.636 67.5371C104.971 66.9563 97.4901 64.952 90.5923 61.6314C85.0953 58.9307 79.2487 55.0461 76.7279 49.334C74.0553 43.2932 77.0269 37.3786 81.5211 33.0708C87.3171 27.5118 96.8943 28.2905 103.868 31.0363C111.265 33.9486 117.935 39.4221 121.886 46.2281C125.539 52.5299 126.422 60.3126 121.454 66.2047C118.542 69.6617 114.296 71.9034 110.165 73.6769C105.058 75.8361 99.6149 77.1357 94.0653 77.521C74.9247 78.9524 52.3065 70.9356 41.0733 55.0866C36.2019 48.1636 33.6397 38.2608 38.9481 30.7932C41.7081 26.8951 46.3771 25.1441 50.9725 24.2798C55.4989 23.4336 60.5543 22.8664 65.1589 23.0735C75.4675 23.5236 84.1293 30.7257 88.3935 39.6112C90.5715 44.0777 91.5966 48.9989 91.3789 53.9433C91.2883 56.4592 90.7835 58.9443 89.8839 61.3028C88.8903 63.7335 86.4247 65.354 84.1799 66.6594C67.5095 76.3596 47.7433 62.3652 37.1035 50.1892C31.3351 43.5903 26.2751 35.7041 24.3017 27.1427C22.3283 18.5812 19.9593 9.38511 24.3017 1.14777C31.7399 -12.9547 52.1961 -14.8138 66.4837 -15.0973C70.6651 -15.1829 74.5981 -15.1289 78.6323 -13.9C83.6027 -12.4038 88.1063 -9.70309 91.725 -6.04866C95.3438 -2.39423 97.9605 2.09553 99.3323 7.00393C100.758 12.0274 101.021 17.933 98.4675 22.6729C95.9789 27.2912 91.1075 29.1322 85.9601 28.3175C76.0563 26.751 67.6015 19.2249 61.8791 11.6628C56.8191 4.96935 51.1979 -5.47361 56.5247 -13.5444C61.2259 -20.6699 71.4701 -21.0525 79.0647 -19.4726C91.5675 -16.8754 102.065 -8.97561 110.699 -0.0450706C117.424 6.93641 123.308 15.4303 125.235 24.9865C126.523 31.3829 125.819 38.6974 121.095 43.6623C110.432 54.8525 92.5749 45.832 84.4421 36.3613C80.5919 31.86 76.4243 25.3421 77.4455 19.1934C78.6415 11.9913 87.4827 11.8833 93.2649 12.7386C108.62 14.9892 122.535 24.5454 132.48 35.9111C139.058 43.4283 149.371 59.0342 138.524 67.4201C132.416 72.1464 123.317 72.3175 115.929 72.0564C108.542 71.7953 100.892 69.7562 93.8491 67.6271C89.8897 66.5169 86.0383 65.0664 82.3399 63.2924C80.4999 62.3561 76.9349 60.7132 76.6405 58.368C76.3645 56.1174 79.8605 55.3972 81.4935 55.0821C85.0585 54.3979 88.6971 55.0326 92.1885 55.8158C96.6759 56.7861 101.032 58.265 105.17 60.2225C110.552 62.7928 120.985 68.9055 115.124 75.824C112.783 78.5923 109.172 80.2982 105.809 81.5586C101.186 83.2308 96.3707 84.339 91.4709 84.858C80.8909 86.0779 69.4967 85.4252 59.6343 81.257C49.8547 77.1248 43.1019 69.063 42.8949 58.3815C42.8075 54.0243 43.5849 49.7031 46.1563 46.048C49.4499 41.4117 54.8181 38.5534 60.2231 36.9104C65.3567 35.362 70.3431 34.9524 75.5733 36.2577C78.8255 37.0635 82.1237 38.5084 84.2857 41.1281C87.7541 45.3143 86.6961 51.0624 82.9517 54.704C77.9285 59.5969 70.1959 59.7859 63.8249 57.6973C58.8017 56.0499 54.6249 53.061 50.4021 50.0091C46.5336 47.2539 42.8929 44.2046 39.5139 40.8895C34.8863 36.2847 30.5715 30.7977 28.9339 24.4149C26.3993 14.4445 32.6461 6.09917 41.1147 1.21979C50.6965 -4.28078 62.5599 -6.37387 73.5263 -5.40159C83.4715 -4.50134 94.4379 -0.567221 98.9367 8.85395C99.8889 10.848 101.356 14.341 100.929 16.5737C100.501 18.8063 96.4895 19.549 94.5943 19.5895C88.2141 19.72 81.8753 15.8714 77.0545 12.1444C71.9301 8.18326 66.8517 3.00229 64.5977 -3.11494C62.6427 -8.42645 64.5609 -14.4042 70.8399 -15.6285C75.8999 -16.6053 81.8799 -13.9315 86.2453 -11.7394C92.5657 -8.56149 98.3617 -4.38881 103.762 0.107971C109.407 4.80176 114.639 9.95133 119.402 15.5023C123.4 20.1657 127.222 25.2026 129.826 30.7662C131.229 33.773 133.216 38.6614 130.654 41.6233C127.526 45.2243 119.747 43.7164 116.035 42.2219C110.423 39.9713 104.774 35.3215 102.235 29.8164C101.037 27.1553 100.166 24.3645 99.6405 21.5025C99.0517 18.3156 98.8447 14.0529 101.826 11.8833C104.484 9.95226 108.362 10.4249 111.366 11.1136C115.966 12.1669 120.345 14.2105 124.425 16.5151C133.625 21.7141 142.425 28.8486 148.253 37.6126C152.996 44.7516 155.264 54.0513 147.375 59.9525C140.079 65.408 129.789 65.453 121.155 63.8641C116.891 63.0809 111.955 61.861 108.532 59.0837C107.612 58.341 106.467 57.1887 107.152 55.9553C108.169 54.0828 111.141 54.1278 112.884 54.2809C119.807 54.8795 130.824 56.653 133.372 64.2917C135.346 70.1434 130.612 75.8375 126.123 79.1189C122.997 81.3658 119.503 83.0752 115.791 84.1738C111.191 85.5647 106.665 85.6143 101.954 86.1409C91.6135 87.2932 80.3665 84.7095 72.2613 78.1241C66.9115 73.7759 62.0401 65.5205 69.3127 60.4791C73.5217 57.5488 79.8053 57.3552 84.7779 58.1204C88.5407 58.7011 92.3725 60.1955 94.8979 63.1079C100.418 69.5042 95.3579 77.1113 89.0329 80.5323C83.8441 83.3366 77.5973 84.6645 71.7737 85.4837C65.6805 86.3415 59.4899 86.296 53.4105 85.3487C34.3205 82.2743 15.7319 69.0495 11.1871 49.9641C10.1935 45.7869 9.83934 41.1596 10.7271 36.9104C11.9645 31.0272 15.3685 25.3601 19.0071 20.6203C22.8343 15.6689 27.4481 11.3297 32.3149 7.36403C36.6665 3.82603 41.4551 1.06224 46.9291 -0.459188C53.8015 -2.37223 61.4421 -1.83658 67.1691 2.63769C71.0791 5.68505 74.1105 10.5914 73.8115 15.6194C73.4895 20.9579 68.9631 23.5371 63.8479 23.3661C52.2835 22.9745 43.5343 11.7708 40.6455 1.73293C38.7273 -4.93796 39.1137 -12.7432 43.8655 -18.2302C47.7433 -22.6865 53.6221 -24.8336 59.3859 -25.7564C73.5309 -28.0025 89.1157 -24.307 101.66 -18.0052C107.203 -15.2144 112.76 -11.6179 116.49 -6.63494C118.039 -4.43581 119.357 -2.08924 120.423 0.369045C121.868 3.47943 123.266 7.29651 122.995 10.776C122.572 16.1235 116.518 12.2344 114.356 10.1998C111.035 7.07145 107.401 2.60168 107.663 -2.19668C108.123 -10.6636 119.499 -11.7214 125.861 -9.92088C131.307 -8.37244 135.263 -4.79842 139.081 -0.855303C143.538 3.7405 147.49 8.92597 150.121 14.7461C153.732 22.7134 154.772 32.5262 149.578 40.0928C148.126 42.245 146.203 44.0547 143.95 45.3914C141.696 46.7282 139.167 47.5585 136.545 47.8225C133.923 48.0865 131.274 47.7776 128.789 46.918C126.304 46.0585 124.046 44.6697 122.176 42.8521C121.38 42.1229 119.784 40.777 119.876 39.5482C120.065 37.2975 125.152 38.1573 126.482 38.3733C130.903 39.1471 135.146 40.6931 139.007 42.9376C143.023 45.2378 146.901 48.4022 148.833 52.6469C151.05 57.5218 149.753 62.7253 146.901 67.051C144.569 70.5845 141.34 74.064 137.604 76.1616C131.873 79.3899 125.698 81.7986 119.269 83.3141C113.206 84.7365 106.849 85.3667 100.648 84.6645C95.5879 84.0973 89.8517 82.7289 86.1625 79.0874C80.4907 73.4968 83.9775 65.3495 89.1709 60.7987C94.2769 56.3244 104.461 53.4661 108.739 60.7042C111.72 65.7501 112.879 72.2094 109.917 77.4939C107.079 82.5399 101.55 85.6458 96.2135 87.6308C83.3335 92.4202 67.8591 92.8343 54.5559 89.5079C49.2107 88.1575 43.4055 86.0554 39.6657 81.8872C36.3629 78.2142 33.1705 74.7797 30.9257 70.3234C28.5302 65.4871 27.1239 60.2393 26.7857 54.875C26.0865 44.2925 29.4399 33.3589 36.7999 25.4142C40.4155 21.5026 44.8315 18.3877 50.4343 18.4327C54.7675 18.4687 59.3399 20.4718 61.3455 24.4104C62.3975 26.5924 62.6129 29.0718 61.9527 31.3964C61.4237 33.4129 60.2277 34.4437 58.4705 35.506C56.1583 36.9456 53.4274 37.6034 50.6965 37.3785C44.9833 36.8384 40.2959 32.5937 37.2185 28.1374C29.7435 17.3029 28.7867 1.44035 38.6859 -8.29592C45.4111 -14.9083 55.3241 -17.3885 64.5563 -18.1312C73.0433 -18.8109 81.6821 -17.6046 89.4607 -14.1431C95.563 -11.4366 100.984 -7.45223 105.34 -2.47126C108.385 1.03074 111.228 5.29795 112.13 9.88925C112.636 12.4415 112.286 15.7904 108.859 15.4753C106.375 15.2503 103.854 13.6748 101.904 12.2794C98.3939 9.79472 93.6237 4.57324 96.2871 0.0314503C99.0149 -4.62737 105.253 -3.73162 109.627 -2.36773C114.546 -0.761154 119.115 1.72857 123.101 4.97385C130.3 10.7265 137.361 19.9766 135.061 29.6003C134.923 30.1675 135.815 30.4106 135.948 29.8434C138.451 19.4365 130.649 9.53365 122.728 3.52894C118.28 0.157484 113.142 -2.55228 107.645 -3.85315C105.096 -4.45632 102.796 -4.81193 100.285 -3.92968C98.3893 -3.26799 96.5539 -2.16968 95.5281 -0.42318C91.4525 6.48628 101.292 14.278 107.203 16.0425C110.248 16.9428 112.971 15.8714 113.275 12.554C113.675 8.14725 110.975 3.47493 108.496 0.0134449C104.436 -5.59235 99.1048 -10.202 92.9199 -13.4544C85.0407 -17.5744 76.1777 -19.5545 67.2519 -19.189C57.5459 -18.8604 46.9199 -16.6098 39.4219 -10.2225C27.9219 -0.418676 28.2899 16.8347 36.4043 28.5966C39.5921 33.2194 44.3715 37.5316 50.2549 38.2383C53.0616 38.554 55.8979 37.9847 58.3509 36.6133C59.5285 35.9651 61.2535 34.9974 62.0309 33.8811C63.1855 32.2021 63.4109 29.3033 63.1625 27.3542C62.0677 18.2526 50.7149 15.6779 43.3595 19.0854C38.5065 21.336 34.6195 25.9408 31.8595 30.3386C28.8628 35.188 26.9239 40.5918 26.1647 46.2101C23.7819 63.468 32.7979 83.2736 50.2917 89.2198C57.4861 91.673 65.2831 92.5057 72.8731 92.4427C80.6563 92.3752 88.6097 91.3399 95.9467 88.7111C101.614 86.6811 107.484 83.4941 110.584 78.2187C113.836 72.6866 112.705 66.2768 109.853 60.8302C106.173 53.8172 96.8391 54.5284 91.0293 58.2825C85.4679 61.8835 80.3619 69.1441 82.9517 75.896C86.5995 85.4072 101.214 86.3615 109.82 85.7223C116.703 85.1623 123.453 83.5445 129.821 80.9284C133.013 79.6434 136.103 78.1298 139.067 76.4001C141.082 75.2253 142.784 73.4428 144.353 71.7503C148.41 67.3796 151.846 61.6674 150.719 55.5457C149.799 50.6303 146.202 46.7052 142.177 43.8739C138.005 40.9701 133.284 38.9089 128.289 37.8107C126.045 37.32 121.173 36.1722 119.402 38.3553C117.309 40.9301 122.668 44.5356 124.26 45.6879C130.313 50.0722 139.325 49.7391 145.388 45.5754C152.255 40.849 154.864 32.4136 153.902 24.5004C152.435 12.4865 143.874 1.06674 134.527 -6.41888C128.34 -11.3838 118.082 -13.954 110.961 -9.21418C102.801 -3.81264 108.344 5.68956 113.721 10.8525C115.492 12.5585 120.138 16.0965 122.751 13.8369C124.853 12.0094 123.883 7.98521 123.317 5.73457C121.771 -0.427677 118.413 -6.70246 113.657 -11.0642C108.275 -16.0156 101.508 -19.4546 94.6633 -22.0248C87.0095 -24.9344 78.9397 -26.661 70.7433 -27.1428C58.0059 -27.818 41.7633 -24.442 39.0907 -10.0379C37.2507 -0.0585766 41.9381 10.902 49.3993 17.672C54.6387 22.4298 64.3999 27.2462 71.2171 22.4478C75.2191 19.6345 75.4445 14.305 73.8897 10.1098C71.8151 4.53273 66.8977 0.256516 61.1477 -1.48998C52.5963 -4.08272 42.6235 -1.11187 35.4935 3.76301C30.0057 7.50807 24.8813 12.3605 20.5665 17.3434C16.2517 22.3263 12.7465 27.8809 10.6397 34.0566C7.61294 42.9556 10.1107 53.1375 14.7429 61.0643C19.8995 69.9093 28.0829 76.9268 37.4163 81.32C48.2539 86.4335 60.5175 87.9594 72.3763 86.2714C81.2313 84.9976 94.7093 82.1483 97.7545 72.3445C99.9349 65.3135 94.1941 59.6149 87.6943 57.8009C80.5597 55.8158 67.1599 56.1219 64.8599 64.9714C62.8819 72.6236 71.3367 79.3395 77.2799 82.4814C87.3401 87.7884 98.9413 87.9999 110.014 86.3705C117.962 85.2001 126.348 81.7206 131.404 75.3693C134.89 70.9851 136.142 65.0659 132.19 60.5466C129.702 57.6973 125.985 56.0724 122.383 55.0371C119.816 54.3289 117.192 53.8364 114.54 53.5651C112.111 53.2951 109.94 52.9575 107.787 54.2313C105.634 55.5052 105.634 57.6253 107.401 59.3268C110.4 62.1761 115.17 63.4995 119.14 64.3682C128.34 66.4208 139.578 66.6189 147.55 60.9698C151.156 58.4085 153.589 54.695 153.704 50.2612C153.976 39.9083 144.592 30.4556 137.177 24.2573C132.581 20.3703 127.547 17.01 122.171 14.242C117.93 12.0859 113.284 10.1548 108.482 9.7047C105.262 9.40761 101.632 9.94327 99.7417 12.7881C97.2853 16.4926 98.5687 21.7681 99.7831 25.6482C101.118 30.2089 103.671 34.3388 107.18 37.6126C111.021 41.2136 115.741 43.6713 121.017 44.3645C124.83 44.8507 130.47 44.9722 132.255 40.7995C133.98 36.7709 131.459 31.6889 129.55 28.1959C126.114 21.8627 121.412 16.1595 116.481 10.8885C110.86 4.84815 104.658 -0.64921 97.9615 -5.52763C92.2621 -9.68681 86.0199 -13.5669 79.1935 -15.5745C73.9311 -17.1229 67.6935 -17.3345 64.2389 -12.3426C60.8257 -7.43617 64.0273 -0.990339 67.0633 3.24986C71.4831 9.35504 77.3565 14.3145 84.1753 17.699C88.9271 20.0351 95.7535 22.2002 100.455 18.5992C101.835 17.5324 101.936 16.9968 101.729 15.3178C101.564 13.9453 101.276 12.5897 100.869 11.2666C100.101 8.80631 98.8818 6.50319 97.2715 4.46971C93.9043 0.225002 89.0283 -2.57929 83.8763 -4.26727C72.2797 -8.06185 58.7465 -7.02205 47.4443 -2.73233C37.8487 0.900196 27.7379 8.17426 27.4251 19.1844C27.2457 25.3691 30.2357 31.1893 33.9571 36.0102C36.6738 39.4588 39.7443 42.6262 43.1203 45.4629C47.3799 49.1179 52.0029 52.7414 56.8881 55.5637C63.6225 59.4438 72.2889 61.7035 79.6627 58.1204C84.4605 55.7843 88.1635 50.7474 87.2297 45.3278C86.0521 38.4949 78.5265 35.569 72.3073 34.7588C62.0999 33.4354 48.7691 38.3958 44.0311 47.8395C41.0227 53.8352 41.3447 61.87 43.9483 67.9782C46.0229 72.8441 49.7673 76.7557 54.2983 79.542C64.3401 85.7223 77.2983 86.9646 88.8765 86.0284C94.4078 85.6372 99.8642 84.5479 105.11 82.7875C108.914 81.4596 112.99 79.6366 115.69 76.5982C122.194 69.2341 112.056 62.5542 105.989 59.6104C101.562 57.4835 96.8879 55.8904 92.0689 54.866C88.9041 54.1683 85.6289 53.6192 82.3629 54.0378C80.4585 54.2854 76.9717 54.938 76.0241 56.8601C73.5493 61.8475 85.0585 65.5881 88.0163 66.6729C96.2319 69.6797 105.105 71.9889 113.85 72.8396C121.583 73.5868 131.279 73.2627 137.991 68.9235C150.333 60.9382 141.137 44.8867 134.246 36.5953C123.74 23.9332 107.944 13.0536 90.9557 11.5682C84.9757 11.0551 77.5145 12.3469 76.5025 19.2204C75.5595 25.6437 79.7501 32.3101 83.7751 36.9959C88.8949 42.9511 96.0019 47.9341 103.988 49.1719C110.607 50.1937 117.627 49.0054 122.176 43.8199C126.813 38.5354 127.452 31.1128 126.077 24.5274C123.878 13.9899 117.015 4.74879 109.351 -2.68732C100.174 -11.5864 89.0283 -19.3421 75.8861 -20.9085C68.2823 -21.8088 58.8661 -20.2243 55.0481 -12.8827C50.4481 -4.06472 56.5431 6.44577 62.0217 13.3462C67.8959 20.7418 76.6865 28.2005 86.6593 29.3078C91.9953 29.9019 96.9173 27.6468 99.3691 22.8799C102.01 17.753 101.669 11.4602 100.013 6.09917C98.4152 0.862888 95.4392 -3.87058 91.3832 -7.62703C87.3272 -11.3835 82.3336 -14.031 76.9027 -15.3044C72.6523 -16.3307 68.2409 -16.0921 63.8985 -15.9211C48.5943 -15.3359 26.6799 -12.1535 21.8223 4.90633C20.5251 9.45262 20.6953 14.2735 21.5601 18.8603C22.4249 23.4471 23.3725 28.349 25.1067 32.7557C28.7269 41.9564 35.0611 50.2207 42.4119 56.8916C49.5465 63.3644 58.4199 69.0451 68.2271 70.3954C72.475 71.0452 76.8218 70.6333 80.8633 69.1981C82.9584 68.4164 84.9335 67.3562 86.7329 66.0472C88.7615 64.5843 90.1553 63.3464 90.9603 60.9878C94.2309 51.4135 91.4571 40.5565 85.1643 32.7692C82.0076 28.8138 77.8433 25.7401 73.0893 23.8567C68.0293 21.9032 63.0199 22.1552 57.6977 22.5738C48.0975 23.3256 37.9177 25.7878 35.6177 36.2982C33.7179 44.8507 37.7107 53.1735 43.4653 59.4438C57.8403 75.1038 83.2599 82.3148 103.96 76.7647C112.346 74.5141 122.714 69.9093 125.299 60.9743C127.411 53.6732 123.735 46.093 118.951 40.624C113.491 34.3762 105.657 29.5418 97.2715 28.3175C93.2764 27.6754 89.1785 28.0855 85.3989 29.5058C81.8109 30.9102 79.0095 33.8495 77.0177 37.05C68.7377 50.3602 84.8377 60.8392 95.8455 64.8183C103.583 67.6091 112.051 69.0451 120.299 68.5049C127.199 68.0548 134.683 66.1057 139.458 60.8527C144.592 55.2261 142.439 47.2859 138.451 41.7313C132.894 33.9891 124.32 28.2995 115.837 24.0188C107.691 19.9091 98.3939 16.3936 89.1111 16.209C80.7805 16.0425 72.3211 20.4582 71.3827 29.1727C70.4121 38.1753 76.2863 47.1778 82.9195 52.8404C90.2795 59.1422 99.5347 63.1664 109.337 63.8056C117.815 64.3547 128.795 61.3929 131.703 52.4308C132.816 48.9919 132.112 44.7336 131.174 41.3487C129.918 37.0871 127.997 33.0408 125.479 29.3528C119.795 20.8779 112.222 13.774 103.33 8.57488C95.2153 3.80802 85.5231 0.472574 75.9505 1.75094C68.3605 2.77273 60.4899 6.92291 59.8505 15.1512C59.2387 23.2806 64.6621 31.2613 70.0901 36.9149C75.7113 42.7666 83.5635 48.4427 92.0597 48.9063C97.9845 49.2304 104.351 44.8552 105.542 39.062C106.789 32.9988 103.403 26.8141 99.7279 22.1867C94.4977 15.6104 87.3079 10.4429 79.5523 7.07145C71.1803 3.43442 61.8377 1.87247 52.7573 3.44342C44.1599 4.95134 32.9221 9.59666 29.8999 18.4102C26.9651 26.9626 32.4989 36.0642 38.0603 42.2985C44.6935 49.7301 53.6359 55.9913 63.5535 58.2735C68.5077 59.4123 74.2209 58.8812 78.2367 55.5727C79.9177 54.2113 81.1082 52.3582 81.6331 50.2857C82.1581 48.2131 81.9898 46.0305 81.1531 44.0585C79.0003 38.7244 73.9679 35.326 68.8573 32.9718C65.0531 31.2208 60.8671 30.037 56.6305 30.1765C50.4527 30.3836 44.7119 33.7325 42.4579 39.5077C40.0935 45.5529 42.2555 52.1968 46.5151 56.8781C53.0057 64.0171 63.4385 67.0105 72.7995 68.2168C84.0511 69.6617 96.3377 67.9827 105 60.2541C105.46 59.8624 104.788 59.2233 104.346 59.6149L104.333 59.6284Z"
                fill="#648CFF" />
        </g>
    </g>
    <defs>
        <clipPath id="clip0">
            <rect width="161" height="176" fill="white" />
        </clipPath>
    </defs>
</svg>
