<svg width="192" height="193" viewBox="0 0 192 193" fill="none" xmlns="http://www.w3.org/2000/svg">
<rect width="192" height="193" fill="white"/>
<g clip-path="url(#clip0)">
<ellipse cx="100.8" cy="108.384" rx="84.16" ry="84.585" fill="#FFE6EB"/>
<mask id="mask0" mask-type="alpha" maskUnits="userSpaceOnUse" x="16" y="23" width="169" height="170">
<ellipse cx="100.8" cy="108.384" rx="84.16" ry="84.585" fill="#FFE6EB"/>
</mask>
<g mask="url(#mask0)">
<path d="M70.2759 87.2256C70.6953 87.1167 71.1303 87.0815 71.5617 87.1218C71.5193 83.8314 72.5795 80.6225 74.5717 78.0112C76.5639 75.3999 79.3723 73.538 82.5449 72.7253C86.3198 71.7363 90.3304 72.2843 93.7057 74.2501C97.081 76.2159 99.5482 79.4408 100.571 83.2242C101.063 85.0932 101.181 87.0416 100.918 88.9567C100.656 90.8718 100.018 92.7155 99.0414 94.3811C98.0651 96.0467 96.7698 97.5012 95.2304 98.6604C93.6911 99.8196 91.9384 100.66 90.0736 101.134C86.8867 101.966 83.5152 101.708 80.4899 100.402C77.4647 99.0964 74.9577 96.816 73.3638 93.9204C73.0059 94.1602 72.6093 94.3358 72.1916 94.4394C71.2304 94.6932 70.2083 94.5546 69.3483 94.0539C68.4883 93.5532 67.8602 92.731 67.6011 91.7666C67.4779 91.2919 67.4495 90.7974 67.5175 90.3115C67.5854 89.8257 67.7485 89.3582 67.9972 88.936C68.2458 88.5138 68.5752 88.1453 68.9663 87.8518C69.3574 87.5582 69.8025 87.3454 70.2759 87.2256Z" fill="#648CFF"/>
<path d="M82.5442 72.7253C86.3191 71.7363 90.3298 72.2843 93.7051 74.2501C97.0803 76.2159 99.5475 79.4408 100.571 83.2242C100.721 83.791 100.836 84.3664 100.917 84.9472C87.2277 87.5421 78.3978 74.604 78.3564 74.5677C79.6495 73.7402 81.0621 73.1187 82.5442 72.7253V72.7253Z" fill="black"/>
<path d="M71.557 87.122C71.5228 84.6144 72.1302 82.14 73.321 79.9362C74.5119 77.7324 76.2462 75.8731 78.3577 74.5367C80.7949 82.8975 77.2836 87.2258 74.6036 89.2031C74.315 88.6236 73.8834 88.128 73.3501 87.7637C72.8167 87.3994 72.1994 87.1784 71.557 87.122Z" fill="black"/>
<path d="M72.0125 75.2656C72.4536 71.9473 70.1073 68.8942 66.7717 68.4463C63.4362 67.9984 60.3746 70.3253 59.9335 73.6436C59.4924 76.9619 61.8388 80.0149 65.1743 80.4628C68.5098 80.9107 71.5714 78.5838 72.0125 75.2656Z" fill="black"/>
<path d="M96.6503 64.1976C97.0833 60.8833 94.7336 57.8401 91.4021 57.4005C88.0706 56.9608 85.0188 59.2911 84.5858 62.6054C84.1528 65.9197 86.5025 68.9629 89.834 69.4026C93.1655 69.8422 96.2173 67.5119 96.6503 64.1976Z" fill="black"/>
<path d="M170.314 121.931L150.523 115.086C148.822 114.497 147.003 114.333 145.224 114.608C143.445 114.884 141.76 115.591 140.313 116.668C138.867 117.745 137.704 119.16 136.924 120.79C136.144 122.421 135.771 124.217 135.837 126.025L136.148 133.774L125.919 121.3L121.885 115.804C119.883 113.237 117.373 111.115 114.514 109.571C111.656 108.027 108.51 107.094 105.275 106.832L62.0299 105.37C60.8814 105.318 59.7307 105.392 58.5981 105.59C55.9612 106.043 53.4791 107.153 51.3783 108.817C49.2774 110.482 47.6244 112.648 46.5702 115.12L45.4725 113.897L44.15 112.401L33.2661 100.326C31.8332 98.7406 30.003 97.5708 27.9667 96.9389C25.9304 96.3071 23.7626 96.2363 21.6898 96.7341C19.617 97.2318 17.7152 98.2798 16.183 99.7685C14.6507 101.257 13.5443 103.132 12.9793 105.197C9.08463 119.526 4.54854 136.306 3.93359 138.566C2.52907 142.634 2.55729 147.064 4.01353 151.114C5.46978 155.164 8.2657 158.589 11.9335 160.815C15.6014 163.041 19.9186 163.934 24.1629 163.343C28.4072 162.753 32.3211 160.716 35.2498 157.573L48.3291 144.76L37.4252 176.148L131.199 214.195L130.084 171.801C135.963 175.058 142.046 176.34 147.396 173.257C155.535 168.565 168.02 150.774 175.968 138.539C176.886 137.122 177.471 135.513 177.679 133.834C177.886 132.156 177.711 130.452 177.166 128.851C176.621 127.251 175.721 125.796 174.534 124.597C173.347 123.398 171.904 122.487 170.314 121.931Z" fill="#FF0828"/>
<path d="M68.3923 74.2678C67.6715 74.5602 66.9442 74.8393 66.2168 75.1184C65.6316 74.9708 65.0265 74.9192 64.4248 74.9656C56.49 75.484 46.9087 74.5868 41.6386 81.8174C41.4931 82.0234 41.3543 82.2361 41.2154 82.4819C41.2154 82.4819 34.6031 90.942 29.6504 97.6409C31.0069 98.3142 32.2232 99.2412 33.2343 100.372L47.9799 116.741C49.4103 114.567 50.3284 112.094 50.6645 109.51C54.0957 107.22 57.3256 104.639 60.3186 101.795C65.2646 97.0628 57.8323 89.4733 52.8995 94.1918C52.3573 94.7168 51.7952 95.2285 51.2265 95.727C55.9412 89.0413 65.5754 86.9014 72.8358 83.9772C79.2101 81.3787 74.7203 71.7357 68.3923 74.2678Z" fill="#648CFF"/>
<path fill-rule="evenodd" clip-rule="evenodd" d="M68.8701 76.7583C69.1776 76.5604 69.5866 76.6505 69.7835 76.9596C70.8544 78.6405 71.1304 80.8351 70.4888 82.6757C69.8322 84.5591 68.221 86.0411 65.6463 86.2086C65.6461 86.2086 65.6465 86.2086 65.6463 86.2086L57.2889 86.7668C56.8817 86.7937 56.4876 86.812 56.1062 86.8296C55.0009 86.8807 53.9991 86.9271 53.074 87.1667C51.9027 87.4702 50.9315 88.0734 50.2442 89.4405L50.2433 89.4422C49.4934 90.9235 48.8132 92.4611 48.1701 94.0441C48.032 94.3839 47.646 94.5469 47.3079 94.4081C46.9698 94.2694 46.8077 93.8814 46.9457 93.5416C47.5985 91.9349 48.2936 90.3626 49.0642 88.8403C49.9506 87.0778 51.2672 86.2623 52.7439 85.8797C53.8141 85.6024 55.0131 85.5475 56.1552 85.4953C56.5114 85.479 56.862 85.463 57.2015 85.4405C57.2015 85.4405 57.2015 85.4406 57.2015 85.4405L65.5604 84.8823C67.5875 84.7505 68.7534 83.6341 69.2407 82.2362C69.743 80.7955 69.5296 79.0259 68.6698 77.6764C68.4728 77.3673 68.5625 76.9562 68.8701 76.7583Z" fill="black"/>
</g>
<path d="M83.1086 98.1058C82.3732 101.454 81.7595 121.116 81.7595 121.116L103.912 119.19L88.9333 97.2677L83.1086 98.1058Z" fill="#648CFF"/>
<path d="M179.41 72.8928C178.53 72.1985 177.417 71.874 176.303 71.9873C175.381 72.106 174.517 72.5042 173.826 73.1289C173.581 73.0766 173.331 73.0533 173.081 73.0593C172.451 73.0809 171.833 73.2355 171.267 73.5131C170.701 73.7906 170.199 74.185 169.795 74.6703C169.44 75.1005 169.177 75.5989 169.021 76.1349C168.865 76.6709 168.82 77.2333 168.888 77.7875C169.064 78.9146 169.632 79.9423 170.491 80.6884L170.652 80.868C170.133 80.8552 169.616 80.9487 169.134 81.1428C168.07 81.5673 167.216 82.3977 166.759 83.4528C166.539 83.9586 166.42 84.5031 166.409 85.055C166.398 85.607 166.496 86.1556 166.697 86.6693C167.445 88.195 168.183 89.7284 168.914 91.2695C169.159 91.7713 169.394 92.2726 169.639 92.7745C167.25 96.784 164.355 98.9046 162.868 100.246L159.03 103.708C155.297 106.761 153.591 103.146 153.591 103.146C153.074 101.986 152.47 100.867 151.783 99.7994C150.73 98.1545 146.722 94.8454 146.281 94.4649C145.869 94.0833 145.375 93.8027 144.837 93.6449C144.299 93.487 143.732 93.4562 143.18 93.5548C142.048 93.7026 141.014 94.2774 140.288 95.1626C139.612 96.0449 139.298 97.1542 139.411 98.2619C139.572 99.3945 140.142 100.428 141.014 101.163C141.627 101.704 144.322 103.833 145.274 106.098C146.382 108.723 147.229 114.383 147.347 116.685C147.466 118.988 147.336 121.395 147.331 123.745L147.326 125.362C147.499 126.49 148.068 127.519 148.93 128.263C149.809 128.955 150.919 129.281 152.031 129.173C152.907 129.056 153.732 128.688 154.407 128.114L162.95 131.233L168.902 130.582L184.463 102.946C185.58 101.422 186.292 99.6379 186.531 97.7611C186.637 96.2687 186.614 94.77 186.462 93.2818L186.159 87.9934C186.095 86.8368 186.046 85.6762 185.963 84.5186C185.832 83.3481 185.245 82.2777 184.329 81.5428L184.047 81.2881C183.62 80.9133 183.193 80.5384 182.766 80.1538L181.304 78.8681L180.984 75.7921C180.849 74.6583 180.285 73.6202 179.41 72.8928V72.8928Z" fill="#648CFF"/>
<path fill-rule="evenodd" clip-rule="evenodd" d="M181.431 79.6436C181.809 79.6169 182.137 79.9034 182.164 80.2835L182.547 85.8042L181.944 97.243C181.924 97.6236 181.601 97.9159 181.222 97.896C180.843 97.876 180.553 97.5514 180.573 97.1708L181.171 85.8165L180.794 80.3803C180.767 80.0001 181.053 79.6703 181.431 79.6436Z" fill="black"/>
<path d="M170.477 121.938L150.702 115.121C149.002 114.534 147.185 114.37 145.407 114.645C143.63 114.919 141.946 115.623 140.501 116.696C139.056 117.769 137.894 119.178 137.114 120.802C136.335 122.426 135.962 124.215 136.028 126.016L136.339 133.733L126.118 121.309L122.088 115.836C120.087 113.279 117.579 111.165 114.723 109.628C111.866 108.09 108.723 107.161 105.491 106.9L62.2814 105.444C61.1338 105.392 59.9841 105.465 58.8523 105.662C56.2176 106.114 53.7376 107.219 51.6384 108.877C49.5393 110.535 47.8877 112.693 46.8343 115.154L45.7375 113.936L44.4161 112.447L33.5411 100.42C32.1093 98.841 30.2807 97.676 28.246 97.0467C26.2114 96.4174 24.0454 96.3469 21.9743 96.8426C19.9031 97.3383 18.0029 98.3821 16.4719 99.8648C14.9409 101.348 13.8354 103.215 13.2709 105.272C9.37938 119.542 4.847 136.255 4.23255 138.505C2.82918 142.557 2.85737 146.969 4.31243 151.003C5.76748 155.037 8.56112 158.447 12.2259 160.665C15.8908 162.882 20.2045 163.771 24.4453 163.183C28.6861 162.595 32.5968 160.566 35.5231 157.436L48.5917 144.674L62.2814 135.308L130.122 177.564L130.28 171.607C136.154 174.85 142.232 176.127 147.577 173.056C155.71 168.383 168.184 150.664 176.126 138.479C177.043 137.067 177.628 135.465 177.836 133.793C178.043 132.121 177.868 130.424 177.324 128.83C176.779 127.236 175.88 125.787 174.694 124.593C173.507 123.399 172.065 122.491 170.477 121.938Z" fill="#FF0828"/>
<path fill-rule="evenodd" clip-rule="evenodd" d="M49.2361 117.87C49.5271 117.654 49.9334 117.722 50.1435 118.021C51.9756 120.631 52.7757 123.858 52.3821 127.052C51.9886 130.245 50.4307 133.165 48.0235 135.222L36.2651 145.249C35.9887 145.485 35.579 145.445 35.3498 145.161C35.1207 144.877 35.159 144.456 35.4353 144.22L47.1927 134.194C47.1928 134.194 47.1926 134.194 47.1927 134.194C49.3463 132.354 50.7404 129.74 51.0925 126.884C51.4446 124.026 50.7287 121.139 49.0895 118.804C48.8794 118.504 48.945 118.086 49.2361 117.87Z" fill="black"/>
<path d="M134.4 20.8516C133.396 20.8516 132.432 21.2526 131.722 21.9663C131.012 22.68 130.613 23.648 130.613 24.6574V39.8805C130.613 40.8899 131.012 41.8579 131.722 42.5716C132.432 43.2854 133.396 43.6863 134.4 43.6863C135.404 43.6863 136.367 43.2854 137.077 42.5716C137.788 41.8579 138.187 40.8899 138.187 39.8805V24.6574C138.187 23.648 137.788 22.68 137.077 21.9663C136.367 21.2526 135.404 20.8516 134.4 20.8516ZM137.884 53.6575C137.801 53.415 137.686 53.1846 137.543 52.9725L137.088 52.4016C136.556 51.8735 135.88 51.5158 135.145 51.3735C134.411 51.2313 133.651 51.3109 132.961 51.6024C132.502 51.7951 132.079 52.0654 131.711 52.4016C131.36 52.7572 131.083 53.1789 130.894 53.6426C130.706 54.1063 130.61 54.6028 130.613 55.1037C130.619 55.601 130.722 56.0924 130.916 56.5499C131.086 57.0222 131.358 57.4511 131.711 57.8063C132.064 58.1614 132.491 58.4341 132.961 58.605C133.414 58.8064 133.904 58.9104 134.4 58.9104C134.895 58.9104 135.386 58.8064 135.839 58.605C136.309 58.4341 136.735 58.1614 137.089 57.8063C137.442 57.4511 137.714 57.0222 137.884 56.5499C138.078 56.0924 138.181 55.601 138.187 55.1037C138.205 54.8503 138.205 54.5959 138.187 54.3425C138.121 54.0999 138.019 53.8688 137.884 53.6575ZM134.4 1.82263C126.911 1.82263 119.589 4.05469 113.362 8.23655C107.135 12.4184 102.282 18.3622 99.4156 25.3164C96.5496 32.2706 95.7997 39.9228 97.2608 47.3053C98.7219 54.6878 102.328 61.469 107.624 66.7915C112.92 72.114 119.667 75.7387 127.012 77.2072C134.358 78.6756 141.972 77.922 148.891 75.0415C155.81 72.1609 161.724 67.283 165.885 61.0244C170.046 54.7658 172.267 47.4077 172.267 39.8805C172.267 34.8827 171.287 29.9338 169.384 25.3164C167.481 20.699 164.692 16.5035 161.176 12.9695C157.659 9.43553 153.485 6.63221 148.891 4.71962C144.297 2.80703 139.373 1.82263 134.4 1.82263ZM134.4 70.3269C128.408 70.3269 122.552 68.5412 117.57 65.1957C112.588 61.8502 108.705 57.0952 106.412 51.5318C104.12 45.9685 103.52 39.8468 104.689 33.9408C105.858 28.0347 108.743 22.6097 112.979 18.3517C117.216 14.0937 122.614 11.194 128.49 10.0192C134.366 8.84445 140.457 9.44739 145.993 11.7518C151.528 14.0562 156.259 17.9586 159.588 22.9655C162.917 27.9723 164.693 33.8588 164.693 39.8805C164.693 47.9554 161.502 55.6995 155.821 61.4093C150.139 67.1191 142.434 70.3269 134.4 70.3269Z" fill="#FF2048"/>
</g>
<defs>
<clipPath id="clip0">
<rect width="192" height="192.97" fill="white"/>
</clipPath>
</defs>
</svg>
