<svg width="156" height="170" viewBox="0 0 152 166" fill="none" xmlns="http://www.w3.org/2000/svg">
<rect width="156" height="170" fill="white"/>
<g clip-path="url(#clip0)">
<path d="M80.5732 85.5941L89.0027 151.379L100.563 151.107L100.837 82.1298L80.5732 85.5941Z" fill="#648CFF"/>
<path d="M84.833 159.551C84.9415 158.929 84.9808 158.297 84.9503 157.666L84.6115 150.355C84.5768 149.6 84.5725 148.84 84.6115 148.084L84.681 145.537C84.6859 145.359 84.7413 145.187 84.841 145.038C84.9406 144.89 85.0806 144.771 85.2453 144.696C85.4099 144.622 85.5926 144.593 85.7729 144.614C85.9533 144.635 86.1241 144.704 86.2662 144.815L87.7862 146.373C88.2967 146.899 88.9193 147.308 89.6098 147.572C90.3003 147.836 91.0417 147.949 91.7816 147.901L100.107 147.371C99.8976 147.201 99.7391 146.979 99.6482 146.728C99.5572 146.478 99.5371 146.208 99.5901 145.947C99.643 145.686 99.7669 145.444 99.9488 145.246C100.131 145.048 100.364 144.902 100.624 144.823L103.52 143.974C103.666 143.933 103.819 143.924 103.969 143.947C104.118 143.971 104.261 144.027 104.385 144.111C104.51 144.195 104.614 144.305 104.69 144.434C104.766 144.562 104.811 144.705 104.823 144.853V144.853C104.876 145.552 105.081 146.232 105.424 146.848C105.767 147.464 106.24 148.001 106.812 148.424C111.081 151.574 121.469 159.356 122.447 161.16C123.016 162.107 123.244 163.213 123.094 164.302C123.012 164.763 122.767 165.18 122.4 165.48C122.033 165.78 121.57 165.943 121.092 165.941H83.5215L84.833 159.551Z" fill="#FED4FF"/>
<path fill-rule="evenodd" clip-rule="evenodd" d="M84.8856 158.494C84.9528 158.269 85.1939 158.139 85.4242 158.205C85.4189 158.204 85.4213 158.204 85.4354 158.207C85.4512 158.21 85.4814 158.216 85.5321 158.225C85.6139 158.239 85.729 158.259 85.8761 158.283C86.1698 158.332 86.5864 158.4 87.1086 158.484C88.1529 158.651 89.6166 158.882 91.3591 159.156C94.8438 159.702 99.4415 160.417 104.023 161.128C108.605 161.838 113.17 162.544 116.59 163.072C118.3 163.336 119.724 163.555 120.72 163.709L122.284 163.95C122.284 163.95 122.284 163.95 122.217 164.37C122.149 164.789 122.149 164.789 122.149 164.789L120.584 164.548C119.588 164.394 118.165 164.174 116.455 163.91C113.034 163.382 108.469 162.677 103.887 161.966C99.3053 161.256 94.707 160.541 91.2215 159.994C89.4788 159.721 88.0138 159.489 86.9681 159.322C86.4453 159.238 86.0265 159.17 85.73 159.12C85.5818 159.096 85.463 159.075 85.3766 159.06C85.3045 159.047 85.2246 159.033 85.181 159.02C84.9507 158.955 84.8185 158.719 84.8856 158.494ZM122.646 164.436C122.609 164.667 122.386 164.825 122.149 164.789L122.217 164.37L122.284 163.95C122.521 163.987 122.683 164.204 122.646 164.436Z" fill="black"/>
<path fill-rule="evenodd" clip-rule="evenodd" d="M113.827 152.976C114.066 152.995 114.244 153.201 114.224 153.434L113.677 159.909C113.657 160.142 113.447 160.316 113.208 160.297C112.969 160.277 112.791 160.072 112.811 159.839L113.358 153.364C113.378 153.131 113.588 152.957 113.827 152.976Z" fill="black"/>
<path fill-rule="evenodd" clip-rule="evenodd" d="M117.787 156.052C117.835 156.282 117.683 156.507 117.448 156.554L110.357 157.976C110.122 158.023 109.892 157.875 109.844 157.645C109.796 157.416 109.947 157.191 110.182 157.144L117.274 155.722C117.509 155.675 117.738 155.823 117.787 156.052Z" fill="black"/>
<path fill-rule="evenodd" clip-rule="evenodd" d="M109.375 149.605C109.614 149.624 109.792 149.829 109.773 150.063L109.247 156.334C109.227 156.567 109.018 156.741 108.779 156.722C108.54 156.703 108.362 156.498 108.381 156.264L108.907 149.994C108.926 149.76 109.136 149.586 109.375 149.605Z" fill="black"/>
<path fill-rule="evenodd" clip-rule="evenodd" d="M113.175 152.516C113.223 152.746 113.071 152.97 112.836 153.017L105.927 154.401C105.692 154.448 105.462 154.3 105.414 154.07C105.366 153.841 105.518 153.616 105.752 153.569L112.662 152.185C112.897 152.138 113.126 152.286 113.175 152.516Z" fill="black"/>
<path d="M76.3479 84.9614L70.0421 150.644L57.9777 150.478L55.0332 83.0085L76.3479 84.9614Z" fill="#648CFF"/>
<path d="M74.4804 159.551C74.3705 158.929 74.3298 158.297 74.3588 157.666L74.6976 150.355C74.7323 149.6 74.741 148.84 74.7193 148.084L74.6455 145.537C74.6405 145.359 74.5852 145.187 74.4855 145.038C74.3858 144.89 74.2458 144.771 74.0812 144.696C73.9166 144.622 73.7339 144.593 73.5535 144.614C73.3732 144.635 73.2024 144.704 73.0603 144.815L71.5447 146.373C71.0341 146.899 70.4115 147.308 69.721 147.572C69.0306 147.836 68.2891 147.949 67.5492 147.901L59.2196 147.371C59.4289 147.201 59.5876 146.979 59.6788 146.729C59.7701 146.479 59.7905 146.209 59.7381 145.948C59.6856 145.687 59.5622 145.445 59.3807 145.247C59.1993 145.049 58.9666 144.903 58.7072 144.823L55.8061 143.974C55.6606 143.933 55.5075 143.924 55.3578 143.947C55.2082 143.971 55.0658 144.027 54.941 144.111C54.8163 144.195 54.7122 144.305 54.6365 144.434C54.5608 144.562 54.5153 144.705 54.5033 144.853V144.853C54.4511 145.552 54.2471 146.232 53.9048 146.848C53.5626 147.463 53.09 148.001 52.5186 148.424C48.2452 151.574 37.8614 159.356 36.8843 161.16C36.3175 162.108 36.0913 163.214 36.2416 164.302C36.3218 164.762 36.5668 165.18 36.9327 165.48C37.2986 165.78 37.7616 165.943 38.2393 165.941H75.818L74.4804 159.551Z" fill="#FED4FF"/>
<path fill-rule="evenodd" clip-rule="evenodd" d="M74.4279 158.495C74.4946 158.72 74.3618 158.955 74.1314 159.021C74.0881 159.033 74.0088 159.047 73.9363 159.06C73.8497 159.075 73.7308 159.096 73.5826 159.12C73.2858 159.17 72.8669 159.238 72.344 159.322C71.2979 159.489 69.8328 159.721 68.09 159.994C64.6042 160.541 60.0061 161.256 55.4246 161.966C50.843 162.677 46.2779 163.382 42.8582 163.91C41.1483 164.174 39.7248 164.394 38.7287 164.548L37.1645 164.789C37.1642 164.789 37.1641 164.789 37.0964 164.37C37.0288 163.95 37.029 163.95 37.0292 163.95L38.5934 163.709C39.5894 163.555 41.0128 163.336 42.7226 163.072C46.1423 162.544 50.7072 161.838 55.2885 161.128C59.8699 160.417 64.4674 159.702 67.9524 159.156C69.6949 158.882 71.1589 158.651 72.2034 158.484C72.7258 158.4 73.1426 158.332 73.4366 158.283C73.5837 158.259 73.699 158.239 73.781 158.225C73.8325 158.215 73.8632 158.21 73.8789 158.207C73.8924 158.204 73.8949 158.204 73.8901 158.205C74.1205 158.14 74.3613 158.27 74.4279 158.495ZM36.6675 164.436C36.6301 164.204 36.7923 163.987 37.0292 163.95L37.0964 164.37L37.1645 164.789C36.9276 164.825 36.7048 164.667 36.6675 164.436Z" fill="black"/>
<path fill-rule="evenodd" clip-rule="evenodd" d="M74.3831 158.435C74.3832 158.435 74.3833 158.435 73.9888 158.613L74.3833 158.435C74.4836 158.648 74.3882 158.901 74.1703 158.999C73.9525 159.096 73.6947 159.003 73.5944 158.79L73.5942 158.79M61.0701 155.363C55.8372 159.131 51.1613 162.147 44.7651 163.616C44.5316 163.669 44.2979 163.528 44.243 163.299C44.1882 163.071 44.333 162.843 44.5665 162.789C50.782 161.362 55.3391 158.435 60.555 154.679L60.5552 154.679C62.7611 153.092 64.7502 152.503 66.5045 152.554C68.2562 152.604 69.7209 153.292 70.8834 154.166C72.0436 155.037 72.9164 156.105 73.4969 156.946C73.788 157.368 74.008 157.737 74.1558 158.002C74.2297 158.134 74.2857 158.241 74.3237 158.315C74.3426 158.352 74.3571 158.381 74.3671 158.402L74.3786 158.425L74.3818 158.432L74.3828 158.434L74.3831 158.435M73.5942 158.79L73.5941 158.79L73.5923 158.786L73.5836 158.768C73.5757 158.752 73.5633 158.727 73.5465 158.694C73.513 158.629 73.4619 158.531 73.3934 158.409C73.2564 158.163 73.0504 157.818 72.7767 157.421C72.2275 156.625 71.4152 155.636 70.354 154.839C69.2953 154.043 68.0022 153.447 66.4788 153.402C64.9581 153.358 63.1549 153.863 61.0701 155.363" fill="black"/>
<path fill-rule="evenodd" clip-rule="evenodd" d="M45.4864 152.976C45.7255 152.957 45.9353 153.131 45.955 153.364L46.5022 159.839C46.522 160.072 46.3442 160.277 46.1052 160.297C45.8661 160.316 45.6563 160.142 45.6366 159.909L45.0894 153.434C45.0696 153.201 45.2474 152.995 45.4864 152.976Z" fill="black"/>
<path fill-rule="evenodd" clip-rule="evenodd" d="M41.5265 156.052C41.5747 155.823 41.8043 155.675 42.0392 155.722L49.1311 157.144C49.3661 157.191 49.5175 157.416 49.4693 157.645C49.4211 157.875 49.1915 158.023 48.9566 157.976L41.8647 156.554C41.6297 156.507 41.4783 156.282 41.5265 156.052Z" fill="black"/>
<path fill-rule="evenodd" clip-rule="evenodd" d="M49.9327 149.605C50.1718 149.586 50.3816 149.76 50.4013 149.993L50.9311 156.264C50.9509 156.498 50.7731 156.703 50.5341 156.722C50.295 156.741 50.0853 156.568 50.0655 156.334L49.5357 150.063C49.5159 149.83 49.6937 149.625 49.9327 149.605Z" fill="black"/>
<path fill-rule="evenodd" clip-rule="evenodd" d="M46.1388 152.516C46.187 152.286 46.4165 152.138 46.6514 152.185L53.5609 153.569C53.7959 153.616 53.9473 153.841 53.8992 154.07C53.851 154.3 53.6215 154.448 53.3866 154.401L46.4771 153.017C46.2421 152.97 46.0907 152.746 46.1388 152.516Z" fill="black"/>
<path d="M100.368 55.748L79.0054 56.181L57.8036 55.748L51.7627 87.1182L53.4217 87.1351L56.0404 83.2675L57.0132 87.1733L79.6569 87.3899L102.969 87.1606L100.368 55.748Z" fill="#00CD73"/>
<path fill-rule="evenodd" clip-rule="evenodd" d="M79.7295 67.9801C79.969 67.9933 80.1521 68.1938 80.1385 68.4279L79.0398 87.3885C79.0262 87.6226 78.8211 87.8016 78.5816 87.7883C78.3421 87.7751 78.159 87.5745 78.1726 87.3404L79.2713 68.3799C79.2849 68.1458 79.49 67.9668 79.7295 67.9801Z" fill="black"/>
<path fill-rule="evenodd" clip-rule="evenodd" d="M82.5948 68.3986C82.6075 68.3587 82.6143 68.3163 82.6143 68.2723C82.6143 68.0378 82.4199 67.8478 82.18 67.8478L82.18 68.2723C82.18 67.8478 82.1683 67.8479 82.1566 67.8484C82.1527 67.8486 82.1411 67.8495 82.1333 67.8502C82.1178 67.8519 82.1026 67.8543 82.0878 67.8575C82.0581 67.8638 82.0306 67.8728 82.0058 67.8834C81.9563 67.9046 81.9184 67.9315 81.891 67.9554C81.8392 68.0004 81.8104 68.0471 81.797 68.0713C81.7701 68.1196 81.7581 68.1636 81.7533 68.1821C81.7419 68.2259 81.7341 68.2782 81.7272 68.3399C81.7129 68.469 81.6956 68.7084 81.6787 69.1644C81.6448 70.0799 81.6111 71.9011 81.6111 75.5322C81.6111 75.9256 81.4744 76.2009 81.2762 76.4081C81.0688 76.625 80.7769 76.784 80.4533 76.8968C80.1322 77.0088 79.805 77.0665 79.5537 77.0957C79.4292 77.1102 79.3261 77.1173 79.2552 77.1209C79.2199 77.1226 79.1927 77.1235 79.1752 77.1239C79.1664 77.1241 79.1601 77.1242 79.1563 77.1242L79.153 77.1243M79.153 77.5488C79.153 77.9734 79.1532 77.9734 79.1534 77.9734L79.1548 77.9734L79.1576 77.9733L79.1663 77.9733C79.1735 77.9732 79.1834 77.973 79.1958 77.9727C79.2207 77.9722 79.2557 77.971 79.2994 77.9689C79.3868 77.9645 79.5096 77.9559 79.6562 77.9389C79.9473 77.9051 80.3431 77.8368 80.7451 77.6966C81.1446 77.5573 81.5758 77.3383 81.9107 76.988C82.2549 76.628 82.4797 76.1471 82.4797 75.5322C82.4797 71.9034 82.5134 70.0947 82.5467 69.1952C82.5635 68.7438 82.5799 68.5294 82.5907 68.4317C82.5924 68.4171 82.5937 68.4063 82.5948 68.3986M79.153 77.1243C79.1529 77.1243 79.1526 77.1243 79.1525 77.1243C79.1525 77.1243 79.1525 77.1243 79.1525 77.1243C78.9129 77.1246 78.7188 77.3145 78.7188 77.5488C78.7188 77.7833 78.9135 77.9734 79.1534 77.9734L79.153 77.5488" fill="black"/>
<path d="M151.96 17.0967C151.838 16.4152 151.451 15.8065 150.879 15.3985C150.395 15.0718 149.821 14.897 149.233 14.8975C149.14 14.7724 149.032 14.6584 148.912 14.5578C148.607 14.3076 148.251 14.1231 147.868 14.0163C147.484 13.9095 147.083 13.8828 146.688 13.938C146.341 13.9885 146.007 14.108 145.708 14.2891C145.41 14.4701 145.152 14.709 144.951 14.9909C144.56 15.5801 144.396 16.2855 144.486 16.982V17.1306C144.248 16.9103 143.965 16.7399 143.657 16.6297C142.978 16.3843 142.227 16.4118 141.568 16.7061C141.252 16.8467 140.967 17.0469 140.73 17.2954C140.493 17.5438 140.308 17.8355 140.187 18.1538C139.897 19.1614 139.601 20.169 139.297 21.1766C139.201 21.5078 139.101 21.8347 139.006 22.1658C136.196 23.0149 133.942 22.7899 132.678 22.7899H129.417C126.377 22.6456 127.093 20.2851 127.093 20.2851C127.338 19.5401 127.524 18.7779 127.649 18.0052C127.845 16.8165 127.35 13.6451 127.302 13.2884C127.268 12.9434 127.153 12.6106 126.967 12.316C126.78 12.0215 126.526 11.7731 126.225 11.5902C125.63 11.1902 124.902 11.0263 124.188 11.1317C123.499 11.2563 122.885 11.6347 122.472 12.1888C122.072 12.7739 121.906 13.483 122.008 14.18C122.069 14.681 122.442 16.7698 121.938 18.2005C121.356 19.8605 119.376 22.8026 118.464 23.9065C117.552 25.0103 116.479 26.059 115.489 27.1331L114.807 27.8718C114.415 28.4601 114.25 29.1663 114.343 29.863C114.465 30.5431 114.851 31.1512 115.42 31.5612C115.881 31.8696 116.424 32.0419 116.983 32.0579L119.693 37.0167L122.768 39.1776L141.707 32.9495C142.873 32.7132 143.958 32.1901 144.86 31.4296C145.537 30.7897 146.156 30.0937 146.71 29.3492L148.79 26.8019C149.246 26.2458 149.711 25.6939 150.158 25.1292C150.589 24.5392 150.762 23.8062 150.64 23.0913L150.614 22.8578C150.571 22.5097 150.527 22.1616 150.488 21.8092L150.341 20.6162L151.483 19.0751C151.896 18.5 152.067 17.7916 151.96 17.0967V17.0967Z" fill="#648CFF"/>
<path fill-rule="evenodd" clip-rule="evenodd" d="M150.078 21.0243C150.267 21.1683 150.301 21.4351 150.154 21.6201L148.014 24.3068L142.922 29.2968C142.753 29.4628 142.478 29.4631 142.308 29.2976C142.138 29.132 142.138 28.8632 142.307 28.6971L147.361 23.7441L149.468 21.0984C149.616 20.9134 149.889 20.8802 150.078 21.0243Z" fill="black"/>
<path d="M37.783 27.2945C37.7285 26.9501 37.5782 26.627 37.3487 26.3605C37.1185 26.1142 36.8883 25.8722 36.6538 25.6302C35.6463 24.5689 34.591 23.5499 33.6138 22.4461C32.6367 21.3423 30.639 18.4468 30.031 16.7953C29.5098 15.3731 29.8442 13.28 29.8963 12.7748C29.9854 12.0769 29.8092 11.3714 29.4013 10.7921C28.979 10.2439 28.3568 9.87588 27.6641 9.76472C26.9497 9.6672 26.2241 9.84035 25.636 10.2487C25.3399 10.4346 25.0912 10.6843 24.909 10.9787C24.7269 11.273 24.616 11.6042 24.585 11.9469C24.5459 12.3078 24.0986 15.4877 24.3114 16.6679C24.4493 17.4386 24.6468 18.1979 24.902 18.9393V18.9393C24.902 18.9393 25.6707 21.2871 22.6177 21.4866L19.3562 21.5376C18.0925 21.5376 15.8428 21.8093 13.02 21.0111C12.9158 20.6842 12.8159 20.3573 12.7117 20.0262L11.7736 17.0203C11.5185 16.3805 11.014 15.8658 10.3709 15.5896C10.0424 15.4491 9.68876 15.3734 9.33029 15.3668C8.97182 15.3603 8.61555 15.423 8.28194 15.5514C7.97361 15.6632 7.69257 15.8367 7.45679 16.0608V15.9122C7.53507 15.2144 7.35815 14.5121 6.95736 13.9296C6.75451 13.6518 6.49582 13.4175 6.19713 13.2408C5.89844 13.0642 5.56603 12.9489 5.22022 12.9022C4.83133 12.8583 4.43737 12.8925 4.06249 13.0028C3.68761 13.113 3.3397 13.2969 3.04011 13.5432C2.9231 13.6489 2.81692 13.7655 2.72308 13.8914C2.13341 13.9051 1.56213 14.0947 1.08582 14.4348C0.525999 14.8484 0.149831 15.4563 0.0348496 16.133C-0.0690002 16.8316 0.108484 17.5424 0.529936 18.1157C0.529936 18.1157 1.08148 18.8332 1.69816 19.6398L1.57222 20.8031C1.53748 21.1512 1.49839 21.5036 1.46365 21.8517L1.43759 22.0852C1.32941 22.8018 1.51515 23.5312 1.95439 24.1146C2.41039 24.6708 2.88376 25.2184 3.34845 25.7661L5.46776 28.2879C6.03314 29.0256 6.66384 29.7132 7.35256 30.3428C8.26139 31.1008 9.35479 31.617 10.5272 31.8414L29.5663 37.7852L32.6063 35.5733L35.2381 30.5678C35.7965 30.5413 36.3357 30.3602 36.7928 30.0456C37.3513 29.6308 37.7271 29.0235 37.8438 28.3474C37.9205 27.9974 37.8995 27.6338 37.783 27.2945V27.2945Z" fill="#648CFF"/>
<path fill-rule="evenodd" clip-rule="evenodd" d="M1.9777 20.0095C2.16467 19.8626 2.43803 19.8917 2.58826 20.0745L4.73859 22.6906L9.87003 27.5632C10.0421 27.7265 10.0461 27.9953 9.87896 28.1635C9.71185 28.3317 9.4369 28.3356 9.26486 28.1722L4.09504 23.2632L1.9112 20.6063C1.76096 20.4236 1.79074 20.1563 1.9777 20.0095Z" fill="black"/>
<path d="M73.7934 9.67556L73.4373 10.011L73.0898 9.70953L73.459 8.7373L73.7934 9.67556Z" fill="#333132"/>
<path d="M70.2765 8.63961C70.3354 8.35316 70.5017 8.09856 70.7428 7.92577C70.9838 7.75297 71.2822 7.67445 71.5793 7.70559C71.5973 7.45456 71.6321 7.20495 71.6836 6.95838C71.9034 5.88485 72.4097 4.88724 73.1512 4.06677C73.8927 3.24631 74.8431 2.63218 75.9058 2.28669C76.9685 1.94121 78.1057 1.87665 79.2022 2.09958C80.2987 2.32251 81.3153 2.82499 82.149 3.55605C82.9827 4.2871 83.6037 5.22071 83.9491 6.26217C84.2945 7.30363 84.352 8.41587 84.1157 9.48605C83.8794 10.5562 83.3578 11.5463 82.6037 12.3557C81.8497 13.1652 80.89 13.7653 79.8221 14.0951L82.0413 19.0496L77.4422 19.9879C77.4422 19.9879 77.6724 16.4047 77.8027 14.3796C77.4204 14.3753 77.0394 14.3355 76.6648 14.2607C75.5393 14.0405 74.496 13.5257 73.6462 12.7713C72.7965 12.0168 72.1722 11.0511 71.8399 9.97695C71.6389 10.0445 71.4232 10.0591 71.2145 10.0194C70.903 9.95798 70.6292 9.77812 70.4533 9.51937C70.2774 9.26063 70.2138 8.94418 70.2765 8.63961Z" fill="#648CFF"/>
<path d="M70.2765 8.63961C70.3354 8.35316 70.5017 8.09856 70.7428 7.92577C70.9838 7.75297 71.2822 7.67445 71.5793 7.70559C71.5973 7.45456 71.6321 7.20495 71.6836 6.95838C71.9034 5.88485 72.4097 4.88724 73.1512 4.06677C73.8927 3.24631 74.8431 2.63218 75.9058 2.28669C76.9685 1.94121 78.1057 1.87665 79.2022 2.09958C80.2987 2.32251 81.3153 2.82499 82.149 3.55605C82.9827 4.2871 83.6037 5.22071 83.9491 6.26217C84.2945 7.30363 84.352 8.41587 84.1157 9.48605C83.8794 10.5562 83.3578 11.5463 82.6037 12.3557C81.8497 13.1652 80.89 13.7653 79.8221 14.0951L82.0413 19.0496L77.4422 19.9879C77.4422 19.9879 77.6724 16.4047 77.8027 14.3796C77.4204 14.3753 77.0394 14.3355 76.6648 14.2607C75.5393 14.0405 74.496 13.5257 73.6462 12.7713C72.7965 12.0168 72.1722 11.0511 71.8399 9.97695C71.6389 10.0445 71.4232 10.0591 71.2145 10.0194C70.903 9.95798 70.6292 9.77812 70.4533 9.51937C70.2774 9.26063 70.2138 8.94418 70.2765 8.63961Z" fill="#648CFF"/>
<path d="M71.5872 7.7056H71.6871C71.8523 7.73802 72.0086 7.80436 72.1456 7.90024C72.2826 7.99612 72.3972 8.11935 72.4819 8.26177C73.8325 7.79477 76.2167 6.36827 76.8638 2.04208C76.9116 2.67891 77.5066 6.59328 84.2467 7.98581C84.1949 6.46565 83.5739 5.017 82.5016 3.91488C81.4294 2.81275 79.9805 2.13388 78.43 2.00713C76.8796 1.88039 75.3355 2.31459 74.0909 3.22732C72.8463 4.14005 71.9878 5.46776 71.6784 6.95839C71.627 7.20496 71.5922 7.45457 71.5742 7.7056" fill="#333132"/>
<path d="M86.4704 2.69593L86.1708 1.84682L82.3578 3.12048C81.7181 1.83328 80.6203 0.818282 79.27 0.265718C77.9196 -0.286846 76.4095 -0.339049 75.0227 0.118894C74.274 0.365965 73.5825 0.754826 72.9876 1.26326C72.3927 1.77169 71.9061 2.38972 71.5556 3.08205C71.2052 3.77439 70.9977 4.52744 70.945 5.29819C70.8924 6.06894 70.9956 6.84229 71.2487 7.57403L71.2965 7.70564V7.74386L86.4704 2.69593Z" fill="#00CD73"/>
<path d="M116.476 19.8096L107.981 30.2664L102.739 23.4226C101.386 21.7621 99.6954 20.3934 97.7746 19.4027C95.8537 18.4119 93.7439 17.8205 91.5779 17.6656H90.1274V17.602L61.1823 17.5213C59.0174 17.7115 56.9162 18.3378 55.011 19.3607C53.1059 20.3836 51.438 21.7811 50.1123 23.465L44.9487 30.3852L36.4801 20.2936L16.668 38.8423C16.668 38.8423 36.5496 56.1174 46.0995 58.3717C47.8293 58.7804 49.6446 58.6725 51.3109 58.0618L53.9427 67.368L103.017 68.2638L104.663 58.2953C105.6 58.3603 106.542 58.2757 107.451 58.0448C116.966 55.6334 136.548 38.0569 136.548 38.0569L116.476 19.8096Z" fill="#FDCD01"/>
<mask id="mask0" mask-type="alpha" maskUnits="userSpaceOnUse" x="16" y="17" width="121" height="52">
<path d="M116.476 19.8096L107.981 30.2664L102.739 23.4226C101.386 21.7621 99.6954 20.3934 97.7746 19.4027C95.8537 18.4119 93.7439 17.8205 91.5779 17.6656H90.1274V17.602L61.1823 17.5213C59.0174 17.7115 56.9162 18.3378 55.011 19.3607C53.1059 20.3836 51.438 21.7811 50.1123 23.465L44.9487 30.3852L36.4801 20.2936L16.668 38.8423C16.668 38.8423 36.5496 56.1174 46.0995 58.3717C47.8293 58.7804 49.6446 58.6725 51.3109 58.0618L53.9427 67.368L103.017 68.2638L104.663 58.2953C105.6 58.3603 106.542 58.2757 107.451 58.0448C116.966 55.6334 136.548 38.0569 136.548 38.0569L116.476 19.8096Z" fill="#FDCD01"/>
</mask>
<g mask="url(#mask0)">
<path d="M98.5003 56.2404C89.6582 64.1328 76.6861 65.122 65.4034 62.9611C56.9999 61.3563 47.6758 58.1594 42.7641 50.8061C39.6806 46.187 38.9467 40.1202 42.0518 35.3227C45.4436 30.0795 52.0404 28.5681 57.9771 29.6932C62.3103 30.5872 66.4038 32.3589 69.9938 34.8939C74.3844 37.9252 78.4189 43.9072 75.5222 49.1546C73.0381 53.6464 67.2057 55.0602 62.3721 54.504C57.8511 53.986 53.4171 52.0925 49.5259 49.8339C36.9794 42.6165 17.4626 21.2064 36.0109 9.53966C50.6246 0.348101 68.8429 2.55153 82.8139 11.8238C88.4813 15.581 93.7275 20.5356 96.85 26.56C99.1647 31.0347 100.298 36.8087 96.6937 40.9608C94.861 43.0835 91.7428 44.9091 88.9243 45.2573C85.5195 45.6818 81.8411 44.4591 78.8185 43.0453C71.6397 39.6871 65.4164 33.8198 61.3211 27.1841C57.9033 21.6649 55.1369 13.6281 59.9444 8.01976C65.1558 1.93168 75.1878 1.45193 82.5273 2.98881C91.213 4.8059 99.1951 9.4123 105.874 15.0206C112.432 20.5398 118.265 27.3709 121.6 35.2336C122.994 38.5238 123.954 42.0816 123.915 45.6648C123.867 49.8806 121.609 53.4299 118.13 55.8838C111.038 60.8765 101.063 59.9001 93.2324 57.3443C84.9332 54.6314 77.3071 49.3032 72.5474 42.0604C68.6388 36.1166 65.7161 27.0355 71.0795 21.0068C76.6427 14.7532 86.3577 15.7126 93.7058 17.5849C102.237 19.8375 110.307 23.5114 117.561 28.445C123.789 32.6311 130.655 38.2861 133.017 45.5969C135.128 52.1435 131.714 57.7391 125.756 60.7534C119.798 63.7677 112.84 64.205 106.339 63.6998C99.1032 63.152 92.0404 61.2616 85.5282 58.1297C80.3385 55.5824 74.8187 51.9185 72.4388 46.5309C69.9156 40.8334 72.7211 35.2548 76.9641 31.1918C82.4361 25.9486 91.4779 26.6831 98.0617 29.2728C105.045 32.0197 111.342 37.1823 115.073 43.6015C118.521 49.5452 119.355 56.8857 114.664 62.4431C111.915 65.7037 107.907 67.818 104.007 69.4907C99.1853 71.5272 94.0464 72.753 88.807 73.1164C70.7364 74.4665 49.3826 66.9052 38.7773 51.9567C34.1782 45.4271 31.7593 36.0869 36.7709 29.0436C39.3766 25.367 43.7846 23.7155 48.1231 22.9003C52.3965 22.1022 57.1693 21.5672 61.5165 21.7625C71.2489 22.1871 79.4265 28.9799 83.4523 37.3606C85.5085 41.5734 86.4763 46.2149 86.2708 50.8783C86.1852 53.2513 85.7086 55.5952 84.8594 57.8198C83.9213 60.1123 81.5935 61.6407 79.4742 62.8719C63.7357 72.021 45.0745 58.8217 35.0294 47.3376C29.5835 41.1136 24.8063 33.6755 22.9433 25.6005C21.0802 17.5255 18.8436 8.85189 22.9433 1.08258C29.9657 -12.2186 49.2783 -13.9721 62.7673 -14.2395C66.7149 -14.3202 70.4281 -14.2692 74.2367 -13.1102C78.9293 -11.699 83.1811 -9.15175 86.5976 -5.70496C90.014 -2.25817 92.4845 1.97649 93.7796 6.606C95.1259 11.344 95.3734 16.9141 92.9631 21.3847C90.6137 25.7406 86.0146 27.477 81.1549 26.7086C71.8047 25.2311 63.8226 18.1326 58.4201 11.0001C53.6429 4.68703 48.3359 -5.16259 53.365 -12.7748C57.8034 -19.4955 67.4749 -19.8563 74.645 -18.3662C86.4489 -15.9165 96.3593 -8.46561 104.511 -0.0424875C110.86 6.54232 116.415 14.5536 118.234 23.5669C119.45 29.5998 118.786 36.4987 114.326 41.1815C104.259 51.7359 87.3999 43.2279 79.7218 34.2953C76.0868 30.0498 72.1522 23.9023 73.1163 18.1029C74.2454 11.31 82.5924 11.2082 88.0514 12.0148C102.548 14.1376 115.685 23.1508 125.074 33.8708C131.285 40.9608 141.021 55.68 130.781 63.5894C125.013 68.0472 116.423 68.2085 109.449 67.9623C102.474 67.7161 95.2518 65.7928 88.6029 63.7847C84.8648 62.7376 81.2287 61.3694 77.7371 59.6963C75.9999 58.8132 72.6342 57.2636 72.3563 55.0517C72.0957 52.9289 75.3963 52.2496 76.938 51.9524C80.3037 51.3071 83.7389 51.9057 87.0351 52.6445C91.2717 53.5597 95.3846 54.9545 99.2907 56.8008C104.372 59.225 114.221 64.9904 108.689 71.5158C106.478 74.1268 103.069 75.7359 99.8943 76.9246C95.5301 78.5018 90.9836 79.547 86.3577 80.0366C76.3691 81.1871 65.6118 80.5715 56.3007 76.6402C47.0678 72.7428 40.6925 65.139 40.4971 55.0644C40.4146 50.9547 41.1485 46.879 43.5762 43.4317C46.6857 39.0588 51.7538 36.3629 56.8566 34.8133C61.7033 33.3528 66.4109 32.9665 71.3487 34.1977C74.4191 34.9576 77.533 36.3204 79.5741 38.7913C82.8486 42.7397 81.8498 48.1612 78.3147 51.5958C73.5723 56.2107 66.2719 56.389 60.2571 54.4191C55.5147 52.8652 51.5714 50.0462 47.5846 47.1677C43.9323 44.569 40.4952 41.693 37.3051 38.5663C32.9362 34.2231 28.8626 29.0478 27.3165 23.0277C24.9236 13.6239 30.8212 5.75265 38.8164 1.1505C47.8626 -4.03753 59.0628 -6.01169 69.4162 -5.09466C78.8054 -4.24556 89.1588 -0.53497 93.4061 8.35091C94.3051 10.2317 95.6905 13.5262 95.2866 15.632C94.8827 17.7378 91.0957 18.4383 89.3065 18.4765C83.2829 18.5996 77.2985 14.9697 72.7471 11.4544C67.9092 7.71833 63.1147 2.83173 60.9867 -2.93793C59.141 -7.94765 60.9519 -13.5857 66.8799 -14.7405C71.6571 -15.6618 77.3028 -13.1399 81.4242 -11.0724C87.3913 -8.07502 92.8633 -4.13942 97.9618 0.101859C103.291 4.52896 108.23 9.38594 112.727 14.6216C116.501 19.0199 120.11 23.7707 122.568 29.0181C123.893 31.8541 125.769 36.4648 123.35 39.2583C120.397 42.6547 113.053 41.2325 109.549 39.823C104.25 37.7002 98.9172 33.3146 96.5199 28.1223C95.3891 25.6124 94.5669 22.9802 94.0706 20.2808C93.5147 17.275 93.3193 13.2545 96.1334 11.2081C98.6436 9.38682 102.305 9.8326 105.141 10.4822C109.483 11.4756 113.618 13.4031 117.47 15.5768C126.156 20.4804 134.463 27.2095 139.966 35.4756C144.443 42.209 146.584 50.9802 139.136 56.5461C132.249 61.6917 122.534 61.7341 114.382 60.2355C110.356 59.4967 105.696 58.3462 102.465 55.7267C101.597 55.0262 100.515 53.9393 101.162 52.7761C102.122 51.0099 104.928 51.0524 106.574 51.1967C113.11 51.7614 123.511 53.4341 125.917 60.6388C127.78 66.158 123.311 71.5285 119.072 74.6235C116.122 76.7428 112.823 78.3551 109.318 79.3913C104.975 80.7031 100.702 80.7498 96.255 81.2466C86.4923 82.3334 75.874 79.8965 68.2219 73.6853C63.1711 69.5841 58.5721 61.7978 65.4381 57.0428C69.4118 54.279 75.3442 54.0964 80.0388 54.8182C83.5913 55.3658 87.2089 56.7754 89.5931 59.5222C94.8045 65.5551 90.0274 72.73 84.0559 75.9566C79.1572 78.6016 73.2596 79.854 67.7615 80.6267C62.0089 81.4358 56.1644 81.3928 50.4249 80.4993C32.402 77.5996 14.8525 65.1263 10.5618 47.1253C9.62371 43.1854 9.28931 38.821 10.1275 34.8133C11.2957 29.2644 14.5094 23.9192 17.9446 19.4487C21.5579 14.7786 25.9138 10.686 30.5085 6.94564C34.6169 3.60866 39.1378 1.00191 44.3058 -0.433075C50.794 -2.23742 58.0075 -1.73221 63.4143 2.48784C67.1058 5.36206 69.9677 9.98968 69.6854 14.7319C69.3814 19.7671 65.1081 22.1998 60.2788 22.0385C49.3609 21.6691 41.1007 11.102 38.3734 1.63449C36.5625 -4.65737 36.9273 -12.0191 41.4134 -17.1944C45.0745 -21.3975 50.6246 -23.4226 56.0662 -24.2929C69.4205 -26.4114 84.1341 -22.9259 95.9771 -16.9821C101.21 -14.3499 106.456 -10.9577 109.978 -6.25793C111.441 -4.18376 112.685 -1.97051 113.692 0.3481C115.055 3.28176 116.375 6.88196 116.119 10.1638C115.72 15.2074 110.005 11.5393 107.963 9.62033C104.828 6.66969 101.397 2.45388 101.645 -2.07185C102.079 -10.0577 112.819 -11.0554 118.825 -9.35717C123.967 -7.89671 127.702 -4.52576 131.306 -0.806683C135.514 3.528 139.245 8.41884 141.729 13.9083C145.138 21.4229 146.12 30.6781 141.217 37.8148C139.846 39.8447 138.031 41.5516 135.903 42.8124C133.775 44.0732 131.387 44.8563 128.912 45.1053C126.437 45.3543 123.936 45.0629 121.59 44.2522C119.244 43.4415 117.111 42.1317 115.346 40.4173C114.595 39.7296 113.088 38.4602 113.175 37.3011C113.353 35.1784 118.156 35.9893 119.411 36.1931C123.585 36.9228 127.591 38.381 131.237 40.498C135.028 42.6675 138.689 45.6521 140.513 49.6556C142.606 54.2535 141.382 59.1613 138.689 63.2413C136.487 66.574 133.439 69.8558 129.912 71.8342C124.501 74.8792 118.672 77.1509 112.602 78.5804C106.878 79.9219 100.876 80.5163 95.0217 79.854C90.2445 79.3191 84.829 78.0285 81.346 74.5938C75.9913 69.3209 79.2831 61.6365 84.1862 57.3443C89.0068 53.1242 98.6219 50.4283 102.661 57.2551C105.475 62.0143 106.569 68.1067 103.773 73.0909C101.093 77.8501 95.8729 80.7795 90.8351 82.6518C78.6751 87.1691 64.0658 87.5596 51.5062 84.4222C46.4598 83.1486 40.9791 81.1659 37.4484 77.2345C34.3302 73.7702 31.3163 70.5309 29.197 66.3278C26.9354 61.7663 25.6076 56.8166 25.2884 51.7571C24.6283 41.7759 27.7942 31.4635 34.7428 23.9702C38.1563 20.2808 42.3254 17.3429 47.615 17.3854C51.706 17.4193 56.0228 19.3086 57.9163 23.0234C58.9094 25.0815 59.1128 27.42 58.4895 29.6125C57.9901 31.5145 56.861 32.4867 55.202 33.4887C53.019 34.8464 50.4408 35.4668 47.8626 35.2548C42.4687 34.7453 38.0434 30.7418 35.138 26.5387C28.0809 16.3198 27.1775 1.35853 36.5234 -7.82453C42.8726 -14.0612 52.2315 -16.4005 60.9476 -17.101C68.9602 -17.7421 77.1161 -16.6043 84.4598 -13.3395C90.221 -10.7868 95.3386 -7.02878 99.4514 -2.33082C102.326 0.972193 105.01 4.99695 105.861 9.32738C106.339 11.7346 106.009 14.8933 102.774 14.5961C100.429 14.3838 98.0486 12.8979 96.2073 11.5818C92.8937 9.23823 88.3901 4.31342 90.9046 0.0296856C93.4799 -4.36443 99.3689 -3.51957 103.499 -2.23318C108.142 -0.717884 112.456 1.63038 116.219 4.69127C123.016 10.1171 129.682 18.8416 127.511 27.9185C127.38 28.4535 128.223 28.6827 128.349 28.1478C130.711 18.3321 123.346 8.99198 115.867 3.32846C111.668 0.148559 106.817 -2.40724 101.627 -3.6342C99.2212 -4.2031 97.0498 -4.5385 94.6786 -3.70638C92.8893 -3.08228 91.1565 -2.04638 90.1881 -0.399113C86.3403 6.11777 95.6297 13.4668 101.21 15.131C104.085 15.9801 106.656 14.9697 106.943 11.8407C107.321 7.68436 104.771 3.27751 102.431 0.0127031C98.5979 -5.27458 93.5648 -9.62236 87.7257 -12.6899C80.2869 -16.5758 71.9194 -18.4434 63.4925 -18.0987C54.3291 -17.7888 44.2971 -15.666 37.2182 -9.64162C26.3611 -0.394866 26.7085 15.8782 34.3693 26.9718C37.3789 31.3319 41.8911 35.3991 47.4457 36.0657C50.0954 36.3634 52.7732 35.8265 55.0891 34.5331C56.2009 33.9217 57.8294 33.0089 58.5634 31.956C59.6534 30.3724 59.8662 27.6383 59.6317 25.8C58.5981 17.2156 47.8799 14.7871 40.9357 18.001C36.354 20.1237 32.6843 24.4669 30.0786 28.6148C27.2493 33.1887 25.4188 38.2855 24.7021 43.5845C22.4525 59.8619 30.9645 78.5422 47.4804 84.1505C54.2726 86.4643 61.6338 87.2497 68.7995 87.1903C76.1476 87.1266 83.6564 86.1501 90.5833 83.6707C95.9337 81.756 101.475 78.7502 104.402 73.7744C107.473 68.5567 106.404 62.5111 103.712 57.374C100.237 50.7595 91.4258 51.4302 85.9407 54.971C80.6902 58.3674 75.8697 65.2154 78.3147 71.5837C81.7586 80.5545 95.5558 81.4546 103.681 80.8517C110.179 80.3235 116.552 78.7977 122.564 76.3302C125.577 75.1182 128.495 73.6907 131.293 72.0592C133.195 70.9512 134.802 69.2699 136.283 67.6736C140.114 63.5512 143.358 58.1636 142.294 52.3897C141.425 47.7536 138.029 44.0515 134.229 41.3811C130.291 38.6423 125.833 36.6982 121.118 35.6624C118.999 35.1996 114.399 34.117 112.727 36.1761C110.751 38.6045 115.811 42.0052 117.314 43.092C123.029 47.2272 131.536 46.913 137.26 42.9859C143.744 38.5281 146.207 30.572 145.299 23.1084C143.914 11.777 135.831 1.00615 127.007 -6.05415C121.166 -10.737 111.481 -13.1612 104.758 -8.69062C97.0541 -3.59599 102.287 5.36631 107.364 10.2359C109.036 11.845 113.422 15.182 115.889 13.0507C117.874 11.327 116.957 7.53153 116.423 5.40877C114.964 -0.403355 111.794 -6.32162 107.303 -10.4355C102.222 -15.1056 95.8338 -18.3492 89.3716 -20.7734C82.1456 -23.5177 74.5269 -25.1462 66.7887 -25.6005C54.7634 -26.2374 39.4287 -23.0532 36.9055 -9.46755C35.1684 -0.055226 39.5938 10.2826 46.6379 16.6679C51.5844 21.1554 60.7999 25.6981 67.2361 21.1724C71.0143 18.5189 71.2271 13.4922 69.7593 9.53542C67.8006 4.27521 63.1581 0.241963 57.7295 -1.4053C49.6562 -3.85072 40.2409 -1.04868 33.5094 3.54923C28.3284 7.0815 23.4905 11.6582 19.4169 16.358C15.3433 21.0578 12.034 26.2967 10.045 32.1216C7.18737 40.515 9.54554 50.1184 13.9188 57.5947C18.7871 65.9372 26.5131 72.556 35.3247 76.6996C45.5565 81.5225 57.1346 82.9617 68.3305 81.3697C76.6905 80.1682 89.415 77.4808 92.29 68.234C94.3485 61.6025 88.9286 56.2277 82.7922 54.5167C76.0564 52.6445 63.4057 52.9332 61.2342 61.2799C59.3668 68.4972 67.349 74.8316 72.9599 77.7949C82.4578 82.8004 93.4105 83 103.864 81.4631C111.368 80.3592 119.285 77.0774 124.058 71.087C127.35 66.9519 128.531 61.369 124.801 57.1065C122.451 54.4191 118.942 52.8865 115.542 51.91C113.118 51.242 110.641 50.7776 108.137 50.5217C105.844 50.267 103.794 49.9485 101.762 51.15C99.7293 52.3515 99.7293 54.3512 101.397 55.956C104.229 58.6434 108.732 59.8916 112.48 60.711C121.166 62.6469 131.775 62.8337 139.301 57.5056C142.706 55.0899 145.004 51.5873 145.112 47.4055C145.368 37.6408 136.509 28.7252 129.508 22.8791C125.17 19.2129 120.417 16.0435 115.342 13.4328C111.338 11.3992 106.951 9.57787 102.418 9.15332C99.3775 8.87311 95.951 9.37833 94.1661 12.0615C91.847 15.5556 93.0587 20.5313 94.2052 24.191C95.4655 28.4925 97.876 32.3878 101.189 35.4756C104.815 38.872 109.271 41.19 114.252 41.8438C117.852 42.3024 123.176 42.417 124.861 38.4814C126.49 34.6816 124.11 29.8885 122.308 26.5939C119.064 20.6205 114.625 15.2414 109.97 10.2699C104.663 4.57271 98.8078 -0.6123 92.4854 -5.21354C87.1046 -9.1364 81.2114 -12.796 74.7666 -14.6895C69.7983 -16.15 63.9094 -16.3495 60.6479 -11.6413C57.4255 -7.01364 60.4482 -0.934048 63.3145 3.06524C67.4871 8.82353 73.0322 13.5012 79.4699 16.6934C83.9561 18.8968 90.4009 20.9389 94.8393 17.5425C96.1421 16.5363 96.2377 16.0311 96.0422 14.4475C95.8867 13.153 95.6149 11.8744 95.2301 10.6265C94.505 8.30598 93.3543 6.13371 91.834 4.21577C88.655 0.21224 84.0516 -2.43272 79.1876 -4.02479C68.2393 -7.60377 55.4626 -6.62305 44.7922 -2.57707C35.733 0.849072 26.1874 7.70984 25.8921 18.0944C25.7227 23.9277 28.5455 29.4172 32.0589 33.9642C34.6238 37.2169 37.5225 40.2043 40.7099 42.8798C44.7314 46.3271 49.0959 49.7448 53.7081 52.4067C60.066 56.0664 68.2479 58.1976 75.2095 54.8182C79.7391 52.6147 83.2351 47.864 82.3535 42.7524C81.2418 36.3077 74.1369 33.5481 68.2653 32.7839C58.6285 31.5357 46.0429 36.2143 41.5698 45.1214C38.7295 50.7764 39.0335 58.3547 41.4916 64.1159C43.4502 68.7053 46.9853 72.3946 51.263 75.0226C60.7435 80.8517 72.9773 82.0235 83.9083 81.1404C89.1304 80.7715 94.2817 79.744 99.2342 78.0836C102.826 76.8312 106.674 75.1118 109.223 72.246C115.364 65.3004 105.792 59 100.064 56.2234C95.8846 54.2174 91.4718 52.7148 86.9222 51.7487C83.9343 51.0906 80.8422 50.5726 77.7588 50.9675C75.9609 51.201 72.669 51.8166 71.7743 53.6294C69.4379 58.3335 80.3037 61.8615 83.0962 62.8847C90.8525 65.7207 99.2299 67.8986 107.486 68.701C114.786 69.4058 123.941 69.1001 130.277 65.0074C141.929 57.4759 133.247 42.3363 126.742 34.5161C116.823 22.5734 101.909 12.312 85.8713 10.911C80.2255 10.427 73.1814 11.6454 72.226 18.1284C71.3357 24.1867 75.2921 30.4743 79.0921 34.8939C83.9257 40.5108 90.6354 45.2105 98.1746 46.3781C104.424 47.3418 111.051 46.221 115.346 41.3301C119.724 36.3459 120.327 29.345 119.029 23.1338C116.953 13.1951 110.474 4.47899 103.238 -2.53461C94.5743 -10.928 84.0516 -18.243 71.6441 -19.7205C64.4653 -20.5696 55.5755 -19.0752 51.9709 -12.1507C47.6281 -3.83374 53.3823 6.07955 58.5547 12.5879C64.1005 19.5633 72.3997 26.5982 81.815 27.6426C86.8527 28.203 91.4996 26.076 93.8143 21.58C96.3071 16.7443 95.9858 10.8091 94.4223 5.75265C92.9138 0.813884 90.1041 -3.65064 86.2748 -7.19365C82.4455 -10.7367 77.7311 -13.2338 72.6038 -14.4348C68.591 -15.4028 64.4262 -15.1778 60.3266 -15.0165C45.8779 -14.4645 25.1885 -11.463 20.6025 4.62759C19.3778 8.91556 19.5385 13.4625 20.3549 17.7887C21.1714 22.1149 22.066 26.7383 23.7033 30.8946C27.1211 39.5725 33.1012 47.3673 40.0411 53.6591C46.7769 59.7642 55.1542 65.1221 64.4132 66.3957C68.4236 67.0086 72.5274 66.6201 76.343 65.2664C78.321 64.5292 80.1857 63.5292 81.8845 62.2945C83.7997 60.9147 85.1156 59.7472 85.8756 57.5226C88.9634 48.4923 86.3446 38.2521 80.4036 30.9074C77.4233 27.1766 73.4918 24.2776 69.0036 22.5012C64.2265 20.6587 59.4971 20.8964 54.4724 21.2913C45.4089 22.0003 35.7981 24.3226 33.6267 34.2359C31.8331 42.3024 35.6027 50.1523 41.0356 56.0664C54.607 70.8365 78.6057 77.6379 98.1485 72.4031C106.066 70.2804 115.854 65.9372 118.295 57.5098C120.288 50.6236 116.818 43.4741 112.302 38.3158C107.147 32.423 99.751 27.8633 91.834 26.7086C88.0622 26.1029 84.1934 26.4898 80.6251 27.8294C77.2377 29.154 74.5929 31.9263 72.7124 34.9449C64.8953 47.4989 80.0953 57.3825 90.4877 61.1355C97.7924 63.7677 105.788 65.1221 113.574 64.6126C120.089 64.188 127.154 62.3497 131.662 57.3952C136.509 52.0883 134.477 44.5992 130.711 39.3602C125.465 32.0579 117.37 26.6916 109.362 22.6541C101.671 18.7779 92.8937 15.4622 84.1298 15.2881C76.2649 15.131 68.2783 19.2959 67.3924 27.5152C66.4761 36.0063 72.0219 44.4973 78.2843 49.8382C85.2329 55.7819 93.9707 59.5774 103.225 60.1803C111.229 60.6982 121.596 57.9047 124.34 49.4518C125.391 46.2082 124.727 42.192 123.841 38.9993C122.655 34.9799 120.842 31.1635 118.464 27.685C113.099 19.6917 105.949 12.9914 97.5535 8.08769C89.8927 3.59168 80.7423 0.445747 71.7049 1.65148C64.5391 2.61521 57.1085 6.52958 56.5049 14.2904C55.9273 21.9578 61.0475 29.4851 66.1721 34.8175C71.479 40.3367 78.8923 45.6903 86.9135 46.1276C92.5071 46.4333 98.5177 42.3066 99.6425 36.8426C100.819 31.1239 97.623 25.2905 94.1531 20.9262C89.2153 14.7234 82.4274 9.84959 75.1053 6.66969C67.2013 3.2393 58.381 1.7661 49.8082 3.24779C41.6914 4.67004 31.0818 9.05142 28.2285 17.3642C25.4578 25.4307 30.6822 34.0151 35.9327 39.8952C42.1951 46.9045 50.6377 52.81 60.0009 54.9625C64.6781 56.0366 70.0719 55.5357 73.8633 52.4152C75.4503 51.1311 76.5742 49.3833 77.0698 47.4285C77.5654 45.4738 77.4065 43.4151 76.6166 41.5552C74.5842 36.5242 69.8331 33.3188 65.0082 31.0984C61.4166 29.4469 57.4646 28.3303 53.4649 28.462C47.6324 28.6572 42.2125 31.8159 40.0845 37.2629C37.8523 42.9647 39.8934 49.2311 43.9149 53.6464C50.0427 60.3798 59.8923 63.2031 68.73 64.3409C79.3526 65.7037 90.9524 64.1201 99.13 56.8305C99.5643 56.4612 98.9302 55.8583 98.5133 56.2277L98.5003 56.2404Z" fill="#648CFF"/>
</g>
</g>
<defs>
<clipPath id="clip0">
<rect width="156" height="170" fill="white"/>
</clipPath>
</defs>
</svg>