<svg width="192" height="192" viewBox="0 0 192 192" fill="none" xmlns="http://www.w3.org/2000/svg">
<g clip-path="url(#clip0)">
<path d="M83.5724 14.3993C89.2381 4.58601 103.402 4.586 109.068 14.3993L188.05 151.199C193.715 161.013 186.633 173.279 175.302 173.279H17.3388C6.00732 173.279 -1.07487 161.013 4.59086 151.199L83.5724 14.3993Z" fill="#FEF8E3"/>
<path d="M115.409 63.9664C114.66 63.9664 113.928 64.1885 113.305 64.6046C112.683 65.0207 112.197 65.6121 111.911 66.304C111.624 66.9959 111.549 67.7573 111.695 68.4918C111.841 69.2264 112.202 69.9011 112.732 70.4307C113.261 70.9602 113.936 71.3209 114.67 71.467C115.405 71.6131 116.166 71.5381 116.858 71.2515C117.55 70.9649 118.142 70.4796 118.558 69.8568C118.974 69.2341 119.196 68.502 119.196 67.7531C119.196 66.7488 118.797 65.7856 118.087 65.0755C117.377 64.3654 116.413 63.9664 115.409 63.9664ZM115.409 33.6731C114.405 33.6731 113.442 34.072 112.732 34.7822C112.021 35.4923 111.622 36.4555 111.622 37.4598V52.6064C111.622 53.6107 112.021 54.5739 112.732 55.284C113.442 55.9941 114.405 56.3931 115.409 56.3931C116.413 56.3931 117.377 55.9941 118.087 55.284C118.797 54.5739 119.196 53.6107 119.196 52.6064V37.4598C119.196 36.4555 118.797 35.4923 118.087 34.7822C117.377 34.072 116.413 33.6731 115.409 33.6731Z" fill="#F8B330"/>
<path d="M155.815 69.5339L125.332 16.5205C124.347 14.7541 122.908 13.2828 121.164 12.2585C119.419 11.2343 117.434 10.6942 115.411 10.6942C113.388 10.6942 111.402 11.2343 109.658 12.2585C107.914 13.2828 106.475 14.7541 105.49 16.5205L75.1965 69.5339C74.1771 71.2531 73.6293 73.2108 73.6085 75.2094C73.5877 77.208 74.0946 79.1767 75.0779 80.9168C76.0613 82.6568 77.4863 84.1067 79.2092 85.1199C80.932 86.1331 82.8917 86.6738 84.8904 86.6875H145.931C147.946 86.7073 149.93 86.191 151.679 85.1914C153.429 84.1918 154.881 82.745 155.887 80.9992C156.892 79.2534 157.416 77.2716 157.403 75.2568C157.391 73.242 156.842 71.2669 155.815 69.5339ZM149.264 77.1072C148.932 77.6977 148.448 78.1884 147.861 78.5281C147.275 78.8678 146.609 79.044 145.931 79.0384H84.8904C84.213 79.044 83.5465 78.8678 82.9604 78.5281C82.3743 78.1884 81.89 77.6977 81.5581 77.1072C81.2257 76.5315 81.0508 75.8786 81.0508 75.2139C81.0508 74.5492 81.2257 73.8962 81.5581 73.3205L111.851 20.3072C112.169 19.6869 112.652 19.1664 113.247 18.8029C113.841 18.4394 114.525 18.2471 115.222 18.2471C115.918 18.2471 116.602 18.4394 117.197 18.8029C117.791 19.1664 118.274 19.6869 118.592 20.3072L149.074 73.3205C149.45 73.8879 149.666 74.5461 149.699 75.2257C149.733 75.9054 149.582 76.5815 149.264 77.1829V77.1072Z" fill="#F8B330"/>
<path d="M170.863 62.9954C170.128 62.2699 169.14 61.8575 168.107 61.8448C167.249 61.8568 166.415 62.13 165.716 62.6281C165.497 62.5548 165.27 62.5074 165.04 62.4868C164.461 62.4408 163.878 62.5174 163.33 62.7117C162.782 62.906 162.281 63.2135 161.86 63.6143C161.49 63.9699 161.197 64.3973 160.998 64.8703C160.8 65.3433 160.7 65.8518 160.705 66.3648C160.751 67.412 161.166 68.4093 161.876 69.1799L162.005 69.3606C161.53 69.2947 161.047 69.3262 160.585 69.4531C159.565 69.7294 158.696 70.3983 158.167 71.3135C157.913 71.7522 157.747 72.2367 157.681 72.7394C157.614 73.2421 157.647 73.7531 157.778 74.2429C158.306 75.7135 158.825 77.1902 159.336 78.673C159.509 79.1567 159.673 79.6388 159.846 80.1224C157.239 83.5327 154.365 85.166 152.862 86.2353L148.984 88.9949C145.244 91.3915 144.053 87.914 144.053 87.914C143.699 86.801 143.26 85.7167 142.741 84.6706C141.944 83.0593 138.611 79.6206 138.245 79.2273C137.907 78.836 137.482 78.5283 137.005 78.3281C136.528 78.1278 136.011 78.0405 135.495 78.0729C134.441 78.0897 133.434 78.5064 132.676 79.2386C131.964 79.9733 131.562 80.953 131.551 81.9759C131.581 83.0264 131.998 84.0289 132.722 84.791C133.228 85.3489 135.48 87.5736 136.119 89.7401C136.864 92.2516 137.055 97.5059 136.926 99.6202C136.797 101.735 136.429 103.918 136.182 106.062L136.01 107.537C136.052 108.585 136.468 109.584 137.181 110.352C137.916 111.076 138.901 111.489 139.932 111.507C140.748 111.491 141.542 111.242 142.221 110.788L149.735 114.527L155.261 114.554L172.391 90.9535C173.573 89.6796 174.411 88.1251 174.825 86.4371C175.076 85.086 175.21 83.7156 175.224 82.3414L175.493 77.4829C175.554 76.4205 175.629 75.356 175.672 74.2907C175.673 73.2088 175.245 72.1705 174.481 71.4041L174.248 71.1421C173.895 70.7554 173.542 70.3687 173.191 69.9732L171.983 68.647L172.007 65.8061C172 64.7571 171.591 63.7508 170.863 62.9954Z" fill="#648CFF"/>
<path fill-rule="evenodd" clip-rule="evenodd" d="M172.023 69.3661C172.372 69.3812 172.644 69.6769 172.628 70.0267L172.409 75.1053L170.674 85.4826C170.616 85.8279 170.29 86.061 169.944 86.0032C169.599 85.9455 169.366 85.6188 169.424 85.2736L171.146 74.973L171.362 69.972C171.377 69.6223 171.673 69.351 172.023 69.3661Z" fill="black"/>
<path d="M160.214 111.957L135.94 98.7702C134.407 97.9128 132.605 97.6739 130.902 98.1025C129.199 98.5311 127.724 99.5946 126.78 101.075C125.983 102.364 125.643 103.884 125.815 105.389C125.986 106.894 126.66 108.298 127.726 109.375C127.829 109.478 127.907 109.602 127.956 109.74C128.004 109.877 128.021 110.023 128.006 110.168C127.991 110.313 127.943 110.452 127.867 110.576C127.79 110.7 127.687 110.806 127.565 110.885C126.605 111.512 125.801 112.35 125.215 113.336L105.027 147.389L138.633 171.956L154.341 127.826C154.557 127.096 154.659 126.337 154.643 125.576C154.641 125.431 154.671 125.288 154.731 125.157C154.792 125.026 154.88 124.91 154.991 124.817C155.102 124.725 155.232 124.658 155.372 124.622C155.512 124.586 155.658 124.582 155.8 124.61C157.279 124.912 158.816 124.71 160.167 124.037C161.518 123.364 162.605 122.258 163.254 120.895C163.981 119.298 164.071 117.484 163.506 115.823C162.941 114.162 161.764 112.78 160.214 111.957Z" fill="#FDCD01"/>
<path d="M50.6143 79.1584C49.2099 79.5988 47.9798 80.4721 47.0974 81.6552C46.2151 82.8382 45.7251 84.2713 45.6967 85.7521C45.5492 92.3609 48.304 94.7145 42.4938 99.1281C39.5541 101.384 34.7002 109.165 43.1216 111.985C52.2419 115.011 87.5693 94.6996 87.5693 94.6996C87.5693 94.6996 92.2189 91.2524 89.4337 84.5043C86.4528 77.2776 79.5597 80.0237 77.1063 75.0994C72.9339 66.7215 50.6143 79.1584 50.6143 79.1584Z" fill="#333132"/>
<path d="M47.8195 79.665C47.8831 79.0406 48.1823 78.4604 48.6581 78.0391C49.1339 77.6179 49.7517 77.3862 50.3891 77.3898C50.38 76.8503 50.4 76.3105 50.4489 75.7726C50.6851 73.4434 51.543 71.2119 52.9357 69.3045C54.3283 67.397 56.2062 65.8815 58.3787 64.9117C60.5511 63.9419 62.941 63.5523 65.3056 63.7824C67.6703 64.0126 69.9257 64.8543 71.843 66.2222C73.7602 67.59 75.2711 69.4353 76.2224 71.5709C77.1737 73.7065 77.5314 76.0564 77.2594 78.382C76.9874 80.7077 76.0952 82.9265 74.6735 84.8132C73.2517 86.6999 71.351 88.1874 69.1641 89.1248L74.9424 99.1363L65.4176 102.152C65.4176 102.152 65.148 94.4905 64.9929 90.157C64.1836 90.2295 63.3701 90.2311 62.5618 90.1618C60.1355 89.9432 57.8207 89.0806 55.8641 87.6659C53.9075 86.2512 52.3826 84.3375 51.452 82.1289C51.0444 82.3204 50.5926 82.4006 50.1445 82.3609C49.8102 82.3363 49.4847 82.247 49.1867 82.0981C48.8887 81.9491 48.6241 81.7435 48.408 81.493C48.192 81.2424 48.0288 80.952 47.9278 80.6383C47.8268 80.3245 47.79 79.9938 47.8195 79.665Z" fill="#648CFF"/>
<path d="M50.5076 77.2856L50.3056 77.3339C50.2987 76.7987 50.3211 76.263 50.3727 75.7291C50.6523 73.0692 51.7605 70.5407 53.5503 68.4794C55.3401 66.4181 57.7267 64.9216 60.3933 64.1885C59.9138 73.4473 55.1501 76.9983 52.3263 78.2908C52.1174 78.006 51.8469 77.7689 51.5332 77.5955C51.2194 77.4221 50.8697 77.3164 50.5076 77.2856Z" fill="#333132"/>
<path d="M77.314 75.4904C62.7936 73.9481 60.6615 65.5727 60.4025 64.1951C61.9689 63.7602 63.6029 63.6215 65.2213 63.786C68.2531 64.0795 71.0992 65.3964 73.2953 67.5219C75.4914 69.6475 76.9079 72.4564 77.314 75.4904Z" fill="#333132"/>
<path d="M99.8794 94.437L125.316 130.169L116.93 152.361L87.749 102.534L99.8794 94.437Z" fill="#FDCD01"/>
<path d="M90.4927 92.0135L151.305 167.579L54.4352 173.332L48.0986 109.402L90.4927 92.0135Z" fill="#FDCD01"/>
<path d="M61.6808 120.437C62.4281 114.844 58.4529 109.698 52.8021 108.943C47.1512 108.188 41.9645 112.11 41.2173 117.703C40.47 123.296 44.4452 128.442 50.096 129.197C55.7469 129.952 60.9336 126.03 61.6808 120.437Z" fill="#FDCD01"/>
<path d="M66.9215 176.804C71.6073 165.207 65.9059 151.967 54.1872 147.232C42.4684 142.497 29.17 148.061 24.4843 159.658C19.7985 171.256 25.4999 184.496 37.2186 189.231C48.9374 193.965 62.2358 188.402 66.9215 176.804Z" fill="#FDCD01"/>
<path d="M41.6066 115.982L25.043 158.269L66.54 169.02L61.6228 117.396L41.6066 115.982Z" fill="#FDCD01"/>
<path d="M101.261 99.5792C101.793 95.5285 98.9049 91.8088 94.8102 91.2711C90.7154 90.7334 86.9648 93.5813 86.4328 97.632C85.9009 101.683 88.7892 105.402 92.8839 105.94C96.9787 106.478 100.729 103.63 101.261 99.5792Z" fill="#FDCD01"/>
<path d="M139.454 141.091L137.809 138.63C137.05 137.503 135.932 136.665 134.637 136.255C133.342 135.845 131.946 135.885 130.677 136.37L106.554 143.079C106.554 143.079 108.416 152.984 108.416 152.949C108.416 152.914 139.454 141.091 139.454 141.091Z" fill="#648CFF"/>
<path d="M161.523 167.837C162.445 166.685 163.061 165.318 163.315 163.863C163.568 162.409 163.45 160.914 162.973 159.518C162.973 159.518 159.394 150.327 157.904 147.68C156.415 145.033 152.846 142.798 149.434 141.786C146.349 140.87 142.559 141.233 139.333 141.112C131.28 140.805 110.7 143.462 108.566 143.347C105.707 143.196 103.407 142.541 103.669 145.239C103.711 145.693 103.804 146.14 103.946 146.573L102.763 146.976L99.0233 165.004C99.0233 165.004 105.566 179.599 121.672 174.013C136.318 168.924 141.16 173.872 141.623 174.516C142.126 175.282 142.4 176.176 142.413 177.093C142.413 180.007 145.433 182.453 148.14 182.227C151.336 181.955 153.576 179.675 153.601 176.69C153.611 176.303 153.584 175.915 153.521 175.533C155.197 177.289 158.448 177.652 160.396 176.318C163.013 174.531 163.451 171.617 162.067 168.919L161.523 167.837Z" fill="#648CFF"/>
<path fill-rule="evenodd" clip-rule="evenodd" d="M137.607 141.084C137.611 141.362 137.389 141.59 137.111 141.594C131.637 141.672 123.071 142.52 116.719 143.148C114.924 143.325 113.306 143.485 111.984 143.605C111.708 143.631 111.463 143.427 111.438 143.15C111.412 142.873 111.616 142.628 111.893 142.603C113.197 142.484 114.8 142.326 116.583 142.149C122.936 141.521 131.574 140.667 137.097 140.588C137.374 140.584 137.603 140.806 137.607 141.084Z" fill="black"/>
<path fill-rule="evenodd" clip-rule="evenodd" d="M146.598 149.353C143.46 147.965 140.574 148.055 138.792 148.299C138.516 148.336 138.262 148.144 138.225 147.868C138.187 147.593 138.38 147.339 138.655 147.301C140.547 147.042 143.638 146.943 147.005 148.432C150.377 149.923 153.971 152.983 156.908 158.941L160.79 165.584C160.93 165.824 160.849 166.133 160.609 166.273C160.369 166.413 160.061 166.332 159.92 166.092L156.03 159.434C156.024 159.423 156.018 159.413 156.013 159.402C153.164 153.614 149.727 150.736 146.598 149.353Z" fill="black"/>
<path fill-rule="evenodd" clip-rule="evenodd" d="M132.225 156.966C132.26 156.691 132.513 156.496 132.788 156.531C136.816 157.049 140.655 158.545 143.971 160.887L143.973 160.889C148.338 164 151.228 168.68 153.258 173.411L153.26 173.416L153.26 173.416L153.487 173.959C153.594 174.216 153.472 174.51 153.216 174.617C152.959 174.724 152.664 174.603 152.558 174.346L152.333 173.808C152.333 173.807 152.332 173.806 152.332 173.805C150.336 169.156 147.54 164.667 143.39 161.709C140.208 159.461 136.524 158.027 132.66 157.53C132.384 157.494 132.189 157.242 132.225 156.966Z" fill="black"/>
<path d="M48.2347 190.848L91.7449 183.671C94.8235 182.828 97.4908 180.896 99.2501 178.233C101.009 175.57 101.741 172.358 101.308 169.196L99.1585 153.473C98.9083 151.645 98.2768 149.89 97.305 148.321C96.3331 146.753 95.0426 145.406 93.5171 144.369C91.9916 143.331 90.2651 142.625 88.4495 142.297C86.6338 141.969 84.7696 142.027 82.9774 142.465L35.9894 153.986L48.2347 190.848Z" fill="#FDCD01"/>
<path d="M106.544 143.088C105.77 139.436 102.183 137.103 98.5327 137.877C94.8822 138.651 92.5505 142.239 93.3247 145.891L99.1368 173.305C99.9111 176.957 103.498 179.29 107.149 178.516C110.799 177.742 113.131 174.155 112.357 170.503L106.544 143.088Z" fill="#FDCD01"/>
<path fill-rule="evenodd" clip-rule="evenodd" d="M98.4365 137.378C99.8329 137.082 101.285 137.205 102.613 137.73C103.94 138.255 105.083 139.16 105.899 140.331C106.058 140.559 106.002 140.872 105.774 141.031C105.546 141.19 105.232 141.134 105.073 140.906C104.37 139.897 103.386 139.118 102.242 138.666C101.099 138.214 99.8479 138.108 98.645 138.363L98.5408 137.87L98.6447 138.363C97.7818 138.545 96.9675 138.908 96.2554 139.428C95.5433 139.948 94.9498 140.614 94.514 141.38L94.5125 141.383C94.0629 142.163 93.3603 142.766 92.5212 143.092C91.6821 143.419 90.7567 143.448 89.8983 143.177L89.8977 143.177C87.6857 142.474 85.3224 142.397 83.0693 142.954L83.0683 142.954L44.0324 152.517C43.7624 152.583 43.4899 152.418 43.4238 152.148C43.3576 151.878 43.5229 151.605 43.7928 151.539L82.8277 141.977C82.828 141.977 82.8283 141.977 82.8286 141.977C85.2615 141.375 87.8133 141.459 90.2019 142.217C90.8415 142.419 91.5312 142.397 92.1565 142.154C92.7813 141.911 93.3045 141.462 93.6397 140.882C94.1458 139.992 94.8349 139.219 95.6616 138.615C96.4886 138.011 97.4344 137.59 98.4365 137.378Z" fill="black"/>
<path fill-rule="evenodd" clip-rule="evenodd" d="M94.7932 148.765C95.0669 148.717 95.3282 148.899 95.3767 149.173L99.6447 173.215C99.6933 173.489 99.5108 173.75 99.2371 173.799C98.9635 173.847 98.7022 173.665 98.6536 173.391L94.3856 149.349C94.3371 149.075 94.5195 148.814 94.7932 148.765Z" fill="black"/>
<path d="M75.4312 94.6864L62.8415 99.4285C61.351 99.99 60.5978 101.653 61.1593 103.144C61.7207 104.634 63.3841 105.388 64.8746 104.826L77.4643 100.084C78.9548 99.5225 79.708 97.8591 79.1465 96.3686C78.5851 94.8781 76.9217 94.1249 75.4312 94.6864Z" fill="#FDCD01"/>
<path fill-rule="evenodd" clip-rule="evenodd" d="M79.3752 97.7755C79.6401 97.8596 79.7867 98.1426 79.7026 98.4075C79.5481 98.8942 79.2853 99.3397 78.9341 99.7104C78.5828 100.081 78.1522 100.367 77.6745 100.548L65.0917 105.289C64.5838 105.481 64.0373 105.547 63.4982 105.484C62.9592 105.42 62.4433 105.228 61.9942 104.923C61.7642 104.767 61.7042 104.454 61.8603 104.224C62.0164 103.994 62.3294 103.934 62.5594 104.09C62.8751 104.304 63.2376 104.439 63.6165 104.484C63.9954 104.529 64.3795 104.482 64.7364 104.347L77.3187 99.6064C77.3188 99.6063 77.3185 99.6064 77.3187 99.6064C77.654 99.4796 77.9568 99.2783 78.2034 99.0181C78.4501 98.7577 78.6346 98.4448 78.7432 98.1029C78.8273 97.838 79.1102 97.6914 79.3752 97.7755Z" fill="black"/>
<path fill-rule="evenodd" clip-rule="evenodd" d="M129.599 112.103C129.727 111.856 130.031 111.76 130.278 111.888L152.045 123.213C152.292 123.341 152.388 123.645 152.26 123.892C152.131 124.138 151.827 124.234 151.581 124.106L129.813 112.781C129.567 112.653 129.471 112.349 129.599 112.103Z" fill="black"/>
</g>
<defs>
<clipPath id="clip0">
<rect width="192" height="192" fill="white"/>
</clipPath>
</defs>
</svg>
