<svg width="164" height="144" viewBox="0 0 164 144" fill="none" xmlns="http://www.w3.org/2000/svg">
<g clip-path="url(#clip0)">
<path d="M137.141 139.744C137.141 139.744 81.7571 157.406 58.1176 122.135C33.6259 85.5945 99.0077 50.9346 99.0077 50.9346L150.701 51.3695L144.723 95.9213L137.141 139.744Z" fill="#648CFF"/>
<path d="M124.388 75.4267C117.705 75.4267 108.859 70.8539 108.859 58.8226C108.859 46.7912 118.51 41.666 124.47 41.666C130.43 41.666 136.366 41.6954 142.832 41.6954C149.303 41.6954 158.354 48.772 158.354 58.658C158.354 68.5441 151.695 75.4619 142.743 75.4619C133.792 75.4561 131.065 75.4267 124.388 75.4267Z" fill="#648CFF"/>
<path d="M112.321 69.7667C110.241 67.163 108.859 63.5776 108.859 58.8227C108.859 54.0325 110.388 50.3414 112.603 47.626" stroke="black" stroke-width="1.5474" stroke-linecap="round"/>
<path d="M125.892 71.6414C133.115 71.6414 138.97 65.7864 138.97 58.5639C138.97 51.3413 133.115 45.4863 125.892 45.4863C118.669 45.4863 112.814 51.3413 112.814 58.5639C112.814 65.7864 118.669 71.6414 125.892 71.6414Z" fill="#C8E6FF"/>
<path d="M124.388 139.71C117.705 139.71 108.859 135.137 108.859 123.106C108.859 111.074 118.51 105.949 124.47 105.949C130.43 105.949 136.366 105.979 142.832 105.979C149.303 105.979 158.354 113.055 158.354 122.941C158.354 132.827 151.695 139.745 142.743 139.745C133.792 139.745 131.065 139.71 124.388 139.71Z" fill="#648CFF"/>
<path d="M112.321 134.055C110.241 131.451 108.859 127.866 108.859 123.111C108.859 118.321 110.388 114.629 112.603 111.914" stroke="black" stroke-width="1.5474" stroke-linecap="round"/>
<path d="M125.892 135.925C133.115 135.925 138.97 130.07 138.97 122.847C138.97 115.625 133.115 109.77 125.892 109.77C118.669 109.77 112.814 115.625 112.814 122.847C112.814 130.07 118.669 135.925 125.892 135.925Z" fill="#C8E6FF"/>
<path d="M118.376 107.147C108.402 107.147 100.438 101.44 100.438 90.0496C100.438 78.6589 109.783 73.3926 115.843 73.3926C121.902 73.3926 141.845 73.3926 147.893 73.3926C153.941 73.3926 163.357 77.5656 163.357 90.0496C163.357 102.533 153.894 107.2 147.893 107.2C141.892 107.194 128.35 107.147 118.376 107.147Z" fill="#648CFF"/>
<path d="M118.376 107.147C108.402 107.147 100.438 101.44 100.438 90.0496C100.438 78.6589 109.783 73.3926 115.843 73.3926" stroke="black" stroke-width="1.5" stroke-miterlimit="10" stroke-linecap="round"/>
<path d="M144.971 107.194L123.959 107.147" stroke="black" stroke-width="1.5474" stroke-linecap="round"/>
<path d="M133.611 73.3867H147.894" stroke="black" stroke-width="1.5" stroke-miterlimit="10" stroke-linecap="round"/>
<path d="M116.788 103.368C124.011 103.368 129.866 97.513 129.866 90.2904C129.866 83.0679 124.011 77.2129 116.788 77.2129C109.566 77.2129 103.711 83.0679 103.711 90.2904C103.711 97.513 109.566 103.368 116.788 103.368Z" fill="#C8E6FF"/>
<path d="M59.2537 123.064C54.9866 117.351 49.832 107.195 49.832 95.1164C49.832 79.2235 50.7666 68.3383 64.3437 56.0307C74.9997 46.3739 78.3734 41.3838 80.7068 35.1007C82.7816 29.5112 84.057 22.2289 84.539 14.5704C84.7858 10.5678 87.6012 0 99.1271 0C111.576 0 113.692 11.5553 113.692 14.594C113.692 17.6327 113.21 27.072 111.617 34.0898C109.724 42.4124 107.05 50.7585 104.963 54.3027C103.594 56.6302 101.654 56.3187 100.026 58.4699C97.3285 62.0258 94.5073 65.4877 91.7625 69.0083C92.5677 67.9798 93.3671 66.9571 94.1723 65.9285C89.9698 71.3123 86.0613 76.9371 82.9285 83.0204C82.088 84.6544 81.3063 86.3177 80.5951 88.0105C81.1006 86.8055 81.6002 85.6065 82.1057 84.4016C80.5187 88.2162 79.2903 92.2011 78.7437 96.3037C78.9083 95.0518 79.0729 93.8057 79.2374 92.5538C78.8906 95.2046 78.8378 97.8906 79.1728 100.541C79.0141 99.3071 78.8554 98.0787 78.6967 96.8444C78.9788 99.0191 79.5195 101.153 80.3365 103.192C79.8722 102.04 79.4079 100.888 78.9435 99.7362C79.7547 101.735 80.8244 103.621 82.1115 105.349C81.3592 104.338 80.601 103.333 79.8487 102.322C81.0477 103.921 82.4231 105.384 83.9336 106.695C84.3274 107.036 84.7271 107.365 85.1326 107.683C84.104 106.877 83.0813 106.078 82.0528 105.273C83.8454 106.666 85.785 107.877 87.8363 108.846C88.1595 108.999 88.4828 109.146 88.812 109.281C87.6071 108.776 86.408 108.276 85.2031 107.771C85.3971 107.853 85.5969 107.935 85.7968 108.006C87.7775 108.458 89.4938 109.364 90.9455 110.721C92.5736 111.779 93.8431 113.19 94.7483 114.953C95.7533 116.605 96.2941 118.368 96.3822 120.261C96.7819 122.124 96.6996 123.993 96.1295 125.856C95.624 127.061 95.1244 128.26 94.619 129.465C93.2848 131.734 91.4686 133.514 89.1822 134.808C88.0302 135.272 86.8782 135.736 85.7262 136.2C83.2459 136.841 80.7597 136.835 78.2794 136.183C78.2617 136.177 65.6191 131.598 59.2537 123.064Z" fill="#648CFF"/>
<path d="M59.2004 67.5451L58.1189 122.13C58.0366 126.421 54.4395 129.8 50.1548 129.618L18.4102 128.295L19.7737 59.5869L51.5889 59.7397C55.8619 59.7691 59.2885 63.278 59.2004 67.5451Z" fill="#FED4FF"/>
<path d="M41.9317 55.8783L40.3977 133.156L0.847656 131.422L2.35231 55.7549L41.9317 55.8783Z" fill="#FDCD01"/>
<path d="M41.9317 55.8783L40.3977 133.156L0.847656 131.422L2.35231 55.7549L41.9317 55.8783Z" fill="#FDCD01"/>
<mask id="mask0" mask-type="alpha" maskUnits="userSpaceOnUse" x="0" y="55" width="42" height="79">
<path d="M41.9317 55.8783L40.3977 133.156L0.847656 131.422L2.35231 55.7549L41.9317 55.8783Z" fill="#FDCD01"/>
</mask>
<g mask="url(#mask0)">
<path d="M9.74624 148.515C3.93922 141.943 -1.37996 134.973 -6.11727 127.59C-8.22143 124.317 -10.3138 120.984 -12.1006 117.522C-12.5885 116.576 -14.3282 114.495 -11.8479 114.225C-11.4365 114.178 -10.4667 114.854 -10.0317 115.089C-8.22143 116.059 -6.49931 117.246 -4.8536 118.469C6.09041 126.603 13.9487 138.476 26.0564 145.117C30.6938 147.662 38.4934 149.831 41.5791 143.73C42.8898 141.138 42.0434 138.229 41.2617 135.619C40.1449 131.893 38.8107 128.19 37.0122 124.734C31.0465 113.279 19.5676 107.378 8.92338 101.024C3.28093 97.6503 -2.27923 93.9944 -6.62862 88.9926C-7.5749 87.8994 -8.56821 86.7533 -9.25 85.4779C-9.56151 84.896 -10.2903 83.3678 -10.0611 82.6449C-9.17947 79.8824 -6.52282 81.8632 -5.44723 82.4921C-1.80902 84.6197 1.72926 86.9296 5.2029 89.3041C18.5802 98.4614 30.9054 109.017 43.7538 118.874C47.0687 121.419 50.3836 124.223 53.9513 126.409C55.9556 127.638 58.4241 128.178 59.5879 125.604C62.2681 119.679 55.9849 112.726 52.7111 108.512C42.8956 95.8811 31.7048 84.3317 19.3796 74.1401C16.0117 71.3541 12.4617 68.7739 9.17024 65.8939C7.43637 64.3774 5.74951 62.7729 4.30363 60.9743C2.67555 58.9525 0.530241 55.0263 4.574 54.1916C6.35489 53.8214 9.74624 55.7257 11.292 56.4251C12.8084 57.1128 14.2837 57.8945 15.7178 58.7409C19.0034 60.6687 22.0832 62.9316 24.9985 65.3825C36.4656 75.0217 45.6816 87.0413 58.142 95.5343C58.671 95.8929 59.5644 95.6637 59.8524 95.0877C64.4721 85.6836 55.5618 75.2685 50.3543 68.0979C47.2333 63.8014 44.0653 59.505 41.5732 54.797C39.9098 51.6584 34.8669 41.8253 40.6974 39.8739C41.8906 39.4743 41.4086 37.6346 40.1743 37.9755C30.3177 40.685 39.1164 55.9725 42.0728 60.6217C45.2055 65.5412 48.8378 70.1081 52.1058 74.9277C55.644 80.1528 60.6635 87.3117 57.6953 93.824C58.2654 93.677 58.8356 93.5242 59.4057 93.3773C47.3861 85.6777 38.4581 74.287 27.7845 64.9828C22.8885 60.7157 17.628 56.813 11.6917 54.0976C9.24077 52.975 6.16681 51.3587 3.39261 51.8406C0.765343 52.2932 -0.510084 54.5678 -0.227962 57.0893C0.0835485 59.8988 2.00551 62.2145 3.8393 64.2246C6.74281 67.4103 10.1753 70.0434 13.5431 72.7118C20.0731 77.8899 26.3327 83.3796 32.2514 89.2512C38.4228 95.3698 44.2298 101.859 49.6254 108.671C52.0352 111.709 54.7977 114.866 56.4434 118.416C56.9489 119.509 57.6013 121.137 57.5484 122.383C57.5484 122.7 57.5425 123.018 57.5425 123.335C56.8607 124.852 56.079 125.163 55.1974 124.276C54.3921 124.052 53.293 122.941 52.6112 122.454C51.4651 121.637 50.3249 120.814 49.1905 119.979C35.2842 109.776 22.1831 98.5084 8.03 88.64C4.862 86.43 1.6411 84.2906 -1.65033 82.2628C-3.87204 80.8934 -7.35743 77.8958 -10.2139 79.23C-15.3685 81.6398 -9.90829 88.7987 -7.77474 91.2496C0.994568 101.335 14.3307 105.679 24.5871 113.884C30.7467 118.809 34.8316 124.946 37.4236 132.387C38.6638 135.948 41.6614 142.226 37.0769 144.5C32.8803 146.581 27.7903 143.278 24.3578 141.015C17.487 136.489 11.9327 130.318 6.0904 124.599C3.33383 121.901 0.506731 119.28 -2.54959 116.923C-5.12396 114.936 -8.52707 111.997 -11.8596 111.521C-14.6338 111.127 -16.4147 113.337 -15.7271 116C-14.7279 119.873 -11.6363 123.794 -9.54388 127.132C-4.39515 135.349 1.47065 143.101 7.90657 150.354C9.02918 151.589 10.8453 149.755 9.74624 148.515Z" fill="#00CD73"/>
</g>
</g>
<defs>
<clipPath id="clip0">
<rect width="162.808" height="144" fill="white" transform="translate(0.595703)"/>
</clipPath>
</defs>
</svg>
