<svg width="192" height="193" viewBox="0 0 192 193" fill="none" xmlns="http://www.w3.org/2000/svg">
<g clip-path="url(#clip0)">
<ellipse cx="100.8" cy="108.384" rx="84.16" ry="84.585" fill="#FFE6EB"/>
<mask id="mask0" mask-type="alpha" maskUnits="userSpaceOnUse" x="16" y="23" width="169" height="170">
<ellipse cx="100.8" cy="108.384" rx="84.16" ry="84.585" fill="#FFE6EB"/>
</mask>
<g mask="url(#mask0)">
<path d="M70.2759 87.2257C70.6953 87.1168 71.1303 87.0817 71.5617 87.1219C71.5193 83.8316 72.5795 80.6227 74.5717 78.0113C76.5639 75.4 79.3723 73.5382 82.5449 72.7255C86.3198 71.7365 90.3305 72.2844 93.7057 74.2503C97.081 76.2161 99.5482 79.441 100.571 83.2244C101.063 85.0934 101.181 87.0418 100.918 88.9569C100.656 90.8719 100.018 92.7156 99.0414 94.3813C98.0651 96.0469 96.7698 97.5014 95.2304 98.6606C93.6911 99.8197 91.9384 100.661 90.0736 101.134C86.8867 101.966 83.5152 101.709 80.4899 100.403C77.4647 99.0966 74.9577 96.8162 73.3638 93.9206C73.0059 94.1604 72.6093 94.336 72.1916 94.4396C71.2304 94.6933 70.2083 94.5548 69.3483 94.0541C68.4883 93.5534 67.8602 92.7312 67.6011 91.7668C67.4779 91.2921 67.4495 90.7975 67.5175 90.3117C67.5854 89.8259 67.7485 89.3584 67.9972 88.9362C68.2458 88.514 68.5752 88.1455 68.9663 87.8519C69.3574 87.5584 69.8025 87.3455 70.2759 87.2257Z" fill="#648CFF"/>
<path d="M82.5442 72.7255C86.3191 71.7365 90.3298 72.2844 93.7051 74.2503C97.0803 76.2161 99.5475 79.441 100.571 83.2244C100.721 83.7912 100.836 84.3666 100.917 84.9474C87.2277 87.5423 78.3978 74.6042 78.3564 74.5678C79.6495 73.7404 81.0621 73.1189 82.5442 72.7255Z" fill="black"/>
<path d="M71.557 87.1219C71.5228 84.6143 72.1302 82.1399 73.321 79.9361C74.5119 77.7323 76.2462 75.873 78.3577 74.5366C80.7949 82.8974 77.2836 87.2257 74.6036 89.203C74.315 88.6234 73.8834 88.1279 73.3501 87.7636C72.8167 87.3993 72.1994 87.1783 71.557 87.1219Z" fill="black"/>
<path d="M72.0125 75.2656C72.4536 71.9473 70.1073 68.8942 66.7717 68.4463C63.4362 67.9984 60.3746 70.3253 59.9335 73.6436C59.4924 76.9619 61.8388 80.0149 65.1743 80.4628C68.5098 80.9107 71.5714 78.5838 72.0125 75.2656Z" fill="black"/>
<path d="M96.6503 64.1976C97.0833 60.8833 94.7336 57.8401 91.4021 57.4005C88.0706 56.9608 85.0188 59.2911 84.5858 62.6054C84.1528 65.9197 86.5025 68.9629 89.834 69.4026C93.1655 69.8422 96.2173 67.5119 96.6503 64.1976Z" fill="black"/>
<path d="M170.314 121.932L150.523 115.086C148.822 114.497 147.003 114.333 145.224 114.609C143.445 114.884 141.76 115.591 140.314 116.668C138.868 117.745 137.704 119.16 136.924 120.79C136.144 122.421 135.771 124.218 135.837 126.025L136.148 133.774L125.919 121.3L121.885 115.804C119.883 113.237 117.373 111.115 114.514 109.571C111.656 108.027 108.51 107.094 105.275 106.832L62.0301 105.37C60.8817 105.318 59.731 105.392 58.5983 105.59C55.9614 106.043 53.4794 107.153 51.3785 108.817C49.2776 110.482 47.6247 112.649 46.5704 115.12L45.4727 113.897L44.1503 112.402L33.2663 100.326C31.8334 98.7407 30.0033 97.5709 27.9669 96.9391C25.9306 96.3072 23.7629 96.2365 21.6901 96.7342C19.6172 97.2319 17.7154 98.2799 16.1832 99.7686C14.651 101.257 13.5446 103.132 12.9796 105.198C9.08487 119.526 4.54879 136.306 3.93384 138.566C2.52931 142.634 2.55753 147.064 4.01378 151.114C5.47002 155.164 8.26595 158.589 11.9338 160.815C15.6016 163.041 19.9188 163.934 24.1631 163.344C28.4074 162.753 32.3213 160.716 35.25 157.573L48.3293 144.76L37.4255 176.148L131.199 214.196L130.085 171.801C135.963 175.058 142.046 176.34 147.396 173.257C155.536 168.565 168.02 150.774 175.968 138.539C176.886 137.122 177.471 135.513 177.679 133.834C177.886 132.156 177.711 130.452 177.166 128.851C176.622 127.251 175.722 125.796 174.534 124.597C173.347 123.398 171.904 122.487 170.314 121.932Z" fill="#FF0828"/>
<path d="M68.3923 74.2679C67.6715 74.5603 66.9442 74.8394 66.2168 75.1186C65.6316 74.9709 65.0265 74.9193 64.4248 74.9657C56.49 75.4841 46.9087 74.5869 41.6386 81.8175C41.4931 82.0235 41.3543 82.2362 41.2154 82.4821C41.2154 82.4821 34.6031 90.9421 29.6504 97.6411C31.0069 98.3143 32.2232 99.2414 33.2343 100.372L47.9799 116.741C49.4103 114.567 50.3284 112.094 50.6645 109.51C54.0957 107.22 57.3256 104.639 60.3186 101.795C65.2646 97.0629 57.8323 89.4734 52.8995 94.1919C52.3573 94.7169 51.7952 95.2286 51.2265 95.7271C55.9412 89.0414 65.5754 86.9015 72.8358 83.9774C79.2101 81.3789 74.7203 71.7359 68.3923 74.2679Z" fill="#648CFF"/>
<path fill-rule="evenodd" clip-rule="evenodd" d="M68.8698 76.7583C69.1773 76.5604 69.5863 76.6505 69.7832 76.9596C70.8542 78.6405 71.1302 80.8351 70.4885 82.6757C69.832 84.5591 68.2208 86.0411 65.6461 86.2086C65.6459 86.2086 65.6463 86.2086 65.6461 86.2086L57.2886 86.7668C56.8815 86.7937 56.4874 86.812 56.106 86.8296C55.0007 86.8807 53.9988 86.9271 53.0738 87.1667C51.9025 87.4702 50.9313 88.0734 50.2439 89.4405L50.2431 89.4422C49.4931 90.9235 48.8129 92.4611 48.1698 94.0441C48.0318 94.3839 47.6458 94.5469 47.3077 94.4081C46.9696 94.2694 46.8074 93.8814 46.9455 93.5416C47.5983 91.9349 48.2933 90.3626 49.064 88.8403C49.9504 87.0778 51.2669 86.2623 52.7436 85.8797C53.8139 85.6024 55.0128 85.5475 56.155 85.4953C56.5111 85.479 56.8618 85.463 57.2013 85.4405C57.2013 85.4405 57.2012 85.4406 57.2013 85.4405L65.5602 84.8823C67.5873 84.7505 68.7531 83.6341 69.2404 82.2362C69.7427 80.7955 69.5294 79.0259 68.6695 77.6764C68.4726 77.3673 68.5623 76.9562 68.8698 76.7583Z" fill="black"/>
</g>
<path d="M83.1086 98.1059C82.3732 101.455 81.7595 121.116 81.7595 121.116L103.912 119.191L88.9333 97.2678L83.1086 98.1059Z" fill="#648CFF"/>
<path d="M179.41 72.8927C178.53 72.1984 177.417 71.8739 176.303 71.9873C175.381 72.1059 174.517 72.5041 173.826 73.1288C173.581 73.0766 173.331 73.0532 173.081 73.0593C172.451 73.0808 171.833 73.2354 171.267 73.513C170.701 73.7906 170.199 74.1849 169.795 74.6702C169.44 75.1004 169.177 75.5988 169.021 76.1348C168.865 76.6709 168.82 77.2333 168.888 77.7874C169.064 78.9146 169.632 79.9422 170.491 80.6883L170.652 80.868C170.133 80.8552 169.616 80.9487 169.134 81.1428C168.07 81.5672 167.216 82.3977 166.759 83.4527C166.539 83.9585 166.42 84.503 166.409 85.055C166.398 85.6069 166.496 86.1555 166.697 86.6693C167.445 88.195 168.183 89.7283 168.914 91.2694C169.159 91.7712 169.394 92.2726 169.639 92.7744C167.25 96.7839 164.355 98.9045 162.868 100.246L159.03 103.708C155.297 106.761 153.591 103.146 153.591 103.146C153.074 101.986 152.47 100.867 151.783 99.7993C150.73 98.1545 146.722 94.8453 146.281 94.4648C145.869 94.0833 145.375 93.8027 144.837 93.6448C144.299 93.4869 143.732 93.4561 143.18 93.5548C142.048 93.7026 141.014 94.2773 140.288 95.1625C139.612 96.0448 139.298 97.1542 139.411 98.2618C139.572 99.3944 140.142 100.427 141.014 101.163C141.627 101.704 144.322 103.833 145.274 106.098C146.382 108.723 147.229 114.383 147.347 116.685C147.466 118.988 147.336 121.395 147.331 123.745L147.326 125.362C147.499 126.49 148.068 127.519 148.93 128.263C149.809 128.955 150.919 129.281 152.031 129.173C152.907 129.056 153.732 128.688 154.407 128.114L162.95 131.233L168.902 130.582L184.463 102.946C185.58 101.422 186.292 99.6378 186.531 97.7611C186.637 96.2687 186.614 94.7699 186.462 93.2817L186.159 87.9933C186.095 86.8368 186.046 85.6761 185.963 84.5185C185.832 83.348 185.245 82.2777 184.329 81.5427L184.047 81.288C183.62 80.9132 183.193 80.5383 182.766 80.1538L181.304 78.868L180.984 75.7921C180.849 74.6582 180.285 73.6202 179.41 72.8927Z" fill="#648CFF"/>
<path fill-rule="evenodd" clip-rule="evenodd" d="M181.431 79.6435C181.809 79.6168 182.137 79.9033 182.164 80.2835L182.547 85.8041L181.944 97.243C181.924 97.6235 181.601 97.9159 181.222 97.8959C180.843 97.876 180.553 97.5513 180.573 97.1707L181.171 85.8164L180.794 80.3802C180.767 80.0001 181.053 79.6702 181.431 79.6435Z" fill="black"/>
<path d="M170.477 121.938L150.702 115.121C149.002 114.534 147.185 114.37 145.407 114.645C143.63 114.919 141.946 115.623 140.501 116.696C139.056 117.769 137.894 119.178 137.114 120.802C136.335 122.426 135.962 124.215 136.028 126.016L136.339 133.733L126.118 121.31L122.088 115.836C120.087 113.279 117.579 111.166 114.723 109.628C111.866 108.09 108.723 107.161 105.491 106.9L62.2814 105.444C61.1338 105.392 59.9841 105.465 58.8523 105.662C56.2176 106.114 53.7376 107.219 51.6384 108.877C49.5393 110.535 47.8877 112.693 46.8343 115.154L45.7375 113.936L44.4161 112.447L33.5411 100.42C32.1093 98.8411 30.2807 97.6761 28.246 97.0468C26.2114 96.4175 24.0454 96.347 21.9743 96.8427C19.9031 97.3385 18.0029 98.3822 16.4719 99.8649C14.9409 101.348 13.8354 103.215 13.2709 105.272C9.37938 119.542 4.847 136.255 4.23255 138.506C2.82918 142.558 2.85737 146.969 4.31243 151.003C5.76748 155.037 8.56112 158.448 12.2259 160.665C15.8908 162.882 20.2045 163.771 24.4453 163.183C28.6861 162.595 32.5968 160.566 35.5231 157.436L48.5917 144.674L62.2814 135.308L130.122 177.564L130.28 171.607C136.154 174.85 142.232 176.128 147.577 173.056C155.71 168.383 168.184 150.665 176.126 138.479C177.043 137.067 177.628 135.465 177.836 133.793C178.043 132.121 177.868 130.424 177.324 128.83C176.779 127.236 175.88 125.787 174.694 124.593C173.507 123.399 172.065 122.491 170.477 121.938Z" fill="#FF0828"/>
<path fill-rule="evenodd" clip-rule="evenodd" d="M49.2361 117.87C49.5271 117.654 49.9334 117.722 50.1435 118.021C51.9756 120.631 52.7757 123.858 52.3822 127.051C51.9886 130.245 50.4307 133.165 48.0235 135.222L36.2651 145.249C35.9887 145.484 35.579 145.445 35.3498 145.161C35.1207 144.877 35.159 144.455 35.4353 144.22L47.1927 134.194C47.1928 134.194 47.1926 134.194 47.1927 134.194C49.3463 132.353 50.7404 129.74 51.0925 126.883C51.4446 124.026 50.7287 121.138 49.0895 118.803C48.8794 118.504 48.945 118.086 49.2361 117.87Z" fill="black"/>
<path d="M134.4 20.8517C133.396 20.8517 132.432 21.2527 131.722 21.9664C131.012 22.6801 130.613 23.6481 130.613 24.6575V39.8807C130.613 40.89 131.012 41.858 131.722 42.5718C132.432 43.2855 133.396 43.6865 134.4 43.6865C135.404 43.6865 136.367 43.2855 137.077 42.5718C137.788 41.858 138.187 40.89 138.187 39.8807V24.6575C138.187 23.6481 137.788 22.6801 137.077 21.9664C136.367 21.2527 135.404 20.8517 134.4 20.8517ZM137.884 53.6576C137.801 53.4151 137.686 53.1847 137.543 52.9726L137.088 52.4017C136.556 51.8736 135.88 51.5159 135.145 51.3737C134.411 51.2314 133.651 51.3111 132.961 51.6025C132.502 51.7952 132.079 52.0655 131.711 52.4017C131.36 52.7573 131.083 53.1791 130.894 53.6428C130.706 54.1064 130.61 54.603 130.613 55.1038C130.619 55.6012 130.722 56.0925 130.916 56.55C131.086 57.0223 131.358 57.4512 131.711 57.8064C132.064 58.1615 132.491 58.4342 132.961 58.6052C133.414 58.8065 133.904 58.9105 134.4 58.9105C134.895 58.9105 135.386 58.8065 135.839 58.6052C136.309 58.4342 136.735 58.1615 137.089 57.8064C137.442 57.4512 137.714 57.0223 137.884 56.55C138.078 56.0925 138.181 55.6012 138.187 55.1038C138.205 54.8504 138.205 54.596 138.187 54.3427C138.121 54.1 138.019 53.8689 137.884 53.6576ZM134.4 1.82275C126.911 1.82275 119.589 4.05481 113.362 8.23667C107.135 12.4185 102.282 18.3624 99.4156 25.3165C96.5496 32.2707 95.7997 39.9229 97.2608 47.3054C98.7219 54.6879 102.328 61.4692 107.624 66.7917C112.92 72.1142 119.667 75.7388 127.012 77.2073C134.358 78.6758 141.972 77.9221 148.891 75.0416C155.81 72.1611 161.724 67.2831 165.885 61.0245C170.046 54.7659 172.267 47.4078 172.267 39.8807C172.267 34.8828 171.287 29.9339 169.384 25.3165C167.481 20.6991 164.692 16.5037 161.176 12.9697C157.659 9.43565 153.485 6.63233 148.891 4.71974C144.297 2.80715 139.373 1.82275 134.4 1.82275ZM134.4 70.327C128.408 70.327 122.552 68.5413 117.57 65.1959C112.588 61.8504 108.705 57.0953 106.412 51.532C104.12 45.9686 103.52 39.8469 104.689 33.9409C105.858 28.0349 108.743 22.6099 112.979 18.3519C117.216 14.0939 122.614 11.1941 128.49 10.0194C134.366 8.84458 140.457 9.44751 145.993 11.7519C151.528 14.0563 156.259 17.9587 159.588 22.9656C162.917 27.9725 164.693 33.8589 164.693 39.8807C164.693 47.9555 161.502 55.6997 155.821 61.4095C150.139 67.1193 142.434 70.327 134.4 70.327Z" fill="#FF2048"/>
</g>
<defs>
<clipPath id="clip0">
<rect width="192" height="192.97" fill="white"/>
</clipPath>
</defs>
</svg>
