<svg width="192" height="192" viewBox="0 0 192 192" fill="none" xmlns="http://www.w3.org/2000/svg">
<g clip-path="url(#clip0)">
<ellipse cx="95.8969" cy="107.84" rx="83.9344" ry="84.16" fill="#E3F7EA"/>
<path d="M121.967 35.1419L105.773 51.3736L99.5448 45.1451C99.2064 44.75 98.79 44.4291 98.3217 44.2025C97.8533 43.9759 97.3432 43.8486 96.8234 43.8285C96.3035 43.8084 95.7851 43.896 95.3007 44.0858C94.8163 44.2756 94.3764 44.5634 94.0085 44.9313C93.6406 45.2992 93.3528 45.7391 93.163 46.2235C92.9732 46.7079 92.8856 47.2263 92.9057 47.7462C92.9258 48.266 93.0531 48.7761 93.2797 49.2445C93.5063 49.7128 93.8272 50.1292 94.2223 50.4676L103.093 59.3761C103.446 59.726 103.864 60.0028 104.324 60.1906C104.784 60.3785 105.276 60.4737 105.773 60.4708C106.764 60.4667 107.712 60.0735 108.416 59.3761L127.29 40.5021C127.643 40.1512 127.924 39.7337 128.116 39.2737C128.307 38.8137 128.406 38.3204 128.406 37.822C128.406 37.3237 128.307 36.8303 128.116 36.3703C127.924 35.9103 127.643 35.4928 127.29 35.1419C126.582 34.4389 125.626 34.0442 124.628 34.0442C123.631 34.0442 122.674 34.4389 121.967 35.1419ZM111.7 9.51105C104.234 9.51105 96.9356 11.7249 90.728 15.8727C84.5204 20.0205 79.6821 25.916 76.8251 32.8135C73.968 39.711 73.2205 47.3009 74.677 54.6233C76.1335 61.9457 79.7287 68.6717 85.0078 73.9509C90.287 79.23 97.013 82.8252 104.335 84.2817C111.658 85.7382 119.248 84.9907 126.145 82.1336C133.043 79.2766 138.938 74.4383 143.086 68.2307C147.234 62.0231 149.448 54.7249 149.448 47.259C149.448 42.3019 148.471 37.3933 146.574 32.8135C144.677 28.2337 141.897 24.0724 138.392 20.5672C134.886 17.062 130.725 14.2815 126.145 12.3844C121.565 10.4874 116.657 9.51105 111.7 9.51105V9.51105ZM111.7 77.4574C105.727 77.4574 99.8884 75.6863 94.9223 72.3681C89.9562 69.0498 86.0856 64.3335 83.8 58.8154C81.5143 53.2974 80.9163 47.2255 82.0815 41.3676C83.2467 35.5097 86.1229 30.1289 90.3462 25.9055C94.5695 21.6822 99.9503 18.8061 105.808 17.6409C111.666 16.4757 117.738 17.0737 123.256 19.3594C128.774 21.645 133.49 25.5156 136.809 30.4817C140.127 35.4478 141.898 41.2864 141.898 47.259C141.898 55.2681 138.716 62.9492 133.053 68.6125C127.39 74.2758 119.709 77.4574 111.7 77.4574V77.4574Z" fill="#00AC4A"/>
<g clip-path="url(#clip1)">
<path d="M152.904 85.6883C153.636 84.9863 147.708 83.527 148.425 82.8319C148.89 82.3786 156.041 82.6794 156.521 82.2243L156.959 81.8053L157.03 81.7401C157.702 81.1071 156.332 82.5107 156.748 82.0321C157.085 81.6403 157.419 81.2542 157.722 80.8353C157.855 80.6436 157.988 80.4467 158.118 80.2709C158.247 80.0952 158.279 80.0086 158.356 79.8751C157.963 80.5896 157.851 80.784 158.022 80.4323C158.218 79.9742 158.437 79.5444 158.636 79.0704C158.715 78.8591 158.793 78.6426 158.861 78.4274C159.197 77.3517 158.761 78.9884 158.814 78.6453C158.888 78.1652 159.008 77.6899 159.065 77.2013C159.092 76.9806 159.107 76.7559 159.122 76.5313C159.189 75.4145 159.167 77.1376 159.151 76.7767C159.103 75.7631 158.963 74.756 158.732 73.7679L159.076 75.0286C158.775 73.9261 158.334 72.8664 157.765 71.8752L158.415 73.0017C158.098 72.4642 157.743 71.9497 157.354 71.4619C157.155 71.2157 156.937 70.9923 156.726 70.7422C156.126 70.0401 157.637 71.5791 156.942 70.9451C155.923 70.1305 155.243 68.9673 155.032 67.6802C154.875 66.4218 155.207 65.1512 155.96 64.1308C157.493 62.2522 160.768 61.3157 162.775 63.1494C167.091 67.1027 169.427 72.6863 168.72 78.5731C168.345 81.4528 167.274 84.1979 165.6 86.5706C164.521 87.9753 163.306 89.2697 161.972 90.4348L158.941 93.3277C158.078 94.1487 156.432 94.4806 155.296 94.3333C154.038 94.1613 152.895 93.5139 152.1 92.5243C150.442 90.2147 150.931 87.5716 152.904 85.6934L152.904 85.6883Z" fill="#648CFF"/>
<path d="M164.39 44.652C163.944 49.135 163.752 51.9817 163.309 56.4436L161.188 77.8454L160.722 82.74C160.469 85.2778 157.802 87.382 155.267 86.9365C153.999 86.7452 152.854 86.0705 152.071 85.0537C151.289 84.037 150.931 82.757 151.071 81.4819L152.4 68.0444C153.123 60.907 153.566 55.4242 154.273 48.2885L154.739 43.3939C154.992 40.8561 157.664 38.7513 160.198 39.1968C161.467 39.3881 162.612 40.0628 163.394 41.0796C164.177 42.0963 164.535 43.3763 164.395 44.6514L164.39 44.652Z" fill="#648CFF"/>
<path d="M147.954 44.6781C149.03 48.5223 155.466 71.6674 155.466 71.6674C155.989 73.0419 156.258 74.503 156.656 75.918C157.02 77.2178 157.213 78.3354 156.681 79.6412C156.195 80.837 155.254 81.7908 154.065 82.2929C152.876 82.7951 151.536 82.8045 150.34 82.3191C149.245 81.8198 148.024 80.9101 147.686 79.7006L144.459 68.1576C142.743 62.0249 141.889 58.8286 140.173 52.6959L139.003 48.4429C138.639 47.1431 138.447 46.0255 138.978 44.7197C139.218 44.1274 139.572 43.5882 140.021 43.133C140.469 42.6778 141.003 42.3154 141.591 42.0667C142.18 41.8181 142.812 41.6879 143.451 41.6837C144.09 41.6795 144.723 41.8014 145.315 42.0424C146.41 42.5417 147.63 43.4514 147.968 44.6609L147.954 44.6781Z" fill="#648CFF"/>
<path d="M160.403 64.5455L153.386 74.231C153.021 74.7255 152.757 75.2871 152.609 75.8837C152.46 76.4803 152.431 77.1004 152.522 77.7083C152.614 78.3163 152.824 78.9003 153.141 79.427C153.458 79.9537 153.876 80.4128 154.37 80.7781C154.865 81.1434 155.426 81.4077 156.023 81.5559C156.62 81.7042 157.24 81.7335 157.848 81.6421C158.456 81.5507 159.04 81.3405 159.566 81.0234C160.093 80.7064 160.552 80.2887 160.918 79.7942L167.928 70.0991C168.293 69.6049 168.558 69.0436 168.706 68.4473C168.855 67.8509 168.884 67.2312 168.793 66.6234C168.702 66.0157 168.492 65.4318 168.175 64.9052C167.859 64.3786 167.441 63.9195 166.947 63.5542C166.453 63.1888 165.892 62.9244 165.295 62.776C164.699 62.6276 164.079 62.5981 163.471 62.6892C162.864 62.7803 162.28 62.9902 161.753 63.307C161.227 63.6237 160.767 64.0411 160.402 64.5352L160.403 64.5455Z" fill="#648CFF"/>
<path fill-rule="evenodd" clip-rule="evenodd" d="M166.672 71.8743C166.902 72.0409 166.954 72.3627 166.787 72.5931L161.339 80.1315L161.332 80.1409C160.504 81.2331 159.282 81.9587 157.927 82.1629C156.572 82.3672 155.19 82.0339 154.077 81.2342L154.072 81.2301L154.072 81.2301C153.515 80.8189 153.05 80.2974 152.704 79.6983C152.562 79.4521 152.646 79.1373 152.892 78.9951C153.139 78.853 153.453 78.9374 153.595 79.1836C153.87 79.6593 154.239 80.0733 154.681 80.4001C155.575 81.0417 156.685 81.309 157.774 81.1449C158.862 80.981 159.843 80.3993 160.508 79.5235L165.953 71.99C166.12 71.7596 166.441 71.7078 166.672 71.8743Z" fill="black"/>
<path d="M150.578 83.2021L152.65 75.3786L153.292 72.9717C153.943 70.5118 152.615 67.5677 149.995 66.9198C147.497 66.299 144.642 67.5442 143.943 70.2168L139.414 87.3286L138.778 89.7349C138.516 90.6558 138.53 91.6332 138.819 92.5461C139.107 93.4589 139.658 94.2669 140.401 94.87C141.145 95.473 142.049 95.8445 143.002 95.9384C143.954 96.0324 144.914 95.8446 145.761 95.3983L151.695 92.2031C153.943 90.9925 155.002 87.858 153.656 85.6052C152.311 83.3524 150.578 83.2021 150.578 83.2021Z" fill="#648CFF"/>
<path fill-rule="evenodd" clip-rule="evenodd" d="M147.257 66.4337C148.195 66.1892 149.179 66.1847 150.119 66.4208C153.073 67.1519 154.498 70.4246 153.789 73.1039L153.789 73.1048L151.075 83.3344C151.002 83.6092 150.72 83.773 150.446 83.7002C150.171 83.6274 150.007 83.3456 150.08 83.0708L152.794 72.8404C152.794 72.8403 152.794 72.8401 152.794 72.8399C153.387 70.5999 152.157 67.9851 149.871 67.42L149.869 67.4195C149.097 67.2253 148.288 67.2289 147.517 67.4299C146.746 67.6309 146.039 68.0229 145.459 68.5696C145.253 68.7647 144.927 68.7553 144.732 68.5486C144.537 68.3419 144.546 68.0161 144.753 67.8209C145.458 67.1555 146.319 66.6784 147.257 66.4337Z" fill="black"/>
<path d="M166.283 89.8272L138.613 84.1222C136.858 83.7377 135.023 84.0386 133.483 84.9633C131.944 85.888 130.816 87.3665 130.331 89.0959C129.933 90.5937 130.051 92.1817 130.666 93.6043C131.281 95.0269 132.356 96.2012 133.719 96.9384C133.85 97.0087 133.964 97.1075 134.052 97.2275C134.14 97.3475 134.201 97.4856 134.228 97.6319C134.256 97.7781 134.251 97.9288 134.213 98.0727C134.175 98.2167 134.106 98.3504 134.009 98.464C133.256 99.3625 132.717 100.422 132.436 101.56L122.78 140.88L162.402 159.056L165.242 107.102C165.238 106.323 165.112 105.55 164.871 104.81C164.826 104.669 164.813 104.52 164.833 104.374C164.853 104.228 164.906 104.088 164.987 103.964C165.068 103.841 165.176 103.737 165.302 103.66C165.428 103.583 165.57 103.536 165.717 103.521C167.254 103.378 168.699 102.724 169.821 101.665C170.944 100.605 171.679 99.2003 171.911 97.6742C172.148 95.8956 171.698 94.0935 170.652 92.6354C169.607 91.1772 168.044 90.1729 166.283 89.8272Z" fill="#00CD73"/>
<path d="M96.2573 90.9915L136.979 115.483L115.776 152.329L85.9315 101.369L96.2573 90.9915Z" fill="#00CD73"/>
<path d="M39.8512 82.1124C39.8431 81.3491 40.1204 80.6103 40.6289 80.0409C41.1373 79.4715 41.8401 79.1126 42.5995 79.0346C42.5081 78.3835 42.4597 77.7272 42.4545 77.0698C42.4213 74.2097 43.1451 71.3918 44.5526 68.9018C45.96 66.4119 48.0011 64.3385 50.4686 62.892C52.9361 61.4456 55.7423 60.6775 58.6025 60.6658C61.4627 60.654 64.2751 61.399 66.7544 62.8252C69.2338 64.2513 71.2917 66.3079 72.7196 68.7862C74.1474 71.2646 74.8944 74.0765 74.8846 76.9367C74.8748 79.7969 74.1087 82.6036 72.6639 85.0721C71.2191 87.5406 69.1472 89.5831 66.6581 90.9923L74.8899 102.477L63.9091 107.314C63.9091 107.314 62.5404 98.0345 61.7673 92.7901C60.81 92.9818 59.8366 93.0822 58.8603 93.0897C55.9288 93.1238 53.0431 92.3615 50.511 90.8842C47.9789 89.4068 45.8953 87.2697 44.4826 84.701C44.0169 84.9802 43.4861 85.132 42.9432 85.1411C42.1316 85.1493 41.35 84.8349 40.7702 84.2669C40.1904 83.699 39.8598 82.924 39.8512 82.1124Z" fill="#648CFF"/>
<path d="M42.6216 79.0305L42.8712 78.9775C43.3015 78.9727 43.7279 79.0594 44.1221 79.2318C44.5164 79.4041 44.8696 79.6583 45.1583 79.9774C48.2793 78.0677 53.4619 73.1578 52.7318 61.7589C53.1966 63.361 56.8063 73.0489 74.4004 73.0333C73.4464 69.176 71.1092 65.8032 67.8325 63.5552C64.5559 61.3073 60.5679 60.3407 56.6256 60.839C52.6834 61.3373 49.0613 63.2658 46.4471 66.2583C43.8328 69.2509 42.4084 73.0991 42.4441 77.0726C42.4493 77.73 42.4977 78.3863 42.5891 79.0374" fill="#333132"/>
<path d="M77.0858 58.3357L75.8766 56.3247L67.0415 61.6016C64.7453 58.6513 61.452 56.6396 57.7788 55.9436C54.1056 55.2475 50.3046 55.9149 47.0882 57.8207C45.3518 58.8491 43.8351 60.2095 42.6247 61.8243C41.4144 63.4391 40.534 65.2766 40.034 67.2317C39.5339 69.1869 39.4241 71.2214 39.7106 73.219C39.9971 75.2166 40.6745 77.1382 41.7039 78.874L41.8946 79.185L41.9154 79.2826L77.0858 58.3357Z" fill="#00CD73"/>
<path d="M89.6789 90.5849L153.137 170.38C126.627 193.287 94.1982 195.86 69.4904 187.624L45.4623 108.369L89.6789 90.5849Z" fill="#00CD73"/>
<path d="M59.2708 119.68C60.0351 113.96 55.9695 108.697 50.1902 107.924C44.4108 107.152 39.1062 111.163 38.3419 116.884C37.5777 122.604 41.6432 127.867 47.4226 128.639C53.2019 129.411 58.5066 125.4 59.2708 119.68Z" fill="#00CD73"/>
<path d="M64.6301 177.328C69.4224 165.467 63.5914 151.926 51.6061 147.083C39.6209 142.241 26.02 147.931 21.2278 159.792C16.4355 171.654 22.2665 185.195 34.2517 190.037C46.2369 194.879 59.8378 189.189 64.6301 177.328Z" fill="#00CD73"/>
<path d="M38.7397 115.123L21.7994 158.372L64.2402 169.367L59.2111 116.569L38.7397 115.123Z" fill="#00CD73"/>
<path d="M99.7506 98.3473C100.295 94.2045 97.3407 90.4002 93.1528 89.8503C88.965 89.3004 85.129 92.213 84.585 96.3559C84.041 100.499 86.9949 104.303 91.1828 104.853C95.3707 105.403 99.2066 102.49 99.7506 98.3473Z" fill="#00CD73"/>
<path d="M138.811 140.804L137.128 138.286C136.353 137.133 135.209 136.277 133.885 135.857C132.56 135.438 131.132 135.479 129.834 135.975L105.162 142.837C105.162 142.837 107.067 152.967 107.067 152.931C107.067 152.895 138.811 140.804 138.811 140.804Z" fill="#648CFF"/>
<path d="M161.383 168.157C162.326 166.978 162.956 165.58 163.215 164.093C163.475 162.605 163.354 161.077 162.865 159.648C162.865 159.648 159.206 150.249 157.682 147.541C156.158 144.834 152.509 142.548 149.019 141.514C145.863 140.577 141.987 140.947 138.688 140.824C130.452 140.51 109.404 143.228 107.221 143.109C104.298 142.955 101.945 142.286 102.213 145.045C102.257 145.509 102.351 145.966 102.496 146.409L101.286 146.821L97.4619 165.259C97.4619 165.259 104.154 180.187 120.625 174.473C135.605 169.269 140.556 174.329 141.03 174.988C141.544 175.771 141.825 176.686 141.838 177.623C141.838 180.603 144.927 183.105 147.696 182.873C150.965 182.596 153.255 180.264 153.281 177.211C153.291 176.815 153.264 176.419 153.199 176.027C154.913 177.824 158.238 178.194 160.23 176.83C162.907 175.003 163.354 172.023 161.939 169.264L161.383 168.157Z" fill="#648CFF"/>
<path fill-rule="evenodd" clip-rule="evenodd" d="M136.922 140.796C136.926 141.08 136.699 141.314 136.415 141.318C130.816 141.398 122.056 142.264 115.559 142.907C113.723 143.088 112.069 143.252 110.717 143.375C110.434 143.401 110.183 143.192 110.158 142.909C110.132 142.626 110.341 142.376 110.624 142.35C111.957 142.228 113.597 142.066 115.42 141.886C121.918 141.243 130.753 140.369 136.4 140.289C136.684 140.285 136.918 140.512 136.922 140.796Z" fill="black"/>
<path fill-rule="evenodd" clip-rule="evenodd" d="M146.118 149.253C142.909 147.834 139.958 147.925 138.135 148.175C137.853 148.213 137.594 148.016 137.555 147.735C137.516 147.453 137.713 147.194 137.995 147.155C139.93 146.89 143.091 146.788 146.535 148.311C149.984 149.836 153.66 152.966 156.663 159.059L160.633 165.854C160.777 166.099 160.694 166.414 160.448 166.558C160.203 166.701 159.888 166.618 159.744 166.373L155.765 159.563C155.759 159.552 155.753 159.542 155.748 159.531C152.834 153.611 149.319 150.668 146.118 149.253Z" fill="black"/>
<path fill-rule="evenodd" clip-rule="evenodd" d="M131.419 157.04C131.455 156.758 131.713 156.559 131.995 156.595C136.114 157.125 140.04 158.654 143.432 161.05L143.434 161.051C147.898 164.233 150.854 169.02 152.93 173.858L152.932 173.863L152.932 173.863L153.164 174.419C153.273 174.682 153.149 174.983 152.887 175.092C152.624 175.202 152.323 175.078 152.214 174.815L151.984 174.264C151.984 174.263 151.983 174.262 151.983 174.262C149.942 169.507 147.082 164.916 142.837 161.89C139.583 159.592 135.815 158.124 131.863 157.616C131.581 157.58 131.382 157.322 131.419 157.04Z" fill="black"/>
<path d="M45.519 191.691L90.0187 184.351C93.1673 183.489 95.8953 181.513 97.6946 178.789C99.4939 176.066 100.242 172.781 99.7989 169.547L97.6009 153.466C97.345 151.597 96.6991 149.802 95.7052 148.198C94.7113 146.594 93.3914 145.216 91.8312 144.155C90.271 143.094 88.5053 142.372 86.6483 142.037C84.7914 141.701 82.8847 141.76 81.0519 142.209L32.9952 153.991L45.519 191.691Z" fill="#00CD73"/>
<path d="M105.154 142.845C104.363 139.11 100.694 136.724 96.9605 137.516C93.227 138.307 90.8422 141.977 91.6341 145.712L97.5784 173.75C98.3702 177.485 102.039 179.871 105.772 179.079C109.506 178.288 111.891 174.618 111.099 170.883L105.154 142.845Z" fill="#00CD73"/>
<path fill-rule="evenodd" clip-rule="evenodd" d="M96.8611 137.005C98.2893 136.703 99.7749 136.828 101.132 137.365C102.49 137.902 103.659 138.828 104.494 140.025C104.656 140.258 104.599 140.579 104.366 140.742C104.132 140.904 103.811 140.847 103.649 140.614C102.93 139.582 101.923 138.785 100.754 138.323C99.5843 137.86 98.3046 137.752 97.0743 138.013L96.9677 137.509L97.074 138.013C96.1915 138.199 95.3586 138.57 94.6304 139.102C93.9021 139.634 93.2951 140.315 92.8494 141.099L92.8479 141.102C92.388 141.899 91.6695 142.516 90.8113 142.85C89.9531 143.183 89.0067 143.214 88.1288 142.936L88.1282 142.936C85.8658 142.217 83.4488 142.139 81.1444 142.708L81.1434 142.709L41.2197 152.489C40.9436 152.556 40.6649 152.387 40.5973 152.111C40.5297 151.835 40.6987 151.556 40.9748 151.489L80.8974 141.709C80.8977 141.709 80.8979 141.709 80.8982 141.709C83.3865 141.094 85.9963 141.179 88.4392 141.955C89.0934 142.162 89.7987 142.139 90.4383 141.89C91.0773 141.642 91.6124 141.183 91.9552 140.589C92.4728 139.679 93.1776 138.889 94.0231 138.271C94.8689 137.653 95.8362 137.222 96.8611 137.005Z" fill="black"/>
<path fill-rule="evenodd" clip-rule="evenodd" d="M105.786 181.337C107.211 181.019 108.511 180.288 109.522 179.235C110.534 178.183 111.213 176.856 111.475 175.42C111.526 175.14 111.341 174.872 111.061 174.821C110.781 174.77 110.513 174.955 110.462 175.235C110.237 176.472 109.652 177.615 108.78 178.522C107.909 179.428 106.789 180.058 105.562 180.332C104.682 180.529 103.77 180.537 102.886 180.356C102.003 180.174 101.168 179.807 100.437 179.279L100.434 179.277C99.6848 178.743 98.775 178.48 97.8558 178.533C96.9365 178.586 96.0629 178.951 95.3796 179.569L95.3792 179.569C93.6196 181.162 91.4537 182.238 89.1209 182.677L89.1198 182.677L77.4691 185.308C77.1899 185.361 77.0066 185.631 77.0597 185.91C77.1129 186.189 77.3823 186.373 77.6616 186.32L89.3112 183.689L89.3121 183.688C91.831 183.214 94.1697 182.053 96.0697 180.333C96.5789 179.873 97.2299 179.6 97.915 179.561C98.5995 179.522 99.2769 179.717 99.8353 180.115C100.684 180.728 101.654 181.154 102.679 181.364C103.705 181.575 104.764 181.566 105.786 181.337Z" fill="black"/>
<path fill-rule="evenodd" clip-rule="evenodd" d="M93.1356 148.651C93.4155 148.601 93.6827 148.788 93.7323 149.068L98.0974 173.657C98.1471 173.937 97.9604 174.204 97.6805 174.254C97.4006 174.304 97.1334 174.117 97.0837 173.837L92.7187 149.248C92.669 148.968 92.8556 148.701 93.1356 148.651Z" fill="black"/>
<path d="M73.3339 93.3435L60.4579 98.1936C58.9335 98.7678 58.1632 100.469 58.7374 101.993C59.3116 103.518 61.0129 104.288 62.5373 103.714L75.4133 98.8639C76.9377 98.2897 77.708 96.5884 77.1338 95.064C76.5596 93.5396 74.8583 92.7693 73.3339 93.3435Z" fill="#00CD73"/>
<path fill-rule="evenodd" clip-rule="evenodd" d="M77.3675 96.5028C77.6385 96.5888 77.7884 96.8782 77.7024 97.1492C77.5443 97.647 77.2756 98.1026 76.9164 98.4817C76.5571 98.8609 76.1167 99.1537 75.6281 99.3383L62.7592 104.187C62.2398 104.383 61.6808 104.452 61.1295 104.386C60.5782 104.321 60.0506 104.124 59.5912 103.812C59.356 103.653 59.2947 103.333 59.4544 103.098C59.614 102.862 59.9341 102.801 60.1693 102.961C60.4922 103.18 60.863 103.318 61.2505 103.364C61.638 103.41 62.0308 103.362 62.3959 103.224L75.2642 98.3753C75.2644 98.3752 75.2641 98.3753 75.2642 98.3753C75.6072 98.2456 75.9169 98.0398 76.1691 97.7736C76.4214 97.5073 76.6101 97.1873 76.7211 96.8377C76.8072 96.5667 77.0965 96.4168 77.3675 96.5028Z" fill="black"/>
<path fill-rule="evenodd" clip-rule="evenodd" d="M136.362 99.0519C136.415 98.7725 136.684 98.5885 136.963 98.6409L161.628 103.267C161.908 103.319 162.092 103.588 162.039 103.868C161.987 104.147 161.718 104.331 161.438 104.279L136.773 99.6527C136.494 99.6003 136.31 99.3313 136.362 99.0519Z" fill="black"/>
</g>
</g>
<defs>
<clipPath id="clip0">
<rect width="192" height="192" fill="white"/>
</clipPath>
<clipPath id="clip1">
<rect width="152.879" height="155.968" fill="white" transform="translate(19.5603 36.0322)"/>
</clipPath>
</defs>
</svg>
