<svg width="257" height="193" viewBox="0 0 257 193" fill="none" xmlns="http://www.w3.org/2000/svg">
<g clip-path="url(#clip0)">
<ellipse cx="130.896" cy="111.19" rx="74.8664" ry="81.8094" fill="#E0F4FC"/>
<path d="M143.632 46.3522C142.739 46.3522 141.882 46.7401 141.251 47.4304C140.619 48.1207 140.264 49.0569 140.264 50.0331V64.7568C140.264 65.733 140.619 66.6692 141.251 67.3595C141.882 68.0499 142.739 68.4377 143.632 68.4377C144.526 68.4377 145.383 68.0499 146.014 67.3595C146.646 66.6692 147.001 65.733 147.001 64.7568V50.0331C147.001 49.0569 146.646 48.1207 146.014 47.4304C145.383 46.7401 144.526 46.3522 143.632 46.3522ZM144.912 31.9231C144.092 31.5549 143.173 31.5549 142.352 31.9231C141.939 32.0983 141.561 32.361 141.241 32.6961C140.943 33.0539 140.704 33.4647 140.533 33.9108C140.345 34.3476 140.253 34.8267 140.264 35.3095C140.261 35.794 140.346 36.2742 140.514 36.7227C140.682 37.1711 140.929 37.579 141.241 37.923C141.568 38.2481 141.944 38.5096 142.352 38.696C142.863 38.9251 143.417 39.0137 143.966 38.954C144.515 38.8944 145.042 38.6883 145.501 38.3539C145.96 38.0195 146.337 37.567 146.598 37.0361C146.86 36.5053 146.998 35.9124 147.001 35.3095C146.989 34.335 146.64 33.4015 146.024 32.6961C145.704 32.361 145.326 32.0983 144.912 31.9231ZM143.632 13.2241C136.97 13.2241 130.457 15.3829 124.918 19.4276C119.378 23.4722 115.061 29.221 112.511 35.9469C109.962 42.6729 109.295 50.074 110.595 57.2142C111.894 64.3545 115.102 70.9132 119.813 76.0611C124.524 81.2089 130.527 84.7146 137.061 86.1349C143.595 87.5552 150.368 86.8262 156.523 84.0403C162.678 81.2543 167.939 76.5364 171.641 70.4831C175.342 64.4299 177.318 57.3133 177.318 50.0331C177.318 45.1993 176.446 40.4128 174.753 35.9469C173.061 31.4811 170.579 27.4233 167.451 24.0052C164.323 20.5872 160.61 17.8759 156.523 16.026C152.436 14.1762 148.056 13.2241 143.632 13.2241ZM143.632 79.4804C138.303 79.4804 133.092 77.7533 128.661 74.5176C124.229 71.2819 120.775 66.6829 118.736 61.3021C116.696 55.9213 116.162 50.0005 117.202 44.2883C118.242 38.5761 120.808 33.3291 124.577 29.2108C128.346 25.0925 133.148 22.288 138.375 21.1517C143.603 20.0155 149.021 20.5987 153.945 22.8275C158.869 25.0563 163.078 28.8306 166.039 33.6731C169 38.5157 170.581 44.209 170.581 50.0331C170.581 57.843 167.741 65.333 162.688 70.8555C157.634 76.3779 150.78 79.4804 143.632 79.4804Z" fill="#0097DC"/>
<g clip-path="url(#clip1)">
<path d="M131.217 94.8127L172.08 121.448L165.652 170.734L122.007 104.9L131.217 94.8127Z" fill="white"/>
<path d="M125.35 94.418L181.952 171.985C158.306 194.251 129.381 196.753 107.342 188.747L85.9102 111.706L125.35 94.418Z" fill="white"/>
<path d="M98.2267 122.7C98.9084 117.139 95.2821 112.023 90.1271 111.273C84.9721 110.522 80.2406 114.421 79.5589 119.982C78.8772 125.542 82.5035 130.658 87.6585 131.409C92.8135 132.159 97.545 128.26 98.2267 122.7Z" fill="white"/>
<path d="M103.007 178.738C107.281 167.208 102.08 154.045 91.39 149.338C80.6996 144.631 68.5681 150.162 64.2936 161.692C60.019 173.222 65.2201 186.385 75.9105 191.092C86.6009 195.799 98.7324 190.268 103.007 178.738Z" fill="white"/>
<path d="M79.9137 118.271L64.8036 160.311L102.659 170.999L98.1735 119.677L79.9137 118.271Z" fill="white"/>
<path d="M134.333 101.963C134.818 97.936 132.184 94.238 128.448 93.7035C124.713 93.1689 121.291 96.0002 120.806 100.027C120.321 104.054 122.956 107.752 126.691 108.287C130.426 108.822 133.848 105.99 134.333 101.963Z" fill="white"/>
<path d="M188.735 91.0035C189.174 90.1417 183.738 90.4842 184.166 89.6331C184.444 89.0787 181.905 81.9973 182.195 81.4368L184.013 80.968L184.717 81.0727C185.124 80.2921 185.46 80.7264 185.689 80.1627C185.874 79.702 191.417 85.5913 191.566 85.1153C191.629 84.8991 191.69 84.6783 191.755 84.4778C191.819 84.2773 191.823 84.1879 191.854 84.0417C191.707 84.818 191.662 85.0307 191.716 84.655C191.762 84.1735 191.836 83.7114 191.881 83.2142C191.893 82.9952 191.903 82.7717 191.904 82.5522C191.908 81.4569 191.966 83.1022 191.921 82.7682C191.858 82.3011 191.836 81.825 191.756 81.3548C191.72 81.1423 191.674 80.9293 191.628 80.7163C191.391 79.6598 191.826 81.2666 191.717 80.936C191.41 80.0081 191.026 79.1127 190.57 78.261L191.194 79.3335C190.647 78.3957 189.993 77.5375 189.248 76.7798L190.098 77.6401C189.686 77.2317 189.249 76.8552 188.789 76.5136C188.554 76.3421 188.31 76.197 188.064 76.025C187.368 75.5446 189.061 76.5414 188.301 76.1518C187.219 75.6868 186.333 74.8011 185.816 73.6659C185.351 72.5419 185.3 71.2665 185.674 70.103C186.486 67.919 189.032 66.111 191.224 67.2395C195.943 69.6752 199.401 74.1929 200.345 79.8638C200.783 82.6461 200.592 85.5028 199.788 88.1864C199.238 89.8002 198.542 91.3507 197.712 92.815L195.888 96.3705C195.369 97.3803 194.053 98.1599 193.046 98.3487C191.929 98.5491 190.784 98.2753 189.846 97.5838C187.826 95.9133 187.548 93.3178 188.736 91.008L188.735 91.0035Z" fill="#648CFF"/>
<path d="M184.936 78.4215C184.603 79.5365 190.376 80.0936 190.053 81.1959C189.844 81.9141 193.699 92.2453 193.477 92.9696L191.604 93.2761L190.832 92.9965C190.521 94.0048 181.543 93.7139 181.388 94.4545C181.264 95.06 182.926 85.4384 182.843 86.0723C182.81 86.361 182.78 86.6565 182.743 86.923C182.706 87.1896 182.716 87.3132 182.706 87.5106C182.74 86.459 182.753 86.1715 182.756 86.684C182.784 87.3448 182.778 87.9734 182.81 88.6565C182.832 88.9587 182.858 89.2677 182.891 89.5726C183.063 91.0953 182.737 88.796 182.838 89.269C182.981 89.9307 183.081 90.597 183.242 91.2661C183.314 91.5684 183.397 91.8735 183.481 92.1785C183.904 93.6928 183.181 91.3755 183.35 91.8559C183.828 93.2048 184.383 94.5232 185.008 95.7945L184.167 94.1841C184.903 95.5923 185.742 96.9101 186.662 98.1057L185.614 96.7476C186.12 97.3939 186.649 98.0006 187.197 98.5632C187.476 98.8463 187.762 99.0946 188.052 99.3804C188.875 100.181 186.901 98.4728 187.778 99.1591C189.012 100.011 190.103 101.412 190.84 103.089C191.518 104.74 191.777 106.524 191.563 108.071C191.041 110.954 188.602 112.985 186.071 110.998C180.623 106.714 176.192 99.7733 174.272 91.707C173.358 87.7542 173.106 83.8176 173.538 80.2381C173.869 78.0983 174.367 76.0741 175.023 74.1955L176.408 69.5972C176.804 68.2916 178.089 67.4574 179.139 67.3864C180.304 67.3201 181.576 67.9185 182.691 69.0585C185.125 71.7658 185.837 75.4282 184.933 78.4147L184.936 78.4215Z" fill="#648CFF"/>
<path d="M191.908 70.2825L188.473 81.2893C188.292 81.8533 188.214 82.4507 188.245 83.0474C188.275 83.6441 188.413 84.2284 188.651 84.767C188.888 85.3055 189.221 85.7878 189.63 86.1863C190.038 86.5847 190.515 86.8915 191.033 87.0892C191.55 87.2869 192.098 87.3715 192.646 87.3383C193.193 87.3051 193.729 87.1547 194.224 86.8957C194.718 86.6367 195.16 86.2742 195.526 85.8288C195.892 85.3834 196.173 84.8638 196.355 84.2999L199.782 73.2859C199.963 72.7222 200.041 72.1251 200.011 71.5286C199.981 70.9322 199.843 70.348 199.606 69.8096C199.368 69.2711 199.036 68.7889 198.628 68.3905C198.219 67.992 197.743 67.6851 197.225 67.4873C196.708 67.2895 196.16 67.2046 195.613 67.2376C195.066 67.2706 194.53 67.4207 194.036 67.6794C193.542 67.9381 193.099 68.3003 192.733 68.7454C192.368 69.1905 192.086 69.7097 191.905 70.2733L191.908 70.2825Z" fill="#648CFF"/>
<path d="M185.485 66.8069L182.049 77.8137C181.868 78.3777 181.79 78.9751 181.821 79.5718C181.851 80.1685 181.989 80.7528 182.227 81.2914C182.465 81.8299 182.797 82.3122 183.206 82.7107C183.615 83.1091 184.091 83.4159 184.609 83.6136C185.126 83.8113 185.674 83.8959 186.222 83.8627C186.77 83.8296 187.306 83.6792 187.8 83.4201C188.294 83.1611 188.737 82.7986 189.102 82.3532C189.468 81.9078 189.749 81.3883 189.931 80.8243L193.358 69.8103C193.54 69.2466 193.617 68.6495 193.587 68.0531C193.557 67.4566 193.419 66.8725 193.182 66.334C192.944 65.7956 192.612 65.3133 192.204 64.9149C191.795 64.5164 191.319 64.2095 190.802 64.0117C190.284 63.8139 189.737 63.7291 189.189 63.762C188.642 63.795 188.106 63.9451 187.612 64.2038C187.118 64.4625 186.675 64.8247 186.31 65.2698C185.944 65.7149 185.662 66.2341 185.481 66.7977L185.485 66.8069Z" fill="#648CFF"/>
<path fill-rule="evenodd" clip-rule="evenodd" d="M199.177 75.2945C199.417 75.3832 199.546 75.6673 199.465 75.929L196.802 84.4921L196.799 84.5029C196.38 85.7546 195.529 86.7786 194.428 87.3565C193.326 87.9344 192.061 88.0206 190.902 87.5965L190.896 87.5944L190.896 87.5943C190.314 87.3717 189.78 87.0207 189.328 86.5632C189.142 86.3752 189.131 86.0586 189.304 85.8561C189.476 85.6535 189.767 85.6417 189.953 85.8297C190.312 86.1929 190.735 86.4717 191.198 86.6489C192.129 86.9887 193.145 86.9191 194.029 86.4548C194.914 85.9909 195.597 85.1696 195.934 84.1654L198.595 75.6079C198.676 75.3461 198.937 75.2059 199.177 75.2945Z" fill="black"/>
<path fill-rule="evenodd" clip-rule="evenodd" d="M192.754 71.819C192.994 71.9077 193.123 72.1917 193.041 72.4535L190.379 81.0166L190.375 81.0273C189.956 82.2791 189.106 83.303 188.004 83.8809C186.903 84.4589 185.638 84.545 184.479 84.1209L184.473 84.1188L184.473 84.1187C183.891 83.8961 183.357 83.5451 182.904 83.0876C182.719 82.8996 182.708 82.583 182.88 82.3805C183.053 82.1779 183.343 82.1661 183.529 82.3541C183.888 82.7173 184.312 82.9962 184.774 83.1733C185.705 83.5131 186.721 83.4435 187.606 82.9793C188.49 82.5154 189.173 81.694 189.511 80.6898L192.172 72.1323C192.253 71.8705 192.514 71.7303 192.754 71.819Z" fill="black"/>
<path d="M184.118 53.3006C184.328 57.1743 185.555 80.4882 185.555 80.4882C185.751 81.9018 185.708 83.3453 185.788 84.7716C185.859 86.0814 185.815 87.1828 185.104 88.3134C184.454 89.349 183.453 90.0608 182.322 90.2924C181.19 90.524 180.02 90.2565 179.07 89.5486C178.21 88.8483 177.318 87.7324 177.253 86.5137L176.625 74.8829C176.291 68.7033 176.151 65.4907 175.817 59.3111L175.603 55.0298C175.532 53.72 175.575 52.6186 176.286 51.4879C176.607 50.9748 177.018 50.5357 177.495 50.1958C177.972 49.8559 178.506 49.6218 179.066 49.507C179.626 49.3923 180.202 49.399 180.759 49.5269C181.317 49.6548 181.846 49.9013 182.316 50.2523C183.176 50.9525 184.068 52.0685 184.133 53.2872L184.118 53.3006Z" fill="#648CFF"/>
<path fill-rule="evenodd" clip-rule="evenodd" d="M178.861 74.735C179.596 74.2392 180.434 73.9531 181.297 73.9032C184.007 73.7362 186.082 76.368 186.182 79.0599L186.182 79.0608L186.557 89.3405C186.567 89.6167 186.37 89.8495 186.117 89.8606C185.863 89.8717 185.65 89.6568 185.64 89.3807L185.264 79.1002C185.264 79.1 185.264 79.0999 185.264 79.0997C185.18 76.8492 183.445 74.7727 181.348 74.9024L181.346 74.9025C180.637 74.9434 179.948 75.1784 179.344 75.5859C178.74 75.9934 178.24 76.5602 177.89 77.2339C177.765 77.4744 177.485 77.559 177.264 77.4228C177.043 77.2867 176.966 76.9814 177.091 76.7409C177.517 75.9208 178.126 75.2309 178.861 74.735Z" fill="black"/>
<mask id="mask0" mask-type="alpha" maskUnits="userSpaceOnUse" x="55" y="30" width="154" height="164">
<path d="M205.652 112.19C205.652 157.372 172.133 193.999 130.786 193.999C89.4382 193.999 55.9193 157.372 55.9193 112.19C55.9193 67.0079 89.4382 30.3806 130.786 30.3806C172.133 30.3806 221.208 69.1591 205.652 112.19Z" fill="#E0F4FC"/>
</mask>
<g mask="url(#mask0)">
<path d="M201.064 92.2589L175.949 89.9983C174.355 89.8329 172.762 90.3385 171.498 91.4114C170.234 92.4842 169.395 94.0432 169.152 95.7688C168.961 97.2608 169.236 98.7793 169.933 100.08C170.631 101.381 171.709 102.388 172.996 102.939C173.119 102.992 173.231 103.074 173.322 103.179C173.413 103.285 173.481 103.411 173.521 103.549C173.562 103.687 173.573 103.833 173.555 103.976C173.537 104.119 173.49 104.257 173.417 104.377C172.846 105.333 172.483 106.418 172.357 107.55L166.8 164.73L208.466 163.745L202.001 109.05C201.913 108.3 201.719 107.569 201.426 106.883C201.371 106.752 201.343 106.61 201.346 106.466C201.348 106.323 201.379 106.181 201.437 106.053C201.496 105.924 201.58 105.811 201.684 105.722C201.787 105.634 201.908 105.571 202.036 105.539C203.382 105.221 204.591 104.421 205.471 103.267C206.35 102.113 206.851 100.671 206.891 99.1711C206.91 97.427 206.318 95.7408 205.235 94.4564C204.152 93.172 202.661 92.386 201.064 92.2589Z" fill="white"/>
<path fill-rule="evenodd" clip-rule="evenodd" d="M175.563 104.669C175.58 104.393 175.798 104.184 176.051 104.202L198.388 105.774C198.641 105.792 198.833 106.03 198.817 106.305C198.801 106.581 198.582 106.79 198.329 106.772L175.992 105.201C175.739 105.183 175.547 104.945 175.563 104.669Z" fill="black"/>
</g>
<path d="M83.9401 87.4131C83.8795 86.8235 84.023 86.2304 84.3422 85.7519C84.6613 85.2733 85.1327 84.9443 85.6625 84.8303C85.5566 84.3344 85.476 83.8323 85.421 83.3266C85.1975 81.1305 85.5067 78.9086 86.317 76.8863C87.1274 74.8639 88.4102 73.1132 90.0352 71.8119C91.6602 70.5105 93.5696 69.7048 95.5695 69.4765C97.5694 69.2482 99.5887 69.6054 101.422 70.5119C103.256 71.4185 104.839 72.842 106.01 74.6381C107.181 76.4342 107.9 78.5389 108.092 80.7385C108.283 82.9382 107.943 85.1545 107.103 87.1625C106.264 89.1705 104.956 90.8988 103.313 92.1718L110.556 103.671L102.508 104.936C102.508 104.936 100.898 97.8593 100.013 93.932C99.3554 94.1468 98.6821 94.2977 98.0007 94.3832C95.9506 94.6323 93.8775 94.2653 92.0022 93.3213C90.127 92.3773 88.52 90.8917 87.3526 89.0229C87.0497 89.2731 86.6911 89.4289 86.3144 89.474C85.7514 89.5439 85.186 89.3666 84.7413 88.9806C84.2966 88.5946 84.0087 88.0312 83.9401 87.4131Z" fill="#648CFF"/>
<path d="M74.9391 89.5915C76.3835 91.4663 76.544 94.2306 78.0206 96.0619C79.8903 98.3727 83.3489 98.3901 85.8526 96.9339C87.661 95.7746 89.227 94.2184 90.4508 92.3645C89.2699 91.4942 88.247 90.3945 87.4335 89.1206C87.1315 89.3673 86.7739 89.5209 86.3983 89.5654C85.8365 89.659 85.2634 89.5063 84.8051 89.1408C84.3469 88.7753 84.041 88.227 83.9548 87.6164C83.8686 87.0059 84.0091 86.3831 84.3455 85.8851C84.6818 85.3872 85.1865 85.0548 85.7483 84.9611H85.9249C86.2253 84.9245 86.5294 84.9577 86.8172 85.0584C87.1049 85.1591 87.3697 85.3251 87.594 85.5454C89.6403 83.8624 92.9144 79.7552 91.6063 71.1659C92.0477 72.3518 95.2255 79.4151 107.471 78.0722C107.762 78.96 107.956 79.882 108.049 80.8191C108.309 83.2826 107.872 85.7737 106.797 87.9609C108.101 87.7536 109.433 87.9251 110.657 88.4579C114.107 90.0075 117.954 90.1591 121.498 88.8852C123.559 88.1219 125.401 86.7859 126.839 85.0098C128.278 83.2338 129.264 81.0795 129.699 78.7611C130.43 74.1307 128.263 69.012 124.363 66.9802C121.442 65.4193 118.04 65.6809 114.83 65.3496C111.62 65.0182 108.025 63.7538 106.669 60.5535C105.802 58.5043 106.043 56.1324 105.666 53.9262C105.299 51.6569 104.281 49.5718 102.758 47.9689C101.234 46.3659 99.284 45.3273 97.185 45.0013C95.086 44.6753 92.9459 45.0787 91.0706 46.1538C89.1953 47.229 87.6807 48.9208 86.7434 50.9875C85.2749 54.1442 85.2187 58.0595 83.1483 60.7889C79.3527 65.803 71.7051 63.684 66.4731 66.8145C64.8953 67.7583 63.5891 69.1589 62.6997 70.8608C61.8103 72.5626 61.3724 74.4991 61.4348 76.4551C61.4972 78.411 62.0573 80.3099 63.0529 81.9408C64.0486 83.5717 65.4408 84.8707 67.0749 85.6936C69.7391 87.0191 73.1014 87.1673 74.9391 89.5915Z" fill="black"/>
<path d="M169.174 143.234L167.673 140.787C166.981 139.666 165.961 138.834 164.779 138.426C163.598 138.018 162.324 138.058 161.167 138.54L139.16 145.21C139.16 145.21 140.859 155.057 140.859 155.022C140.859 154.987 169.174 143.234 169.174 143.234Z" fill="#648CFF"/>
<path d="M189.307 169.823C190.148 168.677 190.71 167.318 190.942 165.873C191.173 164.427 191.065 162.941 190.629 161.552C190.629 161.552 187.365 152.416 186.006 149.784C184.647 147.152 181.392 144.93 178.279 143.924C175.464 143.014 172.007 143.374 169.064 143.254C161.718 142.949 142.944 145.591 140.997 145.475C138.389 145.325 136.291 144.675 136.53 147.357C136.568 147.808 136.653 148.252 136.782 148.683L135.703 149.083L132.292 167.006C132.292 167.006 138.26 181.517 152.953 175.963C166.314 170.904 170.73 175.823 171.153 176.463C171.612 177.225 171.862 178.114 171.874 179.025C171.874 181.922 174.629 184.354 177.099 184.129C180.014 183.859 182.057 181.592 182.08 178.625C182.089 178.24 182.065 177.854 182.007 177.474C183.536 179.22 186.502 179.581 188.279 178.255C190.666 176.478 191.066 173.581 189.803 170.899L189.307 169.823Z" fill="#648CFF"/>
<path fill-rule="evenodd" clip-rule="evenodd" d="M167.489 143.226C167.493 143.503 167.29 143.73 167.036 143.734C162.043 143.812 154.228 144.654 148.434 145.278C146.796 145.455 145.32 145.614 144.115 145.733C143.862 145.758 143.639 145.556 143.616 145.28C143.593 145.005 143.779 144.762 144.032 144.737C145.221 144.619 146.683 144.461 148.31 144.286C154.106 143.661 161.986 142.812 167.023 142.733C167.277 142.729 167.485 142.95 167.489 143.226Z" fill="black"/>
<path fill-rule="evenodd" clip-rule="evenodd" d="M175.692 151.447C172.829 150.067 170.196 150.156 168.57 150.399C168.319 150.437 168.088 150.245 168.053 149.971C168.019 149.698 168.195 149.445 168.446 149.408C170.172 149.15 172.991 149.051 176.063 150.532C179.139 152.014 182.418 155.056 185.097 160.98L188.638 167.584C188.766 167.823 188.692 168.129 188.473 168.269C188.254 168.408 187.973 168.328 187.845 168.089L184.296 161.469C184.291 161.459 184.286 161.448 184.281 161.438C181.681 155.683 178.547 152.823 175.692 151.447Z" fill="black"/>
<path fill-rule="evenodd" clip-rule="evenodd" d="M162.58 159.016C162.612 158.742 162.842 158.549 163.094 158.584C166.768 159.099 170.27 160.586 173.296 162.915L173.297 162.916C177.279 166.009 179.915 170.662 181.768 175.365L181.769 175.37L181.769 175.37L181.976 175.91C182.074 176.165 181.963 176.458 181.729 176.565C181.495 176.671 181.226 176.55 181.128 176.295L180.924 175.76C180.923 175.759 180.923 175.758 180.923 175.757C179.102 171.135 176.551 166.673 172.765 163.731C169.862 161.497 166.502 160.071 162.977 159.577C162.725 159.541 162.548 159.291 162.58 159.016Z" fill="black"/>
<path d="M85.9605 192.7L125.653 185.565C128.461 184.727 130.894 182.806 132.499 180.158C134.104 177.511 134.771 174.318 134.376 171.174L132.416 155.543C132.187 153.725 131.611 151.981 130.725 150.421C129.838 148.862 128.661 147.523 127.269 146.492C125.878 145.46 124.303 144.758 122.646 144.433C120.99 144.107 119.289 144.163 117.655 144.6L74.7898 156.053L85.9605 192.7Z" fill="white"/>
<path d="M139.153 145.218C138.447 141.588 135.175 139.268 131.845 140.038C128.514 140.807 126.387 144.374 127.094 148.005L132.396 175.259C133.102 178.89 136.374 181.21 139.704 180.44C143.035 179.671 145.162 176.104 144.455 172.473L139.153 145.218Z" fill="white"/>
<path fill-rule="evenodd" clip-rule="evenodd" d="M131.756 139.542C133.03 139.248 134.355 139.369 135.566 139.891C136.777 140.413 137.819 141.313 138.564 142.477C138.709 142.704 138.658 143.016 138.45 143.174C138.242 143.332 137.955 143.276 137.81 143.049C137.169 142.046 136.271 141.272 135.228 140.822C134.185 140.372 133.043 140.267 131.946 140.521L131.851 140.031L131.946 140.521C131.159 140.702 130.416 141.063 129.766 141.58C129.117 142.097 128.575 142.759 128.178 143.521L128.176 143.523C127.766 144.299 127.125 144.898 126.36 145.223C125.594 145.547 124.75 145.577 123.967 145.307L123.966 145.307C121.949 144.608 119.793 144.531 117.737 145.085L117.736 145.085L82.1259 154.592C81.8796 154.658 81.631 154.494 81.5707 154.226C81.5103 153.957 81.6611 153.686 81.9074 153.62L117.517 144.114C117.517 144.114 117.517 144.114 117.518 144.114C119.737 143.516 122.065 143.598 124.244 144.353C124.827 144.554 125.457 144.532 126.027 144.29C126.597 144.048 127.074 143.602 127.38 143.025C127.842 142.14 128.47 141.372 129.225 140.772C129.979 140.171 130.842 139.752 131.756 139.542Z" fill="black"/>
<path fill-rule="evenodd" clip-rule="evenodd" d="M139.717 182.635C140.988 182.326 142.147 181.615 143.049 180.592C143.952 179.569 144.558 178.279 144.791 176.883C144.837 176.611 144.671 176.351 144.422 176.301C144.172 176.252 143.933 176.432 143.888 176.704C143.687 177.906 143.165 179.017 142.387 179.899C141.61 180.78 140.612 181.392 139.517 181.658C138.732 181.85 137.918 181.858 137.13 181.681C136.342 181.505 135.598 181.148 134.945 180.635L134.943 180.633C134.275 180.113 133.463 179.858 132.643 179.91C131.823 179.961 131.044 180.316 130.434 180.916L130.434 180.917C128.865 182.465 126.933 183.511 124.852 183.937L124.851 183.938L114.459 186.495C114.21 186.547 114.046 186.809 114.094 187.08C114.141 187.352 114.382 187.53 114.631 187.478L125.022 184.921L125.022 184.921C127.269 184.46 129.355 183.331 131.05 181.659C131.504 181.212 132.085 180.947 132.696 180.909C133.306 180.87 133.911 181.06 134.409 181.447C135.166 182.043 136.031 182.457 136.945 182.662C137.861 182.867 138.805 182.857 139.717 182.635Z" fill="black"/>
<path fill-rule="evenodd" clip-rule="evenodd" d="M128.433 150.862C128.682 150.813 128.921 150.995 128.965 151.267L132.859 175.17C132.903 175.442 132.736 175.701 132.487 175.75C132.237 175.798 131.999 175.617 131.954 175.345L128.061 151.442C128.017 151.17 128.183 150.91 128.433 150.862Z" fill="black"/>
<path d="M110.77 97.0993L99.2855 101.814C97.9257 102.372 97.2387 104.026 97.7508 105.508C98.263 106.989 99.7805 107.738 101.14 107.18L112.625 102.465C113.985 101.907 114.672 100.254 114.16 98.7717C113.648 97.2899 112.13 96.5411 110.77 97.0993Z" fill="white"/>
<path fill-rule="evenodd" clip-rule="evenodd" d="M114.368 100.17C114.61 100.254 114.744 100.535 114.667 100.799C114.526 101.283 114.286 101.725 113.966 102.094C113.646 102.462 113.253 102.747 112.817 102.927L101.338 107.64C100.875 107.831 100.376 107.897 99.8847 107.834C99.393 107.77 98.9224 107.579 98.5126 107.276C98.3028 107.121 98.2482 106.809 98.3906 106.581C98.5329 106.352 98.8185 106.293 99.0283 106.448C99.3163 106.661 99.647 106.795 99.9926 106.84C100.338 106.884 100.689 106.838 101.014 106.704L112.492 101.99C112.493 101.99 112.492 101.991 112.492 101.99C112.798 101.864 113.075 101.664 113.299 101.406C113.525 101.147 113.693 100.836 113.792 100.496C113.869 100.232 114.127 100.087 114.368 100.17Z" fill="black"/>
</g>
</g>
<defs>
<clipPath id="clip0">
<rect width="170.798" height="186.637" fill="white" transform="translate(41.2271 6.36279)"/>
</clipPath>
<clipPath id="clip1">
<rect width="156.565" height="151.612" fill="white" transform="translate(53.1646 41.3887)"/>
</clipPath>
</defs>
</svg>
