<svg width="370" height="126" viewBox="0 0 370 126" fill="none" xmlns="http://www.w3.org/2000/svg">
<rect width="370" height="126" rx="8" fill="white"/>
<rect x="16" y="16" width="141" height="25" rx="4" fill="#0097DC"/>
<path d="M31.5 34V25.334H28.168V24.13H36.302V25.334H32.956V34H31.5ZM37.4566 34V27.168H38.8706V34H37.4566ZM38.6326 26.272H37.7086L39.0946 23.43H40.6066L38.6326 26.272ZM44.0812 33.006C44.2959 33.006 44.5059 32.992 44.7112 32.964L44.6412 34.042C44.4079 34.0793 44.1652 34.098 43.9132 34.098C43.0265 34.098 42.3639 33.8833 41.9252 33.454C41.4959 33.0153 41.2812 32.3853 41.2812 31.564V28.26H39.9512V27.168H41.2812V25.11H42.6952V27.168H44.5712V28.26H42.6952V31.508C42.6952 32.5067 43.1572 33.006 44.0812 33.006ZM51.7747 27.168V34H50.4027V32.894C50.1881 33.286 49.8894 33.5847 49.5067 33.79C49.1334 33.9953 48.7134 34.098 48.2467 34.098C46.5854 34.098 45.7547 33.1833 45.7547 31.354V27.168H47.1687V31.34C47.1687 31.8907 47.2807 32.2967 47.5047 32.558C47.7287 32.8193 48.0741 32.95 48.5407 32.95C49.0914 32.95 49.5301 32.7727 49.8567 32.418C50.1927 32.0633 50.3607 31.592 50.3607 31.004V27.168H51.7747ZM53.7534 34V24.13H55.1674V34H53.7534ZM60.1121 34.098C59.4401 34.098 58.8474 33.9533 58.3341 33.664C57.8301 33.3747 57.4381 32.964 57.1581 32.432C56.8874 31.8907 56.7521 31.2653 56.7521 30.556C56.7521 29.8373 56.8874 29.212 57.1581 28.68C57.4381 28.1387 57.8301 27.7233 58.3341 27.434C58.8474 27.1447 59.4401 27 60.1121 27C60.7841 27 61.3721 27.1447 61.8761 27.434C62.3894 27.7233 62.7814 28.1387 63.0521 28.68C63.3321 29.212 63.4721 29.8373 63.4721 30.556C63.4721 31.2653 63.3321 31.8907 63.0521 32.432C62.7814 32.964 62.3894 33.3747 61.8761 33.664C61.3721 33.9533 60.7841 34.098 60.1121 34.098ZM60.1121 32.978C60.7374 32.978 61.2134 32.7727 61.5401 32.362C61.8761 31.9513 62.0441 31.3493 62.0441 30.556C62.0441 29.772 61.8761 29.1747 61.5401 28.764C61.2041 28.344 60.7281 28.134 60.1121 28.134C59.4961 28.134 59.0201 28.344 58.6841 28.764C58.3481 29.1747 58.1801 29.772 58.1801 30.556C58.1801 31.3493 58.3434 31.9513 58.6701 32.362C59.0061 32.7727 59.4867 32.978 60.1121 32.978ZM75.0378 24.13V34H73.6378V32.824C73.4325 33.2347 73.1338 33.552 72.7418 33.776C72.3498 33.9907 71.8971 34.098 71.3838 34.098C70.7958 34.098 70.2685 33.9487 69.8018 33.65C69.3445 33.3513 68.9851 32.9313 68.7238 32.39C68.4718 31.8487 68.3458 31.228 68.3458 30.528C68.3458 29.8187 68.4718 29.198 68.7238 28.666C68.9851 28.134 69.3445 27.7233 69.8018 27.434C70.2591 27.1447 70.7865 27 71.3838 27C71.8971 27 72.3451 27.112 72.7278 27.336C73.1198 27.5507 73.4185 27.8587 73.6238 28.26V24.13H75.0378ZM71.7198 32.978C72.3358 32.978 72.8071 32.768 73.1338 32.348C73.4698 31.928 73.6378 31.3307 73.6378 30.556C73.6378 29.7813 73.4698 29.184 73.1338 28.764C72.8071 28.344 72.3358 28.134 71.7198 28.134C71.1038 28.134 70.6231 28.344 70.2778 28.764C69.9418 29.1747 69.7738 29.7627 69.7738 30.528C69.7738 31.2933 69.9465 31.8953 70.2918 32.334C70.6371 32.7633 71.1131 32.978 71.7198 32.978ZM82.8613 30.822H78.0313C78.134 32.2687 78.8526 32.992 80.1873 32.992C80.9713 32.992 81.6806 32.7353 82.3153 32.222L82.7493 33.216C82.432 33.4867 82.04 33.7013 81.5733 33.86C81.1066 34.0187 80.6306 34.098 80.1453 34.098C79.0533 34.098 78.19 33.7853 77.5553 33.16C76.93 32.5347 76.6173 31.6713 76.6173 30.57C76.6173 29.87 76.7526 29.2493 77.0233 28.708C77.3033 28.1667 77.6906 27.7467 78.1853 27.448C78.6893 27.1493 79.2586 27 79.8933 27C80.8173 27 81.5406 27.2987 82.0633 27.896C82.5953 28.4933 82.8613 29.3193 82.8613 30.374V30.822ZM79.9213 28.036C79.38 28.036 78.946 28.2087 78.6193 28.554C78.302 28.89 78.1106 29.3753 78.0453 30.01H81.6433C81.6153 29.3753 81.452 28.89 81.1533 28.554C80.864 28.2087 80.4533 28.036 79.9213 28.036ZM94.4109 24.13V34H93.0109V32.824C92.8055 33.2347 92.5069 33.552 92.1149 33.776C91.7229 33.9907 91.2702 34.098 90.7569 34.098C90.1689 34.098 89.6415 33.9487 89.1749 33.65C88.7175 33.3513 88.3582 32.9313 88.0969 32.39C87.8449 31.8487 87.7189 31.228 87.7189 30.528C87.7189 29.8187 87.8449 29.198 88.0969 28.666C88.3582 28.134 88.7175 27.7233 89.1749 27.434C89.6322 27.1447 90.1595 27 90.7569 27C91.2702 27 91.7182 27.112 92.1009 27.336C92.4929 27.5507 92.7915 27.8587 92.9969 28.26V24.13H94.4109ZM91.0929 32.978C91.7089 32.978 92.1802 32.768 92.5069 32.348C92.8429 31.928 93.0109 31.3307 93.0109 30.556C93.0109 29.7813 92.8429 29.184 92.5069 28.764C92.1802 28.344 91.7089 28.134 91.0929 28.134C90.4769 28.134 89.9962 28.344 89.6509 28.764C89.3149 29.1747 89.1469 29.7627 89.1469 30.528C89.1469 31.2933 89.3195 31.8953 89.6649 32.334C90.0102 32.7633 90.4862 32.978 91.0929 32.978ZM102.234 30.822H97.4043C97.507 32.2687 98.2257 32.992 99.5603 32.992C100.344 32.992 101.054 32.7353 101.688 32.222L102.122 33.216C101.805 33.4867 101.413 33.7013 100.946 33.86C100.48 34.0187 100.004 34.098 99.5183 34.098C98.4263 34.098 97.563 33.7853 96.9283 33.16C96.303 32.5347 95.9903 31.6713 95.9903 30.57C95.9903 29.87 96.1257 29.2493 96.3963 28.708C96.6763 28.1667 97.0637 27.7467 97.5583 27.448C98.0623 27.1493 98.6317 27 99.2663 27C100.19 27 100.914 27.2987 101.436 27.896C101.968 28.4933 102.234 29.3193 102.234 30.374V30.822ZM99.2943 28.036C98.753 28.036 98.319 28.2087 97.9923 28.554C97.675 28.89 97.4837 29.3753 97.4183 30.01H101.016C100.988 29.3753 100.825 28.89 100.526 28.554C100.237 28.2087 99.8263 28.036 99.2943 28.036ZM106.201 34.098C105.015 34.098 104.068 33.8087 103.359 33.23L103.793 32.208C104.493 32.7493 105.309 33.02 106.243 33.02C106.7 33.02 107.05 32.9453 107.293 32.796C107.535 32.6373 107.657 32.418 107.657 32.138C107.657 31.8953 107.573 31.704 107.405 31.564C107.246 31.424 106.966 31.3073 106.565 31.214L105.431 30.962C104.824 30.822 104.367 30.5933 104.059 30.276C103.751 29.9587 103.597 29.5573 103.597 29.072C103.597 28.456 103.844 27.9567 104.339 27.574C104.843 27.1913 105.501 27 106.312 27C106.798 27 107.26 27.0793 107.699 27.238C108.137 27.3873 108.515 27.602 108.833 27.882L108.399 28.876C107.727 28.344 107.031 28.078 106.312 28.078C105.883 28.078 105.543 28.162 105.291 28.33C105.048 28.498 104.927 28.7267 104.927 29.016C104.927 29.2493 105.001 29.4407 105.151 29.59C105.309 29.73 105.557 29.8373 105.893 29.912L107.055 30.178C107.717 30.3273 108.203 30.5607 108.511 30.878C108.819 31.186 108.973 31.592 108.973 32.096C108.973 32.712 108.721 33.202 108.217 33.566C107.722 33.9207 107.05 34.098 106.201 34.098ZM113.712 33.006C113.927 33.006 114.137 32.992 114.342 32.964L114.272 34.042C114.039 34.0793 113.796 34.098 113.544 34.098C112.657 34.098 111.995 33.8833 111.556 33.454C111.127 33.0153 110.912 32.3853 110.912 31.564V28.26H109.582V27.168H110.912V25.11H112.326V27.168H114.202V28.26H112.326V31.508C112.326 32.5067 112.788 33.006 113.712 33.006ZM118.27 27C119.184 27 119.861 27.2287 120.3 27.686C120.748 28.1433 120.972 28.8387 120.972 29.772V34H119.614V32.866C119.436 33.2673 119.17 33.5753 118.816 33.79C118.47 33.9953 118.064 34.098 117.598 34.098C117.15 34.098 116.739 34.0093 116.366 33.832C115.992 33.6453 115.698 33.3887 115.484 33.062C115.278 32.7353 115.176 32.3713 115.176 31.97C115.176 31.4753 115.302 31.088 115.554 30.808C115.815 30.5187 116.24 30.3133 116.828 30.192C117.425 30.0707 118.242 30.01 119.278 30.01H119.6V29.604C119.6 29.0813 119.488 28.7033 119.264 28.47C119.049 28.2367 118.694 28.12 118.2 28.12C117.425 28.12 116.65 28.358 115.876 28.834L115.456 27.84C115.82 27.588 116.258 27.3873 116.772 27.238C117.294 27.0793 117.794 27 118.27 27ZM117.85 33.048C118.363 33.048 118.783 32.8753 119.11 32.53C119.436 32.1753 119.6 31.7227 119.6 31.172V30.808H119.348C118.62 30.808 118.06 30.8407 117.668 30.906C117.276 30.9713 116.996 31.0833 116.828 31.242C116.66 31.3913 116.576 31.6107 116.576 31.9C116.576 32.2267 116.692 32.502 116.926 32.726C117.168 32.9407 117.476 33.048 117.85 33.048ZM129.206 27.168V36.52H127.792V32.852C127.586 33.2533 127.288 33.5613 126.896 33.776C126.513 33.9907 126.065 34.098 125.552 34.098C124.954 34.098 124.422 33.9533 123.956 33.664C123.498 33.3747 123.144 32.964 122.892 32.432C122.64 31.9 122.514 31.284 122.514 30.584C122.514 29.8747 122.64 29.2493 122.892 28.708C123.153 28.1667 123.512 27.7467 123.97 27.448C124.436 27.1493 124.964 27 125.552 27C126.065 27 126.518 27.112 126.91 27.336C127.302 27.56 127.6 27.8773 127.806 28.288V27.168H129.206ZM125.888 32.978C126.504 32.978 126.975 32.768 127.302 32.348C127.638 31.928 127.806 31.3307 127.806 30.556C127.806 29.7813 127.638 29.184 127.302 28.764C126.975 28.344 126.504 28.134 125.888 28.134C125.281 28.134 124.805 28.3533 124.46 28.792C124.114 29.2213 123.942 29.8187 123.942 30.584C123.942 31.3493 124.11 31.942 124.446 32.362C124.791 32.7727 125.272 32.978 125.888 32.978ZM137.169 27.168V34H135.797V32.894C135.583 33.286 135.284 33.5847 134.901 33.79C134.528 33.9953 134.108 34.098 133.641 34.098C131.98 34.098 131.149 33.1833 131.149 31.354V27.168H132.563V31.34C132.563 31.8907 132.675 32.2967 132.899 32.558C133.123 32.8193 133.469 32.95 133.935 32.95C134.486 32.95 134.925 32.7727 135.251 32.418C135.587 32.0633 135.755 31.592 135.755 31.004V27.168H137.169ZM145 30.822H140.17C140.273 32.2687 140.991 32.992 142.326 32.992C143.11 32.992 143.819 32.7353 144.454 32.222L144.888 33.216C144.571 33.4867 144.179 33.7013 143.712 33.86C143.245 34.0187 142.769 34.098 142.284 34.098C141.192 34.098 140.329 33.7853 139.694 33.16C139.069 32.5347 138.756 31.6713 138.756 30.57C138.756 29.87 138.891 29.2493 139.162 28.708C139.442 28.1667 139.829 27.7467 140.324 27.448C140.828 27.1493 141.397 27 142.032 27C142.956 27 143.679 27.2987 144.202 27.896C144.734 28.4933 145 29.3193 145 30.374V30.822ZM142.06 28.036C141.519 28.036 141.085 28.2087 140.758 28.554C140.441 28.89 140.249 29.3753 140.184 30.01H143.782C143.754 29.3753 143.591 28.89 143.292 28.554C143.003 28.2087 142.592 28.036 142.06 28.036Z" fill="white"/>
<path d="M25.548 101H23.168L21.46 97.85C21.32 97.6073 21.152 97.4347 20.956 97.332C20.76 97.22 20.5127 97.164 20.214 97.164H19.136V101H16.98V91.13H21.516C22.6733 91.13 23.546 91.3867 24.134 91.9C24.7313 92.404 25.03 93.1367 25.03 94.098C25.03 94.8447 24.82 95.47 24.4 95.974C23.9893 96.478 23.406 96.8093 22.65 96.968C23.1633 97.0987 23.5973 97.4673 23.952 98.074L25.548 101ZM21.194 95.512C21.8193 95.512 22.272 95.4047 22.552 95.19C22.832 94.966 22.972 94.6207 22.972 94.154C22.972 93.678 22.832 93.3327 22.552 93.118C22.272 92.9033 21.8193 92.796 21.194 92.796H19.108V95.512H21.194ZM33.8664 98.13C33.8664 98.886 33.6051 99.5253 33.0824 100.048C32.5691 100.561 31.8737 100.893 30.9964 101.042V102.61H29.3164V101.098C28.7097 101.051 28.1404 100.935 27.6084 100.748C27.0857 100.561 26.6331 100.319 26.2504 100.02L26.9504 98.466C27.8744 99.11 28.8684 99.432 29.9324 99.432C30.5017 99.432 30.9357 99.3293 31.2344 99.124C31.5424 98.9093 31.6964 98.6107 31.6964 98.228C31.6964 97.9947 31.6124 97.8033 31.4444 97.654C31.2764 97.5047 31.0617 97.388 30.8004 97.304C30.5484 97.2107 30.1844 97.1033 29.7084 96.982C29.0177 96.814 28.4484 96.6367 28.0004 96.45C27.5524 96.2633 27.1651 95.9787 26.8384 95.596C26.5211 95.204 26.3624 94.686 26.3624 94.042C26.3624 93.2953 26.6284 92.656 27.1604 92.124C27.7017 91.5827 28.4064 91.2373 29.2744 91.088V89.52H30.9544V91.046C31.4957 91.1207 32.0044 91.2513 32.4804 91.438C32.9564 91.6153 33.3437 91.8393 33.6424 92.11L32.9424 93.664C32.0184 93.02 31.1037 92.698 30.1984 92.698C29.6944 92.698 29.2884 92.8053 28.9804 93.02C28.6817 93.2347 28.5324 93.5333 28.5324 93.916C28.5324 94.1773 28.6211 94.392 28.7984 94.56C28.9757 94.728 29.1997 94.8587 29.4704 94.952C29.7411 95.0453 30.1191 95.1527 30.6044 95.274C31.2764 95.442 31.8317 95.6147 32.2704 95.792C32.7091 95.9693 33.0824 96.2447 33.3904 96.618C33.7077 96.9913 33.8664 97.4953 33.8664 98.13ZM42.3211 101.126C41.1264 101.126 40.2118 100.692 39.5771 99.824C38.9518 98.956 38.6391 97.7007 38.6391 96.058C38.6391 94.434 38.9564 93.1927 39.5911 92.334C40.2258 91.466 41.1358 91.032 42.3211 91.032C43.5064 91.032 44.4164 91.466 45.0511 92.334C45.6858 93.1927 46.0031 94.434 46.0031 96.058C46.0031 97.7007 45.6858 98.956 45.0511 99.824C44.4258 100.692 43.5158 101.126 42.3211 101.126ZM42.3211 99.46C42.8624 99.46 43.2544 99.1893 43.4971 98.648C43.7491 98.1067 43.8751 97.2433 43.8751 96.058C43.8751 94.882 43.7491 94.028 43.4971 93.496C43.2544 92.964 42.8624 92.698 42.3211 92.698C41.7798 92.698 41.3831 92.964 41.1311 93.496C40.8884 94.028 40.7671 94.882 40.7671 96.058C40.7671 97.2433 40.8884 98.1067 41.1311 98.648C41.3831 99.1893 41.7798 99.46 42.3211 99.46ZM49.4696 98.76V100.202C49.4696 100.734 49.3716 101.219 49.1756 101.658C48.989 102.106 48.667 102.559 48.2096 103.016L47.3836 102.358C47.841 101.901 48.1256 101.448 48.2376 101H47.2016V98.76H49.4696ZM54.3523 101.126C53.1577 101.126 52.243 100.692 51.6083 99.824C50.983 98.956 50.6703 97.7007 50.6703 96.058C50.6703 94.434 50.9877 93.1927 51.6223 92.334C52.257 91.466 53.167 91.032 54.3523 91.032C55.5377 91.032 56.4477 91.466 57.0823 92.334C57.717 93.1927 58.0343 94.434 58.0343 96.058C58.0343 97.7007 57.717 98.956 57.0823 99.824C56.457 100.692 55.547 101.126 54.3523 101.126ZM54.3523 99.46C54.8937 99.46 55.2857 99.1893 55.5283 98.648C55.7803 98.1067 55.9063 97.2433 55.9063 96.058C55.9063 94.882 55.7803 94.028 55.5283 93.496C55.2857 92.964 54.8937 92.698 54.3523 92.698C53.811 92.698 53.4143 92.964 53.1623 93.496C52.9197 94.028 52.7983 94.882 52.7983 96.058C52.7983 97.2433 52.9197 98.1067 53.1623 98.648C53.4143 99.1893 53.811 99.46 54.3523 99.46ZM62.7469 101.126C61.5522 101.126 60.6375 100.692 60.0029 99.824C59.3775 98.956 59.0649 97.7007 59.0649 96.058C59.0649 94.434 59.3822 93.1927 60.0169 92.334C60.6515 91.466 61.5615 91.032 62.7469 91.032C63.9322 91.032 64.8422 91.466 65.4769 92.334C66.1115 93.1927 66.4289 94.434 66.4289 96.058C66.4289 97.7007 66.1115 98.956 65.4769 99.824C64.8515 100.692 63.9415 101.126 62.7469 101.126ZM62.7469 99.46C63.2882 99.46 63.6802 99.1893 63.9229 98.648C64.1749 98.1067 64.3009 97.2433 64.3009 96.058C64.3009 94.882 64.1749 94.028 63.9229 93.496C63.6802 92.964 63.2882 92.698 62.7469 92.698C62.2055 92.698 61.8089 92.964 61.5569 93.496C61.3142 94.028 61.1929 94.882 61.1929 96.058C61.1929 97.2433 61.3142 98.1067 61.5569 98.648C61.8089 99.1893 62.2055 99.46 62.7469 99.46Z" fill="#39464D"/>
<path d="M19.084 63V55.38H16.144V54.54H23.032V55.38H20.08V63H19.084ZM28.0538 60.228H23.7818C23.8138 60.908 23.9978 61.424 24.3338 61.776C24.6698 62.12 25.1458 62.292 25.7618 62.292C26.4418 62.292 27.0658 62.06 27.6338 61.596L27.9578 62.304C27.7018 62.544 27.3738 62.736 26.9738 62.88C26.5738 63.016 26.1658 63.084 25.7498 63.084C24.8378 63.084 24.1178 62.816 23.5898 62.28C23.0698 61.744 22.8098 61.004 22.8098 60.06C22.8098 59.46 22.9258 58.932 23.1578 58.476C23.3898 58.012 23.7138 57.652 24.1298 57.396C24.5538 57.14 25.0338 57.012 25.5698 57.012C26.3458 57.012 26.9538 57.268 27.3938 57.78C27.8338 58.284 28.0538 58.98 28.0538 59.868V60.228ZM25.5818 57.768C25.0698 57.768 24.6578 57.928 24.3458 58.248C24.0418 58.568 23.8618 59.02 23.8058 59.604H27.2018C27.1858 59.012 27.0378 58.56 26.7578 58.248C26.4778 57.928 26.0858 57.768 25.5818 57.768ZM32.1879 59.988L34.6119 63H33.4359L31.6119 60.72L29.7999 63H28.6119L31.0359 59.988L28.7559 57.156H29.9319L31.6119 59.28L33.2919 57.156H34.4799L32.1879 59.988ZM38.1828 62.304C38.3588 62.304 38.5348 62.292 38.7108 62.268L38.6628 63.036C38.4788 63.068 38.2788 63.084 38.0628 63.084C37.3588 63.084 36.8268 62.9 36.4668 62.532C36.1148 62.164 35.9388 61.652 35.9388 60.996V57.924H34.7988V57.156H35.9388V55.38H36.9108V57.156H38.5668V57.924H36.9108V60.924C36.9108 61.844 37.3348 62.304 38.1828 62.304ZM42.117 63.084C41.565 63.084 41.077 62.96 40.653 62.712C40.237 62.464 39.913 62.112 39.681 61.656C39.457 61.192 39.345 60.656 39.345 60.048C39.345 59.44 39.457 58.908 39.681 58.452C39.913 57.988 40.237 57.632 40.653 57.384C41.077 57.136 41.565 57.012 42.117 57.012C42.669 57.012 43.157 57.136 43.581 57.384C44.005 57.632 44.329 57.988 44.553 58.452C44.785 58.908 44.901 59.44 44.901 60.048C44.901 60.656 44.785 61.192 44.553 61.656C44.329 62.112 44.005 62.464 43.581 62.712C43.157 62.96 42.669 63.084 42.117 63.084ZM42.117 62.28C42.693 62.28 43.133 62.092 43.437 61.716C43.749 61.332 43.905 60.776 43.905 60.048C43.905 59.336 43.749 58.788 43.437 58.404C43.125 58.012 42.685 57.816 42.117 57.816C41.549 57.816 41.109 58.012 40.797 58.404C40.485 58.788 40.329 59.336 40.329 60.048C40.329 60.768 40.481 61.32 40.785 61.704C41.097 62.088 41.541 62.28 42.117 62.28ZM51.867 63.084C51.315 63.084 50.827 62.96 50.403 62.712C49.987 62.464 49.663 62.112 49.431 61.656C49.207 61.192 49.095 60.656 49.095 60.048C49.095 59.44 49.207 58.908 49.431 58.452C49.663 57.988 49.987 57.632 50.403 57.384C50.827 57.136 51.315 57.012 51.867 57.012C52.419 57.012 52.907 57.136 53.331 57.384C53.755 57.632 54.079 57.988 54.303 58.452C54.535 58.908 54.651 59.44 54.651 60.048C54.651 60.656 54.535 61.192 54.303 61.656C54.079 62.112 53.755 62.464 53.331 62.712C52.907 62.96 52.419 63.084 51.867 63.084ZM51.867 62.28C52.443 62.28 52.883 62.092 53.187 61.716C53.499 61.332 53.655 60.776 53.655 60.048C53.655 59.336 53.499 58.788 53.187 58.404C52.875 58.012 52.435 57.816 51.867 57.816C51.299 57.816 50.859 58.012 50.547 58.404C50.235 58.788 50.079 59.336 50.079 60.048C50.079 60.768 50.231 61.32 50.535 61.704C50.847 62.088 51.291 62.28 51.867 62.28ZM59.0392 57.012C59.5512 57.012 60.0032 57.14 60.3952 57.396C60.7872 57.652 61.0912 58.012 61.3072 58.476C61.5232 58.932 61.6312 59.464 61.6312 60.072C61.6312 60.68 61.5232 61.212 61.3072 61.668C61.0912 62.116 60.7872 62.464 60.3952 62.712C60.0112 62.96 59.5592 63.084 59.0392 63.084C58.5832 63.084 58.1832 62.984 57.8392 62.784C57.5032 62.584 57.2472 62.3 57.0712 61.932V65.16H56.0992V57.156H57.0712V58.164C57.2472 57.796 57.5032 57.512 57.8392 57.312C58.1832 57.112 58.5832 57.012 59.0392 57.012ZM58.8472 62.28C59.4152 62.28 59.8552 62.088 60.1672 61.704C60.4792 61.32 60.6352 60.776 60.6352 60.072C60.6352 59.368 60.4792 58.82 60.1672 58.428C59.8552 58.028 59.4152 57.828 58.8472 57.828C58.2792 57.828 57.8392 58.02 57.5272 58.404C57.2232 58.788 57.0712 59.336 57.0712 60.048C57.0712 60.76 57.2232 61.312 57.5272 61.704C57.8392 62.088 58.2792 62.28 58.8472 62.28ZM65.5556 63.084C64.9796 63.084 64.4796 62.96 64.0556 62.712C63.6316 62.464 63.3036 62.116 63.0716 61.668C62.8476 61.212 62.7356 60.68 62.7356 60.072C62.7356 59.464 62.8516 58.932 63.0836 58.476C63.3236 58.012 63.6556 57.652 64.0796 57.396C64.5116 57.14 65.0156 57.012 65.5916 57.012C65.9836 57.012 66.3676 57.084 66.7436 57.228C67.1196 57.364 67.4236 57.548 67.6556 57.78L67.3316 58.5C66.7796 58.052 66.2196 57.828 65.6516 57.828C65.0516 57.828 64.5836 58.024 64.2476 58.416C63.9116 58.808 63.7436 59.36 63.7436 60.072C63.7436 60.776 63.9116 61.32 64.2476 61.704C64.5836 62.088 65.0516 62.28 65.6516 62.28C66.2196 62.28 66.7796 62.056 67.3316 61.608L67.6556 62.328C67.4076 62.56 67.0956 62.744 66.7196 62.88C66.3436 63.016 65.9556 63.084 65.5556 63.084ZM68.8258 63V57.156H69.7978V63H68.8258ZM68.7298 54.624H69.9058V55.716H68.7298V54.624ZM74.0388 63.084C73.4868 63.084 72.9988 62.96 72.5748 62.712C72.1588 62.464 71.8348 62.112 71.6028 61.656C71.3788 61.192 71.2668 60.656 71.2668 60.048C71.2668 59.44 71.3788 58.908 71.6028 58.452C71.8348 57.988 72.1588 57.632 72.5748 57.384C72.9988 57.136 73.4868 57.012 74.0388 57.012C74.5908 57.012 75.0788 57.136 75.5028 57.384C75.9268 57.632 76.2508 57.988 76.4748 58.452C76.7068 58.908 76.8228 59.44 76.8228 60.048C76.8228 60.656 76.7068 61.192 76.4748 61.656C76.2508 62.112 75.9268 62.464 75.5028 62.712C75.0788 62.96 74.5908 63.084 74.0388 63.084ZM74.0388 62.28C74.6148 62.28 75.0548 62.092 75.3588 61.716C75.6708 61.332 75.8268 60.776 75.8268 60.048C75.8268 59.336 75.6708 58.788 75.3588 58.404C75.0468 58.012 74.6068 57.816 74.0388 57.816C73.4708 57.816 73.0308 58.012 72.7188 58.404C72.4068 58.788 72.2508 59.336 72.2508 60.048C72.2508 60.768 72.4028 61.32 72.7068 61.704C73.0188 62.088 73.4628 62.28 74.0388 62.28ZM81.2111 57.012C82.6111 57.012 83.3111 57.784 83.3111 59.328V63H82.3391V59.388C82.3391 58.844 82.2311 58.448 82.0151 58.2C81.8071 57.952 81.4711 57.828 81.0071 57.828C80.4711 57.828 80.0431 57.992 79.7231 58.32C79.4031 58.648 79.2431 59.092 79.2431 59.652V63H78.2711V57.156H79.2311V58.116C79.4231 57.756 79.6911 57.484 80.0351 57.3C80.3791 57.108 80.7711 57.012 81.2111 57.012ZM87.4674 57.012C88.2114 57.012 88.7634 57.204 89.1234 57.588C89.4914 57.964 89.6754 58.54 89.6754 59.316V63H88.7274V62.004C88.5754 62.348 88.3434 62.616 88.0314 62.808C87.7194 62.992 87.3594 63.084 86.9514 63.084C86.5754 63.084 86.2274 63.008 85.9074 62.856C85.5954 62.704 85.3474 62.492 85.1634 62.22C84.9794 61.948 84.8874 61.648 84.8874 61.32C84.8874 60.88 84.9994 60.54 85.2234 60.3C85.4474 60.052 85.8154 59.876 86.3274 59.772C86.8394 59.66 87.5514 59.604 88.4634 59.604H88.7274V59.208C88.7274 58.72 88.6274 58.368 88.4274 58.152C88.2274 57.928 87.9034 57.816 87.4554 57.816C86.7834 57.816 86.1154 58.024 85.4514 58.44L85.1274 57.732C85.4314 57.516 85.7954 57.344 86.2194 57.216C86.6514 57.08 87.0674 57.012 87.4674 57.012ZM87.0834 62.316C87.5634 62.316 87.9554 62.156 88.2594 61.836C88.5714 61.508 88.7274 61.088 88.7274 60.576V60.228H88.5114C87.8074 60.228 87.2714 60.26 86.9034 60.324C86.5354 60.38 86.2714 60.48 86.1114 60.624C85.9594 60.76 85.8834 60.964 85.8834 61.236C85.8834 61.548 85.9954 61.808 86.2194 62.016C86.4514 62.216 86.7394 62.316 87.0834 62.316ZM91.4547 63V54.54H92.4267V63H91.4547ZM102.522 57.156V65.16H101.55V61.932C101.374 62.3 101.114 62.584 100.77 62.784C100.434 62.984 100.038 63.084 99.5815 63.084C99.0615 63.084 98.6055 62.96 98.2135 62.712C97.8295 62.464 97.5295 62.116 97.3135 61.668C97.0975 61.212 96.9895 60.68 96.9895 60.072C96.9895 59.464 97.0975 58.932 97.3135 58.476C97.5295 58.012 97.8335 57.652 98.2255 57.396C98.6175 57.14 99.0695 57.012 99.5815 57.012C100.038 57.012 100.434 57.112 100.77 57.312C101.114 57.512 101.374 57.796 101.55 58.164V57.156H102.522ZM99.7735 62.28C100.342 62.28 100.778 62.088 101.082 61.704C101.394 61.312 101.55 60.76 101.55 60.048C101.55 59.336 101.394 58.788 101.082 58.404C100.778 58.02 100.342 57.828 99.7735 57.828C99.2055 57.828 98.7615 58.028 98.4415 58.428C98.1295 58.82 97.9735 59.368 97.9735 60.072C97.9735 60.776 98.1295 61.32 98.4415 61.704C98.7615 62.088 99.2055 62.28 99.7735 62.28ZM109.242 57.156V63H108.294V62.004C108.11 62.356 107.85 62.624 107.514 62.808C107.186 62.992 106.814 63.084 106.398 63.084C105.702 63.084 105.178 62.892 104.826 62.508C104.474 62.116 104.298 61.54 104.298 60.78V57.156H105.27V60.756C105.27 61.276 105.374 61.66 105.582 61.908C105.79 62.148 106.118 62.268 106.566 62.268C107.078 62.268 107.49 62.104 107.802 61.776C108.114 61.44 108.27 61 108.27 60.456V57.156H109.242ZM115.944 60.228H111.672C111.704 60.908 111.888 61.424 112.224 61.776C112.56 62.12 113.036 62.292 113.652 62.292C114.332 62.292 114.956 62.06 115.524 61.596L115.848 62.304C115.592 62.544 115.264 62.736 114.864 62.88C114.464 63.016 114.056 63.084 113.64 63.084C112.728 63.084 112.008 62.816 111.48 62.28C110.96 61.744 110.7 61.004 110.7 60.06C110.7 59.46 110.816 58.932 111.048 58.476C111.28 58.012 111.604 57.652 112.02 57.396C112.444 57.14 112.924 57.012 113.46 57.012C114.236 57.012 114.844 57.268 115.284 57.78C115.724 58.284 115.944 58.98 115.944 59.868V60.228ZM113.472 57.768C112.96 57.768 112.548 57.928 112.236 58.248C111.932 58.568 111.752 59.02 111.696 59.604H115.092C115.076 59.012 114.928 58.56 114.648 58.248C114.368 57.928 113.976 57.768 113.472 57.768ZM123.41 57.012C123.922 57.012 124.374 57.14 124.766 57.396C125.158 57.652 125.462 58.012 125.678 58.476C125.894 58.932 126.002 59.464 126.002 60.072C126.002 60.68 125.894 61.212 125.678 61.668C125.462 62.116 125.158 62.464 124.766 62.712C124.382 62.96 123.93 63.084 123.41 63.084C122.954 63.084 122.554 62.984 122.21 62.784C121.874 62.584 121.618 62.3 121.442 61.932V65.16H120.47V57.156H121.442V58.164C121.618 57.796 121.874 57.512 122.21 57.312C122.554 57.112 122.954 57.012 123.41 57.012ZM123.218 62.28C123.786 62.28 124.226 62.088 124.538 61.704C124.85 61.32 125.006 60.776 125.006 60.072C125.006 59.368 124.85 58.82 124.538 58.428C124.226 58.028 123.786 57.828 123.218 57.828C122.65 57.828 122.21 58.02 121.898 58.404C121.594 58.788 121.442 59.336 121.442 60.048C121.442 60.76 121.594 61.312 121.898 61.704C122.21 62.088 122.65 62.28 123.218 62.28ZM129.879 63.084C129.327 63.084 128.839 62.96 128.415 62.712C127.999 62.464 127.675 62.112 127.443 61.656C127.219 61.192 127.107 60.656 127.107 60.048C127.107 59.44 127.219 58.908 127.443 58.452C127.675 57.988 127.999 57.632 128.415 57.384C128.839 57.136 129.327 57.012 129.879 57.012C130.431 57.012 130.919 57.136 131.343 57.384C131.767 57.632 132.091 57.988 132.315 58.452C132.547 58.908 132.663 59.44 132.663 60.048C132.663 60.656 132.547 61.192 132.315 61.656C132.091 62.112 131.767 62.464 131.343 62.712C130.919 62.96 130.431 63.084 129.879 63.084ZM129.879 62.28C130.455 62.28 130.895 62.092 131.199 61.716C131.511 61.332 131.667 60.776 131.667 60.048C131.667 59.336 131.511 58.788 131.199 58.404C130.887 58.012 130.447 57.816 129.879 57.816C129.311 57.816 128.871 58.012 128.559 58.404C128.247 58.788 128.091 59.336 128.091 60.048C128.091 60.768 128.243 61.32 128.547 61.704C128.859 62.088 129.303 62.28 129.879 62.28ZM139.295 54.54V63H138.323V61.932C138.147 62.3 137.887 62.584 137.543 62.784C137.207 62.984 136.811 63.084 136.355 63.084C135.843 63.084 135.391 62.956 134.999 62.7C134.607 62.444 134.303 62.088 134.087 61.632C133.871 61.168 133.763 60.632 133.763 60.024C133.763 59.424 133.871 58.896 134.087 58.44C134.303 57.984 134.607 57.632 134.999 57.384C135.391 57.136 135.843 57.012 136.355 57.012C136.811 57.012 137.207 57.112 137.543 57.312C137.887 57.512 138.147 57.796 138.323 58.164V54.54H139.295ZM136.547 62.28C137.115 62.28 137.551 62.088 137.855 61.704C138.167 61.312 138.323 60.76 138.323 60.048C138.323 59.336 138.167 58.788 137.855 58.404C137.551 58.02 137.115 57.828 136.547 57.828C135.979 57.828 135.535 58.02 135.215 58.404C134.903 58.788 134.747 59.328 134.747 60.024C134.747 60.736 134.903 61.292 135.215 61.692C135.535 62.084 135.979 62.28 136.547 62.28ZM145.991 60.228H141.719C141.751 60.908 141.935 61.424 142.271 61.776C142.607 62.12 143.083 62.292 143.699 62.292C144.379 62.292 145.003 62.06 145.571 61.596L145.895 62.304C145.639 62.544 145.311 62.736 144.911 62.88C144.511 63.016 144.103 63.084 143.687 63.084C142.775 63.084 142.055 62.816 141.527 62.28C141.007 61.744 140.747 61.004 140.747 60.06C140.747 59.46 140.863 58.932 141.095 58.476C141.327 58.012 141.651 57.652 142.067 57.396C142.491 57.14 142.971 57.012 143.507 57.012C144.283 57.012 144.891 57.268 145.331 57.78C145.771 58.284 145.991 58.98 145.991 59.868V60.228ZM143.519 57.768C143.007 57.768 142.595 57.928 142.283 58.248C141.979 58.568 141.799 59.02 141.743 59.604H145.139C145.123 59.012 144.975 58.56 144.695 58.248C144.415 57.928 144.023 57.768 143.519 57.768ZM152.989 63.084C152.413 63.084 151.913 62.96 151.489 62.712C151.065 62.464 150.737 62.116 150.505 61.668C150.281 61.212 150.169 60.68 150.169 60.072C150.169 59.464 150.285 58.932 150.517 58.476C150.757 58.012 151.089 57.652 151.513 57.396C151.945 57.14 152.449 57.012 153.025 57.012C153.417 57.012 153.801 57.084 154.177 57.228C154.553 57.364 154.857 57.548 155.089 57.78L154.765 58.5C154.213 58.052 153.653 57.828 153.085 57.828C152.485 57.828 152.017 58.024 151.681 58.416C151.345 58.808 151.177 59.36 151.177 60.072C151.177 60.776 151.345 61.32 151.681 61.704C152.017 62.088 152.485 62.28 153.085 62.28C153.653 62.28 154.213 62.056 154.765 61.608L155.089 62.328C154.841 62.56 154.529 62.744 154.153 62.88C153.777 63.016 153.389 63.084 152.989 63.084ZM158.683 63.084C158.131 63.084 157.643 62.96 157.219 62.712C156.803 62.464 156.479 62.112 156.247 61.656C156.023 61.192 155.911 60.656 155.911 60.048C155.911 59.44 156.023 58.908 156.247 58.452C156.479 57.988 156.803 57.632 157.219 57.384C157.643 57.136 158.131 57.012 158.683 57.012C159.235 57.012 159.723 57.136 160.147 57.384C160.571 57.632 160.895 57.988 161.119 58.452C161.351 58.908 161.467 59.44 161.467 60.048C161.467 60.656 161.351 61.192 161.119 61.656C160.895 62.112 160.571 62.464 160.147 62.712C159.723 62.96 159.235 63.084 158.683 63.084ZM158.683 62.28C159.259 62.28 159.699 62.092 160.003 61.716C160.315 61.332 160.471 60.776 160.471 60.048C160.471 59.336 160.315 58.788 160.003 58.404C159.691 58.012 159.251 57.816 158.683 57.816C158.115 57.816 157.675 58.012 157.363 58.404C157.051 58.788 156.895 59.336 156.895 60.048C156.895 60.768 157.047 61.32 157.351 61.704C157.663 62.088 158.107 62.28 158.683 62.28ZM165.856 57.012C167.256 57.012 167.956 57.784 167.956 59.328V63H166.984V59.388C166.984 58.844 166.876 58.448 166.66 58.2C166.452 57.952 166.116 57.828 165.652 57.828C165.116 57.828 164.688 57.992 164.368 58.32C164.048 58.648 163.888 59.092 163.888 59.652V63H162.916V57.156H163.876V58.116C164.068 57.756 164.336 57.484 164.68 57.3C165.024 57.108 165.416 57.012 165.856 57.012ZM172.304 62.304C172.48 62.304 172.656 62.292 172.832 62.268L172.784 63.036C172.6 63.068 172.4 63.084 172.184 63.084C171.48 63.084 170.948 62.9 170.588 62.532C170.236 62.164 170.06 61.652 170.06 60.996V57.924H168.92V57.156H170.06V55.38H171.032V57.156H172.688V57.924H171.032V60.924C171.032 61.844 171.456 62.304 172.304 62.304ZM178.71 60.228H174.438C174.47 60.908 174.654 61.424 174.99 61.776C175.326 62.12 175.802 62.292 176.418 62.292C177.098 62.292 177.722 62.06 178.29 61.596L178.614 62.304C178.358 62.544 178.03 62.736 177.63 62.88C177.23 63.016 176.822 63.084 176.406 63.084C175.494 63.084 174.774 62.816 174.246 62.28C173.726 61.744 173.466 61.004 173.466 60.06C173.466 59.46 173.582 58.932 173.814 58.476C174.046 58.012 174.37 57.652 174.786 57.396C175.21 57.14 175.69 57.012 176.226 57.012C177.002 57.012 177.61 57.268 178.05 57.78C178.49 58.284 178.71 58.98 178.71 59.868V60.228ZM176.238 57.768C175.726 57.768 175.314 57.928 175.002 58.248C174.698 58.568 174.518 59.02 174.462 59.604H177.858C177.842 59.012 177.694 58.56 177.414 58.248C177.134 57.928 176.742 57.768 176.238 57.768ZM183.454 57.852L182.818 57.912C182.218 57.968 181.782 58.156 181.51 58.476C181.246 58.796 181.114 59.192 181.114 59.664V63H180.142V57.156H181.09V58.176C181.418 57.496 182.062 57.116 183.022 57.036L183.37 57.012L183.454 57.852ZM189.842 57.012C190.586 57.012 191.138 57.204 191.498 57.588C191.866 57.964 192.05 58.54 192.05 59.316V63H191.102V62.004C190.95 62.348 190.718 62.616 190.406 62.808C190.094 62.992 189.734 63.084 189.326 63.084C188.95 63.084 188.602 63.008 188.282 62.856C187.97 62.704 187.722 62.492 187.538 62.22C187.354 61.948 187.262 61.648 187.262 61.32C187.262 60.88 187.374 60.54 187.598 60.3C187.822 60.052 188.19 59.876 188.702 59.772C189.214 59.66 189.926 59.604 190.838 59.604H191.102V59.208C191.102 58.72 191.002 58.368 190.802 58.152C190.602 57.928 190.278 57.816 189.83 57.816C189.158 57.816 188.49 58.024 187.826 58.44L187.502 57.732C187.806 57.516 188.17 57.344 188.594 57.216C189.026 57.08 189.442 57.012 189.842 57.012ZM189.458 62.316C189.938 62.316 190.33 62.156 190.634 61.836C190.946 61.508 191.102 61.088 191.102 60.576V60.228H190.886C190.182 60.228 189.646 60.26 189.278 60.324C188.91 60.38 188.646 60.48 188.486 60.624C188.334 60.76 188.258 60.964 188.258 61.236C188.258 61.548 188.37 61.808 188.594 62.016C188.826 62.216 189.114 62.316 189.458 62.316ZM196.398 62.304C196.574 62.304 196.75 62.292 196.926 62.268L196.878 63.036C196.694 63.068 196.494 63.084 196.278 63.084C195.574 63.084 195.042 62.9 194.682 62.532C194.33 62.164 194.154 61.652 194.154 60.996V57.924H193.014V57.156H194.154V55.38H195.126V57.156H196.782V57.924H195.126V60.924C195.126 61.844 195.55 62.304 196.398 62.304ZM202.804 60.228H198.532C198.564 60.908 198.748 61.424 199.084 61.776C199.42 62.12 199.896 62.292 200.512 62.292C201.192 62.292 201.816 62.06 202.384 61.596L202.708 62.304C202.452 62.544 202.124 62.736 201.724 62.88C201.324 63.016 200.916 63.084 200.5 63.084C199.588 63.084 198.868 62.816 198.34 62.28C197.82 61.744 197.56 61.004 197.56 60.06C197.56 59.46 197.676 58.932 197.908 58.476C198.14 58.012 198.464 57.652 198.88 57.396C199.304 57.14 199.784 57.012 200.32 57.012C201.096 57.012 201.704 57.268 202.144 57.78C202.584 58.284 202.804 58.98 202.804 59.868V60.228ZM200.332 57.768C199.82 57.768 199.408 57.928 199.096 58.248C198.792 58.568 198.612 59.02 198.556 59.604H201.952C201.936 59.012 201.788 58.56 201.508 58.248C201.228 57.928 200.836 57.768 200.332 57.768ZM200.656 56.388H199.984L201.172 53.964H202.288L200.656 56.388ZM210.87 58.68L214.086 63H212.922L210.306 59.412L207.69 63H206.526L209.742 58.668L206.682 54.54H207.846L210.318 57.936L212.79 54.54H213.942L210.87 58.68ZM220.653 63.084C220.077 63.084 219.577 62.96 219.153 62.712C218.729 62.464 218.401 62.116 218.169 61.668C217.945 61.212 217.833 60.68 217.833 60.072C217.833 59.464 217.949 58.932 218.181 58.476C218.421 58.012 218.753 57.652 219.177 57.396C219.609 57.14 220.113 57.012 220.689 57.012C221.081 57.012 221.465 57.084 221.841 57.228C222.217 57.364 222.521 57.548 222.753 57.78L222.429 58.5C221.877 58.052 221.317 57.828 220.749 57.828C220.149 57.828 219.681 58.024 219.345 58.416C219.009 58.808 218.841 59.36 218.841 60.072C218.841 60.776 219.009 61.32 219.345 61.704C219.681 62.088 220.149 62.28 220.749 62.28C221.317 62.28 221.877 62.056 222.429 61.608L222.753 62.328C222.505 62.56 222.193 62.744 221.817 62.88C221.441 63.016 221.053 63.084 220.653 63.084ZM226.299 57.012C227.043 57.012 227.595 57.204 227.955 57.588C228.323 57.964 228.507 58.54 228.507 59.316V63H227.559V62.004C227.407 62.348 227.175 62.616 226.863 62.808C226.551 62.992 226.191 63.084 225.783 63.084C225.407 63.084 225.059 63.008 224.739 62.856C224.427 62.704 224.179 62.492 223.995 62.22C223.811 61.948 223.719 61.648 223.719 61.32C223.719 60.88 223.831 60.54 224.055 60.3C224.279 60.052 224.647 59.876 225.159 59.772C225.671 59.66 226.383 59.604 227.295 59.604H227.559V59.208C227.559 58.72 227.459 58.368 227.259 58.152C227.059 57.928 226.735 57.816 226.287 57.816C225.615 57.816 224.947 58.024 224.283 58.44L223.959 57.732C224.263 57.516 224.627 57.344 225.051 57.216C225.483 57.08 225.899 57.012 226.299 57.012ZM225.915 62.316C226.395 62.316 226.787 62.156 227.091 61.836C227.403 61.508 227.559 61.088 227.559 60.576V60.228H227.343C226.639 60.228 226.103 60.26 225.735 60.324C225.367 60.38 225.103 60.48 224.943 60.624C224.791 60.76 224.715 60.964 224.715 61.236C224.715 61.548 224.827 61.808 225.051 62.016C225.283 62.216 225.571 62.316 225.915 62.316ZM233.599 57.852L232.963 57.912C232.363 57.968 231.927 58.156 231.655 58.476C231.391 58.796 231.259 59.192 231.259 59.664V63H230.287V57.156H231.235V58.176C231.563 57.496 232.207 57.116 233.167 57.036L233.515 57.012L233.599 57.852ZM236.846 57.012C237.59 57.012 238.142 57.204 238.502 57.588C238.87 57.964 239.054 58.54 239.054 59.316V63H238.106V62.004C237.954 62.348 237.722 62.616 237.41 62.808C237.098 62.992 236.738 63.084 236.33 63.084C235.954 63.084 235.606 63.008 235.286 62.856C234.974 62.704 234.726 62.492 234.542 62.22C234.358 61.948 234.266 61.648 234.266 61.32C234.266 60.88 234.378 60.54 234.602 60.3C234.826 60.052 235.194 59.876 235.706 59.772C236.218 59.66 236.93 59.604 237.842 59.604H238.106V59.208C238.106 58.72 238.006 58.368 237.806 58.152C237.606 57.928 237.282 57.816 236.834 57.816C236.162 57.816 235.494 58.024 234.83 58.44L234.506 57.732C234.81 57.516 235.174 57.344 235.598 57.216C236.03 57.08 236.446 57.012 236.846 57.012ZM236.462 62.316C236.942 62.316 237.334 62.156 237.638 61.836C237.95 61.508 238.106 61.088 238.106 60.576V60.228H237.89C237.186 60.228 236.65 60.26 236.282 60.324C235.914 60.38 235.65 60.48 235.49 60.624C235.338 60.76 235.262 60.964 235.262 61.236C235.262 61.548 235.374 61.808 235.598 62.016C235.83 62.216 236.118 62.316 236.462 62.316ZM243.306 63.084C242.73 63.084 242.23 62.96 241.806 62.712C241.382 62.464 241.054 62.116 240.822 61.668C240.598 61.212 240.486 60.68 240.486 60.072C240.486 59.464 240.602 58.932 240.834 58.476C241.074 58.012 241.406 57.652 241.83 57.396C242.262 57.14 242.766 57.012 243.342 57.012C243.734 57.012 244.118 57.084 244.494 57.228C244.87 57.364 245.174 57.548 245.406 57.78L245.082 58.5C244.53 58.052 243.97 57.828 243.402 57.828C242.802 57.828 242.334 58.024 241.998 58.416C241.662 58.808 241.494 59.36 241.494 60.072C241.494 60.776 241.662 61.32 241.998 61.704C242.334 62.088 242.802 62.28 243.402 62.28C243.97 62.28 244.53 62.056 245.082 61.608L245.406 62.328C245.158 62.56 244.846 62.744 244.47 62.88C244.094 63.016 243.706 63.084 243.306 63.084ZM249.156 62.304C249.332 62.304 249.508 62.292 249.684 62.268L249.636 63.036C249.452 63.068 249.252 63.084 249.036 63.084C248.332 63.084 247.8 62.9 247.44 62.532C247.088 62.164 246.912 61.652 246.912 60.996V57.924H245.772V57.156H246.912V55.38H247.884V57.156H249.54V57.924H247.884V60.924C247.884 61.844 248.308 62.304 249.156 62.304ZM255.562 60.228H251.29C251.322 60.908 251.506 61.424 251.842 61.776C252.178 62.12 252.654 62.292 253.27 62.292C253.95 62.292 254.574 62.06 255.142 61.596L255.466 62.304C255.21 62.544 254.882 62.736 254.482 62.88C254.082 63.016 253.674 63.084 253.258 63.084C252.346 63.084 251.626 62.816 251.098 62.28C250.578 61.744 250.318 61.004 250.318 60.06C250.318 59.46 250.434 58.932 250.666 58.476C250.898 58.012 251.222 57.652 251.638 57.396C252.062 57.14 252.542 57.012 253.078 57.012C253.854 57.012 254.462 57.268 254.902 57.78C255.342 58.284 255.562 58.98 255.562 59.868V60.228ZM253.09 57.768C252.578 57.768 252.166 57.928 251.854 58.248C251.55 58.568 251.37 59.02 251.314 59.604H254.71C254.694 59.012 254.546 58.56 254.266 58.248C253.986 57.928 253.594 57.768 253.09 57.768ZM260.306 57.852L259.67 57.912C259.07 57.968 258.634 58.156 258.362 58.476C258.098 58.796 257.966 59.192 257.966 59.664V63H256.994V57.156H257.942V58.176C258.27 57.496 258.914 57.116 259.874 57.036L260.222 57.012L260.306 57.852ZM266.003 60.228H261.731C261.763 60.908 261.947 61.424 262.283 61.776C262.619 62.12 263.095 62.292 263.711 62.292C264.391 62.292 265.015 62.06 265.583 61.596L265.907 62.304C265.651 62.544 265.323 62.736 264.923 62.88C264.523 63.016 264.115 63.084 263.699 63.084C262.787 63.084 262.067 62.816 261.539 62.28C261.019 61.744 260.759 61.004 260.759 60.06C260.759 59.46 260.875 58.932 261.107 58.476C261.339 58.012 261.663 57.652 262.079 57.396C262.503 57.14 262.983 57.012 263.519 57.012C264.295 57.012 264.903 57.268 265.343 57.78C265.783 58.284 266.003 58.98 266.003 59.868V60.228ZM263.531 57.768C263.019 57.768 262.607 57.928 262.295 58.248C261.991 58.568 261.811 59.02 261.755 59.604H265.151C265.135 59.012 264.987 58.56 264.707 58.248C264.427 57.928 264.035 57.768 263.531 57.768ZM269.415 63.084C268.431 63.084 267.651 62.832 267.075 62.328L267.399 61.608C267.711 61.856 268.027 62.036 268.347 62.148C268.675 62.252 269.043 62.304 269.451 62.304C269.883 62.304 270.211 62.232 270.435 62.088C270.667 61.936 270.783 61.72 270.783 61.44C270.783 61.208 270.707 61.024 270.555 60.888C270.403 60.752 270.151 60.644 269.799 60.564L268.815 60.336C268.319 60.224 267.939 60.032 267.675 59.76C267.411 59.488 267.279 59.152 267.279 58.752C267.279 58.232 267.483 57.812 267.891 57.492C268.299 57.172 268.843 57.012 269.523 57.012C269.931 57.012 270.319 57.08 270.687 57.216C271.055 57.344 271.363 57.532 271.611 57.78L271.287 58.488C270.751 58.032 270.163 57.804 269.523 57.804C269.115 57.804 268.795 57.884 268.563 58.044C268.339 58.196 268.227 58.412 268.227 58.692C268.227 58.924 268.295 59.112 268.431 59.256C268.575 59.392 268.803 59.496 269.115 59.568L270.111 59.808C270.655 59.936 271.059 60.132 271.323 60.396C271.587 60.652 271.719 60.988 271.719 61.404C271.719 61.916 271.511 62.324 271.095 62.628C270.687 62.932 270.127 63.084 269.415 63.084Z" fill="#39464D"/>
<path d="M345.016 54.3258C344.8 54.115 344.526 54 344.203 54C343.558 54 343.039 54.4983 343.039 55.1308C343.039 55.447 343.176 55.7345 343.401 55.9549L350.25 62.5096L343.401 69.0451C343.176 69.2655 343.039 69.5626 343.039 69.8692C343.039 70.5017 343.558 71 344.203 71C344.526 71 344.8 70.885 345.016 70.6742L352.628 63.3912C352.902 63.1421 353.029 62.8354 353.039 62.5C353.039 62.1646 352.902 61.8771 352.628 61.6184L345.016 54.3258Z" fill="#00AC4A"/>
</svg>
