<svg width="370" height="320" viewBox="0 0 370 320" fill="none" xmlns="http://www.w3.org/2000/svg">
<rect width="370" height="320" rx="8" fill="white"/>
<path d="M16.98 32.9998V23.1298H23.784V24.8238H19.108V27.1338H23.504V28.8278H19.108V31.3058H23.784V32.9998H16.98ZM27.7568 33.1118C27.1222 33.1118 26.5388 33.0418 26.0068 32.9018C25.4842 32.7524 25.0315 32.5424 24.6488 32.2718L25.2088 30.8158C25.5822 31.0678 25.9928 31.2638 26.4408 31.4038C26.8888 31.5438 27.3415 31.6138 27.7988 31.6138C28.1255 31.6138 28.3775 31.5624 28.5548 31.4598C28.7415 31.3478 28.8348 31.1984 28.8348 31.0118C28.8348 30.8438 28.7695 30.7131 28.6388 30.6198C28.5175 30.5264 28.2842 30.4424 27.9388 30.3678L26.8188 30.1158C26.1562 29.9664 25.6662 29.7378 25.3488 29.4298C25.0408 29.1124 24.8868 28.6831 24.8868 28.1418C24.8868 27.7124 25.0082 27.3344 25.2508 27.0078C25.5028 26.6811 25.8528 26.4244 26.3008 26.2378C26.7582 26.0511 27.2762 25.9578 27.8548 25.9578C28.3495 25.9578 28.8302 26.0324 29.2968 26.1818C29.7635 26.3311 30.1835 26.5411 30.5568 26.8118L29.9968 28.2118C29.2688 27.7078 28.5502 27.4558 27.8408 27.4558C27.5142 27.4558 27.2575 27.5118 27.0708 27.6238C26.8842 27.7358 26.7908 27.8944 26.7908 28.0998C26.7908 28.2491 26.8468 28.3658 26.9588 28.4498C27.0708 28.5338 27.2668 28.6131 27.5468 28.6878L28.7088 28.9538C29.4088 29.1124 29.9175 29.3551 30.2348 29.6818C30.5615 29.9991 30.7248 30.4331 30.7248 30.9838C30.7248 31.6464 30.4588 32.1691 29.9268 32.5518C29.4042 32.9251 28.6808 33.1118 27.7568 33.1118ZM35.2091 33.1118C34.0891 33.1118 33.2071 32.7944 32.5631 32.1598C31.9191 31.5251 31.5971 30.6618 31.5971 29.5698C31.5971 28.8511 31.7511 28.2211 32.0591 27.6798C32.3671 27.1291 32.8011 26.7044 33.3611 26.4058C33.9211 26.1071 34.5698 25.9578 35.3071 25.9578C35.8111 25.9578 36.2964 26.0371 36.7631 26.1958C37.2298 26.3451 37.6078 26.5504 37.8971 26.8118L37.3371 28.2538C37.0664 28.0391 36.7678 27.8758 36.4411 27.7638C36.1238 27.6424 35.8111 27.5818 35.5031 27.5818C34.9524 27.5818 34.5231 27.7451 34.2151 28.0718C33.9164 28.3984 33.7671 28.8838 33.7671 29.5278C33.7671 30.1718 33.9164 30.6618 34.2151 30.9978C34.5231 31.3244 34.9524 31.4878 35.5031 31.4878C35.8111 31.4878 36.1238 31.4318 36.4411 31.3198C36.7678 31.1984 37.0664 31.0304 37.3371 30.8158L37.8971 32.2718C37.5891 32.5331 37.1971 32.7384 36.7211 32.8878C36.2451 33.0371 35.7411 33.1118 35.2091 33.1118ZM42.1551 33.1118C41.4271 33.1118 40.7877 32.9671 40.2371 32.6778C39.6864 32.3791 39.2617 31.9638 38.9631 31.4318C38.6644 30.8904 38.5151 30.2558 38.5151 29.5278C38.5151 28.7998 38.6644 28.1698 38.9631 27.6378C39.2617 27.0964 39.6864 26.6811 40.2371 26.3918C40.7877 26.1024 41.4271 25.9578 42.1551 25.9578C42.8831 25.9578 43.5224 26.1024 44.0731 26.3918C44.6237 26.6811 45.0484 27.0964 45.3471 27.6378C45.6457 28.1698 45.7951 28.7998 45.7951 29.5278C45.7951 30.2558 45.6457 30.8904 45.3471 31.4318C45.0484 31.9638 44.6237 32.3791 44.0731 32.6778C43.5224 32.9671 42.8831 33.1118 42.1551 33.1118ZM42.1551 31.5018C43.1817 31.5018 43.6951 30.8438 43.6951 29.5278C43.6951 28.8651 43.5597 28.3704 43.2891 28.0438C43.0277 27.7171 42.6497 27.5538 42.1551 27.5538C41.1284 27.5538 40.6151 28.2118 40.6151 29.5278C40.6151 30.8438 41.1284 31.5018 42.1551 31.5018ZM47.0815 32.9998V23.1298H49.1955V32.9998H47.0815ZM55.126 25.9578C55.9473 25.9578 56.5586 26.2004 56.96 26.6858C57.3613 27.1618 57.562 27.8851 57.562 28.8558V32.9998H55.448V28.9538C55.448 28.4871 55.3593 28.1464 55.182 27.9318C55.014 27.7171 54.748 27.6098 54.384 27.6098C53.9453 27.6098 53.5906 27.7498 53.32 28.0298C53.0586 28.3098 52.928 28.6831 52.928 29.1498V32.9998H50.814V23.1298H52.928V27.0358C53.1706 26.6811 53.4786 26.4151 53.852 26.2378C54.2346 26.0511 54.6593 25.9578 55.126 25.9578ZM62.1921 25.9578C63.2188 25.9578 63.9748 26.2004 64.4601 26.6858C64.9548 27.1711 65.2021 27.9224 65.2021 28.9398V32.9998H63.2001V31.9778C63.0601 32.3324 62.8268 32.6124 62.5001 32.8178C62.1735 33.0138 61.7908 33.1118 61.3521 33.1118C60.8855 33.1118 60.4608 33.0184 60.0781 32.8318C59.7048 32.6451 59.4061 32.3838 59.1821 32.0478C58.9675 31.7118 58.8601 31.3384 58.8601 30.9278C58.8601 30.4238 58.9861 30.0271 59.2381 29.7378C59.4995 29.4484 59.9148 29.2384 60.4841 29.1078C61.0535 28.9771 61.8328 28.9118 62.8221 28.9118H63.1861V28.6598C63.1861 28.2491 63.0975 27.9598 62.9201 27.7918C62.7428 27.6238 62.4348 27.5398 61.9961 27.5398C61.6601 27.5398 61.2868 27.6004 60.8761 27.7218C60.4655 27.8431 60.0735 28.0111 59.7001 28.2258L59.1401 26.8118C59.5321 26.5691 60.0128 26.3684 60.5821 26.2098C61.1608 26.0418 61.6975 25.9578 62.1921 25.9578ZM61.8141 31.6558C62.2248 31.6558 62.5561 31.5204 62.8081 31.2498C63.0601 30.9698 63.1861 30.6104 63.1861 30.1718V29.9338H62.9481C62.1921 29.9338 61.6601 29.9944 61.3521 30.1158C61.0535 30.2371 60.9041 30.4564 60.9041 30.7738C60.9041 31.0258 60.9881 31.2358 61.1561 31.4038C61.3335 31.5718 61.5528 31.6558 61.8141 31.6558ZM77.3149 26.1258V32.9998H75.2569V32.0198C75.0422 32.3744 74.7575 32.6451 74.4029 32.8318C74.0575 33.0184 73.6655 33.1118 73.2269 33.1118C72.3589 33.1118 71.7102 32.8738 71.2809 32.3978C70.8609 31.9124 70.6509 31.1844 70.6509 30.2138V26.1258H72.7649V30.2558C72.7649 30.6664 72.8489 30.9698 73.0169 31.1658C73.1942 31.3618 73.4602 31.4598 73.8149 31.4598C74.2255 31.4598 74.5569 31.3198 74.8089 31.0398C75.0702 30.7598 75.2009 30.3911 75.2009 29.9338V26.1258H77.3149ZM87.407 25.9578C88.191 25.9578 88.7743 26.1958 89.157 26.6718C89.5397 27.1478 89.731 27.8758 89.731 28.8558V32.9998H87.617V28.9258C87.617 28.4591 87.5423 28.1231 87.393 27.9178C87.253 27.7124 87.0103 27.6098 86.665 27.6098C86.2637 27.6098 85.951 27.7498 85.727 28.0298C85.503 28.3098 85.391 28.7018 85.391 29.2058V32.9998H83.277V28.9258C83.277 28.4591 83.2023 28.1231 83.053 27.9178C82.913 27.7124 82.6703 27.6098 82.325 27.6098C81.9237 27.6098 81.611 27.7498 81.387 28.0298C81.163 28.3098 81.051 28.7018 81.051 29.2058V32.9998H78.937V26.1258H80.995V27.0498C81.2097 26.6951 81.4943 26.4244 81.849 26.2378C82.213 26.0511 82.6283 25.9578 83.095 25.9578C84.1123 25.9578 84.7937 26.3824 85.139 27.2318C85.363 26.8398 85.6757 26.5318 86.077 26.3078C86.4783 26.0744 86.9217 25.9578 87.407 25.9578ZM95.2339 32.9998V26.1258H97.3479V32.9998H95.2339ZM95.1639 22.8218H97.4319V24.7958H95.1639V22.8218ZM102.774 31.5578C102.989 31.5578 103.213 31.5438 103.446 31.5158L103.334 33.0558C103.064 33.0931 102.793 33.1118 102.522 33.1118C101.477 33.1118 100.712 32.8831 100.226 32.4258C99.7503 31.9684 99.5123 31.2731 99.5123 30.3398V27.7078H98.2103V26.1258H99.5123V24.1098H101.626V26.1258H103.348V27.7078H101.626V30.3258C101.626 31.1471 102.009 31.5578 102.774 31.5578ZM110.568 29.9618H106.088C106.154 30.5124 106.331 30.9138 106.62 31.1658C106.919 31.4084 107.339 31.5298 107.88 31.5298C108.235 31.5298 108.585 31.4738 108.93 31.3618C109.285 31.2404 109.607 31.0724 109.896 30.8578L110.456 32.2718C110.12 32.5331 109.71 32.7384 109.224 32.8878C108.748 33.0371 108.268 33.1118 107.782 33.1118C106.625 33.1118 105.71 32.7944 105.038 32.1598C104.376 31.5158 104.044 30.6431 104.044 29.5418C104.044 28.8418 104.189 28.2211 104.478 27.6798C104.768 27.1384 105.169 26.7184 105.682 26.4198C106.196 26.1118 106.779 25.9578 107.432 25.9578C108.394 25.9578 109.154 26.2704 109.714 26.8958C110.284 27.5211 110.568 28.3704 110.568 29.4438V29.9618ZM107.488 27.4138C107.087 27.4138 106.765 27.5444 106.522 27.8058C106.289 28.0578 106.144 28.4264 106.088 28.9118H108.79C108.762 28.4171 108.636 28.0438 108.412 27.7918C108.198 27.5398 107.89 27.4138 107.488 27.4138ZM120.315 25.9578C121.099 25.9578 121.683 26.1958 122.065 26.6718C122.448 27.1478 122.639 27.8758 122.639 28.8558V32.9998H120.525V28.9258C120.525 28.4591 120.451 28.1231 120.301 27.9178C120.161 27.7124 119.919 27.6098 119.573 27.6098C119.172 27.6098 118.859 27.7498 118.635 28.0298C118.411 28.3098 118.299 28.7018 118.299 29.2058V32.9998H116.185V28.9258C116.185 28.4591 116.111 28.1231 115.961 27.9178C115.821 27.7124 115.579 27.6098 115.233 27.6098C114.832 27.6098 114.519 27.7498 114.295 28.0298C114.071 28.3098 113.959 28.7018 113.959 29.2058V32.9998H111.845V26.1258H113.903V27.0498C114.118 26.6951 114.403 26.4244 114.757 26.2378C115.121 26.0511 115.537 25.9578 116.003 25.9578C117.021 25.9578 117.702 26.3824 118.047 27.2318C118.271 26.8398 118.584 26.5318 118.985 26.3078C119.387 26.0744 119.83 25.9578 120.315 25.9578ZM124.106 26.1258H126.374V28.3658H124.106V26.1258ZM124.106 30.7598H126.374V32.9998H124.106V30.7598Z" fill="#525F66"/>
<rect x="16.5" y="44.5002" width="337" height="125" rx="7.5" fill="white" stroke="#CCCCCC"/>
<circle cx="68" cy="108" r="36" fill="#F2F2F2"/>
<path d="M75 107.48C74.7348 107.48 74.4804 107.585 74.2929 107.773C74.1054 107.96 74 108.214 74 108.48V110.87L72.5 109.39C71.973 108.884 71.2706 108.601 70.54 108.601C69.8094 108.601 69.107 108.884 68.58 109.39L67.88 110.09L65.39 107.6C64.8691 107.082 64.1645 106.791 63.43 106.791C62.6955 106.791 61.9909 107.082 61.47 107.6L60 109.09V103.48C60 103.214 60.1054 102.96 60.2929 102.773C60.4804 102.585 60.7348 102.48 61 102.48H67C67.2652 102.48 67.5196 102.374 67.7071 102.187C67.8946 101.999 68 101.745 68 101.48C68 101.214 67.8946 100.96 67.7071 100.773C67.5196 100.585 67.2652 100.48 67 100.48H61C60.2044 100.48 59.4413 100.796 58.8787 101.358C58.3161 101.921 58 102.684 58 103.48V115.48C58 116.275 58.3161 117.038 58.8787 117.601C59.4413 118.164 60.2044 118.48 61 118.48H73C73.7956 118.48 74.5587 118.164 75.1213 117.601C75.6839 117.038 76 116.275 76 115.48V108.48C76 108.214 75.8946 107.96 75.7071 107.773C75.5196 107.585 75.2652 107.48 75 107.48ZM61 116.48C60.7348 116.48 60.4804 116.374 60.2929 116.187C60.1054 115.999 60 115.745 60 115.48V111.92L62.88 109C62.9527 108.925 63.0398 108.865 63.1359 108.824C63.2321 108.784 63.3355 108.763 63.44 108.763C63.5445 108.763 63.6479 108.784 63.7441 108.824C63.8402 108.865 63.9273 108.925 64 109L67.17 112.17L71.43 116.43L61 116.48ZM74 115.48C73.9965 115.672 73.9375 115.86 73.83 116.02L69.29 111.5L69.99 110.81C70.1362 110.664 70.3339 110.583 70.54 110.583C70.7461 110.583 70.9438 110.664 71.09 110.81L74 113.7V115.48ZM77.72 100.23L75.3 97.8097C75.1126 97.6235 74.8592 97.5189 74.595 97.5189C74.3308 97.5189 74.0774 97.6235 73.89 97.8097L69.31 102.39C69.2137 102.481 69.1367 102.592 69.0835 102.713C69.0302 102.835 69.0018 102.967 69 103.1V105.52C69 105.785 69.1054 106.039 69.2929 106.227C69.4804 106.414 69.7348 106.52 70 106.52H72.42C72.6823 106.519 72.9337 106.414 73.12 106.23L77.7 101.65C77.795 101.558 77.871 101.449 77.9235 101.327C77.976 101.206 78.004 101.076 78.0058 100.944C78.0077 100.812 77.9834 100.681 77.9343 100.558C77.8853 100.436 77.8124 100.324 77.72 100.23ZM72 104.52H71V103.52L74.6 99.9297L75.6 100.93L72 104.52Z" fill="#AAB0B2"/>
<rect x="120" y="59.9998" width="125" height="25" rx="4" fill="#0097DC"/>
<path d="M134.904 76.9998V69.8118H132.144V68.5398H139.212V69.8118H136.452V76.9998H134.904ZM140.139 76.9998V71.1318H141.639V76.9998H140.139ZM141.363 70.3638H140.403L141.591 67.9158H143.115L141.363 70.3638ZM146.186 75.9678C146.362 75.9678 146.546 75.9558 146.738 75.9318L146.666 77.0478C146.426 77.0718 146.206 77.0838 146.006 77.0838C145.182 77.0838 144.574 76.8958 144.182 76.5198C143.79 76.1358 143.594 75.5678 143.594 74.8158V72.2598H142.466V71.1318H143.594V69.3798H145.094V71.1318H146.642V72.2598H145.094V74.7918C145.094 75.5758 145.458 75.9678 146.186 75.9678ZM153.004 71.1318V76.9998H151.54V76.0998C151.356 76.4198 151.108 76.6678 150.796 76.8438C150.484 77.0118 150.132 77.0958 149.74 77.0958C148.3 77.0958 147.58 76.2878 147.58 74.6718V71.1318H149.08V74.6838C149.08 75.0998 149.164 75.4078 149.332 75.6078C149.5 75.8078 149.764 75.9078 150.124 75.9078C150.54 75.9078 150.872 75.7718 151.12 75.4998C151.376 75.2198 151.504 74.8518 151.504 74.3958V71.1318H153.004ZM154.565 76.9998V68.5398H156.065V76.9998H154.565ZM160.288 77.0958C159.688 77.0958 159.16 76.9718 158.704 76.7238C158.256 76.4758 157.908 76.1198 157.66 75.6558C157.412 75.1918 157.288 74.6518 157.288 74.0358C157.288 73.4198 157.412 72.8838 157.66 72.4278C157.908 71.9638 158.256 71.6078 158.704 71.3598C159.16 71.1118 159.688 70.9878 160.288 70.9878C160.888 70.9878 161.412 71.1118 161.86 71.3598C162.316 71.6078 162.664 71.9638 162.904 72.4278C163.152 72.8838 163.276 73.4198 163.276 74.0358C163.276 74.6518 163.152 75.1918 162.904 75.6558C162.664 76.1198 162.316 76.4758 161.86 76.7238C161.412 76.9718 160.888 77.0958 160.288 77.0958ZM160.276 75.9318C160.764 75.9318 161.136 75.7718 161.392 75.4518C161.648 75.1318 161.776 74.6598 161.776 74.0358C161.776 73.4198 161.648 72.9518 161.392 72.6318C161.136 72.3038 160.768 72.1398 160.288 72.1398C159.808 72.1398 159.436 72.3038 159.172 72.6318C158.916 72.9518 158.788 73.4198 158.788 74.0358C158.788 74.6598 158.916 75.1318 159.172 75.4518C159.428 75.7718 159.796 75.9318 160.276 75.9318ZM173.436 68.5398V76.9998H171.948V76.0518C171.772 76.3798 171.516 76.6358 171.18 76.8198C170.852 77.0038 170.476 77.0958 170.052 77.0958C169.548 77.0958 169.096 76.9678 168.696 76.7118C168.304 76.4558 167.996 76.0958 167.772 75.6318C167.556 75.1598 167.448 74.6198 167.448 74.0118C167.448 73.4038 167.556 72.8718 167.772 72.4158C167.996 71.9598 168.304 71.6078 168.696 71.3598C169.088 71.1118 169.54 70.9878 170.052 70.9878C170.476 70.9878 170.852 71.0758 171.18 71.2518C171.508 71.4278 171.76 71.6758 171.936 71.9958V68.5398H173.436ZM170.448 75.9318C170.928 75.9318 171.296 75.7678 171.552 75.4398C171.816 75.1118 171.948 74.6438 171.948 74.0358C171.948 73.4278 171.816 72.9638 171.552 72.6438C171.296 72.3158 170.932 72.1518 170.46 72.1518C169.98 72.1518 169.608 72.3118 169.344 72.6318C169.08 72.9518 168.948 73.4118 168.948 74.0118C168.948 74.6198 169.08 75.0918 169.344 75.4278C169.608 75.7638 169.976 75.9318 170.448 75.9318ZM180.127 74.3358H176.131C176.179 74.8798 176.343 75.2838 176.623 75.5478C176.903 75.8118 177.303 75.9438 177.823 75.9438C178.471 75.9438 179.063 75.7358 179.599 75.3198L180.031 76.3518C179.759 76.5758 179.415 76.7558 178.999 76.8918C178.591 77.0278 178.179 77.0958 177.763 77.0958C176.803 77.0958 176.043 76.8238 175.483 76.2798C174.931 75.7358 174.655 74.9918 174.655 74.0478C174.655 73.4478 174.775 72.9158 175.015 72.4518C175.255 71.9878 175.591 71.6278 176.023 71.3718C176.463 71.1158 176.959 70.9878 177.511 70.9878C178.319 70.9878 178.955 71.2478 179.419 71.7678C179.891 72.2878 180.127 73.0038 180.127 73.9158V74.3358ZM177.547 72.0438C177.147 72.0438 176.823 72.1718 176.575 72.4278C176.335 72.6838 176.187 73.0518 176.131 73.5318H178.843C178.827 73.0438 178.707 72.6758 178.483 72.4278C178.259 72.1718 177.947 72.0438 177.547 72.0438ZM190.276 68.5398V76.9998H188.788V76.0518C188.612 76.3798 188.356 76.6358 188.02 76.8198C187.692 77.0038 187.316 77.0958 186.892 77.0958C186.388 77.0958 185.936 76.9678 185.536 76.7118C185.144 76.4558 184.836 76.0958 184.612 75.6318C184.396 75.1598 184.288 74.6198 184.288 74.0118C184.288 73.4038 184.396 72.8718 184.612 72.4158C184.836 71.9598 185.144 71.6078 185.536 71.3598C185.928 71.1118 186.38 70.9878 186.892 70.9878C187.316 70.9878 187.692 71.0758 188.02 71.2518C188.348 71.4278 188.6 71.6758 188.776 71.9958V68.5398H190.276ZM187.288 75.9318C187.768 75.9318 188.136 75.7678 188.392 75.4398C188.656 75.1118 188.788 74.6438 188.788 74.0358C188.788 73.4278 188.656 72.9638 188.392 72.6438C188.136 72.3158 187.772 72.1518 187.3 72.1518C186.82 72.1518 186.448 72.3118 186.184 72.6318C185.92 72.9518 185.788 73.4118 185.788 74.0118C185.788 74.6198 185.92 75.0918 186.184 75.4278C186.448 75.7638 186.816 75.9318 187.288 75.9318ZM196.967 74.3358H192.971C193.019 74.8798 193.183 75.2838 193.463 75.5478C193.743 75.8118 194.143 75.9438 194.663 75.9438C195.311 75.9438 195.903 75.7358 196.439 75.3198L196.871 76.3518C196.599 76.5758 196.255 76.7558 195.839 76.8918C195.431 77.0278 195.019 77.0958 194.603 77.0958C193.643 77.0958 192.883 76.8238 192.323 76.2798C191.771 75.7358 191.495 74.9918 191.495 74.0478C191.495 73.4478 191.615 72.9158 191.855 72.4518C192.095 71.9878 192.431 71.6278 192.863 71.3718C193.303 71.1158 193.799 70.9878 194.351 70.9878C195.159 70.9878 195.795 71.2478 196.259 71.7678C196.731 72.2878 196.967 73.0038 196.967 73.9158V74.3358ZM194.387 72.0438C193.987 72.0438 193.663 72.1718 193.415 72.4278C193.175 72.6838 193.027 73.0518 192.971 73.5318H195.683C195.667 73.0438 195.547 72.6758 195.323 72.4278C195.099 72.1718 194.787 72.0438 194.387 72.0438ZM200.354 77.0958C199.834 77.0958 199.354 77.0318 198.914 76.9038C198.482 76.7758 198.114 76.5918 197.81 76.3518L198.23 75.3078C198.854 75.7638 199.57 75.9918 200.378 75.9918C200.722 75.9918 200.982 75.9358 201.158 75.8238C201.342 75.7118 201.434 75.5518 201.434 75.3438C201.434 75.1678 201.37 75.0318 201.242 74.9358C201.122 74.8398 200.902 74.7518 200.582 74.6718L199.622 74.4558C199.078 74.3358 198.674 74.1398 198.41 73.8678C198.146 73.5958 198.014 73.2438 198.014 72.8118C198.014 72.4518 198.114 72.1358 198.314 71.8638C198.522 71.5838 198.806 71.3678 199.166 71.2158C199.534 71.0638 199.958 70.9878 200.438 70.9878C200.854 70.9878 201.254 71.0518 201.638 71.1798C202.03 71.3078 202.374 71.4878 202.67 71.7198L202.25 72.7398C201.642 72.2998 201.034 72.0798 200.426 72.0798C200.098 72.0798 199.842 72.1398 199.658 72.2598C199.474 72.3798 199.382 72.5478 199.382 72.7638C199.382 72.9238 199.438 73.0558 199.55 73.1598C199.67 73.2638 199.858 73.3438 200.114 73.3998L201.11 73.6278C201.694 73.7558 202.122 73.9598 202.394 74.2398C202.666 74.5118 202.802 74.8718 202.802 75.3198C202.802 75.8638 202.582 76.2958 202.142 76.6158C201.702 76.9358 201.106 77.0958 200.354 77.0958ZM206.96 75.9678C207.136 75.9678 207.32 75.9558 207.512 75.9318L207.44 77.0478C207.2 77.0718 206.98 77.0838 206.78 77.0838C205.956 77.0838 205.348 76.8958 204.956 76.5198C204.564 76.1358 204.368 75.5678 204.368 74.8158V72.2598H203.24V71.1318H204.368V69.3798H205.868V71.1318H207.416V72.2598H205.868V74.7918C205.868 75.5758 206.232 75.9678 206.96 75.9678ZM210.909 70.9878C211.733 70.9878 212.345 71.1878 212.745 71.5878C213.145 71.9878 213.345 72.6038 213.345 73.4358V76.9998H211.917V76.0998C211.781 76.4118 211.565 76.6558 211.269 76.8318C210.981 77.0078 210.645 77.0958 210.261 77.0958C209.869 77.0958 209.513 77.0158 209.193 76.8558C208.873 76.6958 208.621 76.4758 208.437 76.1958C208.253 75.9158 208.161 75.6038 208.161 75.2598C208.161 74.8278 208.269 74.4878 208.485 74.2398C208.709 73.9918 209.069 73.8118 209.565 73.6998C210.061 73.5878 210.745 73.5318 211.617 73.5318H211.917V73.2558C211.917 72.8558 211.829 72.5678 211.653 72.3918C211.485 72.2158 211.201 72.1278 210.801 72.1278C210.489 72.1278 210.161 72.1838 209.817 72.2958C209.481 72.3998 209.149 72.5478 208.821 72.7398L208.401 71.7078C208.729 71.4998 209.125 71.3278 209.589 71.1918C210.053 71.0558 210.493 70.9878 210.909 70.9878ZM210.561 76.0158C210.961 76.0158 211.285 75.8838 211.533 75.6198C211.789 75.3478 211.917 74.9998 211.917 74.5758V74.3238H211.701C211.165 74.3238 210.749 74.3478 210.453 74.3958C210.157 74.4438 209.945 74.5278 209.817 74.6478C209.689 74.7678 209.625 74.9318 209.625 75.1398C209.625 75.3958 209.713 75.6078 209.889 75.7758C210.065 75.9358 210.289 76.0158 210.561 76.0158ZM220.534 71.1318V79.1598H219.034V76.0758C218.858 76.3958 218.602 76.6478 218.266 76.8318C217.938 77.0078 217.566 77.0958 217.15 77.0958C216.638 77.0958 216.186 76.9718 215.794 76.7238C215.402 76.4758 215.094 76.1238 214.87 75.6678C214.654 75.2118 214.546 74.6798 214.546 74.0718C214.546 73.4638 214.654 72.9278 214.87 72.4638C215.094 71.9918 215.402 71.6278 215.794 71.3718C216.194 71.1158 216.646 70.9878 217.15 70.9878C217.574 70.9878 217.95 71.0798 218.278 71.2638C218.614 71.4398 218.87 71.6918 219.046 72.0198V71.1318H220.534ZM217.558 75.9318C218.03 75.9318 218.394 75.7678 218.65 75.4398C218.914 75.1118 219.046 74.6478 219.046 74.0478C219.046 73.4398 218.914 72.9718 218.65 72.6438C218.394 72.3158 218.026 72.1518 217.546 72.1518C217.074 72.1518 216.706 72.3198 216.442 72.6558C216.178 72.9918 216.046 73.4638 216.046 74.0718C216.046 74.6638 216.178 75.1238 216.442 75.4518C216.706 75.7718 217.078 75.9318 217.558 75.9318ZM227.465 71.1318V76.9998H226.001V76.0998C225.817 76.4198 225.569 76.6678 225.257 76.8438C224.945 77.0118 224.593 77.0958 224.201 77.0958C222.761 77.0958 222.041 76.2878 222.041 74.6718V71.1318H223.541V74.6838C223.541 75.0998 223.625 75.4078 223.793 75.6078C223.961 75.8078 224.225 75.9078 224.585 75.9078C225.001 75.9078 225.333 75.7718 225.581 75.4998C225.837 75.2198 225.965 74.8518 225.965 74.3958V71.1318H227.465ZM234.174 74.3358H230.178C230.226 74.8798 230.39 75.2838 230.67 75.5478C230.95 75.8118 231.35 75.9438 231.87 75.9438C232.518 75.9438 233.11 75.7358 233.646 75.3198L234.078 76.3518C233.806 76.5758 233.462 76.7558 233.046 76.8918C232.638 77.0278 232.226 77.0958 231.81 77.0958C230.85 77.0958 230.09 76.8238 229.53 76.2798C228.978 75.7358 228.702 74.9918 228.702 74.0478C228.702 73.4478 228.822 72.9158 229.062 72.4518C229.302 71.9878 229.638 71.6278 230.07 71.3718C230.51 71.1158 231.006 70.9878 231.558 70.9878C232.366 70.9878 233.002 71.2478 233.466 71.7678C233.938 72.2878 234.174 73.0038 234.174 73.9158V74.3358ZM231.594 72.0438C231.194 72.0438 230.87 72.1718 230.622 72.4278C230.382 72.6838 230.234 73.0518 230.178 73.5318H232.89C232.874 73.0438 232.754 72.6758 232.53 72.4278C232.306 72.1718 231.994 72.0438 231.594 72.0438Z" fill="white"/>
<path d="M129.548 109H127.168L125.46 105.85C125.32 105.607 125.152 105.434 124.956 105.332C124.76 105.22 124.513 105.164 124.214 105.164H123.136V109H120.98V99.1298H125.516C126.673 99.1298 127.546 99.3864 128.134 99.8998C128.731 100.404 129.03 101.136 129.03 102.098C129.03 102.844 128.82 103.47 128.4 103.974C127.989 104.478 127.406 104.809 126.65 104.968C127.163 105.098 127.597 105.467 127.952 106.074L129.548 109ZM125.194 103.512C125.819 103.512 126.272 103.404 126.552 103.19C126.832 102.966 126.972 102.62 126.972 102.154C126.972 101.678 126.832 101.332 126.552 101.118C126.272 100.903 125.819 100.796 125.194 100.796H123.108V103.512H125.194ZM137.866 106.13C137.866 106.886 137.605 107.525 137.082 108.048C136.569 108.561 135.874 108.892 134.996 109.042V110.61H133.316V109.098C132.71 109.051 132.14 108.934 131.608 108.748C131.086 108.561 130.633 108.318 130.25 108.02L130.95 106.466C131.874 107.11 132.868 107.432 133.932 107.432C134.502 107.432 134.936 107.329 135.234 107.124C135.542 106.909 135.696 106.61 135.696 106.228C135.696 105.994 135.612 105.803 135.444 105.654C135.276 105.504 135.062 105.388 134.8 105.304C134.548 105.21 134.184 105.103 133.708 104.982C133.018 104.814 132.448 104.636 132 104.45C131.552 104.263 131.165 103.978 130.838 103.596C130.521 103.204 130.362 102.686 130.362 102.042C130.362 101.295 130.628 100.656 131.16 100.124C131.702 99.5824 132.406 99.2371 133.274 99.0878V97.5198H134.954V99.0458C135.496 99.1204 136.004 99.2511 136.48 99.4378C136.956 99.6151 137.344 99.8391 137.642 100.11L136.942 101.664C136.018 101.02 135.104 100.698 134.198 100.698C133.694 100.698 133.288 100.805 132.98 101.02C132.682 101.234 132.532 101.533 132.532 101.916C132.532 102.177 132.621 102.392 132.798 102.56C132.976 102.728 133.2 102.858 133.47 102.952C133.741 103.045 134.119 103.152 134.604 103.274C135.276 103.442 135.832 103.614 136.27 103.792C136.709 103.969 137.082 104.244 137.39 104.618C137.708 104.991 137.866 105.495 137.866 106.13ZM146.321 109.126C145.126 109.126 144.212 108.692 143.577 107.824C142.952 106.956 142.639 105.7 142.639 104.058C142.639 102.434 142.956 101.192 143.591 100.334C144.226 99.4658 145.136 99.0318 146.321 99.0318C147.506 99.0318 148.416 99.4658 149.051 100.334C149.686 101.192 150.003 102.434 150.003 104.058C150.003 105.7 149.686 106.956 149.051 107.824C148.426 108.692 147.516 109.126 146.321 109.126ZM146.321 107.46C146.862 107.46 147.254 107.189 147.497 106.648C147.749 106.106 147.875 105.243 147.875 104.058C147.875 102.882 147.749 102.028 147.497 101.496C147.254 100.964 146.862 100.698 146.321 100.698C145.78 100.698 145.383 100.964 145.131 101.496C144.888 102.028 144.767 102.882 144.767 104.058C144.767 105.243 144.888 106.106 145.131 106.648C145.383 107.189 145.78 107.46 146.321 107.46ZM153.47 106.76V108.202C153.47 108.734 153.372 109.219 153.176 109.658C152.989 110.106 152.667 110.558 152.21 111.016L151.384 110.358C151.841 109.9 152.126 109.448 152.238 109H151.202V106.76H153.47ZM158.352 109.126C157.158 109.126 156.243 108.692 155.608 107.824C154.983 106.956 154.67 105.7 154.67 104.058C154.67 102.434 154.988 101.192 155.622 100.334C156.257 99.4658 157.167 99.0318 158.352 99.0318C159.538 99.0318 160.448 99.4658 161.082 100.334C161.717 101.192 162.034 102.434 162.034 104.058C162.034 105.7 161.717 106.956 161.082 107.824C160.457 108.692 159.547 109.126 158.352 109.126ZM158.352 107.46C158.894 107.46 159.286 107.189 159.528 106.648C159.78 106.106 159.906 105.243 159.906 104.058C159.906 102.882 159.78 102.028 159.528 101.496C159.286 100.964 158.894 100.698 158.352 100.698C157.811 100.698 157.414 100.964 157.162 101.496C156.92 102.028 156.798 102.882 156.798 104.058C156.798 105.243 156.92 106.106 157.162 106.648C157.414 107.189 157.811 107.46 158.352 107.46ZM166.747 109.126C165.552 109.126 164.638 108.692 164.003 107.824C163.378 106.956 163.065 105.7 163.065 104.058C163.065 102.434 163.382 101.192 164.017 100.334C164.652 99.4658 165.562 99.0318 166.747 99.0318C167.932 99.0318 168.842 99.4658 169.477 100.334C170.112 101.192 170.429 102.434 170.429 104.058C170.429 105.7 170.112 106.956 169.477 107.824C168.852 108.692 167.942 109.126 166.747 109.126ZM166.747 107.46C167.288 107.46 167.68 107.189 167.923 106.648C168.175 106.106 168.301 105.243 168.301 104.058C168.301 102.882 168.175 102.028 167.923 101.496C167.68 100.964 167.288 100.698 166.747 100.698C166.206 100.698 165.809 100.964 165.557 101.496C165.314 102.028 165.193 102.882 165.193 104.058C165.193 105.243 165.314 106.106 165.557 106.648C165.809 107.189 166.206 107.46 166.747 107.46Z" fill="#39464D"/>
<path d="M123.084 128V120.38H120.144V119.54H127.032V120.38H124.08V128H123.084ZM132.054 125.228H127.782C127.814 125.908 127.998 126.424 128.334 126.776C128.67 127.12 129.146 127.292 129.762 127.292C130.442 127.292 131.066 127.06 131.634 126.596L131.958 127.304C131.702 127.544 131.374 127.736 130.974 127.88C130.574 128.016 130.166 128.084 129.75 128.084C128.838 128.084 128.118 127.816 127.59 127.28C127.07 126.744 126.81 126.004 126.81 125.06C126.81 124.46 126.926 123.932 127.158 123.476C127.39 123.012 127.714 122.652 128.13 122.396C128.554 122.14 129.034 122.012 129.57 122.012C130.346 122.012 130.954 122.268 131.394 122.78C131.834 123.284 132.054 123.98 132.054 124.868V125.228ZM129.582 122.768C129.07 122.768 128.658 122.928 128.346 123.248C128.042 123.568 127.862 124.02 127.806 124.604H131.202C131.186 124.012 131.038 123.56 130.758 123.248C130.478 122.928 130.086 122.768 129.582 122.768ZM136.188 124.988L138.612 128H137.436L135.612 125.72L133.8 128H132.612L135.036 124.988L132.756 122.156H133.932L135.612 124.28L137.292 122.156H138.48L136.188 124.988ZM142.183 127.304C142.359 127.304 142.535 127.292 142.711 127.268L142.663 128.036C142.479 128.068 142.279 128.084 142.063 128.084C141.359 128.084 140.827 127.9 140.467 127.532C140.115 127.164 139.939 126.652 139.939 125.996V122.924H138.799V122.156H139.939V120.38H140.911V122.156H142.567V122.924H140.911V125.924C140.911 126.844 141.335 127.304 142.183 127.304ZM146.117 128.084C145.565 128.084 145.077 127.96 144.653 127.712C144.237 127.464 143.913 127.112 143.681 126.656C143.457 126.192 143.345 125.656 143.345 125.048C143.345 124.44 143.457 123.908 143.681 123.452C143.913 122.988 144.237 122.632 144.653 122.384C145.077 122.136 145.565 122.012 146.117 122.012C146.669 122.012 147.157 122.136 147.581 122.384C148.005 122.632 148.329 122.988 148.553 123.452C148.785 123.908 148.901 124.44 148.901 125.048C148.901 125.656 148.785 126.192 148.553 126.656C148.329 127.112 148.005 127.464 147.581 127.712C147.157 127.96 146.669 128.084 146.117 128.084ZM146.117 127.28C146.693 127.28 147.133 127.092 147.437 126.716C147.749 126.332 147.905 125.776 147.905 125.048C147.905 124.336 147.749 123.788 147.437 123.404C147.125 123.012 146.685 122.816 146.117 122.816C145.549 122.816 145.109 123.012 144.797 123.404C144.485 123.788 144.329 124.336 144.329 125.048C144.329 125.768 144.481 126.32 144.785 126.704C145.097 127.088 145.541 127.28 146.117 127.28ZM155.867 128.084C155.315 128.084 154.827 127.96 154.403 127.712C153.987 127.464 153.663 127.112 153.431 126.656C153.207 126.192 153.095 125.656 153.095 125.048C153.095 124.44 153.207 123.908 153.431 123.452C153.663 122.988 153.987 122.632 154.403 122.384C154.827 122.136 155.315 122.012 155.867 122.012C156.419 122.012 156.907 122.136 157.331 122.384C157.755 122.632 158.079 122.988 158.303 123.452C158.535 123.908 158.651 124.44 158.651 125.048C158.651 125.656 158.535 126.192 158.303 126.656C158.079 127.112 157.755 127.464 157.331 127.712C156.907 127.96 156.419 128.084 155.867 128.084ZM155.867 127.28C156.443 127.28 156.883 127.092 157.187 126.716C157.499 126.332 157.655 125.776 157.655 125.048C157.655 124.336 157.499 123.788 157.187 123.404C156.875 123.012 156.435 122.816 155.867 122.816C155.299 122.816 154.859 123.012 154.547 123.404C154.235 123.788 154.079 124.336 154.079 125.048C154.079 125.768 154.231 126.32 154.535 126.704C154.847 127.088 155.291 127.28 155.867 127.28ZM163.039 122.012C163.551 122.012 164.003 122.14 164.395 122.396C164.787 122.652 165.091 123.012 165.307 123.476C165.523 123.932 165.631 124.464 165.631 125.072C165.631 125.68 165.523 126.212 165.307 126.668C165.091 127.116 164.787 127.464 164.395 127.712C164.011 127.96 163.559 128.084 163.039 128.084C162.583 128.084 162.183 127.984 161.839 127.784C161.503 127.584 161.247 127.3 161.071 126.932V130.16H160.099V122.156H161.071V123.164C161.247 122.796 161.503 122.512 161.839 122.312C162.183 122.112 162.583 122.012 163.039 122.012ZM162.847 127.28C163.415 127.28 163.855 127.088 164.167 126.704C164.479 126.32 164.635 125.776 164.635 125.072C164.635 124.368 164.479 123.82 164.167 123.428C163.855 123.028 163.415 122.828 162.847 122.828C162.279 122.828 161.839 123.02 161.527 123.404C161.223 123.788 161.071 124.336 161.071 125.048C161.071 125.76 161.223 126.312 161.527 126.704C161.839 127.088 162.279 127.28 162.847 127.28ZM169.556 128.084C168.98 128.084 168.48 127.96 168.056 127.712C167.632 127.464 167.304 127.116 167.072 126.668C166.848 126.212 166.736 125.68 166.736 125.072C166.736 124.464 166.852 123.932 167.084 123.476C167.324 123.012 167.656 122.652 168.08 122.396C168.512 122.14 169.016 122.012 169.592 122.012C169.984 122.012 170.368 122.084 170.744 122.228C171.12 122.364 171.424 122.548 171.656 122.78L171.332 123.5C170.78 123.052 170.22 122.828 169.652 122.828C169.052 122.828 168.584 123.024 168.248 123.416C167.912 123.808 167.744 124.36 167.744 125.072C167.744 125.776 167.912 126.32 168.248 126.704C168.584 127.088 169.052 127.28 169.652 127.28C170.22 127.28 170.78 127.056 171.332 126.608L171.656 127.328C171.408 127.56 171.096 127.744 170.72 127.88C170.344 128.016 169.956 128.084 169.556 128.084ZM172.826 128V122.156H173.798V128H172.826ZM172.73 119.624H173.906V120.716H172.73V119.624ZM178.039 128.084C177.487 128.084 176.999 127.96 176.575 127.712C176.159 127.464 175.835 127.112 175.603 126.656C175.379 126.192 175.267 125.656 175.267 125.048C175.267 124.44 175.379 123.908 175.603 123.452C175.835 122.988 176.159 122.632 176.575 122.384C176.999 122.136 177.487 122.012 178.039 122.012C178.591 122.012 179.079 122.136 179.503 122.384C179.927 122.632 180.251 122.988 180.475 123.452C180.707 123.908 180.823 124.44 180.823 125.048C180.823 125.656 180.707 126.192 180.475 126.656C180.251 127.112 179.927 127.464 179.503 127.712C179.079 127.96 178.591 128.084 178.039 128.084ZM178.039 127.28C178.615 127.28 179.055 127.092 179.359 126.716C179.671 126.332 179.827 125.776 179.827 125.048C179.827 124.336 179.671 123.788 179.359 123.404C179.047 123.012 178.607 122.816 178.039 122.816C177.471 122.816 177.031 123.012 176.719 123.404C176.407 123.788 176.251 124.336 176.251 125.048C176.251 125.768 176.403 126.32 176.707 126.704C177.019 127.088 177.463 127.28 178.039 127.28ZM185.211 122.012C186.611 122.012 187.311 122.784 187.311 124.328V128H186.339V124.388C186.339 123.844 186.231 123.448 186.015 123.2C185.807 122.952 185.471 122.828 185.007 122.828C184.471 122.828 184.043 122.992 183.723 123.32C183.403 123.648 183.243 124.092 183.243 124.652V128H182.271V122.156H183.231V123.116C183.423 122.756 183.691 122.484 184.035 122.3C184.379 122.108 184.771 122.012 185.211 122.012ZM191.467 122.012C192.211 122.012 192.763 122.204 193.123 122.588C193.491 122.964 193.675 123.54 193.675 124.316V128H192.727V127.004C192.575 127.348 192.343 127.616 192.031 127.808C191.719 127.992 191.359 128.084 190.951 128.084C190.575 128.084 190.227 128.008 189.907 127.856C189.595 127.704 189.347 127.492 189.163 127.22C188.979 126.948 188.887 126.648 188.887 126.32C188.887 125.88 188.999 125.54 189.223 125.3C189.447 125.052 189.815 124.876 190.327 124.772C190.839 124.66 191.551 124.604 192.463 124.604H192.727V124.208C192.727 123.72 192.627 123.368 192.427 123.152C192.227 122.928 191.903 122.816 191.455 122.816C190.783 122.816 190.115 123.024 189.451 123.44L189.127 122.732C189.431 122.516 189.795 122.344 190.219 122.216C190.651 122.08 191.067 122.012 191.467 122.012ZM191.083 127.316C191.563 127.316 191.955 127.156 192.259 126.836C192.571 126.508 192.727 126.088 192.727 125.576V125.228H192.511C191.807 125.228 191.271 125.26 190.903 125.324C190.535 125.38 190.271 125.48 190.111 125.624C189.959 125.76 189.883 125.964 189.883 126.236C189.883 126.548 189.995 126.808 190.219 127.016C190.451 127.216 190.739 127.316 191.083 127.316ZM195.455 128V119.54H196.427V128H195.455ZM206.522 122.156V130.16H205.55V126.932C205.374 127.3 205.114 127.584 204.77 127.784C204.434 127.984 204.038 128.084 203.582 128.084C203.062 128.084 202.606 127.96 202.214 127.712C201.83 127.464 201.53 127.116 201.314 126.668C201.098 126.212 200.99 125.68 200.99 125.072C200.99 124.464 201.098 123.932 201.314 123.476C201.53 123.012 201.834 122.652 202.226 122.396C202.618 122.14 203.07 122.012 203.582 122.012C204.038 122.012 204.434 122.112 204.77 122.312C205.114 122.512 205.374 122.796 205.55 123.164V122.156H206.522ZM203.774 127.28C204.342 127.28 204.778 127.088 205.082 126.704C205.394 126.312 205.55 125.76 205.55 125.048C205.55 124.336 205.394 123.788 205.082 123.404C204.778 123.02 204.342 122.828 203.774 122.828C203.206 122.828 202.762 123.028 202.442 123.428C202.13 123.82 201.974 124.368 201.974 125.072C201.974 125.776 202.13 126.32 202.442 126.704C202.762 127.088 203.206 127.28 203.774 127.28ZM213.242 122.156V128H212.294V127.004C212.11 127.356 211.85 127.624 211.514 127.808C211.186 127.992 210.814 128.084 210.398 128.084C209.702 128.084 209.178 127.892 208.826 127.508C208.474 127.116 208.298 126.54 208.298 125.78V122.156H209.27V125.756C209.27 126.276 209.374 126.66 209.582 126.908C209.79 127.148 210.118 127.268 210.566 127.268C211.078 127.268 211.49 127.104 211.802 126.776C212.114 126.44 212.27 126 212.27 125.456V122.156H213.242ZM219.944 125.228H215.672C215.704 125.908 215.888 126.424 216.224 126.776C216.56 127.12 217.036 127.292 217.652 127.292C218.332 127.292 218.956 127.06 219.524 126.596L219.848 127.304C219.592 127.544 219.264 127.736 218.864 127.88C218.464 128.016 218.056 128.084 217.64 128.084C216.728 128.084 216.008 127.816 215.48 127.28C214.96 126.744 214.7 126.004 214.7 125.06C214.7 124.46 214.816 123.932 215.048 123.476C215.28 123.012 215.604 122.652 216.02 122.396C216.444 122.14 216.924 122.012 217.46 122.012C218.236 122.012 218.844 122.268 219.284 122.78C219.724 123.284 219.944 123.98 219.944 124.868V125.228ZM217.472 122.768C216.96 122.768 216.548 122.928 216.236 123.248C215.932 123.568 215.752 124.02 215.696 124.604H219.092C219.076 124.012 218.928 123.56 218.648 123.248C218.368 122.928 217.976 122.768 217.472 122.768ZM227.41 122.012C227.922 122.012 228.374 122.14 228.766 122.396C229.158 122.652 229.462 123.012 229.678 123.476C229.894 123.932 230.002 124.464 230.002 125.072C230.002 125.68 229.894 126.212 229.678 126.668C229.462 127.116 229.158 127.464 228.766 127.712C228.382 127.96 227.93 128.084 227.41 128.084C226.954 128.084 226.554 127.984 226.21 127.784C225.874 127.584 225.618 127.3 225.442 126.932V130.16H224.47V122.156H225.442V123.164C225.618 122.796 225.874 122.512 226.21 122.312C226.554 122.112 226.954 122.012 227.41 122.012ZM227.218 127.28C227.786 127.28 228.226 127.088 228.538 126.704C228.85 126.32 229.006 125.776 229.006 125.072C229.006 124.368 228.85 123.82 228.538 123.428C228.226 123.028 227.786 122.828 227.218 122.828C226.65 122.828 226.21 123.02 225.898 123.404C225.594 123.788 225.442 124.336 225.442 125.048C225.442 125.76 225.594 126.312 225.898 126.704C226.21 127.088 226.65 127.28 227.218 127.28ZM233.879 128.084C233.327 128.084 232.839 127.96 232.415 127.712C231.999 127.464 231.675 127.112 231.443 126.656C231.219 126.192 231.107 125.656 231.107 125.048C231.107 124.44 231.219 123.908 231.443 123.452C231.675 122.988 231.999 122.632 232.415 122.384C232.839 122.136 233.327 122.012 233.879 122.012C234.431 122.012 234.919 122.136 235.343 122.384C235.767 122.632 236.091 122.988 236.315 123.452C236.547 123.908 236.663 124.44 236.663 125.048C236.663 125.656 236.547 126.192 236.315 126.656C236.091 127.112 235.767 127.464 235.343 127.712C234.919 127.96 234.431 128.084 233.879 128.084ZM233.879 127.28C234.455 127.28 234.895 127.092 235.199 126.716C235.511 126.332 235.667 125.776 235.667 125.048C235.667 124.336 235.511 123.788 235.199 123.404C234.887 123.012 234.447 122.816 233.879 122.816C233.311 122.816 232.871 123.012 232.559 123.404C232.247 123.788 232.091 124.336 232.091 125.048C232.091 125.768 232.243 126.32 232.547 126.704C232.859 127.088 233.303 127.28 233.879 127.28ZM243.295 119.54V128H242.323V126.932C242.147 127.3 241.887 127.584 241.543 127.784C241.207 127.984 240.811 128.084 240.355 128.084C239.843 128.084 239.391 127.956 238.999 127.7C238.607 127.444 238.303 127.088 238.087 126.632C237.871 126.168 237.763 125.632 237.763 125.024C237.763 124.424 237.871 123.896 238.087 123.44C238.303 122.984 238.607 122.632 238.999 122.384C239.391 122.136 239.843 122.012 240.355 122.012C240.811 122.012 241.207 122.112 241.543 122.312C241.887 122.512 242.147 122.796 242.323 123.164V119.54H243.295ZM240.547 127.28C241.115 127.28 241.551 127.088 241.855 126.704C242.167 126.312 242.323 125.76 242.323 125.048C242.323 124.336 242.167 123.788 241.855 123.404C241.551 123.02 241.115 122.828 240.547 122.828C239.979 122.828 239.535 123.02 239.215 123.404C238.903 123.788 238.747 124.328 238.747 125.024C238.747 125.736 238.903 126.292 239.215 126.692C239.535 127.084 239.979 127.28 240.547 127.28ZM249.991 125.228H245.719C245.751 125.908 245.935 126.424 246.271 126.776C246.607 127.12 247.083 127.292 247.699 127.292C248.379 127.292 249.003 127.06 249.571 126.596L249.895 127.304C249.639 127.544 249.311 127.736 248.911 127.88C248.511 128.016 248.103 128.084 247.687 128.084C246.775 128.084 246.055 127.816 245.527 127.28C245.007 126.744 244.747 126.004 244.747 125.06C244.747 124.46 244.863 123.932 245.095 123.476C245.327 123.012 245.651 122.652 246.067 122.396C246.491 122.14 246.971 122.012 247.507 122.012C248.283 122.012 248.891 122.268 249.331 122.78C249.771 123.284 249.991 123.98 249.991 124.868V125.228ZM247.519 122.768C247.007 122.768 246.595 122.928 246.283 123.248C245.979 123.568 245.799 124.02 245.743 124.604H249.139C249.123 124.012 248.975 123.56 248.695 123.248C248.415 122.928 248.023 122.768 247.519 122.768ZM256.989 128.084C256.413 128.084 255.913 127.96 255.489 127.712C255.065 127.464 254.737 127.116 254.505 126.668C254.281 126.212 254.169 125.68 254.169 125.072C254.169 124.464 254.285 123.932 254.517 123.476C254.757 123.012 255.089 122.652 255.513 122.396C255.945 122.14 256.449 122.012 257.025 122.012C257.417 122.012 257.801 122.084 258.177 122.228C258.553 122.364 258.857 122.548 259.089 122.78L258.765 123.5C258.213 123.052 257.653 122.828 257.085 122.828C256.485 122.828 256.017 123.024 255.681 123.416C255.345 123.808 255.177 124.36 255.177 125.072C255.177 125.776 255.345 126.32 255.681 126.704C256.017 127.088 256.485 127.28 257.085 127.28C257.653 127.28 258.213 127.056 258.765 126.608L259.089 127.328C258.841 127.56 258.529 127.744 258.153 127.88C257.777 128.016 257.389 128.084 256.989 128.084ZM262.683 128.084C262.131 128.084 261.643 127.96 261.219 127.712C260.803 127.464 260.479 127.112 260.247 126.656C260.023 126.192 259.911 125.656 259.911 125.048C259.911 124.44 260.023 123.908 260.247 123.452C260.479 122.988 260.803 122.632 261.219 122.384C261.643 122.136 262.131 122.012 262.683 122.012C263.235 122.012 263.723 122.136 264.147 122.384C264.571 122.632 264.895 122.988 265.119 123.452C265.351 123.908 265.467 124.44 265.467 125.048C265.467 125.656 265.351 126.192 265.119 126.656C264.895 127.112 264.571 127.464 264.147 127.712C263.723 127.96 263.235 128.084 262.683 128.084ZM262.683 127.28C263.259 127.28 263.699 127.092 264.003 126.716C264.315 126.332 264.471 125.776 264.471 125.048C264.471 124.336 264.315 123.788 264.003 123.404C263.691 123.012 263.251 122.816 262.683 122.816C262.115 122.816 261.675 123.012 261.363 123.404C261.051 123.788 260.895 124.336 260.895 125.048C260.895 125.768 261.047 126.32 261.351 126.704C261.663 127.088 262.107 127.28 262.683 127.28ZM269.856 122.012C271.256 122.012 271.956 122.784 271.956 124.328V128H270.984V124.388C270.984 123.844 270.876 123.448 270.66 123.2C270.452 122.952 270.116 122.828 269.652 122.828C269.116 122.828 268.688 122.992 268.368 123.32C268.048 123.648 267.888 124.092 267.888 124.652V128H266.916V122.156H267.876V123.116C268.068 122.756 268.336 122.484 268.68 122.3C269.024 122.108 269.416 122.012 269.856 122.012ZM276.304 127.304C276.48 127.304 276.656 127.292 276.832 127.268L276.784 128.036C276.6 128.068 276.4 128.084 276.184 128.084C275.48 128.084 274.948 127.9 274.588 127.532C274.236 127.164 274.06 126.652 274.06 125.996V122.924H272.92V122.156H274.06V120.38H275.032V122.156H276.688V122.924H275.032V125.924C275.032 126.844 275.456 127.304 276.304 127.304ZM282.71 125.228H278.438C278.47 125.908 278.654 126.424 278.99 126.776C279.326 127.12 279.802 127.292 280.418 127.292C281.098 127.292 281.722 127.06 282.29 126.596L282.614 127.304C282.358 127.544 282.03 127.736 281.63 127.88C281.23 128.016 280.822 128.084 280.406 128.084C279.494 128.084 278.774 127.816 278.246 127.28C277.726 126.744 277.466 126.004 277.466 125.06C277.466 124.46 277.582 123.932 277.814 123.476C278.046 123.012 278.37 122.652 278.786 122.396C279.21 122.14 279.69 122.012 280.226 122.012C281.002 122.012 281.61 122.268 282.05 122.78C282.49 123.284 282.71 123.98 282.71 124.868V125.228ZM280.238 122.768C279.726 122.768 279.314 122.928 279.002 123.248C278.698 123.568 278.518 124.02 278.462 124.604H281.858C281.842 124.012 281.694 123.56 281.414 123.248C281.134 122.928 280.742 122.768 280.238 122.768ZM287.454 122.852L286.818 122.912C286.218 122.968 285.782 123.156 285.51 123.476C285.246 123.796 285.114 124.192 285.114 124.664V128H284.142V122.156H285.09V123.176C285.418 122.496 286.062 122.116 287.022 122.036L287.37 122.012L287.454 122.852ZM293.842 122.012C294.586 122.012 295.138 122.204 295.498 122.588C295.866 122.964 296.05 123.54 296.05 124.316V128H295.102V127.004C294.95 127.348 294.718 127.616 294.406 127.808C294.094 127.992 293.734 128.084 293.326 128.084C292.95 128.084 292.602 128.008 292.282 127.856C291.97 127.704 291.722 127.492 291.538 127.22C291.354 126.948 291.262 126.648 291.262 126.32C291.262 125.88 291.374 125.54 291.598 125.3C291.822 125.052 292.19 124.876 292.702 124.772C293.214 124.66 293.926 124.604 294.838 124.604H295.102V124.208C295.102 123.72 295.002 123.368 294.802 123.152C294.602 122.928 294.278 122.816 293.83 122.816C293.158 122.816 292.49 123.024 291.826 123.44L291.502 122.732C291.806 122.516 292.17 122.344 292.594 122.216C293.026 122.08 293.442 122.012 293.842 122.012ZM293.458 127.316C293.938 127.316 294.33 127.156 294.634 126.836C294.946 126.508 295.102 126.088 295.102 125.576V125.228H294.886C294.182 125.228 293.646 125.26 293.278 125.324C292.91 125.38 292.646 125.48 292.486 125.624C292.334 125.76 292.258 125.964 292.258 126.236C292.258 126.548 292.37 126.808 292.594 127.016C292.826 127.216 293.114 127.316 293.458 127.316ZM300.398 127.304C300.574 127.304 300.75 127.292 300.926 127.268L300.878 128.036C300.694 128.068 300.494 128.084 300.278 128.084C299.574 128.084 299.042 127.9 298.682 127.532C298.33 127.164 298.154 126.652 298.154 125.996V122.924H297.014V122.156H298.154V120.38H299.126V122.156H300.782V122.924H299.126V125.924C299.126 126.844 299.55 127.304 300.398 127.304ZM306.804 125.228H302.532C302.564 125.908 302.748 126.424 303.084 126.776C303.42 127.12 303.896 127.292 304.512 127.292C305.192 127.292 305.816 127.06 306.384 126.596L306.708 127.304C306.452 127.544 306.124 127.736 305.724 127.88C305.324 128.016 304.916 128.084 304.5 128.084C303.588 128.084 302.868 127.816 302.34 127.28C301.82 126.744 301.56 126.004 301.56 125.06C301.56 124.46 301.676 123.932 301.908 123.476C302.14 123.012 302.464 122.652 302.88 122.396C303.304 122.14 303.784 122.012 304.32 122.012C305.096 122.012 305.704 122.268 306.144 122.78C306.584 123.284 306.804 123.98 306.804 124.868V125.228ZM304.332 122.768C303.82 122.768 303.408 122.928 303.096 123.248C302.792 123.568 302.612 124.02 302.556 124.604H305.952C305.936 124.012 305.788 123.56 305.508 123.248C305.228 122.928 304.836 122.768 304.332 122.768ZM304.656 121.388H303.984L305.172 118.964H306.288L304.656 121.388ZM124.44 143.68L127.656 148H126.492L123.876 144.412L121.26 148H120.096L123.312 143.668L120.252 139.54H121.416L123.888 142.936L126.36 139.54H127.512L124.44 143.68ZM134.224 148.084C133.648 148.084 133.148 147.96 132.724 147.712C132.3 147.464 131.972 147.116 131.74 146.668C131.516 146.212 131.404 145.68 131.404 145.072C131.404 144.464 131.52 143.932 131.752 143.476C131.992 143.012 132.324 142.652 132.748 142.396C133.18 142.14 133.684 142.012 134.26 142.012C134.652 142.012 135.036 142.084 135.412 142.228C135.788 142.364 136.092 142.548 136.324 142.78L136 143.5C135.448 143.052 134.888 142.828 134.32 142.828C133.72 142.828 133.252 143.024 132.916 143.416C132.58 143.808 132.412 144.36 132.412 145.072C132.412 145.776 132.58 146.32 132.916 146.704C133.252 147.088 133.72 147.28 134.32 147.28C134.888 147.28 135.448 147.056 136 146.608L136.324 147.328C136.076 147.56 135.764 147.744 135.388 147.88C135.012 148.016 134.624 148.084 134.224 148.084ZM139.87 142.012C140.614 142.012 141.166 142.204 141.526 142.588C141.894 142.964 142.078 143.54 142.078 144.316V148H141.13V147.004C140.978 147.348 140.746 147.616 140.434 147.808C140.122 147.992 139.762 148.084 139.354 148.084C138.978 148.084 138.63 148.008 138.31 147.856C137.998 147.704 137.75 147.492 137.566 147.22C137.382 146.948 137.29 146.648 137.29 146.32C137.29 145.88 137.402 145.54 137.626 145.3C137.85 145.052 138.218 144.876 138.73 144.772C139.242 144.66 139.954 144.604 140.866 144.604H141.13V144.208C141.13 143.72 141.03 143.368 140.83 143.152C140.63 142.928 140.306 142.816 139.858 142.816C139.186 142.816 138.518 143.024 137.854 143.44L137.53 142.732C137.834 142.516 138.198 142.344 138.622 142.216C139.054 142.08 139.47 142.012 139.87 142.012ZM139.486 147.316C139.966 147.316 140.358 147.156 140.662 146.836C140.974 146.508 141.13 146.088 141.13 145.576V145.228H140.914C140.21 145.228 139.674 145.26 139.306 145.324C138.938 145.38 138.674 145.48 138.514 145.624C138.362 145.76 138.286 145.964 138.286 146.236C138.286 146.548 138.398 146.808 138.622 147.016C138.854 147.216 139.142 147.316 139.486 147.316ZM147.169 142.852L146.533 142.912C145.933 142.968 145.497 143.156 145.225 143.476C144.961 143.796 144.829 144.192 144.829 144.664V148H143.857V142.156H144.805V143.176C145.133 142.496 145.777 142.116 146.737 142.036L147.085 142.012L147.169 142.852ZM150.417 142.012C151.161 142.012 151.713 142.204 152.073 142.588C152.441 142.964 152.625 143.54 152.625 144.316V148H151.677V147.004C151.525 147.348 151.293 147.616 150.981 147.808C150.669 147.992 150.309 148.084 149.901 148.084C149.525 148.084 149.177 148.008 148.857 147.856C148.545 147.704 148.297 147.492 148.113 147.22C147.929 146.948 147.837 146.648 147.837 146.32C147.837 145.88 147.949 145.54 148.173 145.3C148.397 145.052 148.765 144.876 149.277 144.772C149.789 144.66 150.501 144.604 151.413 144.604H151.677V144.208C151.677 143.72 151.577 143.368 151.377 143.152C151.177 142.928 150.853 142.816 150.405 142.816C149.733 142.816 149.065 143.024 148.401 143.44L148.077 142.732C148.381 142.516 148.745 142.344 149.169 142.216C149.601 142.08 150.017 142.012 150.417 142.012ZM150.033 147.316C150.513 147.316 150.905 147.156 151.209 146.836C151.521 146.508 151.677 146.088 151.677 145.576V145.228H151.461C150.757 145.228 150.221 145.26 149.853 145.324C149.485 145.38 149.221 145.48 149.061 145.624C148.909 145.76 148.833 145.964 148.833 146.236C148.833 146.548 148.945 146.808 149.169 147.016C149.401 147.216 149.689 147.316 150.033 147.316ZM156.876 148.084C156.3 148.084 155.8 147.96 155.376 147.712C154.952 147.464 154.624 147.116 154.392 146.668C154.168 146.212 154.056 145.68 154.056 145.072C154.056 144.464 154.172 143.932 154.404 143.476C154.644 143.012 154.976 142.652 155.4 142.396C155.832 142.14 156.336 142.012 156.912 142.012C157.304 142.012 157.688 142.084 158.064 142.228C158.44 142.364 158.744 142.548 158.976 142.78L158.652 143.5C158.1 143.052 157.54 142.828 156.972 142.828C156.372 142.828 155.904 143.024 155.568 143.416C155.232 143.808 155.064 144.36 155.064 145.072C155.064 145.776 155.232 146.32 155.568 146.704C155.904 147.088 156.372 147.28 156.972 147.28C157.54 147.28 158.1 147.056 158.652 146.608L158.976 147.328C158.728 147.56 158.416 147.744 158.04 147.88C157.664 148.016 157.276 148.084 156.876 148.084ZM162.726 147.304C162.902 147.304 163.078 147.292 163.254 147.268L163.206 148.036C163.022 148.068 162.822 148.084 162.606 148.084C161.902 148.084 161.37 147.9 161.01 147.532C160.658 147.164 160.482 146.652 160.482 145.996V142.924H159.342V142.156H160.482V140.38H161.454V142.156H163.11V142.924H161.454V145.924C161.454 146.844 161.878 147.304 162.726 147.304ZM169.132 145.228H164.86C164.892 145.908 165.076 146.424 165.412 146.776C165.748 147.12 166.224 147.292 166.84 147.292C167.52 147.292 168.144 147.06 168.712 146.596L169.036 147.304C168.78 147.544 168.452 147.736 168.052 147.88C167.652 148.016 167.244 148.084 166.828 148.084C165.916 148.084 165.196 147.816 164.668 147.28C164.148 146.744 163.888 146.004 163.888 145.06C163.888 144.46 164.004 143.932 164.236 143.476C164.468 143.012 164.792 142.652 165.208 142.396C165.632 142.14 166.112 142.012 166.648 142.012C167.424 142.012 168.032 142.268 168.472 142.78C168.912 143.284 169.132 143.98 169.132 144.868V145.228ZM166.66 142.768C166.148 142.768 165.736 142.928 165.424 143.248C165.12 143.568 164.94 144.02 164.884 144.604H168.28C168.264 144.012 168.116 143.56 167.836 143.248C167.556 142.928 167.164 142.768 166.66 142.768ZM173.876 142.852L173.24 142.912C172.64 142.968 172.204 143.156 171.932 143.476C171.668 143.796 171.536 144.192 171.536 144.664V148H170.564V142.156H171.512V143.176C171.84 142.496 172.484 142.116 173.444 142.036L173.792 142.012L173.876 142.852ZM179.573 145.228H175.301C175.333 145.908 175.517 146.424 175.853 146.776C176.189 147.12 176.665 147.292 177.281 147.292C177.961 147.292 178.585 147.06 179.153 146.596L179.477 147.304C179.221 147.544 178.893 147.736 178.493 147.88C178.093 148.016 177.685 148.084 177.269 148.084C176.357 148.084 175.637 147.816 175.109 147.28C174.589 146.744 174.329 146.004 174.329 145.06C174.329 144.46 174.445 143.932 174.677 143.476C174.909 143.012 175.233 142.652 175.649 142.396C176.073 142.14 176.553 142.012 177.089 142.012C177.865 142.012 178.473 142.268 178.913 142.78C179.353 143.284 179.573 143.98 179.573 144.868V145.228ZM177.101 142.768C176.589 142.768 176.177 142.928 175.865 143.248C175.561 143.568 175.381 144.02 175.325 144.604H178.721C178.705 144.012 178.557 143.56 178.277 143.248C177.997 142.928 177.605 142.768 177.101 142.768ZM182.985 148.084C182.001 148.084 181.221 147.832 180.645 147.328L180.969 146.608C181.281 146.856 181.597 147.036 181.917 147.148C182.245 147.252 182.613 147.304 183.021 147.304C183.453 147.304 183.781 147.232 184.005 147.088C184.237 146.936 184.353 146.72 184.353 146.44C184.353 146.208 184.277 146.024 184.125 145.888C183.973 145.752 183.721 145.644 183.369 145.564L182.385 145.336C181.889 145.224 181.509 145.032 181.245 144.76C180.981 144.488 180.849 144.152 180.849 143.752C180.849 143.232 181.053 142.812 181.461 142.492C181.869 142.172 182.413 142.012 183.093 142.012C183.501 142.012 183.889 142.08 184.257 142.216C184.625 142.344 184.933 142.532 185.181 142.78L184.857 143.488C184.321 143.032 183.733 142.804 183.093 142.804C182.685 142.804 182.365 142.884 182.133 143.044C181.909 143.196 181.797 143.412 181.797 143.692C181.797 143.924 181.865 144.112 182.001 144.256C182.145 144.392 182.373 144.496 182.685 144.568L183.681 144.808C184.225 144.936 184.629 145.132 184.893 145.396C185.157 145.652 185.289 145.988 185.289 146.404C185.289 146.916 185.081 147.324 184.665 147.628C184.257 147.932 183.697 148.084 182.985 148.084Z" fill="#39464D"/>
<path d="M329.016 98.3261C328.8 98.1152 328.526 98.0002 328.203 98.0002C327.558 98.0002 327.039 98.4986 327.039 99.131C327.039 99.4473 327.176 99.7347 327.401 99.9551L334.25 106.51L327.401 113.045C327.176 113.266 327.039 113.563 327.039 113.869C327.039 114.502 327.558 115 328.203 115C328.526 115 328.8 114.885 329.016 114.674L336.628 107.391C336.902 107.142 337.029 106.836 337.039 106.5C337.039 106.165 336.902 105.877 336.628 105.619L329.016 98.3261Z" fill="#00AC4A"/>
<rect x="16.5" y="178.5" width="337" height="125" rx="7.5" fill="white" stroke="#CCCCCC"/>
<circle cx="68" cy="242" r="36" fill="#F2F2F2"/>
<path d="M75 241.48C74.7348 241.48 74.4804 241.585 74.2929 241.773C74.1054 241.96 74 242.215 74 242.48V244.87L72.5 243.39C71.973 242.884 71.2706 242.601 70.54 242.601C69.8094 242.601 69.107 242.884 68.58 243.39L67.88 244.09L65.39 241.6C64.8691 241.082 64.1645 240.791 63.43 240.791C62.6955 240.791 61.9909 241.082 61.47 241.6L60 243.09V237.48C60 237.215 60.1054 236.96 60.2929 236.773C60.4804 236.585 60.7348 236.48 61 236.48H67C67.2652 236.48 67.5196 236.374 67.7071 236.187C67.8946 235.999 68 235.745 68 235.48C68 235.215 67.8946 234.96 67.7071 234.773C67.5196 234.585 67.2652 234.48 67 234.48H61C60.2044 234.48 59.4413 234.796 58.8787 235.359C58.3161 235.921 58 236.684 58 237.48V249.48C58 250.275 58.3161 251.039 58.8787 251.601C59.4413 252.164 60.2044 252.48 61 252.48H73C73.7956 252.48 74.5587 252.164 75.1213 251.601C75.6839 251.039 76 250.275 76 249.48V242.48C76 242.215 75.8946 241.96 75.7071 241.773C75.5196 241.585 75.2652 241.48 75 241.48ZM61 250.48C60.7348 250.48 60.4804 250.374 60.2929 250.187C60.1054 249.999 60 249.745 60 249.48V245.92L62.88 243C62.9527 242.925 63.0398 242.865 63.1359 242.824C63.2321 242.784 63.3355 242.763 63.44 242.763C63.5445 242.763 63.6479 242.784 63.7441 242.824C63.8402 242.865 63.9273 242.925 64 243L67.17 246.17L71.43 250.43L61 250.48ZM74 249.48C73.9965 249.672 73.9375 249.86 73.83 250.02L69.29 245.5L69.99 244.81C70.1362 244.665 70.3339 244.583 70.54 244.583C70.7461 244.583 70.9438 244.665 71.09 244.81L74 247.7V249.48ZM77.72 234.23L75.3 231.81C75.1126 231.624 74.8592 231.519 74.595 231.519C74.3308 231.519 74.0774 231.624 73.89 231.81L69.31 236.39C69.2137 236.482 69.1367 236.592 69.0835 236.714C69.0302 236.836 69.0018 236.967 69 237.1V239.52C69 239.785 69.1054 240.039 69.2929 240.227C69.4804 240.414 69.7348 240.52 70 240.52H72.42C72.6823 240.519 72.9337 240.415 73.12 240.23L77.7 235.65C77.795 235.558 77.871 235.449 77.9235 235.328C77.976 235.206 78.004 235.076 78.0058 234.944C78.0077 234.812 77.9834 234.681 77.9343 234.558C77.8853 234.436 77.8124 234.324 77.72 234.23ZM72 238.52H71V237.52L74.6 233.93L75.6 234.93L72 238.52Z" fill="#AAB0B2"/>
<rect x="120" y="194" width="125" height="25" rx="4" fill="#0097DC"/>
<path d="M134.904 211V203.812H132.144V202.54H139.212V203.812H136.452V211H134.904ZM140.139 211V205.132H141.639V211H140.139ZM141.363 204.364H140.403L141.591 201.916H143.115L141.363 204.364ZM146.186 209.968C146.362 209.968 146.546 209.956 146.738 209.932L146.666 211.048C146.426 211.072 146.206 211.084 146.006 211.084C145.182 211.084 144.574 210.896 144.182 210.52C143.79 210.136 143.594 209.568 143.594 208.816V206.26H142.466V205.132H143.594V203.38H145.094V205.132H146.642V206.26H145.094V208.792C145.094 209.576 145.458 209.968 146.186 209.968ZM153.004 205.132V211H151.54V210.1C151.356 210.42 151.108 210.668 150.796 210.844C150.484 211.012 150.132 211.096 149.74 211.096C148.3 211.096 147.58 210.288 147.58 208.672V205.132H149.08V208.684C149.08 209.1 149.164 209.408 149.332 209.608C149.5 209.808 149.764 209.908 150.124 209.908C150.54 209.908 150.872 209.772 151.12 209.5C151.376 209.22 151.504 208.852 151.504 208.396V205.132H153.004ZM154.565 211V202.54H156.065V211H154.565ZM160.288 211.096C159.688 211.096 159.16 210.972 158.704 210.724C158.256 210.476 157.908 210.12 157.66 209.656C157.412 209.192 157.288 208.652 157.288 208.036C157.288 207.42 157.412 206.884 157.66 206.428C157.908 205.964 158.256 205.608 158.704 205.36C159.16 205.112 159.688 204.988 160.288 204.988C160.888 204.988 161.412 205.112 161.86 205.36C162.316 205.608 162.664 205.964 162.904 206.428C163.152 206.884 163.276 207.42 163.276 208.036C163.276 208.652 163.152 209.192 162.904 209.656C162.664 210.12 162.316 210.476 161.86 210.724C161.412 210.972 160.888 211.096 160.288 211.096ZM160.276 209.932C160.764 209.932 161.136 209.772 161.392 209.452C161.648 209.132 161.776 208.66 161.776 208.036C161.776 207.42 161.648 206.952 161.392 206.632C161.136 206.304 160.768 206.14 160.288 206.14C159.808 206.14 159.436 206.304 159.172 206.632C158.916 206.952 158.788 207.42 158.788 208.036C158.788 208.66 158.916 209.132 159.172 209.452C159.428 209.772 159.796 209.932 160.276 209.932ZM173.436 202.54V211H171.948V210.052C171.772 210.38 171.516 210.636 171.18 210.82C170.852 211.004 170.476 211.096 170.052 211.096C169.548 211.096 169.096 210.968 168.696 210.712C168.304 210.456 167.996 210.096 167.772 209.632C167.556 209.16 167.448 208.62 167.448 208.012C167.448 207.404 167.556 206.872 167.772 206.416C167.996 205.96 168.304 205.608 168.696 205.36C169.088 205.112 169.54 204.988 170.052 204.988C170.476 204.988 170.852 205.076 171.18 205.252C171.508 205.428 171.76 205.676 171.936 205.996V202.54H173.436ZM170.448 209.932C170.928 209.932 171.296 209.768 171.552 209.44C171.816 209.112 171.948 208.644 171.948 208.036C171.948 207.428 171.816 206.964 171.552 206.644C171.296 206.316 170.932 206.152 170.46 206.152C169.98 206.152 169.608 206.312 169.344 206.632C169.08 206.952 168.948 207.412 168.948 208.012C168.948 208.62 169.08 209.092 169.344 209.428C169.608 209.764 169.976 209.932 170.448 209.932ZM180.127 208.336H176.131C176.179 208.88 176.343 209.284 176.623 209.548C176.903 209.812 177.303 209.944 177.823 209.944C178.471 209.944 179.063 209.736 179.599 209.32L180.031 210.352C179.759 210.576 179.415 210.756 178.999 210.892C178.591 211.028 178.179 211.096 177.763 211.096C176.803 211.096 176.043 210.824 175.483 210.28C174.931 209.736 174.655 208.992 174.655 208.048C174.655 207.448 174.775 206.916 175.015 206.452C175.255 205.988 175.591 205.628 176.023 205.372C176.463 205.116 176.959 204.988 177.511 204.988C178.319 204.988 178.955 205.248 179.419 205.768C179.891 206.288 180.127 207.004 180.127 207.916V208.336ZM177.547 206.044C177.147 206.044 176.823 206.172 176.575 206.428C176.335 206.684 176.187 207.052 176.131 207.532H178.843C178.827 207.044 178.707 206.676 178.483 206.428C178.259 206.172 177.947 206.044 177.547 206.044ZM190.276 202.54V211H188.788V210.052C188.612 210.38 188.356 210.636 188.02 210.82C187.692 211.004 187.316 211.096 186.892 211.096C186.388 211.096 185.936 210.968 185.536 210.712C185.144 210.456 184.836 210.096 184.612 209.632C184.396 209.16 184.288 208.62 184.288 208.012C184.288 207.404 184.396 206.872 184.612 206.416C184.836 205.96 185.144 205.608 185.536 205.36C185.928 205.112 186.38 204.988 186.892 204.988C187.316 204.988 187.692 205.076 188.02 205.252C188.348 205.428 188.6 205.676 188.776 205.996V202.54H190.276ZM187.288 209.932C187.768 209.932 188.136 209.768 188.392 209.44C188.656 209.112 188.788 208.644 188.788 208.036C188.788 207.428 188.656 206.964 188.392 206.644C188.136 206.316 187.772 206.152 187.3 206.152C186.82 206.152 186.448 206.312 186.184 206.632C185.92 206.952 185.788 207.412 185.788 208.012C185.788 208.62 185.92 209.092 186.184 209.428C186.448 209.764 186.816 209.932 187.288 209.932ZM196.967 208.336H192.971C193.019 208.88 193.183 209.284 193.463 209.548C193.743 209.812 194.143 209.944 194.663 209.944C195.311 209.944 195.903 209.736 196.439 209.32L196.871 210.352C196.599 210.576 196.255 210.756 195.839 210.892C195.431 211.028 195.019 211.096 194.603 211.096C193.643 211.096 192.883 210.824 192.323 210.28C191.771 209.736 191.495 208.992 191.495 208.048C191.495 207.448 191.615 206.916 191.855 206.452C192.095 205.988 192.431 205.628 192.863 205.372C193.303 205.116 193.799 204.988 194.351 204.988C195.159 204.988 195.795 205.248 196.259 205.768C196.731 206.288 196.967 207.004 196.967 207.916V208.336ZM194.387 206.044C193.987 206.044 193.663 206.172 193.415 206.428C193.175 206.684 193.027 207.052 192.971 207.532H195.683C195.667 207.044 195.547 206.676 195.323 206.428C195.099 206.172 194.787 206.044 194.387 206.044ZM200.354 211.096C199.834 211.096 199.354 211.032 198.914 210.904C198.482 210.776 198.114 210.592 197.81 210.352L198.23 209.308C198.854 209.764 199.57 209.992 200.378 209.992C200.722 209.992 200.982 209.936 201.158 209.824C201.342 209.712 201.434 209.552 201.434 209.344C201.434 209.168 201.37 209.032 201.242 208.936C201.122 208.84 200.902 208.752 200.582 208.672L199.622 208.456C199.078 208.336 198.674 208.14 198.41 207.868C198.146 207.596 198.014 207.244 198.014 206.812C198.014 206.452 198.114 206.136 198.314 205.864C198.522 205.584 198.806 205.368 199.166 205.216C199.534 205.064 199.958 204.988 200.438 204.988C200.854 204.988 201.254 205.052 201.638 205.18C202.03 205.308 202.374 205.488 202.67 205.72L202.25 206.74C201.642 206.3 201.034 206.08 200.426 206.08C200.098 206.08 199.842 206.14 199.658 206.26C199.474 206.38 199.382 206.548 199.382 206.764C199.382 206.924 199.438 207.056 199.55 207.16C199.67 207.264 199.858 207.344 200.114 207.4L201.11 207.628C201.694 207.756 202.122 207.96 202.394 208.24C202.666 208.512 202.802 208.872 202.802 209.32C202.802 209.864 202.582 210.296 202.142 210.616C201.702 210.936 201.106 211.096 200.354 211.096ZM206.96 209.968C207.136 209.968 207.32 209.956 207.512 209.932L207.44 211.048C207.2 211.072 206.98 211.084 206.78 211.084C205.956 211.084 205.348 210.896 204.956 210.52C204.564 210.136 204.368 209.568 204.368 208.816V206.26H203.24V205.132H204.368V203.38H205.868V205.132H207.416V206.26H205.868V208.792C205.868 209.576 206.232 209.968 206.96 209.968ZM210.909 204.988C211.733 204.988 212.345 205.188 212.745 205.588C213.145 205.988 213.345 206.604 213.345 207.436V211H211.917V210.1C211.781 210.412 211.565 210.656 211.269 210.832C210.981 211.008 210.645 211.096 210.261 211.096C209.869 211.096 209.513 211.016 209.193 210.856C208.873 210.696 208.621 210.476 208.437 210.196C208.253 209.916 208.161 209.604 208.161 209.26C208.161 208.828 208.269 208.488 208.485 208.24C208.709 207.992 209.069 207.812 209.565 207.7C210.061 207.588 210.745 207.532 211.617 207.532H211.917V207.256C211.917 206.856 211.829 206.568 211.653 206.392C211.485 206.216 211.201 206.128 210.801 206.128C210.489 206.128 210.161 206.184 209.817 206.296C209.481 206.4 209.149 206.548 208.821 206.74L208.401 205.708C208.729 205.5 209.125 205.328 209.589 205.192C210.053 205.056 210.493 204.988 210.909 204.988ZM210.561 210.016C210.961 210.016 211.285 209.884 211.533 209.62C211.789 209.348 211.917 209 211.917 208.576V208.324H211.701C211.165 208.324 210.749 208.348 210.453 208.396C210.157 208.444 209.945 208.528 209.817 208.648C209.689 208.768 209.625 208.932 209.625 209.14C209.625 209.396 209.713 209.608 209.889 209.776C210.065 209.936 210.289 210.016 210.561 210.016ZM220.534 205.132V213.16H219.034V210.076C218.858 210.396 218.602 210.648 218.266 210.832C217.938 211.008 217.566 211.096 217.15 211.096C216.638 211.096 216.186 210.972 215.794 210.724C215.402 210.476 215.094 210.124 214.87 209.668C214.654 209.212 214.546 208.68 214.546 208.072C214.546 207.464 214.654 206.928 214.87 206.464C215.094 205.992 215.402 205.628 215.794 205.372C216.194 205.116 216.646 204.988 217.15 204.988C217.574 204.988 217.95 205.08 218.278 205.264C218.614 205.44 218.87 205.692 219.046 206.02V205.132H220.534ZM217.558 209.932C218.03 209.932 218.394 209.768 218.65 209.44C218.914 209.112 219.046 208.648 219.046 208.048C219.046 207.44 218.914 206.972 218.65 206.644C218.394 206.316 218.026 206.152 217.546 206.152C217.074 206.152 216.706 206.32 216.442 206.656C216.178 206.992 216.046 207.464 216.046 208.072C216.046 208.664 216.178 209.124 216.442 209.452C216.706 209.772 217.078 209.932 217.558 209.932ZM227.465 205.132V211H226.001V210.1C225.817 210.42 225.569 210.668 225.257 210.844C224.945 211.012 224.593 211.096 224.201 211.096C222.761 211.096 222.041 210.288 222.041 208.672V205.132H223.541V208.684C223.541 209.1 223.625 209.408 223.793 209.608C223.961 209.808 224.225 209.908 224.585 209.908C225.001 209.908 225.333 209.772 225.581 209.5C225.837 209.22 225.965 208.852 225.965 208.396V205.132H227.465ZM234.174 208.336H230.178C230.226 208.88 230.39 209.284 230.67 209.548C230.95 209.812 231.35 209.944 231.87 209.944C232.518 209.944 233.11 209.736 233.646 209.32L234.078 210.352C233.806 210.576 233.462 210.756 233.046 210.892C232.638 211.028 232.226 211.096 231.81 211.096C230.85 211.096 230.09 210.824 229.53 210.28C228.978 209.736 228.702 208.992 228.702 208.048C228.702 207.448 228.822 206.916 229.062 206.452C229.302 205.988 229.638 205.628 230.07 205.372C230.51 205.116 231.006 204.988 231.558 204.988C232.366 204.988 233.002 205.248 233.466 205.768C233.938 206.288 234.174 207.004 234.174 207.916V208.336ZM231.594 206.044C231.194 206.044 230.87 206.172 230.622 206.428C230.382 206.684 230.234 207.052 230.178 207.532H232.89C232.874 207.044 232.754 206.676 232.53 206.428C232.306 206.172 231.994 206.044 231.594 206.044Z" fill="white"/>
<path d="M129.548 243H127.168L125.46 239.85C125.32 239.607 125.152 239.434 124.956 239.332C124.76 239.22 124.513 239.164 124.214 239.164H123.136V243H120.98V233.13H125.516C126.673 233.13 127.546 233.386 128.134 233.9C128.731 234.404 129.03 235.136 129.03 236.098C129.03 236.844 128.82 237.47 128.4 237.974C127.989 238.478 127.406 238.809 126.65 238.968C127.163 239.098 127.597 239.467 127.952 240.074L129.548 243ZM125.194 237.512C125.819 237.512 126.272 237.404 126.552 237.19C126.832 236.966 126.972 236.62 126.972 236.154C126.972 235.678 126.832 235.332 126.552 235.118C126.272 234.903 125.819 234.796 125.194 234.796H123.108V237.512H125.194ZM137.866 240.13C137.866 240.886 137.605 241.525 137.082 242.048C136.569 242.561 135.874 242.892 134.996 243.042V244.61H133.316V243.098C132.71 243.051 132.14 242.934 131.608 242.748C131.086 242.561 130.633 242.318 130.25 242.02L130.95 240.466C131.874 241.11 132.868 241.432 133.932 241.432C134.502 241.432 134.936 241.329 135.234 241.124C135.542 240.909 135.696 240.61 135.696 240.228C135.696 239.994 135.612 239.803 135.444 239.654C135.276 239.504 135.062 239.388 134.8 239.304C134.548 239.21 134.184 239.103 133.708 238.982C133.018 238.814 132.448 238.636 132 238.45C131.552 238.263 131.165 237.978 130.838 237.596C130.521 237.204 130.362 236.686 130.362 236.042C130.362 235.295 130.628 234.656 131.16 234.124C131.702 233.582 132.406 233.237 133.274 233.088V231.52H134.954V233.046C135.496 233.12 136.004 233.251 136.48 233.438C136.956 233.615 137.344 233.839 137.642 234.11L136.942 235.664C136.018 235.02 135.104 234.698 134.198 234.698C133.694 234.698 133.288 234.805 132.98 235.02C132.682 235.234 132.532 235.533 132.532 235.916C132.532 236.177 132.621 236.392 132.798 236.56C132.976 236.728 133.2 236.858 133.47 236.952C133.741 237.045 134.119 237.152 134.604 237.274C135.276 237.442 135.832 237.614 136.27 237.792C136.709 237.969 137.082 238.244 137.39 238.618C137.708 238.991 137.866 239.495 137.866 240.13ZM146.321 243.126C145.126 243.126 144.212 242.692 143.577 241.824C142.952 240.956 142.639 239.7 142.639 238.058C142.639 236.434 142.956 235.192 143.591 234.334C144.226 233.466 145.136 233.032 146.321 233.032C147.506 233.032 148.416 233.466 149.051 234.334C149.686 235.192 150.003 236.434 150.003 238.058C150.003 239.7 149.686 240.956 149.051 241.824C148.426 242.692 147.516 243.126 146.321 243.126ZM146.321 241.46C146.862 241.46 147.254 241.189 147.497 240.648C147.749 240.106 147.875 239.243 147.875 238.058C147.875 236.882 147.749 236.028 147.497 235.496C147.254 234.964 146.862 234.698 146.321 234.698C145.78 234.698 145.383 234.964 145.131 235.496C144.888 236.028 144.767 236.882 144.767 238.058C144.767 239.243 144.888 240.106 145.131 240.648C145.383 241.189 145.78 241.46 146.321 241.46ZM153.47 240.76V242.202C153.47 242.734 153.372 243.219 153.176 243.658C152.989 244.106 152.667 244.558 152.21 245.016L151.384 244.358C151.841 243.9 152.126 243.448 152.238 243H151.202V240.76H153.47ZM158.352 243.126C157.158 243.126 156.243 242.692 155.608 241.824C154.983 240.956 154.67 239.7 154.67 238.058C154.67 236.434 154.988 235.192 155.622 234.334C156.257 233.466 157.167 233.032 158.352 233.032C159.538 233.032 160.448 233.466 161.082 234.334C161.717 235.192 162.034 236.434 162.034 238.058C162.034 239.7 161.717 240.956 161.082 241.824C160.457 242.692 159.547 243.126 158.352 243.126ZM158.352 241.46C158.894 241.46 159.286 241.189 159.528 240.648C159.78 240.106 159.906 239.243 159.906 238.058C159.906 236.882 159.78 236.028 159.528 235.496C159.286 234.964 158.894 234.698 158.352 234.698C157.811 234.698 157.414 234.964 157.162 235.496C156.92 236.028 156.798 236.882 156.798 238.058C156.798 239.243 156.92 240.106 157.162 240.648C157.414 241.189 157.811 241.46 158.352 241.46ZM166.747 243.126C165.552 243.126 164.638 242.692 164.003 241.824C163.378 240.956 163.065 239.7 163.065 238.058C163.065 236.434 163.382 235.192 164.017 234.334C164.652 233.466 165.562 233.032 166.747 233.032C167.932 233.032 168.842 233.466 169.477 234.334C170.112 235.192 170.429 236.434 170.429 238.058C170.429 239.7 170.112 240.956 169.477 241.824C168.852 242.692 167.942 243.126 166.747 243.126ZM166.747 241.46C167.288 241.46 167.68 241.189 167.923 240.648C168.175 240.106 168.301 239.243 168.301 238.058C168.301 236.882 168.175 236.028 167.923 235.496C167.68 234.964 167.288 234.698 166.747 234.698C166.206 234.698 165.809 234.964 165.557 235.496C165.314 236.028 165.193 236.882 165.193 238.058C165.193 239.243 165.314 240.106 165.557 240.648C165.809 241.189 166.206 241.46 166.747 241.46Z" fill="#39464D"/>
<path d="M123.084 262V254.38H120.144V253.54H127.032V254.38H124.08V262H123.084ZM132.054 259.228H127.782C127.814 259.908 127.998 260.424 128.334 260.776C128.67 261.12 129.146 261.292 129.762 261.292C130.442 261.292 131.066 261.06 131.634 260.596L131.958 261.304C131.702 261.544 131.374 261.736 130.974 261.88C130.574 262.016 130.166 262.084 129.75 262.084C128.838 262.084 128.118 261.816 127.59 261.28C127.07 260.744 126.81 260.004 126.81 259.06C126.81 258.46 126.926 257.932 127.158 257.476C127.39 257.012 127.714 256.652 128.13 256.396C128.554 256.14 129.034 256.012 129.57 256.012C130.346 256.012 130.954 256.268 131.394 256.78C131.834 257.284 132.054 257.98 132.054 258.868V259.228ZM129.582 256.768C129.07 256.768 128.658 256.928 128.346 257.248C128.042 257.568 127.862 258.02 127.806 258.604H131.202C131.186 258.012 131.038 257.56 130.758 257.248C130.478 256.928 130.086 256.768 129.582 256.768ZM136.188 258.988L138.612 262H137.436L135.612 259.72L133.8 262H132.612L135.036 258.988L132.756 256.156H133.932L135.612 258.28L137.292 256.156H138.48L136.188 258.988ZM142.183 261.304C142.359 261.304 142.535 261.292 142.711 261.268L142.663 262.036C142.479 262.068 142.279 262.084 142.063 262.084C141.359 262.084 140.827 261.9 140.467 261.532C140.115 261.164 139.939 260.652 139.939 259.996V256.924H138.799V256.156H139.939V254.38H140.911V256.156H142.567V256.924H140.911V259.924C140.911 260.844 141.335 261.304 142.183 261.304ZM146.117 262.084C145.565 262.084 145.077 261.96 144.653 261.712C144.237 261.464 143.913 261.112 143.681 260.656C143.457 260.192 143.345 259.656 143.345 259.048C143.345 258.44 143.457 257.908 143.681 257.452C143.913 256.988 144.237 256.632 144.653 256.384C145.077 256.136 145.565 256.012 146.117 256.012C146.669 256.012 147.157 256.136 147.581 256.384C148.005 256.632 148.329 256.988 148.553 257.452C148.785 257.908 148.901 258.44 148.901 259.048C148.901 259.656 148.785 260.192 148.553 260.656C148.329 261.112 148.005 261.464 147.581 261.712C147.157 261.96 146.669 262.084 146.117 262.084ZM146.117 261.28C146.693 261.28 147.133 261.092 147.437 260.716C147.749 260.332 147.905 259.776 147.905 259.048C147.905 258.336 147.749 257.788 147.437 257.404C147.125 257.012 146.685 256.816 146.117 256.816C145.549 256.816 145.109 257.012 144.797 257.404C144.485 257.788 144.329 258.336 144.329 259.048C144.329 259.768 144.481 260.32 144.785 260.704C145.097 261.088 145.541 261.28 146.117 261.28ZM155.867 262.084C155.315 262.084 154.827 261.96 154.403 261.712C153.987 261.464 153.663 261.112 153.431 260.656C153.207 260.192 153.095 259.656 153.095 259.048C153.095 258.44 153.207 257.908 153.431 257.452C153.663 256.988 153.987 256.632 154.403 256.384C154.827 256.136 155.315 256.012 155.867 256.012C156.419 256.012 156.907 256.136 157.331 256.384C157.755 256.632 158.079 256.988 158.303 257.452C158.535 257.908 158.651 258.44 158.651 259.048C158.651 259.656 158.535 260.192 158.303 260.656C158.079 261.112 157.755 261.464 157.331 261.712C156.907 261.96 156.419 262.084 155.867 262.084ZM155.867 261.28C156.443 261.28 156.883 261.092 157.187 260.716C157.499 260.332 157.655 259.776 157.655 259.048C157.655 258.336 157.499 257.788 157.187 257.404C156.875 257.012 156.435 256.816 155.867 256.816C155.299 256.816 154.859 257.012 154.547 257.404C154.235 257.788 154.079 258.336 154.079 259.048C154.079 259.768 154.231 260.32 154.535 260.704C154.847 261.088 155.291 261.28 155.867 261.28ZM163.039 256.012C163.551 256.012 164.003 256.14 164.395 256.396C164.787 256.652 165.091 257.012 165.307 257.476C165.523 257.932 165.631 258.464 165.631 259.072C165.631 259.68 165.523 260.212 165.307 260.668C165.091 261.116 164.787 261.464 164.395 261.712C164.011 261.96 163.559 262.084 163.039 262.084C162.583 262.084 162.183 261.984 161.839 261.784C161.503 261.584 161.247 261.3 161.071 260.932V264.16H160.099V256.156H161.071V257.164C161.247 256.796 161.503 256.512 161.839 256.312C162.183 256.112 162.583 256.012 163.039 256.012ZM162.847 261.28C163.415 261.28 163.855 261.088 164.167 260.704C164.479 260.32 164.635 259.776 164.635 259.072C164.635 258.368 164.479 257.82 164.167 257.428C163.855 257.028 163.415 256.828 162.847 256.828C162.279 256.828 161.839 257.02 161.527 257.404C161.223 257.788 161.071 258.336 161.071 259.048C161.071 259.76 161.223 260.312 161.527 260.704C161.839 261.088 162.279 261.28 162.847 261.28ZM169.556 262.084C168.98 262.084 168.48 261.96 168.056 261.712C167.632 261.464 167.304 261.116 167.072 260.668C166.848 260.212 166.736 259.68 166.736 259.072C166.736 258.464 166.852 257.932 167.084 257.476C167.324 257.012 167.656 256.652 168.08 256.396C168.512 256.14 169.016 256.012 169.592 256.012C169.984 256.012 170.368 256.084 170.744 256.228C171.12 256.364 171.424 256.548 171.656 256.78L171.332 257.5C170.78 257.052 170.22 256.828 169.652 256.828C169.052 256.828 168.584 257.024 168.248 257.416C167.912 257.808 167.744 258.36 167.744 259.072C167.744 259.776 167.912 260.32 168.248 260.704C168.584 261.088 169.052 261.28 169.652 261.28C170.22 261.28 170.78 261.056 171.332 260.608L171.656 261.328C171.408 261.56 171.096 261.744 170.72 261.88C170.344 262.016 169.956 262.084 169.556 262.084ZM172.826 262V256.156H173.798V262H172.826ZM172.73 253.624H173.906V254.716H172.73V253.624ZM178.039 262.084C177.487 262.084 176.999 261.96 176.575 261.712C176.159 261.464 175.835 261.112 175.603 260.656C175.379 260.192 175.267 259.656 175.267 259.048C175.267 258.44 175.379 257.908 175.603 257.452C175.835 256.988 176.159 256.632 176.575 256.384C176.999 256.136 177.487 256.012 178.039 256.012C178.591 256.012 179.079 256.136 179.503 256.384C179.927 256.632 180.251 256.988 180.475 257.452C180.707 257.908 180.823 258.44 180.823 259.048C180.823 259.656 180.707 260.192 180.475 260.656C180.251 261.112 179.927 261.464 179.503 261.712C179.079 261.96 178.591 262.084 178.039 262.084ZM178.039 261.28C178.615 261.28 179.055 261.092 179.359 260.716C179.671 260.332 179.827 259.776 179.827 259.048C179.827 258.336 179.671 257.788 179.359 257.404C179.047 257.012 178.607 256.816 178.039 256.816C177.471 256.816 177.031 257.012 176.719 257.404C176.407 257.788 176.251 258.336 176.251 259.048C176.251 259.768 176.403 260.32 176.707 260.704C177.019 261.088 177.463 261.28 178.039 261.28ZM185.211 256.012C186.611 256.012 187.311 256.784 187.311 258.328V262H186.339V258.388C186.339 257.844 186.231 257.448 186.015 257.2C185.807 256.952 185.471 256.828 185.007 256.828C184.471 256.828 184.043 256.992 183.723 257.32C183.403 257.648 183.243 258.092 183.243 258.652V262H182.271V256.156H183.231V257.116C183.423 256.756 183.691 256.484 184.035 256.3C184.379 256.108 184.771 256.012 185.211 256.012ZM191.467 256.012C192.211 256.012 192.763 256.204 193.123 256.588C193.491 256.964 193.675 257.54 193.675 258.316V262H192.727V261.004C192.575 261.348 192.343 261.616 192.031 261.808C191.719 261.992 191.359 262.084 190.951 262.084C190.575 262.084 190.227 262.008 189.907 261.856C189.595 261.704 189.347 261.492 189.163 261.22C188.979 260.948 188.887 260.648 188.887 260.32C188.887 259.88 188.999 259.54 189.223 259.3C189.447 259.052 189.815 258.876 190.327 258.772C190.839 258.66 191.551 258.604 192.463 258.604H192.727V258.208C192.727 257.72 192.627 257.368 192.427 257.152C192.227 256.928 191.903 256.816 191.455 256.816C190.783 256.816 190.115 257.024 189.451 257.44L189.127 256.732C189.431 256.516 189.795 256.344 190.219 256.216C190.651 256.08 191.067 256.012 191.467 256.012ZM191.083 261.316C191.563 261.316 191.955 261.156 192.259 260.836C192.571 260.508 192.727 260.088 192.727 259.576V259.228H192.511C191.807 259.228 191.271 259.26 190.903 259.324C190.535 259.38 190.271 259.48 190.111 259.624C189.959 259.76 189.883 259.964 189.883 260.236C189.883 260.548 189.995 260.808 190.219 261.016C190.451 261.216 190.739 261.316 191.083 261.316ZM195.455 262V253.54H196.427V262H195.455ZM206.522 256.156V264.16H205.55V260.932C205.374 261.3 205.114 261.584 204.77 261.784C204.434 261.984 204.038 262.084 203.582 262.084C203.062 262.084 202.606 261.96 202.214 261.712C201.83 261.464 201.53 261.116 201.314 260.668C201.098 260.212 200.99 259.68 200.99 259.072C200.99 258.464 201.098 257.932 201.314 257.476C201.53 257.012 201.834 256.652 202.226 256.396C202.618 256.14 203.07 256.012 203.582 256.012C204.038 256.012 204.434 256.112 204.77 256.312C205.114 256.512 205.374 256.796 205.55 257.164V256.156H206.522ZM203.774 261.28C204.342 261.28 204.778 261.088 205.082 260.704C205.394 260.312 205.55 259.76 205.55 259.048C205.55 258.336 205.394 257.788 205.082 257.404C204.778 257.02 204.342 256.828 203.774 256.828C203.206 256.828 202.762 257.028 202.442 257.428C202.13 257.82 201.974 258.368 201.974 259.072C201.974 259.776 202.13 260.32 202.442 260.704C202.762 261.088 203.206 261.28 203.774 261.28ZM213.242 256.156V262H212.294V261.004C212.11 261.356 211.85 261.624 211.514 261.808C211.186 261.992 210.814 262.084 210.398 262.084C209.702 262.084 209.178 261.892 208.826 261.508C208.474 261.116 208.298 260.54 208.298 259.78V256.156H209.27V259.756C209.27 260.276 209.374 260.66 209.582 260.908C209.79 261.148 210.118 261.268 210.566 261.268C211.078 261.268 211.49 261.104 211.802 260.776C212.114 260.44 212.27 260 212.27 259.456V256.156H213.242ZM219.944 259.228H215.672C215.704 259.908 215.888 260.424 216.224 260.776C216.56 261.12 217.036 261.292 217.652 261.292C218.332 261.292 218.956 261.06 219.524 260.596L219.848 261.304C219.592 261.544 219.264 261.736 218.864 261.88C218.464 262.016 218.056 262.084 217.64 262.084C216.728 262.084 216.008 261.816 215.48 261.28C214.96 260.744 214.7 260.004 214.7 259.06C214.7 258.46 214.816 257.932 215.048 257.476C215.28 257.012 215.604 256.652 216.02 256.396C216.444 256.14 216.924 256.012 217.46 256.012C218.236 256.012 218.844 256.268 219.284 256.78C219.724 257.284 219.944 257.98 219.944 258.868V259.228ZM217.472 256.768C216.96 256.768 216.548 256.928 216.236 257.248C215.932 257.568 215.752 258.02 215.696 258.604H219.092C219.076 258.012 218.928 257.56 218.648 257.248C218.368 256.928 217.976 256.768 217.472 256.768ZM227.41 256.012C227.922 256.012 228.374 256.14 228.766 256.396C229.158 256.652 229.462 257.012 229.678 257.476C229.894 257.932 230.002 258.464 230.002 259.072C230.002 259.68 229.894 260.212 229.678 260.668C229.462 261.116 229.158 261.464 228.766 261.712C228.382 261.96 227.93 262.084 227.41 262.084C226.954 262.084 226.554 261.984 226.21 261.784C225.874 261.584 225.618 261.3 225.442 260.932V264.16H224.47V256.156H225.442V257.164C225.618 256.796 225.874 256.512 226.21 256.312C226.554 256.112 226.954 256.012 227.41 256.012ZM227.218 261.28C227.786 261.28 228.226 261.088 228.538 260.704C228.85 260.32 229.006 259.776 229.006 259.072C229.006 258.368 228.85 257.82 228.538 257.428C228.226 257.028 227.786 256.828 227.218 256.828C226.65 256.828 226.21 257.02 225.898 257.404C225.594 257.788 225.442 258.336 225.442 259.048C225.442 259.76 225.594 260.312 225.898 260.704C226.21 261.088 226.65 261.28 227.218 261.28ZM233.879 262.084C233.327 262.084 232.839 261.96 232.415 261.712C231.999 261.464 231.675 261.112 231.443 260.656C231.219 260.192 231.107 259.656 231.107 259.048C231.107 258.44 231.219 257.908 231.443 257.452C231.675 256.988 231.999 256.632 232.415 256.384C232.839 256.136 233.327 256.012 233.879 256.012C234.431 256.012 234.919 256.136 235.343 256.384C235.767 256.632 236.091 256.988 236.315 257.452C236.547 257.908 236.663 258.44 236.663 259.048C236.663 259.656 236.547 260.192 236.315 260.656C236.091 261.112 235.767 261.464 235.343 261.712C234.919 261.96 234.431 262.084 233.879 262.084ZM233.879 261.28C234.455 261.28 234.895 261.092 235.199 260.716C235.511 260.332 235.667 259.776 235.667 259.048C235.667 258.336 235.511 257.788 235.199 257.404C234.887 257.012 234.447 256.816 233.879 256.816C233.311 256.816 232.871 257.012 232.559 257.404C232.247 257.788 232.091 258.336 232.091 259.048C232.091 259.768 232.243 260.32 232.547 260.704C232.859 261.088 233.303 261.28 233.879 261.28ZM243.295 253.54V262H242.323V260.932C242.147 261.3 241.887 261.584 241.543 261.784C241.207 261.984 240.811 262.084 240.355 262.084C239.843 262.084 239.391 261.956 238.999 261.7C238.607 261.444 238.303 261.088 238.087 260.632C237.871 260.168 237.763 259.632 237.763 259.024C237.763 258.424 237.871 257.896 238.087 257.44C238.303 256.984 238.607 256.632 238.999 256.384C239.391 256.136 239.843 256.012 240.355 256.012C240.811 256.012 241.207 256.112 241.543 256.312C241.887 256.512 242.147 256.796 242.323 257.164V253.54H243.295ZM240.547 261.28C241.115 261.28 241.551 261.088 241.855 260.704C242.167 260.312 242.323 259.76 242.323 259.048C242.323 258.336 242.167 257.788 241.855 257.404C241.551 257.02 241.115 256.828 240.547 256.828C239.979 256.828 239.535 257.02 239.215 257.404C238.903 257.788 238.747 258.328 238.747 259.024C238.747 259.736 238.903 260.292 239.215 260.692C239.535 261.084 239.979 261.28 240.547 261.28ZM249.991 259.228H245.719C245.751 259.908 245.935 260.424 246.271 260.776C246.607 261.12 247.083 261.292 247.699 261.292C248.379 261.292 249.003 261.06 249.571 260.596L249.895 261.304C249.639 261.544 249.311 261.736 248.911 261.88C248.511 262.016 248.103 262.084 247.687 262.084C246.775 262.084 246.055 261.816 245.527 261.28C245.007 260.744 244.747 260.004 244.747 259.06C244.747 258.46 244.863 257.932 245.095 257.476C245.327 257.012 245.651 256.652 246.067 256.396C246.491 256.14 246.971 256.012 247.507 256.012C248.283 256.012 248.891 256.268 249.331 256.78C249.771 257.284 249.991 257.98 249.991 258.868V259.228ZM247.519 256.768C247.007 256.768 246.595 256.928 246.283 257.248C245.979 257.568 245.799 258.02 245.743 258.604H249.139C249.123 258.012 248.975 257.56 248.695 257.248C248.415 256.928 248.023 256.768 247.519 256.768ZM256.989 262.084C256.413 262.084 255.913 261.96 255.489 261.712C255.065 261.464 254.737 261.116 254.505 260.668C254.281 260.212 254.169 259.68 254.169 259.072C254.169 258.464 254.285 257.932 254.517 257.476C254.757 257.012 255.089 256.652 255.513 256.396C255.945 256.14 256.449 256.012 257.025 256.012C257.417 256.012 257.801 256.084 258.177 256.228C258.553 256.364 258.857 256.548 259.089 256.78L258.765 257.5C258.213 257.052 257.653 256.828 257.085 256.828C256.485 256.828 256.017 257.024 255.681 257.416C255.345 257.808 255.177 258.36 255.177 259.072C255.177 259.776 255.345 260.32 255.681 260.704C256.017 261.088 256.485 261.28 257.085 261.28C257.653 261.28 258.213 261.056 258.765 260.608L259.089 261.328C258.841 261.56 258.529 261.744 258.153 261.88C257.777 262.016 257.389 262.084 256.989 262.084ZM262.683 262.084C262.131 262.084 261.643 261.96 261.219 261.712C260.803 261.464 260.479 261.112 260.247 260.656C260.023 260.192 259.911 259.656 259.911 259.048C259.911 258.44 260.023 257.908 260.247 257.452C260.479 256.988 260.803 256.632 261.219 256.384C261.643 256.136 262.131 256.012 262.683 256.012C263.235 256.012 263.723 256.136 264.147 256.384C264.571 256.632 264.895 256.988 265.119 257.452C265.351 257.908 265.467 258.44 265.467 259.048C265.467 259.656 265.351 260.192 265.119 260.656C264.895 261.112 264.571 261.464 264.147 261.712C263.723 261.96 263.235 262.084 262.683 262.084ZM262.683 261.28C263.259 261.28 263.699 261.092 264.003 260.716C264.315 260.332 264.471 259.776 264.471 259.048C264.471 258.336 264.315 257.788 264.003 257.404C263.691 257.012 263.251 256.816 262.683 256.816C262.115 256.816 261.675 257.012 261.363 257.404C261.051 257.788 260.895 258.336 260.895 259.048C260.895 259.768 261.047 260.32 261.351 260.704C261.663 261.088 262.107 261.28 262.683 261.28ZM269.856 256.012C271.256 256.012 271.956 256.784 271.956 258.328V262H270.984V258.388C270.984 257.844 270.876 257.448 270.66 257.2C270.452 256.952 270.116 256.828 269.652 256.828C269.116 256.828 268.688 256.992 268.368 257.32C268.048 257.648 267.888 258.092 267.888 258.652V262H266.916V256.156H267.876V257.116C268.068 256.756 268.336 256.484 268.68 256.3C269.024 256.108 269.416 256.012 269.856 256.012ZM276.304 261.304C276.48 261.304 276.656 261.292 276.832 261.268L276.784 262.036C276.6 262.068 276.4 262.084 276.184 262.084C275.48 262.084 274.948 261.9 274.588 261.532C274.236 261.164 274.06 260.652 274.06 259.996V256.924H272.92V256.156H274.06V254.38H275.032V256.156H276.688V256.924H275.032V259.924C275.032 260.844 275.456 261.304 276.304 261.304ZM282.71 259.228H278.438C278.47 259.908 278.654 260.424 278.99 260.776C279.326 261.12 279.802 261.292 280.418 261.292C281.098 261.292 281.722 261.06 282.29 260.596L282.614 261.304C282.358 261.544 282.03 261.736 281.63 261.88C281.23 262.016 280.822 262.084 280.406 262.084C279.494 262.084 278.774 261.816 278.246 261.28C277.726 260.744 277.466 260.004 277.466 259.06C277.466 258.46 277.582 257.932 277.814 257.476C278.046 257.012 278.37 256.652 278.786 256.396C279.21 256.14 279.69 256.012 280.226 256.012C281.002 256.012 281.61 256.268 282.05 256.78C282.49 257.284 282.71 257.98 282.71 258.868V259.228ZM280.238 256.768C279.726 256.768 279.314 256.928 279.002 257.248C278.698 257.568 278.518 258.02 278.462 258.604H281.858C281.842 258.012 281.694 257.56 281.414 257.248C281.134 256.928 280.742 256.768 280.238 256.768ZM287.454 256.852L286.818 256.912C286.218 256.968 285.782 257.156 285.51 257.476C285.246 257.796 285.114 258.192 285.114 258.664V262H284.142V256.156H285.09V257.176C285.418 256.496 286.062 256.116 287.022 256.036L287.37 256.012L287.454 256.852ZM293.842 256.012C294.586 256.012 295.138 256.204 295.498 256.588C295.866 256.964 296.05 257.54 296.05 258.316V262H295.102V261.004C294.95 261.348 294.718 261.616 294.406 261.808C294.094 261.992 293.734 262.084 293.326 262.084C292.95 262.084 292.602 262.008 292.282 261.856C291.97 261.704 291.722 261.492 291.538 261.22C291.354 260.948 291.262 260.648 291.262 260.32C291.262 259.88 291.374 259.54 291.598 259.3C291.822 259.052 292.19 258.876 292.702 258.772C293.214 258.66 293.926 258.604 294.838 258.604H295.102V258.208C295.102 257.72 295.002 257.368 294.802 257.152C294.602 256.928 294.278 256.816 293.83 256.816C293.158 256.816 292.49 257.024 291.826 257.44L291.502 256.732C291.806 256.516 292.17 256.344 292.594 256.216C293.026 256.08 293.442 256.012 293.842 256.012ZM293.458 261.316C293.938 261.316 294.33 261.156 294.634 260.836C294.946 260.508 295.102 260.088 295.102 259.576V259.228H294.886C294.182 259.228 293.646 259.26 293.278 259.324C292.91 259.38 292.646 259.48 292.486 259.624C292.334 259.76 292.258 259.964 292.258 260.236C292.258 260.548 292.37 260.808 292.594 261.016C292.826 261.216 293.114 261.316 293.458 261.316ZM300.398 261.304C300.574 261.304 300.75 261.292 300.926 261.268L300.878 262.036C300.694 262.068 300.494 262.084 300.278 262.084C299.574 262.084 299.042 261.9 298.682 261.532C298.33 261.164 298.154 260.652 298.154 259.996V256.924H297.014V256.156H298.154V254.38H299.126V256.156H300.782V256.924H299.126V259.924C299.126 260.844 299.55 261.304 300.398 261.304ZM306.804 259.228H302.532C302.564 259.908 302.748 260.424 303.084 260.776C303.42 261.12 303.896 261.292 304.512 261.292C305.192 261.292 305.816 261.06 306.384 260.596L306.708 261.304C306.452 261.544 306.124 261.736 305.724 261.88C305.324 262.016 304.916 262.084 304.5 262.084C303.588 262.084 302.868 261.816 302.34 261.28C301.82 260.744 301.56 260.004 301.56 259.06C301.56 258.46 301.676 257.932 301.908 257.476C302.14 257.012 302.464 256.652 302.88 256.396C303.304 256.14 303.784 256.012 304.32 256.012C305.096 256.012 305.704 256.268 306.144 256.78C306.584 257.284 306.804 257.98 306.804 258.868V259.228ZM304.332 256.768C303.82 256.768 303.408 256.928 303.096 257.248C302.792 257.568 302.612 258.02 302.556 258.604H305.952C305.936 258.012 305.788 257.56 305.508 257.248C305.228 256.928 304.836 256.768 304.332 256.768ZM304.656 255.388H303.984L305.172 252.964H306.288L304.656 255.388ZM124.44 277.68L127.656 282H126.492L123.876 278.412L121.26 282H120.096L123.312 277.668L120.252 273.54H121.416L123.888 276.936L126.36 273.54H127.512L124.44 277.68ZM134.224 282.084C133.648 282.084 133.148 281.96 132.724 281.712C132.3 281.464 131.972 281.116 131.74 280.668C131.516 280.212 131.404 279.68 131.404 279.072C131.404 278.464 131.52 277.932 131.752 277.476C131.992 277.012 132.324 276.652 132.748 276.396C133.18 276.14 133.684 276.012 134.26 276.012C134.652 276.012 135.036 276.084 135.412 276.228C135.788 276.364 136.092 276.548 136.324 276.78L136 277.5C135.448 277.052 134.888 276.828 134.32 276.828C133.72 276.828 133.252 277.024 132.916 277.416C132.58 277.808 132.412 278.36 132.412 279.072C132.412 279.776 132.58 280.32 132.916 280.704C133.252 281.088 133.72 281.28 134.32 281.28C134.888 281.28 135.448 281.056 136 280.608L136.324 281.328C136.076 281.56 135.764 281.744 135.388 281.88C135.012 282.016 134.624 282.084 134.224 282.084ZM139.87 276.012C140.614 276.012 141.166 276.204 141.526 276.588C141.894 276.964 142.078 277.54 142.078 278.316V282H141.13V281.004C140.978 281.348 140.746 281.616 140.434 281.808C140.122 281.992 139.762 282.084 139.354 282.084C138.978 282.084 138.63 282.008 138.31 281.856C137.998 281.704 137.75 281.492 137.566 281.22C137.382 280.948 137.29 280.648 137.29 280.32C137.29 279.88 137.402 279.54 137.626 279.3C137.85 279.052 138.218 278.876 138.73 278.772C139.242 278.66 139.954 278.604 140.866 278.604H141.13V278.208C141.13 277.72 141.03 277.368 140.83 277.152C140.63 276.928 140.306 276.816 139.858 276.816C139.186 276.816 138.518 277.024 137.854 277.44L137.53 276.732C137.834 276.516 138.198 276.344 138.622 276.216C139.054 276.08 139.47 276.012 139.87 276.012ZM139.486 281.316C139.966 281.316 140.358 281.156 140.662 280.836C140.974 280.508 141.13 280.088 141.13 279.576V279.228H140.914C140.21 279.228 139.674 279.26 139.306 279.324C138.938 279.38 138.674 279.48 138.514 279.624C138.362 279.76 138.286 279.964 138.286 280.236C138.286 280.548 138.398 280.808 138.622 281.016C138.854 281.216 139.142 281.316 139.486 281.316ZM147.169 276.852L146.533 276.912C145.933 276.968 145.497 277.156 145.225 277.476C144.961 277.796 144.829 278.192 144.829 278.664V282H143.857V276.156H144.805V277.176C145.133 276.496 145.777 276.116 146.737 276.036L147.085 276.012L147.169 276.852ZM150.417 276.012C151.161 276.012 151.713 276.204 152.073 276.588C152.441 276.964 152.625 277.54 152.625 278.316V282H151.677V281.004C151.525 281.348 151.293 281.616 150.981 281.808C150.669 281.992 150.309 282.084 149.901 282.084C149.525 282.084 149.177 282.008 148.857 281.856C148.545 281.704 148.297 281.492 148.113 281.22C147.929 280.948 147.837 280.648 147.837 280.32C147.837 279.88 147.949 279.54 148.173 279.3C148.397 279.052 148.765 278.876 149.277 278.772C149.789 278.66 150.501 278.604 151.413 278.604H151.677V278.208C151.677 277.72 151.577 277.368 151.377 277.152C151.177 276.928 150.853 276.816 150.405 276.816C149.733 276.816 149.065 277.024 148.401 277.44L148.077 276.732C148.381 276.516 148.745 276.344 149.169 276.216C149.601 276.08 150.017 276.012 150.417 276.012ZM150.033 281.316C150.513 281.316 150.905 281.156 151.209 280.836C151.521 280.508 151.677 280.088 151.677 279.576V279.228H151.461C150.757 279.228 150.221 279.26 149.853 279.324C149.485 279.38 149.221 279.48 149.061 279.624C148.909 279.76 148.833 279.964 148.833 280.236C148.833 280.548 148.945 280.808 149.169 281.016C149.401 281.216 149.689 281.316 150.033 281.316ZM156.876 282.084C156.3 282.084 155.8 281.96 155.376 281.712C154.952 281.464 154.624 281.116 154.392 280.668C154.168 280.212 154.056 279.68 154.056 279.072C154.056 278.464 154.172 277.932 154.404 277.476C154.644 277.012 154.976 276.652 155.4 276.396C155.832 276.14 156.336 276.012 156.912 276.012C157.304 276.012 157.688 276.084 158.064 276.228C158.44 276.364 158.744 276.548 158.976 276.78L158.652 277.5C158.1 277.052 157.54 276.828 156.972 276.828C156.372 276.828 155.904 277.024 155.568 277.416C155.232 277.808 155.064 278.36 155.064 279.072C155.064 279.776 155.232 280.32 155.568 280.704C155.904 281.088 156.372 281.28 156.972 281.28C157.54 281.28 158.1 281.056 158.652 280.608L158.976 281.328C158.728 281.56 158.416 281.744 158.04 281.88C157.664 282.016 157.276 282.084 156.876 282.084ZM162.726 281.304C162.902 281.304 163.078 281.292 163.254 281.268L163.206 282.036C163.022 282.068 162.822 282.084 162.606 282.084C161.902 282.084 161.37 281.9 161.01 281.532C160.658 281.164 160.482 280.652 160.482 279.996V276.924H159.342V276.156H160.482V274.38H161.454V276.156H163.11V276.924H161.454V279.924C161.454 280.844 161.878 281.304 162.726 281.304ZM169.132 279.228H164.86C164.892 279.908 165.076 280.424 165.412 280.776C165.748 281.12 166.224 281.292 166.84 281.292C167.52 281.292 168.144 281.06 168.712 280.596L169.036 281.304C168.78 281.544 168.452 281.736 168.052 281.88C167.652 282.016 167.244 282.084 166.828 282.084C165.916 282.084 165.196 281.816 164.668 281.28C164.148 280.744 163.888 280.004 163.888 279.06C163.888 278.46 164.004 277.932 164.236 277.476C164.468 277.012 164.792 276.652 165.208 276.396C165.632 276.14 166.112 276.012 166.648 276.012C167.424 276.012 168.032 276.268 168.472 276.78C168.912 277.284 169.132 277.98 169.132 278.868V279.228ZM166.66 276.768C166.148 276.768 165.736 276.928 165.424 277.248C165.12 277.568 164.94 278.02 164.884 278.604H168.28C168.264 278.012 168.116 277.56 167.836 277.248C167.556 276.928 167.164 276.768 166.66 276.768ZM173.876 276.852L173.24 276.912C172.64 276.968 172.204 277.156 171.932 277.476C171.668 277.796 171.536 278.192 171.536 278.664V282H170.564V276.156H171.512V277.176C171.84 276.496 172.484 276.116 173.444 276.036L173.792 276.012L173.876 276.852ZM179.573 279.228H175.301C175.333 279.908 175.517 280.424 175.853 280.776C176.189 281.12 176.665 281.292 177.281 281.292C177.961 281.292 178.585 281.06 179.153 280.596L179.477 281.304C179.221 281.544 178.893 281.736 178.493 281.88C178.093 282.016 177.685 282.084 177.269 282.084C176.357 282.084 175.637 281.816 175.109 281.28C174.589 280.744 174.329 280.004 174.329 279.06C174.329 278.46 174.445 277.932 174.677 277.476C174.909 277.012 175.233 276.652 175.649 276.396C176.073 276.14 176.553 276.012 177.089 276.012C177.865 276.012 178.473 276.268 178.913 276.78C179.353 277.284 179.573 277.98 179.573 278.868V279.228ZM177.101 276.768C176.589 276.768 176.177 276.928 175.865 277.248C175.561 277.568 175.381 278.02 175.325 278.604H178.721C178.705 278.012 178.557 277.56 178.277 277.248C177.997 276.928 177.605 276.768 177.101 276.768ZM182.985 282.084C182.001 282.084 181.221 281.832 180.645 281.328L180.969 280.608C181.281 280.856 181.597 281.036 181.917 281.148C182.245 281.252 182.613 281.304 183.021 281.304C183.453 281.304 183.781 281.232 184.005 281.088C184.237 280.936 184.353 280.72 184.353 280.44C184.353 280.208 184.277 280.024 184.125 279.888C183.973 279.752 183.721 279.644 183.369 279.564L182.385 279.336C181.889 279.224 181.509 279.032 181.245 278.76C180.981 278.488 180.849 278.152 180.849 277.752C180.849 277.232 181.053 276.812 181.461 276.492C181.869 276.172 182.413 276.012 183.093 276.012C183.501 276.012 183.889 276.08 184.257 276.216C184.625 276.344 184.933 276.532 185.181 276.78L184.857 277.488C184.321 277.032 183.733 276.804 183.093 276.804C182.685 276.804 182.365 276.884 182.133 277.044C181.909 277.196 181.797 277.412 181.797 277.692C181.797 277.924 181.865 278.112 182.001 278.256C182.145 278.392 182.373 278.496 182.685 278.568L183.681 278.808C184.225 278.936 184.629 279.132 184.893 279.396C185.157 279.652 185.289 279.988 185.289 280.404C185.289 280.916 185.081 281.324 184.665 281.628C184.257 281.932 183.697 282.084 182.985 282.084Z" fill="#39464D"/>
<path d="M329.016 232.326C328.8 232.115 328.526 232 328.203 232C327.558 232 327.039 232.499 327.039 233.131C327.039 233.447 327.176 233.735 327.401 233.955L334.25 240.51L327.401 247.045C327.176 247.266 327.039 247.563 327.039 247.869C327.039 248.502 327.558 249 328.203 249C328.526 249 328.8 248.885 329.016 248.674L336.628 241.391C336.902 241.142 337.029 240.836 337.039 240.5C337.039 240.165 336.902 239.877 336.628 239.619L329.016 232.326Z" fill="#00AC4A"/>
</svg>
