<svg width="181" height="24" viewBox="0 0 181 24" fill="none" xmlns="http://www.w3.org/2000/svg">
<path fill-rule="evenodd" clip-rule="evenodd" d="M29.7494 16.7159C27.923 16.7159 26.6325 15.3794 26.6325 13.4088C26.6325 11.4608 27.923 10.1469 29.7494 10.1469C31.04 10.1243 32.0385 10.6226 32.7448 11.4381L35.2772 9.73923C34.1084 8.10834 32.1115 7.17954 29.6033 7.17954C25.5852 7.17954 22.8823 9.6939 22.8823 13.4315C22.8823 17.1236 25.5852 19.6153 29.5546 19.6153C32.2333 19.6153 34.2788 18.6186 35.3748 16.9198L32.7934 15.2889C32.1359 16.2403 31.0887 16.7159 29.7494 16.7159ZM61.5254 15.3112C61.1285 16.3532 60.0507 17.1459 58.4677 17.1459C57.2015 17.1459 56.4154 16.53 56.4154 15.6013C56.4154 14.6273 57.1148 14.2152 58.5514 14.2152H61.5254V15.3112ZM59.3254 7.15684C57.0364 7.15684 55.356 7.6552 53.408 8.56129L54.5768 10.9623C55.9405 10.2601 57.3179 9.89763 58.4867 9.89763C60.2887 9.89763 61.2279 10.6452 61.2279 11.9363V12.1846H57.5964C54.382 12.1846 52.6044 13.5556 52.6044 15.8433C52.6044 18.0632 54.3105 19.6433 57.111 19.6433C58.9373 19.6433 60.2355 19.0716 61.2279 18.0523V19.3846H64.9019L64.8776 11.4813C64.8532 8.74046 62.8319 7.15684 59.3254 7.15684ZM76.1506 7.20005L72.9334 14.7653L69.7236 7.20005H65.8517L70.9802 19.3582L69.0063 24H72.9327L80 7.20005H76.1506ZM44.7198 3.50756H41.2816V6.46139H44.5251C46.668 6.46139 47.8856 7.4297 47.8856 9.19655C47.8856 11.0087 46.668 11.9998 44.5251 11.9998H41.2816V6.46139H37.5107V19.3844H41.2816V14.9537H44.7198C49.0545 14.9537 51.5383 12.7642 51.5383 9.07203C51.5383 5.56103 49.0545 3.50756 44.7198 3.50756ZM17.7301 5.84625H22.758V1.16931H17.7301V5.84625ZM16.4733 7.01536H24.0152V0H16.4733V7.01536ZM7.3443 3.50756H3.77094V6.46139H7.1494C9.29239 6.46139 10.51 7.4297 10.51 9.19655C10.51 11.0087 9.29239 11.9998 7.1494 11.9998H3.77094V6.46139H0V19.3844H3.77094V14.9537H7.3443C11.6788 14.9537 14.1627 12.7642 14.1627 9.07203C14.1627 5.56103 11.6788 3.50756 7.3443 3.50756ZM18.9868 4.67667H21.5008V2.33825H18.9868V4.67667ZM16.4733 19.3845H20.2442V9.23068H16.4733V19.3845Z" fill="#11C76F"/>
<path d="M88 0H89.3405V24H88V0Z" fill="#0E161A"/>
<path d="M106.746 13.448C107.466 13.676 108.03 14.06 108.438 14.6C108.846 15.128 109.05 15.782 109.05 16.562C109.05 17.666 108.618 18.518 107.754 19.118C106.902 19.706 105.654 20 104.01 20H97.494V7.4H103.65C105.186 7.4 106.362 7.694 107.178 8.282C108.006 8.87 108.42 9.668 108.42 10.676C108.42 11.288 108.27 11.834 107.97 12.314C107.682 12.794 107.274 13.172 106.746 13.448ZM100.392 9.596V12.566H103.29C104.01 12.566 104.556 12.44 104.928 12.188C105.3 11.936 105.486 11.564 105.486 11.072C105.486 10.58 105.3 10.214 104.928 9.974C104.556 9.722 104.01 9.596 103.29 9.596H100.392ZM103.794 17.804C104.562 17.804 105.138 17.678 105.522 17.426C105.918 17.174 106.116 16.784 106.116 16.256C106.116 15.212 105.342 14.69 103.794 14.69H100.392V17.804H103.794ZM116.856 20.216C115.056 20.216 113.652 19.718 112.644 18.722C111.648 17.726 111.15 16.304 111.15 14.456V7.4H114.066V14.348C114.066 16.604 115.002 17.732 116.874 17.732C117.786 17.732 118.482 17.462 118.962 16.922C119.442 16.37 119.682 15.512 119.682 14.348V7.4H122.562V14.456C122.562 16.304 122.058 17.726 121.05 18.722C120.054 19.718 118.656 20.216 116.856 20.216ZM125.443 7.4H128.359V20H125.443V7.4ZM131.349 7.4H134.265V17.624H140.583V20H131.349V7.4ZM142.213 7.4H147.937C149.305 7.4 150.511 7.664 151.555 8.192C152.611 8.708 153.427 9.44 154.003 10.388C154.591 11.336 154.885 12.44 154.885 13.7C154.885 14.96 154.591 16.064 154.003 17.012C153.427 17.96 152.611 18.698 151.555 19.226C150.511 19.742 149.305 20 147.937 20H142.213V7.4ZM147.793 17.606C149.053 17.606 150.055 17.258 150.799 16.562C151.555 15.854 151.933 14.9 151.933 13.7C151.933 12.5 151.555 11.552 150.799 10.856C150.055 10.148 149.053 9.794 147.793 9.794H145.129V17.606H147.793ZM166.84 17.66V20H157.084V7.4H166.606V9.74H159.982V12.476H165.832V14.744H159.982V17.66H166.84ZM177.188 20L174.758 16.49H174.614H172.076V20H169.16V7.4H174.614C175.73 7.4 176.696 7.586 177.512 7.958C178.34 8.33 178.976 8.858 179.42 9.542C179.864 10.226 180.086 11.036 180.086 11.972C180.086 12.908 179.858 13.718 179.402 14.402C178.958 15.074 178.322 15.59 177.494 15.95L180.32 20H177.188ZM177.134 11.972C177.134 11.264 176.906 10.724 176.45 10.352C175.994 9.968 175.328 9.776 174.452 9.776H172.076V14.168H174.452C175.328 14.168 175.994 13.976 176.45 13.592C176.906 13.208 177.134 12.668 177.134 11.972Z" fill="#0E161A"/>
</svg>
