<svg width="370" height="120" viewBox="0 0 370 120" fill="none" xmlns="http://www.w3.org/2000/svg">
<rect width="370" height="120" rx="8" fill="white"/>
<path d="M20.344 58.096C19.24 58.096 18.404 57.808 17.836 57.232C17.268 56.656 16.984 55.808 16.984 54.688V49.54H17.956V54.772C17.956 55.596 18.156 56.216 18.556 56.632C18.964 57.048 19.56 57.256 20.344 57.256C21.128 57.256 21.72 57.048 22.12 56.632C22.52 56.216 22.72 55.596 22.72 54.772V49.54H23.704V54.688C23.704 55.8 23.416 56.648 22.84 57.232C22.272 57.808 21.44 58.096 20.344 58.096ZM27.5636 58.084C26.5796 58.084 25.7996 57.832 25.2236 57.328L25.5476 56.608C25.8596 56.856 26.1756 57.036 26.4956 57.148C26.8236 57.252 27.1916 57.304 27.5996 57.304C28.0316 57.304 28.3596 57.232 28.5836 57.088C28.8156 56.936 28.9316 56.72 28.9316 56.44C28.9316 56.208 28.8556 56.024 28.7036 55.888C28.5516 55.752 28.2996 55.644 27.9476 55.564L26.9636 55.336C26.4676 55.224 26.0876 55.032 25.8236 54.76C25.5596 54.488 25.4276 54.152 25.4276 53.752C25.4276 53.232 25.6316 52.812 26.0396 52.492C26.4476 52.172 26.9916 52.012 27.6716 52.012C28.0796 52.012 28.4676 52.08 28.8356 52.216C29.2036 52.344 29.5116 52.532 29.7596 52.78L29.4356 53.488C28.8996 53.032 28.3116 52.804 27.6716 52.804C27.2636 52.804 26.9436 52.884 26.7116 53.044C26.4876 53.196 26.3756 53.412 26.3756 53.692C26.3756 53.924 26.4436 54.112 26.5796 54.256C26.7236 54.392 26.9516 54.496 27.2636 54.568L28.2596 54.808C28.8036 54.936 29.2076 55.132 29.4716 55.396C29.7356 55.652 29.8676 55.988 29.8676 56.404C29.8676 56.916 29.6596 57.324 29.2436 57.628C28.8356 57.932 28.2756 58.084 27.5636 58.084ZM36.2452 55.228H31.9732C32.0052 55.908 32.1892 56.424 32.5252 56.776C32.8612 57.12 33.3372 57.292 33.9532 57.292C34.6332 57.292 35.2572 57.06 35.8252 56.596L36.1492 57.304C35.8932 57.544 35.5652 57.736 35.1652 57.88C34.7652 58.016 34.3572 58.084 33.9412 58.084C33.0292 58.084 32.3092 57.816 31.7812 57.28C31.2612 56.744 31.0012 56.004 31.0012 55.06C31.0012 54.46 31.1172 53.932 31.3492 53.476C31.5812 53.012 31.9052 52.652 32.3212 52.396C32.7452 52.14 33.2252 52.012 33.7612 52.012C34.5372 52.012 35.1452 52.268 35.5852 52.78C36.0252 53.284 36.2452 53.98 36.2452 54.868V55.228ZM33.7732 52.768C33.2612 52.768 32.8492 52.928 32.5372 53.248C32.2332 53.568 32.0532 54.02 31.9972 54.604H35.3932C35.3772 54.012 35.2292 53.56 34.9492 53.248C34.6692 52.928 34.2772 52.768 33.7732 52.768ZM45.6671 55.228H41.3951C41.4271 55.908 41.6111 56.424 41.9471 56.776C42.2831 57.12 42.7591 57.292 43.3751 57.292C44.0551 57.292 44.6791 57.06 45.2471 56.596L45.5711 57.304C45.3151 57.544 44.9871 57.736 44.5871 57.88C44.1871 58.016 43.7791 58.084 43.3631 58.084C42.4511 58.084 41.7311 57.816 41.2031 57.28C40.6831 56.744 40.4231 56.004 40.4231 55.06C40.4231 54.46 40.5391 53.932 40.7711 53.476C41.0031 53.012 41.3271 52.652 41.7431 52.396C42.1671 52.14 42.6471 52.012 43.1831 52.012C43.9591 52.012 44.5671 52.268 45.0071 52.78C45.4471 53.284 45.6671 53.98 45.6671 54.868V55.228ZM43.1951 52.768C42.6831 52.768 42.2711 52.928 41.9591 53.248C41.6551 53.568 41.4751 54.02 41.4191 54.604H44.8151C44.7991 54.012 44.6511 53.56 44.3711 53.248C44.0911 52.928 43.6991 52.768 43.1951 52.768ZM49.0792 58.084C48.0952 58.084 47.3152 57.832 46.7392 57.328L47.0632 56.608C47.3752 56.856 47.6912 57.036 48.0112 57.148C48.3392 57.252 48.7072 57.304 49.1152 57.304C49.5472 57.304 49.8752 57.232 50.0992 57.088C50.3312 56.936 50.4472 56.72 50.4472 56.44C50.4472 56.208 50.3712 56.024 50.2192 55.888C50.0672 55.752 49.8152 55.644 49.4632 55.564L48.4792 55.336C47.9832 55.224 47.6032 55.032 47.3392 54.76C47.0752 54.488 46.9432 54.152 46.9432 53.752C46.9432 53.232 47.1472 52.812 47.5552 52.492C47.9632 52.172 48.5072 52.012 49.1872 52.012C49.5952 52.012 49.9832 52.08 50.3512 52.216C50.7192 52.344 51.0272 52.532 51.2752 52.78L50.9512 53.488C50.4152 53.032 49.8272 52.804 49.1872 52.804C48.7792 52.804 48.4592 52.884 48.2272 53.044C48.0032 53.196 47.8912 53.412 47.8912 53.692C47.8912 53.924 47.9592 54.112 48.0952 54.256C48.2392 54.392 48.4672 54.496 48.7792 54.568L49.7752 54.808C50.3192 54.936 50.7232 55.132 50.9872 55.396C51.2512 55.652 51.3832 55.988 51.3832 56.404C51.3832 56.916 51.1752 57.324 50.7592 57.628C50.3512 57.932 49.7912 58.084 49.0792 58.084ZM54.8448 58.084C53.8608 58.084 53.0808 57.832 52.5048 57.328L52.8288 56.608C53.1408 56.856 53.4568 57.036 53.7768 57.148C54.1048 57.252 54.4728 57.304 54.8808 57.304C55.3128 57.304 55.6408 57.232 55.8648 57.088C56.0968 56.936 56.2128 56.72 56.2128 56.44C56.2128 56.208 56.1368 56.024 55.9848 55.888C55.8328 55.752 55.5808 55.644 55.2288 55.564L54.2448 55.336C53.7488 55.224 53.3688 55.032 53.1048 54.76C52.8408 54.488 52.7088 54.152 52.7088 53.752C52.7088 53.232 52.9128 52.812 53.3208 52.492C53.7288 52.172 54.2728 52.012 54.9528 52.012C55.3608 52.012 55.7488 52.08 56.1168 52.216C56.4848 52.344 56.7928 52.532 57.0408 52.78L56.7168 53.488C56.1808 53.032 55.5928 52.804 54.9528 52.804C54.5448 52.804 54.2248 52.884 53.9928 53.044C53.7688 53.196 53.6568 53.412 53.6568 53.692C53.6568 53.924 53.7248 54.112 53.8608 54.256C54.0048 54.392 54.2328 54.496 54.5448 54.568L55.5408 54.808C56.0848 54.936 56.4888 55.132 56.7528 55.396C57.0168 55.652 57.1488 55.988 57.1488 56.404C57.1488 56.916 56.9408 57.324 56.5248 57.628C56.1168 57.932 55.5568 58.084 54.8448 58.084ZM63.5265 55.228H59.2545C59.2865 55.908 59.4705 56.424 59.8065 56.776C60.1425 57.12 60.6185 57.292 61.2345 57.292C61.9145 57.292 62.5385 57.06 63.1065 56.596L63.4305 57.304C63.1745 57.544 62.8465 57.736 62.4465 57.88C62.0465 58.016 61.6385 58.084 61.2225 58.084C60.3105 58.084 59.5905 57.816 59.0625 57.28C58.5425 56.744 58.2825 56.004 58.2825 55.06C58.2825 54.46 58.3985 53.932 58.6305 53.476C58.8625 53.012 59.1865 52.652 59.6025 52.396C60.0265 52.14 60.5065 52.012 61.0425 52.012C61.8185 52.012 62.4265 52.268 62.8665 52.78C63.3065 53.284 63.5265 53.98 63.5265 54.868V55.228ZM61.0545 52.768C60.5425 52.768 60.1305 52.928 59.8185 53.248C59.5145 53.568 59.3345 54.02 59.2785 54.604H62.6745C62.6585 54.012 62.5105 53.56 62.2305 53.248C61.9505 52.928 61.5585 52.768 61.0545 52.768ZM70.9923 52.012C71.5043 52.012 71.9563 52.14 72.3483 52.396C72.7403 52.652 73.0443 53.012 73.2603 53.476C73.4763 53.932 73.5843 54.464 73.5843 55.072C73.5843 55.68 73.4763 56.212 73.2603 56.668C73.0443 57.116 72.7403 57.464 72.3483 57.712C71.9643 57.96 71.5123 58.084 70.9923 58.084C70.5363 58.084 70.1363 57.984 69.7923 57.784C69.4563 57.584 69.2003 57.3 69.0243 56.932V60.16H68.0523V52.156H69.0243V53.164C69.2003 52.796 69.4563 52.512 69.7923 52.312C70.1363 52.112 70.5363 52.012 70.9923 52.012ZM70.8003 57.28C71.3683 57.28 71.8083 57.088 72.1203 56.704C72.4323 56.32 72.5883 55.776 72.5883 55.072C72.5883 54.368 72.4323 53.82 72.1203 53.428C71.8083 53.028 71.3683 52.828 70.8003 52.828C70.2323 52.828 69.7923 53.02 69.4803 53.404C69.1763 53.788 69.0243 54.336 69.0243 55.048C69.0243 55.76 69.1763 56.312 69.4803 56.704C69.7923 57.088 70.2323 57.28 70.8003 57.28ZM77.4127 52.012C78.1567 52.012 78.7087 52.204 79.0687 52.588C79.4367 52.964 79.6207 53.54 79.6207 54.316V58H78.6727V57.004C78.5207 57.348 78.2887 57.616 77.9767 57.808C77.6647 57.992 77.3047 58.084 76.8967 58.084C76.5207 58.084 76.1727 58.008 75.8527 57.856C75.5407 57.704 75.2927 57.492 75.1087 57.22C74.9247 56.948 74.8327 56.648 74.8327 56.32C74.8327 55.88 74.9447 55.54 75.1687 55.3C75.3927 55.052 75.7607 54.876 76.2727 54.772C76.7847 54.66 77.4967 54.604 78.4087 54.604H78.6727V54.208C78.6727 53.72 78.5727 53.368 78.3727 53.152C78.1727 52.928 77.8487 52.816 77.4007 52.816C76.7287 52.816 76.0607 53.024 75.3967 53.44L75.0727 52.732C75.3767 52.516 75.7407 52.344 76.1647 52.216C76.5967 52.08 77.0127 52.012 77.4127 52.012ZM77.0287 57.316C77.5087 57.316 77.9007 57.156 78.2047 56.836C78.5167 56.508 78.6727 56.088 78.6727 55.576V55.228H78.4567C77.7527 55.228 77.2167 55.26 76.8487 55.324C76.4807 55.38 76.2167 55.48 76.0567 55.624C75.9047 55.76 75.8287 55.964 75.8287 56.236C75.8287 56.548 75.9407 56.808 76.1647 57.016C76.3967 57.216 76.6847 57.316 77.0287 57.316ZM84.712 52.852L84.076 52.912C83.476 52.968 83.04 53.156 82.768 53.476C82.504 53.796 82.372 54.192 82.372 54.664V58H81.4V52.156H82.348V53.176C82.676 52.496 83.32 52.116 84.28 52.036L84.628 52.012L84.712 52.852ZM87.9596 52.012C88.7036 52.012 89.2556 52.204 89.6156 52.588C89.9836 52.964 90.1676 53.54 90.1676 54.316V58H89.2196V57.004C89.0676 57.348 88.8356 57.616 88.5236 57.808C88.2116 57.992 87.8516 58.084 87.4436 58.084C87.0676 58.084 86.7196 58.008 86.3996 57.856C86.0876 57.704 85.8396 57.492 85.6556 57.22C85.4716 56.948 85.3796 56.648 85.3796 56.32C85.3796 55.88 85.4916 55.54 85.7156 55.3C85.9396 55.052 86.3076 54.876 86.8196 54.772C87.3316 54.66 88.0436 54.604 88.9556 54.604H89.2196V54.208C89.2196 53.72 89.1196 53.368 88.9196 53.152C88.7196 52.928 88.3956 52.816 87.9476 52.816C87.2756 52.816 86.6076 53.024 85.9436 53.44L85.6196 52.732C85.9236 52.516 86.2876 52.344 86.7116 52.216C87.1436 52.08 87.5596 52.012 87.9596 52.012ZM87.5756 57.316C88.0556 57.316 88.4476 57.156 88.7516 56.836C89.0636 56.508 89.2196 56.088 89.2196 55.576V55.228H89.0036C88.2996 55.228 87.7636 55.26 87.3956 55.324C87.0276 55.38 86.7636 55.48 86.6036 55.624C86.4516 55.76 86.3756 55.964 86.3756 56.236C86.3756 56.548 86.4876 56.808 86.7116 57.016C86.9436 57.216 87.2316 57.316 87.5756 57.316ZM88.3076 51.388H87.6356L88.8236 48.964H89.9396L88.3076 51.388ZM97.1789 52.156V57.604C97.1789 58.476 96.9549 59.132 96.5069 59.572C96.0589 60.02 95.3949 60.244 94.5149 60.244C93.4909 60.244 92.6309 59.98 91.9349 59.452L92.2589 58.732C92.6509 58.988 93.0189 59.172 93.3629 59.284C93.7069 59.396 94.0909 59.452 94.5149 59.452C95.0749 59.452 95.4989 59.3 95.7869 58.996C96.0749 58.7 96.2189 58.264 96.2189 57.688V56.656C96.0509 57.032 95.7909 57.32 95.4389 57.52C95.0949 57.72 94.6869 57.82 94.2149 57.82C93.7029 57.82 93.2469 57.7 92.8469 57.46C92.4549 57.22 92.1469 56.88 91.9229 56.44C91.7069 56 91.5989 55.492 91.5989 54.916C91.5989 54.34 91.7069 53.832 91.9229 53.392C92.1469 52.952 92.4549 52.612 92.8469 52.372C93.2469 52.132 93.7029 52.012 94.2149 52.012C94.6789 52.012 95.0829 52.112 95.4269 52.312C95.7709 52.512 96.0309 52.796 96.2069 53.164V52.156H97.1789ZM94.4069 57.016C94.9669 57.016 95.4069 56.832 95.7269 56.464C96.0469 56.088 96.2069 55.572 96.2069 54.916C96.2069 54.268 96.0469 53.76 95.7269 53.392C95.4149 53.016 94.9749 52.828 94.4069 52.828C93.8389 52.828 93.3909 53.016 93.0629 53.392C92.7429 53.76 92.5829 54.268 92.5829 54.916C92.5829 55.572 92.7429 56.088 93.0629 56.464C93.3909 56.832 93.8389 57.016 94.4069 57.016ZM102.29 52.852L101.654 52.912C101.054 52.968 100.618 53.156 100.346 53.476C100.082 53.796 99.9501 54.192 99.9501 54.664V58H98.9781V52.156H99.9261V53.176C100.254 52.496 100.898 52.116 101.858 52.036L102.206 52.012L102.29 52.852ZM105.538 52.012C106.282 52.012 106.834 52.204 107.194 52.588C107.562 52.964 107.746 53.54 107.746 54.316V58H106.798V57.004C106.646 57.348 106.414 57.616 106.102 57.808C105.79 57.992 105.43 58.084 105.022 58.084C104.646 58.084 104.298 58.008 103.978 57.856C103.666 57.704 103.418 57.492 103.234 57.22C103.05 56.948 102.958 56.648 102.958 56.32C102.958 55.88 103.07 55.54 103.294 55.3C103.518 55.052 103.886 54.876 104.398 54.772C104.91 54.66 105.622 54.604 106.534 54.604H106.798V54.208C106.798 53.72 106.698 53.368 106.498 53.152C106.298 52.928 105.974 52.816 105.526 52.816C104.854 52.816 104.186 53.024 103.522 53.44L103.198 52.732C103.502 52.516 103.866 52.344 104.29 52.216C104.722 52.08 105.138 52.012 105.538 52.012ZM105.154 57.316C105.634 57.316 106.026 57.156 106.33 56.836C106.642 56.508 106.798 56.088 106.798 55.576V55.228H106.582C105.878 55.228 105.342 55.26 104.974 55.324C104.606 55.38 104.342 55.48 104.182 55.624C104.03 55.76 103.954 55.964 103.954 56.236C103.954 56.548 104.066 56.808 104.29 57.016C104.522 57.216 104.81 57.316 105.154 57.316ZM110.821 52.156H112.477V52.924H110.821V58H109.849V52.924H108.709V52.156H109.849V51.964C109.849 51.188 110.041 50.6 110.425 50.2C110.817 49.8 111.417 49.576 112.225 49.528L112.705 49.504L112.777 50.26L112.225 50.296C111.737 50.328 111.381 50.468 111.157 50.716C110.933 50.956 110.821 51.328 110.821 51.832V52.156ZM115.828 58.084C115.276 58.084 114.788 57.96 114.364 57.712C113.948 57.464 113.624 57.112 113.392 56.656C113.168 56.192 113.056 55.656 113.056 55.048C113.056 54.44 113.168 53.908 113.392 53.452C113.624 52.988 113.948 52.632 114.364 52.384C114.788 52.136 115.276 52.012 115.828 52.012C116.38 52.012 116.868 52.136 117.292 52.384C117.716 52.632 118.04 52.988 118.264 53.452C118.496 53.908 118.612 54.44 118.612 55.048C118.612 55.656 118.496 56.192 118.264 56.656C118.04 57.112 117.716 57.464 117.292 57.712C116.868 57.96 116.38 58.084 115.828 58.084ZM115.828 57.28C116.404 57.28 116.844 57.092 117.148 56.716C117.46 56.332 117.616 55.776 117.616 55.048C117.616 54.336 117.46 53.788 117.148 53.404C116.836 53.012 116.396 52.816 115.828 52.816C115.26 52.816 114.82 53.012 114.508 53.404C114.196 53.788 114.04 54.336 114.04 55.048C114.04 55.768 114.192 56.32 114.496 56.704C114.808 57.088 115.252 57.28 115.828 57.28ZM126.094 52.012C126.606 52.012 127.058 52.14 127.45 52.396C127.842 52.652 128.146 53.012 128.362 53.476C128.578 53.932 128.686 54.464 128.686 55.072C128.686 55.68 128.578 56.212 128.362 56.668C128.146 57.116 127.842 57.464 127.45 57.712C127.066 57.96 126.614 58.084 126.094 58.084C125.638 58.084 125.238 57.984 124.894 57.784C124.558 57.584 124.302 57.3 124.126 56.932V60.16H123.154V52.156H124.126V53.164C124.302 52.796 124.558 52.512 124.894 52.312C125.238 52.112 125.638 52.012 126.094 52.012ZM125.902 57.28C126.47 57.28 126.91 57.088 127.222 56.704C127.534 56.32 127.69 55.776 127.69 55.072C127.69 54.368 127.534 53.82 127.222 53.428C126.91 53.028 126.47 52.828 125.902 52.828C125.334 52.828 124.894 53.02 124.582 53.404C124.278 53.788 124.126 54.336 124.126 55.048C124.126 55.76 124.278 56.312 124.582 56.704C124.894 57.088 125.334 57.28 125.902 57.28ZM132.514 52.012C133.258 52.012 133.81 52.204 134.17 52.588C134.538 52.964 134.722 53.54 134.722 54.316V58H133.774V57.004C133.622 57.348 133.39 57.616 133.078 57.808C132.766 57.992 132.406 58.084 131.998 58.084C131.622 58.084 131.274 58.008 130.954 57.856C130.642 57.704 130.394 57.492 130.21 57.22C130.026 56.948 129.934 56.648 129.934 56.32C129.934 55.88 130.046 55.54 130.27 55.3C130.494 55.052 130.862 54.876 131.374 54.772C131.886 54.66 132.598 54.604 133.51 54.604H133.774V54.208C133.774 53.72 133.674 53.368 133.474 53.152C133.274 52.928 132.95 52.816 132.502 52.816C131.83 52.816 131.162 53.024 130.498 53.44L130.174 52.732C130.478 52.516 130.842 52.344 131.266 52.216C131.698 52.08 132.114 52.012 132.514 52.012ZM132.13 57.316C132.61 57.316 133.002 57.156 133.306 56.836C133.618 56.508 133.774 56.088 133.774 55.576V55.228H133.558C132.854 55.228 132.318 55.26 131.95 55.324C131.582 55.38 131.318 55.48 131.158 55.624C131.006 55.76 130.93 55.964 130.93 56.236C130.93 56.548 131.042 56.808 131.266 57.016C131.498 57.216 131.786 57.316 132.13 57.316ZM139.814 52.852L139.178 52.912C138.578 52.968 138.142 53.156 137.87 53.476C137.606 53.796 137.474 54.192 137.474 54.664V58H136.502V52.156H137.45V53.176C137.778 52.496 138.422 52.116 139.382 52.036L139.73 52.012L139.814 52.852ZM143.061 52.012C143.805 52.012 144.357 52.204 144.717 52.588C145.085 52.964 145.269 53.54 145.269 54.316V58H144.321V57.004C144.169 57.348 143.937 57.616 143.625 57.808C143.313 57.992 142.953 58.084 142.545 58.084C142.169 58.084 141.821 58.008 141.501 57.856C141.189 57.704 140.941 57.492 140.757 57.22C140.573 56.948 140.481 56.648 140.481 56.32C140.481 55.88 140.593 55.54 140.817 55.3C141.041 55.052 141.409 54.876 141.921 54.772C142.433 54.66 143.145 54.604 144.057 54.604H144.321V54.208C144.321 53.72 144.221 53.368 144.021 53.152C143.821 52.928 143.497 52.816 143.049 52.816C142.377 52.816 141.709 53.024 141.045 53.44L140.721 52.732C141.025 52.516 141.389 52.344 141.813 52.216C142.245 52.08 142.661 52.012 143.061 52.012ZM142.677 57.316C143.157 57.316 143.549 57.156 143.853 56.836C144.165 56.508 144.321 56.088 144.321 55.576V55.228H144.105C143.401 55.228 142.865 55.26 142.497 55.324C142.129 55.38 141.865 55.48 141.705 55.624C141.553 55.76 141.477 55.964 141.477 56.236C141.477 56.548 141.589 56.808 141.813 57.016C142.045 57.216 142.333 57.316 142.677 57.316ZM155.038 55.228H150.766C150.798 55.908 150.982 56.424 151.318 56.776C151.654 57.12 152.13 57.292 152.746 57.292C153.426 57.292 154.05 57.06 154.618 56.596L154.942 57.304C154.686 57.544 154.358 57.736 153.958 57.88C153.558 58.016 153.15 58.084 152.734 58.084C151.822 58.084 151.102 57.816 150.574 57.28C150.054 56.744 149.794 56.004 149.794 55.06C149.794 54.46 149.91 53.932 150.142 53.476C150.374 53.012 150.698 52.652 151.114 52.396C151.538 52.14 152.018 52.012 152.554 52.012C153.33 52.012 153.938 52.268 154.378 52.78C154.818 53.284 155.038 53.98 155.038 54.868V55.228ZM152.566 52.768C152.054 52.768 151.642 52.928 151.33 53.248C151.026 53.568 150.846 54.02 150.79 54.604H154.186C154.17 54.012 154.022 53.56 153.742 53.248C153.462 52.928 153.07 52.768 152.566 52.768ZM158.45 58.084C157.466 58.084 156.686 57.832 156.11 57.328L156.434 56.608C156.746 56.856 157.062 57.036 157.382 57.148C157.71 57.252 158.078 57.304 158.486 57.304C158.918 57.304 159.246 57.232 159.47 57.088C159.702 56.936 159.818 56.72 159.818 56.44C159.818 56.208 159.742 56.024 159.59 55.888C159.438 55.752 159.186 55.644 158.834 55.564L157.85 55.336C157.354 55.224 156.974 55.032 156.71 54.76C156.446 54.488 156.314 54.152 156.314 53.752C156.314 53.232 156.518 52.812 156.926 52.492C157.334 52.172 157.878 52.012 158.558 52.012C158.966 52.012 159.354 52.08 159.722 52.216C160.09 52.344 160.398 52.532 160.646 52.78L160.322 53.488C159.786 53.032 159.198 52.804 158.558 52.804C158.15 52.804 157.83 52.884 157.598 53.044C157.374 53.196 157.262 53.412 157.262 53.692C157.262 53.924 157.33 54.112 157.466 54.256C157.61 54.392 157.838 54.496 158.15 54.568L159.146 54.808C159.69 54.936 160.094 55.132 160.358 55.396C160.622 55.652 160.754 55.988 160.754 56.404C160.754 56.916 160.546 57.324 160.13 57.628C159.722 57.932 159.162 58.084 158.45 58.084ZM164.708 58.084C164.132 58.084 163.632 57.96 163.208 57.712C162.784 57.464 162.456 57.116 162.224 56.668C162 56.212 161.888 55.68 161.888 55.072C161.888 54.464 162.004 53.932 162.236 53.476C162.476 53.012 162.808 52.652 163.232 52.396C163.664 52.14 164.168 52.012 164.744 52.012C165.136 52.012 165.52 52.084 165.896 52.228C166.272 52.364 166.576 52.548 166.808 52.78L166.484 53.5C165.932 53.052 165.372 52.828 164.804 52.828C164.204 52.828 163.736 53.024 163.4 53.416C163.064 53.808 162.896 54.36 162.896 55.072C162.896 55.776 163.064 56.32 163.4 56.704C163.736 57.088 164.204 57.28 164.804 57.28C165.372 57.28 165.932 57.056 166.484 56.608L166.808 57.328C166.56 57.56 166.248 57.744 165.872 57.88C165.496 58.016 165.108 58.084 164.708 58.084ZM171.29 52.852L170.654 52.912C170.054 52.968 169.618 53.156 169.346 53.476C169.082 53.796 168.95 54.192 168.95 54.664V58H167.978V52.156H168.926V53.176C169.254 52.496 169.898 52.116 170.858 52.036L171.206 52.012L171.29 52.852ZM176.987 55.228H172.715C172.747 55.908 172.931 56.424 173.267 56.776C173.603 57.12 174.079 57.292 174.695 57.292C175.375 57.292 175.999 57.06 176.567 56.596L176.891 57.304C176.635 57.544 176.307 57.736 175.907 57.88C175.507 58.016 175.099 58.084 174.683 58.084C173.771 58.084 173.051 57.816 172.523 57.28C172.003 56.744 171.743 56.004 171.743 55.06C171.743 54.46 171.859 53.932 172.091 53.476C172.323 53.012 172.647 52.652 173.063 52.396C173.487 52.14 173.967 52.012 174.503 52.012C175.279 52.012 175.887 52.268 176.327 52.78C176.767 53.284 176.987 53.98 176.987 54.868V55.228ZM174.515 52.768C174.003 52.768 173.591 52.928 173.279 53.248C172.975 53.568 172.795 54.02 172.739 54.604H176.135C176.119 54.012 175.971 53.56 175.691 53.248C175.411 52.928 175.019 52.768 174.515 52.768ZM182.537 52.168H183.509L180.989 58H180.077L177.569 52.168H178.601L180.557 56.944L182.537 52.168ZM189.339 55.228H185.067C185.099 55.908 185.283 56.424 185.619 56.776C185.955 57.12 186.431 57.292 187.047 57.292C187.727 57.292 188.351 57.06 188.919 56.596L189.243 57.304C188.987 57.544 188.659 57.736 188.259 57.88C187.859 58.016 187.451 58.084 187.035 58.084C186.123 58.084 185.403 57.816 184.875 57.28C184.355 56.744 184.095 56.004 184.095 55.06C184.095 54.46 184.211 53.932 184.443 53.476C184.675 53.012 184.999 52.652 185.415 52.396C185.839 52.14 186.319 52.012 186.855 52.012C187.631 52.012 188.239 52.268 188.679 52.78C189.119 53.284 189.339 53.98 189.339 54.868V55.228ZM186.867 52.768C186.355 52.768 185.943 52.928 185.631 53.248C185.327 53.568 185.147 54.02 185.091 54.604H188.487C188.471 54.012 188.323 53.56 188.043 53.248C187.763 52.928 187.371 52.768 186.867 52.768ZM194.083 52.852L193.447 52.912C192.847 52.968 192.411 53.156 192.139 53.476C191.875 53.796 191.743 54.192 191.743 54.664V58H190.771V52.156H191.719V53.176C192.047 52.496 192.691 52.116 193.651 52.036L193.999 52.012L194.083 52.852ZM203.015 52.156V58H202.067V57.004C201.883 57.356 201.623 57.624 201.287 57.808C200.959 57.992 200.587 58.084 200.171 58.084C199.475 58.084 198.951 57.892 198.599 57.508C198.247 57.116 198.071 56.54 198.071 55.78V52.156H199.043V55.756C199.043 56.276 199.147 56.66 199.355 56.908C199.563 57.148 199.891 57.268 200.339 57.268C200.851 57.268 201.263 57.104 201.575 56.776C201.887 56.44 202.043 56 202.043 55.456V52.156H203.015ZM211.326 52.012C212.622 52.012 213.27 52.784 213.27 54.328V58H212.298V54.376C212.298 53.84 212.202 53.448 212.01 53.2C211.826 52.952 211.526 52.828 211.11 52.828C210.622 52.828 210.238 52.992 209.958 53.32C209.678 53.648 209.538 54.096 209.538 54.664V58H208.566V54.376C208.566 53.832 208.47 53.44 208.278 53.2C208.086 52.952 207.782 52.828 207.366 52.828C206.878 52.828 206.494 52.992 206.214 53.32C205.934 53.648 205.794 54.096 205.794 54.664V58H204.822V52.156H205.782V53.08C205.958 52.736 206.202 52.472 206.514 52.288C206.826 52.104 207.186 52.012 207.594 52.012C208.498 52.012 209.094 52.396 209.382 53.164C209.55 52.804 209.806 52.524 210.15 52.324C210.494 52.116 210.886 52.012 211.326 52.012ZM218.134 58V52.156H219.106V58H218.134ZM218.038 49.624H219.214V50.716H218.038V49.624ZM223.863 52.012C225.263 52.012 225.963 52.784 225.963 54.328V58H224.991V54.388C224.991 53.844 224.883 53.448 224.667 53.2C224.459 52.952 224.123 52.828 223.659 52.828C223.123 52.828 222.695 52.992 222.375 53.32C222.055 53.648 221.895 54.092 221.895 54.652V58H220.923V52.156H221.883V53.116C222.075 52.756 222.343 52.484 222.687 52.3C223.031 52.108 223.423 52.012 223.863 52.012ZM229.04 52.156H230.696V52.924H229.04V58H228.068V52.924H226.928V52.156H228.068V51.964C228.068 51.188 228.26 50.6 228.644 50.2C229.036 49.8 229.636 49.576 230.444 49.528L230.924 49.504L230.996 50.26L230.444 50.296C229.956 50.328 229.6 50.468 229.376 50.716C229.152 50.956 229.04 51.328 229.04 51.832V52.156ZM234.047 58.084C233.495 58.084 233.007 57.96 232.583 57.712C232.167 57.464 231.843 57.112 231.611 56.656C231.387 56.192 231.275 55.656 231.275 55.048C231.275 54.44 231.387 53.908 231.611 53.452C231.843 52.988 232.167 52.632 232.583 52.384C233.007 52.136 233.495 52.012 234.047 52.012C234.599 52.012 235.087 52.136 235.511 52.384C235.935 52.632 236.259 52.988 236.483 53.452C236.715 53.908 236.831 54.44 236.831 55.048C236.831 55.656 236.715 56.192 236.483 56.656C236.259 57.112 235.935 57.464 235.511 57.712C235.087 57.96 234.599 58.084 234.047 58.084ZM234.047 57.28C234.623 57.28 235.063 57.092 235.367 56.716C235.679 56.332 235.835 55.776 235.835 55.048C235.835 54.336 235.679 53.788 235.367 53.404C235.055 53.012 234.615 52.816 234.047 52.816C233.479 52.816 233.039 53.012 232.727 53.404C232.415 53.788 232.259 54.336 232.259 55.048C232.259 55.768 232.411 56.32 232.715 56.704C233.027 57.088 233.471 57.28 234.047 57.28ZM241.591 52.852L240.955 52.912C240.355 52.968 239.919 53.156 239.647 53.476C239.383 53.796 239.251 54.192 239.251 54.664V58H238.279V52.156H239.227V53.176C239.555 52.496 240.199 52.116 241.159 52.036L241.507 52.012L241.591 52.852ZM249.013 52.012C250.309 52.012 250.957 52.784 250.957 54.328V58H249.985V54.376C249.985 53.84 249.889 53.448 249.697 53.2C249.513 52.952 249.213 52.828 248.797 52.828C248.309 52.828 247.925 52.992 247.645 53.32C247.365 53.648 247.225 54.096 247.225 54.664V58H246.253V54.376C246.253 53.832 246.157 53.44 245.965 53.2C245.773 52.952 245.469 52.828 245.053 52.828C244.565 52.828 244.181 52.992 243.901 53.32C243.621 53.648 243.481 54.096 243.481 54.664V58H242.509V52.156H243.469V53.08C243.645 52.736 243.889 52.472 244.201 52.288C244.513 52.104 244.873 52.012 245.281 52.012C246.185 52.012 246.781 52.396 247.069 53.164C247.237 52.804 247.493 52.524 247.837 52.324C248.181 52.116 248.573 52.012 249.013 52.012ZM255.104 52.012C255.848 52.012 256.4 52.204 256.76 52.588C257.128 52.964 257.312 53.54 257.312 54.316V58H256.364V57.004C256.212 57.348 255.98 57.616 255.668 57.808C255.356 57.992 254.996 58.084 254.588 58.084C254.212 58.084 253.864 58.008 253.544 57.856C253.232 57.704 252.984 57.492 252.8 57.22C252.616 56.948 252.524 56.648 252.524 56.32C252.524 55.88 252.636 55.54 252.86 55.3C253.084 55.052 253.452 54.876 253.964 54.772C254.476 54.66 255.188 54.604 256.1 54.604H256.364V54.208C256.364 53.72 256.264 53.368 256.064 53.152C255.864 52.928 255.54 52.816 255.092 52.816C254.42 52.816 253.752 53.024 253.088 53.44L252.764 52.732C253.068 52.516 253.432 52.344 253.856 52.216C254.288 52.08 254.704 52.012 255.104 52.012ZM254.72 57.316C255.2 57.316 255.592 57.156 255.896 56.836C256.208 56.508 256.364 56.088 256.364 55.576V55.228H256.148C255.444 55.228 254.908 55.26 254.54 55.324C254.172 55.38 253.908 55.48 253.748 55.624C253.596 55.76 253.52 55.964 253.52 56.236C253.52 56.548 253.632 56.808 253.856 57.016C254.088 57.216 254.376 57.316 254.72 57.316ZM261.659 57.304C261.835 57.304 262.011 57.292 262.187 57.268L262.139 58.036C261.955 58.068 261.755 58.084 261.539 58.084C260.835 58.084 260.303 57.9 259.943 57.532C259.591 57.164 259.415 56.652 259.415 55.996V52.924H258.275V52.156H259.415V50.38H260.387V52.156H262.043V52.924H260.387V55.924C260.387 56.844 260.811 57.304 261.659 57.304ZM263.17 58V52.156H264.142V58H263.17ZM263.074 49.624H264.25V50.716H263.074V49.624ZM270.147 52.168H271.119L268.599 58H267.687L265.179 52.168H266.211L268.167 56.944L270.147 52.168ZM274.476 58.084C273.924 58.084 273.436 57.96 273.012 57.712C272.596 57.464 272.272 57.112 272.04 56.656C271.816 56.192 271.704 55.656 271.704 55.048C271.704 54.44 271.816 53.908 272.04 53.452C272.272 52.988 272.596 52.632 273.012 52.384C273.436 52.136 273.924 52.012 274.476 52.012C275.028 52.012 275.516 52.136 275.94 52.384C276.364 52.632 276.688 52.988 276.912 53.452C277.144 53.908 277.26 54.44 277.26 55.048C277.26 55.656 277.144 56.192 276.912 56.656C276.688 57.112 276.364 57.464 275.94 57.712C275.516 57.96 275.028 58.084 274.476 58.084ZM274.476 57.28C275.052 57.28 275.492 57.092 275.796 56.716C276.108 56.332 276.264 55.776 276.264 55.048C276.264 54.336 276.108 53.788 275.796 53.404C275.484 53.012 275.044 52.816 274.476 52.816C273.908 52.816 273.468 53.012 273.156 53.404C272.844 53.788 272.688 54.336 272.688 55.048C272.688 55.768 272.84 56.32 273.144 56.704C273.456 57.088 273.9 57.28 274.476 57.28ZM284.226 58.084C283.674 58.084 283.186 57.96 282.762 57.712C282.346 57.464 282.022 57.112 281.79 56.656C281.566 56.192 281.454 55.656 281.454 55.048C281.454 54.44 281.566 53.908 281.79 53.452C282.022 52.988 282.346 52.632 282.762 52.384C283.186 52.136 283.674 52.012 284.226 52.012C284.778 52.012 285.266 52.136 285.69 52.384C286.114 52.632 286.438 52.988 286.662 53.452C286.894 53.908 287.01 54.44 287.01 55.048C287.01 55.656 286.894 56.192 286.662 56.656C286.438 57.112 286.114 57.464 285.69 57.712C285.266 57.96 284.778 58.084 284.226 58.084ZM284.226 57.28C284.802 57.28 285.242 57.092 285.546 56.716C285.858 56.332 286.014 55.776 286.014 55.048C286.014 54.336 285.858 53.788 285.546 53.404C285.234 53.012 284.794 52.816 284.226 52.816C283.658 52.816 283.218 53.012 282.906 53.404C282.594 53.788 282.438 54.336 282.438 55.048C282.438 55.768 282.59 56.32 282.894 56.704C283.206 57.088 283.65 57.28 284.226 57.28ZM293.379 52.156V58H292.431V57.004C292.247 57.356 291.987 57.624 291.651 57.808C291.323 57.992 290.951 58.084 290.535 58.084C289.839 58.084 289.315 57.892 288.963 57.508C288.611 57.116 288.435 56.54 288.435 55.78V52.156H289.407V55.756C289.407 56.276 289.511 56.66 289.719 56.908C289.927 57.148 290.255 57.268 290.703 57.268C291.215 57.268 291.627 57.104 291.939 56.776C292.251 56.44 292.407 56 292.407 55.456V52.156H293.379ZM303.199 52.156V58H302.251V57.004C302.067 57.356 301.807 57.624 301.471 57.808C301.143 57.992 300.771 58.084 300.355 58.084C299.659 58.084 299.135 57.892 298.783 57.508C298.431 57.116 298.255 56.54 298.255 55.78V52.156H299.227V55.756C299.227 56.276 299.331 56.66 299.539 56.908C299.747 57.148 300.075 57.268 300.523 57.268C301.035 57.268 301.447 57.104 301.759 56.776C302.071 56.44 302.227 56 302.227 55.456V52.156H303.199ZM311.509 52.012C312.805 52.012 313.453 52.784 313.453 54.328V58H312.481V54.376C312.481 53.84 312.385 53.448 312.193 53.2C312.009 52.952 311.709 52.828 311.293 52.828C310.805 52.828 310.421 52.992 310.141 53.32C309.861 53.648 309.721 54.096 309.721 54.664V58H308.749V54.376C308.749 53.832 308.653 53.44 308.461 53.2C308.269 52.952 307.965 52.828 307.549 52.828C307.061 52.828 306.677 52.992 306.397 53.32C306.117 53.648 305.977 54.096 305.977 54.664V58H305.005V52.156H305.965V53.08C306.141 52.736 306.385 52.472 306.697 52.288C307.009 52.104 307.369 52.012 307.777 52.012C308.681 52.012 309.277 52.396 309.565 53.164C309.733 52.804 309.989 52.524 310.333 52.324C310.677 52.116 311.069 52.012 311.509 52.012ZM320.886 57.304C321.062 57.304 321.238 57.292 321.414 57.268L321.366 58.036C321.182 58.068 320.982 58.084 320.766 58.084C320.062 58.084 319.53 57.9 319.17 57.532C318.818 57.164 318.642 56.652 318.642 55.996V52.924H317.502V52.156H318.642V50.38H319.614V52.156H321.27V52.924H319.614V55.924C319.614 56.844 320.038 57.304 320.886 57.304ZM327.292 55.228H323.02C323.052 55.908 323.236 56.424 323.572 56.776C323.908 57.12 324.384 57.292 325 57.292C325.68 57.292 326.304 57.06 326.872 56.596L327.196 57.304C326.94 57.544 326.612 57.736 326.212 57.88C325.812 58.016 325.404 58.084 324.988 58.084C324.076 58.084 323.356 57.816 322.828 57.28C322.308 56.744 322.048 56.004 322.048 55.06C322.048 54.46 322.164 53.932 322.396 53.476C322.628 53.012 322.952 52.652 323.368 52.396C323.792 52.14 324.272 52.012 324.808 52.012C325.584 52.012 326.192 52.268 326.632 52.78C327.072 53.284 327.292 53.98 327.292 54.868V55.228ZM324.82 52.768C324.308 52.768 323.896 52.928 323.584 53.248C323.28 53.568 323.1 54.02 323.044 54.604H326.44C326.424 54.012 326.276 53.56 325.996 53.248C325.716 52.928 325.324 52.768 324.82 52.768ZM331.426 54.988L333.85 58H332.674L330.85 55.72L329.038 58H327.85L330.274 54.988L327.994 52.156H329.17L330.85 54.28L332.53 52.156H333.718L331.426 54.988ZM337.421 57.304C337.597 57.304 337.773 57.292 337.949 57.268L337.901 58.036C337.717 58.068 337.517 58.084 337.301 58.084C336.597 58.084 336.065 57.9 335.705 57.532C335.353 57.164 335.177 56.652 335.177 55.996V52.924H334.037V52.156H335.177V50.38H336.149V52.156H337.805V52.924H336.149V55.924C336.149 56.844 336.573 57.304 337.421 57.304ZM341.355 58.084C340.803 58.084 340.315 57.96 339.891 57.712C339.475 57.464 339.151 57.112 338.919 56.656C338.695 56.192 338.583 55.656 338.583 55.048C338.583 54.44 338.695 53.908 338.919 53.452C339.151 52.988 339.475 52.632 339.891 52.384C340.315 52.136 340.803 52.012 341.355 52.012C341.907 52.012 342.395 52.136 342.819 52.384C343.243 52.632 343.567 52.988 343.791 53.452C344.023 53.908 344.139 54.44 344.139 55.048C344.139 55.656 344.023 56.192 343.791 56.656C343.567 57.112 343.243 57.464 342.819 57.712C342.395 57.96 341.907 58.084 341.355 58.084ZM341.355 57.28C341.931 57.28 342.371 57.092 342.675 56.716C342.987 56.332 343.143 55.776 343.143 55.048C343.143 54.336 342.987 53.788 342.675 53.404C342.363 53.012 341.923 52.816 341.355 52.816C340.787 52.816 340.347 53.012 340.035 53.404C339.723 53.788 339.567 54.336 339.567 55.048C339.567 55.768 339.719 56.32 340.023 56.704C340.335 57.088 340.779 57.28 341.355 57.28ZM23.404 72.012C24.7 72.012 25.348 72.784 25.348 74.328V78H24.376V74.376C24.376 73.84 24.28 73.448 24.088 73.2C23.904 72.952 23.604 72.828 23.188 72.828C22.7 72.828 22.316 72.992 22.036 73.32C21.756 73.648 21.616 74.096 21.616 74.664V78H20.644V74.376C20.644 73.832 20.548 73.44 20.356 73.2C20.164 72.952 19.86 72.828 19.444 72.828C18.956 72.828 18.572 72.992 18.292 73.32C18.012 73.648 17.872 74.096 17.872 74.664V78H16.9V72.156H17.86V73.08C18.036 72.736 18.28 72.472 18.592 72.288C18.904 72.104 19.264 72.012 19.672 72.012C20.576 72.012 21.172 72.396 21.46 73.164C21.628 72.804 21.884 72.524 22.228 72.324C22.572 72.116 22.964 72.012 23.404 72.012ZM29.4948 72.012C30.2388 72.012 30.7908 72.204 31.1508 72.588C31.5188 72.964 31.7028 73.54 31.7028 74.316V78H30.7548V77.004C30.6028 77.348 30.3708 77.616 30.0588 77.808C29.7468 77.992 29.3868 78.084 28.9788 78.084C28.6028 78.084 28.2548 78.008 27.9348 77.856C27.6228 77.704 27.3748 77.492 27.1908 77.22C27.0068 76.948 26.9148 76.648 26.9148 76.32C26.9148 75.88 27.0268 75.54 27.2508 75.3C27.4748 75.052 27.8428 74.876 28.3548 74.772C28.8668 74.66 29.5788 74.604 30.4908 74.604H30.7548V74.208C30.7548 73.72 30.6548 73.368 30.4548 73.152C30.2548 72.928 29.9308 72.816 29.4828 72.816C28.8108 72.816 28.1428 73.024 27.4788 73.44L27.1548 72.732C27.4588 72.516 27.8228 72.344 28.2468 72.216C28.6788 72.08 29.0948 72.012 29.4948 72.012ZM29.1108 77.316C29.5908 77.316 29.9828 77.156 30.2868 76.836C30.5988 76.508 30.7548 76.088 30.7548 75.576V75.228H30.5388C29.8348 75.228 29.2988 75.26 28.9308 75.324C28.5628 75.38 28.2988 75.48 28.1388 75.624C27.9868 75.76 27.9108 75.964 27.9108 76.236C27.9108 76.548 28.0228 76.808 28.2468 77.016C28.4788 77.216 28.7668 77.316 29.1108 77.316ZM33.482 78V72.156H34.454V78H33.482ZM33.386 69.624H34.562V70.716H33.386V69.624ZM38.2511 78.084C37.2671 78.084 36.4871 77.832 35.9111 77.328L36.2351 76.608C36.5471 76.856 36.8631 77.036 37.1831 77.148C37.5111 77.252 37.8791 77.304 38.2871 77.304C38.7191 77.304 39.0471 77.232 39.2711 77.088C39.5031 76.936 39.6191 76.72 39.6191 76.44C39.6191 76.208 39.5431 76.024 39.3911 75.888C39.2391 75.752 38.9871 75.644 38.6351 75.564L37.6511 75.336C37.1551 75.224 36.7751 75.032 36.5111 74.76C36.2471 74.488 36.1151 74.152 36.1151 73.752C36.1151 73.232 36.3191 72.812 36.7271 72.492C37.1351 72.172 37.6791 72.012 38.3591 72.012C38.7671 72.012 39.1551 72.08 39.5231 72.216C39.8911 72.344 40.1991 72.532 40.4471 72.78L40.1231 73.488C39.5871 73.032 38.9991 72.804 38.3591 72.804C37.9511 72.804 37.6311 72.884 37.3991 73.044C37.1751 73.196 37.0631 73.412 37.0631 73.692C37.0631 73.924 37.1311 74.112 37.2671 74.256C37.4111 74.392 37.6391 74.496 37.9511 74.568L38.9471 74.808C39.4911 74.936 39.8951 75.132 40.1591 75.396C40.4231 75.652 40.5551 75.988 40.5551 76.404C40.5551 76.916 40.3471 77.324 39.9311 77.628C39.5231 77.932 38.9631 78.084 38.2511 78.084ZM50.3145 69.54V78H49.3425V76.932C49.1665 77.3 48.9065 77.584 48.5625 77.784C48.2265 77.984 47.8305 78.084 47.3745 78.084C46.8625 78.084 46.4105 77.956 46.0185 77.7C45.6265 77.444 45.3225 77.088 45.1065 76.632C44.8905 76.168 44.7825 75.632 44.7825 75.024C44.7825 74.424 44.8905 73.896 45.1065 73.44C45.3225 72.984 45.6265 72.632 46.0185 72.384C46.4105 72.136 46.8625 72.012 47.3745 72.012C47.8305 72.012 48.2265 72.112 48.5625 72.312C48.9065 72.512 49.1665 72.796 49.3425 73.164V69.54H50.3145ZM47.5665 77.28C48.1345 77.28 48.5705 77.088 48.8745 76.704C49.1865 76.312 49.3425 75.76 49.3425 75.048C49.3425 74.336 49.1865 73.788 48.8745 73.404C48.5705 73.02 48.1345 72.828 47.5665 72.828C46.9985 72.828 46.5545 73.02 46.2345 73.404C45.9225 73.788 45.7665 74.328 45.7665 75.024C45.7665 75.736 45.9225 76.292 46.2345 76.692C46.5545 77.084 46.9985 77.28 47.5665 77.28ZM57.0108 75.228H52.7388C52.7708 75.908 52.9548 76.424 53.2908 76.776C53.6268 77.12 54.1028 77.292 54.7188 77.292C55.3988 77.292 56.0228 77.06 56.5908 76.596L56.9148 77.304C56.6588 77.544 56.3308 77.736 55.9308 77.88C55.5308 78.016 55.1228 78.084 54.7068 78.084C53.7948 78.084 53.0748 77.816 52.5468 77.28C52.0268 76.744 51.7668 76.004 51.7668 75.06C51.7668 74.46 51.8828 73.932 52.1148 73.476C52.3468 73.012 52.6708 72.652 53.0868 72.396C53.5108 72.14 53.9908 72.012 54.5268 72.012C55.3028 72.012 55.9108 72.268 56.3508 72.78C56.7908 73.284 57.0108 73.98 57.0108 74.868V75.228ZM54.5388 72.768C54.0268 72.768 53.6148 72.928 53.3028 73.248C52.9988 73.568 52.8188 74.02 52.7628 74.604H56.1588C56.1428 74.012 55.9948 73.56 55.7148 73.248C55.4348 72.928 55.0428 72.768 54.5388 72.768ZM60.9758 77.304C61.1518 77.304 61.3278 77.292 61.5038 77.268L61.4558 78.036C61.2718 78.068 61.0718 78.084 60.8558 78.084C60.1518 78.084 59.6198 77.9 59.2598 77.532C58.9078 77.164 58.7318 76.652 58.7318 75.996V72.924H57.5918V72.156H58.7318V70.38H59.7038V72.156H61.3598V72.924H59.7038V75.924C59.7038 76.844 60.1278 77.304 60.9758 77.304ZM64.8619 72.012C65.6059 72.012 66.1579 72.204 66.5179 72.588C66.8859 72.964 67.0699 73.54 67.0699 74.316V78H66.1219V77.004C65.9699 77.348 65.7379 77.616 65.4259 77.808C65.1139 77.992 64.7539 78.084 64.3459 78.084C63.9699 78.084 63.6219 78.008 63.3019 77.856C62.9899 77.704 62.7419 77.492 62.5579 77.22C62.3739 76.948 62.2819 76.648 62.2819 76.32C62.2819 75.88 62.3939 75.54 62.6179 75.3C62.8419 75.052 63.2099 74.876 63.7219 74.772C64.2339 74.66 64.9459 74.604 65.8579 74.604H66.1219V74.208C66.1219 73.72 66.0219 73.368 65.8219 73.152C65.6219 72.928 65.2979 72.816 64.8499 72.816C64.1779 72.816 63.5099 73.024 62.8459 73.44L62.5219 72.732C62.8259 72.516 63.1899 72.344 63.6139 72.216C64.0459 72.08 64.4619 72.012 64.8619 72.012ZM64.4779 77.316C64.9579 77.316 65.3499 77.156 65.6539 76.836C65.9659 76.508 66.1219 76.088 66.1219 75.576V75.228H65.9059C65.2019 75.228 64.6659 75.26 64.2979 75.324C63.9299 75.38 63.6659 75.48 63.5059 75.624C63.3539 75.76 63.2779 75.964 63.2779 76.236C63.2779 76.548 63.3899 76.808 63.6139 77.016C63.8459 77.216 64.1339 77.316 64.4779 77.316ZM68.8492 78V69.54H69.8212V78H68.8492ZM74.5783 72.012C75.9783 72.012 76.6783 72.784 76.6783 74.328V78H75.7063V74.388C75.7063 73.844 75.5983 73.448 75.3823 73.2C75.1743 72.952 74.8383 72.828 74.3743 72.828C73.8383 72.828 73.4103 72.992 73.0903 73.32C72.7703 73.648 72.6103 74.092 72.6103 74.652V78H71.6383V69.54H72.6103V73.092C72.8023 72.74 73.0663 72.472 73.4023 72.288C73.7463 72.104 74.1383 72.012 74.5783 72.012ZM80.8346 72.012C81.5786 72.012 82.1306 72.204 82.4906 72.588C82.8586 72.964 83.0426 73.54 83.0426 74.316V78H82.0946V77.004C81.9426 77.348 81.7106 77.616 81.3986 77.808C81.0866 77.992 80.7266 78.084 80.3186 78.084C79.9426 78.084 79.5946 78.008 79.2746 77.856C78.9626 77.704 78.7146 77.492 78.5306 77.22C78.3466 76.948 78.2546 76.648 78.2546 76.32C78.2546 75.88 78.3666 75.54 78.5906 75.3C78.8146 75.052 79.1826 74.876 79.6946 74.772C80.2066 74.66 80.9186 74.604 81.8306 74.604H82.0946V74.208C82.0946 73.72 81.9946 73.368 81.7946 73.152C81.5946 72.928 81.2706 72.816 80.8226 72.816C80.1506 72.816 79.4826 73.024 78.8186 73.44L78.4946 72.732C78.7986 72.516 79.1626 72.344 79.5866 72.216C80.0186 72.08 80.4346 72.012 80.8346 72.012ZM80.4506 77.316C80.9306 77.316 81.3226 77.156 81.6266 76.836C81.9386 76.508 82.0946 76.088 82.0946 75.576V75.228H81.8786C81.1746 75.228 80.6386 75.26 80.2706 75.324C79.9026 75.38 79.6386 75.48 79.4786 75.624C79.3266 75.76 79.2506 75.964 79.2506 76.236C79.2506 76.548 79.3626 76.808 79.5866 77.016C79.8186 77.216 80.1066 77.316 80.4506 77.316ZM90.0059 69.54V78H89.0339V76.932C88.8579 77.3 88.5979 77.584 88.2539 77.784C87.9179 77.984 87.5219 78.084 87.0659 78.084C86.5539 78.084 86.1019 77.956 85.7099 77.7C85.3179 77.444 85.0139 77.088 84.7979 76.632C84.5819 76.168 84.4739 75.632 84.4739 75.024C84.4739 74.424 84.5819 73.896 84.7979 73.44C85.0139 72.984 85.3179 72.632 85.7099 72.384C86.1019 72.136 86.5539 72.012 87.0659 72.012C87.5219 72.012 87.9179 72.112 88.2539 72.312C88.5979 72.512 88.8579 72.796 89.0339 73.164V69.54H90.0059ZM87.2579 77.28C87.8259 77.28 88.2619 77.088 88.5659 76.704C88.8779 76.312 89.0339 75.76 89.0339 75.048C89.0339 74.336 88.8779 73.788 88.5659 73.404C88.2619 73.02 87.8259 72.828 87.2579 72.828C86.6899 72.828 86.2459 73.02 85.9259 73.404C85.6139 73.788 85.4579 74.328 85.4579 75.024C85.4579 75.736 85.6139 76.292 85.9259 76.692C86.2459 77.084 86.6899 77.28 87.2579 77.28ZM94.2303 78.084C93.6783 78.084 93.1903 77.96 92.7663 77.712C92.3503 77.464 92.0263 77.112 91.7943 76.656C91.5703 76.192 91.4583 75.656 91.4583 75.048C91.4583 74.44 91.5703 73.908 91.7943 73.452C92.0263 72.988 92.3503 72.632 92.7663 72.384C93.1903 72.136 93.6783 72.012 94.2303 72.012C94.7823 72.012 95.2703 72.136 95.6943 72.384C96.1183 72.632 96.4423 72.988 96.6663 73.452C96.8983 73.908 97.0143 74.44 97.0143 75.048C97.0143 75.656 96.8983 76.192 96.6663 76.656C96.4423 77.112 96.1183 77.464 95.6943 77.712C95.2703 77.96 94.7823 78.084 94.2303 78.084ZM94.2303 77.28C94.8063 77.28 95.2463 77.092 95.5503 76.716C95.8623 76.332 96.0183 75.776 96.0183 75.048C96.0183 74.336 95.8623 73.788 95.5503 73.404C95.2383 73.012 94.7983 72.816 94.2303 72.816C93.6623 72.816 93.2223 73.012 92.9103 73.404C92.5983 73.788 92.4423 74.336 92.4423 75.048C92.4423 75.768 92.5943 76.32 92.8983 76.704C93.2103 77.088 93.6543 77.28 94.2303 77.28ZM103.536 78.084C102.552 78.084 101.772 77.832 101.196 77.328L101.52 76.608C101.832 76.856 102.148 77.036 102.468 77.148C102.796 77.252 103.164 77.304 103.572 77.304C104.004 77.304 104.332 77.232 104.556 77.088C104.788 76.936 104.904 76.72 104.904 76.44C104.904 76.208 104.828 76.024 104.676 75.888C104.524 75.752 104.272 75.644 103.92 75.564L102.936 75.336C102.44 75.224 102.06 75.032 101.796 74.76C101.532 74.488 101.4 74.152 101.4 73.752C101.4 73.232 101.604 72.812 102.012 72.492C102.42 72.172 102.964 72.012 103.644 72.012C104.052 72.012 104.44 72.08 104.808 72.216C105.176 72.344 105.484 72.532 105.732 72.78L105.408 73.488C104.872 73.032 104.284 72.804 103.644 72.804C103.236 72.804 102.916 72.884 102.684 73.044C102.46 73.196 102.348 73.412 102.348 73.692C102.348 73.924 102.416 74.112 102.552 74.256C102.696 74.392 102.924 74.496 103.236 74.568L104.232 74.808C104.776 74.936 105.18 75.132 105.444 75.396C105.708 75.652 105.84 75.988 105.84 76.404C105.84 76.916 105.632 77.324 105.216 77.628C104.808 77.932 104.248 78.084 103.536 78.084ZM109.746 78.084C109.194 78.084 108.706 77.96 108.282 77.712C107.866 77.464 107.542 77.112 107.31 76.656C107.086 76.192 106.974 75.656 106.974 75.048C106.974 74.44 107.086 73.908 107.31 73.452C107.542 72.988 107.866 72.632 108.282 72.384C108.706 72.136 109.194 72.012 109.746 72.012C110.298 72.012 110.786 72.136 111.21 72.384C111.634 72.632 111.958 72.988 112.182 73.452C112.414 73.908 112.53 74.44 112.53 75.048C112.53 75.656 112.414 76.192 112.182 76.656C111.958 77.112 111.634 77.464 111.21 77.712C110.786 77.96 110.298 78.084 109.746 78.084ZM109.746 77.28C110.322 77.28 110.762 77.092 111.066 76.716C111.378 76.332 111.534 75.776 111.534 75.048C111.534 74.336 111.378 73.788 111.066 73.404C110.754 73.012 110.314 72.816 109.746 72.816C109.178 72.816 108.738 73.012 108.426 73.404C108.114 73.788 107.958 74.336 107.958 75.048C107.958 75.768 108.11 76.32 108.414 76.704C108.726 77.088 109.17 77.28 109.746 77.28ZM116.918 72.012C117.43 72.012 117.882 72.136 118.274 72.384C118.666 72.632 118.97 72.984 119.186 73.44C119.402 73.896 119.51 74.424 119.51 75.024C119.51 75.632 119.402 76.168 119.186 76.632C118.97 77.088 118.666 77.444 118.274 77.7C117.882 77.956 117.43 78.084 116.918 78.084C116.462 78.084 116.062 77.984 115.718 77.784C115.382 77.584 115.126 77.3 114.95 76.932V78H113.978V69.54H114.95V73.164C115.126 72.796 115.382 72.512 115.718 72.312C116.062 72.112 116.462 72.012 116.918 72.012ZM116.726 77.28C117.294 77.28 117.734 77.084 118.046 76.692C118.358 76.292 118.514 75.736 118.514 75.024C118.514 74.328 118.358 73.788 118.046 73.404C117.734 73.02 117.294 72.828 116.726 72.828C116.158 72.828 115.718 73.02 115.406 73.404C115.102 73.788 114.95 74.336 114.95 75.048C114.95 75.76 115.102 76.312 115.406 76.704C115.718 77.088 116.158 77.28 116.726 77.28ZM124.275 72.852L123.639 72.912C123.039 72.968 122.603 73.156 122.331 73.476C122.067 73.796 121.935 74.192 121.935 74.664V78H120.963V72.156H121.911V73.176C122.239 72.496 122.883 72.116 123.843 72.036L124.191 72.012L124.275 72.852ZM129.972 75.228H125.7C125.732 75.908 125.916 76.424 126.252 76.776C126.588 77.12 127.064 77.292 127.68 77.292C128.36 77.292 128.984 77.06 129.552 76.596L129.876 77.304C129.62 77.544 129.292 77.736 128.892 77.88C128.492 78.016 128.084 78.084 127.668 78.084C126.756 78.084 126.036 77.816 125.508 77.28C124.988 76.744 124.728 76.004 124.728 75.06C124.728 74.46 124.844 73.932 125.076 73.476C125.308 73.012 125.632 72.652 126.048 72.396C126.472 72.14 126.952 72.012 127.488 72.012C128.264 72.012 128.872 72.268 129.312 72.78C129.752 73.284 129.972 73.98 129.972 74.868V75.228ZM127.5 72.768C126.988 72.768 126.576 72.928 126.264 73.248C125.96 73.568 125.78 74.02 125.724 74.604H129.12C129.104 74.012 128.956 73.56 128.676 73.248C128.396 72.928 128.004 72.768 127.5 72.768ZM136.478 78.084C135.494 78.084 134.714 77.832 134.138 77.328L134.462 76.608C134.774 76.856 135.09 77.036 135.41 77.148C135.738 77.252 136.106 77.304 136.514 77.304C136.946 77.304 137.274 77.232 137.498 77.088C137.73 76.936 137.846 76.72 137.846 76.44C137.846 76.208 137.77 76.024 137.618 75.888C137.466 75.752 137.214 75.644 136.862 75.564L135.878 75.336C135.382 75.224 135.002 75.032 134.738 74.76C134.474 74.488 134.342 74.152 134.342 73.752C134.342 73.232 134.546 72.812 134.954 72.492C135.362 72.172 135.906 72.012 136.586 72.012C136.994 72.012 137.382 72.08 137.75 72.216C138.118 72.344 138.426 72.532 138.674 72.78L138.35 73.488C137.814 73.032 137.226 72.804 136.586 72.804C136.178 72.804 135.858 72.884 135.626 73.044C135.402 73.196 135.29 73.412 135.29 73.692C135.29 73.924 135.358 74.112 135.494 74.256C135.638 74.392 135.866 74.496 136.178 74.568L137.174 74.808C137.718 74.936 138.122 75.132 138.386 75.396C138.65 75.652 138.782 75.988 138.782 76.404C138.782 76.916 138.574 77.324 138.158 77.628C137.75 77.932 137.19 78.084 136.478 78.084ZM145.183 72.156V78H144.235V77.004C144.051 77.356 143.791 77.624 143.455 77.808C143.127 77.992 142.755 78.084 142.339 78.084C141.643 78.084 141.119 77.892 140.767 77.508C140.415 77.116 140.239 76.54 140.239 75.78V72.156H141.211V75.756C141.211 76.276 141.315 76.66 141.523 76.908C141.731 77.148 142.059 77.268 142.507 77.268C143.019 77.268 143.431 77.104 143.743 76.776C144.055 76.44 144.211 76 144.211 75.456V72.156H145.183ZM149.366 72.012C150.11 72.012 150.662 72.204 151.022 72.588C151.39 72.964 151.574 73.54 151.574 74.316V78H150.626V77.004C150.474 77.348 150.242 77.616 149.93 77.808C149.618 77.992 149.258 78.084 148.85 78.084C148.474 78.084 148.126 78.008 147.806 77.856C147.494 77.704 147.246 77.492 147.062 77.22C146.878 76.948 146.786 76.648 146.786 76.32C146.786 75.88 146.898 75.54 147.122 75.3C147.346 75.052 147.714 74.876 148.226 74.772C148.738 74.66 149.45 74.604 150.362 74.604H150.626V74.208C150.626 73.72 150.526 73.368 150.326 73.152C150.126 72.928 149.802 72.816 149.354 72.816C148.682 72.816 148.014 73.024 147.35 73.44L147.026 72.732C147.33 72.516 147.694 72.344 148.118 72.216C148.55 72.08 148.966 72.012 149.366 72.012ZM148.982 77.316C149.462 77.316 149.854 77.156 150.158 76.836C150.47 76.508 150.626 76.088 150.626 75.576V75.228H150.41C149.706 75.228 149.17 75.26 148.802 75.324C148.434 75.38 148.17 75.48 148.01 75.624C147.858 75.76 147.782 75.964 147.782 76.236C147.782 76.548 147.894 76.808 148.118 77.016C148.35 77.216 148.638 77.316 148.982 77.316ZM156.447 78V69.54H157.419V78H156.447ZM161.66 78.084C161.108 78.084 160.62 77.96 160.196 77.712C159.78 77.464 159.456 77.112 159.224 76.656C159 76.192 158.888 75.656 158.888 75.048C158.888 74.44 159 73.908 159.224 73.452C159.456 72.988 159.78 72.632 160.196 72.384C160.62 72.136 161.108 72.012 161.66 72.012C162.212 72.012 162.7 72.136 163.124 72.384C163.548 72.632 163.872 72.988 164.096 73.452C164.328 73.908 164.444 74.44 164.444 75.048C164.444 75.656 164.328 76.192 164.096 76.656C163.872 77.112 163.548 77.464 163.124 77.712C162.7 77.96 162.212 78.084 161.66 78.084ZM161.66 77.28C162.236 77.28 162.676 77.092 162.98 76.716C163.292 76.332 163.448 75.776 163.448 75.048C163.448 74.336 163.292 73.788 162.98 73.404C162.668 73.012 162.228 72.816 161.66 72.816C161.092 72.816 160.652 73.012 160.34 73.404C160.028 73.788 159.872 74.336 159.872 75.048C159.872 75.768 160.024 76.32 160.328 76.704C160.64 77.088 161.084 77.28 161.66 77.28ZM166.864 77.94C166.864 78.66 166.688 79.2 166.336 79.56C165.984 79.92 165.44 80.124 164.704 80.172L164.164 80.208L164.092 79.452L164.632 79.416C165.472 79.36 165.892 78.912 165.892 78.072V72.156H166.864V77.94ZM165.796 69.624H166.972V70.716H165.796V69.624ZM171.057 72.012C171.801 72.012 172.353 72.204 172.713 72.588C173.081 72.964 173.265 73.54 173.265 74.316V78H172.317V77.004C172.165 77.348 171.933 77.616 171.621 77.808C171.309 77.992 170.949 78.084 170.541 78.084C170.165 78.084 169.817 78.008 169.497 77.856C169.185 77.704 168.937 77.492 168.753 77.22C168.569 76.948 168.477 76.648 168.477 76.32C168.477 75.88 168.589 75.54 168.813 75.3C169.037 75.052 169.405 74.876 169.917 74.772C170.429 74.66 171.141 74.604 172.053 74.604H172.317V74.208C172.317 73.72 172.217 73.368 172.017 73.152C171.817 72.928 171.493 72.816 171.045 72.816C170.373 72.816 169.705 73.024 169.041 73.44L168.717 72.732C169.021 72.516 169.385 72.344 169.809 72.216C170.241 72.08 170.657 72.012 171.057 72.012ZM170.673 77.316C171.153 77.316 171.545 77.156 171.849 76.836C172.161 76.508 172.317 76.088 172.317 75.576V75.228H172.101C171.397 75.228 170.861 75.26 170.493 75.324C170.125 75.38 169.861 75.48 169.701 75.624C169.549 75.76 169.473 75.964 169.473 76.236C169.473 76.548 169.585 76.808 169.809 77.016C170.041 77.216 170.329 77.316 170.673 77.316ZM176.125 76.776V77.64C176.125 77.976 176.069 78.28 175.957 78.552C175.853 78.832 175.669 79.104 175.405 79.368L174.949 79.02C175.261 78.676 175.437 78.336 175.477 78H174.901V76.776H176.125ZM183.82 72.012C184.332 72.012 184.784 72.14 185.176 72.396C185.568 72.652 185.872 73.012 186.088 73.476C186.304 73.932 186.412 74.464 186.412 75.072C186.412 75.68 186.304 76.212 186.088 76.668C185.872 77.116 185.568 77.464 185.176 77.712C184.792 77.96 184.34 78.084 183.82 78.084C183.364 78.084 182.964 77.984 182.62 77.784C182.284 77.584 182.028 77.3 181.852 76.932V80.16H180.88V72.156H181.852V73.164C182.028 72.796 182.284 72.512 182.62 72.312C182.964 72.112 183.364 72.012 183.82 72.012ZM183.628 77.28C184.196 77.28 184.636 77.088 184.948 76.704C185.26 76.32 185.416 75.776 185.416 75.072C185.416 74.368 185.26 73.82 184.948 73.428C184.636 73.028 184.196 72.828 183.628 72.828C183.06 72.828 182.62 73.02 182.308 73.404C182.004 73.788 181.852 74.336 181.852 75.048C181.852 75.76 182.004 76.312 182.308 76.704C182.62 77.088 183.06 77.28 183.628 77.28ZM191.177 72.852L190.541 72.912C189.941 72.968 189.505 73.156 189.233 73.476C188.969 73.796 188.837 74.192 188.837 74.664V78H187.865V72.156H188.813V73.176C189.141 72.496 189.785 72.116 190.745 72.036L191.093 72.012L191.177 72.852ZM194.402 78.084C193.85 78.084 193.362 77.96 192.938 77.712C192.522 77.464 192.198 77.112 191.966 76.656C191.742 76.192 191.63 75.656 191.63 75.048C191.63 74.44 191.742 73.908 191.966 73.452C192.198 72.988 192.522 72.632 192.938 72.384C193.362 72.136 193.85 72.012 194.402 72.012C194.954 72.012 195.442 72.136 195.866 72.384C196.29 72.632 196.614 72.988 196.838 73.452C197.07 73.908 197.186 74.44 197.186 75.048C197.186 75.656 197.07 76.192 196.838 76.656C196.614 77.112 196.29 77.464 195.866 77.712C195.442 77.96 194.954 78.084 194.402 78.084ZM194.402 77.28C194.978 77.28 195.418 77.092 195.722 76.716C196.034 76.332 196.19 75.776 196.19 75.048C196.19 74.336 196.034 73.788 195.722 73.404C195.41 73.012 194.97 72.816 194.402 72.816C193.834 72.816 193.394 73.012 193.082 73.404C192.77 73.788 192.614 74.336 192.614 75.048C192.614 75.768 192.766 76.32 193.07 76.704C193.382 77.088 193.826 77.28 194.402 77.28ZM203.818 69.54V78H202.846V76.932C202.67 77.3 202.41 77.584 202.066 77.784C201.73 77.984 201.334 78.084 200.878 78.084C200.366 78.084 199.914 77.956 199.522 77.7C199.13 77.444 198.826 77.088 198.61 76.632C198.394 76.168 198.286 75.632 198.286 75.024C198.286 74.424 198.394 73.896 198.61 73.44C198.826 72.984 199.13 72.632 199.522 72.384C199.914 72.136 200.366 72.012 200.878 72.012C201.334 72.012 201.73 72.112 202.066 72.312C202.41 72.512 202.67 72.796 202.846 73.164V69.54H203.818ZM201.07 77.28C201.638 77.28 202.074 77.088 202.378 76.704C202.69 76.312 202.846 75.76 202.846 75.048C202.846 74.336 202.69 73.788 202.378 73.404C202.074 73.02 201.638 72.828 201.07 72.828C200.502 72.828 200.058 73.02 199.738 73.404C199.426 73.788 199.27 74.328 199.27 75.024C199.27 75.736 199.426 76.292 199.738 76.692C200.058 77.084 200.502 77.28 201.07 77.28ZM210.539 72.156V78H209.591V77.004C209.407 77.356 209.147 77.624 208.811 77.808C208.483 77.992 208.111 78.084 207.695 78.084C206.999 78.084 206.475 77.892 206.123 77.508C205.771 77.116 205.595 76.54 205.595 75.78V72.156H206.567V75.756C206.567 76.276 206.671 76.66 206.879 76.908C207.087 77.148 207.415 77.268 207.863 77.268C208.375 77.268 208.787 77.104 209.099 76.776C209.411 76.44 209.567 76 209.567 75.456V72.156H210.539ZM214.913 77.304C215.089 77.304 215.265 77.292 215.441 77.268L215.393 78.036C215.209 78.068 215.009 78.084 214.793 78.084C214.089 78.084 213.557 77.9 213.197 77.532C212.845 77.164 212.669 76.652 212.669 75.996V72.924H211.529V72.156H212.669V70.38H213.641V72.156H215.297V72.924H213.641V75.924C213.641 76.844 214.065 77.304 214.913 77.304ZM218.847 78.084C218.295 78.084 217.807 77.96 217.383 77.712C216.967 77.464 216.643 77.112 216.411 76.656C216.187 76.192 216.075 75.656 216.075 75.048C216.075 74.44 216.187 73.908 216.411 73.452C216.643 72.988 216.967 72.632 217.383 72.384C217.807 72.136 218.295 72.012 218.847 72.012C219.399 72.012 219.887 72.136 220.311 72.384C220.735 72.632 221.059 72.988 221.283 73.452C221.515 73.908 221.631 74.44 221.631 75.048C221.631 75.656 221.515 76.192 221.283 76.656C221.059 77.112 220.735 77.464 220.311 77.712C219.887 77.96 219.399 78.084 218.847 78.084ZM218.847 77.28C219.423 77.28 219.863 77.092 220.167 76.716C220.479 76.332 220.635 75.776 220.635 75.048C220.635 74.336 220.479 73.788 220.167 73.404C219.855 73.012 219.415 72.816 218.847 72.816C218.279 72.816 217.839 73.012 217.527 73.404C217.215 73.788 217.059 74.336 217.059 75.048C217.059 75.768 217.211 76.32 217.515 76.704C217.827 77.088 218.271 77.28 218.847 77.28ZM228.597 78.084C228.045 78.084 227.557 77.96 227.133 77.712C226.717 77.464 226.393 77.112 226.161 76.656C225.937 76.192 225.825 75.656 225.825 75.048C225.825 74.44 225.937 73.908 226.161 73.452C226.393 72.988 226.717 72.632 227.133 72.384C227.557 72.136 228.045 72.012 228.597 72.012C229.149 72.012 229.637 72.136 230.061 72.384C230.485 72.632 230.809 72.988 231.033 73.452C231.265 73.908 231.381 74.44 231.381 75.048C231.381 75.656 231.265 76.192 231.033 76.656C230.809 77.112 230.485 77.464 230.061 77.712C229.637 77.96 229.149 78.084 228.597 78.084ZM228.597 77.28C229.173 77.28 229.613 77.092 229.917 76.716C230.229 76.332 230.385 75.776 230.385 75.048C230.385 74.336 230.229 73.788 229.917 73.404C229.605 73.012 229.165 72.816 228.597 72.816C228.029 72.816 227.589 73.012 227.277 73.404C226.965 73.788 226.809 74.336 226.809 75.048C226.809 75.768 226.961 76.32 227.265 76.704C227.577 77.088 228.021 77.28 228.597 77.28ZM237.75 72.156V78H236.802V77.004C236.618 77.356 236.358 77.624 236.022 77.808C235.694 77.992 235.322 78.084 234.906 78.084C234.21 78.084 233.686 77.892 233.334 77.508C232.982 77.116 232.806 76.54 232.806 75.78V72.156H233.778V75.756C233.778 76.276 233.882 76.66 234.09 76.908C234.298 77.148 234.626 77.268 235.074 77.268C235.586 77.268 235.998 77.104 236.31 76.776C236.622 76.44 236.778 76 236.778 75.456V72.156H237.75ZM245.122 78.084C244.546 78.084 244.046 77.96 243.622 77.712C243.198 77.464 242.87 77.116 242.638 76.668C242.414 76.212 242.302 75.68 242.302 75.072C242.302 74.464 242.418 73.932 242.65 73.476C242.89 73.012 243.222 72.652 243.646 72.396C244.078 72.14 244.582 72.012 245.158 72.012C245.55 72.012 245.934 72.084 246.31 72.228C246.686 72.364 246.99 72.548 247.222 72.78L246.898 73.5C246.346 73.052 245.786 72.828 245.218 72.828C244.618 72.828 244.15 73.024 243.814 73.416C243.478 73.808 243.31 74.36 243.31 75.072C243.31 75.776 243.478 76.32 243.814 76.704C244.15 77.088 244.618 77.28 245.218 77.28C245.786 77.28 246.346 77.056 246.898 76.608L247.222 77.328C246.974 77.56 246.662 77.744 246.286 77.88C245.91 78.016 245.522 78.084 245.122 78.084ZM250.816 78.084C250.264 78.084 249.776 77.96 249.352 77.712C248.936 77.464 248.612 77.112 248.38 76.656C248.156 76.192 248.044 75.656 248.044 75.048C248.044 74.44 248.156 73.908 248.38 73.452C248.612 72.988 248.936 72.632 249.352 72.384C249.776 72.136 250.264 72.012 250.816 72.012C251.368 72.012 251.856 72.136 252.28 72.384C252.704 72.632 253.028 72.988 253.252 73.452C253.484 73.908 253.6 74.44 253.6 75.048C253.6 75.656 253.484 76.192 253.252 76.656C253.028 77.112 252.704 77.464 252.28 77.712C251.856 77.96 251.368 78.084 250.816 78.084ZM250.816 77.28C251.392 77.28 251.832 77.092 252.136 76.716C252.448 76.332 252.604 75.776 252.604 75.048C252.604 74.336 252.448 73.788 252.136 73.404C251.824 73.012 251.384 72.816 250.816 72.816C250.248 72.816 249.808 73.012 249.496 73.404C249.184 73.788 249.028 74.336 249.028 75.048C249.028 75.768 249.18 76.32 249.484 76.704C249.796 77.088 250.24 77.28 250.816 77.28ZM257.988 72.012C259.388 72.012 260.088 72.784 260.088 74.328V78H259.116V74.388C259.116 73.844 259.008 73.448 258.792 73.2C258.584 72.952 258.248 72.828 257.784 72.828C257.248 72.828 256.82 72.992 256.5 73.32C256.18 73.648 256.02 74.092 256.02 74.652V78H255.048V72.156H256.008V73.116C256.2 72.756 256.468 72.484 256.812 72.3C257.156 72.108 257.548 72.012 257.988 72.012ZM264.437 77.304C264.613 77.304 264.789 77.292 264.965 77.268L264.917 78.036C264.733 78.068 264.533 78.084 264.317 78.084C263.613 78.084 263.081 77.9 262.721 77.532C262.369 77.164 262.193 76.652 262.193 75.996V72.924H261.053V72.156H262.193V70.38H263.165V72.156H264.821V72.924H263.165V75.924C263.165 76.844 263.589 77.304 264.437 77.304ZM268.323 72.012C269.067 72.012 269.619 72.204 269.979 72.588C270.347 72.964 270.531 73.54 270.531 74.316V78H269.583V77.004C269.431 77.348 269.199 77.616 268.887 77.808C268.575 77.992 268.215 78.084 267.807 78.084C267.431 78.084 267.083 78.008 266.763 77.856C266.451 77.704 266.203 77.492 266.019 77.22C265.835 76.948 265.743 76.648 265.743 76.32C265.743 75.88 265.855 75.54 266.079 75.3C266.303 75.052 266.671 74.876 267.183 74.772C267.695 74.66 268.407 74.604 269.319 74.604H269.583V74.208C269.583 73.72 269.483 73.368 269.283 73.152C269.083 72.928 268.759 72.816 268.311 72.816C267.639 72.816 266.971 73.024 266.307 73.44L265.983 72.732C266.287 72.516 266.651 72.344 267.075 72.216C267.507 72.08 267.923 72.012 268.323 72.012ZM267.939 77.316C268.419 77.316 268.811 77.156 269.115 76.836C269.427 76.508 269.583 76.088 269.583 75.576V75.228H269.367C268.663 75.228 268.127 75.26 267.759 75.324C267.391 75.38 267.127 75.48 266.967 75.624C266.815 75.76 266.739 75.964 266.739 76.236C266.739 76.548 266.851 76.808 267.075 77.016C267.307 77.216 267.595 77.316 267.939 77.316ZM275.622 72.852L274.986 72.912C274.386 72.968 273.95 73.156 273.678 73.476C273.414 73.796 273.282 74.192 273.282 74.664V78H272.31V72.156H273.258V73.176C273.586 72.496 274.23 72.116 275.19 72.036L275.538 72.012L275.622 72.852ZM282.01 72.012C282.754 72.012 283.306 72.204 283.666 72.588C284.034 72.964 284.218 73.54 284.218 74.316V78H283.27V77.004C283.118 77.348 282.886 77.616 282.574 77.808C282.262 77.992 281.902 78.084 281.494 78.084C281.118 78.084 280.77 78.008 280.45 77.856C280.138 77.704 279.89 77.492 279.706 77.22C279.522 76.948 279.43 76.648 279.43 76.32C279.43 75.88 279.542 75.54 279.766 75.3C279.99 75.052 280.358 74.876 280.87 74.772C281.382 74.66 282.094 74.604 283.006 74.604H283.27V74.208C283.27 73.72 283.17 73.368 282.97 73.152C282.77 72.928 282.446 72.816 281.998 72.816C281.326 72.816 280.658 73.024 279.994 73.44L279.67 72.732C279.974 72.516 280.338 72.344 280.762 72.216C281.194 72.08 281.61 72.012 282.01 72.012ZM281.626 77.316C282.106 77.316 282.498 77.156 282.802 76.836C283.114 76.508 283.27 76.088 283.27 75.576V75.228H283.054C282.35 75.228 281.814 75.26 281.446 75.324C281.078 75.38 280.814 75.48 280.654 75.624C280.502 75.76 280.426 75.964 280.426 76.236C280.426 76.548 280.538 76.808 280.762 77.016C280.994 77.216 281.282 77.316 281.626 77.316ZM292.031 72.012C293.431 72.012 294.131 72.784 294.131 74.328V78H293.159V74.388C293.159 73.844 293.051 73.448 292.835 73.2C292.627 72.952 292.291 72.828 291.827 72.828C291.291 72.828 290.863 72.992 290.543 73.32C290.223 73.648 290.063 74.092 290.063 74.652V78H289.091V69.54H290.063V73.092C290.255 72.74 290.519 72.472 290.855 72.288C291.199 72.104 291.591 72.012 292.031 72.012ZM295.912 78V72.156H296.884V78H295.912ZM295.816 69.624H296.992V70.716H295.816V69.624ZM300.681 78.084C299.697 78.084 298.917 77.832 298.341 77.328L298.665 76.608C298.977 76.856 299.293 77.036 299.613 77.148C299.941 77.252 300.309 77.304 300.717 77.304C301.149 77.304 301.477 77.232 301.701 77.088C301.933 76.936 302.049 76.72 302.049 76.44C302.049 76.208 301.973 76.024 301.821 75.888C301.669 75.752 301.417 75.644 301.065 75.564L300.081 75.336C299.585 75.224 299.205 75.032 298.941 74.76C298.677 74.488 298.545 74.152 298.545 73.752C298.545 73.232 298.749 72.812 299.157 72.492C299.565 72.172 300.109 72.012 300.789 72.012C301.197 72.012 301.585 72.08 301.953 72.216C302.321 72.344 302.629 72.532 302.877 72.78L302.553 73.488C302.017 73.032 301.429 72.804 300.789 72.804C300.381 72.804 300.061 72.884 299.829 73.044C299.605 73.196 299.493 73.412 299.493 73.692C299.493 73.924 299.561 74.112 299.697 74.256C299.841 74.392 300.069 74.496 300.381 74.568L301.377 74.808C301.921 74.936 302.325 75.132 302.589 75.396C302.853 75.652 302.985 75.988 302.985 76.404C302.985 76.916 302.777 77.324 302.361 77.628C301.953 77.932 301.393 78.084 300.681 78.084ZM306.976 77.304C307.152 77.304 307.328 77.292 307.504 77.268L307.456 78.036C307.272 78.068 307.072 78.084 306.856 78.084C306.152 78.084 305.62 77.9 305.26 77.532C304.908 77.164 304.732 76.652 304.732 75.996V72.924H303.592V72.156H304.732V70.38H305.704V72.156H307.36V72.924H305.704V75.924C305.704 76.844 306.128 77.304 306.976 77.304ZM310.91 78.084C310.358 78.084 309.87 77.96 309.446 77.712C309.03 77.464 308.706 77.112 308.474 76.656C308.25 76.192 308.138 75.656 308.138 75.048C308.138 74.44 308.25 73.908 308.474 73.452C308.706 72.988 309.03 72.632 309.446 72.384C309.87 72.136 310.358 72.012 310.91 72.012C311.462 72.012 311.95 72.136 312.374 72.384C312.798 72.632 313.122 72.988 313.346 73.452C313.578 73.908 313.694 74.44 313.694 75.048C313.694 75.656 313.578 76.192 313.346 76.656C313.122 77.112 312.798 77.464 312.374 77.712C311.95 77.96 311.462 78.084 310.91 78.084ZM310.91 77.28C311.486 77.28 311.926 77.092 312.23 76.716C312.542 76.332 312.698 75.776 312.698 75.048C312.698 74.336 312.542 73.788 312.23 73.404C311.918 73.012 311.478 72.816 310.91 72.816C310.342 72.816 309.902 73.012 309.59 73.404C309.278 73.788 309.122 74.336 309.122 75.048C309.122 75.768 309.274 76.32 309.578 76.704C309.89 77.088 310.334 77.28 310.91 77.28ZM311.246 71.388H310.574L311.762 68.964H312.878L311.246 71.388ZM318.454 72.852L317.818 72.912C317.218 72.968 316.782 73.156 316.51 73.476C316.246 73.796 316.114 74.192 316.114 74.664V78H315.142V72.156H316.09V73.176C316.418 72.496 317.062 72.116 318.022 72.036L318.37 72.012L318.454 72.852ZM319.373 78V72.156H320.345V78H319.373ZM319.277 69.624H320.453V70.716H319.277V69.624ZM324.538 72.012C325.282 72.012 325.834 72.204 326.194 72.588C326.562 72.964 326.746 73.54 326.746 74.316V78H325.798V77.004C325.646 77.348 325.414 77.616 325.102 77.808C324.79 77.992 324.43 78.084 324.022 78.084C323.646 78.084 323.298 78.008 322.978 77.856C322.666 77.704 322.418 77.492 322.234 77.22C322.05 76.948 321.958 76.648 321.958 76.32C321.958 75.88 322.07 75.54 322.294 75.3C322.518 75.052 322.886 74.876 323.398 74.772C323.91 74.66 324.622 74.604 325.534 74.604H325.798V74.208C325.798 73.72 325.698 73.368 325.498 73.152C325.298 72.928 324.974 72.816 324.526 72.816C323.854 72.816 323.186 73.024 322.522 73.44L322.198 72.732C322.502 72.516 322.866 72.344 323.29 72.216C323.722 72.08 324.138 72.012 324.538 72.012ZM324.154 77.316C324.634 77.316 325.026 77.156 325.33 76.836C325.642 76.508 325.798 76.088 325.798 75.576V75.228H325.582C324.878 75.228 324.342 75.26 323.974 75.324C323.606 75.38 323.342 75.48 323.182 75.624C323.03 75.76 322.954 75.964 322.954 76.236C322.954 76.548 323.066 76.808 323.29 77.016C323.522 77.216 323.81 77.316 324.154 77.316ZM336.803 69.54V78H335.831V76.932C335.655 77.3 335.395 77.584 335.051 77.784C334.715 77.984 334.319 78.084 333.863 78.084C333.351 78.084 332.899 77.956 332.507 77.7C332.115 77.444 331.811 77.088 331.595 76.632C331.379 76.168 331.271 75.632 331.271 75.024C331.271 74.424 331.379 73.896 331.595 73.44C331.811 72.984 332.115 72.632 332.507 72.384C332.899 72.136 333.351 72.012 333.863 72.012C334.319 72.012 334.715 72.112 335.051 72.312C335.395 72.512 335.655 72.796 335.831 73.164V69.54H336.803ZM334.055 77.28C334.623 77.28 335.059 77.088 335.363 76.704C335.675 76.312 335.831 75.76 335.831 75.048C335.831 74.336 335.675 73.788 335.363 73.404C335.059 73.02 334.623 72.828 334.055 72.828C333.487 72.828 333.043 73.02 332.723 73.404C332.411 73.788 332.255 74.328 332.255 75.024C332.255 75.736 332.411 76.292 332.723 76.692C333.043 77.084 333.487 77.28 334.055 77.28ZM340.979 72.012C341.723 72.012 342.275 72.204 342.635 72.588C343.003 72.964 343.187 73.54 343.187 74.316V78H342.239V77.004C342.087 77.348 341.855 77.616 341.543 77.808C341.231 77.992 340.871 78.084 340.463 78.084C340.087 78.084 339.739 78.008 339.419 77.856C339.107 77.704 338.859 77.492 338.675 77.22C338.491 76.948 338.399 76.648 338.399 76.32C338.399 75.88 338.511 75.54 338.735 75.3C338.959 75.052 339.327 74.876 339.839 74.772C340.351 74.66 341.063 74.604 341.975 74.604H342.239V74.208C342.239 73.72 342.139 73.368 341.939 73.152C341.739 72.928 341.415 72.816 340.967 72.816C340.295 72.816 339.627 73.024 338.963 73.44L338.639 72.732C338.943 72.516 339.307 72.344 339.731 72.216C340.163 72.08 340.579 72.012 340.979 72.012ZM340.595 77.316C341.075 77.316 341.467 77.156 341.771 76.836C342.083 76.508 342.239 76.088 342.239 75.576V75.228H342.023C341.319 75.228 340.783 75.26 340.415 75.324C340.047 75.38 339.783 75.48 339.623 75.624C339.471 75.76 339.395 75.964 339.395 76.236C339.395 76.548 339.507 76.808 339.731 77.016C339.963 77.216 340.251 77.316 340.595 77.316ZM18.88 98.084C17.896 98.084 17.116 97.832 16.54 97.328L16.864 96.608C17.176 96.856 17.492 97.036 17.812 97.148C18.14 97.252 18.508 97.304 18.916 97.304C19.348 97.304 19.676 97.232 19.9 97.088C20.132 96.936 20.248 96.72 20.248 96.44C20.248 96.208 20.172 96.024 20.02 95.888C19.868 95.752 19.616 95.644 19.264 95.564L18.28 95.336C17.784 95.224 17.404 95.032 17.14 94.76C16.876 94.488 16.744 94.152 16.744 93.752C16.744 93.232 16.948 92.812 17.356 92.492C17.764 92.172 18.308 92.012 18.988 92.012C19.396 92.012 19.784 92.08 20.152 92.216C20.52 92.344 20.828 92.532 21.076 92.78L20.752 93.488C20.216 93.032 19.628 92.804 18.988 92.804C18.58 92.804 18.26 92.884 18.028 93.044C17.804 93.196 17.692 93.412 17.692 93.692C17.692 93.924 17.76 94.112 17.896 94.256C18.04 94.392 18.268 94.496 18.58 94.568L19.576 94.808C20.12 94.936 20.524 95.132 20.788 95.396C21.052 95.652 21.184 95.988 21.184 96.404C21.184 96.916 20.976 97.324 20.56 97.628C20.152 97.932 19.592 98.084 18.88 98.084ZM27.5856 92.156V98H26.6376V97.004C26.4536 97.356 26.1936 97.624 25.8576 97.808C25.5296 97.992 25.1576 98.084 24.7416 98.084C24.0456 98.084 23.5216 97.892 23.1696 97.508C22.8176 97.116 22.6416 96.54 22.6416 95.78V92.156H23.6136V95.756C23.6136 96.276 23.7176 96.66 23.9256 96.908C24.1336 97.148 24.4616 97.268 24.9096 97.268C25.4216 97.268 25.8336 97.104 26.1456 96.776C26.4576 96.44 26.6136 96 26.6136 95.456V92.156H27.5856ZM31.7682 92.012C32.5122 92.012 33.0642 92.204 33.4242 92.588C33.7922 92.964 33.9762 93.54 33.9762 94.316V98H33.0282V97.004C32.8762 97.348 32.6442 97.616 32.3322 97.808C32.0202 97.992 31.6602 98.084 31.2522 98.084C30.8762 98.084 30.5282 98.008 30.2082 97.856C29.8962 97.704 29.6482 97.492 29.4642 97.22C29.2802 96.948 29.1882 96.648 29.1882 96.32C29.1882 95.88 29.3002 95.54 29.5242 95.3C29.7482 95.052 30.1162 94.876 30.6282 94.772C31.1402 94.66 31.8522 94.604 32.7642 94.604H33.0282V94.208C33.0282 93.72 32.9282 93.368 32.7282 93.152C32.5282 92.928 32.2042 92.816 31.7562 92.816C31.0842 92.816 30.4162 93.024 29.7522 93.44L29.4282 92.732C29.7322 92.516 30.0962 92.344 30.5202 92.216C30.9522 92.08 31.3682 92.012 31.7682 92.012ZM31.3842 97.316C31.8642 97.316 32.2562 97.156 32.5602 96.836C32.8722 96.508 33.0282 96.088 33.0282 95.576V95.228H32.8122C32.1082 95.228 31.5722 95.26 31.2042 95.324C30.8362 95.38 30.5722 95.48 30.4122 95.624C30.2602 95.76 30.1842 95.964 30.1842 96.236C30.1842 96.548 30.2962 96.808 30.5202 97.016C30.7522 97.216 31.0402 97.316 31.3842 97.316ZM43.7452 95.228H39.4732C39.5052 95.908 39.6892 96.424 40.0252 96.776C40.3612 97.12 40.8372 97.292 41.4532 97.292C42.1332 97.292 42.7572 97.06 43.3252 96.596L43.6492 97.304C43.3932 97.544 43.0652 97.736 42.6652 97.88C42.2652 98.016 41.8572 98.084 41.4412 98.084C40.5292 98.084 39.8092 97.816 39.2812 97.28C38.7612 96.744 38.5012 96.004 38.5012 95.06C38.5012 94.46 38.6172 93.932 38.8492 93.476C39.0812 93.012 39.4052 92.652 39.8212 92.396C40.2452 92.14 40.7252 92.012 41.2612 92.012C42.0372 92.012 42.6452 92.268 43.0852 92.78C43.5252 93.284 43.7452 93.98 43.7452 94.868V95.228ZM41.2732 92.768C40.7612 92.768 40.3492 92.928 40.0372 93.248C39.7332 93.568 39.5532 94.02 39.4972 94.604H42.8932C42.8772 94.012 42.7292 93.56 42.4492 93.248C42.1692 92.928 41.7772 92.768 41.2732 92.768ZM51.6813 92.012C52.9773 92.012 53.6253 92.784 53.6253 94.328V98H52.6533V94.376C52.6533 93.84 52.5573 93.448 52.3653 93.2C52.1813 92.952 51.8813 92.828 51.4653 92.828C50.9773 92.828 50.5933 92.992 50.3133 93.32C50.0333 93.648 49.8933 94.096 49.8933 94.664V98H48.9213V94.376C48.9213 93.832 48.8253 93.44 48.6333 93.2C48.4413 92.952 48.1373 92.828 47.7213 92.828C47.2333 92.828 46.8493 92.992 46.5693 93.32C46.2893 93.648 46.1493 94.096 46.1493 94.664V98H45.1773V92.156H46.1373V93.08C46.3133 92.736 46.5573 92.472 46.8693 92.288C47.1813 92.104 47.5413 92.012 47.9493 92.012C48.8533 92.012 49.4493 92.396 49.7373 93.164C49.9053 92.804 50.1613 92.524 50.5053 92.324C50.8493 92.116 51.2413 92.012 51.6813 92.012ZM58.3361 92.012C58.8481 92.012 59.3001 92.14 59.6921 92.396C60.0841 92.652 60.3881 93.012 60.6041 93.476C60.8201 93.932 60.9281 94.464 60.9281 95.072C60.9281 95.68 60.8201 96.212 60.6041 96.668C60.3881 97.116 60.0841 97.464 59.6921 97.712C59.3081 97.96 58.8561 98.084 58.3361 98.084C57.8801 98.084 57.4801 97.984 57.1361 97.784C56.8001 97.584 56.5441 97.3 56.3681 96.932V100.16H55.3961V92.156H56.3681V93.164C56.5441 92.796 56.8001 92.512 57.1361 92.312C57.4801 92.112 57.8801 92.012 58.3361 92.012ZM58.1441 97.28C58.7121 97.28 59.1521 97.088 59.4641 96.704C59.7761 96.32 59.9321 95.776 59.9321 95.072C59.9321 94.368 59.7761 93.82 59.4641 93.428C59.1521 93.028 58.7121 92.828 58.1441 92.828C57.5761 92.828 57.1361 93.02 56.8241 93.404C56.5201 93.788 56.3681 94.336 56.3681 95.048C56.3681 95.76 56.5201 96.312 56.8241 96.704C57.1361 97.088 57.5761 97.28 58.1441 97.28ZM65.6925 92.852L65.0565 92.912C64.4565 92.968 64.0205 93.156 63.7485 93.476C63.4845 93.796 63.3525 94.192 63.3525 94.664V98H62.3805V92.156H63.3285V93.176C63.6565 92.496 64.3005 92.116 65.2605 92.036L65.6085 92.012L65.6925 92.852ZM71.3898 95.228H67.1178C67.1498 95.908 67.3338 96.424 67.6698 96.776C68.0058 97.12 68.4818 97.292 69.0978 97.292C69.7778 97.292 70.4018 97.06 70.9698 96.596L71.2938 97.304C71.0378 97.544 70.7098 97.736 70.3098 97.88C69.9098 98.016 69.5018 98.084 69.0858 98.084C68.1738 98.084 67.4538 97.816 66.9258 97.28C66.4058 96.744 66.1458 96.004 66.1458 95.06C66.1458 94.46 66.2618 93.932 66.4938 93.476C66.7258 93.012 67.0498 92.652 67.4658 92.396C67.8898 92.14 68.3698 92.012 68.9058 92.012C69.6818 92.012 70.2898 92.268 70.7298 92.78C71.1698 93.284 71.3898 93.98 71.3898 94.868V95.228ZM68.9178 92.768C68.4058 92.768 67.9938 92.928 67.6818 93.248C67.3778 93.568 67.1978 94.02 67.1418 94.604H70.5378C70.5218 94.012 70.3738 93.56 70.0938 93.248C69.8138 92.928 69.4218 92.768 68.9178 92.768ZM74.8019 98.084C73.8179 98.084 73.0379 97.832 72.4619 97.328L72.7859 96.608C73.0979 96.856 73.4139 97.036 73.7339 97.148C74.0619 97.252 74.4299 97.304 74.8379 97.304C75.2699 97.304 75.5979 97.232 75.8219 97.088C76.0539 96.936 76.1699 96.72 76.1699 96.44C76.1699 96.208 76.0939 96.024 75.9419 95.888C75.7899 95.752 75.5379 95.644 75.1859 95.564L74.2019 95.336C73.7059 95.224 73.3259 95.032 73.0619 94.76C72.7979 94.488 72.6659 94.152 72.6659 93.752C72.6659 93.232 72.8699 92.812 73.2779 92.492C73.6859 92.172 74.2299 92.012 74.9099 92.012C75.3179 92.012 75.7059 92.08 76.0739 92.216C76.4419 92.344 76.7499 92.532 76.9979 92.78L76.6739 93.488C76.1379 93.032 75.5499 92.804 74.9099 92.804C74.5019 92.804 74.1819 92.884 73.9499 93.044C73.7259 93.196 73.6139 93.412 73.6139 93.692C73.6139 93.924 73.6819 94.112 73.8179 94.256C73.9619 94.392 74.1899 94.496 74.5019 94.568L75.4979 94.808C76.0419 94.936 76.4459 95.132 76.7099 95.396C76.9739 95.652 77.1059 95.988 77.1059 96.404C77.1059 96.916 76.8979 97.324 76.4819 97.628C76.0739 97.932 75.5139 98.084 74.8019 98.084ZM80.9635 92.012C81.7075 92.012 82.2595 92.204 82.6195 92.588C82.9875 92.964 83.1715 93.54 83.1715 94.316V98H82.2235V97.004C82.0715 97.348 81.8395 97.616 81.5275 97.808C81.2155 97.992 80.8555 98.084 80.4475 98.084C80.0715 98.084 79.7235 98.008 79.4035 97.856C79.0915 97.704 78.8435 97.492 78.6595 97.22C78.4755 96.948 78.3835 96.648 78.3835 96.32C78.3835 95.88 78.4955 95.54 78.7195 95.3C78.9435 95.052 79.3115 94.876 79.8235 94.772C80.3355 94.66 81.0475 94.604 81.9595 94.604H82.2235V94.208C82.2235 93.72 82.1235 93.368 81.9235 93.152C81.7235 92.928 81.3995 92.816 80.9515 92.816C80.2795 92.816 79.6115 93.024 78.9475 93.44L78.6235 92.732C78.9275 92.516 79.2915 92.344 79.7155 92.216C80.1475 92.08 80.5635 92.012 80.9635 92.012ZM80.5795 97.316C81.0595 97.316 81.4515 97.156 81.7555 96.836C82.0675 96.508 82.2235 96.088 82.2235 95.576V95.228H82.0075C81.3035 95.228 80.7675 95.26 80.3995 95.324C80.0315 95.38 79.7675 95.48 79.6075 95.624C79.4555 95.76 79.3795 95.964 79.3795 96.236C79.3795 96.548 79.4915 96.808 79.7155 97.016C79.9475 97.216 80.2355 97.316 80.5795 97.316Z" fill="#6C7980"/>
<path d="M18.904 30V22.812H16.144V21.54H23.212V22.812H20.452V30H18.904ZM24.1394 30V24.132H25.6394V30H24.1394ZM25.3634 23.364H24.4034L25.5914 20.916H27.1154L25.3634 23.364ZM30.1863 28.968C30.3623 28.968 30.5463 28.956 30.7383 28.932L30.6663 30.048C30.4263 30.072 30.2063 30.084 30.0063 30.084C29.1823 30.084 28.5743 29.896 28.1823 29.52C27.7903 29.136 27.5943 28.568 27.5943 27.816V25.26H26.4663V24.132H27.5943V22.38H29.0943V24.132H30.6423V25.26H29.0943V27.792C29.0943 28.576 29.4583 28.968 30.1863 28.968ZM37.0039 24.132V30H35.5399V29.1C35.3559 29.42 35.1079 29.668 34.7959 29.844C34.4839 30.012 34.1319 30.096 33.7399 30.096C32.2999 30.096 31.5799 29.288 31.5799 27.672V24.132H33.0799V27.684C33.0799 28.1 33.1639 28.408 33.3319 28.608C33.4999 28.808 33.7639 28.908 34.1239 28.908C34.5399 28.908 34.8719 28.772 35.1199 28.5C35.3759 28.22 35.5039 27.852 35.5039 27.396V24.132H37.0039ZM38.5652 30V21.54H40.0652V30H38.5652ZM44.288 30.096C43.688 30.096 43.16 29.972 42.704 29.724C42.256 29.476 41.908 29.12 41.66 28.656C41.412 28.192 41.288 27.652 41.288 27.036C41.288 26.42 41.412 25.884 41.66 25.428C41.908 24.964 42.256 24.608 42.704 24.36C43.16 24.112 43.688 23.988 44.288 23.988C44.888 23.988 45.412 24.112 45.86 24.36C46.316 24.608 46.664 24.964 46.904 25.428C47.152 25.884 47.276 26.42 47.276 27.036C47.276 27.652 47.152 28.192 46.904 28.656C46.664 29.12 46.316 29.476 45.86 29.724C45.412 29.972 44.888 30.096 44.288 30.096ZM44.276 28.932C44.764 28.932 45.136 28.772 45.392 28.452C45.648 28.132 45.776 27.66 45.776 27.036C45.776 26.42 45.648 25.952 45.392 25.632C45.136 25.304 44.768 25.14 44.288 25.14C43.808 25.14 43.436 25.304 43.172 25.632C42.916 25.952 42.788 26.42 42.788 27.036C42.788 27.66 42.916 28.132 43.172 28.452C43.428 28.772 43.796 28.932 44.276 28.932ZM57.4362 21.54V30H55.9482V29.052C55.7722 29.38 55.5162 29.636 55.1802 29.82C54.8522 30.004 54.4762 30.096 54.0522 30.096C53.5482 30.096 53.0962 29.968 52.6962 29.712C52.3042 29.456 51.9962 29.096 51.7722 28.632C51.5562 28.16 51.4482 27.62 51.4482 27.012C51.4482 26.404 51.5562 25.872 51.7722 25.416C51.9962 24.96 52.3042 24.608 52.6962 24.36C53.0882 24.112 53.5402 23.988 54.0522 23.988C54.4762 23.988 54.8522 24.076 55.1802 24.252C55.5082 24.428 55.7602 24.676 55.9362 24.996V21.54H57.4362ZM54.4482 28.932C54.9282 28.932 55.2962 28.768 55.5522 28.44C55.8162 28.112 55.9482 27.644 55.9482 27.036C55.9482 26.428 55.8162 25.964 55.5522 25.644C55.2962 25.316 54.9322 25.152 54.4602 25.152C53.9802 25.152 53.6082 25.312 53.3442 25.632C53.0802 25.952 52.9482 26.412 52.9482 27.012C52.9482 27.62 53.0802 28.092 53.3442 28.428C53.6082 28.764 53.9762 28.932 54.4482 28.932ZM61.6552 30.096C61.0552 30.096 60.5272 29.972 60.0712 29.724C59.6232 29.476 59.2752 29.12 59.0272 28.656C58.7792 28.192 58.6552 27.652 58.6552 27.036C58.6552 26.42 58.7792 25.884 59.0272 25.428C59.2752 24.964 59.6232 24.608 60.0712 24.36C60.5272 24.112 61.0552 23.988 61.6552 23.988C62.2552 23.988 62.7792 24.112 63.2272 24.36C63.6832 24.608 64.0312 24.964 64.2712 25.428C64.5192 25.884 64.6432 26.42 64.6432 27.036C64.6432 27.652 64.5192 28.192 64.2712 28.656C64.0312 29.12 63.6832 29.476 63.2272 29.724C62.7792 29.972 62.2552 30.096 61.6552 30.096ZM61.6432 28.932C62.1312 28.932 62.5032 28.772 62.7592 28.452C63.0152 28.132 63.1432 27.66 63.1432 27.036C63.1432 26.42 63.0152 25.952 62.7592 25.632C62.5032 25.304 62.1352 25.14 61.6552 25.14C61.1752 25.14 60.8032 25.304 60.5392 25.632C60.2832 25.952 60.1552 26.42 60.1552 27.036C60.1552 27.66 60.2832 28.132 60.5392 28.452C60.7952 28.772 61.1632 28.932 61.6432 28.932ZM72.1394 28.968C72.3154 28.968 72.4994 28.956 72.6914 28.932L72.6194 30.048C72.3794 30.072 72.1594 30.084 71.9594 30.084C71.1354 30.084 70.5274 29.896 70.1354 29.52C69.7434 29.136 69.5474 28.568 69.5474 27.816V25.26H68.4194V24.132H69.5474V22.38H71.0474V24.132H72.5954V25.26H71.0474V27.792C71.0474 28.576 71.4114 28.968 72.1394 28.968ZM78.7171 27.336H74.7211C74.7691 27.88 74.9331 28.284 75.2131 28.548C75.4931 28.812 75.8931 28.944 76.4131 28.944C77.0611 28.944 77.6531 28.736 78.1891 28.32L78.6211 29.352C78.3491 29.576 78.0051 29.756 77.5891 29.892C77.1811 30.028 76.7691 30.096 76.3531 30.096C75.3931 30.096 74.6331 29.824 74.0731 29.28C73.5211 28.736 73.2451 27.992 73.2451 27.048C73.2451 26.448 73.3651 25.916 73.6051 25.452C73.8451 24.988 74.1811 24.628 74.6131 24.372C75.0531 24.116 75.5491 23.988 76.1011 23.988C76.9091 23.988 77.5451 24.248 78.0091 24.768C78.4811 25.288 78.7171 26.004 78.7171 26.916V27.336ZM76.1371 25.044C75.7371 25.044 75.4131 25.172 75.1651 25.428C74.9251 25.684 74.7771 26.052 74.7211 26.532H77.4331C77.4171 26.044 77.2971 25.676 77.0731 25.428C76.8491 25.172 76.5371 25.044 76.1371 25.044ZM83.1849 26.976L85.6569 30H83.8809L82.3209 28.044L80.7729 30H78.9969L81.4569 26.976L79.1289 24.132H80.9169L82.3209 25.92L83.7249 24.132H85.5129L83.1849 26.976ZM89.2956 28.968C89.4716 28.968 89.6556 28.956 89.8476 28.932L89.7756 30.048C89.5356 30.072 89.3156 30.084 89.1156 30.084C88.2916 30.084 87.6836 29.896 87.2916 29.52C86.8996 29.136 86.7036 28.568 86.7036 27.816V25.26H85.5756V24.132H86.7036V22.38H88.2036V24.132H89.7516V25.26H88.2036V27.792C88.2036 28.576 88.5676 28.968 89.2956 28.968ZM93.4013 30.096C92.8013 30.096 92.2733 29.972 91.8173 29.724C91.3693 29.476 91.0213 29.12 90.7733 28.656C90.5253 28.192 90.4013 27.652 90.4013 27.036C90.4013 26.42 90.5253 25.884 90.7733 25.428C91.0213 24.964 91.3693 24.608 91.8173 24.36C92.2733 24.112 92.8013 23.988 93.4013 23.988C94.0013 23.988 94.5253 24.112 94.9733 24.36C95.4293 24.608 95.7773 24.964 96.0173 25.428C96.2653 25.884 96.3893 26.42 96.3893 27.036C96.3893 27.652 96.2653 28.192 96.0173 28.656C95.7773 29.12 95.4293 29.476 94.9733 29.724C94.5253 29.972 94.0013 30.096 93.4013 30.096ZM93.3893 28.932C93.8773 28.932 94.2493 28.772 94.5053 28.452C94.7613 28.132 94.8893 27.66 94.8893 27.036C94.8893 26.42 94.7613 25.952 94.5053 25.632C94.2493 25.304 93.8813 25.14 93.4013 25.14C92.9213 25.14 92.5493 25.304 92.2853 25.632C92.0293 25.952 91.9013 26.42 91.9013 27.036C91.9013 27.66 92.0293 28.132 92.2853 28.452C92.5413 28.772 92.9093 28.932 93.3893 28.932Z" fill="#525F66"/>
</svg>
