<svg width="370" height="126" viewBox="0 0 370 126" fill="none" xmlns="http://www.w3.org/2000/svg">
<rect width="370" height="126" rx="8" fill="white"/>
<path opacity="0.5" fill-rule="evenodd" clip-rule="evenodd" d="M48 110C65.6731 110 80 95.6731 80 78C80 60.3269 65.6731 46 48 46C30.3269 46 16 60.3269 16 78C16 95.6731 30.3269 110 48 110Z" fill="white" stroke="#AAAAAA"/>
<path fill-rule="evenodd" clip-rule="evenodd" d="M48 107C64.0163 107 77 94.0163 77 78C77 61.9837 64.0163 49 48 49C31.9837 49 19 61.9837 19 78C19 94.0163 31.9837 107 48 107Z" fill="#F8F8F8"/>
<path d="M48.5 91.3613C51.9863 91.3613 54.0957 88.6074 54.0957 83.9395C54.0957 79.2617 51.957 76.5469 48.5 76.5469C45.0332 76.5469 42.9043 79.2617 42.9043 83.9297C42.9043 88.6074 45.0137 91.3613 48.5 91.3613ZM48.5 89.0273C46.8887 89.0273 45.8926 87.3086 45.8926 83.9297C45.8926 80.5801 46.8984 78.8809 48.5 78.8809C50.1113 78.8809 51.1074 80.5703 51.1074 83.9297C51.1074 87.3086 50.1211 89.0273 48.5 89.0273Z" fill="#AAAAAA"/>
<path d="M43.1686 68.2119H44.902L46.4107 71H47.441L45.8102 68.0752C46.6939 67.7969 47.2262 67.0352 47.2262 66.0537C47.2262 64.7842 46.3375 63.9541 44.9801 63.9541H42.2896V71H43.1686V68.2119ZM43.1686 64.7354H44.8629C45.7711 64.7354 46.318 65.2383 46.318 66.083C46.318 66.9473 45.8053 67.4307 44.902 67.4307H43.1686V64.7354ZM50.9834 71.708H51.5693V70.8633C52.7217 70.7754 53.6787 70.1357 53.6787 68.959C53.6787 67.9336 52.9756 67.416 51.7207 67.1133L51.5693 67.0791V64.8574C52.2285 64.9404 52.6973 65.3262 52.7607 65.9854H53.6104C53.5762 64.9062 52.6973 64.1934 51.5693 64.0908V63.2461H50.9834V64.0957C49.8262 64.1982 49.001 64.8916 49.001 65.9414C49.001 66.9033 49.6553 67.4453 50.8711 67.7383L50.9834 67.7676V70.0967C50.1387 70.0039 49.7627 69.54 49.6748 68.9297H48.8252C48.8594 70.0674 49.8213 70.7559 50.9834 70.8584V71.708ZM49.8506 65.8828C49.8506 65.4092 50.2412 64.96 50.9834 64.8623V66.9375C50.1436 66.7324 49.8506 66.3613 49.8506 65.8828ZM51.5986 67.9141C52.5654 68.1484 52.8291 68.4902 52.8291 69.0273C52.8291 69.5889 52.4775 70.0332 51.5693 70.1016V67.9092L51.5986 67.9141Z" fill="#AAAAAA"/>
<path opacity="0.5" fill-rule="evenodd" clip-rule="evenodd" d="M136 110C153.673 110 168 95.6731 168 78C168 60.3269 153.673 46 136 46C118.327 46 104 60.3269 104 78C104 95.6731 118.327 110 136 110Z" fill="white" stroke="#AAAAAA"/>
<path fill-rule="evenodd" clip-rule="evenodd" d="M136 107C152.016 107 165 94.0163 165 78C165 61.9837 152.016 49 136 49C119.984 49 107 61.9837 107 78C107 94.0163 119.984 107 136 107Z" fill="#F8F8F8"/>
<path d="M136.5 91.3613C139.986 91.3613 142.096 88.6074 142.096 83.9395C142.096 79.2617 139.957 76.5469 136.5 76.5469C133.033 76.5469 130.904 79.2617 130.904 83.9297C130.904 88.6074 133.014 91.3613 136.5 91.3613ZM136.5 89.0273C134.889 89.0273 133.893 87.3086 133.893 83.9297C133.893 80.5801 134.898 78.8809 136.5 78.8809C138.111 78.8809 139.107 80.5703 139.107 83.9297C139.107 87.3086 138.121 89.0273 136.5 89.0273Z" fill="#AAAAAA"/>
<path d="M131.169 68.2119H132.902L134.411 71H135.441L133.81 68.0752C134.694 67.7969 135.226 67.0352 135.226 66.0537C135.226 64.7842 134.337 63.9541 132.98 63.9541H130.29V71H131.169V68.2119ZM131.169 64.7354H132.863C133.771 64.7354 134.318 65.2383 134.318 66.083C134.318 66.9473 133.805 67.4307 132.902 67.4307H131.169V64.7354ZM138.983 71.708H139.569V70.8633C140.722 70.7754 141.679 70.1357 141.679 68.959C141.679 67.9336 140.976 67.416 139.721 67.1133L139.569 67.0791V64.8574C140.229 64.9404 140.697 65.3262 140.761 65.9854H141.61C141.576 64.9062 140.697 64.1934 139.569 64.0908V63.2461H138.983V64.0957C137.826 64.1982 137.001 64.8916 137.001 65.9414C137.001 66.9033 137.655 67.4453 138.871 67.7383L138.983 67.7676V70.0967C138.139 70.0039 137.763 69.54 137.675 68.9297H136.825C136.859 70.0674 137.821 70.7559 138.983 70.8584V71.708ZM137.851 65.8828C137.851 65.4092 138.241 64.96 138.983 64.8623V66.9375C138.144 66.7324 137.851 66.3613 137.851 65.8828ZM139.599 67.9141C140.565 68.1484 140.829 68.4902 140.829 69.0273C140.829 69.5889 140.478 70.0332 139.569 70.1016V67.9092L139.599 67.9141Z" fill="#AAAAAA"/>
<path opacity="0.5" fill-rule="evenodd" clip-rule="evenodd" d="M224 110C241.673 110 256 95.6731 256 78C256 60.3269 241.673 46 224 46C206.327 46 192 60.3269 192 78C192 95.6731 206.327 110 224 110Z" fill="white" stroke="#AAAAAA"/>
<path fill-rule="evenodd" clip-rule="evenodd" d="M224 107C240.016 107 253 94.0163 253 78C253 61.9837 240.016 49 224 49C207.984 49 195 61.9837 195 78C195 94.0163 207.984 107 224 107Z" fill="#F8F8F8"/>
<path d="M224.5 91.3613C227.986 91.3613 230.096 88.6074 230.096 83.9395C230.096 79.2617 227.957 76.5469 224.5 76.5469C221.033 76.5469 218.904 79.2617 218.904 83.9297C218.904 88.6074 221.014 91.3613 224.5 91.3613ZM224.5 89.0273C222.889 89.0273 221.893 87.3086 221.893 83.9297C221.893 80.5801 222.898 78.8809 224.5 78.8809C226.111 78.8809 227.107 80.5703 227.107 83.9297C227.107 87.3086 226.121 89.0273 224.5 89.0273Z" fill="#AAAAAA"/>
<path d="M219.169 68.2119H220.902L222.411 71H223.441L221.81 68.0752C222.694 67.7969 223.226 67.0352 223.226 66.0537C223.226 64.7842 222.337 63.9541 220.98 63.9541H218.29V71H219.169V68.2119ZM219.169 64.7354H220.863C221.771 64.7354 222.318 65.2383 222.318 66.083C222.318 66.9473 221.805 67.4307 220.902 67.4307H219.169V64.7354ZM226.983 71.708H227.569V70.8633C228.722 70.7754 229.679 70.1357 229.679 68.959C229.679 67.9336 228.976 67.416 227.721 67.1133L227.569 67.0791V64.8574C228.229 64.9404 228.697 65.3262 228.761 65.9854H229.61C229.576 64.9062 228.697 64.1934 227.569 64.0908V63.2461H226.983V64.0957C225.826 64.1982 225.001 64.8916 225.001 65.9414C225.001 66.9033 225.655 67.4453 226.871 67.7383L226.983 67.7676V70.0967C226.139 70.0039 225.763 69.54 225.675 68.9297H224.825C224.859 70.0674 225.821 70.7559 226.983 70.8584V71.708ZM225.851 65.8828C225.851 65.4092 226.241 64.96 226.983 64.8623V66.9375C226.144 66.7324 225.851 66.3613 225.851 65.8828ZM227.599 67.9141C228.565 68.1484 228.829 68.4902 228.829 69.0273C228.829 69.5889 228.478 70.0332 227.569 70.1016V67.9092L227.599 67.9141Z" fill="#AAAAAA"/>
<path d="M16.98 32V22.13H23.784V23.824H19.108V26.134H23.504V27.828H19.108V30.306H23.784V32H16.98ZM27.7568 32.112C27.1222 32.112 26.5388 32.042 26.0068 31.902C25.4842 31.7527 25.0315 31.5427 24.6488 31.272L25.2088 29.816C25.5822 30.068 25.9928 30.264 26.4408 30.404C26.8888 30.544 27.3415 30.614 27.7988 30.614C28.1255 30.614 28.3775 30.5627 28.5548 30.46C28.7415 30.348 28.8348 30.1987 28.8348 30.012C28.8348 29.844 28.7695 29.7133 28.6388 29.62C28.5175 29.5267 28.2842 29.4427 27.9388 29.368L26.8188 29.116C26.1562 28.9667 25.6662 28.738 25.3488 28.43C25.0408 28.1127 24.8868 27.6833 24.8868 27.142C24.8868 26.7127 25.0082 26.3347 25.2508 26.008C25.5028 25.6813 25.8528 25.4247 26.3008 25.238C26.7582 25.0513 27.2762 24.958 27.8548 24.958C28.3495 24.958 28.8302 25.0327 29.2968 25.182C29.7635 25.3313 30.1835 25.5413 30.5568 25.812L29.9968 27.212C29.2688 26.708 28.5502 26.456 27.8408 26.456C27.5142 26.456 27.2575 26.512 27.0708 26.624C26.8842 26.736 26.7908 26.8947 26.7908 27.1C26.7908 27.2493 26.8468 27.366 26.9588 27.45C27.0708 27.534 27.2668 27.6133 27.5468 27.688L28.7088 27.954C29.4088 28.1127 29.9175 28.3553 30.2348 28.682C30.5615 28.9993 30.7248 29.4333 30.7248 29.984C30.7248 30.6467 30.4588 31.1693 29.9268 31.552C29.4042 31.9253 28.6808 32.112 27.7568 32.112ZM35.2091 32.112C34.0891 32.112 33.2071 31.7947 32.5631 31.16C31.9191 30.5253 31.5971 29.662 31.5971 28.57C31.5971 27.8513 31.7511 27.2213 32.0591 26.68C32.3671 26.1293 32.8011 25.7047 33.3611 25.406C33.9211 25.1073 34.5698 24.958 35.3071 24.958C35.8111 24.958 36.2964 25.0373 36.7631 25.196C37.2298 25.3453 37.6078 25.5507 37.8971 25.812L37.3371 27.254C37.0664 27.0393 36.7678 26.876 36.4411 26.764C36.1238 26.6427 35.8111 26.582 35.5031 26.582C34.9524 26.582 34.5231 26.7453 34.2151 27.072C33.9164 27.3987 33.7671 27.884 33.7671 28.528C33.7671 29.172 33.9164 29.662 34.2151 29.998C34.5231 30.3247 34.9524 30.488 35.5031 30.488C35.8111 30.488 36.1238 30.432 36.4411 30.32C36.7678 30.1987 37.0664 30.0307 37.3371 29.816L37.8971 31.272C37.5891 31.5333 37.1971 31.7387 36.7211 31.888C36.2451 32.0373 35.7411 32.112 35.2091 32.112ZM42.1551 32.112C41.4271 32.112 40.7877 31.9673 40.2371 31.678C39.6864 31.3793 39.2617 30.964 38.9631 30.432C38.6644 29.8907 38.5151 29.256 38.5151 28.528C38.5151 27.8 38.6644 27.17 38.9631 26.638C39.2617 26.0967 39.6864 25.6813 40.2371 25.392C40.7877 25.1027 41.4271 24.958 42.1551 24.958C42.8831 24.958 43.5224 25.1027 44.0731 25.392C44.6237 25.6813 45.0484 26.0967 45.3471 26.638C45.6457 27.17 45.7951 27.8 45.7951 28.528C45.7951 29.256 45.6457 29.8907 45.3471 30.432C45.0484 30.964 44.6237 31.3793 44.0731 31.678C43.5224 31.9673 42.8831 32.112 42.1551 32.112ZM42.1551 30.502C43.1817 30.502 43.6951 29.844 43.6951 28.528C43.6951 27.8653 43.5597 27.3707 43.2891 27.044C43.0277 26.7173 42.6497 26.554 42.1551 26.554C41.1284 26.554 40.6151 27.212 40.6151 28.528C40.6151 29.844 41.1284 30.502 42.1551 30.502ZM47.0815 32V22.13H49.1955V32H47.0815ZM55.126 24.958C55.9473 24.958 56.5586 25.2007 56.96 25.686C57.3613 26.162 57.562 26.8853 57.562 27.856V32H55.448V27.954C55.448 27.4873 55.3593 27.1467 55.182 26.932C55.014 26.7173 54.748 26.61 54.384 26.61C53.9453 26.61 53.5906 26.75 53.32 27.03C53.0586 27.31 52.928 27.6833 52.928 28.15V32H50.814V22.13H52.928V26.036C53.1706 25.6813 53.4786 25.4153 53.852 25.238C54.2346 25.0513 54.6593 24.958 55.126 24.958ZM62.1921 24.958C63.2188 24.958 63.9748 25.2007 64.4601 25.686C64.9548 26.1713 65.2021 26.9227 65.2021 27.94V32H63.2001V30.978C63.0601 31.3327 62.8268 31.6127 62.5001 31.818C62.1735 32.014 61.7908 32.112 61.3521 32.112C60.8855 32.112 60.4608 32.0187 60.0781 31.832C59.7048 31.6453 59.4061 31.384 59.1821 31.048C58.9675 30.712 58.8601 30.3387 58.8601 29.928C58.8601 29.424 58.9861 29.0273 59.2381 28.738C59.4995 28.4487 59.9148 28.2387 60.4841 28.108C61.0535 27.9773 61.8328 27.912 62.8221 27.912H63.1861V27.66C63.1861 27.2493 63.0975 26.96 62.9201 26.792C62.7428 26.624 62.4348 26.54 61.9961 26.54C61.6601 26.54 61.2868 26.6007 60.8761 26.722C60.4655 26.8433 60.0735 27.0113 59.7001 27.226L59.1401 25.812C59.5321 25.5693 60.0128 25.3687 60.5821 25.21C61.1608 25.042 61.6975 24.958 62.1921 24.958ZM61.8141 30.656C62.2248 30.656 62.5561 30.5207 62.8081 30.25C63.0601 29.97 63.1861 29.6107 63.1861 29.172V28.934H62.9481C62.1921 28.934 61.6601 28.9947 61.3521 29.116C61.0535 29.2373 60.9041 29.4567 60.9041 29.774C60.9041 30.026 60.9881 30.236 61.1561 30.404C61.3335 30.572 61.5528 30.656 61.8141 30.656ZM77.3149 25.126V32H75.2569V31.02C75.0422 31.3747 74.7575 31.6453 74.4029 31.832C74.0575 32.0187 73.6655 32.112 73.2269 32.112C72.3589 32.112 71.7102 31.874 71.2809 31.398C70.8609 30.9127 70.6509 30.1847 70.6509 29.214V25.126H72.7649V29.256C72.7649 29.6667 72.8489 29.97 73.0169 30.166C73.1942 30.362 73.4602 30.46 73.8149 30.46C74.2255 30.46 74.5569 30.32 74.8089 30.04C75.0702 29.76 75.2009 29.3913 75.2009 28.934V25.126H77.3149ZM87.407 24.958C88.191 24.958 88.7743 25.196 89.157 25.672C89.5397 26.148 89.731 26.876 89.731 27.856V32H87.617V27.926C87.617 27.4593 87.5423 27.1233 87.393 26.918C87.253 26.7127 87.0103 26.61 86.665 26.61C86.2637 26.61 85.951 26.75 85.727 27.03C85.503 27.31 85.391 27.702 85.391 28.206V32H83.277V27.926C83.277 27.4593 83.2023 27.1233 83.053 26.918C82.913 26.7127 82.6703 26.61 82.325 26.61C81.9237 26.61 81.611 26.75 81.387 27.03C81.163 27.31 81.051 27.702 81.051 28.206V32H78.937V25.126H80.995V26.05C81.2097 25.6953 81.4943 25.4247 81.849 25.238C82.213 25.0513 82.6283 24.958 83.095 24.958C84.1123 24.958 84.7937 25.3827 85.139 26.232C85.363 25.84 85.6757 25.532 86.077 25.308C86.4783 25.0747 86.9217 24.958 87.407 24.958ZM95.2339 32V25.126H97.3479V32H95.2339ZM95.1639 21.822H97.4319V23.796H95.1639V21.822ZM102.774 30.558C102.989 30.558 103.213 30.544 103.446 30.516L103.334 32.056C103.064 32.0933 102.793 32.112 102.522 32.112C101.477 32.112 100.712 31.8833 100.226 31.426C99.7503 30.9687 99.5123 30.2733 99.5123 29.34V26.708H98.2103V25.126H99.5123V23.11H101.626V25.126H103.348V26.708H101.626V29.326C101.626 30.1473 102.009 30.558 102.774 30.558ZM110.568 28.962H106.088C106.154 29.5127 106.331 29.914 106.62 30.166C106.919 30.4087 107.339 30.53 107.88 30.53C108.235 30.53 108.585 30.474 108.93 30.362C109.285 30.2407 109.607 30.0727 109.896 29.858L110.456 31.272C110.12 31.5333 109.71 31.7387 109.224 31.888C108.748 32.0373 108.268 32.112 107.782 32.112C106.625 32.112 105.71 31.7947 105.038 31.16C104.376 30.516 104.044 29.6433 104.044 28.542C104.044 27.842 104.189 27.2213 104.478 26.68C104.768 26.1387 105.169 25.7187 105.682 25.42C106.196 25.112 106.779 24.958 107.432 24.958C108.394 24.958 109.154 25.2707 109.714 25.896C110.284 26.5213 110.568 27.3707 110.568 28.444V28.962ZM107.488 26.414C107.087 26.414 106.765 26.5447 106.522 26.806C106.289 27.058 106.144 27.4267 106.088 27.912H108.79C108.762 27.4173 108.636 27.044 108.412 26.792C108.198 26.54 107.89 26.414 107.488 26.414ZM120.315 24.958C121.099 24.958 121.683 25.196 122.065 25.672C122.448 26.148 122.639 26.876 122.639 27.856V32H120.525V27.926C120.525 27.4593 120.451 27.1233 120.301 26.918C120.161 26.7127 119.919 26.61 119.573 26.61C119.172 26.61 118.859 26.75 118.635 27.03C118.411 27.31 118.299 27.702 118.299 28.206V32H116.185V27.926C116.185 27.4593 116.111 27.1233 115.961 26.918C115.821 26.7127 115.579 26.61 115.233 26.61C114.832 26.61 114.519 26.75 114.295 27.03C114.071 27.31 113.959 27.702 113.959 28.206V32H111.845V25.126H113.903V26.05C114.118 25.6953 114.403 25.4247 114.757 25.238C115.121 25.0513 115.537 24.958 116.003 24.958C117.021 24.958 117.702 25.3827 118.047 26.232C118.271 25.84 118.584 25.532 118.985 25.308C119.387 25.0747 119.83 24.958 120.315 24.958ZM124.106 25.126H126.374V27.366H124.106V25.126ZM124.106 29.76H126.374V32H124.106V29.76Z" fill="#525F66"/>
</svg>
