<svg width="35" height="32" viewBox="0 0 35 32" fill="none" xmlns="http://www.w3.org/2000/svg">
<path fill-rule="evenodd" clip-rule="evenodd" d="M1.6 0H17.3135C28.5918 0 35 5.59467 35 15.8032C35 26.2736 28.5918 32 17.3135 32H1.6C0.716345 32 0 31.2837 0 30.4V21.8653C1.38647 22.7797 3.09969 23.2776 4.95141 23.2776C7.86582 23.2776 10.1095 22.0979 11.7748 20.2706V14.1411H4.32689V17.6338H7.79643V18.8366C7.24131 19.2992 6.08479 19.7618 4.95141 19.7618C2.43021 19.7618 0.649182 17.8188 0.649182 15.2976C0.649182 12.7764 2.43021 10.8335 4.95141 10.8335C6.45488 10.8335 7.63452 11.7818 8.21278 12.7996L11.5435 11.0648C10.4795 9.14497 8.39782 7.31768 4.95141 7.31768C3.09969 7.31768 1.38647 7.81556 0 8.72998V1.6C0 0.716345 0.716344 0 1.6 0ZM31.0575 11.8281L27.7499 23H23.9103L21.8054 16.0841L19.7237 23H15.8841L12.5764 11.8281H16.231L18.0352 18.6746L20.2326 11.8281H23.4014L25.5988 18.6746L27.3798 11.8281H31.0575Z" fill="#00AC4A"/>
</svg>