<svg width="180" height="60" viewBox="0 0 180 60" fill="none" xmlns="http://www.w3.org/2000/svg">
<g clip-path="url(#clip0)">
<path d="M165.666 7.29297e-05H14.3422C13.7906 7.29297e-05 13.2456 7.29298e-05 12.6955 0.00307293C12.235 0.00607293 11.7781 0.0147879 11.3132 0.0221229C10.3031 0.0339756 9.29543 0.122587 8.29888 0.287188C7.30373 0.455372 6.33976 0.772447 5.43956 1.22769C4.54046 1.68678 3.71893 2.28332 3.00477 2.99568C2.28686 3.70603 1.68842 4.5271 1.23248 5.42731C0.775271 6.32574 0.458244 7.28848 0.292343 8.28229C0.124866 9.27485 0.0347448 10.2789 0.0227888 11.2853C0.00882972 11.7452 0.00735559 12.2066 0 12.6666V47.338C0.00735559 47.8037 0.00882972 48.2549 0.0227888 48.7208C0.0347485 49.7272 0.12487 50.7312 0.292343 51.7237C0.457785 52.7181 0.774831 53.6814 1.23248 54.5801C1.68821 55.4774 2.28673 56.2952 3.00477 57.0016C3.71622 57.7171 4.53828 58.314 5.43956 58.7696C6.33975 59.2261 7.30362 59.545 8.29888 59.7158C9.2956 59.8791 10.3032 59.9678 11.3132 59.981C11.7781 59.9912 12.235 59.9971 12.6955 59.9971C13.2456 60.0001 13.7906 60.0001 14.3422 60.0001H165.666C166.207 60.0001 166.756 60.0001 167.296 59.9971C167.755 59.9971 168.225 59.9912 168.683 59.981C169.691 59.9685 170.697 59.8798 171.692 59.7158C172.69 59.5438 173.657 59.225 174.562 58.7696C175.462 58.3138 176.284 57.7168 176.995 57.0016C177.711 56.2924 178.311 55.4753 178.772 54.5801C179.226 53.6807 179.54 52.7175 179.703 51.7237C179.871 50.731 179.964 49.7273 179.982 48.7208C179.988 48.2549 179.988 47.8037 179.988 47.338C180 46.793 180 46.2511 180 45.6973V14.3043C180 13.755 180 13.21 179.988 12.6666C179.988 12.2066 179.988 11.7452 179.982 11.2852C179.964 10.2787 179.871 9.27493 179.703 8.28223C179.54 7.289 179.226 6.32633 178.772 5.42725C177.843 3.62287 176.371 2.15411 174.562 1.22755C173.657 0.773424 172.69 0.456434 171.692 0.287053C170.697 0.121727 169.691 0.0330846 168.683 0.0219129C168.225 0.0145929 167.755 0.00580293 167.296 0.00287793C166.756 -0.00012207 166.207 -0.00012207 165.666 -0.00012207V7.29297e-05Z" fill="#A6A6A6"/>
<path d="M12.7021 58.6875C12.2438 58.6875 11.7966 58.6816 11.3419 58.6714C10.3999 58.6592 9.46014 58.5774 8.53029 58.4268C7.66325 58.2779 6.82332 58.0009 6.0382 57.6049C5.26029 57.2123 4.55077 56.6974 3.93682 56.08C3.31399 55.47 2.79545 54.7624 2.40176 53.9853C2.00373 53.2032 1.72827 52.3648 1.58497 51.4995C1.43023 50.5697 1.3465 49.6295 1.33452 48.687C1.32499 48.3707 1.3125 47.3174 1.3125 47.3174V12.6665C1.3125 12.6665 1.3258 11.6294 1.3346 11.3247C1.34607 10.3837 1.42931 9.44498 1.58359 8.51659C1.72715 7.64888 2.00282 6.80812 2.40107 6.02344C2.79331 5.24692 3.30897 4.53879 3.92805 3.92652C4.54644 3.30843 5.25823 2.79091 6.03747 2.39281C6.82078 1.99814 7.65912 1.7231 8.52441 1.57691C9.45732 1.42475 10.4003 1.34249 11.3456 1.33082L12.7029 1.3125H167.288L168.662 1.33155C169.599 1.34265 170.533 1.42417 171.457 1.57543C172.331 1.72346 173.178 2.00042 173.971 2.39721C175.532 3.19948 176.802 4.46874 177.603 6.02711C177.995 6.80637 178.267 7.64026 178.408 8.50048C178.565 9.43649 178.652 10.3826 178.67 11.3313C178.674 11.7561 178.674 12.2124 178.674 12.6665C178.686 13.229 178.686 13.7644 178.686 14.3042V45.6972C178.686 46.2421 178.686 46.7739 178.674 47.31C178.674 47.7978 178.674 48.2446 178.668 48.7046C178.651 49.6363 178.565 50.5655 178.411 51.4848C178.271 52.3564 177.997 53.2013 177.599 53.9898C177.203 54.7584 176.687 55.4599 176.071 56.0683C175.457 56.689 174.746 57.2069 173.966 57.6021C173.176 58.0011 172.33 58.2791 171.457 58.4268C170.528 58.5782 169.588 58.66 168.646 58.6714C168.205 58.6816 167.744 58.6875 167.296 58.6875L165.665 58.6905L12.7021 58.6875Z" fill="black"/>
<path d="M37.2583 30.451C37.2745 29.199 37.6079 27.9714 38.2277 26.8825C38.8475 25.7936 39.7334 24.8787 40.803 24.2229C40.1235 23.2552 39.2271 22.4587 38.1849 21.8969C37.1428 21.3351 35.9836 21.0233 34.7995 20.9864C32.2736 20.722 29.8248 22.4936 28.5376 22.4936C27.2255 22.4936 25.2437 21.0126 23.1097 21.0564C21.7293 21.1009 20.384 21.5012 19.2049 22.2182C18.0258 22.9353 17.053 23.9448 16.3815 25.1482C13.4723 30.1708 15.6423 37.5524 18.429 41.6123C19.8232 43.6004 21.4527 45.821 23.5849 45.7423C25.6713 45.656 26.4505 44.4156 28.969 44.4156C31.4642 44.4156 32.1953 45.7423 34.3707 45.6922C36.6095 45.656 38.0201 43.6954 39.3654 41.6885C40.3672 40.272 41.138 38.7064 41.6494 37.0497C40.3487 36.5011 39.2387 35.5829 38.4579 34.4094C37.677 33.236 37.2598 31.8593 37.2583 30.451Z" fill="white"/>
<path d="M33.1491 18.3163C34.3698 16.855 34.9712 14.9767 34.8256 13.0804C32.9606 13.2757 31.2379 14.1646 30.0007 15.5698C29.3958 16.2563 28.9325 17.055 28.6373 17.9201C28.3421 18.7853 28.2208 19.6999 28.2803 20.6119C29.2132 20.6215 30.136 20.4198 30.9794 20.0222C31.8227 19.6246 32.5646 19.0413 33.1491 18.3163Z" fill="white"/>
<path d="M63.6308 40.7095H56.5108L54.8009 45.7442H51.7852L58.5291 27.1172H61.6624L68.4064 45.7442H65.3392L63.6308 40.7095ZM57.2482 38.3862H62.892L60.1098 30.2153H60.0319L57.2482 38.3862Z" fill="white"/>
<path d="M82.973 38.9546C82.973 43.1748 80.7078 45.8862 77.2896 45.8862C76.4237 45.9314 75.5625 45.7325 74.8047 45.3123C74.0469 44.8921 73.4231 44.2675 73.0046 43.5102H72.94V50.2368H70.1445V32.1636H72.8504V34.4223H72.9018C73.3395 33.6686 73.9738 33.0474 74.7374 32.6246C75.501 32.2018 76.3652 31.9934 77.2382 32.0215C80.6946 32.0215 82.973 34.7461 82.973 38.9546ZM80.0997 38.9546C80.0997 36.2051 78.6748 34.3974 76.5007 34.3974C74.3649 34.3974 72.9282 36.2431 72.9282 38.9546C72.9282 41.6909 74.3649 43.5234 76.5007 43.5234C78.6748 43.5234 80.0997 41.729 80.0997 38.9546Z" fill="white"/>
<path d="M97.9612 38.9546C97.9612 43.1748 95.6961 45.8862 92.2779 45.8862C91.412 45.9314 90.5508 45.7325 89.793 45.3123C89.0352 44.892 88.4113 44.2675 87.9929 43.5102H87.9282V50.2368H85.1328V32.1635H87.8386V34.4223H87.89C88.3277 33.6686 88.9621 33.0473 89.7256 32.6246C90.4892 32.2018 91.3535 31.9934 92.2264 32.0215C95.6829 32.0215 97.9612 34.7461 97.9612 38.9546ZM95.088 38.9546C95.088 36.2051 93.6631 34.3974 91.489 34.3974C89.3532 34.3974 87.9165 36.2431 87.9165 38.9546C87.9165 41.6909 89.3532 43.5234 91.489 43.5234C93.6631 43.5234 95.088 41.729 95.088 38.9546H95.088Z" fill="white"/>
<path d="M107.865 40.5542C108.073 42.4014 109.872 43.6142 112.331 43.6142C114.687 43.6142 116.382 42.4013 116.382 40.7358C116.382 39.29 115.36 38.4243 112.939 37.831L110.518 37.2495C107.088 36.4233 105.496 34.8237 105.496 32.228C105.496 29.0141 108.305 26.8066 112.293 26.8066C116.24 26.8066 118.946 29.0141 119.037 32.228H116.215C116.046 30.3691 114.505 29.247 112.253 29.247C110.001 29.247 108.46 30.3823 108.46 32.0346C108.46 33.3515 109.445 34.1264 111.852 34.7196L113.91 35.2235C117.743 36.1273 119.335 37.6625 119.335 40.3871C119.335 43.872 116.551 46.0546 112.124 46.0546C107.981 46.0546 105.185 43.9232 105.004 40.5541L107.865 40.5542Z" fill="white"/>
<path d="M125.371 28.9497V32.1636H127.961V34.3711H125.371V41.8579C125.371 43.021 125.889 43.563 127.028 43.563C127.335 43.5576 127.642 43.5361 127.947 43.4985V45.6928C127.436 45.7882 126.915 45.8314 126.395 45.8217C123.637 45.8217 122.562 44.789 122.562 42.1552V34.3711H120.582V32.1636H122.562V28.9497H125.371Z" fill="white"/>
<path d="M129.461 38.9546C129.461 34.6816 131.985 31.9966 135.92 31.9966C139.868 31.9966 142.38 34.6816 142.38 38.9546C142.38 43.2393 139.882 45.9126 135.92 45.9126C131.96 45.9126 129.461 43.2392 129.461 38.9546ZM139.532 38.9546C139.532 36.0234 138.185 34.2935 135.92 34.2935C133.655 34.2935 132.309 36.0366 132.309 38.9546C132.309 41.8974 133.655 43.6143 135.92 43.6143C138.185 43.6143 139.532 41.8974 139.532 38.9546H139.532Z" fill="white"/>
<path d="M144.684 32.1636H147.35V34.4751H147.414C147.595 33.7532 148.019 33.1152 148.616 32.6684C149.212 32.2216 149.945 31.9931 150.69 32.0215C151.012 32.0204 151.334 32.0553 151.648 32.1255V34.733C151.241 34.609 150.817 34.5521 150.392 34.5645C149.986 34.5481 149.581 34.6195 149.205 34.7738C148.829 34.9281 148.491 35.1617 148.215 35.4586C147.938 35.7554 147.729 36.1085 147.602 36.4935C147.475 36.8785 147.433 37.2863 147.479 37.689V45.7442H144.684L144.684 32.1636Z" fill="white"/>
<path d="M164.535 41.7554C164.159 44.2207 161.751 45.9126 158.671 45.9126C154.709 45.9126 152.25 43.2656 152.25 39.019C152.25 34.7593 154.722 31.9966 158.553 31.9966C162.321 31.9966 164.691 34.5776 164.691 38.6953V39.6504H155.072V39.8188C155.027 40.3186 155.09 40.8221 155.256 41.2959C155.422 41.7697 155.687 42.2028 156.033 42.5667C156.38 42.9305 156.8 43.2166 157.266 43.4061C157.732 43.5955 158.233 43.684 158.735 43.6655C159.396 43.7272 160.059 43.5747 160.626 43.2305C161.192 42.8863 161.632 42.369 161.88 41.7554L164.535 41.7554ZM155.085 37.7021H161.894C161.919 37.2528 161.85 36.803 161.693 36.3812C161.536 35.9594 161.292 35.5746 160.979 35.251C160.665 34.9273 160.288 34.6718 159.87 34.5005C159.453 34.3291 159.005 34.2457 158.553 34.2554C158.098 34.2527 157.647 34.3399 157.226 34.512C156.804 34.6841 156.421 34.9377 156.099 35.2582C155.777 35.5786 155.521 35.9596 155.347 36.379C155.173 36.7985 155.084 37.2482 155.085 37.7022V37.7021Z" fill="white"/>
<path d="M53.6562 22.0465V13.0964H57.264C58.9504 13.0964 59.9639 13.9518 59.9639 15.3288C59.9643 15.7811 59.8079 16.2197 59.5212 16.5702C59.2345 16.9207 58.8351 17.1616 58.3907 17.2521V17.3576C58.9421 17.3836 59.4617 17.6229 59.8391 18.0247C60.2164 18.4264 60.422 18.9591 60.412 19.5095C60.412 21.0849 59.2618 22.0466 57.3448 22.0466L53.6562 22.0465ZM55.0503 16.8859H56.7043C57.9368 16.8859 58.5773 16.4332 58.5773 15.5836C58.5773 14.7582 57.9735 14.2748 56.9408 14.2748H55.0503V16.8859ZM57.0657 20.868C58.3217 20.868 58.9871 20.359 58.9871 19.4105C58.9871 18.4738 58.2966 17.9838 56.9849 17.9838H55.0503V20.868H57.0657Z" fill="white"/>
<path d="M61.8438 20.1364C61.8438 18.9205 62.7516 18.2196 64.363 18.12L66.1977 18.0145V17.4315C66.1977 16.7182 65.7247 16.3153 64.811 16.3153C64.0648 16.3153 63.5478 16.5885 63.3994 17.0661H62.1052C62.2418 15.9059 63.3362 15.1618 64.8727 15.1618C66.5709 15.1618 67.5286 16.0048 67.5286 17.4315V22.0465H66.2418V21.0973H66.136C65.9214 21.4378 65.6199 21.7154 65.2625 21.9017C64.9051 22.088 64.5044 22.1764 64.1015 22.1578C63.8172 22.1873 63.5298 22.1571 63.2579 22.069C62.986 21.981 62.7356 21.8371 62.5229 21.6466C62.3102 21.4562 62.1398 21.2234 62.0229 20.9633C61.9059 20.7031 61.8449 20.4215 61.8438 20.1364ZM66.1977 19.5592V18.9945L64.5437 19.1C63.6109 19.1622 63.1878 19.4787 63.1878 20.0741C63.1878 20.682 63.7167 21.0358 64.4439 21.0358C64.6569 21.0573 64.8721 21.0358 65.0767 20.9727C65.2813 20.9096 65.4711 20.806 65.6347 20.6683C65.7983 20.5305 65.9325 20.3613 66.0292 20.1708C66.126 19.9803 66.1833 19.7723 66.1977 19.5592Z" fill="white"/>
<path d="M69.4468 13.2949C69.4365 13.1222 69.4785 12.9504 69.5672 12.8018C69.6559 12.6532 69.7873 12.5346 69.9444 12.4613C70.1015 12.388 70.2771 12.3635 70.4483 12.3908C70.6196 12.4182 70.7786 12.4962 70.9049 12.6147C71.0312 12.7333 71.1189 12.8869 71.1566 13.0557C71.1943 13.2246 71.1803 13.4008 71.1165 13.5616C71.0526 13.7224 70.9418 13.8603 70.7983 13.9576C70.6549 14.0549 70.4855 14.107 70.3121 14.1071C70.2012 14.1127 70.0904 14.096 69.9862 14.0578C69.882 14.0196 69.7866 13.9608 69.7058 13.8849C69.625 13.8091 69.5604 13.7177 69.5159 13.6163C69.4714 13.5149 69.4479 13.4055 69.4468 13.2949ZM69.6452 15.2922H70.9775V22.0466H69.6451L69.6452 15.2922Z" fill="white"/>
<path d="M75.5649 19.6522L74.0843 22.0465H72.6168L74.8628 18.6847L72.5977 15.2921H74.1592L75.6149 17.6739H75.7207L77.1632 15.2921H78.6498L76.417 18.629L78.6748 22.0465H77.1396L75.6648 19.6522H75.5649Z" fill="white"/>
<path d="M79.8555 20.1364C79.8555 18.9205 80.7633 18.2196 82.3747 18.12L84.2095 18.0145V17.4315C84.2095 16.7182 83.7364 16.3153 82.8228 16.3153C82.0765 16.3153 81.5595 16.5885 81.4111 17.0661H80.1169C80.2536 15.9059 81.3479 15.1618 82.8845 15.1618C84.5826 15.1618 85.5403 16.0048 85.5403 17.4315V22.0465H84.2535V21.0973H84.1478C83.9331 21.4378 83.6316 21.7154 83.2742 21.9017C82.9168 22.088 82.5161 22.1764 82.1133 22.1578C81.8289 22.1873 81.5415 22.1571 81.2696 22.069C80.9977 21.981 80.7473 21.8371 80.5346 21.6466C80.3219 21.4562 80.1516 21.2234 80.0346 20.9633C79.9176 20.7031 79.8566 20.4215 79.8555 20.1364ZM84.2095 19.5592V18.9945L82.5554 19.1C81.6226 19.1622 81.1996 19.4787 81.1996 20.0741C81.1996 20.682 81.7284 21.0358 82.4556 21.0358C82.6686 21.0573 82.8839 21.0358 83.0884 20.9727C83.293 20.9096 83.4828 20.806 83.6464 20.6683C83.81 20.5305 83.9442 20.3613 84.0409 20.1708C84.1377 19.9803 84.195 19.7723 84.2095 19.5592Z" fill="white"/>
<path d="M87.6328 15.2922H88.9196V16.3278H89.0195C89.1636 15.9683 89.4182 15.6636 89.7468 15.4574C90.0753 15.2512 90.461 15.1541 90.8484 15.1801C91.0486 15.1774 91.2485 15.1961 91.4447 15.2358V16.5513C91.1994 16.499 90.9494 16.472 90.6985 16.4707C90.4781 16.451 90.2559 16.4774 90.0463 16.5484C89.8367 16.6194 89.6443 16.7333 89.4814 16.8829C89.3186 17.0324 89.189 17.2143 89.1008 17.4167C89.0126 17.6192 88.9679 17.8379 88.9696 18.0586V22.0466H87.6328L87.6328 15.2922Z" fill="white"/>
<path d="M96.5977 15.2922H97.8853V16.3651H97.9852C98.1546 15.9798 98.4404 15.6567 98.8027 15.441C99.1651 15.2253 99.5858 15.1277 100.006 15.1618C100.336 15.1371 100.667 15.1866 100.975 15.3068C101.282 15.4269 101.559 15.6146 101.784 15.8558C102.009 16.0971 102.177 16.3858 102.275 16.7005C102.373 17.0152 102.399 17.3479 102.351 17.674V22.0465H101.014V18.0087C101.014 16.9233 100.541 16.3835 99.5525 16.3835C99.3288 16.3731 99.1054 16.411 98.8977 16.4948C98.6901 16.5785 98.503 16.7061 98.3494 16.8686C98.1958 17.0312 98.0792 17.225 98.0077 17.4367C97.9362 17.6484 97.9115 17.873 97.9352 18.0951V22.0465H96.5977L96.5977 15.2922Z" fill="white"/>
<path d="M104.031 20.1364C104.031 18.9205 104.939 18.2196 106.551 18.12L108.385 18.0145V17.4315C108.385 16.7182 107.912 16.3153 106.999 16.3153C106.252 16.3153 105.735 16.5885 105.587 17.0661H104.293C104.429 15.9059 105.524 15.1618 107.06 15.1618C108.758 15.1618 109.716 16.0048 109.716 17.4315V22.0465H108.429V21.0973H108.324C108.109 21.4378 107.807 21.7154 107.45 21.9017C107.093 22.088 106.692 22.1764 106.289 22.1578C106.005 22.1873 105.717 22.1571 105.445 22.069C105.174 21.981 104.923 21.8371 104.71 21.6466C104.498 21.4562 104.327 21.2234 104.21 20.9633C104.093 20.7031 104.032 20.4215 104.031 20.1364ZM108.385 19.5592V18.9945L106.731 19.1C105.798 19.1622 105.375 19.4787 105.375 20.0741C105.375 20.682 105.904 21.0358 106.631 21.0358C106.844 21.0573 107.06 21.0358 107.264 20.9727C107.469 20.9096 107.659 20.806 107.822 20.6683C107.986 20.5305 108.12 20.3613 108.217 20.1708C108.313 19.9803 108.371 19.7723 108.385 19.5592H108.385Z" fill="white"/>
</g>
<defs>
<clipPath id="clip0">
<rect width="180" height="60" fill="white"/>
</clipPath>
</defs>
</svg>
