<svg width="48" height="48" viewBox="0 0 48 48" fill="none" xmlns="http://www.w3.org/2000/svg">
    <path d="M38 12H32V10C32 8.93913 31.5786 7.92172 30.8284 7.17157C30.0783 6.42143 29.0609 6 28 6H20C18.9391 6 17.9217 6.42143 17.1716 7.17157C16.4214 7.92172 16 8.93913 16 10V12H10C8.4087 12 6.88258 12.6321 5.75736 13.7574C4.63214 14.8826 4 16.4087 4 18V36C4 37.5913 4.63214 39.1174 5.75736 40.2426C6.88258 41.3679 8.4087 42 10 42H38C39.5913 42 41.1174 41.3679 42.2426 40.2426C43.3679 39.1174 44 37.5913 44 36V18C44 16.4087 43.3679 14.8826 42.2426 13.7574C41.1174 12.6321 39.5913 12 38 12ZM20 10H28V12H20V10ZM40 36C40 36.5304 39.7893 37.0391 39.4142 37.4142C39.0391 37.7893 38.5304 38 38 38H10C9.46957 38 8.96086 37.7893 8.58579 37.4142C8.21071 37.0391 8 36.5304 8 36V24.78L17.36 28C17.5724 28.0288 17.7876 28.0288 18 28H30C30.2169 27.996 30.4322 27.9623 30.64 27.9L40 24.78V36ZM40 20.56L29.68 24H18.32L8 20.56V18C8 17.4696 8.21071 16.9609 8.58579 16.5858C8.96086 16.2107 9.46957 16 10 16H38C38.5304 16 39.0391 16.2107 39.4142 16.5858C39.7893 16.9609 40 17.4696 40 18V20.56Z"
                                fill="#00AC4A"/>
</svg>