<svg width="445" height="300" viewBox="0 0 445 300" fill="none" xmlns="http://www.w3.org/2000/svg">
<rect width="170" height="169" rx="16" transform="matrix(0.987793 -0.155774 0.157098 0.987583 98 42)" fill="#FEF8E3"/>
<g clip-path="url(#clip0)">
<path d="M313.139 126.938C313.391 125.855 313.007 119.284 312.756 117.138C312.693 116.614 315.637 119.48 320.738 115.53C323.097 113.706 327.744 119.375 330.479 119.032C339.571 117.9 344.972 108.057 344.972 108.057C344.972 108.057 343.032 129.001 329.174 134.733L324.025 147.749C324.025 147.749 309.462 142.192 308.541 141.849L313.139 126.938Z" fill="#648CFF"/>
<path d="M344.113 117.404L329.453 123.331C328.239 123.821 326.85 123.234 326.355 122.017L314.004 91.3781C313.516 90.1617 314.102 88.7706 315.316 88.2743L329.969 82.3464C331.183 81.8571 332.572 82.4443 333.067 83.6606L345.418 114.3C345.921 115.523 345.334 116.914 344.113 117.404Z" fill="black"/>
<path d="M330.415 83.4159L328.078 84.3596C328.28 85.2265 327.819 86.1422 326.968 86.4847L320.36 89.1551C319.509 89.4976 318.546 89.1551 318.092 88.3931L315.755 89.3368C315.127 89.5885 314.82 90.3085 315.078 90.9377L327.429 121.577C327.68 122.206 328.398 122.514 329.026 122.255L343.687 116.327C344.315 116.075 344.622 115.355 344.364 114.726L332.013 84.087C331.762 83.4649 331.043 83.1643 330.415 83.4159Z" fill="#00CD73"/>
<path d="M335.188 118.256C336.205 118.256 337.03 117.43 337.03 116.411C337.03 115.392 336.205 114.565 335.188 114.565C334.17 114.565 333.346 115.392 333.346 116.411C333.346 117.43 334.17 118.256 335.188 118.256Z" fill="black"/>
<path d="M343.562 117.942C345.809 117.39 347.372 115.132 347.839 112.986C348.432 110.266 347.358 107.666 345.997 105.373C344.923 103.562 341.95 103.276 340.394 104.548C338.573 106.037 338.419 108.225 339.571 110.161C339.571 110.161 339.787 110.798 339.613 110.86C337.924 111.518 337.582 113.845 338.377 115.656C339.347 117.858 341.371 118.48 343.562 117.942Z" fill="#648CFF"/>
<path d="M340.737 111.119C346.731 108.232 349.299 98.5852 343.598 94.0834C341.951 92.7831 339.244 92.9719 337.967 94.7335C336.697 96.4881 337.918 98.2357 338.616 100.375C338.923 101.325 338.448 103.381 337.625 103.73C336.055 104.387 334.632 106.75 335.553 108.84C336.376 110.693 338.721 112.091 340.737 111.119Z" fill="#648CFF"/>
<path d="M343.78 96.6908C345.064 93.2235 343.898 90.3714 342.489 88.4561C339.614 84.5414 334.89 88.1834 334.89 88.1834C335.295 89.232 334.848 88.0716 335.825 90.5881C337.186 94.0973 335.26 95.6632 333.69 96.8656C332.12 98.0609 331.422 100.703 332.866 102.479C334.143 104.052 336.083 104.282 338.47 103.304C341.261 102.157 342.782 99.3891 343.78 96.6908Z" fill="#648CFF"/>
<path fill-rule="evenodd" clip-rule="evenodd" d="M344.023 96.0357C344.384 96.1705 344.568 96.573 344.433 96.9348C343.535 99.3498 342.182 101.985 339.756 103.442C339.425 103.64 338.997 103.533 338.799 103.202C338.6 102.871 338.708 102.441 339.038 102.243C341.036 101.043 342.251 98.7993 343.125 96.4468C343.26 96.085 343.662 95.901 344.023 96.0357Z" fill="black"/>
<path fill-rule="evenodd" clip-rule="evenodd" d="M345.698 105.875C346.038 106.056 346.167 106.48 345.985 106.82C344.869 108.918 343.172 110.721 341.043 111.747C340.931 111.803 340.815 111.847 340.732 111.879C340.729 111.881 340.725 111.882 340.722 111.883C340.362 112.022 339.958 111.842 339.82 111.482C339.682 111.122 339.861 110.717 340.221 110.578C340.318 110.541 340.376 110.518 340.425 110.494L340.429 110.491L340.434 110.489C342.253 109.614 343.751 108.047 344.754 106.162C344.935 105.822 345.358 105.693 345.698 105.875Z" fill="black"/>
<path d="M319.865 92.7971C314.269 94.9572 312.748 99.8155 312.099 102.661C310.871 108.008 312.462 113.678 313.013 119.291C313.125 120.437 317.995 132.377 323.396 130.392C328.797 128.406 331.567 122.402 329.585 116.991C328.517 114.076 325.35 111.832 323.612 110.874C321.84 109.903 318.804 106.953 323.054 100.123C323.424 99.5359 325.894 97.2431 325.056 95.09C324.205 92.902 321.958 91.9862 319.865 92.7971Z" fill="#648CFF"/>
<path d="M199.073 215.675L197.378 214.976L186.325 210.397L169.662 281.441C169.662 281.441 172.663 285.265 178.775 283.567C183.555 282.238 212.485 257.415 212.485 257.415L216.923 218.884L199.073 215.675Z" fill="#FDCD01"/>
<path fill-rule="evenodd" clip-rule="evenodd" d="M196.851 214.002C197.188 214.19 197.309 214.615 197.122 214.953C197.13 214.939 197.129 214.941 197.116 214.972C197.105 214.999 197.085 215.05 197.053 215.133C196.997 215.278 196.919 215.483 196.822 215.746C196.627 216.272 196.354 217.02 196.015 217.958C195.336 219.835 194.393 222.47 193.275 225.609C191.037 231.885 188.099 240.174 185.176 248.435C182.253 256.697 179.345 264.932 177.167 271.101C176.079 274.185 175.173 276.754 174.539 278.551L173.544 281.373C173.544 281.373 173.543 281.374 172.885 281.141C172.228 280.908 172.228 280.908 172.228 280.907L173.223 278.085C173.857 276.288 174.763 273.719 175.852 270.635C178.029 264.465 180.937 256.23 183.861 247.968C186.784 239.706 189.722 231.417 191.96 225.138C193.079 221.999 194.023 219.362 194.703 217.482C195.042 216.543 195.316 215.791 195.513 215.259C195.612 214.994 195.692 214.781 195.751 214.627C195.8 214.503 195.858 214.353 195.902 214.273C196.09 213.935 196.515 213.814 196.851 214.002ZM172.653 281.8C172.29 281.672 172.099 281.272 172.228 280.908L172.885 281.141L173.543 281.374C173.415 281.738 173.016 281.929 172.653 281.8Z" fill="black"/>
<path fill-rule="evenodd" clip-rule="evenodd" d="M202.507 217.873C202.779 217.6 203.221 217.599 203.494 217.872L203.001 218.367C203.494 217.872 203.494 217.872 203.494 217.872L203.495 217.873L203.498 217.876L203.506 217.884C203.513 217.891 203.522 217.901 203.534 217.913C203.558 217.938 203.592 217.973 203.634 218.019C203.719 218.111 203.84 218.244 203.986 218.417C204.279 218.762 204.677 219.265 205.11 219.906C205.972 221.185 206.98 223.028 207.538 225.271C208.097 227.52 208.203 230.171 207.258 233.039C206.313 235.906 204.334 238.943 200.798 241.993L200.798 241.993C191.478 250.028 183.58 256.897 178.342 267.751C178.174 268.098 177.757 268.244 177.41 268.076C177.063 267.908 176.918 267.49 177.085 267.142C182.467 255.99 190.59 248.949 199.887 240.933C203.269 238.017 205.082 235.184 205.933 232.601C206.783 230.02 206.689 227.642 206.184 225.609C205.676 223.57 204.754 221.876 203.953 220.689C203.554 220.097 203.187 219.634 202.923 219.322C202.79 219.166 202.684 219.048 202.612 218.971C202.576 218.932 202.549 218.903 202.531 218.885L202.512 218.865L202.508 218.862L202.508 218.861L202.508 218.861C202.235 218.589 202.235 218.146 202.507 217.873Z" fill="black"/>
<path fill-rule="evenodd" clip-rule="evenodd" d="M184.411 266.328C184.527 265.959 184.919 265.755 185.287 265.871L197.233 269.646C197.6 269.762 197.804 270.155 197.688 270.523C197.572 270.891 197.18 271.095 196.813 270.979L184.867 267.205C184.499 267.088 184.295 266.696 184.411 266.328Z" fill="black"/>
<path fill-rule="evenodd" clip-rule="evenodd" d="M190.68 261.351C191.065 261.359 191.371 261.679 191.363 262.065L191.077 275.731C191.069 276.117 190.75 276.423 190.365 276.415C189.98 276.407 189.674 276.088 189.682 275.702L189.968 262.035C189.976 261.649 190.295 261.343 190.68 261.351Z" fill="black"/>
<path fill-rule="evenodd" clip-rule="evenodd" d="M192.972 259.701C193.088 259.333 193.479 259.128 193.847 259.244L205.416 262.893C205.784 263.009 205.988 263.402 205.872 263.77C205.756 264.138 205.365 264.343 204.997 264.227L193.428 260.578C193.06 260.462 192.856 260.069 192.972 259.701Z" fill="black"/>
<path fill-rule="evenodd" clip-rule="evenodd" d="M199.249 254.724C199.635 254.732 199.94 255.052 199.932 255.438L199.653 268.748C199.645 269.134 199.326 269.44 198.941 269.432C198.556 269.424 198.25 269.104 198.258 268.718L198.537 255.408C198.545 255.022 198.864 254.716 199.249 254.724Z" fill="black"/>
<path d="M185.055 152.586L185.376 150.72L187.923 138.102H112.452C112.452 138.102 109.256 141.849 112.354 147.609C114.775 152.111 146.252 175.578 146.252 175.578L185.9 171.272L185.055 152.586Z" fill="#FDCD01"/>
<path fill-rule="evenodd" clip-rule="evenodd" d="M112.753 141.027C112.813 140.646 113.17 140.385 113.551 140.446L113.442 141.136L113.333 141.827C112.953 141.766 112.693 141.408 112.753 141.027ZM113.442 141.136C113.333 141.827 113.334 141.827 113.334 141.827L116.37 142.307C118.303 142.613 121.066 143.05 124.384 143.575C131.021 144.626 139.88 146.031 148.77 147.444C157.66 148.858 166.581 150.28 173.34 151.367C176.719 151.91 179.558 152.37 181.582 152.702C182.595 152.868 183.402 153.003 183.971 153.1C184.256 153.148 184.48 153.187 184.638 153.216C184.747 153.236 184.81 153.248 184.84 153.254C184.86 153.258 184.865 153.259 184.86 153.258C185.23 153.366 185.617 153.152 185.725 152.782C185.833 152.411 185.62 152.023 185.25 151.915C185.175 151.893 185.03 151.866 184.887 151.841C184.721 151.81 184.492 151.77 184.206 151.722C183.632 151.624 182.821 151.489 181.808 151.322C179.782 150.989 176.941 150.53 173.561 149.986C166.8 148.899 157.879 147.477 148.989 146.063C140.099 144.65 131.239 143.246 124.602 142.194C121.284 141.669 118.521 141.232 116.588 140.926L113.552 140.446C113.551 140.446 113.551 140.446 113.442 141.136Z" fill="black"/>
<path fill-rule="evenodd" clip-rule="evenodd" d="M127.458 143.306C127.544 142.93 127.919 142.696 128.295 142.783C140.688 145.655 149.696 151.651 159.895 159.175C163.962 162.177 167.493 163.198 170.484 163.109C173.478 163.02 176.016 161.817 178.089 160.219C180.165 158.618 181.751 156.636 182.823 155.043C183.357 154.248 183.759 153.555 184.027 153.063C184.161 152.818 184.261 152.622 184.326 152.49C184.359 152.424 184.384 152.373 184.399 152.34L184.417 152.304L184.42 152.296L184.421 152.295C184.421 152.295 184.421 152.295 184.421 152.295C184.582 151.944 184.996 151.79 185.346 151.951C185.697 152.112 185.85 152.527 185.689 152.878L185.055 152.586C185.689 152.878 185.689 152.879 185.689 152.879L185.686 152.884L185.68 152.897C185.675 152.908 185.668 152.924 185.659 152.943C185.64 152.983 185.612 153.04 185.575 153.114C185.502 153.26 185.395 153.471 185.252 153.733C184.967 154.256 184.542 154.987 183.98 155.823C182.859 157.492 181.175 159.603 178.94 161.327C176.701 163.054 173.887 164.407 170.525 164.507C167.159 164.606 163.329 163.446 159.068 160.3C148.892 152.795 140.078 146.949 127.98 144.145C127.605 144.058 127.371 143.683 127.458 143.306Z" fill="black"/>
<path fill-rule="evenodd" clip-rule="evenodd" d="M130.917 149.387C131.301 149.419 131.587 149.757 131.555 150.141L130.495 163.025C130.463 163.41 130.126 163.696 129.742 163.664C129.358 163.632 129.072 163.295 129.104 162.91L130.165 150.026C130.196 149.642 130.533 149.355 130.917 149.387Z" fill="black"/>
<path fill-rule="evenodd" clip-rule="evenodd" d="M137.314 154.55C137.391 154.929 137.148 155.298 136.77 155.375L123.01 158.2C122.632 158.277 122.264 158.033 122.186 157.655C122.109 157.277 122.352 156.907 122.73 156.83L136.49 154.006C136.867 153.928 137.236 154.172 137.314 154.55Z" fill="black"/>
<path fill-rule="evenodd" clip-rule="evenodd" d="M139.513 156.496C139.897 156.528 140.183 156.866 140.151 157.251L139.126 169.722C139.094 170.106 138.757 170.393 138.373 170.361C137.989 170.329 137.703 169.991 137.735 169.607L138.761 157.136C138.792 156.751 139.129 156.465 139.513 156.496Z" fill="black"/>
<path fill-rule="evenodd" clip-rule="evenodd" d="M145.917 161.66C145.994 162.038 145.751 162.407 145.373 162.485L131.955 165.239C131.578 165.316 131.209 165.073 131.132 164.694C131.054 164.316 131.298 163.947 131.675 163.869L145.093 161.115C145.471 161.038 145.84 161.281 145.917 161.66Z" fill="black"/>
<path d="M263.57 46.5762C261.246 46.6811 259.837 49.5052 259.676 49.7569C258.546 51.5395 255.713 55.6568 250.465 55.2234C247.06 54.9438 244.709 53.4548 243.222 52.0218C245.595 50.9383 248.051 49.4004 249.6 47.7436C251.031 46.2127 251.226 43.5703 249.6 42.0674C248.044 40.6344 245.511 40.4736 243.934 42.0674C241.925 44.1086 240.431 45.2201 234.696 45.8492C228.192 46.5693 226.036 47.5549 223.782 51.4486L222.045 57.6561L237.27 69.9453C239.894 72.8603 243.355 75.293 247.43 73.9858C249.523 73.3147 251.505 71.644 252.482 69.6517C252.622 69.3651 252.726 69.0715 252.81 68.7639C255.315 68.3235 257.82 67.261 259.53 65.3945C260.876 63.9196 261.825 62.0321 261.888 60.0049C261.888 59.9979 261.888 59.9979 261.888 59.9909C262.844 59.236 263.737 58.3552 264.553 57.3345C265.782 55.8036 267.582 53.1962 267.568 50.5888C267.568 48.4846 265.6 46.4854 263.57 46.5762Z" fill="#648CFF"/>
<path fill-rule="evenodd" clip-rule="evenodd" d="M239.714 65.6545C239.891 65.3113 240.312 65.1765 240.654 65.3534C241.314 65.694 241.99 66.009 242.679 66.3126C245.332 67.4604 248.107 68.4453 250.885 68.2902C250.967 68.2834 251.08 68.2746 251.192 68.2746C251.577 68.2746 251.89 68.5876 251.89 68.9737C251.89 69.3597 251.577 69.6727 251.192 69.6727C251.141 69.6727 251.077 69.6771 250.992 69.6843L250.983 69.685L250.973 69.6856C247.839 69.8633 244.798 68.7525 242.123 67.5952L242.119 67.5933L242.119 67.5933C241.413 67.282 240.708 66.9542 240.015 66.5961C239.672 66.4192 239.538 65.9976 239.714 65.6545Z" fill="black"/>
<path fill-rule="evenodd" clip-rule="evenodd" d="M261.119 60.584C261.324 60.911 261.226 61.3424 260.899 61.5477C256.4 64.3765 250.894 64.724 245.423 63.0792C245.054 62.9682 244.845 62.5784 244.955 62.2087C245.066 61.8389 245.455 61.6291 245.824 61.7401C251.002 63.2969 256.074 62.9313 260.157 60.3635C260.484 60.1583 260.914 60.257 261.119 60.584Z" fill="black"/>
<path d="M279.45 95.083C279.45 95.083 282.827 96.3762 282.555 100.165C282.213 104.926 280.064 106.429 283.965 110.008C285.967 111.846 288.905 117.788 282.639 119.207C275.849 120.745 251.727 103.646 251.727 103.646C251.727 103.646 248.601 100.843 251.071 96.1875C253.716 91.2033 258.503 93.6639 260.603 90.2945C264.183 84.5624 279.45 95.083 279.45 95.083Z" fill="black"/>
<path d="M332.027 134.062C332.027 134.062 320.276 173.488 305.358 177.885C284.829 183.939 262.668 144.296 262.668 144.296L290.67 122.849L298.52 138.892L311.087 124.834L332.027 134.062Z" fill="#FED4FF"/>
<path d="M239.705 71.5671L228.994 95.3976C228.994 95.3976 256.375 141.29 257.672 145.365L217.718 151.098C217.718 151.098 187.783 108.022 192.242 86.0094C194.963 72.5668 220.516 54.9298 220.516 54.9298L239.705 71.5671Z" fill="#FED4FF"/>
<path d="M300.258 144.736L295.227 128.721C292.945 122.15 288.026 116.83 281.655 114.048L225.379 89.4976L217.725 151.104L273.212 155.788L300.258 144.736Z" fill="#FED4FF"/>
<mask id="mask0" mask-type="alpha" maskUnits="userSpaceOnUse" x="191" y="54" width="142" height="125">
<path fill-rule="evenodd" clip-rule="evenodd" d="M230.618 91.7832L239.705 71.5671L220.516 54.9298C220.516 54.9298 194.963 72.5668 192.242 86.0094C187.783 108.022 217.718 151.098 217.718 151.098L217.726 151.096L217.725 151.104L270.022 155.519C278.241 166.731 292.139 181.783 305.359 177.885C320.277 173.488 332.028 134.062 332.028 134.062L311.087 124.834L298.52 138.892L298.245 138.33L295.227 128.721C292.945 122.15 288.026 116.83 281.655 114.048L230.618 91.7832Z" fill="#FED4FF"/>
</mask>
<g mask="url(#mask0)">
<path d="M195.536 97.6694C204.007 84.3386 213.371 71.616 223.586 59.5714C223.168 59.3967 222.742 59.2219 222.323 59.0471C220.188 87.5123 202.074 111.469 197.469 139.36C197.399 139.794 197.58 140.108 197.985 140.269C200.462 141.269 202.123 139.228 203.56 137.41C205.933 134.397 208.054 131.168 210.057 127.896C214.194 121.143 217.725 114.048 221.2 106.946C228.234 92.5664 235.169 77.9074 246.243 66.1215C245.832 66.0096 245.42 65.9048 245.008 65.7929C247.018 70.6513 244.631 75.7613 242.936 80.375C241.163 85.1775 239.279 89.945 237.27 94.6495C233.46 103.59 229.224 112.356 224.591 120.899C216.623 135.586 205.179 150.091 204.712 167.497C204.705 167.868 205.06 168.273 205.451 168.238C209.491 167.854 211.773 164.33 213.95 161.255C216.881 157.116 219.393 152.698 221.612 148.147C226.21 138.703 229.566 128.714 233.062 118.823C239.9 99.4939 248.26 78.921 266.158 67.3099C265.795 67.0302 265.432 66.7506 265.069 66.471C256.71 87.2676 248.902 108.281 241.708 129.511C238.107 140.122 234.66 150.79 231.36 161.499C229.971 166.008 227.899 170.79 227.354 175.494C227.075 177.906 227.438 180.311 229.755 181.513C230.013 181.646 230.446 181.66 230.648 181.394C243.396 164.911 250.842 145.393 257.115 125.701C260.359 115.509 263.332 105.24 266.702 95.0899C269.737 85.9534 273.115 73.2378 283.686 70.3927C283.386 70.2179 283.079 70.0501 282.779 69.8754C285.982 81.5984 281.565 93.4821 277.671 104.485C274.029 114.789 269.996 124.946 266.151 135.173C262.32 145.365 258.65 155.634 255.775 166.141C254.31 171.482 253.026 176.885 252.07 182.345C251.497 185.595 250.939 188.923 253.333 191.558C253.584 191.838 254.128 191.852 254.379 191.558C281.355 159.542 271.586 111.056 299.365 79.5991C298.946 79.4243 298.521 79.2496 298.102 79.0748C298.011 115.53 273.722 146.393 271.189 182.457C271.14 183.107 272.026 183.421 272.452 182.981C299.065 155.208 293.518 111.615 316.614 81.7731C316.23 81.7242 315.839 81.6752 315.456 81.6263C320.228 88.8055 319.698 97.5296 318.017 105.625C316.237 114.188 313.614 122.618 310.962 130.944C305.436 148.322 298.863 165.344 292.296 182.345C292.017 183.065 293.036 183.547 293.532 183.065C310.411 166.588 316.949 143.24 322.845 121.101C322.371 121.101 321.896 121.101 321.422 121.101C325.636 142.22 307.899 161.297 313.446 182.443C313.69 183.365 315.114 182.974 314.87 182.051C309.357 161.024 327.067 141.87 322.845 120.71C322.699 119.976 321.603 120.032 321.422 120.71C315.595 142.611 309.19 165.721 292.492 182.023C292.904 182.261 293.315 182.506 293.727 182.743C300.774 164.498 307.829 146.232 313.586 127.526C316.244 118.899 319.119 110.049 320.298 101.074C321.219 94.0484 320.745 86.9181 316.733 80.8783C316.502 80.5288 315.881 80.3261 315.574 80.7315C292.485 110.574 297.948 154.25 271.412 181.939C271.831 182.114 272.256 182.289 272.675 182.464C275.208 146.4 299.498 115.572 299.588 79.0818C299.588 78.4666 298.758 78.0682 298.325 78.5575C270.491 110.07 280.281 158.542 253.347 190.51C253.695 190.51 254.044 190.51 254.393 190.51C252.021 187.902 253.284 183.883 253.863 180.849C254.344 178.332 254.882 175.837 255.475 173.348C256.703 168.168 258.154 163.037 259.745 157.955C262.885 147.952 266.59 138.144 270.33 128.357C274.078 118.557 277.887 108.77 281.202 98.8088C284.356 89.3368 286.924 79.3824 284.216 69.4839C284.112 69.0994 283.693 68.8617 283.309 68.9666C270.784 72.329 267.274 88.442 263.848 99.1164C259.103 113.901 254.986 128.903 249.46 143.422C246.697 150.692 243.564 157.836 239.831 164.666C238.093 167.847 236.23 170.957 234.214 173.97C233.425 175.152 232.092 177.892 230.899 178.661C228.017 180.52 228.743 175.788 229.085 174.25C230.934 165.763 234.179 157.333 236.83 149.063C239.565 140.528 242.398 132.021 245.322 123.541C251.902 104.471 258.978 85.5759 266.507 66.8625C266.751 66.2543 265.934 65.6951 265.418 66.0236C249.914 76.0829 241.198 92.9369 234.793 109.756C231.171 119.27 228.129 128.994 224.298 138.431C222.268 143.443 220.007 148.378 217.348 153.09C214.99 157.277 210.733 166.246 205.444 166.749C205.688 166.994 205.94 167.245 206.184 167.49C206.449 157.689 210.419 148.805 215.122 140.374C219.686 132.195 224.598 124.247 228.889 115.914C233.174 107.603 237.081 99.0955 240.605 90.4343C242.391 86.0373 244.122 81.5984 245.671 77.1105C247.011 73.2308 248.05 69.3371 246.425 65.4015C246.222 64.9191 245.608 64.6255 245.19 65.0729C235.442 75.4398 228.806 88.0366 222.589 100.724C219.421 107.183 216.33 113.678 212.896 119.997C211.145 123.22 209.303 126.393 207.321 129.476C205.947 131.608 201.446 140.08 198.376 138.843C198.55 139.144 198.718 139.451 198.892 139.752C203.518 111.72 221.654 87.6661 223.803 59.0402C223.852 58.418 222.951 58.0335 222.54 58.5159C212.248 70.6583 202.8 83.4718 194.259 96.9144C193.742 97.7253 195.026 98.4733 195.536 97.6694Z" fill="#FDCD01"/>
</g>
<path d="M279.603 93.6709C279.652 93.2864 279.68 92.895 279.68 92.4895C279.68 87.1418 275.354 82.8078 270.016 82.8078C264.678 82.8078 260.352 87.1418 260.352 92.4895C260.352 97.8372 264.678 102.171 270.016 102.171C273.7 102.171 276.903 100.102 278.536 97.0613C278.808 97.2221 279.122 97.3129 279.457 97.3129C280.462 97.3129 281.278 96.4951 281.278 95.4884C281.271 94.5307 280.538 93.7478 279.603 93.6709Z" fill="#648CFF"/>
<path d="M277.629 82.8148C279.929 82.8148 281.794 80.9463 281.794 78.6414C281.794 76.3366 279.929 74.4681 277.629 74.4681C275.328 74.4681 273.463 76.3366 273.463 78.6414C273.463 80.9463 275.328 82.8148 277.629 82.8148Z" fill="black"/>
<path d="M279.45 93.6639C279.499 93.6639 279.555 93.6709 279.603 93.6709C279.652 93.2864 279.673 92.895 279.673 92.4895C279.673 88.3582 277.091 84.835 273.449 83.4439C273.086 90.2526 276.205 93.1536 278.082 94.2721C278.424 93.9016 278.906 93.6639 279.45 93.6639Z" fill="black"/>
<path fill-rule="evenodd" clip-rule="evenodd" d="M273.308 83.2266L273.504 83.3014C277.203 84.7144 279.826 88.2931 279.826 92.4901C279.826 92.9008 279.805 93.2988 279.755 93.6908L279.738 93.8246H279.604C279.574 93.8246 279.544 93.8225 279.519 93.8209L279.517 93.8207C279.49 93.8189 279.469 93.8176 279.45 93.8176C278.952 93.8176 278.51 94.0348 278.195 94.3766L278.111 94.4676L278.005 94.4042C277.048 93.8343 275.778 92.8116 274.793 91.0678C273.808 89.3232 273.114 86.8662 273.297 83.4363L273.308 83.2266ZM273.592 83.6652C273.451 86.9323 274.126 89.2649 275.059 90.917C275.978 92.5436 277.151 93.5193 278.058 94.079C278.42 93.7313 278.905 93.5114 279.45 93.5114C279.456 93.5114 279.463 93.5115 279.469 93.5117C279.505 93.1796 279.521 92.8407 279.521 92.4901C279.521 88.4992 277.073 85.0845 273.592 83.6652Z" fill="black"/>
<path d="M260.604 90.2947C271.077 90.2038 273.157 84.3947 273.429 83.4301C272.368 83.0316 271.217 82.8079 270.017 82.8079C265.432 82.8149 261.594 86.0095 260.604 90.2947Z" fill="black"/>
<path fill-rule="evenodd" clip-rule="evenodd" d="M270.016 82.6547L270.016 82.6547C271.235 82.6547 272.405 82.8819 273.482 83.2866L273.613 83.336L273.575 83.4715C273.433 83.9737 272.833 85.6972 270.94 87.3066C269.045 88.9177 265.871 90.4019 260.604 90.4476L260.41 90.4493L260.454 90.26C261.46 85.9068 265.359 82.6618 270.016 82.6547ZM270.016 82.9609C265.572 82.9677 261.841 86.0179 260.798 90.1391C265.887 90.0592 268.934 88.6109 270.742 87.0732C272.427 85.6407 273.049 84.1201 273.24 83.5239C272.233 83.1626 271.147 82.9609 270.016 82.9609Z" fill="black"/>
<path d="M294.495 228.922L250.116 228.531L241.436 189.133L273.205 151.454L294.495 228.922Z" fill="#00CD73"/>
<path d="M295.687 236.689C295.687 250.921 284.166 262.462 269.959 262.462C255.753 262.462 244.232 250.921 244.232 236.689C244.232 222.456 255.753 210.915 269.959 210.915C284.166 210.915 295.687 222.449 295.687 236.689Z" fill="#00CD73"/>
<path d="M270.937 262.441L207.195 264.615V208.636L268.272 216.486L275.675 254.535L270.937 262.441Z" fill="#00CD73"/>
<path d="M251.735 184.638L214.272 226.559L192.361 191.551L217.726 151.104L273.206 151.566L251.735 184.638Z" fill="#00CD73"/>
<path d="M170.988 222.358L140.418 173.348L188.195 155.04L198.354 181.988L185.585 222.498L170.988 222.358Z" fill="#00CD73"/>
<path d="M221.081 208.636C221.081 223.533 209.03 235.605 194.16 235.605C179.291 235.605 167.24 223.533 167.24 208.636C167.24 193.739 179.291 181.667 194.16 181.667C209.03 181.667 221.081 193.739 221.081 208.636Z" fill="#00CD73"/>
<path fill-rule="evenodd" clip-rule="evenodd" d="M279.76 138.336C280.105 138.507 280.246 138.927 280.075 139.273L274.702 150.129C274.531 150.475 274.112 150.616 273.767 150.445C273.422 150.273 273.28 149.854 273.452 149.508L278.825 138.652C278.996 138.306 279.414 138.164 279.76 138.336Z" fill="black"/>
<path fill-rule="evenodd" clip-rule="evenodd" d="M226.465 212.918C226.752 213.175 226.777 213.617 226.52 213.905L214.791 227.024C214.791 227.024 214.791 227.025 214.791 227.025C213.287 228.717 211.584 230.215 209.717 231.498C209.4 231.716 208.965 231.635 208.747 231.317C208.529 230.998 208.61 230.563 208.928 230.345C210.704 229.125 212.322 227.702 213.749 226.095L213.75 226.093L225.48 212.972C225.737 212.684 226.178 212.66 226.465 212.918Z" fill="black"/>
<path d="M179.131 133.16H124.391V138.144H179.131V133.16Z" fill="#FDCD01"/>
<path d="M175.86 129.259H127.664V135.656H175.86V129.259Z" fill="#FDCD01"/>
<path d="M153.384 111.308H150.146V133.16H153.384V111.308Z" fill="#FDCD01"/>
<path d="M151.764 112.902C139.651 112.902 129.84 103.073 129.84 90.9377V52.4902H173.688V90.9377C173.688 103.073 163.87 112.902 151.764 112.902Z" fill="#FDCD01"/>
<path fill-rule="evenodd" clip-rule="evenodd" d="M147.444 62.4884C147.591 62.349 147.786 62.2714 147.989 62.2714H157.144C157.582 62.2714 157.937 62.6275 157.937 63.0667V80.7612H162.572C163.011 80.7612 163.366 81.1172 163.366 81.5565V88.491C163.366 88.9302 163.011 89.2863 162.572 89.2863H140.948C140.51 89.2863 140.154 88.9302 140.154 88.491V81.5635C140.154 81.1242 140.51 80.7682 140.948 80.7682H147.195V73.2275C145.386 74.1182 143.274 74.2428 141.583 74.2428C141.145 74.2428 140.789 73.8868 140.789 73.4475V65.793C140.789 65.3538 141.145 64.9977 141.583 64.9977C143.491 64.9977 145.474 64.3512 147.444 62.4884ZM148.299 63.862C146.369 65.6031 144.362 66.394 142.377 66.5562V72.6402C144.244 72.5803 146.137 72.271 147.487 71.1675C147.724 70.9734 148.052 70.9337 148.329 71.0654C148.606 71.1971 148.783 71.4767 148.783 71.7838V81.5635C148.783 82.0027 148.427 82.3588 147.989 82.3588H141.742V87.6957H161.778V82.3518H157.144C156.705 82.3518 156.35 81.9957 156.35 81.5565V63.862H148.299Z" fill="black"/>
<path d="M129.841 91.0495C120.986 91.0495 113.785 83.8354 113.785 74.9645C113.785 66.0936 120.986 58.8794 129.841 58.8794V63.584C123.575 63.584 118.481 68.687 118.481 74.9645C118.481 81.2419 123.575 86.3449 129.841 86.3449V91.0495Z" fill="#FDCD01"/>
<path d="M173.689 58.8794C182.544 58.8794 189.745 66.0936 189.745 74.9645C189.745 83.8354 182.544 91.0495 173.689 91.0495V86.3449C179.955 86.3449 185.049 81.2419 185.049 74.9645C185.049 68.687 179.955 63.584 173.689 63.584V58.8794Z" fill="#FDCD01"/>
<path d="M195.773 208.042C195.529 208.042 195.278 208.035 195.034 208.028C189.41 207.783 184.288 204.777 181.329 199.982L160.18 165.756L162.845 164.743L183.702 198.507C186.214 202.575 190.386 205.022 195.152 205.232C199.925 205.441 204.293 203.358 207.14 199.527L243.111 151.188L246.551 151.223L209.373 201.198C206.163 205.518 201.118 208.042 195.773 208.042Z" fill="#FED4FF"/>
<path d="M249.585 244.175H207.195V241.379H249.585C255.363 241.379 260.666 238.723 264.134 234.095C267.602 229.467 268.669 223.623 267.058 218.066L255.949 179.73L258.182 177.389L269.737 217.29C271.593 223.7 270.365 230.439 266.36 235.78C262.369 241.114 256.249 244.175 249.585 244.175Z" fill="#FED4FF"/>
<path fill-rule="evenodd" clip-rule="evenodd" d="M260.804 174.024C261.094 174.279 261.123 174.72 260.87 175.011L244.758 193.452C244.504 193.742 244.063 193.772 243.773 193.517C243.483 193.263 243.454 192.821 243.708 192.531L259.82 174.09C260.073 173.8 260.514 173.77 260.804 174.024Z" fill="black"/>
<path d="M180.988 61.7455C176.947 60.5292 174.77 57.2716 173.703 52.7908C172.635 57.2716 170.458 60.5292 166.418 61.7455C170.458 62.9619 172.635 66.2194 173.703 70.7003C174.763 66.2194 176.947 62.9619 180.988 61.7455Z" fill="#FED4FF"/>
<path d="M323.968 182.422C322.217 181.897 321.275 180.485 320.814 178.549C320.354 180.485 319.412 181.897 317.66 182.422C319.412 182.946 320.354 184.358 320.814 186.294C321.282 184.358 322.224 182.946 323.968 182.422Z" fill="#FED4FF"/>
<path d="M136.015 40.7252C130.83 39.1664 128.032 34.9791 126.665 29.2329C125.297 34.9861 122.499 39.1664 117.314 40.7252C122.499 42.2841 125.297 46.4714 126.665 52.2175C128.039 46.4714 130.83 42.2911 136.015 40.7252Z" fill="#FED4FF"/>
<path fill-rule="evenodd" clip-rule="evenodd" d="M131.117 133.167C131.117 132.781 131.43 132.468 131.815 132.468H172.607C172.992 132.468 173.305 132.781 173.305 133.167C173.305 133.553 172.992 133.866 172.607 133.866H131.815C131.43 133.866 131.117 133.553 131.117 133.167Z" fill="black"/>
<path fill-rule="evenodd" clip-rule="evenodd" d="M123.693 138.144C123.693 137.758 124.006 137.445 124.391 137.445H179.132C179.517 137.445 179.83 137.758 179.83 138.144C179.83 138.53 179.517 138.843 179.132 138.843H124.391C124.006 138.843 123.693 138.53 123.693 138.144Z" fill="black"/>
<path fill-rule="evenodd" clip-rule="evenodd" d="M192.842 25.9194C193.131 25.9194 193.365 26.1542 193.365 26.4437V53.0774C193.365 53.3669 193.131 53.6016 192.842 53.6016C192.553 53.6016 192.318 53.3669 192.318 53.0774V26.4437C192.318 26.1542 192.553 25.9194 192.842 25.9194Z" fill="black"/>
<path fill-rule="evenodd" clip-rule="evenodd" d="M179.025 39.7606C179.025 39.471 179.26 39.2363 179.549 39.2363H206.134C206.423 39.2363 206.657 39.471 206.657 39.7606C206.657 40.0501 206.423 40.2848 206.134 40.2848H179.549C179.26 40.2848 179.025 40.0501 179.025 39.7606Z" fill="black"/>
<path fill-rule="evenodd" clip-rule="evenodd" d="M202.611 29.9737C202.816 30.1784 202.816 30.5104 202.611 30.7151L183.813 49.5474C183.609 49.7522 183.278 49.7522 183.073 49.5474C182.869 49.3427 182.869 49.0107 183.073 48.806L201.871 29.9737C202.076 29.7689 202.407 29.7689 202.611 29.9737Z" fill="black"/>
<path fill-rule="evenodd" clip-rule="evenodd" d="M183.073 29.9737C183.278 29.7689 183.609 29.7689 183.813 29.9737L202.611 48.806C202.816 49.0107 202.816 49.3427 202.611 49.5474C202.407 49.7522 202.076 49.7522 201.871 49.5474L183.073 30.7151C182.869 30.5104 182.869 30.1784 183.073 29.9737Z" fill="black"/>
<path fill-rule="evenodd" clip-rule="evenodd" d="M307.614 187.373C307.824 187.373 307.995 187.544 307.995 187.755V207.161C307.995 207.372 307.824 207.543 307.614 207.543C307.403 207.543 307.232 207.372 307.232 207.161V187.755C307.232 187.544 307.403 187.373 307.614 187.373Z" fill="black"/>
<path fill-rule="evenodd" clip-rule="evenodd" d="M297.547 197.458C297.547 197.247 297.718 197.076 297.928 197.076H317.298C317.509 197.076 317.68 197.247 317.68 197.458C317.68 197.669 317.509 197.84 317.298 197.84H297.928C297.718 197.84 297.547 197.669 297.547 197.458Z" fill="black"/>
<path fill-rule="evenodd" clip-rule="evenodd" d="M314.728 190.33C314.877 190.48 314.877 190.721 314.728 190.871L301.038 204.586C300.889 204.735 300.647 204.735 300.498 204.586C300.349 204.437 300.349 204.195 300.498 204.046L314.189 190.33C314.338 190.181 314.579 190.181 314.728 190.33Z" fill="black"/>
<path fill-rule="evenodd" clip-rule="evenodd" d="M300.498 190.33C300.647 190.181 300.889 190.181 301.038 190.33L314.728 204.046C314.877 204.195 314.877 204.437 314.728 204.586C314.579 204.735 314.338 204.735 314.189 204.586L300.498 190.871C300.349 190.721 300.349 190.48 300.498 190.33Z" fill="black"/>
<path d="M263.91 16L268.215 24.7381L277.838 26.1362L270.874 32.9379L272.521 42.5428L263.91 38.0059L255.299 42.5428L256.946 32.9379L249.982 26.1362L259.605 24.7381L263.91 16Z" fill="#FDCD01"/>
</g>
<defs>
<clipPath id="clip0">
<rect width="237" height="268" fill="white" transform="translate(111 16)"/>
</clipPath>
</defs>
</svg>
