<svg width="445" height="292" viewBox="0 0 445 292" fill="none" xmlns="http://www.w3.org/2000/svg">
<rect width="218.538" height="217.252" rx="16" transform="matrix(0.987793 -0.155774 0.157098 0.987583 98 53.2798)" fill="#FEF8E3"/>
<g clip-path="url(#clip0)">
<path d="M191.424 155.891L230.444 197.963L258.395 184.758L223.457 131.877L191.424 155.891Z" fill="#648CFF"/>
<path d="M229.282 246.015L233.81 253.997L229.192 261.957H220.001L215.428 253.967L220.046 246.008H229.237L229.282 246.015ZM235.44 235.312L213.904 235.251L203.075 253.899L213.791 272.615L235.334 272.683L246.155 254.027L235.44 235.312Z" fill="#00CD73"/>
<path d="M303.407 113.078C303.3 112.724 303.115 112.399 302.865 112.127C302.616 111.855 302.308 111.642 301.965 111.506C301.603 111.355 298.449 109.949 297.159 109.813C296.304 109.717 295.444 109.689 294.585 109.729C293.951 109.668 293.361 109.378 292.925 108.913C293.001 107.983 293.076 107.091 293.129 106.524C293.154 104.273 293.571 102.042 294.359 99.9332L295.446 99.7215L298.766 99.0639C299.479 98.8635 300.085 98.3878 300.449 97.7411C300.736 97.2508 300.857 96.681 300.796 96.116C301.238 96.0939 301.669 95.9697 302.056 95.7531C302.376 95.5723 302.655 95.3273 302.876 95.0333C303.096 94.7393 303.254 94.4028 303.339 94.0448C303.431 93.6365 303.438 93.2133 303.359 92.8021C303.28 92.391 303.116 92.0008 302.878 91.6562C302.771 91.5087 302.647 91.3742 302.509 91.2556C302.715 90.9615 302.875 90.6378 302.984 90.2957C303.079 89.9303 303.1 89.5498 303.047 89.1762C302.994 88.8025 302.867 88.4431 302.675 88.1187L302.599 88.0129C302.569 87.9683 302.536 87.9254 302.501 87.8844C302.442 87.7987 302.377 87.7178 302.305 87.6425L302.146 87.4989C302.07 87.4265 301.989 87.3584 301.905 87.2948C301.827 87.24 301.747 87.1896 301.664 87.1436C301.588 87.1436 301.52 87.0529 301.452 87.0227C301.298 86.9458 301.136 86.885 300.969 86.8413C300.605 86.7453 300.225 86.7247 299.852 86.7808C299.48 86.8304 299.121 86.9538 298.796 87.1436L298.698 87.2041L298.57 87.2797H298.517L298.17 87.4989L297.325 88.0053L295.166 89.3206L294.118 89.1089L293.868 89.056C293.113 88.8648 292.312 88.9817 291.642 89.381C290.993 89.7968 290.36 90.2352 289.726 90.6585L286.798 92.6087C285.952 93.1269 285.149 93.7134 284.398 94.3623C283.415 95.325 282.722 96.5457 282.399 97.8847C282.24 98.5499 274.853 112.503 274.853 112.503L276.249 116.283L282.625 122.33L289.975 116.933C291.701 116.284 293.496 115.837 295.325 115.603C296.947 115.504 299.007 116.464 299.513 116.676C300.209 116.973 300.99 117.005 301.709 116.767C302.401 116.507 302.966 115.99 303.286 115.323C303.613 114.618 303.656 113.814 303.407 113.078Z" fill="#648CFF"/>
<path fill-rule="evenodd" clip-rule="evenodd" d="M294.097 90.0582C294.186 90.1968 294.146 90.3816 294.008 90.4709L293.322 90.9142L287.549 95.7775C287.423 95.8837 287.234 95.8674 287.129 95.7412C287.023 95.615 287.039 95.4266 287.165 95.3205L292.967 90.4329L293.685 89.9692C293.823 89.8798 294.007 89.9196 294.097 90.0582Z" fill="black"/>
<path d="M289.258 129.11L275.622 96.9474L257.376 104.166L237.281 96.1235L231.455 100.916L241.189 125.996C242.582 129.616 245.269 132.587 248.729 134.331C252.188 136.075 256.172 136.466 259.904 135.429L289.258 129.11Z" fill="#0010F3"/>
<path d="M347.075 58.73L329.901 20.6411C328.875 20.5318 327.838 20.6954 326.896 21.1155C325.954 21.5357 325.139 22.1974 324.533 23.0339C323.928 23.8704 323.553 24.8521 323.448 25.8799C323.342 26.9077 323.509 27.9452 323.932 28.8878L327.312 36.3861C327.684 37.2161 327.831 38.1296 327.738 39.0346C327.646 39.9396 327.316 40.8042 326.784 41.5412L317.729 54.0284C317.195 54.7677 316.475 55.3527 315.643 55.7243C314.811 56.0959 313.896 56.241 312.99 56.1449L297.634 54.55C296.728 54.4592 295.862 54.1323 295.122 53.6018C294.382 53.0713 293.794 52.3557 293.416 51.5264L287.084 37.467C286.709 36.6382 286.56 35.7246 286.651 34.8192C286.743 33.9137 287.072 33.0487 287.605 32.3119L292.427 25.6526C293.03 24.814 293.402 23.831 293.505 22.8026C293.608 21.7743 293.439 20.7369 293.014 19.7949C292.589 18.853 291.924 18.0398 291.086 17.4372C290.248 16.8347 289.266 16.4641 288.239 16.3628L263.752 50.2036L283.719 94.8536L262.59 244.654C262.081 248.458 262.478 252.329 263.749 255.95C265.02 259.571 267.129 262.839 269.902 265.486L270.272 265.842C274.214 269.621 279.313 271.961 284.745 272.483C290.177 273.005 295.626 271.68 300.215 268.722C303.367 266.692 306.007 263.96 307.929 260.738C309.851 257.516 311.002 253.892 311.292 250.15L318.763 97.7789L347.075 58.73Z" fill="#00CD73"/>
<path fill-rule="evenodd" clip-rule="evenodd" d="M289.378 96.8957C289.773 96.9414 290.057 97.2995 290.011 97.6955L274.18 235.175C274.134 235.571 273.777 235.855 273.381 235.81C272.986 235.764 272.702 235.406 272.748 235.01L288.58 97.5301C288.625 97.134 288.983 96.85 289.378 96.8957Z" fill="black"/>
<path fill-rule="evenodd" clip-rule="evenodd" d="M297.103 97.5294C297.499 97.5696 297.787 97.9238 297.747 98.3204L283.138 242.686C283.098 243.083 282.744 243.372 282.348 243.332C281.952 243.292 281.664 242.937 281.704 242.541L296.313 98.1748C296.353 97.7782 296.707 97.4892 297.103 97.5294Z" fill="black"/>
<path fill-rule="evenodd" clip-rule="evenodd" d="M304.823 98.1707C305.22 98.2032 305.515 98.5517 305.483 98.9491L293.538 245.137C293.505 245.534 293.157 245.83 292.761 245.797C292.364 245.765 292.069 245.416 292.101 245.019L304.046 98.8313C304.079 98.4339 304.427 98.1382 304.823 98.1707Z" fill="black"/>
<path fill-rule="evenodd" clip-rule="evenodd" d="M312.547 98.8124C312.944 98.8388 313.245 99.1827 313.218 99.5805L303.937 239.653C303.91 240.051 303.567 240.352 303.17 240.326C302.773 240.299 302.472 239.955 302.499 239.557L311.78 99.4849C311.807 99.0871 312.15 98.786 312.547 98.8124Z" fill="black"/>
<path d="M220.061 70.8845C220.288 70.5914 220.615 70.3924 220.98 70.3254C221.345 70.2585 221.721 70.3284 222.038 70.5217C222.198 70.2593 222.375 70.0068 222.566 69.7658C223.403 68.6561 224.519 67.7882 225.8 67.2501C227.08 66.712 228.48 66.5229 229.858 66.702C231.235 66.8811 232.54 67.422 233.641 68.2699C234.742 69.1178 235.6 70.2423 236.126 71.5295C236.653 72.8166 236.831 74.2205 236.641 75.5985C236.451 76.9765 235.9 78.2797 235.045 79.3757C234.19 80.4716 233.06 81.3214 231.771 81.8387C230.482 82.356 229.079 82.5224 227.705 82.321L227.441 89.1844L221.789 87.7709C221.789 87.7709 224.052 83.795 225.29 81.55C224.866 81.3382 224.464 81.085 224.09 80.7941C222.957 79.933 222.078 78.7803 221.546 77.4587C221.015 76.137 220.851 74.6958 221.072 73.2882C220.816 73.2497 220.575 73.1463 220.371 72.9878C220.167 72.8293 220.007 72.621 219.907 72.3829C219.806 72.1448 219.768 71.8848 219.796 71.6277C219.824 71.3707 219.918 71.1252 220.068 70.9147L220.061 70.8845Z" fill="#648CFF"/>
<path d="M222.038 70.5219L222.144 70.5975C222.309 70.7253 222.446 70.886 222.546 71.0694C222.646 71.2529 222.707 71.4551 222.725 71.6633C224.491 71.8598 227.939 71.5197 231.025 66.9164C230.731 67.6723 229.23 72.4721 235.976 77.6877C236.759 75.9207 236.868 73.9268 236.28 72.0851C235.692 70.2435 234.448 68.6825 232.787 67.6989C231.125 66.7154 229.16 66.3779 227.266 66.7507C225.372 67.1235 223.68 68.1804 222.514 69.7207C222.322 69.9617 222.146 70.2142 221.985 70.4766" fill="black"/>
<path d="M241.408 72.8425L241.552 71.686L236.609 71.0662C236.605 69.2487 235.94 67.4949 234.739 66.1329C233.538 64.7709 231.882 63.894 230.082 63.6661C228.123 63.4247 226.148 63.9721 224.592 65.1882C223.035 66.4042 222.024 68.1894 221.781 70.1516V70.3254V70.3708L241.408 72.8425Z" fill="#FF84F9"/>
<path d="M217.072 147.644L181.493 136.185L160.168 181.689H160.221C159.246 183.613 158.712 185.731 158.659 187.888C158.561 191.197 159.586 194.442 161.565 197.093C163.545 199.744 166.362 201.646 169.559 202.487C172.755 203.329 176.142 203.061 179.167 201.728C182.192 200.394 184.677 198.074 186.217 195.144L217.072 147.644Z" fill="#648CFF"/>
<path d="M157.052 181.901L126.022 214.245L140.066 227.322L183.357 202C184.078 201.603 184.683 201.023 185.111 200.319C185.538 199.615 185.774 198.81 185.794 197.986C185.813 197.162 185.617 196.347 185.224 195.623C184.831 194.899 184.255 194.29 183.553 193.859L162.877 181.153C161.966 180.595 160.892 180.365 159.833 180.501C158.774 180.637 157.793 181.131 157.052 181.901Z" fill="#0010F3"/>
<path d="M241.484 152.059L218.356 125.421L218.114 125.61C215.797 122.703 212.782 120.43 209.351 119.005C205.92 117.58 202.184 117.048 198.493 117.459C194.801 117.87 191.274 119.211 188.239 121.357C185.205 123.503 182.762 126.383 181.139 129.73L161.927 162.913L199.317 181.364L202.29 176.678L208.327 184.297L241.484 152.059Z" fill="#00CD73"/>
<path d="M261.255 192C260.721 189.063 259.912 186.183 258.84 183.398C258.702 183.019 258.483 182.675 258.198 182.39C257.914 182.105 257.571 181.885 257.193 181.746C256.815 181.608 256.412 181.553 256.011 181.586C255.61 181.619 255.221 181.74 254.871 181.939L230.482 195.824C230.141 196.021 229.845 196.289 229.614 196.609C229.384 196.929 229.224 197.295 229.146 197.681C229.067 198.068 229.072 198.467 229.159 198.852C229.246 199.237 229.414 199.599 229.652 199.914C229.831 200.148 229.983 200.401 230.105 200.67L244.14 246.023L264.16 243.876C264.16 243.876 261.368 192.877 261.255 192Z" fill="#0010F3"/>
<path d="M286.632 103.682C286.099 103.287 285.515 102.967 284.896 102.73C284.439 102.516 283.97 102.327 283.492 102.163C284.176 102.083 284.807 101.755 285.264 101.24C285.722 100.725 285.975 100.059 285.975 99.37C285.975 98.6806 285.722 98.0153 285.264 97.5003C284.807 96.9854 284.176 96.6568 283.492 96.5771L282.881 96.4561C282.7 95.7088 282.337 95.0183 281.823 94.4469C281.309 93.8755 280.661 93.4412 279.938 93.1831C279.938 93.1831 275.071 91.6714 273.524 91.4144C271.977 91.1574 269.94 91.883 268.461 92.9261C267.133 93.871 266.091 95.5037 265.042 96.766L263.533 96.63C262.838 96.5685 262.143 96.7504 261.567 97.1446C260.99 97.5387 260.568 98.1208 260.372 98.7918L258.862 102.571L271.645 117.198C272.176 116.383 272.602 115.504 272.913 114.582C275.765 106.267 282.527 107.779 282.527 107.779H282.564L283.047 107.998L282.972 107.946L283.07 108.006C283.162 108.05 283.249 108.106 283.326 108.172L283.394 108.218C284.489 109.185 286.518 108.732 287.281 107.56C287.681 106.951 287.837 106.213 287.717 105.493C287.596 104.774 287.209 104.127 286.632 103.682Z" fill="#648CFF"/>
<path fill-rule="evenodd" clip-rule="evenodd" d="M270.883 96.912C269.439 97.6776 268.627 98.7939 268.196 99.5504C267.999 99.8967 267.559 100.017 267.213 99.8195C266.867 99.6219 266.747 99.181 266.945 98.8347C267.457 97.9359 268.441 96.5728 270.209 95.6358C271.985 94.6947 274.471 94.2258 277.905 94.9753L280.705 95.4103C281.099 95.4714 281.368 95.8403 281.307 96.2343C281.246 96.6283 280.878 96.8981 280.484 96.837L277.64 96.3952L277.618 96.3904C274.453 95.6954 272.316 96.1525 270.883 96.912Z" fill="black"/>
<path fill-rule="evenodd" clip-rule="evenodd" d="M274.458 100.841C277.191 100.183 280.052 100.287 282.73 101.143C283.11 101.264 283.319 101.67 283.198 102.05C283.077 102.43 282.672 102.639 282.293 102.518C279.87 101.744 277.283 101.649 274.81 102.241C272.984 102.77 271.318 103.746 269.962 105.081C269.678 105.361 269.222 105.357 268.943 105.073C268.664 104.789 268.668 104.331 268.952 104.052C270.482 102.545 272.364 101.444 274.427 100.849L274.442 100.845L274.458 100.841Z" fill="black"/>
<path fill-rule="evenodd" clip-rule="evenodd" d="M264.421 97.5371C264.741 97.773 264.811 98.2248 264.575 98.5462C262.97 100.737 260.832 104.059 259.326 106.517C259.118 106.856 258.674 106.963 258.335 106.754C257.996 106.546 257.89 106.101 258.098 105.762C259.611 103.291 261.773 99.9306 263.413 97.6921C263.649 97.3706 264.1 97.3013 264.421 97.5371Z" fill="black"/>
<path d="M279.342 125.966L257.459 100.923L249.241 111.43L239.281 94.8007L239.228 94.846C237.747 91.7665 235.377 89.2034 232.425 87.4891C229.473 85.7747 226.075 84.9881 222.672 85.2312L221.631 85.2992C215.751 85.6968 210.23 88.2697 206.139 92.5179C192.775 106.464 176.339 130.025 176.49 130.773L231.289 141.476L233.304 144.258C234.792 146.245 236.815 147.766 239.135 148.643C241.455 149.52 243.977 149.716 246.404 149.209C248.256 148.823 250 148.033 251.513 146.896L279.342 125.966Z" fill="#0010F3"/>
<mask id="mask0" mask-type="alpha" maskUnits="userSpaceOnUse" x="176" y="85" width="106" height="65">
<path fill-rule="evenodd" clip-rule="evenodd" d="M240.953 97.5934L239.281 94.8007L239.228 94.846C237.747 91.7665 235.377 89.2034 232.425 87.4891C229.473 85.7747 226.075 84.9881 222.672 85.2312L221.631 85.2992C215.751 85.6968 210.23 88.2697 206.139 92.5179C192.775 106.464 176.339 130.025 176.49 130.773L231.289 141.476L233.304 144.258C234.792 146.245 236.815 147.766 239.135 148.643C241.455 149.52 243.977 149.716 246.404 149.209C248.256 148.823 250 148.033 251.513 146.896L269.697 133.22L278.331 131.272L279.463 127.115L281.35 110.863L280.218 107.462L271.917 117.288L259.543 103.309L257.459 100.923L255.508 103.418L240.953 97.5934Z" fill="#0010F3"/>
</mask>
<g mask="url(#mask0)">
<path d="M190.232 95.171C185.968 106.653 181.599 118.293 179.961 130.501C179.516 133.774 179.396 137.123 180.475 140.29C180.503 140.389 180.556 140.479 180.63 140.552C180.703 140.624 180.794 140.676 180.894 140.703C180.994 140.729 181.098 140.73 181.198 140.704C181.298 140.678 181.389 140.626 181.463 140.554C182.972 139.277 183.651 137.342 184.406 135.573C185.251 133.577 186.074 131.567 186.881 129.526C188.488 125.474 190.013 121.393 191.53 117.303C194.616 108.989 197.657 100.629 201.256 92.5103C203.294 87.9146 205.512 83.4397 207.995 79.0254L206.908 78.5719C200.464 96.1159 193.974 113.849 191.167 132.413C190.37 137.599 189.904 142.83 189.771 148.075C189.772 148.219 189.825 148.358 189.92 148.465C190.015 148.573 190.145 148.643 190.287 148.663C190.43 148.682 190.574 148.649 190.694 148.571C190.814 148.492 190.902 148.372 190.941 148.234C195.801 129.836 200.675 111.392 207.391 93.5686C208.9 89.5095 210.364 84.5433 214.183 82.0792L213.292 81.5652C212.228 98.3155 205.98 114.068 203.128 130.539C202.324 135.058 201.857 139.631 201.732 144.22C201.736 144.336 201.773 144.447 201.839 144.542C201.904 144.637 201.996 144.711 202.102 144.756C202.209 144.8 202.325 144.813 202.439 144.793C202.552 144.774 202.658 144.722 202.743 144.644C205.52 141.726 206.395 137.508 207.527 133.774C208.885 129.269 210.216 124.759 211.519 120.244C212.822 115.729 214.095 111.193 215.337 106.638C216.484 102.45 217.556 98.2324 218.861 94.0901C220.225 89.4786 222.178 85.0629 224.672 80.9529L223.585 80.8093C224.913 85.458 223.585 90.4997 222.725 95.1181C221.864 99.7366 220.861 104.295 219.872 108.875C217.888 118.059 215.873 127.251 214.681 136.578C213.979 141.903 213.631 147.269 213.639 152.641C213.639 153.2 214.484 153.495 214.749 152.943C222.491 136.941 224.755 119.133 229.795 102.216C231.209 97.382 232.954 92.6516 235.017 88.0582H233.991C235.161 89.8043 235.032 92.0719 235.04 94.1052C235.04 96.2746 234.979 98.444 234.836 100.606C234.542 105.013 233.968 109.397 233.289 113.758C231.953 122.36 230.233 130.917 229.418 139.594C228.924 144.484 228.841 149.407 229.169 154.311C229.17 154.455 229.223 154.594 229.318 154.702C229.412 154.809 229.543 154.88 229.685 154.899C229.827 154.918 229.972 154.885 230.092 154.807C230.212 154.728 230.299 154.608 230.339 154.47C234.942 137.906 239.61 121.37 244.344 104.861C245.692 100.16 247.048 95.4583 248.411 90.7567H247.264C248.706 94.9216 248.351 99.3511 247.83 103.644C247.287 108.082 246.487 112.488 245.619 116.872C243.967 125.308 242.05 133.729 241.22 142.3C240.703 147.222 240.68 152.182 241.152 157.108C241.155 157.224 241.191 157.337 241.257 157.433C241.322 157.529 241.414 157.604 241.522 157.648C241.629 157.692 241.747 157.704 241.861 157.682C241.975 157.66 242.08 157.605 242.163 157.524C244.736 154.704 245.936 150.804 247.151 147.251C248.42 143.344 249.473 139.37 250.305 135.346C252.011 127.311 253.082 119.17 254.576 111.097C255.414 106.562 256.395 102.027 257.678 97.4916L256.516 97.3329C256.108 105.527 255.701 113.72 255.52 121.922C255.429 126.056 255.391 130.184 255.444 134.318C255.366 138.105 255.537 141.892 255.957 145.656C256.166 147.366 256.677 149.025 257.467 150.555C258.025 151.583 259.149 152.822 260.485 152.527C261.821 152.233 262.296 150.471 262.749 149.353C263.372 147.585 263.854 145.77 264.19 143.925C265.601 136.525 266.137 128.959 267.171 121.498C268.333 113.093 269.94 104.71 273.117 96.8113L271.955 96.6526C272.468 108.376 269.397 120.017 270.521 131.733C270.767 134.5 271.3 137.233 272.113 139.889C272.408 140.819 272.83 141.945 273.819 142.331C274.226 142.461 274.669 142.425 275.049 142.229C275.43 142.034 275.717 141.695 275.849 141.287C276.896 138.735 277.641 136.069 278.067 133.343C278.595 130.652 278.965 127.939 279.312 125.225C280.142 118.815 280.889 112.33 283.289 106.283L282.127 106.124C282.761 112.171 281.938 118.271 282.127 124.356C282.161 127.296 282.583 130.218 283.38 133.048C284.044 135.278 285.085 137.493 287.153 138.725C287.291 138.8 287.452 138.82 287.604 138.779C287.756 138.738 287.886 138.64 287.968 138.506C288.612 137.078 288.971 135.537 289.024 133.97C289.024 133.215 287.869 133.215 287.839 133.97C287.799 135.339 287.494 136.687 286.941 137.939L287.749 137.727C285.553 136.42 284.73 133.774 284.157 131.423C283.544 128.654 283.252 125.824 283.289 122.988C283.289 117.371 283.915 111.755 283.289 106.154C283.283 106.014 283.228 105.881 283.134 105.778C283.04 105.675 282.912 105.608 282.774 105.589C282.636 105.57 282.495 105.601 282.377 105.675C282.259 105.749 282.17 105.862 282.127 105.995C278.248 115.731 278.731 126.404 276.09 136.472C275.781 137.659 275.434 138.831 275.026 139.987C274.762 140.743 274.272 141.733 273.623 140.675C273.313 140.079 273.087 139.443 272.951 138.785C272.216 136.21 271.743 133.566 271.54 130.894C271.117 125.505 271.578 120.092 272.083 114.726C272.657 108.724 273.313 102.7 273.049 96.6601C273.043 96.5205 272.988 96.3875 272.894 96.2844C272.8 96.1812 272.672 96.1144 272.534 96.0955C272.396 96.0766 272.255 96.1069 272.137 96.181C272.019 96.2552 271.93 96.3686 271.887 96.5014C266.605 109.601 265.707 123.819 263.866 137.667C263.504 141.19 262.827 144.673 261.843 148.075C261.58 148.936 261.257 149.777 260.877 150.592C260.342 151.711 259.444 151.348 258.802 150.494C257.867 149.04 257.29 147.385 257.119 145.664C256.553 142.074 256.652 138.324 256.606 134.696C256.554 130.879 256.606 127.062 256.652 123.245C256.818 114.605 257.24 105.973 257.67 97.3404C257.669 97.1967 257.617 97.0581 257.522 96.9502C257.427 96.8422 257.296 96.7722 257.154 96.7529C257.012 96.7336 256.868 96.7663 256.748 96.8451C256.627 96.9239 256.54 97.0434 256.501 97.1817C252.071 112.632 251.392 128.883 246.797 144.288C246.14 146.48 245.408 148.642 244.586 150.774C243.879 152.921 242.785 154.92 241.356 156.67L242.367 157.093C240.548 139.315 246.638 122.118 248.909 104.688C249.528 99.9633 250.034 95.0199 248.442 90.4241C248.402 90.3031 248.325 90.1978 248.222 90.1231C248.119 90.0484 247.995 90.0082 247.868 90.0082C247.741 90.0082 247.617 90.0484 247.514 90.1231C247.411 90.1978 247.334 90.3031 247.295 90.4241C242.515 106.933 237.807 123.459 233.168 140.002C231.85 144.709 230.535 149.421 229.222 154.137L230.391 154.296C229.048 136.329 234.738 118.913 236.013 101.12C236.187 98.6632 236.285 96.199 236.255 93.7424C236.255 91.6033 236.255 89.2978 235.047 87.4535C234.993 87.366 234.918 87.2938 234.828 87.2437C234.738 87.1936 234.637 87.1673 234.534 87.1673C234.431 87.1673 234.33 87.1936 234.241 87.2437C234.151 87.2938 234.075 87.366 234.021 87.4535C226.626 103.637 224.445 121.468 219.208 138.332C217.746 143.147 215.935 147.848 213.79 152.399L214.9 152.701C214.794 133.366 220.265 114.68 223.872 95.8438C224.755 90.9079 226.188 85.5411 224.755 80.5523C224.72 80.442 224.655 80.3439 224.567 80.2695C224.479 80.1951 224.371 80.1475 224.257 80.1324C224.143 80.1173 224.027 80.1353 223.922 80.1842C223.818 80.2332 223.73 80.3111 223.668 80.4087C219.223 87.4459 217.156 95.5717 214.998 103.516C212.553 112.531 209.99 121.514 207.308 130.463C206.554 132.882 205.874 135.308 205.105 137.72C204.527 139.972 203.44 142.062 201.928 143.827L202.939 144.25C203.294 127.447 209.414 111.581 212.651 95.2542C213.568 90.7472 214.185 86.1843 214.5 81.5954C214.499 81.4914 214.471 81.3894 214.418 81.2996C214.366 81.2098 214.291 81.1352 214.201 81.0833C214.111 81.0314 214.009 81.0039 213.905 81.0035C213.802 81.0032 213.699 81.03 213.609 81.0814C210.395 83.1374 208.802 86.6598 207.459 90.0915C205.671 94.6268 204.018 99.2604 202.456 103.901C199.37 113.093 196.668 122.413 194.103 131.771C192.594 137.153 191.205 142.55 189.779 147.947L190.941 148.105C191.386 129.382 196.593 111.234 202.72 93.682C204.441 88.746 206.237 83.8555 208.04 78.9347C208.274 78.2922 207.286 77.8991 206.954 78.4736C198.344 93.6744 193.061 110.432 186.738 126.676C185.867 128.919 184.972 131.151 184.051 133.373C183.176 135.49 182.421 138.188 180.626 139.715L181.622 139.98C180.772 137.156 180.576 134.175 181.048 131.264C181.429 128.266 181.973 125.291 182.678 122.353C184.089 116.5 185.824 110.731 187.877 105.073C189.009 101.861 190.194 98.6783 191.379 95.4885C191.643 94.7704 190.496 94.4605 190.232 95.171Z" fill="#FDCD01"/>
</g>
<path fill-rule="evenodd" clip-rule="evenodd" d="M242.027 99.3518C242.368 99.1468 242.811 99.2577 243.016 99.5997L249.336 110.159L253.798 104.454C254.044 104.14 254.497 104.085 254.81 104.331C255.123 104.577 255.178 105.031 254.933 105.344L249.178 112.702L241.779 100.342C241.575 100 241.686 99.5568 242.027 99.3518Z" fill="black"/>
<path fill-rule="evenodd" clip-rule="evenodd" d="M273.133 118.861C273.432 118.599 273.888 118.629 274.15 118.929L280.397 126.076L273.021 131.615C272.703 131.854 272.251 131.79 272.012 131.471C271.774 131.152 271.838 130.699 272.157 130.46L278.288 125.855L273.065 119.88C272.803 119.58 272.833 119.124 273.133 118.861Z" fill="black"/>
<path fill-rule="evenodd" clip-rule="evenodd" d="M211.783 114.527C212.105 114.293 212.556 114.365 212.789 114.687L229.625 137.931C229.858 138.254 229.787 138.705 229.464 138.939C229.142 139.173 228.692 139.101 228.458 138.779L211.623 115.535C211.389 115.213 211.461 114.761 211.783 114.527Z" fill="black"/>
<path fill-rule="evenodd" clip-rule="evenodd" d="M179.022 137.271C179.42 137.295 179.723 137.636 179.7 138.034C179.404 143.082 180.904 148.072 183.933 152.117L184.358 152.684L184.305 152.726L198.81 171.052C199.057 171.364 199.005 171.818 198.693 172.066C198.381 172.313 197.928 172.261 197.68 171.949L182.272 152.481L182.364 152.409C179.41 148.197 177.959 143.102 178.261 137.95C178.284 137.552 178.625 137.248 179.022 137.271Z" fill="black"/>
<path d="M109.671 223.407C110.499 222.779 111.258 222.065 111.934 221.275L119.865 212.136C120.685 211.184 121.538 210.267 122.423 209.385L125.404 206.407C125.611 206.199 125.873 206.052 126.159 205.985C126.444 205.917 126.743 205.931 127.022 206.025C127.3 206.118 127.547 206.288 127.735 206.514C127.922 206.741 128.043 207.015 128.083 207.306V210.859C128.086 212.058 128.352 213.241 128.86 214.326C129.368 215.411 130.108 216.372 131.026 217.14L141.371 225.765C141.316 225.326 141.381 224.88 141.558 224.475C141.736 224.07 142.019 223.72 142.379 223.463C142.739 223.207 143.162 223.053 143.602 223.017C144.043 222.982 144.484 223.067 144.88 223.263L149.257 225.448C149.477 225.559 149.67 225.719 149.821 225.915C149.972 226.111 150.077 226.338 150.129 226.58C150.181 226.822 150.179 227.073 150.122 227.313C150.065 227.554 149.955 227.779 149.8 227.972C149.069 228.867 148.536 229.907 148.238 231.024C147.94 232.141 147.884 233.309 148.072 234.45C149.491 242.976 152.811 263.861 151.928 267.112C151.52 268.881 150.529 270.46 149.114 271.594C148.497 272.059 147.736 272.288 146.966 272.243C146.196 272.197 145.468 271.879 144.911 271.345L100.925 229.56L109.671 223.407Z" fill="#FF84F9"/>
<path fill-rule="evenodd" clip-rule="evenodd" d="M110.95 222.198C111.296 222 111.736 222.12 111.933 222.467C111.927 222.456 111.929 222.458 111.945 222.48C111.959 222.501 111.987 222.54 112.032 222.602C112.111 222.709 112.222 222.86 112.366 223.053C112.653 223.437 113.063 223.981 113.578 224.661C114.608 226.022 116.057 227.926 117.784 230.19C121.239 234.719 125.806 240.689 130.36 246.636C134.914 252.583 139.454 258.506 142.857 262.943C144.558 265.162 145.974 267.008 146.965 268.301L148.522 270.33C148.522 270.33 148.522 270.33 148.015 270.721L148.522 270.33C148.765 270.646 148.706 271.1 148.39 271.343C148.075 271.586 147.622 271.526 147.38 271.21L147.888 270.819C147.38 271.21 147.38 271.211 147.38 271.21L147.378 271.208L145.822 269.18C144.831 267.888 143.415 266.041 141.713 263.823C138.311 259.386 133.77 253.462 129.216 247.515C124.662 241.568 120.094 235.597 116.639 231.067C114.911 228.802 113.461 226.896 112.429 225.534C111.914 224.852 111.502 224.306 111.212 223.918C111.067 223.724 110.951 223.567 110.868 223.453C110.8 223.36 110.72 223.25 110.682 223.183C110.485 222.837 110.605 222.396 110.95 222.198Z" fill="black"/>
<path fill-rule="evenodd" clip-rule="evenodd" d="M111.04 222.154C110.67 222.303 110.491 222.723 110.639 223.093C110.787 223.463 111.206 223.643 111.575 223.495" fill="black"/>
<path fill-rule="evenodd" clip-rule="evenodd" d="M151.092 247.756C151.357 248.054 151.331 248.51 151.035 248.776L143.036 255.934C142.739 256.2 142.283 256.174 142.018 255.877C141.753 255.579 141.779 255.123 142.075 254.857L150.074 247.699C150.371 247.433 150.827 247.459 151.092 247.756Z" fill="black"/>
<path fill-rule="evenodd" clip-rule="evenodd" d="M141.091 248.929C141.302 248.591 141.746 248.487 142.084 248.698L151.999 254.881C152.337 255.092 152.441 255.537 152.23 255.875C152.02 256.214 151.576 256.317 151.238 256.107L141.322 249.924C140.984 249.713 140.881 249.268 141.091 248.929Z" fill="black"/>
<path fill-rule="evenodd" clip-rule="evenodd" d="M149.711 238.769C149.976 239.066 149.951 239.522 149.654 239.788L141.912 246.72C141.615 246.985 141.159 246.96 140.894 246.662C140.629 246.365 140.655 245.909 140.951 245.643L148.694 238.712C148.99 238.446 149.446 238.472 149.711 238.769Z" fill="black"/>
<path fill-rule="evenodd" clip-rule="evenodd" d="M139.966 239.715C140.177 239.376 140.621 239.273 140.959 239.483L150.618 245.508C150.956 245.719 151.059 246.164 150.849 246.502C150.638 246.841 150.194 246.944 149.856 246.733L140.197 240.709C139.859 240.498 139.756 240.053 139.966 239.715Z" fill="black"/>
<path d="M236.888 262.274C237.063 261.243 237.128 260.197 237.084 259.152L236.534 247.058C236.481 245.811 236.466 244.556 236.534 243.279L236.647 239.061C236.655 238.767 236.744 238.482 236.905 238.236C237.066 237.991 237.291 237.795 237.557 237.671C237.823 237.547 238.118 237.5 238.409 237.534C238.7 237.569 238.975 237.684 239.205 237.866L241.657 240.444C242.481 241.313 243.485 241.99 244.599 242.427C245.712 242.865 246.908 243.052 248.102 242.976L261.534 242.092C261.192 241.811 260.934 241.442 260.785 241.025C260.636 240.608 260.603 240.159 260.689 239.724C260.775 239.29 260.976 238.887 261.273 238.559C261.569 238.23 261.949 237.989 262.371 237.859L267.042 236.43C267.279 236.358 267.529 236.34 267.774 236.378C268.018 236.416 268.251 236.508 268.456 236.648C268.66 236.788 268.83 236.972 268.954 237.187C269.077 237.402 269.151 237.642 269.17 237.889C269.255 239.044 269.585 240.167 270.138 241.184C270.691 242.201 271.454 243.088 272.377 243.785C279.267 249.001 296.019 261.858 297.619 264.821C298.538 266.386 298.902 268.216 298.652 270.014C298.525 270.776 298.131 271.468 297.54 271.965C296.95 272.463 296.202 272.733 295.43 272.728H234.775L236.888 262.274Z" fill="#FF84F9"/>
<path fill-rule="evenodd" clip-rule="evenodd" d="M236.981 260.524C237.092 260.141 237.491 259.92 237.874 260.031C237.864 260.028 237.867 260.029 237.892 260.034C237.918 260.039 237.965 260.048 238.043 260.062C238.174 260.086 238.359 260.118 238.595 260.158C239.068 260.239 239.738 260.35 240.579 260.488C242.261 260.764 244.619 261.146 247.428 261.598C253.046 262.501 260.46 263.683 267.85 264.858C275.24 266.033 282.604 267.2 288.122 268.074C290.88 268.511 293.177 268.874 294.784 269.129L297.308 269.528C297.308 269.528 297.308 269.528 297.196 270.241C297.084 270.954 297.083 270.954 297.083 270.954L294.559 270.555C292.952 270.3 290.655 269.937 287.896 269.5C282.379 268.626 275.014 267.458 267.624 266.284C260.234 265.109 252.819 263.926 247.2 263.023C244.391 262.571 242.03 262.189 240.346 261.913C239.504 261.775 238.83 261.663 238.354 261.582C238.116 261.541 237.925 261.508 237.786 261.483C237.672 261.462 237.543 261.438 237.472 261.418C237.09 261.307 236.87 260.906 236.981 260.524ZM297.908 270.354C297.846 270.747 297.476 271.016 297.083 270.954L297.196 270.241L297.308 269.528C297.701 269.59 297.97 269.96 297.908 270.354Z" fill="black"/>
<path fill-rule="evenodd" clip-rule="evenodd" d="M283.673 251.38C284.069 251.413 284.364 251.762 284.332 252.159L283.449 262.863C283.416 263.26 283.068 263.555 282.671 263.523C282.274 263.49 281.979 263.141 282.012 262.744L282.895 252.04C282.928 251.643 283.276 251.348 283.673 251.38Z" fill="black"/>
<path fill-rule="evenodd" clip-rule="evenodd" d="M290.077 256.482C290.157 256.873 289.906 257.255 289.516 257.335L278.077 259.685C277.687 259.766 277.306 259.514 277.226 259.123C277.146 258.733 277.397 258.351 277.787 258.271L289.227 255.92C289.617 255.84 289.997 256.092 290.077 256.482Z" fill="black"/>
<path fill-rule="evenodd" clip-rule="evenodd" d="M276.496 245.81C276.893 245.842 277.188 246.191 277.155 246.588L276.302 256.951C276.269 257.349 275.921 257.644 275.525 257.612C275.128 257.579 274.833 257.23 274.866 256.833L275.718 246.47C275.751 246.072 276.099 245.777 276.496 245.81Z" fill="black"/>
<path fill-rule="evenodd" clip-rule="evenodd" d="M282.636 250.632C282.716 251.023 282.465 251.404 282.075 251.484L270.922 253.775C270.532 253.855 270.151 253.603 270.071 253.212C269.992 252.822 270.243 252.44 270.633 252.36L281.786 250.07C282.176 249.99 282.556 250.242 282.636 250.632Z" fill="black"/>
</g>
<defs>
<clipPath id="clip0">
<rect width="246" height="257" fill="white" transform="translate(101 16)"/>
</clipPath>
</defs>
</svg>
