<svg width="445" height="300" viewBox="0 0 445 300" fill="none" xmlns="http://www.w3.org/2000/svg">
<rect width="229.864" height="228.512" rx="16" transform="matrix(0.987793 -0.155774 0.157098 0.987583 91 52.3252)" fill="#FEF8E3"/>
<g clip-path="url(#clip0)">
<path d="M266.09 16H72V269.07H266.09V16Z" fill="#00CD73"/>
<path d="M242.398 115.15H95.6883C92.5383 115.15 89.9883 112.6 89.9883 109.45V93.32C89.9883 90.17 92.5383 87.62 95.6883 87.62H242.398C245.548 87.62 248.098 90.17 248.098 93.32V109.45C248.108 112.6 245.548 115.15 242.398 115.15Z" fill="#7DE6AF"/>
<path d="M242.398 69.87H95.6883C92.5383 69.87 89.9883 67.32 89.9883 64.17V48.04C89.9883 44.89 92.5383 42.34 95.6883 42.34H242.398C245.548 42.34 248.098 44.89 248.098 48.04V64.17C248.108 67.32 245.548 69.87 242.398 69.87Z" fill="#7DE6AF"/>
<path d="M242.398 166.12H95.6883C92.5383 166.12 89.9883 163.57 89.9883 160.42V144.29C89.9883 141.14 92.5383 138.59 95.6883 138.59H242.398C245.548 138.59 248.098 141.14 248.098 144.29V160.42C248.108 163.57 245.548 166.12 242.398 166.12Z" fill="#7DE6AF"/>
<path d="M242.398 212.53H95.6883C92.5383 212.53 89.9883 209.98 89.9883 206.83V190.7C89.9883 187.55 92.5383 185 95.6883 185H242.398C245.548 185 248.098 187.55 248.098 190.7V206.83C248.108 209.98 245.548 212.53 242.398 212.53Z" fill="#7DE6AF"/>
<path d="M176.988 252.2H161.098C157.948 252.2 155.398 249.65 155.398 246.5V230.37C155.398 227.22 157.948 224.67 161.098 224.67H176.988C180.138 224.67 182.688 227.22 182.688 230.37V246.5C182.688 249.65 180.138 252.2 176.988 252.2Z" fill="#7DE6AF"/>
<path d="M179.641 161.22C187.291 176.91 206.691 220.05 264.951 229.34L293.051 255.8L340.661 212.42L317.781 180.41L303.261 124.63L261.421 87.61L201.291 103.9L179.641 161.22Z" fill="#648CFF"/>
<path d="M192.388 164.47C194.948 160.94 197.508 157.41 200.058 153.88C203.898 148.58 211.578 137.99 211.578 137.99C211.578 137.99 220.418 133.57 226.158 130.69C235.308 126.11 244.458 121.53 253.608 116.95C255.708 115.9 257.798 114.85 259.898 113.8C261.888 112.73 263.488 111.26 264.688 109.4C266.198 107.75 267.218 105.82 267.748 103.59C268.458 101.32 268.558 99.05 268.048 96.78C267.948 94.51 267.268 92.39 266.018 90.43C263.668 86.78 260.168 83.58 255.818 82.58C254.308 82.38 252.788 82.17 251.278 81.97C248.198 81.98 245.328 82.76 242.658 84.3C238.368 86.45 234.088 88.59 229.798 90.74C221.718 94.79 213.628 98.83 205.548 102.88C200.948 105.18 196.298 107.41 191.738 109.79C188.178 111.64 185.368 116.22 182.908 119.62C180.498 122.94 178.088 126.26 175.678 129.58C171.488 135.35 166.078 143.41 163.118 146.9C161.208 149.15 159.618 154.74 161.168 160.37C162.718 165.99 166.258 168.7 169.018 170.57C171.778 172.44 177.908 173.57 182.178 172.29C185.378 171.36 190.878 167.04 192.388 164.47Z" fill="#648CFF"/>
<path fill-rule="evenodd" clip-rule="evenodd" d="M227.075 130.253C227.322 130.747 227.122 131.347 226.628 131.594L215.928 136.944C213.512 138.152 211.436 139.917 209.85 142.098C209.85 142.098 209.85 142.097 209.85 142.098L207.95 144.717C207.626 145.164 207.001 145.264 206.554 144.94C206.107 144.615 206.007 143.99 206.331 143.543L208.232 140.922C210.006 138.483 212.329 136.508 215.033 135.156L225.733 129.806C226.227 129.559 226.828 129.759 227.075 130.253Z" fill="black"/>
<path d="M174.269 96.84C176.229 96.46 182.709 95.21 186.939 94.4C193.709 93.09 200.469 91.79 207.239 90.48C208.789 90.18 210.329 89.88 211.879 89.58C208.849 89.58 205.829 89.58 202.799 89.58C205.099 90.09 207.409 90.6 209.709 91.1C215.239 92.32 220.779 93.54 226.309 94.76C233.009 96.24 239.709 97.71 246.409 99.19C252.209 100.47 257.999 101.75 263.799 103.03C266.629 103.65 269.459 104.31 272.299 104.9C272.339 104.91 272.379 104.92 272.419 104.93C268.449 100.96 264.469 96.98 260.499 93.01C261.859 98.59 263.209 104.17 264.569 109.76C266.719 118.62 268.869 127.48 271.029 136.33C271.519 138.36 272.019 140.4 272.509 142.43C273.039 144.65 274.059 146.59 275.569 148.24C276.769 150.1 278.369 151.56 280.359 152.64C282.319 153.89 284.439 154.56 286.709 154.67C288.979 155.18 291.249 155.08 293.519 154.37C297.649 153.03 301.639 150.47 303.719 146.52C304.289 145.16 304.869 143.8 305.439 142.44C306.249 139.41 306.249 136.39 305.439 133.36C304.079 127.78 302.729 122.2 301.369 116.61C299.219 107.75 297.069 98.89 294.909 90.04C294.419 88.01 293.919 85.97 293.429 83.94C292.089 78.44 287.099 73.25 281.509 72.02C276.459 70.91 271.399 69.79 266.349 68.68C256.299 66.46 246.249 64.25 236.209 62.03C228.729 60.38 221.239 58.73 213.759 57.08C213.179 56.95 212.599 56.82 212.009 56.69C208.269 55.89 206.519 55.97 202.759 56.68C202.479 56.73 202.199 56.79 201.919 56.84C198.289 57.54 194.659 58.24 191.039 58.94C182.609 60.57 170.889 62.74 165.739 63.82C160.589 64.91 157.729 67.5 155.019 71.77C152.309 76.04 152.589 82.66 153.299 84.93C154.639 89.06 157.129 92.35 161.149 95.13C165.129 97.9 171.249 97.65 174.269 96.84C174.269 96.84 172.309 97.22 174.269 96.84Z" fill="#648CFF"/>
<path d="M280.798 94.84C279.508 94.75 278.218 94.66 276.938 94.56C273.438 94.31 269.928 94.06 266.428 93.81C261.248 93.44 256.058 93.07 250.878 92.7C244.548 92.25 238.228 91.8 231.898 91.34C224.938 90.84 217.978 90.35 211.008 89.85C204.008 89.35 197.018 88.85 190.018 88.35C183.498 87.88 176.968 87.42 170.448 86.95C164.938 86.56 159.418 86.16 153.908 85.77C149.938 85.49 145.978 85.2 142.008 84.92C138.278 84.65 134.538 85.13 130.998 86.32C126.518 87.82 120.068 89.99 114.998 91.7C112.168 92.66 111.988 96.59 114.718 97.8L132.578 105.69C134.918 106.73 137.428 107.35 139.988 107.53C143.488 107.78 146.998 108.03 150.498 108.28C155.678 108.65 160.868 109.02 166.048 109.39C172.378 109.84 178.698 110.29 185.028 110.75C191.988 111.25 198.948 111.74 205.918 112.24C212.918 112.74 219.908 113.24 226.908 113.74C233.428 114.21 239.958 114.67 246.478 115.14C251.988 115.53 257.508 115.93 263.018 116.32C266.988 116.6 270.948 116.89 274.918 117.17C276.798 117.3 278.678 117.46 280.568 117.57C280.648 117.57 280.728 117.58 280.818 117.59C283.608 117.79 286.948 116.18 288.868 114.26C290.838 112.29 292.328 109.05 292.198 106.21C292.068 103.27 291.098 100.21 288.868 98.16L286.568 96.38C284.768 95.36 282.848 94.85 280.798 94.84Z" fill="#FCCD09"/>
<path d="M120.869 94.61C120.869 92.97 120.379 91.45 119.549 90.17C117.969 90.7 116.419 91.22 114.979 91.71C112.149 92.67 111.969 96.6 114.699 97.81L119.039 99.73C120.179 98.33 120.869 96.55 120.869 94.61Z" fill="black"/>
<path fill-rule="evenodd" clip-rule="evenodd" d="M135.561 95.82C135.6 95.269 136.078 94.8538 136.629 94.8925L283.749 105.222C284.3 105.261 284.715 105.739 284.676 106.29C284.637 106.841 284.16 107.256 283.609 107.218L136.489 96.8875C135.938 96.8489 135.522 96.3709 135.561 95.82Z" fill="black"/>
<path fill-rule="evenodd" clip-rule="evenodd" d="M141.061 90.0999C141.1 89.549 141.578 89.1338 142.129 89.1725L283.749 99.1225C284.3 99.1612 284.715 99.6392 284.676 100.19C284.637 100.741 284.159 101.156 283.609 101.118L141.989 91.1675C141.438 91.1288 141.022 90.6508 141.061 90.0999Z" fill="black"/>
<path fill-rule="evenodd" clip-rule="evenodd" d="M141.014 102.81C141.053 102.259 141.531 101.844 142.082 101.882L283.752 111.832C284.303 111.871 284.718 112.349 284.679 112.9C284.641 113.451 284.163 113.866 283.612 113.828L141.942 103.878C141.391 103.839 140.976 103.361 141.014 102.81Z" fill="black"/>
<path d="M151.578 121.44C154.708 126.55 157.848 131.65 160.978 136.76C164.328 142.22 167.608 147.75 171.038 153.16C171.048 153.18 171.058 153.19 171.068 153.21C171.068 153.21 171.068 153.21 171.068 153.22C171.508 153.8 171.958 154.37 172.398 154.95C173.598 156.81 175.198 158.27 177.188 159.35C177.208 159.36 177.228 159.38 177.238 159.39C177.378 159.5 177.518 159.61 177.658 159.71C178.318 160.22 178.968 160.72 179.628 161.23C182.108 163.14 184.588 165.04 187.058 166.95C193.978 172.28 200.908 177.61 207.828 182.94C212.258 186.35 216.648 189.8 221.108 193.16C221.178 193.21 221.248 193.27 221.318 193.33C223.278 194.58 225.398 195.25 227.668 195.36C229.938 195.87 232.208 195.77 234.478 195.06C236.698 194.53 238.638 193.51 240.288 192C242.148 190.8 243.608 189.2 244.688 187.21C246.778 183.25 247.828 178.45 246.408 174.05C245.838 172.69 245.258 171.33 244.688 169.97C243.168 167.4 241.128 165.36 238.568 163.85C233.598 160.03 228.628 156.2 223.658 152.38C215.738 146.28 198.898 133.33 198.898 133.33C198.898 133.33 196.158 128.86 193.958 125.28C190.458 119.58 186.958 113.88 183.468 108.18C182.658 106.86 181.858 105.55 181.048 104.23C178.768 100.52 175.078 97.55 170.848 96.38C168.578 95.67 160.898 96.07 157.688 98.1C154.478 100.13 150.838 103.95 149.838 108.3C148.848 112.72 149.148 117.48 151.578 121.44Z" fill="#648CFF"/>
<path fill-rule="evenodd" clip-rule="evenodd" d="M165.992 144.996C166.464 144.709 167.079 144.859 167.366 145.33C167.39 145.37 167.415 145.41 167.44 145.452C168.206 146.712 169.638 149.067 171.444 151.558C173.32 154.145 175.552 156.811 177.811 158.547L179.93 160.175L179.932 160.176L179.934 160.178L179.939 160.182C180.118 161.578 178.721 161.768 178.717 161.765L178.715 161.764L178.714 161.763M176.603 160.141L176.593 160.133C174.102 158.219 171.734 155.365 169.825 152.732C167.97 150.174 166.503 147.761 165.735 146.497C165.708 146.453 165.682 146.411 165.657 146.37C165.37 145.898 165.52 145.283 165.992 144.996M176.603 160.141C176.622 160.158 176.643 160.174 176.663 160.189L176.694 160.212L178.707 161.758" fill="black"/>
<path fill-rule="evenodd" clip-rule="evenodd" d="M188.258 115.928C188.729 115.639 189.345 115.786 189.634 116.257C190.498 117.667 191.366 119.079 192.233 120.491L192.234 120.492C193.101 121.904 193.969 123.317 194.834 124.727L194.834 124.728C195.552 125.9 196.33 127.165 197.052 128.339C197.457 128.998 197.844 129.628 198.194 130.197L198.196 130.2C199.17 131.802 200.436 133.201 201.922 134.348C201.922 134.348 201.922 134.348 201.922 134.348L224.281 151.558C224.719 151.894 224.801 152.522 224.464 152.96C224.127 153.398 223.499 153.479 223.061 153.142L200.7 135.932C199.027 134.64 197.594 133.059 196.488 131.241C196.141 130.676 195.755 130.048 195.35 129.39C194.627 128.215 193.847 126.946 193.129 125.773M188.258 115.928C187.788 116.216 187.64 116.832 187.929 117.303L188.258 115.928ZM187.929 117.303C188.794 118.713 189.662 120.126 190.529 121.538L187.929 117.303ZM190.529 121.538C191.397 122.951 192.264 124.363 193.129 125.773L190.529 121.538Z" fill="black"/>
<path d="M289.559 98.92C289.589 98.96 289.629 98.99 289.659 99.03C289.629 98.99 289.599 98.96 289.559 98.92Z" fill="#00CD73"/>
<path d="M277.808 117.26C277.308 117.13 276.828 116.97 276.348 116.78C275.718 116.53 275.118 116.22 274.558 115.87C273.708 115.34 272.928 114.7 272.248 113.97C272.018 113.73 271.808 113.48 271.598 113.21C271.498 113.08 271.398 112.95 271.298 112.81C271.108 112.54 270.918 112.26 270.748 111.97C269.718 110.25 269.128 108.23 269.128 106.08C269.128 104.46 269.458 102.92 270.068 101.52C270.198 101.21 270.348 100.91 270.508 100.61C270.748 100.17 271.018 99.74 271.308 99.33C271.408 99.19 271.508 99.06 271.608 98.93C271.818 98.67 272.038 98.42 272.258 98.17C272.488 97.93 272.728 97.69 272.978 97.47C273.228 97.25 273.488 97.04 273.748 96.84C274.018 96.64 274.288 96.45 274.578 96.27C274.858 96.09 275.158 95.93 275.458 95.78C275.908 95.55 276.378 95.35 276.858 95.18C277.018 95.12 277.178 95.07 277.348 95.02C277.678 94.92 278.008 94.84 278.348 94.77C278.518 94.74 278.688 94.7 278.858 94.68C278.218 94.63 277.578 94.59 276.928 94.54C275.358 94.43 273.778 94.32 272.208 94.2C271.258 94.87 270.388 95.66 269.618 96.55C267.338 99.19 266.078 102.57 266.078 106.06C266.078 109.54 267.328 112.92 269.598 115.55C269.998 116.02 270.428 116.45 270.878 116.86C272.218 116.96 273.548 117.05 274.888 117.15C276.188 117.24 277.498 117.35 278.808 117.44C278.478 117.42 278.138 117.35 277.808 117.26Z" fill="black"/>
<path d="M289.307 98.64C289.277 98.6 289.237 98.57 289.207 98.53C289.247 98.57 289.277 98.6 289.307 98.64Z" fill="#00CD73"/>
<path d="M292.177 106.22C292.177 106.26 292.177 106.3 292.177 106.34C292.047 112.47 287.137 117.41 281.027 117.61C283.767 117.71 286.977 116.14 288.847 114.27C290.817 112.3 292.307 109.06 292.177 106.22Z" fill="#00CD73"/>
<path d="M290.856 100.87C290.846 100.85 290.836 100.82 290.816 100.8C290.826 100.82 290.846 100.84 290.856 100.87Z" fill="#00CD73"/>
<path d="M290.606 100.41C290.596 100.39 290.576 100.36 290.566 100.34C290.576 100.36 290.596 100.38 290.606 100.41Z" fill="#00CD73"/>
<path d="M278.816 117.47C279.396 117.51 279.966 117.55 280.546 117.58C279.976 117.55 279.396 117.51 278.816 117.47Z" fill="#00CD73"/>
<path d="M291.106 101.4C291.096 101.37 291.076 101.34 291.066 101.3C291.076 101.34 291.096 101.37 291.106 101.4Z" fill="#00CD73"/>
<path d="M290.318 99.92C290.298 99.89 290.278 99.86 290.258 99.83C290.278 99.86 290.298 99.89 290.318 99.92Z" fill="#00CD73"/>
<path d="M270.512 100.62C270.752 100.18 271.022 99.75 271.312 99.34C271.012 99.75 270.742 100.18 270.512 100.62Z" fill="#00CD73"/>
<path d="M271.609 98.95C271.819 98.69 272.039 98.44 272.259 98.19C272.029 98.43 271.819 98.68 271.609 98.95Z" fill="#00CD73"/>
<path d="M270.059 101.53C270.189 101.22 270.339 100.92 270.499 100.62C270.349 100.92 270.199 101.22 270.059 101.53Z" fill="#00CD73"/>
<path d="M272.252 113.98C272.022 113.74 271.812 113.49 271.602 113.22C271.802 113.48 272.022 113.73 272.252 113.98Z" fill="#00CD73"/>
<path d="M272.98 97.49C273.23 97.27 273.49 97.06 273.75 96.86C273.49 97.06 273.23 97.27 272.98 97.49Z" fill="#00CD73"/>
<path d="M276.349 116.79C275.719 116.54 275.119 116.23 274.559 115.88C275.119 116.23 275.719 116.54 276.349 116.79Z" fill="#00CD73"/>
<path d="M271.3 112.82C271.11 112.55 270.92 112.27 270.75 111.98C270.92 112.27 271.1 112.55 271.3 112.82Z" fill="#00CD73"/>
<path d="M277.812 117.26C277.312 117.13 276.832 116.97 276.352 116.78C276.822 116.98 277.312 117.14 277.812 117.26Z" fill="#00CD73"/>
<path d="M274.578 96.29C274.858 96.11 275.158 95.95 275.458 95.8C275.158 95.95 274.868 96.11 274.578 96.29Z" fill="#00CD73"/>
<path d="M277.352 95.04C277.682 94.94 278.012 94.86 278.352 94.79C278.012 94.86 277.682 94.95 277.352 95.04Z" fill="#00CD73"/>
<path d="M275.461 95.8C275.911 95.57 276.381 95.37 276.861 95.2C276.381 95.37 275.911 95.57 275.461 95.8Z" fill="#00CD73"/>
<path d="M291.488 102.39C291.728 103.1 291.898 103.83 292.008 104.56C291.898 103.83 291.728 103.09 291.488 102.39Z" fill="#00CD73"/>
<path d="M292.09 105.11C292.13 105.48 292.16 105.85 292.18 106.22C292.16 105.85 292.13 105.48 292.09 105.11Z" fill="#00CD73"/>
<path d="M289.969 99.43C290.519 100.18 290.959 101 291.299 101.87C290.969 101 290.529 100.17 289.969 99.43Z" fill="#00CD73"/>
<path d="M292.089 105.11C292.069 104.93 292.039 104.74 292.009 104.56C291.889 103.82 291.719 103.09 291.489 102.39C291.429 102.21 291.369 102.04 291.299 101.86C290.959 100.99 290.529 100.17 289.969 99.42C289.639 98.97 289.259 98.55 288.839 98.17L286.539 96.39C284.759 95.36 282.849 94.84 280.799 94.84C280.149 94.79 279.509 94.75 278.859 94.7C278.689 94.73 278.519 94.76 278.349 94.79C278.009 94.86 277.679 94.94 277.349 95.04C277.189 95.09 277.019 95.14 276.859 95.2C276.379 95.37 275.909 95.57 275.459 95.8C275.159 95.95 274.869 96.12 274.579 96.29C274.299 96.47 274.019 96.66 273.749 96.86C273.479 97.06 273.219 97.27 272.979 97.49C272.729 97.71 272.489 97.95 272.259 98.19C272.029 98.43 271.809 98.69 271.609 98.95C271.509 99.08 271.409 99.21 271.309 99.35C271.019 99.76 270.749 100.18 270.509 100.63C270.349 100.93 270.199 101.23 270.069 101.54C269.469 102.94 269.129 104.48 269.129 106.1C269.129 108.25 269.719 110.27 270.749 111.99C270.919 112.28 271.099 112.56 271.299 112.83C271.399 112.97 271.499 113.1 271.599 113.23C271.809 113.49 272.019 113.74 272.249 113.99C272.929 114.72 273.709 115.36 274.559 115.89C275.129 116.24 275.729 116.55 276.349 116.8C276.819 116.99 277.309 117.15 277.809 117.28C278.139 117.36 278.479 117.43 278.819 117.49C279.399 117.53 279.969 117.57 280.549 117.6C280.629 117.6 280.709 117.61 280.799 117.62C280.879 117.63 280.959 117.62 281.029 117.63C287.139 117.44 292.049 112.49 292.179 106.36C292.179 106.32 292.179 106.28 292.179 106.24C292.159 105.85 292.129 105.48 292.089 105.11Z" fill="#FF84F9"/>
<path d="M166.512 125.66C173.603 125.66 179.352 119.911 179.352 112.82C179.352 105.729 173.603 99.98 166.512 99.98C159.421 99.98 153.672 105.729 153.672 112.82C153.672 119.911 159.421 125.66 166.512 125.66Z" fill="#C8E6FF"/>
<path d="M154.99 71.76C154.14 73.09 153.59 74.66 153.25 76.25C155.55 79.72 159.48 82.01 163.96 82.01C171.05 82.01 176.8 76.26 176.8 69.17C176.8 66.54 176.01 64.09 174.65 62.05C171.03 62.74 167.83 63.37 165.72 63.81C160.56 64.9 157.7 67.49 154.99 71.76Z" fill="#C8E6FF"/>
<path d="M318.759 187.08L337.139 212.47L294.389 250.35L284.449 232.69L318.759 187.08Z" fill="#648CFF"/>
<path fill-rule="evenodd" clip-rule="evenodd" d="M188.559 221.984C188.96 222.364 188.977 222.997 188.597 223.398L168.357 244.748C168.14 244.977 167.828 245.09 167.515 245.053C167.202 245.017 166.924 244.834 166.766 244.562L161.436 235.372C161.159 234.894 161.321 234.282 161.799 234.005C162.277 233.728 162.889 233.891 163.166 234.368L167.825 242.402L187.145 222.022C187.525 221.621 188.158 221.604 188.559 221.984Z" fill="black"/>
<path d="M252.27 239.59L262.52 249.06C259.1 256.65 260.85 265.98 267.61 272.17L274.64 278.61C283.03 286.3 296.03 286.27 303.9 278.55L366.34 217.31C374.16 209.64 374.08 197.17 366.17 189.12L359.49 182.33C353.02 175.75 343.29 174.11 335.44 177.54L325.64 167.7C321.71 163.76 314.78 164.15 310.28 168.56L252.98 224.76C248.53 229.14 248.2 235.82 252.27 239.59Z" fill="#FDCD01"/>
<mask id="mask0" mask-type="alpha" maskUnits="userSpaceOnUse" x="249" y="165" width="123" height="120">
<path d="M251.852 239.609L262.102 249.079C258.682 256.669 260.432 265.999 267.192 272.189L274.222 278.629C282.612 286.319 295.612 286.289 303.482 278.569L365.922 217.329C373.742 209.659 373.662 197.189 365.752 189.139L359.072 182.349C352.602 175.769 342.872 174.129 335.022 177.559L325.222 167.719C321.292 163.779 314.362 164.169 309.862 168.579L252.562 224.779C248.112 229.159 247.782 235.839 251.852 239.609Z" fill="#FDCD01"/>
</mask>
<g mask="url(#mask0)">
<path d="M300.93 176.51C323.15 168.79 347.19 178.66 364.99 192.2C373.92 199 382.78 207.93 385.3 219.26C387.6 229.62 383.82 242.01 373.41 246.3C362.27 250.88 349.79 244.59 341.49 237.17C333.22 229.77 323.89 216.93 329.96 205.48C336.57 192.99 353.22 198.78 362.02 205.13C371.13 211.69 378.19 220.83 383.28 230.77C388.16 240.28 392.28 251.36 392.5 262.16C392.77 275.2 385.38 283.73 372.96 286.88C348.95 292.99 324.41 281.6 307.57 264.83C299.04 256.33 291.43 246.25 287.51 234.76C283.78 223.83 283.5 207.35 294.88 200.63C307.87 192.97 321.52 205.12 328.62 215.07C335.33 224.46 340.41 235.55 342.3 246.98C344.21 258.48 341.8 271.94 329.24 275.98C318.13 279.55 305.56 275.47 295.97 269.67C276.57 257.95 262.01 236.76 255.56 215.28C252.36 204.61 250.22 192.01 252.88 180.99C255.76 169.06 266.03 163.66 277.69 164.17C298.79 165.08 317.9 181.27 327.42 199.29C332.43 208.76 335.8 220.28 334.05 231.05C331.79 244.9 319.92 252.03 306.37 249.41C294.5 247.12 284.03 238.76 275.21 230.92C266.52 223.19 258.81 214.36 252.38 204.67C246.46 195.75 240.73 185.68 240.07 174.75C239.29 161.87 248.1 153.24 260.71 152.64C271.81 152.12 283.11 156.34 293.14 160.65C303.81 165.24 314.05 171.3 322.03 179.85C330.16 188.56 337.91 202.11 334.96 214.47C332.55 224.55 322.02 229.72 312.37 230.08C290.07 230.9 271.9 206.49 267.09 186.85C264.19 175 267.96 163.34 279.02 157.46C287.63 152.88 297.96 151.98 307.53 152.88C328.05 154.8 347.94 163.92 363.52 177.28C379.4 190.89 395.63 212.88 393.92 234.88C392.97 247.08 384.36 258.97 371.56 260.26C365.4 260.88 359.2 259.19 353.31 257.59C346.91 255.85 340.49 253.84 334.69 250.57C316.55 240.35 309.67 217.78 314.86 198.26C317.96 186.56 325.67 176.11 338.98 177.03C350.61 177.83 362.21 184.9 370.91 192.28C388.51 207.2 398.81 228.88 400.85 251.72C401.89 263.32 401.02 275.21 398.24 286.53C395.65 297.05 390.7 307.98 380.56 313.12C369.3 318.83 354.78 316.92 342.79 315.09C330.43 313.21 317.65 310.08 306.42 304.49C285.85 294.25 274.57 271.48 279.37 248.81C281.97 236.53 291 226.96 304.33 230.68C315.66 233.84 324.24 243.76 329.68 253.73C338 268.97 348.69 305.57 325.19 313.43C314.03 317.17 301.63 311.94 292.37 305.81C283.35 299.84 275.75 291.89 269.66 282.99C263.76 274.38 259.19 264.91 255.74 255.07C251.78 243.79 248.52 231.52 249.11 219.48C249.68 207.92 255.01 195.85 265.74 190.35C277.43 184.36 290.73 189.09 300.18 197.04C308.96 204.43 315.25 214.87 318.36 225.87C321.74 237.81 322.98 257.42 305.3 256.63C293.97 256.12 282.98 246.7 275.03 239.39C267.1 232.09 260.26 223.63 254.76 214.36C249.33 205.21 245.23 195.26 242.76 184.91C240.32 174.67 236.88 158.77 245.22 150.31C254.05 141.35 270.01 143.68 280.67 147.31C291.75 151.09 301.77 157.47 311.48 163.87C320.79 170.01 330.36 176.64 336.93 185.83C338.37 187.85 339.67 190 340.73 192.25C341.7 194.32 342.33 195.36 340.12 196.54C338.4 197.46 334.77 196.97 333.02 196.64C327.28 195.56 321.92 192.42 317.03 189.35C307.28 183.23 297.43 174.77 291.32 164.87C287.79 159.15 287.65 152.96 292.78 148.16C298.19 143.1 305.98 142.76 312.95 143.53C335.94 146.05 361.77 153.23 378.58 169.9C393.79 184.98 400.89 211.1 383.34 227.55C373.91 236.38 360.04 236.74 347.94 234.77C336.41 232.89 323.96 227.15 320.68 214.89C317.36 202.48 327.44 194.02 339.16 194.31C350.82 194.59 360.03 202.7 367.2 211.14C381.7 228.17 397.53 251.33 390.98 274.86C383.62 301.32 352.93 303.41 330.81 296.82C309.66 290.52 281.43 277.55 279.2 252.29C278.95 249.47 279.02 246.37 279.82 243.63C280.15 242.83 280.47 242.03 280.8 241.23C283.13 240.49 285.47 239.76 287.8 239.02C289.55 239.12 291.96 240.73 293.51 241.63C298.33 244.44 302.74 247.96 306.64 251.95C314.32 259.79 320.06 269.68 322.66 280.37C324.27 287.02 324.99 294.73 320.71 300.56C315.24 307.99 306.87 306.43 300.06 301.88C290.85 295.72 283.13 287.17 276.8 278.15C270.91 269.76 266.06 260.67 261.75 251.38C256.71 240.52 251.69 229.28 248.52 217.71C246.74 211.2 245.65 204.39 246.31 197.63C246.72 193.39 247.67 189 252 187.09C255.18 185.69 258.84 186.31 262.03 187.4C271.84 190.74 279.65 200.06 283.7 209.31C287.84 218.75 289.29 231.24 284.44 240.74C276.49 256.31 258.96 241.1 251.64 233.29C243.7 224.82 237.34 214.97 231.6 204.92C225.53 194.3 219.57 182.02 221.82 169.45C223.99 157.33 233.31 148.89 245.84 149.26C257.08 149.59 268.68 154.69 278.3 160.21C282.41 162.57 286.35 165.31 289.64 168.74C291.49 170.68 293.13 172.84 294.38 175.22C295.4 177.15 296.21 177.95 294.92 179.64C293.3 181.76 288.57 180.94 286.41 180.43C280.66 179.08 276.14 175.07 272.08 171.01C267.6 166.53 262.12 161.53 261.14 154.97C258.95 140.32 275.8 133.99 287.43 133.99C299.34 133.99 311.88 136.65 323.1 140.56C334.31 144.46 344.96 150.6 352.88 159.57C359.91 167.53 371.03 186.02 358.47 194.01C348.14 200.58 333.36 193.47 324.84 186.75C320.36 183.22 316.13 178.35 315.9 172.35C315.62 165.1 321.34 159.47 327.65 156.98C338.62 152.66 352.32 155.34 363.39 158.08C374.37 160.8 384.95 165.17 394.55 171.18C413.84 183.28 428.72 202.69 433.14 225.26C435.42 236.92 435.05 250 429.47 260.72C424.31 270.62 415.13 277.6 405.61 283.01C385.56 294.41 359.11 304.63 336.98 292.97C327.66 288.06 319.11 279 318.82 267.91C318.69 263.02 320.27 257.74 323.96 254.37C329.8 249.04 338.05 250.9 344.03 254.86C362.53 267.12 368.79 298.36 356.17 316.71C340.46 339.54 306.62 324.13 288.32 313.72C268.4 302.4 250.22 285.58 244.54 262.6C243.3 257.58 242.72 252.38 242.96 247.21C243.08 244.63 243.05 240.47 244.3 238.15C244.42 237.73 244.54 237.32 244.66 236.9C247.33 236.35 250 235.8 252.67 235.25C254.41 235.82 255.95 239.17 256.91 240.71C263.04 250.5 264.78 268.42 250.13 271.81C238.1 274.59 226.03 263.38 219.95 254.28C214.15 245.6 210.75 235.44 208.74 225.26C206.29 212.82 206.07 199.22 212.84 188.02C219.2 177.5 230.84 171.91 243.02 173.85C248.97 174.8 254.39 177.48 258.8 181.6C261.09 183.74 270.13 194.2 265.33 196.67C259.58 199.64 250.98 191.63 247.25 188.21C242.99 184.3 238.86 180.1 235.74 175.19C229 164.59 229.78 152.41 238.63 143.3C247.46 134.21 260.49 131.71 272.7 131.8C293.87 131.95 324.21 136.18 337.04 155.4C353.2 179.62 304.64 198.91 295.17 173.27C290.86 161.62 297.83 149.99 308.24 144.68C320.08 138.64 333.89 139.92 346.42 142.8C367.06 147.55 389.25 155.61 403.19 172.39C416.8 188.78 419.76 211.66 412.65 231.47C406.03 249.92 387.86 269.89 366.75 269.77C355.6 269.71 342.27 261.21 344.9 248.56C345.97 243.4 349.64 238.78 354.89 237.52C362.31 235.74 369.54 241.16 374.09 246.41C389.34 264.01 388.09 291.06 370.39 306.39C351.04 323.15 322.52 317.71 301.5 307.06C281.45 296.9 264.96 278.72 261.26 256.02C260.76 252.97 260.52 249.88 260.55 246.79C260.56 245.34 260.49 243.7 260.88 242.29C261.94 238.37 266.33 236.4 269.89 238.34C274.74 240.99 278.43 248.02 280.51 252.95C283.33 259.64 282.58 267.87 274.25 269.62C267.67 271 261.56 267.41 256.96 263.06C241.6 248.53 224.47 222.67 238.14 201.86C238.65 201.08 237.4 200.36 236.89 201.13C226.46 217 233.73 236.17 243.97 250.07C249.14 257.09 255.16 265.4 263.18 269.35C268.55 272 276.12 272.46 280.66 267.9C285.8 262.74 283.43 255.04 280.46 249.43C277.53 243.9 272.48 234.91 264.99 235.88C257.67 236.83 258.88 247.09 259.36 252.29C260.19 261.17 263.09 269.79 267.48 277.53C276.5 293.45 291.64 305.02 308.45 311.77C325.72 318.7 346.61 322.28 363.64 312.85C377.91 304.94 387.02 289.77 386.27 273.35C385.6 258.8 375.93 237.49 359.31 235.86C345.48 234.5 339.04 251.42 346.53 261.61C356.84 275.64 376.25 271.83 388.93 263.77C416.26 246.42 425.99 208.4 410.26 180.11C401.69 164.7 386.34 154.9 370.31 148.57C352.79 141.65 330.31 134.72 311.8 141.55C298.38 146.51 287.82 160.63 294.39 175.09C300.91 189.45 319.65 189.22 331.33 181.75C337.38 177.88 342.83 171.71 342 164.07C341.18 156.54 335.58 150.22 329.77 145.85C314.81 134.59 294.65 131.19 276.36 130.42C259.35 129.71 238.57 133.93 231.38 151.57C224.77 167.79 238.04 182.76 249.81 192.33C254.95 196.51 262.06 200.61 268.43 196.71C268.71 196.54 268.84 196.21 268.76 195.89C264.12 177.55 243.78 166.91 226.12 174.35C207.59 182.16 203.9 204.22 206.72 221.96C209.59 240.01 217.26 260.09 233.94 269.61C240.95 273.61 250 275.66 256.76 270.04C263.09 264.78 264.45 256.02 262.15 248.45C260.56 243.2 255.26 231.02 248.13 231.81C240.8 232.63 241.3 246.84 241.52 251.85C242.46 272.82 255.16 291.14 271.13 303.88C279.31 310.4 288.39 315.74 297.81 320.24C307.59 324.91 317.99 329.16 328.94 329.68C337.52 330.08 346.75 327.91 353.3 322.1C360.21 315.97 363.18 306.19 363.88 297.24C365.23 279.98 356.86 257.06 339.23 250.72C322.15 244.58 313.52 263.57 319.62 277.34C327.55 295.23 349.34 301.41 367.26 298.87C377.98 297.35 388.19 293.32 397.89 288.62C406.88 284.26 415.82 279.17 422.89 271.99C437.16 257.5 438.39 235.86 432.63 217.21C426.52 197.44 412.71 180.82 395.3 169.88C378.42 159.27 355.67 151.57 335.52 153.63C327.37 154.46 318.65 158.32 315.49 166.46C312.57 174 316.58 181.36 322.19 186.37C328.9 192.34 338.76 197.37 347.84 197.88C355.24 198.29 363.32 194.82 365.15 187.04C367.14 178.57 361.85 168.76 356.97 162.22C351.22 154.52 343.49 148.43 334.99 144.03C324.74 138.72 313.46 135.72 302.1 133.91C292.43 132.37 281.72 131.13 272.48 135.21C265.37 138.35 259.17 145.45 259.52 153.6C259.9 162.39 268.45 169.95 274.59 175.31C280.91 180.82 289.32 184.56 297.38 180.53C297.66 180.39 297.8 180.01 297.71 179.71C295.2 171.19 288.92 165.07 281.57 160.42C272.92 154.95 262.55 150.43 252.49 148.51C243.74 146.84 234.28 147.84 227.72 154.41C221.8 160.34 219.41 169.18 220 177.39C220.81 188.69 226.47 199.04 232.12 208.6C237.92 218.41 244.36 227.98 252.41 236.1C258.37 242.12 266.98 249.94 276.25 248.67C284.53 247.53 287.56 238.77 288.5 231.54C290.76 214.28 281.16 194.77 265.24 187.11C258.91 184.06 249.74 183.17 246.35 190.75C241.99 200.51 245.63 213.97 248.82 223.5C255.78 244.29 265.36 265.82 278.82 283.23C286.78 293.53 308.94 318.81 321.87 301.49C327.67 293.71 325.36 282.58 322.35 274.17C319.07 264.97 313.58 256.61 306.61 249.78C301.52 244.8 291.15 235 283.25 237.49C275.66 239.87 277.3 252.69 278.92 258.36C284.93 279.41 306.85 290.2 325.99 296.72C344.74 303.11 369.2 305.47 384.27 289.76C398.72 274.7 394.77 251.63 385.75 234.94C380.47 225.16 373.56 215.79 366.08 207.58C359.8 200.69 351.96 194.39 342.46 193.06C334.96 192.01 326.19 193.9 321.54 200.36C316.92 206.79 318.21 215.44 322.25 221.82C327.27 229.74 336.3 233.84 345.21 235.66C355.05 237.67 366.37 238.21 375.77 234.17C392.14 227.14 398.44 207.13 393.5 190.89C387.36 170.71 368.52 157.52 349.58 150.6C338.43 146.53 326.48 143.78 314.72 142.23C305.95 141.07 295.68 141.47 289.87 149.19C284.37 156.51 288.56 163.94 293.53 170.19C300.42 178.84 308.93 186.19 318.45 191.81C325.79 196.15 335.05 200.9 343.42 196.61C343.69 196.47 343.85 196.08 343.75 195.79C340.05 185.32 332.46 177.39 323.82 170.7C313.42 162.64 301.86 155.11 289.97 149.48C272.66 141.29 240.03 136.51 238.82 163.79C237.84 186.02 248.1 209.4 261.46 226.63C268.8 236.09 277.66 244.42 287.67 251.01C295.7 256.3 307.48 261.68 316.37 254.93C324.73 248.58 322.35 234.95 320 226.18C316.91 214.66 310.38 203.66 301.23 195.93C293.21 189.17 282.47 184.39 271.82 186.58C262.3 188.54 254.83 195.9 250.98 204.6C245.79 216.34 247.41 229.8 250.37 241.89C253.13 253.2 257.22 264.26 262.82 274.48C273.08 293.21 291.15 313.06 313.58 315.71C361.67 321.4 338.12 229.11 298.71 228.24C275.03 227.72 274.46 261.3 279.92 276.98C288.5 301.62 313.14 310.9 336.84 315.43C349.05 317.76 363.02 319.92 375.22 316.57C385.38 313.79 392.34 306.27 396.38 296.77C405.95 274.29 404.74 245.52 395.38 223.25C386.69 202.58 369.1 183.89 347.3 177.14C337.38 174.06 327.02 175.1 320.2 183.62C314.08 191.27 311.69 201.85 311.74 211.48C311.79 221.6 314.72 231.85 320.73 240.06C327.08 248.74 336.41 253.73 346.47 256.99C357.54 260.58 370.93 264.81 381.71 258.27C390.42 252.99 395.16 243.05 395.46 233.08C396.16 210.24 379.18 187.94 362.26 174.24C345.56 160.72 323.8 151.29 302.09 151.04C282.41 150.81 261.38 161.05 265.04 183.92C266.81 194.98 272.98 205.61 280.02 214.18C286.81 222.45 296.12 229.7 307.01 231.17C315.24 232.28 324.43 230.19 330.61 224.44C338.54 217.07 337.91 205.85 334.34 196.43C325.72 173.65 301.83 160.84 279.8 154.07C270.42 151.18 258.98 149.09 249.75 153.64C240.59 158.15 237.57 167.93 238.92 177.52C240.47 188.47 246.34 198.42 252.52 207.37C259.84 217.97 268.67 227.52 278.65 235.66C287.88 243.19 298.69 250.84 311.04 251.31C320.71 251.67 329.63 247.15 333.53 238.06C342.13 218.05 328.59 192.93 314.06 179.48C301 167.39 275.7 154.59 259.14 167.78C250.65 174.54 249.91 186.34 250.61 196.36C251.41 207.84 254.6 219.07 259.52 229.45C269.3 250.07 287.31 271.55 310.35 277.27C319.74 279.6 331.42 279.42 338.47 271.82C345.19 264.57 345.19 253.48 343.29 244.38C340.8 232.46 335.24 220.98 327.74 211.42C321.19 203.07 311.39 195.29 300.07 197.18C289.64 198.93 284.45 209.2 283.78 218.91C282.97 230.71 288.12 242.18 294.69 251.69C308.58 271.78 330.57 288.02 355.53 289.72C365.82 290.42 378.45 288.97 386.49 281.85C394.24 274.99 394.83 264.02 393.14 254.48C389.41 233.42 376.22 209.48 356.3 199.91C348.18 196.01 336.77 194.28 330.35 202.16C323.91 210.05 326.88 221.05 332.12 228.65C342.04 243.04 368.25 259.77 382.43 241.02C396.03 223.02 380.26 201.91 365.71 190.86C347.6 177.11 323.12 167.17 300.54 175.02C299.67 175.42 300.05 176.82 300.93 176.51Z" fill="#FF84F9"/>
</g>
</g>
<defs>
<clipPath id="clip0">
<rect width="300" height="268" fill="white" transform="translate(72 16)"/>
</clipPath>
</defs>
</svg>
