<svg width="180" height="60" viewBox="0 0 180 60" fill="none" xmlns="http://www.w3.org/2000/svg">
<path d="M173.333 60H6.66667C3 60 0 56.625 0 52.5V7.5C0 3.375 3 -3.8147e-06 6.66667 -3.8147e-06H173.333C177 -3.8147e-06 180 3.375 180 7.5V52.5C180 56.625 177 60 173.333 60Z" fill="black"/>
<path d="M173.333 -3.8147e-06H6.66667C3 -3.8147e-06 0 3.375 0 7.5V52.5C0 56.625 3 60 6.66667 60H173.333C177 60 180 56.625 180 52.5V7.5C180 3.375 177 -3.8147e-06 173.333 -3.8147e-06ZM173.333 1.2C176.421 1.2 178.933 4.0266 178.933 7.5V52.5C178.933 55.974 176.421 58.8006 173.333 58.8006H6.66667C3.5792 58.8006 1.06667 55.974 1.06667 52.5V7.5C1.06667 4.0266 3.5792 1.2 6.66667 1.2H173.333Z" fill="#A6A6A6"/>
<path d="M142.582 43.8563H145.07V27.1881H142.582V43.8563ZM164.991 33.1923L162.139 40.4189H162.054L159.094 33.1923H156.414L160.852 43.2927L158.322 48.911H160.918L167.758 33.1923H164.991ZM150.882 41.9631C150.066 41.9631 148.93 41.5558 148.93 40.5475C148.93 39.261 150.346 38.7678 151.567 38.7678C152.662 38.7678 153.175 39.0037 153.84 39.3257C153.647 40.8694 152.318 41.9631 150.882 41.9631ZM151.182 32.8277C149.38 32.8277 147.515 33.6214 146.743 35.3798L148.951 36.3017C149.423 35.3798 150.302 35.0793 151.224 35.0793C152.511 35.0793 153.819 35.8517 153.84 37.2241V37.3954C153.39 37.1381 152.426 36.7522 151.246 36.7522C148.866 36.7522 146.442 38.0599 146.442 40.5047C146.442 42.735 148.394 44.1719 150.58 44.1719C152.254 44.1719 153.175 43.4214 153.755 42.5423H153.84V43.8287H156.242V37.4381C156.242 34.4793 154.034 32.8277 151.182 32.8277ZM135.806 35.2214H132.267V29.5079H135.806C137.666 29.5079 138.722 31.0479 138.722 32.3646C138.722 33.6563 137.666 35.2214 135.806 35.2214ZM135.742 27.1881H129.78V43.8563H132.267V37.5413H135.742C138.499 37.5413 141.21 35.5449 141.21 32.3646C141.21 29.1845 138.499 27.1881 135.742 27.1881ZM103.234 41.9662C101.515 41.9662 100.076 40.5271 100.076 38.5506C100.076 36.5533 101.515 35.0923 103.234 35.0923C104.931 35.0923 106.262 36.5533 106.262 38.5506C106.262 40.5271 104.931 41.9662 103.234 41.9662ZM106.09 34.1257H106.004C105.446 33.4599 104.372 32.8585 103.019 32.8585C100.183 32.8585 97.5841 35.3501 97.5841 38.5506C97.5841 41.7298 100.183 44.2001 103.019 44.2001C104.372 44.2001 105.446 43.5985 106.004 42.9115H106.09V43.7277C106.09 45.8975 104.931 47.0574 103.062 47.0574C101.537 47.0574 100.591 45.9615 100.204 45.0381L98.0352 45.9402C98.6581 47.4438 100.312 49.2913 103.062 49.2913C105.983 49.2913 108.453 47.5725 108.453 43.3839V33.2022H106.09V34.1257ZM110.172 43.8563H112.663V27.1875H110.172V43.8563ZM116.337 38.3574C116.272 36.1662 118.034 35.0495 119.301 35.0495C120.29 35.0495 121.127 35.5433 121.406 36.2527L116.337 38.3574ZM124.07 36.4673C123.598 35.1995 122.158 32.8585 119.215 32.8585C116.293 32.8585 113.866 35.1569 113.866 38.5293C113.866 41.7085 116.272 44.2001 119.494 44.2001C122.094 44.2001 123.598 42.6105 124.22 41.687L122.287 40.3979C121.643 41.3433 120.762 41.9662 119.494 41.9662C118.227 41.9662 117.325 41.3861 116.745 40.2479L124.327 37.1115L124.07 36.4673ZM63.6587 34.5985V37.0042H69.4153C69.2435 38.3574 68.7924 39.3454 68.1049 40.0329C67.2675 40.8709 65.9571 41.7943 63.6587 41.7943C60.1143 41.7943 57.3435 38.9375 57.3435 35.3933C57.3435 31.849 60.1143 28.9918 63.6587 28.9918C65.5705 28.9918 66.9664 29.7438 67.9976 30.7105L69.6945 29.0137C68.2555 27.6386 66.3435 26.5861 63.6587 26.5861C58.8039 26.5861 54.7227 30.5386 54.7227 35.3933C54.7227 40.2479 58.8039 44.2001 63.6587 44.2001C66.2795 44.2001 68.2555 43.3413 69.8019 41.7298C71.3915 40.1402 71.8857 37.9063 71.8857 36.1022C71.8857 35.5433 71.8429 35.0282 71.7565 34.5985H63.6587ZM78.4305 41.9662C76.7117 41.9662 75.2295 40.5485 75.2295 38.5293C75.2295 36.4886 76.7117 35.0923 78.4305 35.0923C80.1487 35.0923 81.6309 36.4886 81.6309 38.5293C81.6309 40.5485 80.1487 41.9662 78.4305 41.9662ZM78.4305 32.8585C75.294 32.8585 72.7377 35.2427 72.7377 38.5293C72.7377 41.7943 75.294 44.2001 78.4305 44.2001C81.5664 44.2001 84.1227 41.7943 84.1227 38.5293C84.1227 35.2427 81.5664 32.8585 78.4305 32.8585ZM90.8481 41.9662C89.13 41.9662 87.6476 40.5485 87.6476 38.5293C87.6476 36.4886 89.13 35.0923 90.8481 35.0923C92.5664 35.0923 94.0487 36.4886 94.0487 38.5293C94.0487 40.5485 92.5664 41.9662 90.8481 41.9662ZM90.8481 32.8585C87.7117 32.8585 85.156 35.2427 85.156 38.5293C85.156 41.7943 87.7117 44.2001 90.8481 44.2001C93.9841 44.2001 96.5404 41.7943 96.5404 38.5293C96.5404 35.2427 93.9841 32.8585 90.8481 32.8585Z" fill="white"/>
<path d="M14.013 47.0424L13.9139 46.9477C13.5259 46.5371 13.2969 45.8996 13.2969 45.0742V45.2684V15.7805C13.2969 15.7778 13.2969 15.7758 13.2969 15.7737C13.2969 15.7762 13.2969 15.7783 13.2969 15.781V15.9758C13.2969 15.0819 13.5639 14.4086 14.0114 14.0049L30.5311 30.5242L14.013 47.0424ZM13.2969 15.7721C13.2969 15.6986 13.2989 15.6273 13.3026 15.557C13.2989 15.6267 13.2969 15.6986 13.2969 15.7721ZM13.3026 15.5538C13.3026 15.5529 13.3026 15.5518 13.303 15.5507C13.3026 15.5518 13.3026 15.5529 13.3026 15.5538ZM13.303 15.5445C13.303 15.5439 13.303 15.5434 13.303 15.5429C13.303 15.5434 13.303 15.5439 13.303 15.5445Z" fill="url(#paint0_linear)"/>
<path d="M36.037 36.2278L36.1626 36.1564L42.6865 32.4496C43.3085 32.096 43.723 31.6674 43.9298 31.2138C43.7235 31.6674 43.3089 32.0966 42.6865 32.4502L36.1626 36.157L36.037 36.2278ZM36.0386 36.0324L30.5312 30.5242L36.038 25.0168L42.6865 28.7939C43.5307 29.2736 44.0047 29.8919 44.0839 30.5236C44.0839 30.5242 44.0839 30.5252 44.0839 30.5262C44.0047 31.1564 43.5307 31.7752 42.6865 32.2548L36.0386 36.0324Z" fill="url(#paint1_linear)"/>
<path d="M15.1901 47.6714C14.7287 47.6714 14.326 47.5214 14.012 47.238L14.0125 47.2375C14.3265 47.5208 14.7297 47.6714 15.1912 47.6714C15.2312 47.6714 15.2719 47.6703 15.3131 47.6683C15.2713 47.6703 15.2301 47.6714 15.1901 47.6714ZM15.1907 47.476C14.7292 47.4766 14.3265 47.326 14.0125 47.0427V47.0423L30.5307 30.524L36.038 36.0323L16.6844 47.0287C16.1489 47.3323 15.6416 47.476 15.1907 47.476ZM14.0079 47.2344C13.9787 47.2079 13.95 47.1798 13.9219 47.1506L14.0079 47.2344Z" fill="url(#paint2_linear)"/>
<path d="M30.5315 30.5241L14.0117 14.0048C14.3257 13.722 14.7279 13.572 15.1888 13.572C15.6409 13.572 16.1487 13.7163 16.6852 14.0204L36.0383 25.0168L30.5315 30.5241ZM36.1628 24.8924L16.6852 13.8257C16.1487 13.5215 15.6409 13.3772 15.1888 13.3772C15.1867 13.3772 15.1852 13.3772 15.1831 13.3772C15.1857 13.3772 15.1877 13.3772 15.1909 13.3772C15.642 13.3772 16.1492 13.5209 16.6852 13.8252L36.1628 24.8924Z" fill="url(#paint3_linear)"/>
<path d="M15.3137 47.6685C15.7329 47.6445 16.197 47.5002 16.685 47.2237L36.037 36.2278L16.685 47.2237C16.1974 47.5007 15.7329 47.6445 15.3137 47.6685ZM14.0126 47.2382L14.0085 47.2346C14.0099 47.2357 14.0115 47.2371 14.0126 47.2382ZM13.9225 47.1507L13.9141 47.1425V47.1419C13.9173 47.145 13.9198 47.1481 13.9225 47.1507Z" fill="black"/>
<path d="M36.0391 36.2278L36.1647 36.1564L36.0391 36.2278Z" fill="url(#paint4_linear)"/>
<path d="M15.1918 47.6714C14.7303 47.6714 14.3271 47.5209 14.0131 47.2375L14.0126 47.2381C14.0115 47.237 14.0099 47.2355 14.0085 47.2345L13.9225 47.1506C13.9198 47.1479 13.9173 47.1449 13.9141 47.1418L14.0131 47.0427C14.3271 47.3261 14.7298 47.4766 15.1913 47.4761C15.6422 47.4761 16.1495 47.3323 16.685 47.0287L36.0386 36.0323L36.1626 36.1563L36.037 36.2277L16.685 47.2235C16.197 47.5001 15.7329 47.6443 15.3137 47.6683C15.2725 47.6703 15.2318 47.6714 15.1918 47.6714Z" fill="url(#paint5_linear)"/>
<path d="M13.9139 47.1423C13.5259 46.7318 13.2969 46.0943 13.2969 45.2689V45.2683C13.2969 46.0943 13.5259 46.7313 13.9139 47.1418V47.1423Z" fill="black"/>
<path d="M13.9139 47.1418C13.5259 46.7313 13.2969 46.0944 13.2969 45.2684V45.0741C13.2969 45.8996 13.5259 46.537 13.9139 46.9476L14.013 47.0424L13.9139 47.1418Z" fill="url(#paint6_linear)"/>
<path d="M13.9141 47.1418L14.0131 47.0424V47.0428L13.9141 47.1418Z" fill="url(#paint7_linear)"/>
<path d="M43.9297 31.2136C44.0322 30.9886 44.0838 30.7574 44.0838 30.526C44.0838 30.5256 44.0838 30.5251 44.0838 30.5251C44.0838 30.7568 44.0322 30.988 43.9297 31.2136Z" fill="black"/>
<path d="M36.1631 36.1562L36.0391 36.0323L42.6869 32.2547C43.5312 31.7751 44.0052 31.1563 44.0844 30.526C44.0844 30.7573 44.0328 30.9885 43.9303 31.2136C43.7235 31.6672 43.3089 32.0959 42.6869 32.4495L36.1631 36.1562Z" fill="url(#paint8_linear)"/>
<path d="M44.0859 30.5242V30.5236C44.0854 29.8262 43.6193 29.1288 42.6885 28.5996L36.1646 24.8928H36.1641L36.1646 24.8924L42.6885 28.5991C43.6203 29.1283 44.087 29.8267 44.0859 30.5242Z" fill="#404040"/>
<path d="M44.0849 30.5237C44.0057 29.8919 43.5317 29.2737 42.6875 28.7939L36.0391 25.0169L36.1631 24.8929H36.1636L42.6875 28.5997C43.6183 29.1289 44.0844 29.8262 44.0849 30.5237Z" fill="url(#paint9_linear)"/>
<path d="M13.2969 15.7737C13.2969 15.7731 13.2969 15.7726 13.2969 15.7721C13.2969 15.7726 13.2969 15.7731 13.2969 15.7737ZM13.3026 15.557C13.3026 15.5559 13.3026 15.5549 13.3026 15.5538C13.3026 15.5549 13.3026 15.5559 13.3026 15.557ZM13.303 15.5507C13.303 15.5486 13.303 15.5466 13.303 15.5445C13.303 15.5466 13.303 15.5486 13.303 15.5507ZM13.303 15.5429C13.3802 14.1732 14.125 13.3819 15.1786 13.3773C14.7218 13.3799 14.3239 13.5299 14.0125 13.8106V13.8101L14.0087 13.8138C13.9759 13.8434 13.9447 13.8747 13.9139 13.907C13.5639 14.2773 13.3431 14.832 13.303 15.5429Z" fill="#404040"/>
<path d="M13.2969 15.9756V15.7808C13.2969 15.7781 13.2969 15.776 13.2969 15.7735C13.2969 15.7729 13.2969 15.7724 13.2969 15.7719C13.2969 15.6984 13.2989 15.6265 13.3026 15.5568C13.3026 15.5557 13.3026 15.5547 13.3026 15.5536C13.3026 15.5527 13.3026 15.5516 13.303 15.5505C13.303 15.5484 13.303 15.5464 13.303 15.5443C13.303 15.5437 13.303 15.5432 13.303 15.5427C13.3431 14.8317 13.5639 14.2771 13.9139 13.9068L14.0114 14.0047C13.5639 14.4084 13.2969 15.0817 13.2969 15.9756ZM14.0087 13.8136L14.0125 13.8099C14.0114 13.8115 14.0098 13.8125 14.0087 13.8136Z" fill="url(#paint10_linear)"/>
<path d="M36.0381 25.0168L16.685 14.0204C16.1485 13.7163 15.6407 13.572 15.1886 13.572C14.7277 13.572 14.3255 13.722 14.0115 14.0048L13.9141 13.907C13.9449 13.8747 13.9761 13.8434 14.0089 13.8138C14.0099 13.8127 14.0115 13.8116 14.0126 13.8106C14.3241 13.5299 14.7219 13.3799 15.1787 13.3772C15.1798 13.3772 15.1813 13.3772 15.1829 13.3772C15.185 13.3772 15.1865 13.3772 15.1886 13.3772C15.6407 13.3772 16.1485 13.5215 16.685 13.8258L36.1626 24.8924L36.1621 24.8928L36.0381 25.0168Z" fill="url(#paint11_linear)"/>
<path d="M56.1453 20.2068V20.3401H57.5645C58.512 20.3412 59.2849 20.0656 59.8532 19.5084C60.424 18.9505 60.7036 18.1667 60.7032 17.1896C60.7041 16.2199 60.4234 15.438 59.8532 14.8765C59.2854 14.3161 58.512 14.038 57.5645 14.0391H56.1453H56.012V20.3401H56.1453V20.2068H56.2786V14.3057H57.5645C58.463 14.3073 59.1532 14.5631 59.6661 15.0667V15.0661C60.1765 15.5713 60.4354 16.2677 60.4365 17.1896C60.4354 18.1188 60.176 18.8177 59.6661 19.3177C59.1536 19.8188 58.463 20.0719 57.5645 20.0735H56.1453V20.2068H56.2786H56.1453ZM55.1177 21.1896H55.251V13.3229H57.5645C58.7677 13.324 59.7084 13.6817 60.4202 14.3959C61.1308 15.1115 61.486 16.0317 61.4869 17.1896C61.486 18.3469 61.1308 19.2677 60.4202 19.9833C59.7084 20.6975 58.7677 21.0552 57.5645 21.0563H55.1177V21.1896H55.251H55.1177V21.3229H57.5645C58.8193 21.324 59.8448 20.9412 60.6093 20.1719C61.3729 19.4057 61.7546 18.4005 61.7536 17.1896C61.7546 15.9776 61.3729 14.9735 60.6093 14.2079C59.8448 13.438 58.8193 13.0552 57.5645 13.0563H54.9844V21.3229H55.1177V21.1896Z" fill="white"/>
<path d="M63.063 21.1896H63.1964V13.3229H63.9573V21.0563H63.063V21.1896H63.1964H63.063V21.3229H64.0906H64.224V13.0563H63.063H62.9297V21.3229H63.063V21.1896Z" fill="white"/>
<path d="M68.1771 21.3683V21.235C67.6255 21.2344 67.0864 21.0563 66.549 20.6891C66.0192 20.3256 65.6782 19.8266 65.513 19.1688L65.3839 19.2006L65.4339 19.3246L66.3724 18.9448L66.323 18.8208L66.1938 18.8542C66.3115 19.3183 66.5558 19.7156 66.9214 20.0328V20.0334C67.2891 20.3527 67.713 20.5194 68.1771 20.5183C68.6463 20.5188 69.0615 20.3932 69.402 20.1407C69.75 19.886 69.9328 19.5146 69.9296 19.0776C69.9323 18.6006 69.7542 18.2042 69.4036 17.9386C69.0651 17.6803 68.552 17.4527 67.8588 17.2407H67.8599C67.1646 17.0224 66.6468 16.7407 66.3036 16.4063C65.9651 16.0766 65.7974 15.6667 65.7958 15.1448C65.7974 14.6074 66.0042 14.1511 66.4359 13.7454C66.864 13.3464 67.4167 13.1448 68.1208 13.1438C68.7776 13.1443 69.2943 13.3074 69.6911 13.6235C70.1011 13.9511 70.3578 14.3001 70.4739 14.6708L70.6011 14.6313L70.55 14.5079L69.6124 14.8984L69.6635 15.0214L69.7927 14.987C69.7162 14.7011 69.5302 14.4427 69.2511 14.2146H69.2506C68.9594 13.9766 68.5834 13.8604 68.1432 13.861C67.7239 13.8604 67.3526 13.9792 67.05 14.2194V14.2188C66.7438 14.4568 66.5776 14.7782 66.5796 15.1448C66.5782 15.4823 66.7339 15.7808 67.0156 16.0032L67.0162 16.0037C67.2927 16.223 67.6834 16.412 68.1911 16.5787H68.1916V16.5792C68.5834 16.7047 68.9083 16.8261 69.1678 16.9427C69.4224 17.0568 69.6828 17.211 69.9474 17.4037C70.2026 17.5886 70.3906 17.8156 70.5198 18.0902C70.6479 18.3636 70.714 18.6839 70.714 19.0552C70.714 19.4251 70.6391 19.7479 70.4896 20.0328C70.3386 20.3208 70.1406 20.5443 69.8948 20.7104H69.8954C69.6416 20.8818 69.3703 21.012 69.0771 21.1011C68.7834 21.1907 68.4844 21.235 68.1771 21.235V21.3683V21.5016C68.5099 21.5016 68.8359 21.4532 69.1547 21.3563C69.473 21.2594 69.7692 21.1172 70.0443 20.9318L70.0448 20.9313C70.3276 20.7402 70.5568 20.4803 70.726 20.1563C70.8968 19.8303 70.9807 19.461 70.9807 19.0552C70.9807 18.6527 70.9088 18.2918 70.761 17.9766C70.614 17.6626 70.3932 17.397 70.1042 17.1875V17.188C69.8271 16.986 69.5511 16.8224 69.2771 16.6995C69.0052 16.5766 68.6714 16.4532 68.2735 16.3251H68.2744C67.7848 16.1651 67.4203 15.9844 67.1812 15.7948L67.1807 15.7943L67.1818 15.7948C66.9506 15.6074 66.8484 15.4032 66.8463 15.1448C66.849 14.8563 66.9615 14.6308 67.2151 14.4287V14.4282C67.4698 14.2282 67.773 14.1282 68.1432 14.1276C68.5386 14.1282 68.8448 14.2282 69.0823 14.4214L69.0839 14.4224L69.0823 14.4208C69.3312 14.6251 69.476 14.837 69.5348 15.0563L69.5744 15.2032L70.6526 14.7542L70.7651 14.7074L70.7287 14.5912C70.5922 14.1574 70.2968 13.7657 69.8578 13.4146C69.4058 13.0537 68.8208 12.8766 68.1208 12.8771C67.3667 12.876 66.7344 13.1006 66.2536 13.5506C65.7771 13.9938 65.5276 14.535 65.5291 15.1448C65.5276 15.7256 65.7271 16.2209 66.1178 16.5979C66.5036 16.9719 67.0588 17.2683 67.7802 17.4954H67.7807H67.7812C68.4578 17.7016 68.9474 17.9246 69.2416 18.15C69.5239 18.3694 69.661 18.6615 69.663 19.0776C69.661 19.4454 69.5282 19.712 69.2432 19.926C68.9511 20.1423 68.6006 20.2511 68.1771 20.2516C67.776 20.2506 67.4244 20.1151 67.0963 19.8318C66.7692 19.5464 66.5578 19.2032 66.452 18.788L66.414 18.6402L65.3339 19.0771L65.2266 19.1203L65.2547 19.2328C65.4307 19.9459 65.8162 20.512 66.3984 20.909C66.9703 21.3011 67.5667 21.5016 68.1771 21.5016V21.3683Z" fill="white"/>
<path d="M73.3518 16.9656V17.0989H75.0731C75.5346 17.1005 75.9267 16.9391 76.2117 16.6199C76.4898 16.3099 76.6371 15.9536 76.6362 15.5699C76.6371 15.186 76.4903 14.8292 76.2117 14.5199C75.9273 14.1995 75.5346 14.0375 75.0731 14.0391H73.3518H73.2185V17.0989H73.3518V16.9656H73.4851V14.3057H75.0731C75.4762 14.3079 75.7762 14.436 76.0127 14.6979L76.0147 14.7L76.0127 14.6979C76.2549 14.9693 76.3685 15.2532 76.3695 15.5699C76.3685 15.8865 76.2554 16.1693 76.0127 16.4417C75.7767 16.7032 75.4762 16.8308 75.0731 16.8323H73.3518V16.9656H73.4851H73.3518ZM73.3518 21.1896V21.0563H72.4581V13.3229H75.0513C75.6986 13.324 76.2475 13.5349 76.7205 13.9641C77.1903 14.3927 77.4185 14.9161 77.4199 15.5699C77.4185 16.2224 77.1903 16.7453 76.7205 17.1745H76.7199C76.2475 17.6041 75.6986 17.8151 75.0513 17.8161H73.3518H73.2185V21.1896H73.3518V21.0563V21.1896H73.4851V18.0828H75.0513C75.7575 18.0839 76.383 17.8437 76.8997 17.3713C77.4221 16.8995 77.6887 16.2869 77.6866 15.5699C77.6887 14.8521 77.4221 14.2391 76.8997 13.7667C76.383 13.2948 75.7575 13.0552 75.0513 13.0563H72.1914V21.3229H73.3518H73.4851V21.1896H73.3518Z" fill="white"/>
<path d="M80.2856 19.486L80.1908 19.5798C80.8048 20.2032 81.5711 20.5199 82.4591 20.5183C83.3466 20.5199 84.1138 20.2032 84.7268 19.5798C85.345 18.9558 85.6559 18.1484 85.6544 17.1896C85.6559 16.2308 85.345 15.4235 84.7268 14.7995C84.1138 14.176 83.3466 13.8594 82.4591 13.861C81.5711 13.8594 80.8048 14.176 80.1908 14.7995L80.1867 14.8036L80.1908 14.7995C79.5742 15.4235 79.2632 16.2308 79.2643 17.1896C79.2632 18.1484 79.5742 18.9558 80.1908 19.5798L80.2856 19.486L80.3804 19.3923C79.8148 18.8167 79.532 18.0927 79.531 17.1896C79.532 16.2866 79.8148 15.5626 80.3804 14.987C80.9512 14.4115 81.633 14.1292 82.4591 14.1276C83.2846 14.1292 83.9679 14.4115 84.5372 14.987C85.1039 15.5626 85.3867 16.2866 85.3878 17.1896C85.3867 18.0927 85.1039 18.8167 84.5372 19.3923C83.9679 19.9678 83.2846 20.25 82.4591 20.2516C81.633 20.25 80.9512 19.9678 80.3804 19.3923L80.2856 19.486ZM85.3924 20.1558L85.2971 20.0631C84.5324 20.8464 83.5976 21.2334 82.4591 21.235C81.32 21.2334 80.3851 20.8464 79.622 20.0631L79.6184 20.059L79.622 20.0631C78.8591 19.2771 78.4824 18.3292 78.4815 17.1896C78.4824 16.05 78.8591 15.1022 79.622 14.3162C80.3851 13.5328 81.32 13.1454 82.4591 13.1438C83.5903 13.1454 84.5231 13.5344 85.2919 14.3219C86.0575 15.1115 86.4362 16.0579 86.4378 17.1896C86.4362 18.3292 86.0586 19.2771 85.2971 20.0631L85.3924 20.1558L85.4882 20.2484C86.2966 19.4183 86.7054 18.3886 86.7044 17.1896C86.7054 15.9975 86.295 14.9699 85.483 14.136C84.6706 13.299 83.6528 12.8756 82.4591 12.8771C81.2591 12.8756 80.2382 13.297 79.431 14.1308V14.1303C78.6211 14.961 78.2138 15.9907 78.2148 17.1896C78.2138 18.3886 78.6211 19.4183 79.431 20.249V20.2484C80.2382 21.0823 81.2591 21.5027 82.4591 21.5016C83.6586 21.5027 84.6794 21.0823 85.4878 20.2484L85.3924 20.1558Z" fill="white"/>
<path d="M88.0122 21.1896H88.1456V13.3229H89.1893L93.0773 19.5464H93.1956H93.3325L93.2846 17.8693V13.3229H94.0466V21.0563H93.1809L89.1133 14.5312H88.995H88.8581L88.906 16.2084V21.0563H88.0122V21.1896H88.1456H88.0122V21.3229H89.0393H89.1726V16.2047L89.1284 14.6609L88.995 14.6645V14.7979H89.0393V14.6645L88.9262 14.7355L93.033 21.3229H94.18H94.3133V13.0563H93.1513H93.018V17.8729L93.0622 19.4167L93.1956 19.4131V19.2797H93.1513V19.4131L93.2642 19.3423L89.3372 13.0563H88.0122H87.8789V21.3229H88.0122V21.1896Z" fill="white"/>
<path d="M96.9732 12.5641V12.4308H96.2762L96.7502 11.2667H97.5497L96.8565 12.4984L96.9732 12.5641V12.4308V12.5641L97.0888 12.6292L98.0054 11H96.6601H96.5705L95.88 12.6975H96.9732H97.0508L97.0888 12.6292L96.9732 12.5641ZM96.0122 21.1896H96.1456V13.3229H96.906V21.0563H96.0122V21.1896H96.1456H96.0122V21.3229H97.0393H97.1726V13.0563H96.0122H95.8789V21.3229H96.0122V21.1896Z" fill="white"/>
<path d="M100.851 21.1896L100.976 21.1453L98.2242 13.3229H99.0794L101.27 19.8145H101.41H101.504L103.784 13.3229H104.638L101.83 21.0563H100.851V21.1896L100.976 21.1453L100.851 21.1896V21.3229H101.924H102.017L105.019 13.0563H103.689H103.594L101.284 19.6369L101.41 19.6812V19.5479H101.365V19.6812L101.491 19.6385L99.2706 13.0563H98.0357H97.8477L100.756 21.3229H100.851V21.1896Z" fill="white"/>
<path d="M110.659 14.1724V14.0391H106.883V16.8423H110.168V17.5365L106.883 17.5369V20.3401H110.526V21.0563H106.122V13.3229H110.526V14.1724H110.659V14.0391V14.1724H110.792V13.1896V13.0563H105.855V21.3229H110.792V20.2068V20.0735H107.15V17.8036H110.435V16.7089V16.5756H107.15V14.3057H110.792V14.1724H110.659Z" fill="white"/>
<path d="M112.27 21.1896H112.403V13.3229H113.164V20.3401H116.628V21.0563H112.27V21.1896H112.403H112.27V21.3229H116.894V20.2068V20.0735H113.431V13.0563H112.27H112.137V21.3229H112.27V21.1896Z" fill="white"/>
<path d="M120.739 21.1896H120.872V13.3229H121.916L125.804 19.5464H125.921H126.059L126.011 17.8693V13.3229H126.773V21.0563H125.907L121.84 14.5312H121.721H121.584L121.632 16.2084V21.0563H120.739V21.1896H120.872H120.739V21.3229H121.765H121.899V16.2047L121.855 14.6609L121.721 14.6645V14.7979H121.765V14.6645L121.652 14.7355L125.759 21.3229H126.907H127.04V13.0563H125.877H125.744V17.8729L125.788 19.4167L125.921 19.4131V19.2797H125.877V19.4131L125.991 19.3423L122.064 13.0563H120.739H120.605V21.3229H120.739V21.1896Z" fill="white"/>
<path d="M130.172 19.486L130.078 19.5798C130.691 20.2032 131.458 20.5199 132.346 20.5183C133.234 20.5199 134 20.2032 134.614 19.5798C135.231 18.9558 135.543 18.1484 135.542 17.1896C135.543 16.2308 135.231 15.4235 134.614 14.7995C134 14.176 133.234 13.8594 132.346 13.861C131.458 13.8594 130.691 14.176 130.078 14.7995C129.46 15.4235 129.15 16.2308 129.151 17.1896C129.15 18.1484 129.46 18.9558 130.078 19.5798L130.172 19.486L130.267 19.3923C129.702 18.8167 129.419 18.0927 129.418 17.1896C129.419 16.2866 129.702 15.5626 130.267 14.987C130.838 14.4115 131.52 14.1292 132.346 14.1276C133.171 14.1292 133.855 14.4115 134.423 14.987H134.424C134.991 15.5626 135.274 16.2866 135.275 17.1896C135.274 18.0927 134.991 18.8167 134.424 19.3923C133.855 19.9678 133.171 20.25 132.346 20.2516C131.52 20.25 130.838 19.9678 130.267 19.3923L130.172 19.486ZM135.279 20.1558L135.183 20.0631C134.419 20.8464 133.484 21.2334 132.346 21.235C131.207 21.2334 130.271 20.8464 129.508 20.0631C128.746 19.2771 128.37 18.3292 128.368 17.1896C128.37 16.05 128.746 15.1022 129.508 14.3162C130.271 13.5328 131.207 13.1454 132.346 13.1438C133.478 13.1454 134.41 13.5344 135.178 14.3219C135.944 15.1115 136.323 16.0579 136.324 17.1896C136.323 18.3292 135.946 19.2771 135.183 20.0631L135.279 20.1558L135.375 20.2484C136.183 19.4183 136.592 18.3886 136.591 17.1896C136.592 15.9975 136.182 14.9699 135.37 14.136C134.558 13.299 133.539 12.8756 132.346 12.8771C131.146 12.8756 130.124 13.297 129.318 14.1308V14.1303C128.507 14.961 128.1 15.9907 128.102 17.1896C128.1 18.3886 128.507 19.4183 129.318 20.249V20.2484C130.124 21.0823 131.146 21.5027 132.346 21.5016C133.546 21.5027 134.566 21.0823 135.375 20.2484L135.279 20.1558Z" fill="white"/>
<path d="M56.1448 20.2069H57.564C58.4869 20.2069 59.2188 19.9424 59.7588 19.4132C60.2994 18.8845 60.5693 18.1428 60.5693 17.1897C60.5693 16.2438 60.2994 15.5048 59.7588 14.9714C59.2188 14.4397 58.4869 14.1725 57.564 14.1725H56.1448V20.2069ZM55.1172 21.1897V13.1897H57.564C58.7926 13.1897 59.776 13.56 60.514 14.3017C61.2516 15.0424 61.6197 16.0048 61.6197 17.1897C61.6197 18.3741 61.2516 19.337 60.514 20.0777C59.776 20.8194 58.7926 21.1897 57.564 21.1897H55.1172Z" fill="white"/>
<path d="M63.0625 21.1897V13.1897H64.0901V21.1897H63.0625Z" fill="white"/>
<path d="M68.1799 21.3684C67.5986 21.3684 67.0315 21.1788 66.4763 20.7991C65.9206 20.4189 65.5575 19.8867 65.3867 19.2007L66.3258 18.8209C66.4373 19.2605 66.6653 19.6313 67.0117 19.9324C67.3597 20.234 67.7477 20.3851 68.1799 20.3851C68.6263 20.3851 69.0091 20.2679 69.3258 20.0335C69.6419 19.7991 69.7991 19.4804 69.7991 19.0777C69.7991 18.6313 69.6419 18.2867 69.3258 18.0444C69.0091 17.8023 68.508 17.5772 67.8226 17.3684C67.1148 17.1455 66.5778 16.8564 66.2138 16.5023C65.8486 16.1485 65.6653 15.6965 65.6653 15.1449C65.6653 14.5709 65.893 14.0725 66.3477 13.648C66.8023 13.2236 67.3945 13.0105 68.1237 13.0105C68.8023 13.0105 69.3529 13.1809 69.7773 13.5195C70.2018 13.8585 70.4778 14.2288 70.6039 14.6313L69.6663 15.0215C69.5986 14.7695 69.4335 14.534 69.1695 14.3179C68.9049 14.1028 68.5638 13.9944 68.1461 13.9944C67.7513 13.9944 67.4143 14.1037 67.1357 14.3241C66.8554 14.5439 66.7158 14.8173 66.7158 15.1449C66.7158 15.4428 66.845 15.6944 67.1018 15.8991C67.3597 16.1037 67.7373 16.2887 68.2357 16.4523C68.6305 16.5793 68.9597 16.7017 69.2253 16.8209C69.4893 16.9397 69.7581 17.0985 70.0283 17.296C70.3007 17.4928 70.5049 17.7392 70.643 18.0335C70.7815 18.3277 70.8502 18.6684 70.8502 19.0553C70.8502 19.4428 70.7706 19.7892 70.6106 20.0944C70.4502 20.4007 70.2372 20.6424 69.9726 20.8209C69.7086 20.9996 69.4247 21.1356 69.1185 21.2288C68.8127 21.322 68.4997 21.3684 68.1799 21.3684Z" fill="white"/>
<path d="M73.3513 16.9657H75.0726C75.5049 16.9657 75.8513 16.8209 76.1117 16.5309C76.3721 16.2397 76.5024 15.9204 76.5024 15.57C76.5024 15.22 76.3721 14.899 76.1117 14.609C75.8513 14.3178 75.5049 14.1725 75.0726 14.1725H73.3513V16.9657ZM73.3513 21.1897H72.3242V13.1897H75.0507C75.7278 13.1897 76.3147 13.4146 76.8095 13.8652C77.3059 14.3157 77.5528 14.8845 77.5528 15.57C77.5528 16.2548 77.3059 16.8225 76.8095 17.273C76.3147 17.7241 75.7278 17.9496 75.0507 17.9496H73.3513V21.1897Z" fill="white"/>
<path d="M80.2851 19.4861C80.8773 20.0856 81.6018 20.3851 82.4586 20.3851C83.3153 20.3851 84.0403 20.0856 84.6315 19.4861C85.2242 18.8867 85.5206 18.1204 85.5206 17.1897C85.5206 16.2591 85.2242 15.4928 84.6315 14.8933C84.0403 14.2939 83.3153 13.9944 82.4586 13.9944C81.6018 13.9944 80.8773 14.2939 80.2851 14.8933C79.6939 15.4928 79.3971 16.2591 79.3971 17.1897C79.3971 18.1204 79.6939 18.8867 80.2851 19.4861ZM85.3919 20.1559C84.6054 20.9647 83.6273 21.3684 82.4586 21.3684C81.2887 21.3684 80.3111 20.9647 79.5263 20.1559C78.7393 19.348 78.3477 18.3591 78.3477 17.1897C78.3477 16.0204 78.7393 15.0313 79.5263 14.2236C80.3111 13.4147 81.2887 13.0105 82.4586 13.0105C83.621 13.0105 84.5966 13.4168 85.3867 14.2288C86.1758 15.0408 86.5706 16.0277 86.5706 17.1897C86.5706 18.3591 86.1767 19.348 85.3919 20.1559Z" fill="white"/>
<path d="M88.0117 21.1897V13.1897H89.2628L93.1508 19.4132H93.1951L93.1508 17.8714V13.1897H94.1795V21.1897H93.1065L89.0388 14.6646H88.9945L89.0388 16.2069V21.1897H88.0117Z" fill="white"/>
<path d="M96.9726 12.5642H96.0778L96.6596 11.1334H97.7768L96.9726 12.5642ZM96.0117 21.1897V13.1897H97.0388V21.1897H96.0117Z" fill="white"/>
<path d="M100.85 21.1897L98.0352 13.1897H99.1748L101.365 19.6813H101.409L103.689 13.1897H104.828L101.923 21.1897H100.85Z" fill="white"/>
<path d="M110.662 14.1725H107.02V16.709H110.305V17.6704H107.02V20.2069H110.662V21.1897H105.992V13.1897H110.662V14.1725Z" fill="white"/>
<path d="M112.27 21.1897V13.1897H113.297V20.2069H116.761V21.1897H112.27Z" fill="white"/>
<path d="M120.738 21.1897V13.1897H121.989L125.877 19.4132H125.921L125.877 17.8714V13.1897H126.906V21.1897H125.833L121.765 14.6646H121.721L121.765 16.2069V21.1897H120.738Z" fill="white"/>
<path d="M130.172 19.4861C130.764 20.0856 131.488 20.3851 132.345 20.3851C133.201 20.3851 133.926 20.0856 134.518 19.4861C135.11 18.8867 135.408 18.1204 135.408 17.1897C135.408 16.2591 135.11 15.4928 134.518 14.8933C133.926 14.2939 133.201 13.9944 132.345 13.9944C131.488 13.9944 130.764 14.2939 130.172 14.8933C129.581 15.4928 129.284 16.2591 129.284 17.1897C129.284 18.1204 129.581 18.8867 130.172 19.4861ZM135.278 20.1559C134.492 20.9647 133.514 21.3684 132.345 21.3684C131.176 21.3684 130.197 20.9647 129.413 20.1559C128.626 19.348 128.234 18.3591 128.234 17.1897C128.234 16.0204 128.626 15.0313 129.413 14.2236C130.197 13.4147 131.176 13.0105 132.345 13.0105C133.508 13.0105 134.482 13.4168 135.273 14.2288C136.062 15.0408 136.457 16.0277 136.457 17.1897C136.457 18.3591 136.064 19.348 135.278 20.1559Z" fill="white"/>
<defs>
<linearGradient id="paint0_linear" x1="29.0663" y1="15.4694" x2="6.68968" y2="37.8461" gradientUnits="userSpaceOnUse">
<stop stop-color="#00A0FF"/>
<stop offset="0.00657445" stop-color="#00A1FF"/>
<stop offset="0.2601" stop-color="#00BEFF"/>
<stop offset="0.5122" stop-color="#00D2FF"/>
<stop offset="0.7604" stop-color="#00DFFF"/>
<stop offset="1" stop-color="#00E3FF"/>
</linearGradient>
<linearGradient id="paint1_linear" x1="45.1126" y1="30.525" x2="12.8499" y2="30.525" gradientUnits="userSpaceOnUse">
<stop stop-color="#FFE000"/>
<stop offset="0.4087" stop-color="#FFBD00"/>
<stop offset="0.7754" stop-color="#FFA500"/>
<stop offset="1" stop-color="#FF9C00"/>
</linearGradient>
<linearGradient id="paint2_linear" x1="33.1021" y1="33.5844" x2="2.75774" y2="63.9288" gradientUnits="userSpaceOnUse">
<stop stop-color="#FF3A44"/>
<stop offset="1" stop-color="#C31162"/>
</linearGradient>
<linearGradient id="paint3_linear" x1="9.72998" y1="4.09134" x2="23.28" y2="17.6413" gradientUnits="userSpaceOnUse">
<stop stop-color="#32A071"/>
<stop offset="0.0685" stop-color="#2DA771"/>
<stop offset="0.4762" stop-color="#15CF74"/>
<stop offset="0.8009" stop-color="#06E775"/>
<stop offset="1" stop-color="#00F076"/>
</linearGradient>
<linearGradient id="paint4_linear" x1="45.1145" y1="30.5249" x2="12.8523" y2="30.5249" gradientUnits="userSpaceOnUse">
<stop stop-color="#CCB300"/>
<stop offset="0.4087" stop-color="#CC9700"/>
<stop offset="0.7754" stop-color="#CC8400"/>
<stop offset="1" stop-color="#CC7D00"/>
</linearGradient>
<linearGradient id="paint5_linear" x1="33.1027" y1="33.5845" x2="2.75833" y2="63.9289" gradientUnits="userSpaceOnUse">
<stop stop-color="#CC2E36"/>
<stop offset="1" stop-color="#9C0E4E"/>
</linearGradient>
<linearGradient id="paint6_linear" x1="29.0663" y1="15.4693" x2="6.68967" y2="37.846" gradientUnits="userSpaceOnUse">
<stop stop-color="#008DE0"/>
<stop offset="0.00657445" stop-color="#008DE0"/>
<stop offset="0.2601" stop-color="#00A7E0"/>
<stop offset="0.5122" stop-color="#00B8E0"/>
<stop offset="0.7604" stop-color="#00C4E0"/>
<stop offset="1" stop-color="#00C7E0"/>
</linearGradient>
<linearGradient id="paint7_linear" x1="33.103" y1="33.5845" x2="2.75854" y2="63.9293" gradientUnits="userSpaceOnUse">
<stop stop-color="#E0333C"/>
<stop offset="1" stop-color="#AB0F56"/>
</linearGradient>
<linearGradient id="paint8_linear" x1="45.1131" y1="30.5248" x2="12.8504" y2="30.5248" gradientUnits="userSpaceOnUse">
<stop stop-color="#E0C500"/>
<stop offset="0.4087" stop-color="#E0A600"/>
<stop offset="0.7754" stop-color="#E09100"/>
<stop offset="1" stop-color="#E08900"/>
</linearGradient>
<linearGradient id="paint9_linear" x1="45.1136" y1="30.525" x2="12.8509" y2="30.525" gradientUnits="userSpaceOnUse">
<stop stop-color="#FFE840"/>
<stop offset="0.4087" stop-color="#FFCE40"/>
<stop offset="0.7754" stop-color="#FFBC40"/>
<stop offset="1" stop-color="#FFB540"/>
</linearGradient>
<linearGradient id="paint10_linear" x1="29.0663" y1="15.4692" x2="6.68967" y2="37.8458" gradientUnits="userSpaceOnUse">
<stop stop-color="#40B8FF"/>
<stop offset="0.00657445" stop-color="#40B9FF"/>
<stop offset="0.2601" stop-color="#40CEFF"/>
<stop offset="0.5122" stop-color="#40DDFF"/>
<stop offset="0.7604" stop-color="#40E7FF"/>
<stop offset="1" stop-color="#40EAFF"/>
</linearGradient>
<linearGradient id="paint11_linear" x1="9.7298" y1="4.09138" x2="23.2798" y2="17.6414" gradientUnits="userSpaceOnUse">
<stop stop-color="#65B895"/>
<stop offset="0.0685" stop-color="#62BD95"/>
<stop offset="0.4762" stop-color="#50DB97"/>
<stop offset="0.8009" stop-color="#44ED98"/>
<stop offset="1" stop-color="#40F498"/>
</linearGradient>
</defs>
</svg>
