<svg width="254" height="31" viewBox="0 0 254 31" fill="none" xmlns="http://www.w3.org/2000/svg">
<mask id="mask0" mask-type="alpha" maskUnits="userSpaceOnUse" x="0" y="5" width="95" height="26">
<path fill-rule="evenodd" clip-rule="evenodd" d="M0 5.52808H94.2136V30.244H0V5.52808Z" fill="white"/>
</mask>
<g mask="url(#mask0)">
<path fill-rule="evenodd" clip-rule="evenodd" d="M19.2734 24.6821H23.6873V12.4324H19.2734V24.6821Z" fill="#11C76F"/>
<path fill-rule="evenodd" clip-rule="evenodd" d="M8.58856 5.52808H4.40596V9.0916H8.36057C10.8687 9.0916 12.2941 10.2599 12.2941 12.3914C12.2941 14.5776 10.8687 15.7733 8.36057 15.7733H4.40596V9.0916H-0.0078125V24.6822H4.40596V19.3369H8.58856C13.6621 19.3369 16.5693 16.6956 16.5693 12.2411C16.5693 8.00536 13.6621 5.52808 8.58856 5.52808Z" fill="#11C76F"/>
<path fill-rule="evenodd" clip-rule="evenodd" d="M52.5711 5.52808H48.5467V9.0916H52.3432C54.8513 9.0916 56.2766 10.2599 56.2766 12.3914C56.2766 14.5776 54.8513 15.7733 52.3432 15.7733H48.5467V9.0916H44.1328V24.6822H48.5467V19.3369H52.5711C57.6448 19.3369 60.5521 16.6956 60.5521 12.2411C60.5521 8.00536 57.6448 5.52808 52.5711 5.52808Z" fill="#11C76F"/>
<path fill-rule="evenodd" clip-rule="evenodd" d="M89.8233 9.98254L85.9994 19.2503L82.1844 9.98254H77.6523L83.7378 24.852L81.551 30.2503H85.9406L94.2127 9.98254H89.8233Z" fill="#11C76F"/>
</g>
<path fill-rule="evenodd" clip-rule="evenodd" d="M72.2934 19.6845C71.8265 20.9591 70.5584 21.9288 68.6961 21.9288C67.2066 21.9288 66.2817 21.1756 66.2817 20.0394C66.2817 18.848 67.1046 18.3438 68.7948 18.3438H72.2934V19.6845ZM70.0553 9.70972C67.3623 9.70972 65.3856 10.3192 63.0938 11.4276L64.4689 14.3646C66.0731 13.5056 67.6935 13.0622 69.0687 13.0622C71.1886 13.0622 72.2934 13.9767 72.2934 15.5561V15.8598H68.0212C64.2397 15.8598 62.1484 17.5366 62.1484 20.3352C62.1484 23.0505 64.1555 24.9834 67.4501 24.9834C69.5987 24.9834 71.126 24.2841 72.2934 23.0372V24.6669H76.6158L76.5872 14.9993C76.5585 11.6467 74.1806 9.70972 70.0553 9.70972Z" fill="#11C76F"/>
<path fill-rule="evenodd" clip-rule="evenodd" d="M34.7379 21.4224C32.6228 21.4224 31.1282 19.7809 31.1282 17.3604C31.1282 14.9679 32.6228 13.3543 34.7379 13.3543C36.2325 13.3264 37.3888 13.9384 38.2067 14.94L41.1395 12.8535C39.7859 10.8503 37.4734 9.70972 34.5687 9.70972C29.9154 9.70972 26.7852 12.7978 26.7852 17.3883C26.7852 21.9231 29.9154 24.9834 34.5123 24.9834C37.6144 24.9834 39.9833 23.7594 41.2525 21.6728L38.2631 19.6696C37.5016 20.8382 36.2889 21.4224 34.7379 21.4224Z" fill="#11C76F"/>
<path fill-rule="evenodd" clip-rule="evenodd" d="M20.8033 8.21755H26.8761V2.24835H20.8033V8.21755ZM19.2852 9.70967H28.3942V0.756104H19.2852V9.70967Z" fill="#11C76F"/>
<path fill-rule="evenodd" clip-rule="evenodd" d="M22.2305 6.81291H25.4454V3.65283H22.2305V6.81291Z" fill="#11C76F"/>
<path d="M131.483 20.3249V23.1759H119.84V7.82421H131.204V10.6752H123.298V14.0088H130.28V16.7721H123.298V20.3249H131.483Z" fill="#05181C"/>
<path d="M149.655 23.1759L149.633 13.9649L145.208 21.553H143.64L139.236 14.1623V23.1759H135.971V7.82421H138.849L144.478 17.3642L150.02 7.82421H152.877L152.92 23.1759H149.655Z" fill="#05181C"/>
<path d="M164.716 7.82421C166.047 7.82421 167.2 8.05083 168.174 8.50407C169.162 8.95731 169.921 9.60062 170.451 10.434C170.981 11.2674 171.246 12.2543 171.246 13.3947C171.246 14.5205 170.981 15.5074 170.451 16.3554C169.921 17.1887 169.162 17.8321 168.174 18.2853C167.2 18.7239 166.047 18.9432 164.716 18.9432H161.687V23.1759H158.206V7.82421H164.716ZM164.522 16.0483C165.568 16.0483 166.362 15.8217 166.907 15.3685C167.451 14.9006 167.723 14.2427 167.723 13.3947C167.723 12.5321 167.451 11.8741 166.907 11.4209C166.362 10.953 165.568 10.7191 164.522 10.7191H161.687V16.0483H164.522Z" fill="#05181C"/>
<path d="M185.03 23.1759L182.13 18.8994H181.958H178.929V23.1759H175.449V7.82421H181.958C183.29 7.82421 184.443 8.05083 185.417 8.50407C186.405 8.95731 187.164 9.60062 187.694 10.434C188.224 11.2674 188.489 12.2543 188.489 13.3947C188.489 14.5351 188.217 15.522 187.673 16.3554C187.143 17.1741 186.384 17.8028 185.395 18.2414L188.768 23.1759H185.03ZM184.966 13.3947C184.966 12.5321 184.694 11.8741 184.149 11.4209C183.605 10.953 182.81 10.7191 181.765 10.7191H178.929V16.0703H181.765C182.81 16.0703 183.605 15.8363 184.149 15.3685C184.694 14.9006 184.966 14.2427 184.966 13.3947Z" fill="#05181C"/>
<path d="M204.608 20.3249V23.1759H192.965V7.82421H204.329V10.6752H196.423V14.0088H203.405V16.7721H196.423V20.3249H204.608Z" fill="#05181C"/>
<path d="M214.036 23.4391C212.848 23.4391 211.695 23.2783 210.578 22.9566C209.475 22.6203 208.587 22.189 207.914 21.6627L209.096 18.9871C209.74 19.4696 210.506 19.857 211.394 20.1494C212.282 20.4418 213.17 20.5881 214.058 20.5881C215.046 20.5881 215.776 20.4418 216.249 20.1494C216.722 19.8424 216.958 19.4403 216.958 18.9432C216.958 18.5777 216.815 18.278 216.528 18.0441C216.256 17.7955 215.898 17.5981 215.454 17.4519C215.025 17.3057 214.437 17.1449 213.693 16.9694C212.547 16.6916 211.609 16.4139 210.879 16.1361C210.148 15.8583 209.518 15.4123 208.988 14.7983C208.473 14.1842 208.215 13.3654 208.215 12.342C208.215 11.4501 208.451 10.646 208.924 9.92958C209.396 9.19855 210.105 8.62103 211.05 8.19703C212.01 7.77303 213.177 7.56104 214.552 7.56104C215.512 7.56104 216.45 7.678 217.366 7.91193C218.283 8.14586 219.085 8.48214 219.772 8.92076L218.698 11.6183C217.309 10.8141 215.92 10.4121 214.531 10.4121C213.557 10.4121 212.833 10.5729 212.361 10.8945C211.903 11.2162 211.673 11.6402 211.673 12.1665C211.673 12.6929 211.938 13.0876 212.468 13.3508C213.012 13.5994 213.836 13.8479 214.939 14.0965C216.084 14.3743 217.022 14.6521 217.753 14.9299C218.483 15.2076 219.106 15.6463 219.622 16.2457C220.152 16.8452 220.417 17.6566 220.417 18.6801C220.417 19.5573 220.173 20.3614 219.686 21.0925C219.214 21.8089 218.498 22.3791 217.538 22.8031C216.578 23.2271 215.411 23.4391 214.036 23.4391Z" fill="#05181C"/>
<path d="M234.416 19.8863H227.435L226.103 23.1759H222.537L229.239 7.82421H232.676L239.4 23.1759H235.748L234.416 19.8863ZM233.321 17.1887L230.936 11.3112L228.552 17.1887H233.321Z" fill="#05181C"/>
<path d="M247.62 23.4391C246.431 23.4391 245.278 23.2783 244.161 22.9566C243.059 22.6203 242.171 22.189 241.497 21.6627L242.679 18.9871C243.323 19.4696 244.09 19.857 244.978 20.1494C245.866 20.4418 246.753 20.5881 247.641 20.5881C248.63 20.5881 249.36 20.4418 249.833 20.1494C250.305 19.8424 250.541 19.4403 250.541 18.9432C250.541 18.5777 250.398 18.278 250.112 18.0441C249.84 17.7955 249.482 17.5981 249.038 17.4519C248.608 17.3057 248.021 17.1449 247.276 16.9694C246.13 16.6916 245.192 16.4139 244.462 16.1361C243.732 15.8583 243.101 15.4123 242.572 14.7983C242.056 14.1842 241.798 13.3654 241.798 12.342C241.798 11.4501 242.035 10.646 242.507 9.92958C242.98 9.19855 243.689 8.62103 244.634 8.19703C245.593 7.77303 246.761 7.56104 248.135 7.56104C249.095 7.56104 250.033 7.678 250.95 7.91193C251.866 8.14586 252.668 8.48214 253.356 8.92076L252.282 11.6183C250.892 10.8141 249.503 10.4121 248.114 10.4121C247.14 10.4121 246.417 10.5729 245.944 10.8945C245.486 11.2162 245.257 11.6402 245.257 12.1665C245.257 12.6929 245.522 13.0876 246.052 13.3508C246.596 13.5994 247.419 13.8479 248.522 14.0965C249.668 14.3743 250.606 14.6521 251.336 14.9299C252.067 15.2076 252.69 15.6463 253.205 16.2457C253.735 16.8452 254 17.6566 254 18.6801C254 19.5573 253.757 20.3614 253.27 21.0925C252.797 21.8089 252.081 22.3791 251.121 22.8031C250.162 23.2271 248.995 23.4391 247.62 23.4391Z" fill="#05181C"/>
<rect x="104.766" y="0.756104" width="2.26113" height="30.2439" fill="#05181C"/>
</svg>
