<svg width="445" height="300" viewBox="0 0 445 300" fill="none" xmlns="http://www.w3.org/2000/svg">
<rect width="236.018" height="234.629" rx="16" transform="matrix(0.987793 -0.155774 0.157098 0.987583 68 53)" fill="#FEF8E3"/>
<g clip-path="url(#clip0)">
<path d="M255.733 277.973H146.446C139.56 277.973 133.969 272.326 133.969 265.35V34.6397C133.969 27.6738 139.551 22.0165 146.446 22.0165H255.733C262.619 22.0165 268.21 27.6637 268.21 34.6397V265.35C268.21 272.326 262.628 277.973 255.733 277.973Z" fill="#00CD73" stroke="black" stroke-width="7.9833" stroke-miterlimit="10"/>
<path d="M225.725 35.908H176.454C169.947 35.908 164.684 30.5729 164.684 23.9995V22.0165H237.506V23.9895C237.506 30.5729 232.232 35.908 225.725 35.908Z" fill="black" stroke="black" stroke-width="1.9958" stroke-miterlimit="10"/>
<path d="M201.088 265.078C208.132 265.078 213.843 259.301 213.843 252.173C213.843 245.046 208.132 239.268 201.088 239.268C194.043 239.268 188.332 245.046 188.332 252.173C188.332 259.301 194.043 265.078 201.088 265.078Z" fill="black"/>
<path d="M268.209 192.621C291.475 192.621 310.336 173.539 310.336 150C310.336 126.461 291.475 107.379 268.209 107.379C244.943 107.379 226.082 126.461 226.082 150C226.082 173.539 244.943 192.621 268.209 192.621Z" fill="#0010F3"/>
<path d="M272.468 118.754H263.961V181.246H272.468V118.754Z" fill="#00CD73"/>
<path d="M299.092 145.692H237.324V154.298H299.092V145.692Z" fill="#00CD73"/>
<path d="M306.247 208.355C299.959 206.442 296.566 201.318 294.915 194.282C293.263 201.318 289.87 206.442 283.582 208.355C289.87 210.267 293.253 215.391 294.915 222.427C296.566 215.391 299.959 210.267 306.247 208.355Z" fill="#C8E6FF"/>
<path d="M313.998 80.1295C309.69 78.8209 307.372 75.3178 306.237 70.496C305.103 75.3178 302.785 78.8209 298.477 80.1295C302.775 81.4381 305.103 84.9412 306.237 89.763C307.382 84.9412 309.7 81.4381 313.998 80.1295Z" fill="#C8E6FF"/>
<path d="M306.247 107.379C295.7 104.168 290.009 95.5813 287.233 83.7635C284.457 95.5713 278.765 104.168 268.219 107.379C278.765 110.59 284.457 119.177 287.233 130.995C290.009 119.177 295.69 110.59 306.247 107.379Z" fill="#C8E6FF"/>
</g>
<defs>
<clipPath id="clip0">
<rect width="184" height="264" fill="white" transform="translate(130 18)"/>
</clipPath>
</defs>
</svg>
