<svg width="48" height="48" viewBox="0 0 48 48" fill="none" xmlns="http://www.w3.org/2000/svg">
                            <path
                                d="M31.421 25.42C33.3818 23.8773 34.8129 21.7618 35.5154 19.3679C36.2179 16.9739 36.1568 14.4205 35.3405 12.0629C34.5243 9.70534 32.9935 7.66079 30.9611 6.21372C28.9287 4.76664 26.4959 3.98901 24.001 3.98901C21.5061 3.98901 19.0732 4.76664 17.0408 6.21372C15.0085 7.66079 13.4777 9.70534 12.6614 12.0629C11.8451 14.4205 11.784 16.9739 12.4865 19.3679C13.189 21.7618 14.6202 23.8773 16.581 25.42C13.2211 26.7661 10.2895 28.9987 8.09875 31.8798C5.90797 34.761 4.5401 38.1826 4.14097 41.78C4.11208 42.0426 4.1352 42.3084 4.20902 42.5621C4.28284 42.8158 4.4059 43.0525 4.57119 43.2587C4.90501 43.675 5.39054 43.9417 5.92097 44C6.4514 44.0583 6.98329 43.9036 7.39962 43.5698C7.81595 43.236 8.08262 42.7504 8.14097 42.22C8.58014 38.3104 10.4443 34.6996 13.3774 32.0776C16.3105 29.4555 20.1068 28.0061 24.041 28.0061C27.9752 28.0061 31.7715 29.4555 34.7045 32.0776C37.6376 34.6996 39.5018 38.3104 39.941 42.22C39.9953 42.7114 40.2298 43.1653 40.5992 43.494C40.9685 43.8227 41.4465 44.003 41.941 44H42.161C42.6852 43.9397 43.1644 43.6746 43.4941 43.2625C43.8238 42.8504 43.9772 42.3247 43.921 41.8C43.52 38.1924 42.1447 34.762 39.9427 31.8764C37.7406 28.9908 34.7948 26.759 31.421 25.42ZM24.001 24C22.4187 24 20.872 23.5308 19.5564 22.6518C18.2408 21.7727 17.2154 20.5233 16.6099 19.0615C16.0044 17.5997 15.846 15.9911 16.1547 14.4393C16.4634 12.8874 17.2253 11.462 18.3441 10.3431C19.4629 9.22433 20.8884 8.4624 22.4402 8.15372C23.9921 7.84504 25.6006 8.00347 27.0624 8.60897C28.5242 9.21447 29.7737 10.2398 30.6527 11.5554C31.5318 12.871 32.001 14.4178 32.001 16C32.001 18.1217 31.1581 20.1566 29.6578 21.6569C28.1575 23.1571 26.1227 24 24.001 24Z"
                                fill="#00AC4A"
                            />
                        </svg>