<svg width="445" height="300" viewBox="0 0 445 300" fill="none" xmlns="http://www.w3.org/2000/svg">
<rect width="270" height="186.71" rx="16" transform="matrix(1 0 0.00134115 0.999999 29 8)" fill="#FEF8E3"/>
<g clip-path="url(#clip0)">
<path d="M149.734 137.129H34.2617V207.004H149.734V137.129Z" fill="#7DE6AF"/>
<path d="M158 128.274H26V137.125H158V128.274Z" fill="#00CD73"/>
<path d="M131.191 164.824H52.8086V207H131.191V164.824Z" fill="#E0FFDE"/>
<path d="M131.048 142.853H51.5859V159.167H131.048V142.853Z" fill="#648CFF"/>
<path fill-rule="evenodd" clip-rule="evenodd" d="M61.2914 149.075C60.2235 149.075 59.3578 149.941 59.3578 151.01C59.3578 152.078 60.2235 152.945 61.2914 152.945C62.3594 152.945 63.2251 152.078 63.2251 151.01C63.2251 149.941 62.3594 149.075 61.2914 149.075ZM58.4688 151.01C58.4688 149.45 59.7325 148.186 61.2914 148.186C62.8504 148.186 64.1141 149.45 64.1141 151.01C64.1141 152.57 62.8504 153.834 61.2914 153.834C59.7325 153.834 58.4688 152.57 58.4688 151.01Z" fill="#E0FFDE"/>
<path fill-rule="evenodd" clip-rule="evenodd" d="M121.483 149.075C120.415 149.075 119.549 149.941 119.549 151.01C119.549 152.078 120.415 152.945 121.483 152.945C122.551 152.945 123.417 152.078 123.417 151.01C123.417 149.941 122.551 149.075 121.483 149.075ZM118.66 151.01C118.66 149.45 119.924 148.186 121.483 148.186C123.042 148.186 124.306 149.45 124.306 151.01C124.306 152.57 123.042 153.834 121.483 153.834C119.924 153.834 118.66 152.57 118.66 151.01Z" fill="#E0FFDE"/>
<path fill-rule="evenodd" clip-rule="evenodd" d="M129.732 166.283H52.8086V163.365H132.649V207H129.732V166.283Z" fill="#00CD73"/>
<path fill-rule="evenodd" clip-rule="evenodd" d="M91.3195 170.303C91.565 170.303 91.764 170.502 91.764 170.748V203.046C91.764 203.292 91.565 203.491 91.3195 203.491C91.074 203.491 90.875 203.292 90.875 203.046V170.748C90.875 170.502 91.074 170.303 91.3195 170.303Z" fill="black"/>
<path fill-rule="evenodd" clip-rule="evenodd" d="M96.3273 183.984C96.5728 183.984 96.7719 184.183 96.7719 184.429V195.454C96.7719 195.7 96.5728 195.899 96.3273 195.899C96.0818 195.899 95.8828 195.7 95.8828 195.454V184.429C95.8828 184.183 96.0818 183.984 96.3273 183.984Z" fill="black"/>
<path fill-rule="evenodd" clip-rule="evenodd" d="M86.0305 183.984C86.276 183.984 86.475 184.183 86.475 184.429V195.454C86.475 195.7 86.276 195.899 86.0305 195.899C85.785 195.899 85.5859 195.7 85.5859 195.454V184.429C85.5859 184.183 85.785 183.984 86.0305 183.984Z" fill="black"/>
<path d="M104.972 97.6038C104.972 108.82 90.0722 120.335 90.0722 120.335C90.0722 120.335 75.1719 108.82 75.1719 97.6038C75.1719 89.3714 81.8441 82.6956 90.0722 82.6956C98.3002 82.6956 104.972 89.3714 104.972 97.6038Z" fill="#00CD73"/>
<path d="M96.8979 92.0088H95.0887V93.819H96.8979V92.0088ZM86.7184 92.9206H84.1491V95.2066H86.5806C88.1231 95.2066 88.9988 95.9538 88.9988 97.3192C88.9988 98.7202 88.1231 99.4896 86.585 99.4896H84.1535L84.1491 95.2066H81.4375L81.4419 105.2H84.1535V101.771H86.7228C89.8389 101.771 91.6259 100.077 91.6214 97.2213C91.6214 94.5039 89.8389 92.9206 86.7184 92.9206ZM98.7071 90.1987L93.2839 90.2031L93.2884 95.6291L98.7115 95.6247L98.7071 90.1987ZM97.8047 94.7218H94.1908V91.106H97.8047V94.7218Z" fill="white"/>
<path d="M114.61 113.833C112.036 113.059 110.649 110.986 109.969 108.136C109.289 110.986 107.902 113.059 105.328 113.833C107.902 114.607 109.289 116.679 109.969 119.53C110.649 116.679 112.036 114.607 114.61 113.833Z" fill="#FF84F9"/>
<path d="M76.8853 82.0552C72.7958 80.8232 70.5909 77.532 69.5108 73C68.435 77.5276 66.2302 80.8232 62.1406 82.0552C66.2302 83.2872 68.435 86.5783 69.5152 91.1104C70.5909 86.5783 72.7958 83.2872 76.8853 82.0552Z" fill="#FF84F9"/>
<path d="M72.3225 152.286H74.6073C74.634 152.811 75.0741 153.131 76.1765 153.14C77.15 153.149 77.599 152.873 77.599 152.518C77.599 152.269 77.4612 152.011 76.7099 151.904L75.7186 151.748C74.2606 151.508 72.5048 151.335 72.5048 149.36C72.5048 147.834 73.745 146.896 76.1943 146.896C78.408 146.896 79.9505 147.51 79.906 149.716H77.639C77.5456 149.2 77.1144 148.879 76.1409 148.879C75.2963 148.879 74.9452 149.137 74.9452 149.484C74.9452 149.707 75.083 149.969 75.6697 150.063L76.4877 150.2C78.0213 150.458 80.1238 150.503 80.1238 152.615C80.1238 154.297 78.8214 155.133 76.1765 155.124C73.5183 155.119 72.2603 154.292 72.3225 152.286Z" stroke="#E0FFDE" stroke-linecap="round" stroke-linejoin="round"/>
<path d="M90.073 147.154V154.871H87.5304V152.077H84.5387V154.871H81.9961V147.154H84.5387V149.947H87.5304V147.154H90.073Z" stroke="#E0FFDE" stroke-linecap="round" stroke-linejoin="round"/>
<path d="M91.957 151.01C91.957 148.537 93.6729 146.896 96.3267 146.896C98.9804 146.896 100.696 148.541 100.696 151.01C100.696 153.483 98.9804 155.124 96.3267 155.124C93.6729 155.128 91.957 153.483 91.957 151.01ZM98.1714 151.01C98.1714 149.787 97.3357 149.089 96.3267 149.089C95.3176 149.089 94.4819 149.787 94.4819 151.01C94.4819 152.233 95.3176 152.931 96.3267 152.931C97.3357 152.931 98.1714 152.233 98.1714 151.01Z" stroke="#E0FFDE" stroke-linecap="round" stroke-linejoin="round"/>
<path d="M102.578 147.154H106.957C109.059 147.154 110.308 148.092 110.308 150.169C110.308 152.246 109.059 153.185 106.966 153.185H105.125V154.875H102.583V147.154H102.578ZM106.739 151.068C107.352 151.068 107.748 150.765 107.748 150.169C107.748 149.574 107.352 149.271 106.748 149.271H105.125V151.072H106.739V151.068Z" stroke="#E0FFDE" stroke-linecap="round" stroke-linejoin="round"/>
</g>
<g clip-path="url(#clip1)">
<path d="M380.211 147.926C380.388 144.905 379.84 141.799 378.459 138.878C374.063 129.56 362.945 125.579 353.622 129.973C344.298 134.367 340.315 145.477 344.711 154.795C346.774 159.155 350.303 162.353 354.439 164.062L351.878 168.708C351.878 168.708 361.109 171.241 360.764 170.846L360.469 165.451C363.493 165.636 366.609 165.08 369.548 163.7C373.38 161.89 376.311 158.944 378.131 155.451C378.501 155.569 378.897 155.636 379.301 155.636C381.457 155.636 383.209 153.886 383.209 151.731C383.209 149.871 381.929 148.33 380.211 147.926Z" fill="#648CFF"/>
<path d="M341.34 163.885L378.474 172.95C398.906 179.204 414.934 197.949 410.866 220.01C410.866 220.01 406.36 245.648 405.088 253.88C401.795 275.242 396.203 289.627 375.484 291.773C351.27 294.273 348.33 270.268 337.651 267.818C327.308 265.445 324.689 273.752 312.536 269.788C302.496 266.093 302.033 253.88 302.033 253.88L275.52 226.987C275.52 226.987 275.52 226.987 288.027 190.045C294.074 172.226 320.259 157.429 341.34 163.885Z" fill="#FDCD01"/>
<mask id="mask0" mask-type="alpha" maskUnits="userSpaceOnUse" x="275" y="162" width="137" height="130">
<path d="M341.34 163.885L378.474 172.95C398.906 179.204 414.934 197.949 410.866 220.01C410.866 220.01 406.36 245.648 405.088 253.88C401.795 275.242 396.203 289.627 375.484 291.773C351.27 294.273 348.33 270.268 337.651 267.818C327.308 265.445 324.689 273.752 312.536 269.788C302.496 266.093 302.033 253.88 302.033 253.88L275.52 226.987C275.52 226.987 275.52 226.987 288.027 190.045C294.074 172.226 320.259 157.429 341.34 163.885Z" fill="#FDCD01"/>
</mask>
<g mask="url(#mask0)">
<path d="M369.624 276.311C345.342 286.193 317.97 275.335 298.514 259.99C289.351 252.769 280.726 243.207 278.621 231.347C276.625 220.085 280.912 206.786 292.088 202.081C303.854 197.124 317.144 203.596 325.954 211.475C335.075 219.622 344.433 233.342 338.107 245.833C331.496 258.896 314.5 254.553 304.814 248.021C294.48 241.061 286.58 230.977 280.895 219.993C275.429 209.421 270.889 197.124 270.695 185.096C270.603 179.229 271.672 173.085 275.092 168.186C279.185 162.311 285.78 159.121 292.509 157.244C319.343 149.753 346.513 163.001 364.697 182.36C373.692 191.93 381.609 203.378 384.683 216.315C387.53 228.292 385.761 246.447 372.108 251.203C357.529 256.27 345.022 243.266 337.745 232.383C330.603 221.701 325.112 208.908 323.958 196.013C322.838 183.48 327.15 170.593 340.432 166.966C353.049 163.523 366.701 168.354 377.204 175.315C398.285 189.271 413.529 213.31 419.298 237.702C422.095 249.537 424.099 264.477 418.633 275.84C413.369 286.79 400.862 289.93 389.66 288.617C366.575 285.923 346.572 266.859 338.006 246.01C333.795 235.766 331.395 223.806 334.511 212.931C338.436 199.228 351.886 193.378 365.269 196.484C378.029 199.447 389.366 208.571 398.849 217.207C408.08 225.607 416.199 235.228 422.92 245.74C429.279 255.698 435.25 267.212 434.694 279.375C434.071 293.044 423.114 300.805 410.143 301.015C397.838 301.209 385.289 296.722 374.163 291.84C362.658 286.782 351.752 279.779 343.776 269.923C335.985 260.285 328.851 245.379 333.618 232.913C337.552 222.627 349.208 217.4 359.66 217.527C371.738 217.678 382.249 225.27 389.812 234.133C398.015 243.737 405.309 256.312 406.64 269.047C409.478 296.108 380.547 304.643 358.868 302.387C335.985 300.005 314.163 289.517 297.537 273.702C280.802 257.785 262.618 230.017 271.512 206.054C276.22 193.37 287.363 185.433 301.058 186.872C314.062 188.244 329.534 192.217 339.724 200.751C357.007 215.212 360.485 242.946 350.96 262.692C348.155 268.517 343.767 273.937 337.501 276.193C330.746 278.626 323.276 277.212 316.715 274.846C305.42 270.773 295.28 263.66 287.043 254.999C269.103 236.12 260.967 210.28 261.313 184.54C261.481 171.864 263.124 158.448 268.135 146.697C273.66 133.735 283.935 125.975 298.017 124.451C311.796 122.961 326.358 124.889 339.792 127.944C352.56 130.84 365.876 135.04 375.764 144.004C384.531 151.95 389.913 163.085 391.85 174.667C393.72 185.853 393.088 199.43 386.367 209.025C377.178 222.148 360.62 217.485 350.387 208.352C341.114 200.078 335.118 188.715 331.462 176.982C328.076 166.107 325.634 153.785 328.489 142.514C331.892 129.097 343.826 122.785 357.108 124.939C380.16 128.677 398.15 149.121 408.611 168.666C414.178 179.078 418.288 190.247 421.185 201.686C424.596 215.128 426.542 230.093 420.814 243.199C415.98 254.258 405.932 263.189 393.349 263.046C380.059 262.903 368.268 253.871 360.671 243.594C352.956 233.149 348.29 220.304 347.818 207.308C347.566 200.213 349.2 192.823 356.207 189.599C363.046 186.451 370.584 188.429 376.96 191.728C397.468 202.351 413.933 221.76 423.737 242.382C428.883 253.206 432.378 264.864 433.877 276.766C434.619 282.691 435.166 289.004 433.557 294.837C431.603 301.932 426.323 306.562 419.442 308.742C406.235 312.925 391.741 308.717 379.705 302.959C368.621 297.657 357.891 290.94 347.928 283.743C343.119 280.267 338.503 276.463 334.528 272.052C332.473 269.771 330.595 267.33 328.986 264.712C328.329 263.643 327.723 262.558 327.158 261.438C326.139 259.41 324.489 257.524 326.796 256.211C332.498 252.971 341.114 256.944 346.243 259.553C351.92 262.44 357.277 265.908 362.246 269.88C367.089 273.744 371.536 278.121 375.502 282.876C379.815 288.044 384.7 294.307 382.316 301.419C377.178 316.746 356.94 313.641 344.812 311.688C319.974 307.69 293.494 299.475 278.621 277.658C271.942 267.869 268.548 256.051 270.611 244.251C272.489 233.544 278.579 223.233 288.298 217.922C299.575 211.761 315.51 212.249 327.554 215.902C339.531 219.53 351.103 230.379 348.374 244.032C345.898 256.455 331.319 260.437 320.48 257.356C308.242 253.871 299.542 243.047 292.088 233.401C277.046 213.924 262.382 186.67 275.715 162.361C290.168 136.008 324.724 139.964 348.442 148.684C360.553 153.136 372.816 159.096 381.457 168.969C385.862 174.002 389.248 180.02 390.898 186.518C392.271 191.947 393.712 202.721 387.934 206.046C382.392 209.236 374.424 203.041 370.003 199.758C364.815 195.92 360.174 191.291 356.308 186.114C349.242 176.67 343.725 164.474 343.573 152.514C343.481 145.351 346.344 137.498 353.461 134.619C360.721 131.673 367.931 136.774 373.464 141.058C383.15 148.549 391.084 158.035 397.687 168.295C404.105 178.27 409.343 188.968 414.093 199.826C419.543 212.274 425.329 225.178 427.215 238.737C428.117 245.227 429.237 255.933 424.023 260.942C419.391 265.394 411.659 263.399 406.665 260.74C396.685 255.428 389.315 245.437 385.828 234.84C382.569 224.925 381.297 209.438 388.692 200.878C399.135 188.791 416.039 205.314 423.215 213.209C432.109 223.006 439.344 234.445 445.643 246.043C451.994 257.735 457.047 271.244 453.257 284.593C449.543 297.673 438.426 304.996 424.941 303.826C413.083 302.799 400.584 297.615 390.536 291.361C385.525 288.238 380.817 284.349 377.625 279.316C376.606 277.717 373.995 274.072 375.216 272.347C376.092 271.101 380.707 270.933 381.76 270.966C383.689 271.025 385.609 271.362 387.437 271.976C394.015 274.19 399.043 279.585 403.751 284.442C408.543 289.391 413.218 295.005 412.434 302.345C410.876 316.89 395.329 322.588 382.67 322.723C369.405 322.866 355.457 320.383 342.984 315.913C331.176 311.679 320.084 304.819 312.167 294.963C304.629 285.578 295.036 266.185 309.615 258.459C321.195 252.323 337.846 260.125 346.597 268.323C351.457 272.877 354.708 279.063 353.15 285.848C351.6 292.598 345.637 297.522 339.396 299.845C327.201 304.39 311.712 301.68 299.441 298.65C287.321 295.653 275.673 290.679 265.305 283.693C244.224 269.485 229.081 246.363 226.512 220.86C225.173 207.62 227.143 193.648 234.951 182.579C241.925 172.689 252.09 165.594 262.5 159.693C284.466 147.244 313.716 136.277 336.33 153.431C345.418 160.325 351.869 172.092 348.383 183.631C346.538 189.734 341.889 194.851 335.235 195.424C328.666 195.987 322.358 192.276 317.734 187.941C308.461 179.246 303.323 166.014 302.405 153.507C301.496 141.083 304.342 126.025 314.323 117.617C335.64 99.6715 368.765 116.034 388.683 128.407C410.556 141.992 429.052 163.548 430.593 190.264C430.753 192.983 430.728 195.727 430.483 198.437C430.306 200.415 430.037 202.384 429.633 204.32C429.498 204.96 429.372 205.617 429.186 206.248C428.386 209 428.445 208.823 425.186 209.707C422.179 210.524 422.162 210.877 420.149 209.034C419.492 208.436 418.962 207.754 418.406 207.064C417.26 205.659 416.233 204.144 415.298 202.595C413.546 199.683 412.123 196.543 411.28 193.244C409.537 186.434 410.581 178.935 415.34 173.531C420.377 167.816 427.889 167.235 434.753 169.735C458.066 178.236 467.853 208.487 469.234 230.935C470.043 244.007 467.137 257.844 457.729 267.498C448.296 277.178 432.951 279.821 420.949 273.399C415.727 270.604 411.382 266.303 408.451 261.169C407.533 259.561 404.576 254.965 405.865 253.131C408.105 249.949 415.559 253.055 417.841 254.267C423.156 257.087 427.771 261.581 431.94 265.866C436.328 270.377 440.396 275.503 442.654 281.437C447.412 293.97 441.794 306.789 431.629 314.726C420.654 323.295 406.109 324.835 392.633 324.406C379.823 323.993 366.701 322.411 354.649 317.866C343.22 313.556 328.826 304.895 327.394 291.462C326.005 278.508 340.92 269.03 352.131 267.254C364.983 265.217 376.505 273.214 377.136 286.613C377.751 299.651 368.293 309.87 356.687 314.348C343.439 319.465 328.877 317.386 315.418 314.28C292.619 309.02 268.286 299.391 255.392 278.643C243.272 259.149 242.935 234.302 252.2 213.613C256.512 203.984 262.888 195.213 270.998 188.421C280.482 180.466 293.587 173.64 306.204 177.167C317.801 180.408 326.097 192.368 319.831 203.925C316.647 209.791 310.524 212.981 303.862 211.315C297.226 209.657 291.861 204.548 287.944 199.152C273.18 178.783 276.692 149.946 296.046 133.895C317.136 116.405 347.919 121.8 370.474 133.651C392.962 145.469 410.295 167.572 411.76 193.513C411.929 196.484 412.342 200.474 411.348 203.31C409.225 209.354 402.875 207.999 399.253 204.505C395 200.406 391.387 194.11 389.526 188.547C387.201 181.569 389.5 174.137 397.123 172.193C403.903 170.467 410.362 174.002 415.239 178.43C432.538 194.11 450.579 222.451 436.37 245.446C435.84 246.304 437.196 247.096 437.727 246.237C448.667 228.528 440.834 207.527 429.397 192.276C424.023 185.104 417.791 176.746 409.68 172.504C403.532 169.289 394.806 169.045 389.905 174.659C384.102 181.291 388.001 190.702 391.943 197.174C395.228 202.578 400.626 211.214 408.282 208.857C415.879 206.517 413.597 193.656 412.763 187.916C411.356 178.194 407.735 168.834 402.496 160.535C392.002 143.903 375.149 132.262 356.653 126.084C337.855 119.813 316.1 118.037 299.011 129.695C284.382 139.669 275.85 156.655 277.265 174.373C277.997 183.522 281.198 192.503 286.58 199.952C291.389 206.601 298.716 213.301 307.442 213.36C322.627 213.453 327.748 193.648 319.039 183.362C306.642 168.708 285.83 175.231 272.75 185.045C245.176 205.743 235.667 246.734 252.579 277.01C261.692 293.322 277.896 303.582 295.036 309.945C304.789 313.565 315.047 316.233 325.314 317.874C335.463 319.49 346.092 319.785 355.912 316.317C371.005 310.981 383.31 295.687 377.237 279.164C371.249 262.861 351.238 262.734 338.495 270.823C332.195 274.821 326.005 281.26 325.693 289.113C325.348 297.682 331.319 305.333 337.72 310.35C353.714 322.882 375.881 325.887 395.623 326.056C414.237 326.216 435.452 320.787 443.639 302.134C451.573 284.046 437.743 267.541 424.318 256.784C418.776 252.339 410.758 247.761 404.063 252.508C403.768 252.718 403.608 253.03 403.7 253.392C408.535 272.582 429.262 283.625 447.816 276.075C468.561 267.633 472.957 242.769 469.917 223.048C466.986 204.034 459.313 182.478 442.224 171.73C434.678 166.982 424.495 164.112 416.763 170.046C409.377 175.719 407.524 185.727 409.933 194.329C411.499 199.935 418.465 215.927 426.71 212.451C430.113 211.02 430.845 206.576 431.41 203.394C432.378 197.94 432.505 192.36 431.881 186.863C429.414 165.181 416.157 146.664 399.135 133.685C389.972 126.699 379.798 121.135 369.253 116.531C358.944 112.028 347.903 108.08 336.49 108.341C326.939 108.56 316.984 111.918 310.465 119.165C303.702 126.69 301.024 137.624 300.712 147.514C300.14 165.745 309.396 191.148 329.037 196.358C337.181 198.521 345.081 194.868 348.677 187.276C352.24 179.759 351.263 170.947 347.414 163.759C337.888 145.957 315.763 140.578 297.217 144.054C285.257 146.293 274.014 151.512 263.435 157.362C254.263 162.437 245.26 168.304 238.151 176.106C223.151 192.57 221.846 216.23 228.188 236.759C234.429 256.96 248.056 274.266 265.692 285.805C284.011 297.783 308.292 305.316 330.317 303.347C339.716 302.505 349.536 298.406 353.63 289.299C357.26 281.243 353.823 272.944 347.726 267.212C340.685 260.596 330.056 255.471 320.387 254.814C311.594 254.216 302.161 258.871 300.67 268.222C299.205 277.422 304.519 287.489 309.901 294.576C316.235 302.917 324.775 309.407 334.183 313.927C344.609 318.935 355.963 321.645 367.392 323.152C378.257 324.583 390.317 325.626 400.475 320.593C408.046 316.847 414.405 308.885 414.136 300.123C413.841 290.435 404.585 282.237 397.754 276.429C390.957 270.655 381.693 266.766 373.313 271.64C373.018 271.808 372.858 272.195 372.951 272.523C375.612 281.622 382.358 288.196 390.284 293.027C399.371 298.566 410.177 302.976 420.663 304.82C430.399 306.528 440.759 305.123 447.833 297.665C454.453 290.679 456.955 280.351 455.986 270.949C454.731 258.787 448.743 247.803 442.561 237.483C436.354 227.114 429.464 217.013 420.865 208.453C414.321 201.947 404.703 193.395 394.604 195.55C385.365 197.528 382.645 208.403 382.004 216.508C380.556 234.706 390.679 255.647 408.004 263.105C415.146 266.177 424.655 266.16 427.856 257.768C432.092 246.675 428.243 232.399 424.579 221.71C417.1 199.851 407.019 177.268 392.987 158.801C384.38 147.48 360.342 119.83 346.159 138.407C339.564 147.042 341.94 159.323 345.275 168.775C348.72 178.539 354.43 187.486 361.799 194.767C365.48 198.403 369.582 201.627 373.995 204.32C377.465 206.441 381.727 208.966 385.988 208.478C395.303 207.409 394.09 193.117 392.6 186.737C387.1 163.279 363.181 151.529 342.175 144.879C321.12 138.205 294.067 136.967 278.477 155.619C264.134 172.773 268.261 197.309 278.191 215.464C283.868 225.834 291.22 235.699 299.188 244.427C305.934 251.809 314.432 258.618 324.691 259.788C332.818 260.714 341.948 258.223 346.917 251.355C352.248 243.99 350.775 233.906 345.932 226.701C340.179 218.149 330.039 214.151 320.193 212.704C309.497 211.138 297.251 211.281 287.54 216.592C270.956 225.649 265.052 247.348 270.502 264.628C277.147 285.704 296.468 299.584 316.555 306.57C328.405 310.686 340.963 313.043 353.402 314.516C363.484 315.711 375.098 315.147 381.592 306.166C387.715 297.707 382.864 289.357 377.077 282.321C369.75 273.407 360.747 265.857 350.699 260.176C342.832 255.723 332.582 250.774 323.916 255.942C323.638 256.11 323.436 256.506 323.554 256.826C327.436 267.827 335.404 276.218 344.542 283.188C355.323 291.403 367.333 298.894 379.596 304.66C391.227 310.131 404.559 313.885 417.412 310.939C428.782 308.338 435.461 300.148 436.084 288.575C436.741 276.294 433.583 263.265 429.388 251.809C425.245 240.505 419.383 229.858 412.055 220.296C404.736 210.751 395.969 202.317 386.047 195.491C377.018 189.279 364.671 182.588 353.958 188.993C343.851 195.036 345.62 209.396 347.818 219.151C350.589 231.507 356.923 243.409 366.12 252.179C374.45 260.117 386.022 266.051 397.805 264.317C408.417 262.76 416.856 254.932 421.455 245.547C427.283 233.67 426.702 219.976 424.099 207.325C421.505 194.683 417.243 182.251 411.44 170.72C401.148 150.249 383.428 129.19 360.031 123.913C349.722 121.581 338.318 123.264 331.58 132.128C325.213 140.502 324.977 152.135 326.417 162.109C328.203 174.541 332.355 187.107 339.261 197.662C345.637 207.418 355.297 216.82 367.282 218.654C393.097 222.594 396.744 188.277 392.617 170.534C389.98 159.222 383.992 148.574 374.904 141.209C364.419 132.708 350.884 128.668 337.88 125.924C324.126 123.02 308.991 121.042 295.01 123.29C283.093 125.2 273.828 131.883 268.312 142.598C262.467 153.961 260.496 167.412 259.873 180.037C259.165 194.321 260.892 208.815 265.558 222.358C273.416 245.126 290.109 265.217 312.47 274.846C323.259 279.493 336.398 281.681 345.696 272.843C353.647 265.293 356.847 253.257 357.479 242.643C358.127 231.819 355.912 220.649 350.455 211.222C344.593 201.088 335.278 194.548 324.337 190.76C312.958 186.821 297.773 182.099 286.142 187.301C275.892 191.888 269.449 202.662 268.11 213.537C265.061 238.216 282.731 263.315 300.586 278.592C318.231 293.692 341.333 303.734 364.722 304.357C385.466 304.912 409.916 294.845 408.299 270.428C407.474 257.954 400.879 245.875 393.4 236.128C386.485 227.13 377.111 218.974 365.699 216.601C356.628 214.715 346.437 216.862 339.219 222.754C330.367 229.975 329.213 241.128 332.22 251.624C339.699 277.734 365.716 291.933 389.98 299.306C400.011 302.353 411.828 304.466 421.893 300.401C432.016 296.31 436.859 286.302 436.185 275.747C435.41 263.627 429.313 252.508 422.718 242.609C415.34 231.533 406.412 221.483 396.263 212.864C386.645 204.691 375.309 196.105 362.439 194.355C351.844 192.915 340.862 196.694 335.488 206.357C324.522 226.07 336.516 252.987 350.151 268.138C363.711 283.196 388.389 297.168 408.796 287.565C419.298 282.624 423.055 271.648 423.358 260.723C423.72 247.55 420.848 234.243 415.904 222.072C406.707 199.43 388.818 176.149 365.236 167.378C354.691 163.456 340.971 162.269 331.513 169.508C322.728 176.233 321.246 188.168 322.619 198.437C324.329 211.222 329.845 223.797 337.156 234.352C343.792 243.931 353.108 253.636 365.623 253.753C377.364 253.871 384.851 244.259 386.797 233.477C389.062 220.893 384.834 208.226 378.341 197.536C364.924 175.433 341.67 157.042 315.477 154.02C303.298 152.615 288.609 154.214 278.671 162.05C269.668 169.146 268.093 180.87 269.617 191.585C272.885 214.564 286.984 240.943 308.233 251.902C316.866 256.354 329.104 258.509 336.566 250.673C344.458 242.382 342.007 229.723 336.288 221.028C325.769 205.044 297.781 187.646 282.352 207.628C276.246 215.532 275.1 226.785 278.174 236.128C281.981 247.693 291.069 256.615 300.704 263.618C320.185 277.784 346.496 287.388 370.003 277.818C370.963 277.447 370.559 275.924 369.624 276.311Z" fill="#FF84F9"/>
</g>
<path fill-rule="evenodd" clip-rule="evenodd" d="M313.876 202.502L366.168 218.854C366.611 218.993 366.858 219.464 366.719 219.907C366.58 220.35 366.109 220.597 365.666 220.458L315.087 204.641L311.466 219.535C311.357 219.986 310.902 220.262 310.451 220.153C310 220.043 309.723 219.589 309.833 219.138L313.876 202.502Z" fill="black"/>
<path d="M377.513 131.454C381.662 131.454 385.025 128.093 385.025 123.946C385.025 119.8 381.662 116.438 377.513 116.438C373.364 116.438 370 119.8 370 123.946C370 128.093 373.364 131.454 377.513 131.454Z" fill="black"/>
<path d="M379.737 151.091C380.672 147.127 380.327 142.842 378.448 138.87C374.052 129.552 362.935 125.571 353.611 129.964C348.642 132.304 345.189 136.563 343.715 141.437C343.715 141.437 359.38 148.978 371.525 134.038C371.525 134.038 372.014 146.832 375.939 149.719C377.69 151.007 378.305 149.955 379.737 151.091Z" fill="black"/>
<path d="M379.291 155.628C381.449 155.628 383.199 153.879 383.199 151.722C383.199 149.565 381.449 147.817 379.291 147.817C377.132 147.817 375.383 149.565 375.383 151.722C375.383 153.879 377.132 155.628 379.291 155.628Z" fill="#648CFF"/>
<path d="M249.646 198.639L269.278 195.457C270.904 195.196 272.967 196.24 273.869 197.789L296.533 236.701C297.434 238.249 296.828 239.722 295.177 239.992L275.275 243.215C273.624 243.485 271.561 242.441 270.668 240.892L248.307 201.93C247.414 200.373 248.021 198.9 249.646 198.639Z" fill="black"/>
<path d="M266.38 202.469L271.206 201.686C272.141 201.534 272.478 200.693 271.964 199.809L271.736 199.422C271.223 198.538 270.052 197.94 269.117 198.092L264.291 198.874C263.356 199.026 263.019 199.868 263.533 200.751L263.761 201.139C264.283 202.022 265.453 202.62 266.38 202.469Z" fill="#00CD73"/>
<path d="M293.224 213.461C289.56 209.648 285.888 205.827 282.224 202.014C280.085 199.784 276.076 200.364 274.172 202.528C272.016 204.977 272.555 208.352 274.686 210.574C276.101 212.047 277.516 213.52 278.923 214.985C282.03 218.537 281.331 223.452 278.645 225.632C273.777 229.588 262.6 226.003 258.027 218.89C258.027 218.89 257.437 221.701 258.524 224.993C260.107 229.773 263.594 231.221 263.594 231.221C263.594 231.221 262.348 233.3 263.729 237.029C264.714 239.68 267.948 241.103 267.948 241.103C267.948 241.103 266.912 243.754 269.119 245.993C270.98 247.878 275.276 248.703 278.939 249.553C291.101 252.365 289.13 251.464 302.404 254.418L309.647 224.639C309.664 224.622 302.32 222.93 293.224 213.461Z" fill="#648CFF"/>
<path d="M278.241 210.482C280.613 210.482 282.536 208.56 282.536 206.189C282.536 203.818 280.613 201.896 278.241 201.896C275.868 201.896 273.945 203.818 273.945 206.189C273.945 208.56 275.868 210.482 278.241 210.482Z" fill="#C8E6FF"/>
<path fill-rule="evenodd" clip-rule="evenodd" d="M264.418 231.553C264.593 231.123 265.083 230.916 265.513 231.091C266.972 231.684 269.254 232.567 271.556 233.287C273.893 234.019 276.129 234.543 277.55 234.497C278.014 234.482 278.403 234.846 278.417 235.31C278.432 235.774 278.068 236.162 277.604 236.177C275.867 236.232 273.382 235.62 271.053 234.891C268.689 234.151 266.36 233.249 264.88 232.647C264.449 232.473 264.243 231.982 264.418 231.553Z" fill="black"/>
<path fill-rule="evenodd" clip-rule="evenodd" d="M269.122 241.451C269.255 241.006 269.723 240.754 270.168 240.887C271.582 241.311 273.555 241.881 275.416 242.356C277.307 242.839 278.988 243.197 279.868 243.235C280.331 243.254 280.691 243.646 280.671 244.11C280.651 244.574 280.259 244.933 279.795 244.913C278.712 244.867 276.86 244.459 275 243.984C273.108 243.501 271.11 242.923 269.685 242.497C269.241 242.363 268.988 241.895 269.122 241.451Z" fill="black"/>
<path d="M214.256 20.156C204.94 15.7623 193.823 19.752 189.418 29.0696C188.037 31.9988 187.481 35.1046 187.666 38.1179C185.948 38.5304 184.668 40.0707 184.668 41.914C184.668 44.0688 186.42 45.8195 188.576 45.8195C188.989 45.8195 189.376 45.7522 189.747 45.6427C191.566 49.1358 194.497 52.0818 198.329 53.8914C201.268 55.2718 204.376 55.8273 207.408 55.6422L207.113 61.0375C206.768 61.4331 215.999 58.8995 215.999 58.8995L213.439 54.2533C217.574 52.5447 221.111 49.3462 223.166 44.9862C227.571 35.6686 223.579 24.5581 214.256 20.156Z" fill="#648CFF"/>
<path d="M226.528 54.085L189.394 63.1501C168.97 69.404 152.934 88.1487 157.002 110.21C157.002 110.21 160.329 129.022 161.592 137.254C164.885 158.616 178.251 173.573 198.406 168.329C232.811 159.382 267.519 150.763 267.519 150.763L265.827 144.871L292.34 117.187C292.34 117.187 292.34 117.187 279.833 80.2451C273.802 62.4263 247.618 47.6292 226.528 54.085Z" fill="#FF84F9"/>
<mask id="mask1" mask-type="alpha" maskUnits="userSpaceOnUse" x="156" y="52" width="137" height="118">
<path d="M226.528 54.0851L189.394 63.1502C168.97 69.404 152.934 88.1487 157.002 110.21C157.002 110.21 160.329 129.022 161.592 137.254C164.885 158.616 178.251 173.573 198.406 168.329C232.811 159.382 267.519 150.763 267.519 150.763L265.827 144.871L292.34 117.187C292.34 117.187 292.34 117.187 279.833 80.2452C273.802 62.4263 247.618 47.6292 226.528 54.0851Z" fill="#FF84F9"/>
</mask>
<g mask="url(#mask1)">
<path d="M155.931 84.1422C165.28 69.4713 175.614 55.4738 186.883 42.2086C186.42 42.015 185.957 41.8214 185.493 41.6362C183.11 72.9644 163.174 99.3349 158.07 130.032C157.995 130.503 158.197 130.857 158.643 131.033C161.338 132.119 163.174 129.939 164.741 127.953C167.251 124.763 169.508 121.371 171.647 117.928C176.229 110.538 180.137 102.752 183.961 94.9496C191.827 78.9236 199.525 62.561 211.889 49.4136C211.434 49.2957 210.979 49.1779 210.524 49.0516C212.756 54.548 210.019 60.2884 208.099 65.4901C206.128 70.8096 204.031 76.0787 201.791 81.2888C197.571 91.1283 192.888 100.757 187.759 110.159C179.008 126.194 166.619 141.984 166.072 160.99C166.063 161.402 166.459 161.848 166.888 161.806C171.032 161.41 173.357 158.119 175.648 154.98C178.966 150.443 181.804 145.57 184.306 140.536C189.502 130.091 193.25 119.005 197.141 108.03C204.738 86.5495 213.919 63.6552 233.863 50.7266C233.467 50.4236 233.063 50.1122 232.667 49.8092C223.411 72.7792 214.769 96.0018 206.802 119.452C202.818 131.176 199.003 142.96 195.356 154.786C193.899 159.508 191.886 164.398 191.128 169.289C190.69 172.108 190.985 174.979 193.697 176.426C193.983 176.578 194.463 176.586 194.682 176.3C216.269 148.423 223.714 113.467 234.663 80.708C237.265 72.9223 239.784 64.0844 245.881 58.2262C246.648 57.4855 250.716 53.9419 252.097 54.4301C253.621 54.9688 253.352 59.4467 253.428 60.8775C253.723 66.4917 252.653 72.0974 251.179 77.5012C246.016 96.389 237.804 114.477 231.092 132.843C227.394 142.977 223.958 153.221 221.297 163.675C219.949 168.952 218.559 174.381 217.911 179.802C217.566 182.697 217.683 185.264 219.713 187.486C219.991 187.789 220.589 187.815 220.867 187.486C250.598 152.236 239.876 98.8972 270.5 64.2612C270.037 64.0676 269.573 63.874 269.11 63.6888C268.984 103.813 242.234 137.784 239.421 177.479C239.371 178.194 240.348 178.547 240.811 178.051C270.146 147.463 264.082 99.5201 289.534 66.66C289.105 66.6011 288.684 66.5506 288.254 66.4917C293.636 74.631 292.903 84.4704 290.932 93.6029C288.903 102.996 286.031 112.255 283.1 121.396C277.044 140.309 269.868 158.835 262.701 177.352C262.389 178.143 263.518 178.674 264.065 178.143C282.678 159.988 289.896 134.324 296.407 109.94C295.885 109.94 295.362 109.94 294.832 109.94C299.447 133.188 279.95 154.18 286.031 177.462C286.292 178.472 287.867 178.042 287.605 177.032C281.558 153.886 301.031 132.818 296.407 109.511C296.247 108.703 295.034 108.77 294.832 109.511C288.397 133.626 281.322 159.037 262.911 176.99C263.366 177.251 263.821 177.521 264.276 177.782C272.024 157.766 279.781 137.733 286.123 117.221C290.865 101.902 299.582 80.6575 289.661 65.6668C289.408 65.2796 288.726 65.0608 288.38 65.4985C262.928 98.3669 268.908 146.394 239.657 176.889C240.12 177.083 240.584 177.276 241.047 177.462C243.868 137.775 270.609 103.838 270.736 63.672C270.736 62.9986 269.818 62.5525 269.346 63.0996C248.315 86.8861 246.479 120.108 238.032 149.315C235.825 156.933 233.164 164.449 229.534 171.511C227.858 174.777 225.979 177.933 223.882 180.938C223.234 181.864 222.56 182.773 221.869 183.665C220.926 184.885 220.648 186.434 219.57 184.077C218.559 181.872 219.781 178.354 220.202 176.115C224.025 155.864 231.328 136.513 238.68 117.33C242.74 106.733 246.867 96.1533 250.455 85.3879C253.933 74.9424 256.746 64.0255 253.781 53.1086C253.664 52.6794 253.2 52.4269 252.779 52.5363C239.194 56.2145 235.311 73.3347 231.555 84.9418C226.342 101.077 221.844 117.44 215.873 133.314C212.714 141.723 209.135 149.98 204.814 157.858C202.928 161.309 200.898 164.676 198.716 167.95C197.992 169.028 196.24 172.58 195.103 173.076C191.397 174.701 192.779 169.171 193.175 167.572C197.807 148.877 204.696 130.411 210.996 112.23C218.222 91.3724 225.988 70.7002 234.242 50.23C234.511 49.5651 233.61 48.9422 233.046 49.3126C206.844 66.2981 199.592 98.3922 189.014 125.655C185.982 133.466 182.546 141.167 178.149 148.314C176.119 151.621 173.618 156.444 170.358 158.65C170.097 158.868 169.828 159.096 169.567 159.315C167.849 160.165 167.268 159.786 167.832 158.17C167.621 157.606 168.405 153.894 168.346 154.239C168.75 151.958 169.339 149.702 170.055 147.497C172.666 139.425 176.978 132.018 181.265 124.746C185.813 117.036 190.227 109.267 194.269 101.271C198.649 92.5845 202.666 83.7129 206.296 74.6815C208.225 69.8838 210.162 65.0524 211.754 60.1369C213.001 56.2734 213.683 52.4774 212.116 48.614C211.897 48.0753 211.215 47.7638 210.752 48.252C194.37 65.6584 186.243 88.3844 174.94 109.023C172.06 114.275 168.96 119.418 165.457 124.283C164.556 125.537 163.402 127.885 162.029 128.677C159.393 130.2 160.066 128.012 160.403 126.354C161.043 123.18 161.852 120.049 162.77 116.943C166.324 104.865 171.563 93.3757 176.296 81.7265C181.51 68.8316 186.058 55.6169 187.119 41.6278C187.169 40.9461 186.176 40.5252 185.729 41.0555C174.368 54.4217 163.949 68.5286 154.525 83.3173C153.952 84.2011 155.367 85.0176 155.931 84.1422Z" fill="#FDCD01"/>
</g>
<path fill-rule="evenodd" clip-rule="evenodd" d="M253.99 92.6933L257.866 108.588C257.976 109.039 257.699 109.494 257.248 109.603C256.797 109.713 256.342 109.437 256.232 108.986L252.781 94.8323L202.201 110.658C201.758 110.797 201.287 110.55 201.148 110.107C201.009 109.664 201.256 109.193 201.699 109.054L253.99 92.6933Z" fill="black"/>
<path d="M318.011 86.2464L298.379 83.0648C296.753 82.8038 294.69 83.8475 293.789 85.3963L271.124 124.308C270.223 125.857 270.83 127.33 272.48 127.599L292.382 130.823C294.033 131.092 296.097 130.049 296.989 128.5L319.351 89.5374C320.243 87.9803 319.637 86.5073 318.011 86.2464Z" fill="black"/>
<path d="M301.277 90.0761L296.451 89.2933C295.516 89.1418 295.18 88.3001 295.693 87.4163L295.921 87.0292C296.434 86.1454 297.605 85.5478 298.54 85.6993L303.366 86.482C304.301 86.6336 304.638 87.4753 304.124 88.359L303.897 88.7462C303.374 89.63 302.204 90.2276 301.277 90.0761Z" fill="#00CD73"/>
<path d="M274.435 101.069C278.099 97.2558 281.771 93.4345 285.435 89.6216C287.574 87.3911 291.583 87.9719 293.487 90.1351C295.643 92.5844 295.104 95.9596 292.973 98.1817C291.558 99.6547 290.143 101.128 288.736 102.592C285.628 106.144 286.328 111.06 289.014 113.24C293.882 117.196 305.059 113.61 309.632 106.498C309.632 106.498 310.222 109.309 309.135 112.6C307.552 117.381 304.065 118.829 304.065 118.829C304.065 118.829 305.311 120.908 303.93 124.636C302.945 127.288 299.711 128.71 299.711 128.71C299.711 128.71 300.747 131.362 298.54 133.601C296.679 135.486 292.383 136.311 288.719 137.161C276.558 139.972 278.528 139.072 265.255 142.026L258.012 112.247C257.995 112.23 265.339 110.538 274.435 101.069Z" fill="#648CFF"/>
<path d="M289.416 98.0891C291.789 98.0891 293.712 96.1672 293.712 93.7965C293.712 91.4257 291.789 89.5038 289.416 89.5038C287.044 89.5038 285.121 91.4257 285.121 93.7965C285.121 96.1672 287.044 98.0891 289.416 98.0891Z" fill="#C8E6FF"/>
<path fill-rule="evenodd" clip-rule="evenodd" d="M302.857 119.325C303.029 119.756 302.82 120.244 302.388 120.417C300.842 121.035 298.575 121.897 296.308 122.594C294.073 123.28 291.723 123.844 290.057 123.793C289.593 123.779 289.228 123.391 289.243 122.927C289.257 122.464 289.645 122.099 290.109 122.113C291.466 122.155 293.576 121.675 295.814 120.987C298.018 120.31 300.237 119.467 301.764 118.857C302.195 118.684 302.684 118.894 302.857 119.325Z" fill="black"/>
<path fill-rule="evenodd" clip-rule="evenodd" d="M298.56 129.049C298.694 129.494 298.442 129.962 297.997 130.096C296.577 130.522 294.574 131.103 292.676 131.587C290.809 132.064 288.949 132.474 287.861 132.521C287.397 132.541 287.005 132.181 286.985 131.717C286.965 131.254 287.325 130.862 287.789 130.842C288.672 130.804 290.362 130.444 292.26 129.96C294.126 129.483 296.103 128.91 297.513 128.486C297.958 128.353 298.426 128.605 298.56 129.049Z" fill="black"/>
<path d="M191.931 39.9108C191.931 39.9108 191.939 39.9108 191.931 39.9108L222.689 28.1101C220.861 24.7517 217.989 21.9152 214.258 20.156C204.943 15.7623 193.826 19.752 189.421 29.0696C188.039 31.9988 187.492 35.1046 187.669 38.1179C187.964 38.0506 188.258 38.0085 188.579 38.0085C190.01 38.0085 191.248 38.7745 191.931 39.9108Z" fill="black"/>
<path d="M233.849 22.191L217.48 28.4529L218.031 29.8914L234.4 23.6295L233.849 22.191Z" fill="black"/>
<path d="M309.404 197.141C324.256 197.141 336.297 185.108 336.297 170.265C336.297 155.422 324.256 143.39 309.404 143.39C294.552 143.39 282.512 155.422 282.512 170.265C282.512 185.108 294.552 197.141 309.404 197.141Z" fill="#00CD73"/>
<path d="M305.891 185.702L291.32 171.065L294.479 167.925L305.503 178.994L322.205 157.825L325.7 160.577L305.891 185.702Z" fill="white"/>
<path d="M267.756 82.8965C282.608 82.8965 294.648 70.8639 294.648 56.0209C294.648 41.178 282.608 29.1454 267.756 29.1454C252.903 29.1454 240.863 41.178 240.863 56.0209C240.863 70.8639 252.903 82.8965 267.756 82.8965Z" fill="#00CD73"/>
<path d="M264.242 71.4577L249.68 56.8205L252.838 53.6726L263.863 64.7494L280.564 43.5721L284.06 46.3329L264.242 71.4577Z" fill="white"/>
</g>
<defs>
<clipPath id="clip0">
<rect width="132" height="134" fill="white" transform="translate(26 73)"/>
</clipPath>
<clipPath id="clip1">
<rect width="256.88" height="273.553" fill="white" transform="translate(154.391 18.3716)"/>
</clipPath>
</defs>
</svg>
