<svg width="172" height="207" viewBox="0 0 172 207" fill="none" xmlns="http://www.w3.org/2000/svg">
<g clip-path="url(#clip0)">
<path d="M91.1465 106.245L100.633 187.901L113.644 187.564L113.952 101.945L91.1465 106.245Z" fill="#648CFF"/>
<path d="M95.9414 198.045C96.0634 197.273 96.1077 196.488 96.0733 195.705L95.6921 186.631C95.653 185.693 95.6481 184.749 95.6921 183.811L95.7703 180.649C95.7758 180.429 95.8382 180.215 95.9503 180.031C96.0625 179.846 96.2201 179.7 96.4053 179.607C96.5906 179.514 96.7962 179.478 96.9992 179.504C97.2021 179.53 97.3943 179.616 97.5543 179.754L99.2649 181.688C99.8395 182.34 100.54 182.848 101.317 183.176C102.094 183.504 102.929 183.643 103.762 183.585L113.131 182.926C112.895 182.715 112.717 182.44 112.615 182.128C112.512 181.817 112.49 181.482 112.549 181.158C112.609 180.835 112.748 180.534 112.953 180.289C113.158 180.043 113.42 179.862 113.713 179.764L116.973 178.71C117.136 178.659 117.309 178.647 117.477 178.677C117.646 178.706 117.806 178.775 117.946 178.88C118.087 178.984 118.204 179.121 118.289 179.28C118.374 179.44 118.425 179.618 118.439 179.801C118.499 180.669 118.729 181.513 119.115 182.277C119.501 183.041 120.034 183.708 120.677 184.233C125.482 188.143 137.173 197.803 138.273 200.042C138.914 201.217 139.171 202.591 139.001 203.942C138.91 204.514 138.633 205.032 138.22 205.405C137.808 205.777 137.286 205.98 136.748 205.976H94.4653L95.9414 198.045Z" fill="#FED4FF"/>
<path fill-rule="evenodd" clip-rule="evenodd" d="M96.0001 196.733C96.0757 196.454 96.3471 196.293 96.6062 196.375C96.6003 196.373 96.6029 196.373 96.6189 196.377C96.6366 196.381 96.6707 196.388 96.7276 196.399C96.8197 196.417 96.9493 196.441 97.1148 196.472C97.4454 196.533 97.9142 196.617 98.502 196.721C99.6772 196.928 101.325 197.215 103.286 197.555C107.207 198.233 112.382 199.121 117.538 200.002C122.694 200.884 127.832 201.76 131.681 202.415C133.606 202.743 135.208 203.016 136.329 203.207L138.089 203.506C138.09 203.506 138.09 203.506 138.014 204.027C137.938 204.547 137.938 204.547 137.937 204.547L136.177 204.248C135.055 204.057 133.453 203.784 131.529 203.456C127.68 202.801 122.542 201.925 117.385 201.043C112.228 200.162 107.053 199.274 103.131 198.595C101.169 198.256 99.5207 197.969 98.3437 197.761C97.7554 197.657 97.2841 197.572 96.9504 197.511C96.7837 197.48 96.65 197.455 96.5526 197.436C96.4715 197.42 96.3816 197.402 96.3325 197.387C96.0734 197.305 95.9246 197.012 96.0001 196.733ZM138.497 204.109C138.455 204.396 138.204 204.592 137.937 204.547L138.014 204.027L138.089 203.506C138.356 203.551 138.539 203.821 138.497 204.109Z" fill="black"/>
<path fill-rule="evenodd" clip-rule="evenodd" d="M128.572 189.884C128.841 189.908 129.041 190.163 129.018 190.453L128.403 198.489C128.38 198.779 128.144 198.995 127.875 198.971C127.606 198.947 127.406 198.692 127.428 198.402L128.044 190.366C128.066 190.076 128.303 189.86 128.572 189.884Z" fill="black"/>
<path fill-rule="evenodd" clip-rule="evenodd" d="M133.028 193.702C133.082 193.988 132.912 194.266 132.648 194.325L124.666 196.09C124.402 196.148 124.143 195.965 124.089 195.68C124.035 195.395 124.205 195.116 124.47 195.057L132.451 193.292C132.716 193.234 132.974 193.417 133.028 193.702Z" fill="black"/>
<path fill-rule="evenodd" clip-rule="evenodd" d="M123.562 185.7C123.831 185.723 124.031 185.978 124.009 186.268L123.418 194.051C123.396 194.341 123.16 194.557 122.891 194.533C122.622 194.51 122.422 194.255 122.444 193.965L123.035 186.182C123.057 185.892 123.293 185.676 123.562 185.7Z" fill="black"/>
<path fill-rule="evenodd" clip-rule="evenodd" d="M127.838 189.313C127.892 189.598 127.721 189.877 127.457 189.935L119.681 191.653C119.416 191.711 119.158 191.528 119.104 191.242C119.05 190.957 119.22 190.679 119.484 190.62L127.261 188.902C127.525 188.844 127.783 189.028 127.838 189.313Z" fill="black"/>
<path d="M86.3911 105.46L79.2943 186.989L65.7166 186.784L62.4028 103.036L86.3911 105.46Z" fill="#648CFF"/>
<path d="M84.2892 198.045C84.1656 197.273 84.1197 196.488 84.1524 195.705L84.5336 186.631C84.5727 185.693 84.5825 184.749 84.5581 183.811L84.475 180.649C84.4694 180.429 84.4071 180.215 84.2949 180.031C84.1828 179.846 84.0252 179.7 83.84 179.607C83.6547 179.514 83.4491 179.478 83.2461 179.504C83.0432 179.53 82.8509 179.616 82.691 179.754L80.9852 181.688C80.4106 182.34 79.71 182.848 78.9329 183.176C78.1558 183.504 77.3213 183.643 76.4887 183.585L67.1143 182.926C67.3498 182.715 67.5284 182.44 67.6311 182.129C67.7338 181.819 67.7568 181.484 67.6978 181.16C67.6387 180.836 67.4998 180.536 67.2956 180.29C67.0914 180.044 66.8295 179.863 66.5375 179.764L63.2726 178.71C63.1088 178.659 62.9365 178.647 62.7681 178.677C62.5997 178.706 62.4394 178.775 62.299 178.88C62.1586 178.984 62.0415 179.121 61.9563 179.28C61.8711 179.44 61.8199 179.618 61.8064 179.801C61.7476 180.668 61.518 181.512 61.1328 182.277C60.7477 183.041 60.2158 183.708 59.5727 184.233C54.7633 188.143 43.0771 197.803 41.9774 200.042C41.3396 201.219 41.085 202.591 41.2541 203.942C41.3444 204.513 41.6201 205.032 42.0319 205.404C42.4437 205.777 42.9648 205.979 43.5024 205.976H85.7946L84.2892 198.045Z" fill="#FED4FF"/>
<path fill-rule="evenodd" clip-rule="evenodd" d="M84.2308 196.734C84.3058 197.014 84.1564 197.306 83.8971 197.387C83.8484 197.402 83.7591 197.42 83.6775 197.436C83.58 197.455 83.4462 197.48 83.2794 197.511C82.9454 197.572 82.474 197.657 81.8855 197.761C80.7082 197.969 79.0593 198.256 77.0979 198.595C73.1749 199.274 68 200.162 62.8439 201.043C57.6876 201.925 52.5499 202.801 48.7013 203.456C46.7769 203.784 45.1749 204.057 44.0539 204.248L42.2934 204.547C42.2931 204.547 42.293 204.547 42.2168 204.027C42.1407 203.506 42.1409 203.506 42.1412 203.506L43.9015 203.207C45.0225 203.016 46.6245 202.743 48.5487 202.415C52.3973 201.76 57.5348 200.884 62.6907 200.002C67.8468 199.121 73.021 198.233 76.9431 197.555C78.9042 197.215 80.5517 196.928 81.7273 196.721C82.3152 196.617 82.7842 196.533 83.1151 196.472C83.2807 196.441 83.4105 196.417 83.5027 196.399C83.5607 196.388 83.5952 196.38 83.6129 196.377C83.6282 196.373 83.6309 196.373 83.6255 196.374C83.8848 196.294 84.1558 196.455 84.2308 196.734ZM41.734 204.109C41.692 203.821 41.8746 203.551 42.1412 203.506L42.2168 204.027L42.2934 204.547C42.0268 204.592 41.7761 204.396 41.734 204.109Z" fill="black"/>
<path fill-rule="evenodd" clip-rule="evenodd" d="M84.1807 196.66C84.1808 196.66 84.1809 196.66 83.7369 196.881L84.1809 196.66C84.2937 196.925 84.1864 197.238 83.9411 197.359C83.696 197.481 83.4059 197.365 83.293 197.101L83.2929 197.101M69.1978 192.847C63.3085 197.523 58.0462 201.268 50.8477 203.09C50.5849 203.157 50.3218 202.981 50.2601 202.698C50.1984 202.414 50.3614 202.131 50.6242 202.064C57.6192 200.293 62.7479 196.66 68.6181 191.998L68.6183 191.998C71.1008 190.028 73.3395 189.297 75.3138 189.36C77.2853 189.423 78.9336 190.276 80.242 191.36C81.5477 192.443 82.53 193.767 83.1833 194.812C83.5109 195.336 83.7585 195.794 83.9248 196.122C84.008 196.287 84.0711 196.419 84.1138 196.511C84.1351 196.557 84.1514 196.593 84.1626 196.619L84.1756 196.648L84.1792 196.656L84.1803 196.659L84.1807 196.66M83.2929 197.101L83.2927 197.1L83.2906 197.096L83.2809 197.074C83.2719 197.053 83.258 197.023 83.2391 196.982C83.2014 196.9 83.1439 196.779 83.0668 196.627C82.9127 196.323 82.6808 195.894 82.3727 195.401C81.7546 194.413 80.8405 193.186 79.6462 192.196C78.4546 191.208 76.9994 190.468 75.2849 190.413C73.5735 190.359 71.5441 190.985 69.1978 192.847" fill="black"/>
<path fill-rule="evenodd" clip-rule="evenodd" d="M51.6585 189.884C51.9275 189.86 52.1636 190.076 52.1858 190.366L52.8017 198.402C52.8239 198.692 52.6238 198.947 52.3548 198.971C52.0858 198.995 51.8497 198.779 51.8275 198.489L51.2116 190.453C51.1894 190.163 51.3895 189.908 51.6585 189.884Z" fill="black"/>
<path fill-rule="evenodd" clip-rule="evenodd" d="M47.2025 193.702C47.2567 193.417 47.515 193.234 47.7795 193.292L55.7609 195.057C56.0253 195.116 56.1957 195.395 56.1414 195.68C56.0872 195.965 55.8289 196.148 55.5644 196.09L47.583 194.325C47.3186 194.266 47.1482 193.988 47.2025 193.702Z" fill="black"/>
<path fill-rule="evenodd" clip-rule="evenodd" d="M56.6634 185.7C56.9324 185.676 57.1685 185.891 57.1907 186.181L57.787 193.965C57.8092 194.255 57.6092 194.51 57.3401 194.533C57.0711 194.557 56.835 194.342 56.8128 194.052L56.2165 186.268C56.1943 185.978 56.3944 185.724 56.6634 185.7Z" fill="black"/>
<path fill-rule="evenodd" clip-rule="evenodd" d="M52.3929 189.313C52.447 189.028 52.7053 188.844 52.9698 188.902L60.7459 190.62C61.0104 190.679 61.1808 190.957 61.1266 191.242C61.0724 191.528 60.8141 191.711 60.5497 191.653L52.7736 189.935C52.5091 189.877 52.3387 189.598 52.3929 189.313Z" fill="black"/>
<path d="M113.424 69.1982L89.382 69.7358L65.5208 69.1982L58.7222 108.137L60.5892 108.158L63.5364 103.357L64.6313 108.205L90.1151 108.474L116.352 108.19L113.424 69.1982Z" fill="#00CD73"/>
<path fill-rule="evenodd" clip-rule="evenodd" d="M90.1968 84.3812C90.4663 84.3977 90.6724 84.6466 90.6572 84.9372L89.4206 108.472C89.4053 108.763 89.1745 108.985 88.905 108.969C88.6355 108.952 88.4294 108.703 88.4446 108.413L89.6812 84.8776C89.6965 84.587 89.9273 84.3648 90.1968 84.3812Z" fill="black"/>
<path fill-rule="evenodd" clip-rule="evenodd" d="M93.4218 84.9005C93.4361 84.851 93.4437 84.7983 93.4437 84.7438C93.4437 84.4527 93.2249 84.2168 92.955 84.2168L92.955 84.7438C92.955 84.2168 92.9418 84.217 92.9286 84.2176C92.9243 84.2178 92.9111 84.2189 92.9024 84.2199C92.885 84.2219 92.8679 84.2249 92.8512 84.2288C92.8177 84.2366 92.7869 84.2478 92.7589 84.2611C92.7032 84.2873 92.6605 84.3208 92.6297 84.3503C92.5714 84.4062 92.539 84.4642 92.5239 84.4942C92.4936 84.5542 92.4801 84.6088 92.4747 84.6317C92.4619 84.6862 92.4531 84.7511 92.4454 84.8276C92.4292 84.988 92.4098 85.285 92.3908 85.8511C92.3526 86.9874 92.3147 89.2481 92.3147 93.7552C92.3147 94.2435 92.1608 94.5852 91.9378 94.8425C91.7044 95.1116 91.3759 95.3091 91.0117 95.4491C90.6504 95.588 90.282 95.6597 89.9993 95.6959C89.8591 95.7139 89.7431 95.7228 89.6633 95.7272C89.6235 95.7293 89.593 95.7304 89.5733 95.7309C89.5634 95.7312 89.5563 95.7313 89.552 95.7313L89.5483 95.7314M89.5483 96.2583C89.5483 96.7853 89.5485 96.7853 89.5487 96.7853L89.5503 96.7853L89.5535 96.7853L89.5633 96.7852C89.5714 96.7851 89.5825 96.7849 89.5965 96.7846C89.6245 96.7838 89.6639 96.7825 89.7131 96.7798C89.8114 96.7744 89.9496 96.7637 90.1146 96.7425C90.4422 96.7005 90.8877 96.6158 91.3401 96.4418C91.7897 96.2689 92.2749 95.997 92.6519 95.5622C93.0392 95.1154 93.2922 94.5185 93.2922 93.7552C93.2922 89.2509 93.3301 87.0058 93.3677 85.8893C93.3865 85.329 93.405 85.0628 93.4172 84.9416C93.419 84.9235 93.4206 84.91 93.4218 84.9005M89.5483 95.7314C89.5482 95.7314 89.5478 95.7314 89.5477 95.7314C89.5477 95.7314 89.5477 95.7314 89.5477 95.7314C89.2781 95.7318 89.0596 95.9675 89.0596 96.2583C89.0596 96.5494 89.2788 96.7853 89.5487 96.7853L89.5483 96.2583" fill="black"/>
<path d="M171.489 21.2216C171.351 20.3757 170.915 19.6202 170.272 19.1137C169.727 18.7082 169.081 18.4913 168.419 18.4918C168.314 18.3366 168.193 18.1951 168.058 18.0703C167.714 17.7597 167.314 17.5307 166.882 17.3981C166.451 17.2655 165.999 17.2324 165.555 17.3009C165.164 17.3636 164.789 17.5119 164.453 17.7366C164.116 17.9614 163.826 18.2578 163.6 18.6078C163.161 19.3391 162.975 20.2147 163.077 21.0793V21.2638C162.808 20.9903 162.491 20.7787 162.144 20.6419C161.379 20.3374 160.534 20.3715 159.793 20.7368C159.437 20.9113 159.116 21.1599 158.849 21.4683C158.583 21.7766 158.375 22.1387 158.238 22.5338C157.913 23.7845 157.579 25.0352 157.237 26.2859C157.129 26.697 157.017 27.1027 156.909 27.5138C153.747 28.5677 151.21 28.2884 149.788 28.2884H146.117C142.696 28.1093 143.502 25.1792 143.502 25.1792C143.778 24.2545 143.987 23.3085 144.128 22.3493C144.348 20.8738 143.791 16.9372 143.737 16.4946C143.699 16.0663 143.57 15.6532 143.36 15.2876C143.15 14.922 142.864 14.6136 142.525 14.3867C141.855 13.8902 141.036 13.6867 140.233 13.8175C139.457 13.9721 138.766 14.4418 138.302 15.1297C137.851 15.8559 137.665 16.7361 137.779 17.6012C137.847 18.2231 138.268 20.8158 137.701 22.5918C137.046 24.6523 134.817 28.3042 133.791 29.6744C132.764 31.0446 131.557 32.3462 130.443 33.6795L129.675 34.5964C129.233 35.3267 129.048 36.2032 129.152 37.068C129.291 37.9123 129.725 38.667 130.365 39.1759C130.884 39.5587 131.495 39.7727 132.124 39.7925L135.174 45.9476L138.634 48.6299L159.949 40.8991C161.261 40.6059 162.483 39.9566 163.498 39.0125C164.259 38.2183 164.956 37.3543 165.58 36.4303L167.921 33.2684C168.434 32.5781 168.957 31.893 169.46 31.1921C169.945 30.4598 170.14 29.55 170.003 28.6626L169.974 28.3728C169.925 27.9406 169.876 27.5085 169.832 27.0711L169.666 25.5903L170.951 23.6773C171.416 22.9635 171.608 22.0842 171.489 21.2216Z" fill="#648CFF"/>
<path fill-rule="evenodd" clip-rule="evenodd" d="M169.37 26.0966C169.583 26.2754 169.621 26.6065 169.455 26.8361L167.047 30.1711L161.317 36.3649C161.126 36.571 160.817 36.5714 160.626 36.3659C160.434 36.1603 160.434 35.8267 160.625 35.6206L166.312 29.4725L168.684 26.1886C168.85 25.959 169.157 25.9178 169.37 26.0966Z" fill="black"/>
<path d="M42.9891 33.88C42.9278 33.4525 42.7587 33.0515 42.5004 32.7206C42.2413 32.4149 41.9823 32.1146 41.7184 31.8142C40.5844 30.4967 39.3968 29.232 38.297 27.8618C37.1973 26.4917 34.9491 22.8976 34.2648 20.8477C33.6783 19.0823 34.0546 16.4843 34.1133 15.8572C34.2135 14.9909 34.0152 14.1152 33.5561 13.3962C33.0809 12.7156 32.3807 12.2588 31.6011 12.1209C30.797 11.9998 29.9804 12.2147 29.3186 12.7216C28.9853 12.9524 28.7054 13.2623 28.5004 13.6277C28.2954 13.9931 28.1707 14.4042 28.1358 14.8296C28.0918 15.2775 27.5884 19.2246 27.8278 20.6896C27.983 21.6461 28.2052 22.5886 28.4926 23.5089C28.4926 23.5089 29.3577 26.4232 25.9217 26.6708L22.2511 26.7341C20.8288 26.7341 18.2971 27.0713 15.1201 26.0806C15.0028 25.6748 14.8904 25.2691 14.7731 24.858L13.7174 21.127C13.4304 20.3327 12.8625 19.6939 12.1387 19.3511C11.769 19.1767 11.3711 19.0827 10.9676 19.0746C10.5642 19.0664 10.1632 19.1443 9.78778 19.3036C9.44078 19.4424 9.12449 19.6578 8.85914 19.936V19.7516C8.94724 18.8854 8.74812 18.0136 8.29707 17.2906C8.06876 16.9458 7.77763 16.6549 7.44148 16.4356C7.10532 16.2163 6.73121 16.0733 6.34203 16.0153C5.90436 15.9608 5.46099 16.0033 5.03908 16.1401C4.61718 16.277 4.22564 16.5052 3.88847 16.811C3.75678 16.9422 3.63729 17.0869 3.53167 17.2431C2.86804 17.2601 2.2251 17.4955 1.68905 17.9177C1.05901 18.4311 0.635662 19.1856 0.506259 20.0256C0.389384 20.8928 0.589129 21.775 1.06344 22.4866C1.06344 22.4866 1.68417 23.3772 2.3782 24.3785L2.23646 25.8224C2.19736 26.2545 2.15337 26.6919 2.11427 27.124L2.08495 27.4139C1.96319 28.3034 2.17223 29.2087 2.66657 29.9329C3.17977 30.6232 3.71251 31.303 4.23548 31.9828L6.62062 35.1131C7.25692 36.0288 7.96673 36.8822 8.74183 37.6637C9.76466 38.6046 10.9952 39.2453 12.3147 39.5239L33.7418 46.9017L37.1631 44.1561L40.125 37.943C40.7534 37.9101 41.3603 37.6853 41.8748 37.2948C42.5033 36.7799 42.9263 36.0261 43.0575 35.1869C43.1439 34.7525 43.1202 34.3011 42.9891 33.88Z" fill="#648CFF"/>
<path fill-rule="evenodd" clip-rule="evenodd" d="M2.69288 24.8369C2.9033 24.6546 3.21095 24.6907 3.38003 24.9176L5.80007 28.1649L11.5751 34.2131C11.7688 34.4159 11.7733 34.7495 11.5852 34.9583C11.3971 35.167 11.0877 35.1719 10.8941 34.9691L5.07579 28.8757L2.61803 25.5778C2.44895 25.3509 2.48246 25.0192 2.69288 24.8369Z" fill="black"/>
<path d="M83.5169 12.0098L83.1161 12.4262L82.7251 12.052L83.1405 10.8452L83.5169 12.0098Z" fill="#333132"/>
<path d="M79.5583 10.7241C79.6246 10.3686 79.8117 10.0526 80.083 9.83808C80.3543 9.62359 80.6901 9.52612 81.0245 9.56478C81.0447 9.25318 81.0839 8.94335 81.1418 8.6373C81.3892 7.30475 81.959 6.06646 82.7936 5.04804C83.6281 4.02963 84.6976 3.26733 85.8936 2.83849C87.0896 2.40965 88.3695 2.32952 89.6035 2.60624C90.8375 2.88295 91.9817 3.50667 92.9199 4.4141C93.8582 5.32153 94.5571 6.48039 94.9458 7.77311C95.3346 9.06583 95.3992 10.4464 95.1333 11.7748C94.8674 13.1032 94.2803 14.3321 93.4317 15.3369C92.583 16.3416 91.503 17.0865 90.3012 17.4959L92.7987 23.6457L87.6228 24.8104C87.6228 24.8104 87.8818 20.3626 88.0284 17.8489C87.5982 17.8436 87.1694 17.7942 86.7479 17.7014C85.4811 17.4281 84.307 16.7891 83.3507 15.8526C82.3943 14.9162 81.6917 13.7174 81.3178 12.3841C81.0915 12.468 80.8488 12.4861 80.614 12.4368C80.2634 12.3606 79.9552 12.1373 79.7572 11.8162C79.5593 11.495 79.4877 11.1022 79.5583 10.7241Z" fill="#648CFF"/>
<path d="M79.5583 10.7241C79.6246 10.3686 79.8117 10.0526 80.083 9.83808C80.3543 9.62359 80.6901 9.52612 81.0245 9.56478C81.0447 9.25318 81.0839 8.94335 81.1418 8.6373C81.3892 7.30475 81.959 6.06646 82.7936 5.04804C83.6281 4.02963 84.6976 3.26733 85.8936 2.83849C87.0896 2.40965 88.3695 2.32952 89.6035 2.60624C90.8375 2.88295 91.9817 3.50667 92.9199 4.4141C93.8582 5.32153 94.5571 6.48039 94.9458 7.77311C95.3346 9.06583 95.3992 10.4464 95.1333 11.7748C94.8674 13.1032 94.2803 14.3321 93.4317 15.3369C92.583 16.3416 91.503 17.0865 90.3012 17.4959L92.7987 23.6457L87.6228 24.8104C87.6228 24.8104 87.8818 20.3626 88.0284 17.8489C87.5982 17.8436 87.1694 17.7942 86.7479 17.7014C85.4811 17.4281 84.307 16.7891 83.3507 15.8526C82.3943 14.9162 81.6917 13.7174 81.3178 12.3841C81.0915 12.468 80.8488 12.4861 80.614 12.4368C80.2634 12.3606 79.9552 12.1373 79.7572 11.8162C79.5593 11.495 79.4877 11.1022 79.5583 10.7241Z" fill="#648CFF"/>
<path d="M81.0342 9.56448H81.1466C81.3325 9.60471 81.5084 9.68706 81.6626 9.80607C81.8168 9.92508 81.9458 10.078 82.041 10.2548C83.5611 9.67515 86.2444 7.90449 86.9726 2.53454C87.0264 3.32501 87.696 8.18379 95.2815 9.91229C95.2232 8.02537 94.5243 6.22721 93.3176 4.85918C92.1108 3.49115 90.4802 2.64849 88.7353 2.49117C86.9903 2.33384 85.2526 2.8728 83.8518 4.00574C82.4511 5.13868 81.485 6.78672 81.1368 8.63699C81.0789 8.94305 81.0397 9.25288 81.0195 9.56448" fill="#333132"/>
<path d="M97.7842 3.34626L97.447 2.29229L93.1557 3.87324C92.4358 2.27548 91.2003 1.0156 89.6806 0.329721C88.1609 -0.356157 86.4614 -0.420955 84.9006 0.147473C84.058 0.454153 83.2797 0.936833 82.6102 1.56793C81.9407 2.19903 81.3931 2.96617 80.9986 3.82554C80.6042 4.68491 80.3707 5.61965 80.3114 6.57635C80.2522 7.53306 80.3683 8.49299 80.6532 9.40128L80.707 9.56464V9.61207L97.7842 3.34626Z" fill="#00CD73"/>
<path d="M131.552 24.589L121.992 37.5685L116.093 29.0736C114.569 27.0125 112.667 25.3136 110.505 24.0838C108.344 22.854 105.969 22.1199 103.531 21.9277H101.899V21.8487L69.3233 21.7485C66.8869 21.9846 64.5222 22.762 62.378 24.0317C60.2339 25.3015 58.3568 27.036 56.8648 29.1263L51.0535 37.7161L41.5227 25.1897L19.2256 48.2136C19.2256 48.2136 41.6009 69.6565 52.3487 72.4548C54.2954 72.962 56.3385 72.828 58.2138 72.0701L61.1757 83.6215L116.405 84.7334L118.258 72.3599C119.312 72.4406 120.372 72.3355 121.396 72.049C132.104 69.0557 154.142 47.2387 154.142 47.2387L131.552 24.589Z" fill="#FDCD01"/>
<mask id="mask0" mask-type="alpha" maskUnits="userSpaceOnUse" x="19" y="21" width="136" height="64">
<path d="M131.552 24.589L121.992 37.5685L116.093 29.0736C114.569 27.0125 112.667 25.3136 110.505 24.0838C108.344 22.854 105.969 22.1199 103.531 21.9277H101.899V21.8487L69.3233 21.7485C66.8869 21.9846 64.5222 22.762 62.378 24.0317C60.2339 25.3015 58.3568 27.036 56.8648 29.1263L51.0535 37.7161L41.5227 25.1897L19.2256 48.2136C19.2256 48.2136 41.6009 69.6565 52.3487 72.4548C54.2954 72.962 56.3385 72.828 58.2138 72.0701L61.1757 83.6215L116.405 84.7334L118.258 72.3599C119.312 72.4406 120.372 72.3355 121.396 72.049C132.104 69.0557 154.142 47.2387 154.142 47.2387L131.552 24.589Z" fill="#FDCD01"/>
</mask>
<g mask="url(#mask0)">
<path d="M111.322 69.8093C101.371 79.6059 86.772 80.8337 74.0741 78.1514C64.6166 76.1594 54.123 72.1912 48.5951 63.0639C45.1249 57.3303 44.2989 49.7998 47.7936 43.8449C51.6108 37.3366 59.035 35.4606 65.7163 36.8571C70.593 37.9668 75.1999 40.1659 79.2403 43.3126C84.1816 47.0753 88.7222 54.5004 85.4621 61.0139C82.6665 66.5894 76.1024 68.3443 70.6625 67.6539C65.5746 67.011 60.5844 64.6607 56.2051 61.8571C42.0849 52.8984 20.1201 26.3227 40.9949 11.8412C57.4416 0.432087 77.9451 3.16713 93.6684 14.6764C100.047 19.3402 105.951 25.4901 109.465 32.968C112.07 38.5223 113.346 45.6893 109.289 50.8432C107.227 53.4781 103.717 55.7441 100.545 56.1762C96.7134 56.7032 92.5736 55.1855 89.1718 53.4307C81.0927 49.2622 74.0887 41.9793 69.4798 33.7426C65.6332 26.8919 62.5198 16.9161 67.9304 9.95465C73.7955 2.39773 85.0858 1.80224 93.3458 3.70991C103.121 5.96539 112.104 11.6832 119.621 18.6446C127.002 25.4954 133.566 33.9745 137.319 43.7342C138.888 47.8183 139.968 52.2344 139.924 56.6821C139.871 61.9151 137.329 66.3206 133.414 69.3666C125.433 75.5639 114.206 74.3519 105.394 71.1794C96.0535 67.812 87.4709 61.1984 82.1142 52.2081C77.7153 44.8303 74.426 33.5582 80.4622 26.075C86.7231 18.3126 97.6567 19.5036 105.926 21.8276C115.528 24.6236 124.61 29.1839 132.774 35.3078C139.783 40.5038 147.51 47.5232 150.169 56.5978C152.544 64.7239 148.703 71.6695 141.997 75.4111C135.291 79.1527 127.461 79.6954 120.144 79.0683C112.001 78.3884 104.052 76.0419 96.7231 72.1543C90.8825 68.9924 84.6704 64.4446 81.992 57.7572C79.1523 50.6851 82.3097 43.7605 87.0848 38.7173C93.2432 32.2091 103.419 33.1208 110.829 36.3354C118.688 39.7449 125.775 46.153 129.973 54.121C133.854 61.4988 134.793 70.6103 129.514 77.5085C126.42 81.5557 121.909 84.1801 117.52 86.2564C112.093 88.7842 106.31 90.3058 100.413 90.7568C80.076 92.4326 56.0438 83.0471 44.1083 64.492C38.9324 56.387 36.21 44.7934 41.8503 36.0508C44.7828 31.4871 49.7437 29.4372 54.6264 28.4254C59.4358 27.4346 64.8072 26.7706 69.6997 27.0131C80.6528 27.54 89.8561 35.9717 94.3869 46.3744C96.701 51.6035 97.7901 57.3649 97.5589 63.1535C97.4626 66.0989 96.9262 69.0084 95.9705 71.7696C94.9147 74.6153 92.295 76.5125 89.9099 78.0407C72.1973 89.3972 51.1953 73.0133 39.8903 58.7585C33.7613 51.0329 28.385 41.8002 26.2882 31.777C24.1914 21.7538 21.6743 10.9875 26.2882 1.34377C34.1914 -15.1666 55.9265 -17.343 71.1073 -17.675C75.5501 -17.7751 79.729 -17.7119 84.0154 -16.2732C89.2965 -14.5215 94.0816 -11.3597 97.9267 -7.08137C101.772 -2.80298 104.552 2.45335 106.01 8.1998C107.525 14.0809 107.803 20.9949 105.091 26.544C102.446 31.9509 97.2705 34.1062 91.8013 33.1524C81.2784 31.3185 72.295 22.5074 66.2149 13.6541C60.8385 5.81784 54.8659 -6.40814 60.5257 -15.8569C65.5208 -24.1991 76.4055 -24.647 84.4749 -22.7973C97.7593 -19.7566 108.913 -10.5081 118.087 -0.0527363C125.232 8.12075 131.484 18.0649 133.532 29.2527C134.9 36.7411 134.152 45.3046 129.133 51.1172C117.803 64.218 98.8297 53.6573 90.1884 42.5696C86.0975 37.2997 81.6694 29.669 82.7544 22.4705C84.0252 14.0388 93.4191 13.9123 99.5628 14.9136C115.878 17.5485 130.662 28.7363 141.229 42.0426C148.219 50.8432 159.177 69.1136 147.652 78.9313C141.161 84.4646 131.493 84.6649 123.644 84.3592C115.794 84.0536 107.666 81.6664 100.184 79.1737C95.9766 77.8739 91.8844 76.1757 87.9548 74.0989C85.9998 73.0028 82.2119 71.0793 81.8991 68.3337C81.6059 65.6988 85.3204 64.8556 87.0555 64.4867C90.8434 63.6857 94.7095 64.4288 98.4191 65.3457C103.187 66.4817 107.816 68.2131 112.212 70.5049C117.93 73.5139 129.015 80.6704 122.789 88.7701C120.301 92.011 116.464 94.0083 112.891 95.4838C107.98 97.4415 102.863 98.7389 97.6567 99.3466C86.4152 100.775 74.3087 100.011 63.8297 95.1307C53.4387 90.2931 46.2637 80.8548 46.0438 68.3495C45.9509 63.2483 46.7769 58.1893 49.5091 53.9102C53.0086 48.4823 58.7124 45.136 64.4553 43.2125C69.9099 41.3997 75.208 40.9201 80.7652 42.4484C84.2207 43.3917 87.7251 45.0833 90.0223 48.1503C93.7075 53.0512 92.5834 59.7808 88.6049 64.0441C83.2676 69.7724 75.0516 69.9937 68.2823 67.5485C62.9451 65.6198 58.5071 62.1206 54.0203 58.5477C49.9099 55.3219 46.0416 51.752 42.4514 47.871C37.5345 42.48 32.95 36.0561 31.21 28.5835C28.5169 16.9108 35.1543 7.14057 44.1523 1.42808C54.3331 -5.01164 66.9382 -7.4621 78.5902 -6.32382C89.1572 -5.26986 100.809 -0.664036 105.589 10.3657C106.601 12.7002 108.16 16.7896 107.706 19.4034C107.251 22.0173 102.989 22.8868 100.975 22.9342C94.1963 23.087 87.4612 18.5813 82.339 14.2179C76.8942 9.58049 71.4983 3.51493 69.1034 -3.64675C67.0262 -9.86514 69.0643 -16.8635 75.7359 -18.2969C81.1122 -19.4404 87.4661 -16.3101 92.1044 -13.7437C98.8199 -10.0232 104.978 -5.13811 110.716 0.126436C116.714 5.62164 122.273 11.6504 127.334 18.1492C131.581 23.6088 135.643 29.5057 138.409 36.0192C139.9 39.5394 142.011 45.2624 139.289 48.73C135.966 52.9458 127.701 51.1805 123.756 49.4309C117.794 46.796 111.792 41.3522 109.094 34.9072C107.821 31.7918 106.896 28.5245 106.337 25.1739C105.711 21.4429 105.491 16.4523 108.659 13.9123C111.484 11.6515 115.604 12.2049 118.795 13.0112C123.683 14.2443 128.336 16.6368 132.671 19.3349C142.446 25.4216 151.796 33.7742 157.989 44.0346C163.028 52.3925 165.438 63.28 157.055 70.1887C149.304 76.5757 138.37 76.6284 129.196 74.7682C124.665 73.8512 119.421 72.4231 115.785 69.1716C114.807 68.3021 113.59 66.953 114.318 65.5091C115.399 63.3168 118.556 63.3695 120.408 63.5487C127.764 64.2496 139.47 66.3259 142.178 75.2688C144.274 82.1196 139.245 88.7859 134.475 92.6276C131.154 95.2581 127.442 97.2594 123.497 98.5456C118.61 100.174 113.8 100.232 108.795 100.848C97.8082 102.198 85.858 99.1727 77.2461 91.463C71.5619 86.3723 66.3859 76.7075 74.1132 70.8053C78.5853 67.3746 85.2618 67.148 90.5452 68.0439C94.5433 68.7237 98.6146 70.4733 101.298 73.8828C107.163 81.3713 101.787 90.2772 95.0663 94.2823C89.5531 97.5654 82.9157 99.12 76.728 100.079C70.2538 101.083 63.6763 101.03 57.2168 99.921C36.9333 96.3217 17.1826 80.839 12.3537 58.495C11.298 53.6046 10.9216 48.1872 11.8649 43.2125C13.1797 36.3248 16.7965 29.6901 20.6626 24.141C24.7291 18.3442 29.6313 13.2641 34.8024 8.62139C39.426 4.47931 44.514 1.24364 50.3302 -0.537558C57.6323 -2.77723 65.7505 -2.15012 71.8356 3.08808C75.99 6.65575 79.2109 12.3998 78.8932 18.2862C78.5511 24.5362 73.7417 27.5559 68.3067 27.3556C56.0194 26.8971 46.7232 13.7805 43.6538 2.02884C41.6157 -5.78103 42.0262 -14.9189 47.0751 -21.3428C51.1953 -26.5599 57.4416 -29.0736 63.5658 -30.154C78.5951 -32.7836 95.1542 -28.4571 108.483 -21.0793C114.372 -17.812 120.276 -13.6014 124.24 -7.76775C125.886 -5.19315 127.286 -2.44592 128.419 0.432087C129.954 4.07353 131.44 8.54234 131.151 12.6159C130.702 18.8765 124.27 14.3233 121.972 11.9414C118.444 8.27885 114.582 3.04592 114.861 -2.57171C115.35 -12.4842 127.437 -13.7227 134.196 -11.6147C139.983 -9.8019 144.186 -5.61767 148.243 -1.0013C152.979 4.37918 157.178 10.45 159.973 17.2639C163.81 26.5915 164.915 38.0797 159.397 46.9382C157.854 49.4578 155.811 51.5766 153.416 53.1415C151.021 54.7065 148.334 55.6786 145.548 55.9877C142.763 56.2967 139.948 55.9351 137.308 54.9288C134.668 53.9224 132.268 52.2966 130.281 50.1686C129.436 49.3149 127.74 47.7393 127.837 46.3006C128.038 43.6657 133.444 44.6722 134.856 44.9252C139.554 45.831 144.062 47.6411 148.165 50.2688C152.432 52.9616 156.552 56.6663 158.605 61.6358C160.961 67.343 159.582 73.4349 156.552 78.4992C154.074 82.636 150.643 86.7096 146.674 89.1653C140.584 92.9449 134.024 95.7647 127.192 97.5391C120.75 99.2043 113.996 99.9421 107.407 99.12C102.031 98.456 95.9362 96.854 92.0164 92.5907C85.99 86.0456 89.6948 76.5072 95.2129 71.1794C100.638 65.9412 111.459 62.5949 116.005 71.0687C119.172 76.9762 120.403 84.5384 117.256 90.7252C114.24 96.6326 108.365 100.269 102.696 102.593C89.0105 108.2 72.5687 108.685 58.4338 104.79C52.7545 103.209 46.5863 100.748 42.6127 95.8685C39.1034 91.5684 35.7115 87.5475 33.3263 82.3304C30.781 76.6683 29.2868 70.5245 28.9275 64.2443C28.1846 51.855 31.7476 39.0546 39.5678 29.7534C43.4094 25.1739 48.1015 21.5272 54.0545 21.5799C58.6586 21.622 63.5169 23.9671 65.6479 28.5782C66.7656 31.1328 66.9945 34.0355 66.293 36.757C65.731 39.1178 64.4602 40.3246 62.5932 41.5683C60.1364 43.2537 57.2348 44.0238 54.3331 43.7605C48.2628 43.1282 43.2823 38.1587 40.0125 32.9416C32.0702 20.2571 31.0536 1.6863 41.5717 -9.71232C48.7173 -17.4537 59.25 -20.3574 69.0594 -21.2269C78.077 -22.0226 87.2559 -20.6103 95.5208 -16.5578C102.005 -13.3893 107.764 -8.72458 112.393 -2.89317C115.628 1.20675 118.649 6.20254 119.607 11.5778C120.144 14.5657 119.773 18.4865 116.132 18.1176C113.492 17.8541 110.814 16.0097 108.742 14.376C105.012 11.4671 99.9441 5.3541 102.774 0.03685C105.672 -5.41741 112.3 -4.36872 116.948 -2.77197C122.174 -0.891081 127.029 2.02374 131.264 5.82312C138.913 12.5579 146.415 23.3874 143.971 34.6543C143.825 35.3183 144.773 35.6029 144.915 34.9389C147.574 22.755 139.284 11.1614 130.868 4.1315C126.141 0.184402 120.682 -2.98802 114.841 -4.511C112.134 -5.21716 109.69 -5.63348 107.021 -4.60059C105.008 -3.82593 103.057 -2.54009 101.968 -0.495403C97.6371 7.59377 108.092 16.7158 114.372 18.7816C117.608 19.8356 120.501 18.5813 120.824 14.6975C121.249 9.53834 118.38 4.06826 115.746 0.01577C111.432 -6.54715 105.768 -11.9439 99.1963 -15.7515C90.8244 -20.575 81.4074 -22.8932 71.9235 -22.4653C61.6107 -22.0806 50.3204 -19.4457 42.3537 -11.9678C30.1347 -0.490131 30.5257 19.7091 39.1474 33.4791C42.5345 38.8912 47.6127 43.9397 53.8639 44.7671C56.846 45.1367 59.8597 44.4702 62.4661 42.8647C63.7173 42.1058 65.5501 40.9728 66.3761 39.6659C67.6029 37.7003 67.8424 34.3065 67.5785 32.0247C66.4152 21.3691 54.3527 18.3547 46.5374 22.344C41.381 24.9789 37.251 30.3699 34.3185 35.5185C31.1344 41.196 29.0742 47.5224 28.2677 54.0999C25.7359 74.3044 35.3156 97.4916 53.903 104.453C61.5472 107.325 69.8317 108.3 77.8962 108.226C86.166 108.147 94.6166 106.935 102.412 103.858C108.434 101.481 114.67 97.7498 117.965 91.5736C121.42 85.097 120.218 77.5928 117.187 71.2163C113.277 63.0059 103.36 63.8386 97.1875 68.2336C91.2784 72.4494 85.8532 80.9497 88.6049 88.8544C92.4807 99.9895 108.009 101.107 117.153 100.358C124.466 99.7028 131.638 97.8088 138.404 94.7461C141.795 93.2416 145.079 91.4697 148.228 89.4446C150.369 88.0692 152.178 85.9823 153.844 84.0009C158.155 78.8839 161.806 72.1965 160.609 65.0295C159.631 59.2749 155.809 54.6796 151.532 51.3649C147.1 47.9653 142.084 45.5522 136.777 44.2664C134.392 43.692 129.216 42.3482 127.334 44.9041C125.11 47.9184 130.804 52.1396 132.495 53.4886C138.927 58.6214 148.502 58.2315 154.944 53.3569C162.241 47.8236 165.012 37.9479 163.991 28.6836C162.432 14.6184 153.336 1.24891 143.404 -7.5148C136.831 -13.3274 125.931 -16.3365 118.365 -10.7874C109.695 -4.46358 115.584 6.66101 121.298 12.7055C123.18 14.7028 128.116 18.8448 130.892 16.1994C133.126 14.0598 132.095 9.34863 131.493 6.71371C129.851 -0.500668 126.283 -7.8468 121.229 -12.9533C115.511 -18.7501 108.321 -22.7762 101.049 -25.7853C92.9163 -29.1916 84.342 -31.2131 75.6332 -31.7771C62.0995 -32.5675 44.8415 -28.6152 42.0018 -11.7517C40.0467 -0.0685463 45.0272 12.7635 52.9548 20.6893C58.5218 26.2595 68.8932 31.8982 76.1367 26.2806C80.3888 22.9869 80.6283 16.7475 78.9763 11.836C76.772 5.30667 71.5472 0.300343 65.4377 -1.74435C56.3517 -4.77976 45.7554 -1.30168 38.1797 4.40553C32.3488 8.79002 26.904 14.4709 22.3195 20.3046C17.7349 26.1383 14.0106 32.6412 11.7721 39.8714C8.55605 50.2899 11.21 62.2102 16.1318 71.4903C21.6108 81.8455 30.3058 90.0612 40.2227 95.2045C51.7378 101.191 64.7681 102.978 77.3683 101.001C86.7769 99.51 101.098 96.1742 104.333 84.6965C106.65 76.465 100.55 69.7935 93.644 67.6697C86.0633 65.3457 71.8258 65.7041 69.382 76.0645C67.2803 85.0232 76.2637 92.8858 82.5785 96.5641C93.2676 102.777 105.594 103.025 117.359 101.117C125.804 99.7471 134.714 95.6735 140.086 88.2378C143.791 83.105 145.12 76.1752 140.922 70.8843C138.277 67.5485 134.328 65.6461 130.501 64.4341C127.774 63.6049 124.986 63.0284 122.168 62.7108C119.587 62.3946 117.28 61.9994 114.993 63.4907C112.706 64.9821 112.706 67.4642 114.582 69.4562C117.769 72.792 122.837 74.3413 127.055 75.3584C136.831 77.7614 148.771 77.9933 157.241 71.3797C161.073 68.3811 163.659 64.0335 163.781 58.8428C164.069 46.7222 154.098 35.6556 146.22 28.399C141.337 23.8483 135.988 19.9143 130.276 16.6737C125.77 14.1494 120.834 11.8887 115.731 11.3617C112.31 11.0139 108.453 11.641 106.445 14.9715C103.835 19.3086 105.198 25.4848 106.489 30.0274C107.907 35.3667 110.62 40.2018 114.348 44.0346C118.429 48.2504 123.444 51.1278 129.05 51.9393C133.101 52.5084 139.094 52.6507 140.99 47.7656C142.823 43.0491 140.144 37.0995 138.116 33.0101C134.465 25.5955 129.47 18.9186 124.23 12.7477C118.258 5.67595 111.668 -0.760025 104.553 -6.47138C98.4973 -11.3407 91.8649 -15.8833 84.6117 -18.2336C79.0203 -20.0464 72.3928 -20.2941 68.7222 -14.4499C65.0956 -8.70578 68.4973 -1.1594 71.7232 3.80477C76.4192 10.9523 82.6598 16.7585 89.905 20.7209C94.9538 23.4559 102.207 25.9907 107.202 21.7749C108.668 20.5259 108.776 19.8988 108.556 17.9332C108.381 16.3264 108.075 14.7393 107.642 13.1903C106.826 10.3099 105.531 7.61356 103.82 5.23289C100.242 0.263451 95.0614 -3.01965 89.5873 -4.99583C77.2657 -9.43829 62.8864 -8.22096 50.8776 -3.19882C40.6821 1.05392 29.9392 9.56995 29.6069 22.4599C29.4162 29.7007 32.5932 36.5145 36.5472 42.1585C39.4338 46.196 42.6961 49.9042 46.2833 53.2251C50.8092 57.5042 55.7212 61.7464 60.9118 65.0506C68.0672 69.5932 77.2754 72.2386 85.1102 68.0439C90.208 65.3088 94.1425 59.4119 93.1503 53.067C91.8991 45.0675 83.903 41.6421 77.295 40.6935C66.4495 39.1442 52.2852 44.9515 47.251 56.0076C44.0546 63.027 44.3967 72.4336 47.1631 79.5848C49.3674 85.2814 53.3458 89.8609 58.1601 93.1229C68.8297 100.358 82.598 101.813 94.9001 100.717C100.777 100.259 106.575 98.9835 112.148 96.9225C116.19 95.3679 120.521 93.2336 123.39 89.6765C130.301 81.0551 119.529 73.2346 113.082 69.7882C108.379 67.2981 103.412 65.433 98.2921 64.2338C94.9294 63.417 91.4494 62.7741 87.9793 63.2642C85.9558 63.554 82.251 64.3181 81.2442 66.5683C78.6146 72.4073 90.8434 76.7865 93.9861 78.0565C102.715 81.5768 112.143 84.2802 121.435 85.2762C129.651 86.151 139.954 85.7715 147.085 80.6914C160.198 71.3428 150.428 52.5506 143.106 42.8436C131.943 28.0196 115.159 15.2824 97.1093 13.5434C90.7554 12.9426 82.8277 14.4551 81.7525 22.5021C80.7505 30.0221 85.2031 37.8267 89.4797 43.3126C94.9196 50.2846 102.471 56.1183 110.956 57.5675C117.989 58.7637 125.447 57.3725 130.281 51.3017C135.208 45.1149 135.887 36.425 134.426 28.7152C132.09 16.3786 124.797 5.55962 116.655 -3.14612C106.904 -13.5646 95.0614 -22.6445 81.0975 -24.4784C73.0184 -25.5323 63.0135 -23.6773 58.9568 -15.0823C54.0692 -4.75869 60.5453 7.54634 66.3664 15.625C72.6078 24.2833 81.948 33.0154 92.5443 34.3118C98.2139 35.0074 103.444 32.3672 106.049 26.7865C108.854 20.7841 108.492 13.4169 106.733 7.14057C105.035 1.01025 101.873 -4.5314 97.5634 -8.92923C93.2539 -13.327 87.9481 -16.4266 82.1777 -17.9174C77.6616 -19.1189 72.9744 -18.8396 68.3605 -18.6394C52.0995 -17.9543 28.8151 -14.2286 23.6538 5.74406C22.2755 11.0666 22.4563 16.7106 23.3752 22.0805C24.2941 27.4505 25.3009 33.1893 27.1435 38.3484C30.99 49.12 37.7202 58.7953 45.5306 66.6052C53.1112 74.1832 62.5394 80.8337 72.9597 82.4147C77.4732 83.1754 82.0917 82.6932 86.3859 81.0129C88.612 80.0978 90.7105 78.8565 92.6225 77.324C94.7779 75.6113 96.2588 74.1621 97.1142 71.4007C100.589 60.1918 97.642 47.481 90.9558 38.3643C87.6017 33.7334 83.1771 30.135 78.1259 27.93C72.7495 25.6429 67.427 25.938 61.772 26.4281C51.5717 27.3082 40.7554 30.1908 38.3116 42.4958C36.2931 52.5084 40.5355 62.2523 46.6499 69.5932C61.9236 87.9269 88.9323 96.3692 110.926 89.8715C119.837 87.2366 130.853 81.8455 133.6 71.3849C135.843 62.8373 131.938 53.9629 126.855 47.5601C121.054 40.2456 112.73 34.5858 103.82 33.1524C99.575 32.4007 95.2209 32.8808 91.2051 34.5436C87.3927 36.1878 84.4162 39.629 82.2999 43.3758C73.5022 58.9587 90.6088 71.2268 102.305 75.8854C110.526 79.1527 119.524 80.8337 128.287 80.2014C135.619 79.6744 143.571 77.3925 148.644 71.2427C154.098 64.6554 151.811 55.3594 147.574 48.8565C141.669 39.7924 132.559 33.1313 123.546 28.1197C114.89 23.3084 105.012 19.1926 95.1493 18.9766C86.2979 18.7816 77.3097 23.9513 76.3126 34.1537C75.2813 44.6933 81.5228 55.2329 88.5706 61.8624C96.3908 69.2401 106.225 73.9513 116.64 74.6997C125.648 75.3426 137.314 71.875 140.403 61.3828C141.586 57.3567 140.838 52.3714 139.841 48.4085C138.507 43.4193 136.466 38.6821 133.791 34.3645C127.752 24.4426 119.706 16.1258 110.257 10.039C101.635 4.45823 91.337 0.553291 81.166 2.04992C73.1015 3.24617 64.7388 8.10495 64.0594 17.7382C63.4094 27.2555 69.1718 36.5989 74.9392 43.2178C80.9118 50.0685 89.2549 56.7138 98.2823 57.2566C104.577 57.636 111.342 52.5137 112.608 45.7315C113.932 38.633 110.335 31.3923 106.43 25.9749C100.873 18.2757 93.2334 12.2259 84.9929 8.27885C76.0975 4.02084 66.1709 2.1922 56.5228 4.03137C47.3879 5.79676 35.4475 11.2352 32.2364 21.5535C29.1181 31.5662 34.9979 42.2218 40.9069 49.5205C47.9548 58.2209 57.4563 65.5513 67.9939 68.2231C73.2579 69.5563 79.3282 68.9345 83.5951 65.0612C85.3812 63.4673 86.646 61.2978 87.2038 58.8714C87.7616 56.445 87.5828 53.8897 86.6938 51.581C84.4064 45.3362 79.0594 41.3575 73.6293 38.6014C69.5873 36.5514 65.1396 35.1655 60.6381 35.3288C54.0741 35.5712 47.9744 39.492 45.5795 46.2532C43.0673 53.3305 45.3644 61.1088 49.8903 66.5894C56.7867 74.9473 67.8717 78.4518 77.818 79.8641C89.773 81.5557 102.828 79.59 112.031 70.5418C112.52 70.0833 111.806 69.335 111.337 69.7935L111.322 69.8093Z" fill="#648CFF"/>
</g>
</g>
<defs>
<clipPath id="clip0">
<rect width="171.065" height="206.05" fill="white" transform="translate(0.467285)"/>
</clipPath>
</defs>
</svg>
