<svg width="72" height="72" viewBox="0 0 72 72" fill="none" xmlns="http://www.w3.org/2000/svg">
<rect width="72" height="72" fill="#BDEBDF"/>
<path fill-rule="evenodd" clip-rule="evenodd" d="M63.106 72H8.41965C8.41066 71.7747 8.40138 71.5471 8.39201 71.3173L8.39102 71.2906L8.39097 71.2894C8.06961 63.4198 7.64483 53.0178 15.2371 49.7592C19.0055 48.1418 29.8181 44.143 34.7534 42.3457H36.7723C41.7075 44.143 52.5201 48.1418 56.2885 49.7592C63.8808 53.0178 63.456 63.4198 63.1347 71.2894L63.1346 71.2906L63.1336 71.3173C63.1243 71.5471 63.115 71.7747 63.106 72Z" fill="#58D289"/>
<path d="M35.3374 6.76391C29.762 7.05033 20.25 9.45302 20.25 23.9499C20.25 38.7982 27.7083 46.4099 34.4209 47.1586C35.4528 47.2737 36.4277 47.287 37.5791 47.1586C44.2917 46.4099 51.75 38.7982 51.75 23.9499C51.75 9.45302 42.238 7.05033 36.6626 6.76391C36.3016 6.74537 35.6987 6.74536 35.3374 6.76391Z" fill="#EFFAF3"/>
</svg>
