<svg width="320" height="160" viewBox="0 0 320 160" fill="none" xmlns="http://www.w3.org/2000/svg">
<circle cx="159.656" cy="80" r="80" fill="#E3F7EA"/>
<line x1="26.1689" y1="38.2822" x2="26.1689" y2="131.534" stroke="#E5E5E5"/>
<g filter="url(#filter0_ddd)">
<rect x="8" y="57.9141" width="303.313" height="54.9693" rx="4" fill="white"/>
</g>
<path d="M232.362 87.4148H233.81L235.386 90.5085H237.39L235.609 87.1511C236.581 86.7703 237.144 85.8328 237.144 84.7488C237.144 83.0789 236.001 82.0535 234.144 82.0535H230.593V90.5085H232.362V87.4148ZM232.362 83.4363H233.898C234.777 83.4363 235.327 83.9519 235.327 84.7722C235.327 85.6101 234.806 86.0964 233.915 86.0964H232.362V83.4363ZM241.749 91.3406H242.423V90.4031C244.087 90.2917 245.277 89.4011 245.277 87.9304C245.277 86.6472 244.439 86.0027 242.839 85.6394L242.423 85.5515V83.4832C243.079 83.5769 243.519 83.9402 243.601 84.573H245.165C245.107 83.1902 244.052 82.2761 242.423 82.1589V81.2039H241.749V82.1531C240.138 82.2527 238.984 83.1609 238.984 84.5613C238.984 85.8269 239.827 86.5125 241.357 86.8582L241.749 86.9519V89.0906C240.952 89.0027 240.53 88.5867 240.437 87.989H238.866C238.907 89.4539 240.103 90.3152 241.749 90.4089V91.3406ZM240.624 84.4089C240.624 83.9402 241.011 83.5593 241.749 83.4714V85.3933C240.958 85.1824 240.624 84.8777 240.624 84.4089ZM243.642 88.1121C243.642 88.6453 243.237 89.0085 242.423 89.0906V87.1042C243.331 87.3328 243.642 87.5964 243.642 88.1121ZM246.952 84.6199H248.593C248.593 83.7937 249.132 83.2136 249.993 83.2136C250.82 83.2136 251.3 83.7644 251.3 84.4558C251.3 85.0417 251.071 85.4285 250.017 86.4539L247.052 89.3191V90.5085H253.152V89.0847H249.437V88.9792L251.195 87.3035C252.601 85.9675 253.034 85.2878 253.034 84.2976C253.034 82.8738 251.886 81.8367 250.093 81.8367C248.241 81.8367 246.952 82.9734 246.952 84.6199ZM255.911 90.655C256.544 90.655 256.948 90.2332 256.948 89.6589C256.948 89.0847 256.544 88.6687 255.911 88.6687C255.284 88.6687 254.874 89.0847 254.874 89.6589C254.874 90.2332 255.284 90.655 255.911 90.655ZM261.542 90.7253C263.634 90.7253 264.9 89.073 264.9 86.2722C264.9 83.4656 263.616 81.8367 261.542 81.8367C259.462 81.8367 258.185 83.4656 258.185 86.2664C258.185 89.073 259.45 90.7253 261.542 90.7253ZM261.542 89.325C260.575 89.325 259.978 88.2937 259.978 86.2664C259.978 84.2566 260.581 83.2371 261.542 83.2371C262.509 83.2371 263.107 84.2507 263.107 86.2664C263.107 88.2937 262.515 89.325 261.542 89.325ZM269.757 90.7253C271.849 90.7253 273.114 89.073 273.114 86.2722C273.114 83.4656 271.831 81.8367 269.757 81.8367C267.677 81.8367 266.4 83.4656 266.4 86.2664C266.4 89.073 267.665 90.7253 269.757 90.7253ZM269.757 89.325C268.79 89.325 268.193 88.2937 268.193 86.2664C268.193 84.2566 268.796 83.2371 269.757 83.2371C270.724 83.2371 271.321 84.2507 271.321 86.2664C271.321 88.2937 270.73 89.325 269.757 89.325ZM277.972 90.7253C280.064 90.7253 281.329 89.073 281.329 86.2722C281.329 83.4656 280.046 81.8367 277.972 81.8367C275.892 81.8367 274.614 83.4656 274.614 86.2664C274.614 89.073 275.88 90.7253 277.972 90.7253ZM277.972 89.325C277.005 89.325 276.407 88.2937 276.407 86.2664C276.407 84.2566 277.011 83.2371 277.972 83.2371C278.939 83.2371 279.536 84.2507 279.536 86.2664C279.536 88.2937 278.945 89.325 277.972 89.325ZM283.427 92.782L284.493 89.155H282.823L282.284 92.782H283.427ZM289.175 90.7253C291.267 90.7253 292.532 89.073 292.532 86.2722C292.532 83.4656 291.249 81.8367 289.175 81.8367C287.095 81.8367 285.818 83.4656 285.818 86.2664C285.818 89.073 287.083 90.7253 289.175 90.7253ZM289.175 89.325C288.208 89.325 287.611 88.2937 287.611 86.2664C287.611 84.2566 288.214 83.2371 289.175 83.2371C290.142 83.2371 290.739 84.2507 290.739 86.2664C290.739 88.2937 290.148 89.325 289.175 89.325ZM297.39 90.7253C299.482 90.7253 300.747 89.073 300.747 86.2722C300.747 83.4656 299.464 81.8367 297.39 81.8367C295.31 81.8367 294.032 83.4656 294.032 86.2664C294.032 89.073 295.298 90.7253 297.39 90.7253ZM297.39 89.325C296.423 89.325 295.825 88.2937 295.825 86.2664C295.825 84.2566 296.429 83.2371 297.39 83.2371C298.357 83.2371 298.954 84.2507 298.954 86.2664C298.954 88.2937 298.362 89.325 297.39 89.325Z" fill="#39464D"/>
<path d="M45.752 97.3796C47.5508 97.3796 48.6172 96.4949 48.6172 95.0066C48.6172 93.8875 47.8848 93.0964 46.7305 92.95V92.8562C47.5449 92.7097 48.1895 91.9128 48.1895 91.0339C48.1895 89.739 47.2402 88.9246 45.6875 88.9246H42.4531V97.3796H45.752ZM43.5078 89.8562H45.4648C46.5137 89.8562 47.123 90.3542 47.123 91.2156C47.123 92.1121 46.4727 92.5691 45.1953 92.5691H43.5078V89.8562ZM43.5078 96.448V93.4773H45.4941C46.8418 93.4773 47.5332 93.9753 47.5332 94.9539C47.5332 95.9324 46.8652 96.448 45.5938 96.448H43.5078ZM51.9688 97.491C52.8125 97.491 53.5039 97.1218 53.9141 96.448H54.0078V97.3796H54.9688V93.0554C54.9688 91.7429 54.1074 90.9519 52.5664 90.9519C51.2188 90.9519 50.2227 91.6199 50.0879 92.6335H51.1074C51.248 92.1355 51.7754 91.8484 52.5312 91.8484C53.4746 91.8484 53.9609 92.2761 53.9609 93.0554V93.6296L52.1387 93.741C50.668 93.8289 49.8359 94.4792 49.8359 95.6101C49.8359 96.7644 50.7441 97.491 51.9688 97.491ZM52.1562 96.6062C51.4238 96.6062 50.8789 96.2312 50.8789 95.5867C50.8789 94.9539 51.3008 94.6199 52.2617 94.5554L53.9609 94.4441V95.0242C53.9609 95.9265 53.1934 96.6062 52.1562 96.6062ZM56.832 97.3796H57.8398V93.6414C57.8398 92.5339 58.4902 91.8601 59.498 91.8601C60.5059 91.8601 60.9863 92.3992 60.9863 93.5359V97.3796H61.9941V93.2898C61.9941 91.7898 61.2031 90.9519 59.7852 90.9519C58.8184 90.9519 58.2031 91.3621 57.8867 92.0593H57.793V91.0632H56.832V97.3796ZM66.1777 97.491C67.0508 97.491 67.8008 97.075 68.1992 96.3718H68.293V97.3796H69.2539V88.5554H68.2461V92.0593H68.1582C67.8008 91.3679 67.0566 90.9519 66.1777 90.9519C64.5723 90.9519 63.5234 92.241 63.5234 94.2214C63.5234 96.2078 64.5605 97.491 66.1777 97.491ZM66.4121 91.8601C67.5547 91.8601 68.2695 92.7742 68.2695 94.2214C68.2695 95.6804 67.5605 96.5828 66.4121 96.5828C65.2578 96.5828 64.5664 95.698 64.5664 94.2214C64.5664 92.7507 65.2637 91.8601 66.4121 91.8601ZM75.3945 95.7449C75.1309 96.3015 74.5801 96.6003 73.7656 96.6003C72.6934 96.6003 71.9961 95.8093 71.9434 94.5613V94.5144H76.4844V94.1277C76.4844 92.1648 75.4473 90.9519 73.7422 90.9519C72.0078 90.9519 70.8945 92.241 70.8945 94.2273C70.8945 96.2253 71.9902 97.491 73.7422 97.491C75.125 97.491 76.1094 96.823 76.4023 95.7449H75.3945ZM73.7305 91.8425C74.7324 91.8425 75.4004 92.5808 75.4238 93.7H71.9434C72.0195 92.5808 72.7227 91.8425 73.7305 91.8425ZM78.5938 89.8445C78.9805 89.8445 79.2969 89.5281 79.2969 89.1414C79.2969 88.7546 78.9805 88.4382 78.5938 88.4382C78.207 88.4382 77.8906 88.7546 77.8906 89.1414C77.8906 89.5281 78.207 89.8445 78.5938 89.8445ZM78.0898 97.3796H79.0977V91.0632H78.0898V97.3796ZM81.0195 97.3796H82.0273V93.4656C82.0273 92.575 82.7246 91.9304 83.6855 91.9304C83.8848 91.9304 84.248 91.9656 84.3301 91.989V90.9812C84.2012 90.9636 83.9902 90.9519 83.8262 90.9519C82.9883 90.9519 82.2617 91.3855 82.0742 92.0007H81.9805V91.0632H81.0195V97.3796ZM87.3477 97.491C88.1914 97.491 88.8828 97.1218 89.293 96.448H89.3867V97.3796H90.3477V93.0554C90.3477 91.7429 89.4863 90.9519 87.9453 90.9519C86.5977 90.9519 85.6016 91.6199 85.4668 92.6335H86.4863C86.627 92.1355 87.1543 91.8484 87.9102 91.8484C88.8535 91.8484 89.3398 92.2761 89.3398 93.0554V93.6296L87.5176 93.741C86.0469 93.8289 85.2148 94.4792 85.2148 95.6101C85.2148 96.7644 86.123 97.491 87.3477 97.491ZM87.5352 96.6062C86.8027 96.6062 86.2578 96.2312 86.2578 95.5867C86.2578 94.9539 86.6797 94.6199 87.6406 94.5554L89.3398 94.4441V95.0242C89.3398 95.9265 88.5723 96.6062 87.5352 96.6062ZM99.2129 97.3796L102.33 88.9246H101.223L98.7383 96.0144H98.6445L96.1602 88.9246H95.0527L98.1699 97.3796H99.2129ZM104.211 89.8445C104.598 89.8445 104.914 89.5281 104.914 89.1414C104.914 88.7546 104.598 88.4382 104.211 88.4382C103.824 88.4382 103.508 88.7546 103.508 89.1414C103.508 89.5281 103.824 89.8445 104.211 89.8445ZM103.707 97.3796H104.715V91.0632H103.707V97.3796ZM106.49 92.7917C106.49 93.7058 107.029 94.2156 108.213 94.5027L109.297 94.7664C109.971 94.9304 110.299 95.2234 110.299 95.657C110.299 96.2371 109.689 96.6414 108.84 96.6414C108.031 96.6414 107.527 96.3015 107.357 95.7683H106.32C106.432 96.8171 107.398 97.491 108.805 97.491C110.24 97.491 111.336 96.7117 111.336 95.5808C111.336 94.6726 110.762 94.157 109.572 93.8699L108.6 93.6355C107.855 93.4539 107.504 93.1843 107.504 92.7507C107.504 92.1882 108.09 91.8074 108.84 91.8074C109.602 91.8074 110.094 92.1414 110.229 92.6453H111.225C111.09 91.6082 110.17 90.9519 108.846 90.9519C107.504 90.9519 106.49 91.7429 106.49 92.7917ZM114.676 97.491C115.52 97.491 116.211 97.1218 116.621 96.448H116.715V97.3796H117.676V93.0554C117.676 91.7429 116.814 90.9519 115.273 90.9519C113.926 90.9519 112.93 91.6199 112.795 92.6335H113.814C113.955 92.1355 114.482 91.8484 115.238 91.8484C116.182 91.8484 116.668 92.2761 116.668 93.0554V93.6296L114.846 93.741C113.375 93.8289 112.543 94.4792 112.543 95.6101C112.543 96.7644 113.451 97.491 114.676 97.491ZM114.863 96.6062C114.131 96.6062 113.586 96.2312 113.586 95.5867C113.586 94.9539 114.008 94.6199 114.969 94.5554L116.668 94.4441V95.0242C116.668 95.9265 115.9 96.6062 114.863 96.6062ZM124.109 97.3796V88.9246H123.055V97.3796H124.109ZM126.137 97.3796H127.145V93.6414C127.145 92.5339 127.795 91.8601 128.803 91.8601C129.811 91.8601 130.291 92.3992 130.291 93.5359V97.3796H131.299V93.2898C131.299 91.7898 130.508 90.9519 129.09 90.9519C128.123 90.9519 127.508 91.3621 127.191 92.0593H127.098V91.0632H126.137V97.3796ZM133.566 89.4285V91.0632H132.547V91.907H133.566V95.739C133.566 96.946 134.088 97.4265 135.389 97.4265C135.588 97.4265 135.781 97.4031 135.98 97.3679V96.5183C135.793 96.5359 135.693 96.5417 135.512 96.5417C134.855 96.5417 134.574 96.2253 134.574 95.4812V91.907H135.98V91.0632H134.574V89.4285H133.566ZM141.594 95.7449C141.33 96.3015 140.779 96.6003 139.965 96.6003C138.893 96.6003 138.195 95.8093 138.143 94.5613V94.5144H142.684V94.1277C142.684 92.1648 141.646 90.9519 139.941 90.9519C138.207 90.9519 137.094 92.241 137.094 94.2273C137.094 96.2253 138.189 97.491 139.941 97.491C141.324 97.491 142.309 96.823 142.602 95.7449H141.594ZM139.93 91.8425C140.932 91.8425 141.6 92.5808 141.623 93.7H138.143C138.219 92.5808 138.922 91.8425 139.93 91.8425ZM144.266 97.3796H145.273V93.4656C145.273 92.575 145.971 91.9304 146.932 91.9304C147.131 91.9304 147.494 91.9656 147.576 91.989V90.9812C147.447 90.9636 147.236 90.9519 147.072 90.9519C146.234 90.9519 145.508 91.3855 145.32 92.0007H145.227V91.0632H144.266V97.3796ZM148.953 97.3796H149.961V93.6414C149.961 92.5339 150.611 91.8601 151.619 91.8601C152.627 91.8601 153.107 92.3992 153.107 93.5359V97.3796H154.115V93.2898C154.115 91.7898 153.324 90.9519 151.906 90.9519C150.939 90.9519 150.324 91.3621 150.008 92.0593H149.914V91.0632H148.953V97.3796ZM157.719 97.491C158.562 97.491 159.254 97.1218 159.664 96.448H159.758V97.3796H160.719V93.0554C160.719 91.7429 159.857 90.9519 158.316 90.9519C156.969 90.9519 155.973 91.6199 155.838 92.6335H156.857C156.998 92.1355 157.525 91.8484 158.281 91.8484C159.225 91.8484 159.711 92.2761 159.711 93.0554V93.6296L157.889 93.741C156.418 93.8289 155.586 94.4792 155.586 95.6101C155.586 96.7644 156.494 97.491 157.719 97.491ZM157.906 96.6062C157.174 96.6062 156.629 96.2312 156.629 95.5867C156.629 94.9539 157.051 94.6199 158.012 94.5554L159.711 94.4441V95.0242C159.711 95.9265 158.943 96.6062 157.906 96.6062ZM167.809 92.9968C167.633 91.8718 166.695 90.9519 165.16 90.9519C163.391 90.9519 162.266 92.2292 162.266 94.198C162.266 96.2078 163.396 97.491 165.166 97.491C166.684 97.491 167.627 96.6355 167.809 95.4753H166.789C166.602 96.1902 166.01 96.5828 165.16 96.5828C164.035 96.5828 163.309 95.657 163.309 94.198C163.309 92.7683 164.023 91.8601 165.16 91.8601C166.068 91.8601 166.625 92.3699 166.789 92.9968H167.809ZM169.824 89.8445C170.211 89.8445 170.527 89.5281 170.527 89.1414C170.527 88.7546 170.211 88.4382 169.824 88.4382C169.438 88.4382 169.121 88.7546 169.121 89.1414C169.121 89.5281 169.438 89.8445 169.824 89.8445ZM169.32 97.3796H170.328V91.0632H169.32V97.3796ZM174.846 97.491C176.645 97.491 177.758 96.2488 177.758 94.2214C177.758 92.1882 176.645 90.9519 174.846 90.9519C173.047 90.9519 171.934 92.1882 171.934 94.2214C171.934 96.2488 173.047 97.491 174.846 97.491ZM174.846 96.5828C173.65 96.5828 172.977 95.7156 172.977 94.2214C172.977 92.7214 173.65 91.8601 174.846 91.8601C176.041 91.8601 176.715 92.7214 176.715 94.2214C176.715 95.7156 176.041 96.5828 174.846 96.5828ZM179.34 97.3796H180.348V93.6414C180.348 92.5339 180.998 91.8601 182.006 91.8601C183.014 91.8601 183.494 92.3992 183.494 93.5359V97.3796H184.502V93.2898C184.502 91.7898 183.711 90.9519 182.293 90.9519C181.326 90.9519 180.711 91.3621 180.395 92.0593H180.301V91.0632H179.34V97.3796ZM188.105 97.491C188.949 97.491 189.641 97.1218 190.051 96.448H190.145V97.3796H191.105V93.0554C191.105 91.7429 190.244 90.9519 188.703 90.9519C187.355 90.9519 186.359 91.6199 186.225 92.6335H187.244C187.385 92.1355 187.912 91.8484 188.668 91.8484C189.611 91.8484 190.098 92.2761 190.098 93.0554V93.6296L188.275 93.741C186.805 93.8289 185.973 94.4792 185.973 95.6101C185.973 96.7644 186.881 97.491 188.105 97.491ZM188.293 96.6062C187.561 96.6062 187.016 96.2312 187.016 95.5867C187.016 94.9539 187.438 94.6199 188.398 94.5554L190.098 94.4441V95.0242C190.098 95.9265 189.33 96.6062 188.293 96.6062ZM193.027 97.3796H194.035V88.5554H193.027V97.3796ZM204.605 92.9968C204.43 91.8718 203.492 90.9519 201.957 90.9519C200.188 90.9519 199.062 92.2292 199.062 94.198C199.062 96.2078 200.193 97.491 201.963 97.491C203.48 97.491 204.424 96.6355 204.605 95.4753H203.586C203.398 96.1902 202.807 96.5828 201.957 96.5828C200.832 96.5828 200.105 95.657 200.105 94.198C200.105 92.7683 200.82 91.8601 201.957 91.8601C202.865 91.8601 203.422 92.3699 203.586 92.9968H204.605ZM207.852 97.491C208.695 97.491 209.387 97.1218 209.797 96.448H209.891V97.3796H210.852V93.0554C210.852 91.7429 209.99 90.9519 208.449 90.9519C207.102 90.9519 206.105 91.6199 205.971 92.6335H206.99C207.131 92.1355 207.658 91.8484 208.414 91.8484C209.357 91.8484 209.844 92.2761 209.844 93.0554V93.6296L208.021 93.741C206.551 93.8289 205.719 94.4792 205.719 95.6101C205.719 96.7644 206.627 97.491 207.852 97.491ZM208.039 96.6062C207.307 96.6062 206.762 96.2312 206.762 95.5867C206.762 94.9539 207.184 94.6199 208.145 94.5554L209.844 94.4441V95.0242C209.844 95.9265 209.076 96.6062 208.039 96.6062ZM212.715 97.3796H213.723V93.4656C213.723 92.575 214.42 91.9304 215.381 91.9304C215.58 91.9304 215.943 91.9656 216.025 91.989V90.9812C215.896 90.9636 215.686 90.9519 215.521 90.9519C214.684 90.9519 213.957 91.3855 213.77 92.0007H213.676V91.0632H212.715V97.3796ZM217.355 97.4382C217.777 97.4382 218.117 97.0925 218.117 96.6765C218.117 96.2546 217.777 95.9148 217.355 95.9148C216.939 95.9148 216.594 96.2546 216.594 96.6765C216.594 97.0925 216.939 97.4382 217.355 97.4382ZM220.918 97.4382C221.34 97.4382 221.68 97.0925 221.68 96.6765C221.68 96.2546 221.34 95.9148 220.918 95.9148C220.502 95.9148 220.156 96.2546 220.156 96.6765C220.156 97.0925 220.502 97.4382 220.918 97.4382ZM224.48 97.4382C224.902 97.4382 225.242 97.0925 225.242 96.6765C225.242 96.2546 224.902 95.9148 224.48 95.9148C224.064 95.9148 223.719 96.2546 223.719 96.6765C223.719 97.0925 224.064 97.4382 224.48 97.4382Z" fill="#39464D"/>
<path d="M45.7051 79.7109V72.2051H48.4297V71.2559H41.9258V72.2051H44.6504V79.7109H45.7051ZM49.0508 79.7109H50.0586V75.7969C50.0586 74.9062 50.7559 74.2617 51.7168 74.2617C51.916 74.2617 52.2793 74.2969 52.3613 74.3203V73.3125C52.2324 73.2949 52.0215 73.2832 51.8574 73.2832C51.0195 73.2832 50.293 73.7168 50.1055 74.332H50.0117V73.3945H49.0508V79.7109ZM55.3789 79.8223C56.2227 79.8223 56.9141 79.4531 57.3242 78.7793H57.418V79.7109H58.3789V75.3867C58.3789 74.0742 57.5176 73.2832 55.9766 73.2832C54.6289 73.2832 53.6328 73.9512 53.498 74.9648H54.5176C54.6582 74.4668 55.1855 74.1797 55.9414 74.1797C56.8848 74.1797 57.3711 74.6074 57.3711 75.3867V75.9609L55.5488 76.0723C54.0781 76.1602 53.2461 76.8105 53.2461 77.9414C53.2461 79.0957 54.1543 79.8223 55.3789 79.8223ZM55.5664 78.9375C54.834 78.9375 54.2891 78.5625 54.2891 77.918C54.2891 77.2852 54.7109 76.9512 55.6719 76.8867L57.3711 76.7754V77.3555C57.3711 78.2578 56.6035 78.9375 55.5664 78.9375ZM60.2422 79.7109H61.25V75.9727C61.25 74.8652 61.9004 74.1914 62.9082 74.1914C63.916 74.1914 64.3965 74.7305 64.3965 75.8672V79.7109H65.4043V75.6211C65.4043 74.1211 64.6133 73.2832 63.1953 73.2832C62.2285 73.2832 61.6133 73.6934 61.2969 74.3906H61.2031V73.3945H60.2422V79.7109ZM67.1035 75.123C67.1035 76.0371 67.6426 76.5469 68.8262 76.834L69.9102 77.0977C70.584 77.2617 70.9121 77.5547 70.9121 77.9883C70.9121 78.5684 70.3027 78.9727 69.4531 78.9727C68.6445 78.9727 68.1406 78.6328 67.9707 78.0996H66.9336C67.0449 79.1484 68.0117 79.8223 69.418 79.8223C70.8535 79.8223 71.9492 79.043 71.9492 77.9121C71.9492 77.0039 71.375 76.4883 70.1855 76.2012L69.2129 75.9668C68.4688 75.7852 68.1172 75.5156 68.1172 75.082C68.1172 74.5195 68.7031 74.1387 69.4531 74.1387C70.2148 74.1387 70.707 74.4727 70.8418 74.9766H71.8379C71.7031 73.9395 70.7832 73.2832 69.459 73.2832C68.1172 73.2832 67.1035 74.0742 67.1035 75.123ZM73.9531 79.7109H74.9609V74.2383H76.4082V73.3945H74.9609V72.7207C74.9609 72.0293 75.2656 71.6777 75.9922 71.6777C76.1738 71.6777 76.3438 71.6836 76.4668 71.707V70.8867C76.2559 70.8457 76.0332 70.8281 75.7871 70.8281C74.5859 70.8281 73.9531 71.4316 73.9531 72.6914V73.3945H72.9043V74.2383H73.9531V79.7109ZM81.793 78.0762C81.5293 78.6328 80.9785 78.9316 80.1641 78.9316C79.0918 78.9316 78.3945 78.1406 78.3418 76.8926V76.8457H82.8828V76.459C82.8828 74.4961 81.8457 73.2832 80.1406 73.2832C78.4062 73.2832 77.293 74.5723 77.293 76.5586C77.293 78.5566 78.3887 79.8223 80.1406 79.8223C81.5234 79.8223 82.5078 79.1543 82.8008 78.0762H81.793ZM80.1289 74.1738C81.1309 74.1738 81.7988 74.9121 81.8223 76.0312H78.3418C78.418 74.9121 79.1211 74.1738 80.1289 74.1738ZM84.4648 79.7109H85.4727V75.7969C85.4727 74.9062 86.1699 74.2617 87.1309 74.2617C87.3301 74.2617 87.6934 74.2969 87.7754 74.3203V73.3125C87.6465 73.2949 87.4355 73.2832 87.2715 73.2832C86.4336 73.2832 85.707 73.7168 85.5195 74.332H85.4258V73.3945H84.4648V79.7109ZM91.9824 70.5234H90.7988L89.3809 72.5156H90.4824L91.3438 71.1855H91.4375L92.2988 72.5156H93.4004L91.9824 70.5234ZM93.043 78.0762C92.7793 78.6328 92.2285 78.9316 91.4141 78.9316C90.3418 78.9316 89.6445 78.1406 89.5918 76.8926V76.8457H94.1328V76.459C94.1328 74.4961 93.0957 73.2832 91.3906 73.2832C89.6562 73.2832 88.543 74.5723 88.543 76.5586C88.543 78.5566 89.6387 79.8223 91.3906 79.8223C92.7734 79.8223 93.7578 79.1543 94.0508 78.0762H93.043ZM91.3789 74.1738C92.3809 74.1738 93.0488 74.9121 93.0723 76.0312H89.5918C89.668 74.9121 90.3711 74.1738 91.3789 74.1738ZM95.7148 79.7109H96.7227V75.9727C96.7227 74.8652 97.373 74.1914 98.3809 74.1914C99.3887 74.1914 99.8691 74.7305 99.8691 75.8672V79.7109H100.877V75.6211C100.877 74.1211 100.086 73.2832 98.668 73.2832C97.7012 73.2832 97.0859 73.6934 96.7695 74.3906H96.6758V73.3945H95.7148V79.7109ZM107.949 75.3281C107.773 74.2031 106.836 73.2832 105.301 73.2832C103.531 73.2832 102.406 74.5605 102.406 76.5293C102.406 78.5391 103.537 79.8223 105.307 79.8223C106.824 79.8223 107.768 78.9668 107.949 77.8066H106.93C106.742 78.5215 106.15 78.9141 105.301 78.9141C104.176 78.9141 103.449 77.9883 103.449 76.5293C103.449 75.0996 104.164 74.1914 105.301 74.1914C106.209 74.1914 106.766 74.7012 106.93 75.3281H107.949ZM109.965 72.1758C110.352 72.1758 110.668 71.8594 110.668 71.4727C110.668 71.0859 110.352 70.7695 109.965 70.7695C109.578 70.7695 109.262 71.0859 109.262 71.4727C109.262 71.8594 109.578 72.1758 109.965 72.1758ZM109.461 79.7109H110.469V73.3945H109.461V79.7109ZM114.148 79.8223C114.992 79.8223 115.684 79.4531 116.094 78.7793H116.188V79.7109H117.148V75.3867C117.148 74.0742 116.287 73.2832 114.746 73.2832C113.398 73.2832 112.402 73.9512 112.268 74.9648H113.287C113.428 74.4668 113.955 74.1797 114.711 74.1797C115.654 74.1797 116.141 74.6074 116.141 75.3867V75.9609L114.318 76.0723C112.848 76.1602 112.016 76.8105 112.016 77.9414C112.016 79.0957 112.924 79.8223 114.148 79.8223ZM114.336 78.9375C113.604 78.9375 113.059 78.5625 113.059 77.918C113.059 77.2852 113.48 76.9512 114.441 76.8867L116.141 76.7754V77.3555C116.141 78.2578 115.373 78.9375 114.336 78.9375ZM124.736 79.8223C125.609 79.8223 126.359 79.4062 126.758 78.7031H126.852V79.7109H127.812V70.8867H126.805V74.3906H126.717C126.359 73.6992 125.615 73.2832 124.736 73.2832C123.131 73.2832 122.082 74.5723 122.082 76.5527C122.082 78.5391 123.119 79.8223 124.736 79.8223ZM124.971 74.1914C126.113 74.1914 126.828 75.1055 126.828 76.5527C126.828 78.0117 126.119 78.9141 124.971 78.9141C123.816 78.9141 123.125 78.0293 123.125 76.5527C123.125 75.082 123.822 74.1914 124.971 74.1914ZM133.953 78.0762C133.689 78.6328 133.139 78.9316 132.324 78.9316C131.252 78.9316 130.555 78.1406 130.502 76.8926V76.8457H135.043V76.459C135.043 74.4961 134.006 73.2832 132.301 73.2832C130.566 73.2832 129.453 74.5723 129.453 76.5586C129.453 78.5566 130.549 79.8223 132.301 79.8223C133.684 79.8223 134.668 79.1543 134.961 78.0762H133.953ZM132.289 74.1738C133.291 74.1738 133.959 74.9121 133.982 76.0312H130.502C130.578 74.9121 131.281 74.1738 132.289 74.1738ZM140.012 79.7109H141.02V75.7969C141.02 74.9062 141.717 74.2617 142.678 74.2617C142.877 74.2617 143.24 74.2969 143.322 74.3203V73.3125C143.193 73.2949 142.982 73.2832 142.818 73.2832C141.98 73.2832 141.254 73.7168 141.066 74.332H140.973V73.3945H140.012V79.7109ZM148.59 78.0762C148.326 78.6328 147.775 78.9316 146.961 78.9316C145.889 78.9316 145.191 78.1406 145.139 76.8926V76.8457H149.68V76.459C149.68 74.4961 148.643 73.2832 146.938 73.2832C145.203 73.2832 144.09 74.5723 144.09 76.5586C144.09 78.5566 145.186 79.8223 146.938 79.8223C148.32 79.8223 149.305 79.1543 149.598 78.0762H148.59ZM146.926 74.1738C147.928 74.1738 148.596 74.9121 148.619 76.0312H145.139C145.215 74.9121 145.918 74.1738 146.926 74.1738ZM156.488 75.3281C156.312 74.2031 155.375 73.2832 153.84 73.2832C152.07 73.2832 150.945 74.5605 150.945 76.5293C150.945 78.5391 152.076 79.8223 153.846 79.8223C155.363 79.8223 156.307 78.9668 156.488 77.8066H155.469C155.281 78.5215 154.689 78.9141 153.84 78.9141C152.715 78.9141 151.988 77.9883 151.988 76.5293C151.988 75.0996 152.703 74.1914 153.84 74.1914C154.748 74.1914 155.305 74.7012 155.469 75.3281H156.488ZM162.16 78.0762C161.896 78.6328 161.346 78.9316 160.531 78.9316C159.459 78.9316 158.762 78.1406 158.709 76.8926V76.8457H163.25V76.459C163.25 74.4961 162.213 73.2832 160.508 73.2832C158.773 73.2832 157.66 74.5723 157.66 76.5586C157.66 78.5566 158.756 79.8223 160.508 79.8223C161.891 79.8223 162.875 79.1543 163.168 78.0762H162.16ZM160.496 74.1738C161.498 74.1738 162.166 74.9121 162.189 76.0312H158.709C158.785 74.9121 159.488 74.1738 160.496 74.1738ZM167.973 79.8223C169.572 79.8223 170.621 78.5273 170.621 76.5527C170.621 74.5664 169.578 73.2832 167.973 73.2832C167.105 73.2832 166.338 73.7109 165.992 74.3906H165.898V70.8867H164.891V79.7109H165.852V78.7031H165.945C166.344 79.4062 167.094 79.8223 167.973 79.8223ZM167.738 74.1914C168.893 74.1914 169.578 75.0762 169.578 76.5527C169.578 78.0293 168.893 78.9141 167.738 78.9141C166.59 78.9141 165.875 78.0117 165.875 76.5527C165.875 75.0938 166.59 74.1914 167.738 74.1914ZM173.188 72.5156L174.541 70.5234H173.334L172.297 72.5156H173.188ZM172.227 79.7109H173.234V73.3945H172.227V79.7109ZM180.312 73.3945H179.234L177.506 78.5977H177.412L175.684 73.3945H174.605L176.943 79.7109H177.975L180.312 73.3945ZM185.609 78.0762C185.346 78.6328 184.795 78.9316 183.98 78.9316C182.908 78.9316 182.211 78.1406 182.158 76.8926V76.8457H186.699V76.459C186.699 74.4961 185.662 73.2832 183.957 73.2832C182.223 73.2832 181.109 74.5723 181.109 76.5586C181.109 78.5566 182.205 79.8223 183.957 79.8223C185.34 79.8223 186.324 79.1543 186.617 78.0762H185.609ZM183.945 74.1738C184.947 74.1738 185.615 74.9121 185.639 76.0312H182.158C182.234 74.9121 182.938 74.1738 183.945 74.1738ZM188.34 79.7109H189.348V70.8867H188.34V79.7109Z" fill="#6C7980"/>
<rect width="15.7055" height="15.7055" transform="translate(33.5215 93.2507) rotate(-180)" fill="white"/>
<path fill-rule="evenodd" clip-rule="evenodd" d="M28.2866 83.4347L29.5954 83.4347C30.1161 83.4347 30.6154 83.6416 30.9836 84.0097C31.3518 84.3779 31.5586 84.8773 31.5586 85.3979L31.5586 89.9787C31.5586 90.4994 31.3518 90.9987 30.9836 91.3669C30.6154 91.7351 30.1161 91.9419 29.5954 91.9419L21.7426 91.9419C21.222 91.9419 20.7226 91.7351 20.3545 91.3669C19.9863 90.9987 19.7795 90.4994 19.7795 89.9787L19.7795 85.3979C19.7795 84.8773 19.9863 84.3779 20.3545 84.0097C20.7226 83.6416 21.222 83.4347 21.7426 83.4347L23.0514 83.4347C23.225 83.4347 23.3914 83.5037 23.5142 83.6264C23.6369 83.7491 23.7058 83.9156 23.7058 84.0891C23.7058 84.2627 23.6369 84.4291 23.5142 84.5519C23.3914 84.6746 23.225 84.7435 23.0514 84.7435L21.7426 84.7435C21.5691 84.7435 21.4026 84.8125 21.2799 84.9352C21.1572 85.0579 21.0882 85.2244 21.0882 85.3979L21.0882 89.9787C21.0882 90.1523 21.1572 90.3187 21.2799 90.4414C21.4026 90.5642 21.5691 90.6331 21.7426 90.6331L29.5954 90.6331C29.769 90.6331 29.9354 90.5642 30.0581 90.4414C30.1809 90.3187 30.2498 90.1523 30.2498 89.9787L30.2498 85.3979C30.2498 85.2244 30.1809 85.0579 30.0581 84.9352C29.9354 84.8125 29.769 84.7435 29.5954 84.7435L28.2866 84.7435C28.1131 84.7435 27.9466 84.6746 27.8239 84.5519C27.7012 84.4291 27.6322 84.2627 27.6322 84.0891C27.6322 83.9156 27.7012 83.7491 27.8239 83.6264C27.9466 83.5037 28.1131 83.4347 28.2866 83.4347ZM24.1693 81.9399L25.0135 81.0892L25.0135 88.6737C25.0135 88.8472 25.0824 89.0137 25.2051 89.1364C25.3279 89.2591 25.4943 89.3281 25.6679 89.3281C25.8414 89.3281 26.0079 89.2591 26.1306 89.1364C26.2533 89.0137 26.3223 88.8472 26.3223 88.6737L26.3223 81.0892L27.1664 81.9399C27.2273 82.0013 27.2996 82.0499 27.3794 82.0832C27.4591 82.1164 27.5447 82.1335 27.6311 82.1335C27.7174 82.1335 27.803 82.1164 27.8827 82.0832C27.9625 82.0499 28.0348 82.0013 28.0957 81.9399C28.157 81.8791 28.2057 81.8067 28.2389 81.727C28.2721 81.6472 28.2892 81.5617 28.2892 81.4753C28.2892 81.3889 28.2721 81.3034 28.2389 81.2236C28.2057 81.1439 28.157 81.0715 28.0957 81.0107L26.1325 79.0475C26.0717 78.9862 25.9993 78.9375 25.9195 78.9042C25.8398 78.871 25.7543 78.8539 25.6679 78.8539C25.5815 78.8539 25.4959 78.871 25.4162 78.9042C25.3365 78.9375 25.2641 78.9862 25.2032 79.0475L23.2401 81.0107C23.1168 81.1339 23.0476 81.301 23.0476 81.4753C23.0476 81.6496 23.1168 81.8167 23.2401 81.9399C23.3633 82.0631 23.5304 82.1324 23.7047 82.1324C23.8789 82.1324 24.0461 82.0631 24.1693 81.9399Z" fill="#FF2048"/>
<path d="M10.9648 32.5938H12.0195V24.1387H10.9707L8.7207 25.7559V26.8691L10.8711 25.3105H10.9648V32.5938ZM14.4922 26.5234H15.5117C15.5117 25.5215 16.1855 24.8594 17.1992 24.8594C18.1953 24.8594 18.7988 25.5273 18.7988 26.4238C18.7988 27.168 18.4824 27.6074 17.4043 28.7734L14.5449 31.8672V32.5938H20.0176V31.6445H16.0098V31.5508L17.9316 29.5645C19.4551 27.9883 19.877 27.2852 19.877 26.3125C19.877 24.9414 18.7461 23.9395 17.2695 23.9395C15.6523 23.9395 14.4922 25.0176 14.4922 26.5234ZM22.4609 32.6523C22.8828 32.6523 23.2227 32.3066 23.2227 31.8906C23.2227 31.4688 22.8828 31.1289 22.4609 31.1289C22.0449 31.1289 21.6992 31.4688 21.6992 31.8906C21.6992 32.3066 22.0449 32.6523 22.4609 32.6523ZM27.5586 32.793C29.457 32.793 30.5469 31.1875 30.5469 28.3809C30.5469 25.5801 29.4395 23.9395 27.5586 23.9395C25.666 23.9395 24.5586 25.5742 24.5586 28.3633C24.5586 31.1758 25.6543 32.793 27.5586 32.793ZM27.5586 31.873C26.3105 31.873 25.6191 30.625 25.6191 28.3633C25.6191 26.1309 26.3223 24.8652 27.5586 24.8652C28.7949 24.8652 29.4863 26.1191 29.4863 28.3633C29.4863 30.6309 28.8066 31.873 27.5586 31.873ZM34.0508 28.6973H35.0996C36.2891 28.6973 37.0215 29.3066 37.0215 30.2852C37.0215 31.2344 36.2305 31.873 35.1172 31.873C34.0273 31.873 33.2656 31.3047 33.1719 30.4141H32.1523C32.2285 31.8496 33.4121 32.793 35.1289 32.793C36.8105 32.793 38.1055 31.7324 38.1055 30.3145C38.1055 29.1367 37.3789 28.3926 36.2832 28.2168V28.123C37.1504 27.8711 37.7832 27.1973 37.7891 26.1777C37.7949 24.9941 36.834 23.9395 35.1641 23.9395C33.4531 23.9395 32.4043 24.9531 32.2988 26.3301H33.3242C33.4121 25.3809 34.0742 24.8594 35.0938 24.8594C36.1133 24.8594 36.7168 25.5039 36.7168 26.2949C36.7168 27.1738 36.0254 27.7949 35.0527 27.7949H34.0508V28.6973ZM40.2266 32.6523C40.6484 32.6523 40.9883 32.3066 40.9883 31.8906C40.9883 31.4688 40.6484 31.1289 40.2266 31.1289C39.8105 31.1289 39.4648 31.4688 39.4648 31.8906C39.4648 32.3066 39.8105 32.6523 40.2266 32.6523ZM42.6641 26.5234H43.6836C43.6836 25.5215 44.3574 24.8594 45.3711 24.8594C46.3672 24.8594 46.9707 25.5273 46.9707 26.4238C46.9707 27.168 46.6543 27.6074 45.5762 28.7734L42.7168 31.8672V32.5938H48.1895V31.6445H44.1816V31.5508L46.1035 29.5645C47.627 27.9883 48.0488 27.2852 48.0488 26.3125C48.0488 24.9414 46.918 23.9395 45.4414 23.9395C43.8242 23.9395 42.6641 25.0176 42.6641 26.5234ZM52.8125 32.793C54.7109 32.793 55.8008 31.1875 55.8008 28.3809C55.8008 25.5801 54.6934 23.9395 52.8125 23.9395C50.9199 23.9395 49.8125 25.5742 49.8125 28.3633C49.8125 31.1758 50.9082 32.793 52.8125 32.793ZM52.8125 31.873C51.5645 31.873 50.873 30.625 50.873 28.3633C50.873 26.1309 51.5762 24.8652 52.8125 24.8652C54.0488 24.8652 54.7402 26.1191 54.7402 28.3633C54.7402 30.6309 54.0605 31.873 52.8125 31.873Z" fill="#6C7980"/>
<defs>
<filter id="filter0_ddd" x="0" y="49.9141" width="319.313" height="73.9693" filterUnits="userSpaceOnUse" color-interpolation-filters="sRGB">
<feFlood flood-opacity="0" result="BackgroundImageFix"/>
<feColorMatrix in="SourceAlpha" type="matrix" values="0 0 0 0 0 0 0 0 0 0 0 0 0 0 0 0 0 0 127 0"/>
<feOffset/>
<feGaussianBlur stdDeviation="4"/>
<feColorMatrix type="matrix" values="0 0 0 0 0 0 0 0 0 0 0 0 0 0 0 0 0 0 0.04 0"/>
<feBlend mode="normal" in2="BackgroundImageFix" result="effect1_dropShadow"/>
<feColorMatrix in="SourceAlpha" type="matrix" values="0 0 0 0 0 0 0 0 0 0 0 0 0 0 0 0 0 0 127 0"/>
<feOffset dy="3"/>
<feGaussianBlur stdDeviation="4"/>
<feColorMatrix type="matrix" values="0 0 0 0 0 0 0 0 0 0 0 0 0 0 0 0 0 0 0.04 0"/>
<feBlend mode="normal" in2="effect1_dropShadow" result="effect2_dropShadow"/>
<feColorMatrix in="SourceAlpha" type="matrix" values="0 0 0 0 0 0 0 0 0 0 0 0 0 0 0 0 0 0 127 0"/>
<feOffset dy="1"/>
<feGaussianBlur stdDeviation="1.5"/>
<feColorMatrix type="matrix" values="0 0 0 0 0 0 0 0 0 0 0 0 0 0 0 0 0 0 0.04 0"/>
<feBlend mode="normal" in2="effect2_dropShadow" result="effect3_dropShadow"/>
<feBlend mode="normal" in="SourceGraphic" in2="effect3_dropShadow" result="shape"/>
</filter>
</defs>
</svg>
