<svg width="159" height="160" viewBox="0 0 159 160" fill="none" xmlns="http://www.w3.org/2000/svg">
<circle cx="79.4819" cy="79.4819" r="79.4819" fill="#E3F7EA"/>
<g clip-path="url(#clip0)">
<path d="M95.3409 47.6817C95.3409 47.637 95.3359 47.5972 95.3359 47.5525V47.8059C95.3409 47.7662 95.3409 47.7264 95.3409 47.6817Z" fill="#FCCD09"/>
<path d="M95.3406 47.6816C95.3406 41.6606 90.4189 36.802 83.7875 36.802C77.1611 36.802 40.2881 36.802 40.2881 36.802V83.4254H95.3356V47.8058C95.3406 47.7661 95.3406 47.7263 95.3406 47.6816Z" fill="#00CD73"/>
<path d="M66.8379 81.7761V84.891C66.8379 84.891 66.8379 115.438 66.8379 117.609C66.8379 119.78 67.5445 121.931 68.7107 123.655C70.6626 126.537 74.3538 128.424 77.6794 128.424C81.005 128.424 115.145 128.4 115.145 128.4V81.7761H66.8379V81.7761Z" fill="#00CD73"/>
<path fill-rule="evenodd" clip-rule="evenodd" d="M13.8662 60.1063C13.8662 59.9005 14.0321 59.7336 14.2368 59.7336H31.9766C32.1812 59.7336 32.3472 59.9005 32.3472 60.1063C32.3472 60.3121 32.1812 60.479 31.9766 60.479H14.2368C14.0321 60.479 13.8662 60.3121 13.8662 60.1063Z" fill="black"/>
<path fill-rule="evenodd" clip-rule="evenodd" d="M14.2368 47.1848C14.4415 47.1848 14.6074 47.3516 14.6074 47.5574C14.6074 51.3112 17.6338 54.3584 21.3722 54.3584H26.9709C27.1756 54.3584 27.3415 54.5252 27.3415 54.731C27.3415 54.9368 27.1756 55.1036 26.9709 55.1036H21.3722C17.2241 55.1036 13.8662 51.7224 13.8662 47.5574C13.8662 47.3516 14.0321 47.1848 14.2368 47.1848Z" fill="black"/>
<path fill-rule="evenodd" clip-rule="evenodd" d="M13.8662 72.7146C13.8662 68.5496 17.2241 65.1685 21.3722 65.1685H26.9709C27.1756 65.1685 27.3415 65.3353 27.3415 65.541C27.3415 65.7468 27.1756 65.9136 26.9709 65.9136H21.3722C17.6338 65.9136 14.6074 68.9609 14.6074 72.7146C14.6074 72.9204 14.4415 73.0872 14.2368 73.0872C14.0321 73.0872 13.8662 72.9204 13.8662 72.7146Z" fill="black"/>
<path fill-rule="evenodd" clip-rule="evenodd" d="M126.585 109.561C126.585 109.356 126.751 109.189 126.956 109.189H144.695C144.9 109.189 145.066 109.356 145.066 109.561C145.066 109.767 144.9 109.934 144.695 109.934H126.956C126.751 109.934 126.585 109.767 126.585 109.561Z" fill="black"/>
<path fill-rule="evenodd" clip-rule="evenodd" d="M131.591 114.931C131.591 114.726 131.757 114.559 131.961 114.559H137.56C141.708 114.559 145.066 117.94 145.066 122.105C145.066 122.311 144.9 122.478 144.696 122.478C144.491 122.478 144.325 122.311 144.325 122.105C144.325 118.351 141.298 115.304 137.56 115.304H131.961C131.757 115.304 131.591 115.137 131.591 114.931Z" fill="black"/>
<path fill-rule="evenodd" clip-rule="evenodd" d="M144.696 96.5803C144.9 96.5803 145.066 96.7471 145.066 96.9529C145.066 101.118 141.708 104.499 137.56 104.499H131.961C131.757 104.499 131.591 104.332 131.591 104.127C131.591 103.921 131.757 103.754 131.961 103.754H137.56C141.298 103.754 144.325 100.707 144.325 96.9529C144.325 96.7471 144.491 96.5803 144.696 96.5803Z" fill="black"/>
<path d="M115.581 43.9358C127.648 43.9358 137.432 34.1004 137.432 21.9679C137.432 9.83536 127.648 0 115.581 0C103.513 0 93.7295 9.83536 93.7295 21.9679C93.7295 34.1004 103.513 43.9358 115.581 43.9358Z" fill="#FDCD01"/>
<path fill-rule="evenodd" clip-rule="evenodd" d="M132.945 21.5952C133.149 21.5952 133.315 21.762 133.315 21.9678C133.315 31.8162 125.377 39.7975 115.581 39.7975C115.376 39.7975 115.21 39.6307 115.21 39.4249C115.21 39.2191 115.376 39.0523 115.581 39.0523C124.967 39.0523 132.574 31.4047 132.574 21.9678C132.574 21.762 132.74 21.5952 132.945 21.5952Z" fill="black"/>
<path fill-rule="evenodd" clip-rule="evenodd" d="M115.581 4.88336C106.194 4.88336 98.5869 12.531 98.5869 21.9678C98.5869 22.1736 98.421 22.3404 98.2163 22.3404C98.0116 22.3404 97.8457 22.1736 97.8457 21.9678C97.8457 12.1194 105.785 4.13818 115.581 4.13818C115.785 4.13818 115.951 4.305 115.951 4.51077C115.951 4.71655 115.785 4.88336 115.581 4.88336Z" fill="black"/>
<path d="M117.3 33.0165H113.812V31.5858C109.824 31.3026 105.362 29.8073 105.332 24.5314L105.327 23.8905H109.582C107.412 23.1304 105.5 21.6997 105.5 18.7885C105.5 15.1769 108.593 12.8569 113.807 12.5092V10.9194H117.295V12.5688C122.632 13.001 125.266 15.3955 125.118 19.6877L125.098 20.3037H122.163C124.179 21.0638 125.829 22.5045 125.829 25.3362C125.829 27.9443 124.332 31.1039 117.3 31.5907V33.0165V33.0165ZM115.082 31.7398H116.025V30.3736L116.633 30.3488C121.891 30.1103 124.554 28.4212 124.554 25.3362C124.554 21.5159 120.69 20.9346 116.737 20.6664L116.025 20.6167V17.472L116.801 17.6459C117.577 17.8198 118.037 18.2719 118.19 19.027H123.848C123.709 15.7184 121.397 14.0542 116.633 13.8058L116.03 13.776V12.2011H115.086V13.7362L114.474 13.7561C109.656 13.93 106.78 15.8128 106.78 18.7885C106.78 22.2809 110.362 23.0311 114.029 23.4981C114.207 23.5229 114.375 23.5428 114.538 23.5626L115.091 23.6372V26.4788L114.4 26.4142C113.337 26.3198 112.695 25.8975 112.472 25.1623H106.647C106.953 28.4361 109.527 30.1302 114.484 30.3338L115.091 30.3587V31.7398H115.082ZM113.658 24.745C113.678 24.8295 113.718 24.9089 113.812 24.9735V24.7649C113.762 24.7549 113.708 24.75 113.658 24.745ZM116.025 26.5136V23.8061L116.801 23.9799C117.483 24.134 118.422 24.3426 118.422 25.2169C118.422 25.9721 117.844 26.3943 116.707 26.4688L116.025 26.5136ZM115.082 20.5173L114.281 20.3037C112.976 19.956 112.744 19.335 112.784 18.868C112.794 18.565 112.957 17.7403 114.365 17.5615L115.082 17.472V20.5173V20.5173Z" fill="#00CD73"/>
<path d="M37.3432 160C49.4112 160 59.1942 150.165 59.1942 138.032C59.1942 125.9 49.4112 116.064 37.3432 116.064C25.2752 116.064 15.4922 125.9 15.4922 138.032C15.4922 150.165 25.2752 160 37.3432 160Z" fill="#FDCD01"/>
<path fill-rule="evenodd" clip-rule="evenodd" d="M54.7075 137.659C54.9121 137.659 55.0781 137.826 55.0781 138.032C55.0781 147.88 47.1393 155.862 37.3433 155.862C37.1386 155.862 36.9727 155.695 36.9727 155.489C36.9727 155.283 37.1386 155.116 37.3433 155.116C46.7299 155.116 54.3369 147.469 54.3369 138.032C54.3369 137.826 54.5028 137.659 54.7075 137.659Z" fill="black"/>
<path fill-rule="evenodd" clip-rule="evenodd" d="M37.3432 120.948C27.9566 120.948 20.3496 128.595 20.3496 138.032C20.3496 138.238 20.1837 138.405 19.979 138.405C19.7743 138.405 19.6084 138.238 19.6084 138.032C19.6084 128.184 27.5472 120.202 37.3432 120.202C37.5479 120.202 37.7138 120.369 37.7138 120.575C37.7138 120.781 37.5479 120.948 37.3432 120.948Z" fill="black"/>
<path d="M39.0629 149.081H35.5743V147.65C31.5865 147.367 27.1244 145.871 27.0948 140.596L27.0898 139.955H31.3444C29.1751 139.195 27.2628 137.764 27.2628 134.853C27.2628 131.241 30.3561 128.921 35.5693 128.573V126.984H39.058V128.633C44.3947 129.065 47.0285 131.46 46.8803 135.752L46.8605 136.368H43.9253C45.9414 137.128 47.5918 138.569 47.5918 141.4C47.5918 144.009 46.0946 147.168 39.0629 147.655V149.081V149.081ZM36.8442 147.804H37.788V146.438L38.3958 146.413C43.6535 146.179 46.317 144.49 46.317 141.405C46.317 137.585 42.4528 137.004 38.4996 136.736L37.788 136.686V133.541L38.5639 133.715C39.3397 133.889 39.7992 134.341 39.9524 135.096H45.6103C45.472 131.788 43.1594 130.123 38.3958 129.875L37.793 129.845V128.27H36.8442V129.805L36.2315 129.825C31.4136 129.999 28.5377 131.882 28.5377 134.858C28.5377 138.35 32.1202 139.1 35.7868 139.567C35.9647 139.592 36.1327 139.612 36.2957 139.632L36.8492 139.706V142.548L36.1574 142.483C35.095 142.389 34.4526 141.967 34.2302 141.231H28.3993C28.7057 144.505 31.2802 146.199 36.2364 146.403L36.8442 146.428V147.804V147.804ZM35.4211 140.809C35.4409 140.894 35.4804 140.973 35.5743 141.038V140.829C35.5249 140.824 35.4755 140.814 35.4211 140.809ZM37.793 142.578V139.87L38.5688 140.044C39.2507 140.198 40.1896 140.407 40.1896 141.281C40.1896 142.036 39.6114 142.459 38.4749 142.533L37.793 142.578ZM36.8442 136.587L36.0437 136.373C34.7392 136.025 34.5069 135.404 34.5465 134.937C34.5563 134.634 34.7194 133.809 36.1277 133.631L36.8442 133.541V136.587V136.587Z" fill="#00CD73"/>
<path d="M67.5838 63.062L66.4473 62.8086V66.7779L67.4405 66.7133C67.6431 66.6984 67.8309 66.6786 68.0088 66.6488C68.2706 65.5757 68.6956 64.5623 69.2589 63.6432C68.7747 63.3302 68.1273 63.1812 67.5838 63.062Z" fill="#7DE6AF"/>
<path d="M61.7035 55.5805C61.6442 56.261 61.9802 57.1652 63.8926 57.6819L65.0637 57.9948V53.5337L64.0161 53.6678C61.9555 53.9262 61.7183 55.1383 61.7035 55.5805Z" fill="#7DE6AF"/>
<path d="M67.3371 72.3867L66.4476 72.4265V74.4285H65.064V72.4265L64.1696 72.3867C56.9057 72.0837 53.1403 69.6047 52.6907 64.8108H61.2245C61.5506 65.8838 62.4945 66.4998 64.051 66.6389L65.069 66.7333V62.5702L64.2586 62.461C64.0214 62.4311 63.7743 62.3964 63.5173 62.3666C58.146 61.681 52.8982 60.5781 52.8982 55.4662C52.8982 51.1094 57.1132 48.3522 64.1696 48.0939L65.069 48.0591V45.8087H66.4526V48.1138L67.3371 48.1585C74.3144 48.5211 77.6993 50.9554 77.9068 55.804H69.62C69.3927 54.7012 68.7207 54.0404 67.5841 53.7871L66.4526 53.5337V58.1389L67.4903 58.2085C69.9758 58.3774 72.4317 58.6307 74.433 59.3064C75.357 58.9437 76.3404 58.7102 77.3682 58.6258C76.7653 58.2482 76.118 57.9352 75.4361 57.6819H79.7351L79.7648 56.7777C79.9822 50.4884 76.1279 46.9811 68.3105 46.3502V43.9358H63.2011V46.2657C55.5616 46.7774 51.0303 50.1754 51.0303 55.4612C51.0303 59.7286 53.8321 61.8251 57.0095 62.9329H50.7783L50.7833 63.8768C50.8277 71.6018 57.3603 73.7926 63.2011 74.205V76.2965H68.3105V74.4534C68.0733 73.7728 67.8955 73.0673 67.7966 72.352C67.6434 72.3619 67.4952 72.3768 67.3371 72.3867ZM63.2011 64.2096V64.5127C63.0627 64.4183 63.0034 64.309 62.9787 64.1798C63.0528 64.1947 63.127 64.1997 63.2011 64.2096Z" fill="#7DE6AF"/>
<path d="M100.158 81.7859H82.3545V128.409H100.158V81.7859Z" fill="#7DE6AF"/>
<path d="M91.2536 121.713C100.38 121.713 107.778 114.275 107.778 105.1C107.778 95.9255 100.38 88.4878 91.2536 88.4878C82.1276 88.4878 74.7295 95.9255 74.7295 105.1C74.7295 114.275 82.1276 121.713 91.2536 121.713Z" fill="#7DE6AF"/>
<path fill-rule="evenodd" clip-rule="evenodd" d="M99.2122 119.668C99.3069 119.85 99.2365 120.075 99.055 120.17C96.7204 121.395 94.0675 122.085 91.259 122.085C88.4456 122.085 85.7926 121.395 83.4627 120.17C83.2813 120.075 83.2111 119.85 83.3059 119.667C83.4007 119.485 83.6247 119.414 83.8061 119.51C86.0321 120.68 88.5676 121.34 91.259 121.34C93.9453 121.34 96.4809 120.68 98.7122 119.51C98.8937 119.414 99.1175 119.485 99.2122 119.668Z" fill="black"/>
<path fill-rule="evenodd" clip-rule="evenodd" d="M91.2541 88.8553C88.5677 88.8553 86.0321 89.5158 83.8009 90.6859C83.6194 90.7811 83.3955 90.7103 83.3009 90.5279C83.2062 90.3455 83.2766 90.1204 83.4581 90.0252C85.7927 88.8009 88.4456 88.1101 91.2541 88.1101C94.0624 88.1101 96.7204 88.8008 99.0504 90.0254C99.2318 90.1207 99.302 90.3458 99.2072 90.5282C99.1123 90.7106 98.8884 90.7811 98.707 90.6858C96.481 89.5158 93.9406 88.8553 91.2541 88.8553Z" fill="black"/>
<path d="M95.39 60.0914V60.0864V58.5861H95.3851L95.3406 47.6816C95.3406 53.6182 90.6215 58.442 84.7462 58.5762V58.5811H78.2531C72.4223 58.5811 67.6982 63.3304 67.6982 69.1925V70.9908C67.6982 76.4853 71.6613 81.781 77.0079 81.781C82.3545 81.781 95.39 81.781 95.39 81.781V60.0914V60.0914Z" fill="#008C50"/>
<path d="M119.465 62.8088C116.288 61.85 114.573 59.2766 113.733 55.7395C112.893 59.2766 111.183 61.85 108.001 62.8088C111.178 63.7676 112.893 66.3409 113.733 69.878C114.573 66.3409 116.288 63.7676 119.465 62.8088Z" fill="#648CFF"/>
<path d="M59.0257 106.705C55.8483 105.746 54.1336 103.173 53.2936 99.6355C52.4535 103.173 50.7438 105.746 47.5615 106.705C50.7389 107.664 52.4535 110.237 53.2936 113.774C54.1336 110.237 55.8434 107.664 59.0257 106.705Z" fill="#648CFF"/>
</g>
<defs>
<clipPath id="clip0">
<rect width="131.2" height="160" fill="white" transform="translate(13.8662)"/>
</clipPath>
</defs>
</svg>
