<svg width="320" height="160" viewBox="0 0 320 160" fill="none" xmlns="http://www.w3.org/2000/svg">
<line x1="26.1689" y1="21.5938" x2="26.1689" y2="159.999" stroke="#E5E5E5"/>
<path d="M10.9648 11H12.0195V2.54492H10.9707L8.7207 4.16211V5.27539L10.8711 3.7168H10.9648V11ZM14.4922 4.92969H15.5117C15.5117 3.92773 16.1855 3.26562 17.1992 3.26562C18.1953 3.26562 18.7988 3.93359 18.7988 4.83008C18.7988 5.57422 18.4824 6.01367 17.4043 7.17969L14.5449 10.2734V11H20.0176V10.0508H16.0098V9.95703L17.9316 7.9707C19.4551 6.39453 19.877 5.69141 19.877 4.71875C19.877 3.34766 18.7461 2.3457 17.2695 2.3457C15.6523 2.3457 14.4922 3.42383 14.4922 4.92969ZM22.4609 11.0586C22.8828 11.0586 23.2227 10.7129 23.2227 10.2969C23.2227 9.875 22.8828 9.53516 22.4609 9.53516C22.0449 9.53516 21.6992 9.875 21.6992 10.2969C21.6992 10.7129 22.0449 11.0586 22.4609 11.0586ZM27.5586 11.1992C29.457 11.1992 30.5469 9.59375 30.5469 6.78711C30.5469 3.98633 29.4395 2.3457 27.5586 2.3457C25.666 2.3457 24.5586 3.98047 24.5586 6.76953C24.5586 9.58203 25.6543 11.1992 27.5586 11.1992ZM27.5586 10.2793C26.3105 10.2793 25.6191 9.03125 25.6191 6.76953C25.6191 4.53711 26.3223 3.27148 27.5586 3.27148C28.7949 3.27148 29.4863 4.52539 29.4863 6.76953C29.4863 9.03711 28.8066 10.2793 27.5586 10.2793ZM34.0508 7.10352H35.0996C36.2891 7.10352 37.0215 7.71289 37.0215 8.69141C37.0215 9.64062 36.2305 10.2793 35.1172 10.2793C34.0273 10.2793 33.2656 9.71094 33.1719 8.82031H32.1523C32.2285 10.2559 33.4121 11.1992 35.1289 11.1992C36.8105 11.1992 38.1055 10.1387 38.1055 8.7207C38.1055 7.54297 37.3789 6.79883 36.2832 6.62305V6.5293C37.1504 6.27734 37.7832 5.60352 37.7891 4.58398C37.7949 3.40039 36.834 2.3457 35.1641 2.3457C33.4531 2.3457 32.4043 3.35938 32.2988 4.73633H33.3242C33.4121 3.78711 34.0742 3.26562 35.0938 3.26562C36.1133 3.26562 36.7168 3.91016 36.7168 4.70117C36.7168 5.58008 36.0254 6.20117 35.0527 6.20117H34.0508V7.10352ZM40.2266 11.0586C40.6484 11.0586 40.9883 10.7129 40.9883 10.2969C40.9883 9.875 40.6484 9.53516 40.2266 9.53516C39.8105 9.53516 39.4648 9.875 39.4648 10.2969C39.4648 10.7129 39.8105 11.0586 40.2266 11.0586ZM42.6641 4.92969H43.6836C43.6836 3.92773 44.3574 3.26562 45.3711 3.26562C46.3672 3.26562 46.9707 3.93359 46.9707 4.83008C46.9707 5.57422 46.6543 6.01367 45.5762 7.17969L42.7168 10.2734V11H48.1895V10.0508H44.1816V9.95703L46.1035 7.9707C47.627 6.39453 48.0488 5.69141 48.0488 4.71875C48.0488 3.34766 46.918 2.3457 45.4414 2.3457C43.8242 2.3457 42.6641 3.42383 42.6641 4.92969ZM52.8125 11.1992C54.7109 11.1992 55.8008 9.59375 55.8008 6.78711C55.8008 3.98633 54.6934 2.3457 52.8125 2.3457C50.9199 2.3457 49.8125 3.98047 49.8125 6.76953C49.8125 9.58203 50.9082 11.1992 52.8125 11.1992ZM52.8125 10.2793C51.5645 10.2793 50.873 9.03125 50.873 6.76953C50.873 4.53711 51.5762 3.27148 52.8125 3.27148C54.0488 3.27148 54.7402 4.52539 54.7402 6.76953C54.7402 9.03711 54.0605 10.2793 52.8125 10.2793Z" fill="#6C7980"/>
<circle cx="159.656" cy="80" r="80" fill="#E3F7EA"/>
<path d="M221.49 19.5886C221.602 21.0476 222.838 21.9968 224.631 21.9968C226.565 21.9968 227.789 21.0066 227.789 19.4539C227.789 18.2117 227.086 17.532 225.334 17.0925L224.449 16.8582C223.283 16.5593 222.82 16.1785 222.82 15.5164C222.82 14.6609 223.565 14.0984 224.69 14.0984C225.744 14.0984 226.459 14.614 226.606 15.4812H227.666C227.578 14.116 226.36 13.1433 224.725 13.1433C222.938 13.1433 221.737 14.116 221.737 15.5515C221.737 16.7527 222.399 17.4441 223.928 17.8308L225.012 18.1121C226.178 18.405 226.705 18.8621 226.705 19.5828C226.705 20.4207 225.867 21.0359 224.731 21.0359C223.529 21.0359 222.686 20.4734 222.557 19.5886H221.49ZM231.176 21.9089C232.02 21.9089 232.711 21.5398 233.121 20.866H233.215V21.7976H234.176V17.4734C234.176 16.1609 233.315 15.3699 231.774 15.3699C230.426 15.3699 229.43 16.0378 229.295 17.0515H230.315C230.455 16.5535 230.983 16.2664 231.738 16.2664C232.682 16.2664 233.168 16.6941 233.168 17.4734V18.0476L231.346 18.1589C229.875 18.2468 229.043 18.8972 229.043 20.0281C229.043 21.1824 229.951 21.9089 231.176 21.9089ZM231.363 21.0242C230.631 21.0242 230.086 20.6492 230.086 20.0046C230.086 19.3718 230.508 19.0378 231.469 18.9734L233.168 18.8621V19.4421C233.168 20.3445 232.401 21.0242 231.363 21.0242ZM236.098 21.7976H237.106V12.9734H236.098V21.7976ZM241.401 21.9089C242.274 21.9089 243.024 21.4929 243.422 20.7898H243.516V21.7976H244.477V12.9734H243.469V16.4773H243.381C243.024 15.7859 242.279 15.3699 241.401 15.3699C239.795 15.3699 238.746 16.6589 238.746 18.6394C238.746 20.6257 239.783 21.9089 241.401 21.9089ZM241.635 16.2781C242.778 16.2781 243.492 17.1921 243.492 18.6394C243.492 20.0984 242.783 21.0007 241.635 21.0007C240.481 21.0007 239.789 20.116 239.789 18.6394C239.789 17.1687 240.487 16.2781 241.635 16.2781ZM249.029 21.9089C250.828 21.9089 251.942 20.6667 251.942 18.6394C251.942 16.6062 250.828 15.3699 249.029 15.3699C247.231 15.3699 246.117 16.6062 246.117 18.6394C246.117 20.6667 247.231 21.9089 249.029 21.9089ZM249.029 21.0007C247.834 21.0007 247.16 20.1335 247.16 18.6394C247.16 17.1394 247.834 16.2781 249.029 16.2781C250.225 16.2781 250.899 17.1394 250.899 18.6394C250.899 20.1335 250.225 21.0007 249.029 21.0007ZM258.094 18.4519H260.174L261.985 21.7976H263.221L261.264 18.2878C262.324 17.9539 262.963 17.0398 262.963 15.8621C262.963 14.3386 261.897 13.3425 260.268 13.3425H257.039V21.7976H258.094V18.4519ZM258.094 14.28H260.127C261.217 14.28 261.873 14.8835 261.873 15.8972C261.873 16.9343 261.258 17.5144 260.174 17.5144H258.094V14.28ZM267.352 22.6472H268.055V21.6335C269.438 21.5281 270.586 20.7605 270.586 19.3484C270.586 18.1179 269.742 17.4968 268.237 17.1335L268.055 17.0925V14.4265C268.846 14.5261 269.408 14.989 269.485 15.78H270.504C270.463 14.4851 269.408 13.6296 268.055 13.5066V12.4929H267.352V13.5125C265.963 13.6355 264.973 14.4675 264.973 15.7273C264.973 16.8816 265.758 17.532 267.217 17.8835L267.352 17.9187V20.7136C266.338 20.6023 265.887 20.0457 265.781 19.3132H264.762C264.803 20.6785 265.957 21.5046 267.352 21.6277V22.6472ZM265.992 15.657C265.992 15.0886 266.461 14.5496 267.352 14.4324V16.9226C266.344 16.6765 265.992 16.2312 265.992 15.657ZM268.09 18.0945C269.25 18.3757 269.567 18.7859 269.567 19.4304C269.567 20.1042 269.145 20.6375 268.055 20.7195V18.0886L268.09 18.0945ZM275.367 21.9968C277.266 21.9968 278.356 20.3914 278.356 17.5847C278.356 14.7839 277.248 13.1433 275.367 13.1433C273.475 13.1433 272.367 14.7781 272.367 17.5671C272.367 20.3796 273.463 21.9968 275.367 21.9968ZM275.367 21.0769C274.119 21.0769 273.428 19.8289 273.428 17.5671C273.428 15.3347 274.131 14.0691 275.367 14.0691C276.604 14.0691 277.295 15.323 277.295 17.5671C277.295 19.8347 276.615 21.0769 275.367 21.0769ZM282.926 21.9968C284.824 21.9968 285.914 20.3914 285.914 17.5847C285.914 14.7839 284.807 13.1433 282.926 13.1433C281.033 13.1433 279.926 14.7781 279.926 17.5671C279.926 20.3796 281.022 21.9968 282.926 21.9968ZM282.926 21.0769C281.678 21.0769 280.987 19.8289 280.987 17.5671C280.987 15.3347 281.69 14.0691 282.926 14.0691C284.162 14.0691 284.854 15.323 284.854 17.5671C284.854 19.8347 284.174 21.0769 282.926 21.0769ZM287.819 23.948L288.738 20.614H287.619L287.063 23.948H287.819ZM293.11 21.9968C295.008 21.9968 296.098 20.3914 296.098 17.5847C296.098 14.7839 294.99 13.1433 293.11 13.1433C291.217 13.1433 290.11 14.7781 290.11 17.5671C290.11 20.3796 291.205 21.9968 293.11 21.9968ZM293.11 21.0769C291.862 21.0769 291.17 19.8289 291.17 17.5671C291.17 15.3347 291.873 14.0691 293.11 14.0691C294.346 14.0691 295.037 15.323 295.037 17.5671C295.037 19.8347 294.358 21.0769 293.11 21.0769ZM300.668 21.9968C302.567 21.9968 303.656 20.3914 303.656 17.5847C303.656 14.7839 302.549 13.1433 300.668 13.1433C298.776 13.1433 297.668 14.7781 297.668 17.5671C297.668 20.3796 298.764 21.9968 300.668 21.9968ZM300.668 21.0769C299.42 21.0769 298.729 19.8289 298.729 17.5671C298.729 15.3347 299.432 14.0691 300.668 14.0691C301.904 14.0691 302.596 15.323 302.596 17.5671C302.596 19.8347 301.916 21.0769 300.668 21.0769Z" fill="#6C7980"/>
<g filter="url(#filter0_ddd)">
<rect x="8" y="91.2883" width="303.313" height="54.9693" rx="4" fill="white"/>
</g>
<path d="M232.362 120.789H233.81L235.386 123.883H237.39L235.609 120.525C236.581 120.145 237.144 119.207 237.144 118.123C237.144 116.453 236.001 115.428 234.144 115.428H230.593V123.883H232.362V120.789ZM232.362 116.811H233.898C234.777 116.811 235.327 117.326 235.327 118.146C235.327 118.984 234.806 119.471 233.915 119.471H232.362V116.811ZM241.749 124.715H242.423V123.777C244.087 123.666 245.277 122.775 245.277 121.305C245.277 120.021 244.439 119.377 242.839 119.014L242.423 118.926V116.857C243.079 116.951 243.519 117.314 243.601 117.947H245.165C245.107 116.564 244.052 115.65 242.423 115.533V114.578H241.749V115.527C240.138 115.627 238.984 116.535 238.984 117.936C238.984 119.201 239.827 119.887 241.357 120.232L241.749 120.326V122.465C240.952 122.377 240.53 121.961 240.437 121.363H238.866C238.907 122.828 240.103 123.689 241.749 123.783V124.715ZM240.624 117.783C240.624 117.314 241.011 116.934 241.749 116.846V118.768C240.958 118.557 240.624 118.252 240.624 117.783ZM243.642 121.486C243.642 122.02 243.237 122.383 242.423 122.465V120.479C243.331 120.707 243.642 120.971 243.642 121.486ZM246.952 117.994H248.593C248.593 117.168 249.132 116.588 249.993 116.588C250.82 116.588 251.3 117.139 251.3 117.83C251.3 118.416 251.071 118.803 250.017 119.828L247.052 122.693V123.883H253.152V122.459H249.437V122.354L251.195 120.678C252.601 119.342 253.034 118.662 253.034 117.672C253.034 116.248 251.886 115.211 250.093 115.211C248.241 115.211 246.952 116.348 246.952 117.994ZM255.911 124.029C256.544 124.029 256.948 123.607 256.948 123.033C256.948 122.459 256.544 122.043 255.911 122.043C255.284 122.043 254.874 122.459 254.874 123.033C254.874 123.607 255.284 124.029 255.911 124.029ZM261.542 124.1C263.634 124.1 264.9 122.447 264.9 119.646C264.9 116.84 263.616 115.211 261.542 115.211C259.462 115.211 258.185 116.84 258.185 119.641C258.185 122.447 259.45 124.1 261.542 124.1ZM261.542 122.699C260.575 122.699 259.978 121.668 259.978 119.641C259.978 117.631 260.581 116.611 261.542 116.611C262.509 116.611 263.107 117.625 263.107 119.641C263.107 121.668 262.515 122.699 261.542 122.699ZM269.757 124.1C271.849 124.1 273.114 122.447 273.114 119.646C273.114 116.84 271.831 115.211 269.757 115.211C267.677 115.211 266.4 116.84 266.4 119.641C266.4 122.447 267.665 124.1 269.757 124.1ZM269.757 122.699C268.79 122.699 268.193 121.668 268.193 119.641C268.193 117.631 268.796 116.611 269.757 116.611C270.724 116.611 271.321 117.625 271.321 119.641C271.321 121.668 270.73 122.699 269.757 122.699ZM277.972 124.1C280.064 124.1 281.329 122.447 281.329 119.646C281.329 116.84 280.046 115.211 277.972 115.211C275.892 115.211 274.614 116.84 274.614 119.641C274.614 122.447 275.88 124.1 277.972 124.1ZM277.972 122.699C277.005 122.699 276.407 121.668 276.407 119.641C276.407 117.631 277.011 116.611 277.972 116.611C278.939 116.611 279.536 117.625 279.536 119.641C279.536 121.668 278.945 122.699 277.972 122.699ZM283.427 126.156L284.493 122.529H282.823L282.284 126.156H283.427ZM289.175 124.1C291.267 124.1 292.532 122.447 292.532 119.646C292.532 116.84 291.249 115.211 289.175 115.211C287.095 115.211 285.818 116.84 285.818 119.641C285.818 122.447 287.083 124.1 289.175 124.1ZM289.175 122.699C288.208 122.699 287.611 121.668 287.611 119.641C287.611 117.631 288.214 116.611 289.175 116.611C290.142 116.611 290.739 117.625 290.739 119.641C290.739 121.668 290.148 122.699 289.175 122.699ZM297.39 124.1C299.482 124.1 300.747 122.447 300.747 119.646C300.747 116.84 299.464 115.211 297.39 115.211C295.31 115.211 294.032 116.84 294.032 119.641C294.032 122.447 295.298 124.1 297.39 124.1ZM297.39 122.699C296.423 122.699 295.825 121.668 295.825 119.641C295.825 117.631 296.429 116.611 297.39 116.611C298.357 116.611 298.954 117.625 298.954 119.641C298.954 121.668 298.362 122.699 297.39 122.699Z" fill="#39464D"/>
<path d="M45.752 130.754C47.5508 130.754 48.6172 129.869 48.6172 128.381C48.6172 127.262 47.8848 126.471 46.7305 126.324V126.23C47.5449 126.084 48.1895 125.287 48.1895 124.408C48.1895 123.113 47.2402 122.299 45.6875 122.299H42.4531V130.754H45.752ZM43.5078 123.23H45.4648C46.5137 123.23 47.123 123.729 47.123 124.59C47.123 125.486 46.4727 125.943 45.1953 125.943H43.5078V123.23ZM43.5078 129.822V126.852H45.4941C46.8418 126.852 47.5332 127.35 47.5332 128.328C47.5332 129.307 46.8652 129.822 45.5938 129.822H43.5078ZM51.9688 130.865C52.8125 130.865 53.5039 130.496 53.9141 129.822H54.0078V130.754H54.9688V126.43C54.9688 125.117 54.1074 124.326 52.5664 124.326C51.2188 124.326 50.2227 124.994 50.0879 126.008H51.1074C51.248 125.51 51.7754 125.223 52.5312 125.223C53.4746 125.223 53.9609 125.65 53.9609 126.43V127.004L52.1387 127.115C50.668 127.203 49.8359 127.854 49.8359 128.984C49.8359 130.139 50.7441 130.865 51.9688 130.865ZM52.1562 129.98C51.4238 129.98 50.8789 129.605 50.8789 128.961C50.8789 128.328 51.3008 127.994 52.2617 127.93L53.9609 127.818V128.398C53.9609 129.301 53.1934 129.98 52.1562 129.98ZM56.832 130.754H57.8398V127.016C57.8398 125.908 58.4902 125.234 59.498 125.234C60.5059 125.234 60.9863 125.773 60.9863 126.91V130.754H61.9941V126.664C61.9941 125.164 61.2031 124.326 59.7852 124.326C58.8184 124.326 58.2031 124.736 57.8867 125.434H57.793V124.438H56.832V130.754ZM66.1777 130.865C67.0508 130.865 67.8008 130.449 68.1992 129.746H68.293V130.754H69.2539V121.93H68.2461V125.434H68.1582C67.8008 124.742 67.0566 124.326 66.1777 124.326C64.5723 124.326 63.5234 125.615 63.5234 127.596C63.5234 129.582 64.5605 130.865 66.1777 130.865ZM66.4121 125.234C67.5547 125.234 68.2695 126.148 68.2695 127.596C68.2695 129.055 67.5605 129.957 66.4121 129.957C65.2578 129.957 64.5664 129.072 64.5664 127.596C64.5664 126.125 65.2637 125.234 66.4121 125.234ZM75.3945 129.119C75.1309 129.676 74.5801 129.975 73.7656 129.975C72.6934 129.975 71.9961 129.184 71.9434 127.936V127.889H76.4844V127.502C76.4844 125.539 75.4473 124.326 73.7422 124.326C72.0078 124.326 70.8945 125.615 70.8945 127.602C70.8945 129.6 71.9902 130.865 73.7422 130.865C75.125 130.865 76.1094 130.197 76.4023 129.119H75.3945ZM73.7305 125.217C74.7324 125.217 75.4004 125.955 75.4238 127.074H71.9434C72.0195 125.955 72.7227 125.217 73.7305 125.217ZM78.5938 123.219C78.9805 123.219 79.2969 122.902 79.2969 122.516C79.2969 122.129 78.9805 121.812 78.5938 121.812C78.207 121.812 77.8906 122.129 77.8906 122.516C77.8906 122.902 78.207 123.219 78.5938 123.219ZM78.0898 130.754H79.0977V124.438H78.0898V130.754ZM81.0195 130.754H82.0273V126.84C82.0273 125.949 82.7246 125.305 83.6855 125.305C83.8848 125.305 84.248 125.34 84.3301 125.363V124.355C84.2012 124.338 83.9902 124.326 83.8262 124.326C82.9883 124.326 82.2617 124.76 82.0742 125.375H81.9805V124.438H81.0195V130.754ZM87.3477 130.865C88.1914 130.865 88.8828 130.496 89.293 129.822H89.3867V130.754H90.3477V126.43C90.3477 125.117 89.4863 124.326 87.9453 124.326C86.5977 124.326 85.6016 124.994 85.4668 126.008H86.4863C86.627 125.51 87.1543 125.223 87.9102 125.223C88.8535 125.223 89.3398 125.65 89.3398 126.43V127.004L87.5176 127.115C86.0469 127.203 85.2148 127.854 85.2148 128.984C85.2148 130.139 86.123 130.865 87.3477 130.865ZM87.5352 129.98C86.8027 129.98 86.2578 129.605 86.2578 128.961C86.2578 128.328 86.6797 127.994 87.6406 127.93L89.3398 127.818V128.398C89.3398 129.301 88.5723 129.98 87.5352 129.98ZM99.2129 130.754L102.33 122.299H101.223L98.7383 129.389H98.6445L96.1602 122.299H95.0527L98.1699 130.754H99.2129ZM104.211 123.219C104.598 123.219 104.914 122.902 104.914 122.516C104.914 122.129 104.598 121.812 104.211 121.812C103.824 121.812 103.508 122.129 103.508 122.516C103.508 122.902 103.824 123.219 104.211 123.219ZM103.707 130.754H104.715V124.438H103.707V130.754ZM106.49 126.166C106.49 127.08 107.029 127.59 108.213 127.877L109.297 128.141C109.971 128.305 110.299 128.598 110.299 129.031C110.299 129.611 109.689 130.016 108.84 130.016C108.031 130.016 107.527 129.676 107.357 129.143H106.32C106.432 130.191 107.398 130.865 108.805 130.865C110.24 130.865 111.336 130.086 111.336 128.955C111.336 128.047 110.762 127.531 109.572 127.244L108.6 127.01C107.855 126.828 107.504 126.559 107.504 126.125C107.504 125.562 108.09 125.182 108.84 125.182C109.602 125.182 110.094 125.516 110.229 126.02H111.225C111.09 124.982 110.17 124.326 108.846 124.326C107.504 124.326 106.49 125.117 106.49 126.166ZM114.676 130.865C115.52 130.865 116.211 130.496 116.621 129.822H116.715V130.754H117.676V126.43C117.676 125.117 116.814 124.326 115.273 124.326C113.926 124.326 112.93 124.994 112.795 126.008H113.814C113.955 125.51 114.482 125.223 115.238 125.223C116.182 125.223 116.668 125.65 116.668 126.43V127.004L114.846 127.115C113.375 127.203 112.543 127.854 112.543 128.984C112.543 130.139 113.451 130.865 114.676 130.865ZM114.863 129.98C114.131 129.98 113.586 129.605 113.586 128.961C113.586 128.328 114.008 127.994 114.969 127.93L116.668 127.818V128.398C116.668 129.301 115.9 129.98 114.863 129.98ZM124.109 130.754V122.299H123.055V130.754H124.109ZM126.137 130.754H127.145V127.016C127.145 125.908 127.795 125.234 128.803 125.234C129.811 125.234 130.291 125.773 130.291 126.91V130.754H131.299V126.664C131.299 125.164 130.508 124.326 129.09 124.326C128.123 124.326 127.508 124.736 127.191 125.434H127.098V124.438H126.137V130.754ZM133.566 122.803V124.438H132.547V125.281H133.566V129.113C133.566 130.32 134.088 130.801 135.389 130.801C135.588 130.801 135.781 130.777 135.98 130.742V129.893C135.793 129.91 135.693 129.916 135.512 129.916C134.855 129.916 134.574 129.6 134.574 128.855V125.281H135.98V124.438H134.574V122.803H133.566ZM141.594 129.119C141.33 129.676 140.779 129.975 139.965 129.975C138.893 129.975 138.195 129.184 138.143 127.936V127.889H142.684V127.502C142.684 125.539 141.646 124.326 139.941 124.326C138.207 124.326 137.094 125.615 137.094 127.602C137.094 129.6 138.189 130.865 139.941 130.865C141.324 130.865 142.309 130.197 142.602 129.119H141.594ZM139.93 125.217C140.932 125.217 141.6 125.955 141.623 127.074H138.143C138.219 125.955 138.922 125.217 139.93 125.217ZM144.266 130.754H145.273V126.84C145.273 125.949 145.971 125.305 146.932 125.305C147.131 125.305 147.494 125.34 147.576 125.363V124.355C147.447 124.338 147.236 124.326 147.072 124.326C146.234 124.326 145.508 124.76 145.32 125.375H145.227V124.438H144.266V130.754ZM148.953 130.754H149.961V127.016C149.961 125.908 150.611 125.234 151.619 125.234C152.627 125.234 153.107 125.773 153.107 126.91V130.754H154.115V126.664C154.115 125.164 153.324 124.326 151.906 124.326C150.939 124.326 150.324 124.736 150.008 125.434H149.914V124.438H148.953V130.754ZM157.719 130.865C158.562 130.865 159.254 130.496 159.664 129.822H159.758V130.754H160.719V126.43C160.719 125.117 159.857 124.326 158.316 124.326C156.969 124.326 155.973 124.994 155.838 126.008H156.857C156.998 125.51 157.525 125.223 158.281 125.223C159.225 125.223 159.711 125.65 159.711 126.43V127.004L157.889 127.115C156.418 127.203 155.586 127.854 155.586 128.984C155.586 130.139 156.494 130.865 157.719 130.865ZM157.906 129.98C157.174 129.98 156.629 129.605 156.629 128.961C156.629 128.328 157.051 127.994 158.012 127.93L159.711 127.818V128.398C159.711 129.301 158.943 129.98 157.906 129.98ZM167.809 126.371C167.633 125.246 166.695 124.326 165.16 124.326C163.391 124.326 162.266 125.604 162.266 127.572C162.266 129.582 163.396 130.865 165.166 130.865C166.684 130.865 167.627 130.01 167.809 128.85H166.789C166.602 129.564 166.01 129.957 165.16 129.957C164.035 129.957 163.309 129.031 163.309 127.572C163.309 126.143 164.023 125.234 165.16 125.234C166.068 125.234 166.625 125.744 166.789 126.371H167.809ZM169.824 123.219C170.211 123.219 170.527 122.902 170.527 122.516C170.527 122.129 170.211 121.812 169.824 121.812C169.438 121.812 169.121 122.129 169.121 122.516C169.121 122.902 169.438 123.219 169.824 123.219ZM169.32 130.754H170.328V124.438H169.32V130.754ZM174.846 130.865C176.645 130.865 177.758 129.623 177.758 127.596C177.758 125.562 176.645 124.326 174.846 124.326C173.047 124.326 171.934 125.562 171.934 127.596C171.934 129.623 173.047 130.865 174.846 130.865ZM174.846 129.957C173.65 129.957 172.977 129.09 172.977 127.596C172.977 126.096 173.65 125.234 174.846 125.234C176.041 125.234 176.715 126.096 176.715 127.596C176.715 129.09 176.041 129.957 174.846 129.957ZM179.34 130.754H180.348V127.016C180.348 125.908 180.998 125.234 182.006 125.234C183.014 125.234 183.494 125.773 183.494 126.91V130.754H184.502V126.664C184.502 125.164 183.711 124.326 182.293 124.326C181.326 124.326 180.711 124.736 180.395 125.434H180.301V124.438H179.34V130.754ZM188.105 130.865C188.949 130.865 189.641 130.496 190.051 129.822H190.145V130.754H191.105V126.43C191.105 125.117 190.244 124.326 188.703 124.326C187.355 124.326 186.359 124.994 186.225 126.008H187.244C187.385 125.51 187.912 125.223 188.668 125.223C189.611 125.223 190.098 125.65 190.098 126.43V127.004L188.275 127.115C186.805 127.203 185.973 127.854 185.973 128.984C185.973 130.139 186.881 130.865 188.105 130.865ZM188.293 129.98C187.561 129.98 187.016 129.605 187.016 128.961C187.016 128.328 187.438 127.994 188.398 127.93L190.098 127.818V128.398C190.098 129.301 189.33 129.98 188.293 129.98ZM193.027 130.754H194.035V121.93H193.027V130.754ZM204.605 126.371C204.43 125.246 203.492 124.326 201.957 124.326C200.188 124.326 199.062 125.604 199.062 127.572C199.062 129.582 200.193 130.865 201.963 130.865C203.48 130.865 204.424 130.01 204.605 128.85H203.586C203.398 129.564 202.807 129.957 201.957 129.957C200.832 129.957 200.105 129.031 200.105 127.572C200.105 126.143 200.82 125.234 201.957 125.234C202.865 125.234 203.422 125.744 203.586 126.371H204.605ZM207.852 130.865C208.695 130.865 209.387 130.496 209.797 129.822H209.891V130.754H210.852V126.43C210.852 125.117 209.99 124.326 208.449 124.326C207.102 124.326 206.105 124.994 205.971 126.008H206.99C207.131 125.51 207.658 125.223 208.414 125.223C209.357 125.223 209.844 125.65 209.844 126.43V127.004L208.021 127.115C206.551 127.203 205.719 127.854 205.719 128.984C205.719 130.139 206.627 130.865 207.852 130.865ZM208.039 129.98C207.307 129.98 206.762 129.605 206.762 128.961C206.762 128.328 207.184 127.994 208.145 127.93L209.844 127.818V128.398C209.844 129.301 209.076 129.98 208.039 129.98ZM212.715 130.754H213.723V126.84C213.723 125.949 214.42 125.305 215.381 125.305C215.58 125.305 215.943 125.34 216.025 125.363V124.355C215.896 124.338 215.686 124.326 215.521 124.326C214.684 124.326 213.957 124.76 213.77 125.375H213.676V124.438H212.715V130.754ZM217.355 130.812C217.777 130.812 218.117 130.467 218.117 130.051C218.117 129.629 217.777 129.289 217.355 129.289C216.939 129.289 216.594 129.629 216.594 130.051C216.594 130.467 216.939 130.812 217.355 130.812ZM220.918 130.812C221.34 130.812 221.68 130.467 221.68 130.051C221.68 129.629 221.34 129.289 220.918 129.289C220.502 129.289 220.156 129.629 220.156 130.051C220.156 130.467 220.502 130.812 220.918 130.812ZM224.48 130.812C224.902 130.812 225.242 130.467 225.242 130.051C225.242 129.629 224.902 129.289 224.48 129.289C224.064 129.289 223.719 129.629 223.719 130.051C223.719 130.467 224.064 130.812 224.48 130.812Z" fill="#39464D"/>
<path d="M45.7051 113.085V105.579H48.4297V104.63H41.9258V105.579H44.6504V113.085H45.7051ZM49.0508 113.085H50.0586V109.171C50.0586 108.281 50.7559 107.636 51.7168 107.636C51.916 107.636 52.2793 107.671 52.3613 107.695V106.687C52.2324 106.669 52.0215 106.657 51.8574 106.657C51.0195 106.657 50.293 107.091 50.1055 107.706H50.0117V106.769H49.0508V113.085ZM55.3789 113.197C56.2227 113.197 56.9141 112.827 57.3242 112.154H57.418V113.085H58.3789V108.761C58.3789 107.448 57.5176 106.657 55.9766 106.657C54.6289 106.657 53.6328 107.325 53.498 108.339H54.5176C54.6582 107.841 55.1855 107.554 55.9414 107.554C56.8848 107.554 57.3711 107.982 57.3711 108.761V109.335L55.5488 109.447C54.0781 109.534 53.2461 110.185 53.2461 111.316C53.2461 112.47 54.1543 113.197 55.3789 113.197ZM55.5664 112.312C54.834 112.312 54.2891 111.937 54.2891 111.292C54.2891 110.659 54.7109 110.325 55.6719 110.261L57.3711 110.15V110.73C57.3711 111.632 56.6035 112.312 55.5664 112.312ZM60.2422 113.085H61.25V109.347C61.25 108.24 61.9004 107.566 62.9082 107.566C63.916 107.566 64.3965 108.105 64.3965 109.241V113.085H65.4043V108.995C65.4043 107.495 64.6133 106.657 63.1953 106.657C62.2285 106.657 61.6133 107.068 61.2969 107.765H61.2031V106.769H60.2422V113.085ZM67.1035 108.497C67.1035 109.411 67.6426 109.921 68.8262 110.208L69.9102 110.472C70.584 110.636 70.9121 110.929 70.9121 111.363C70.9121 111.943 70.3027 112.347 69.4531 112.347C68.6445 112.347 68.1406 112.007 67.9707 111.474H66.9336C67.0449 112.523 68.0117 113.197 69.418 113.197C70.8535 113.197 71.9492 112.417 71.9492 111.286C71.9492 110.378 71.375 109.863 70.1855 109.575L69.2129 109.341C68.4688 109.159 68.1172 108.89 68.1172 108.456C68.1172 107.894 68.7031 107.513 69.4531 107.513C70.2148 107.513 70.707 107.847 70.8418 108.351H71.8379C71.7031 107.314 70.7832 106.657 69.459 106.657C68.1172 106.657 67.1035 107.448 67.1035 108.497ZM73.9531 113.085H74.9609V107.613H76.4082V106.769H74.9609V106.095C74.9609 105.404 75.2656 105.052 75.9922 105.052C76.1738 105.052 76.3438 105.058 76.4668 105.081V104.261C76.2559 104.22 76.0332 104.202 75.7871 104.202C74.5859 104.202 73.9531 104.806 73.9531 106.066V106.769H72.9043V107.613H73.9531V113.085ZM81.793 111.45C81.5293 112.007 80.9785 112.306 80.1641 112.306C79.0918 112.306 78.3945 111.515 78.3418 110.267V110.22H82.8828V109.833C82.8828 107.87 81.8457 106.657 80.1406 106.657C78.4062 106.657 77.293 107.947 77.293 109.933C77.293 111.931 78.3887 113.197 80.1406 113.197C81.5234 113.197 82.5078 112.529 82.8008 111.45H81.793ZM80.1289 107.548C81.1309 107.548 81.7988 108.286 81.8223 109.406H78.3418C78.418 108.286 79.1211 107.548 80.1289 107.548ZM84.4648 113.085H85.4727V109.171C85.4727 108.281 86.1699 107.636 87.1309 107.636C87.3301 107.636 87.6934 107.671 87.7754 107.695V106.687C87.6465 106.669 87.4355 106.657 87.2715 106.657C86.4336 106.657 85.707 107.091 85.5195 107.706H85.4258V106.769H84.4648V113.085ZM91.9824 103.898H90.7988L89.3809 105.89H90.4824L91.3438 104.56H91.4375L92.2988 105.89H93.4004L91.9824 103.898ZM93.043 111.45C92.7793 112.007 92.2285 112.306 91.4141 112.306C90.3418 112.306 89.6445 111.515 89.5918 110.267V110.22H94.1328V109.833C94.1328 107.87 93.0957 106.657 91.3906 106.657C89.6562 106.657 88.543 107.947 88.543 109.933C88.543 111.931 89.6387 113.197 91.3906 113.197C92.7734 113.197 93.7578 112.529 94.0508 111.45H93.043ZM91.3789 107.548C92.3809 107.548 93.0488 108.286 93.0723 109.406H89.5918C89.668 108.286 90.3711 107.548 91.3789 107.548ZM95.7148 113.085H96.7227V109.347C96.7227 108.24 97.373 107.566 98.3809 107.566C99.3887 107.566 99.8691 108.105 99.8691 109.241V113.085H100.877V108.995C100.877 107.495 100.086 106.657 98.668 106.657C97.7012 106.657 97.0859 107.068 96.7695 107.765H96.6758V106.769H95.7148V113.085ZM107.949 108.702C107.773 107.577 106.836 106.657 105.301 106.657C103.531 106.657 102.406 107.935 102.406 109.904C102.406 111.913 103.537 113.197 105.307 113.197C106.824 113.197 107.768 112.341 107.949 111.181H106.93C106.742 111.896 106.15 112.288 105.301 112.288C104.176 112.288 103.449 111.363 103.449 109.904C103.449 108.474 104.164 107.566 105.301 107.566C106.209 107.566 106.766 108.075 106.93 108.702H107.949ZM109.965 105.55C110.352 105.55 110.668 105.234 110.668 104.847C110.668 104.46 110.352 104.144 109.965 104.144C109.578 104.144 109.262 104.46 109.262 104.847C109.262 105.234 109.578 105.55 109.965 105.55ZM109.461 113.085H110.469V106.769H109.461V113.085ZM114.148 113.197C114.992 113.197 115.684 112.827 116.094 112.154H116.188V113.085H117.148V108.761C117.148 107.448 116.287 106.657 114.746 106.657C113.398 106.657 112.402 107.325 112.268 108.339H113.287C113.428 107.841 113.955 107.554 114.711 107.554C115.654 107.554 116.141 107.982 116.141 108.761V109.335L114.318 109.447C112.848 109.534 112.016 110.185 112.016 111.316C112.016 112.47 112.924 113.197 114.148 113.197ZM114.336 112.312C113.604 112.312 113.059 111.937 113.059 111.292C113.059 110.659 113.48 110.325 114.441 110.261L116.141 110.15V110.73C116.141 111.632 115.373 112.312 114.336 112.312ZM124.736 113.197C125.609 113.197 126.359 112.781 126.758 112.077H126.852V113.085H127.812V104.261H126.805V107.765H126.717C126.359 107.073 125.615 106.657 124.736 106.657C123.131 106.657 122.082 107.947 122.082 109.927C122.082 111.913 123.119 113.197 124.736 113.197ZM124.971 107.566C126.113 107.566 126.828 108.48 126.828 109.927C126.828 111.386 126.119 112.288 124.971 112.288C123.816 112.288 123.125 111.404 123.125 109.927C123.125 108.456 123.822 107.566 124.971 107.566ZM133.953 111.45C133.689 112.007 133.139 112.306 132.324 112.306C131.252 112.306 130.555 111.515 130.502 110.267V110.22H135.043V109.833C135.043 107.87 134.006 106.657 132.301 106.657C130.566 106.657 129.453 107.947 129.453 109.933C129.453 111.931 130.549 113.197 132.301 113.197C133.684 113.197 134.668 112.529 134.961 111.45H133.953ZM132.289 107.548C133.291 107.548 133.959 108.286 133.982 109.406H130.502C130.578 108.286 131.281 107.548 132.289 107.548ZM140.012 113.085H141.02V109.171C141.02 108.281 141.717 107.636 142.678 107.636C142.877 107.636 143.24 107.671 143.322 107.695V106.687C143.193 106.669 142.982 106.657 142.818 106.657C141.98 106.657 141.254 107.091 141.066 107.706H140.973V106.769H140.012V113.085ZM148.59 111.45C148.326 112.007 147.775 112.306 146.961 112.306C145.889 112.306 145.191 111.515 145.139 110.267V110.22H149.68V109.833C149.68 107.87 148.643 106.657 146.938 106.657C145.203 106.657 144.09 107.947 144.09 109.933C144.09 111.931 145.186 113.197 146.938 113.197C148.32 113.197 149.305 112.529 149.598 111.45H148.59ZM146.926 107.548C147.928 107.548 148.596 108.286 148.619 109.406H145.139C145.215 108.286 145.918 107.548 146.926 107.548ZM156.488 108.702C156.312 107.577 155.375 106.657 153.84 106.657C152.07 106.657 150.945 107.935 150.945 109.904C150.945 111.913 152.076 113.197 153.846 113.197C155.363 113.197 156.307 112.341 156.488 111.181H155.469C155.281 111.896 154.689 112.288 153.84 112.288C152.715 112.288 151.988 111.363 151.988 109.904C151.988 108.474 152.703 107.566 153.84 107.566C154.748 107.566 155.305 108.075 155.469 108.702H156.488ZM162.16 111.45C161.896 112.007 161.346 112.306 160.531 112.306C159.459 112.306 158.762 111.515 158.709 110.267V110.22H163.25V109.833C163.25 107.87 162.213 106.657 160.508 106.657C158.773 106.657 157.66 107.947 157.66 109.933C157.66 111.931 158.756 113.197 160.508 113.197C161.891 113.197 162.875 112.529 163.168 111.45H162.16ZM160.496 107.548C161.498 107.548 162.166 108.286 162.189 109.406H158.709C158.785 108.286 159.488 107.548 160.496 107.548ZM167.973 113.197C169.572 113.197 170.621 111.902 170.621 109.927C170.621 107.941 169.578 106.657 167.973 106.657C167.105 106.657 166.338 107.085 165.992 107.765H165.898V104.261H164.891V113.085H165.852V112.077H165.945C166.344 112.781 167.094 113.197 167.973 113.197ZM167.738 107.566C168.893 107.566 169.578 108.45 169.578 109.927C169.578 111.404 168.893 112.288 167.738 112.288C166.59 112.288 165.875 111.386 165.875 109.927C165.875 108.468 166.59 107.566 167.738 107.566ZM173.188 105.89L174.541 103.898H173.334L172.297 105.89H173.188ZM172.227 113.085H173.234V106.769H172.227V113.085ZM180.312 106.769H179.234L177.506 111.972H177.412L175.684 106.769H174.605L176.943 113.085H177.975L180.312 106.769ZM185.609 111.45C185.346 112.007 184.795 112.306 183.98 112.306C182.908 112.306 182.211 111.515 182.158 110.267V110.22H186.699V109.833C186.699 107.87 185.662 106.657 183.957 106.657C182.223 106.657 181.109 107.947 181.109 109.933C181.109 111.931 182.205 113.197 183.957 113.197C185.34 113.197 186.324 112.529 186.617 111.45H185.609ZM183.945 107.548C184.947 107.548 185.615 108.286 185.639 109.406H182.158C182.234 108.286 182.938 107.548 183.945 107.548ZM188.34 113.085H189.348V104.261H188.34V113.085Z" fill="#6C7980"/>
<rect width="15.7055" height="15.7055" transform="translate(33.5215 126.625) rotate(-180)" fill="white"/>
<path fill-rule="evenodd" clip-rule="evenodd" d="M28.2866 116.809L29.5954 116.809C30.1161 116.809 30.6154 117.016 30.9836 117.384C31.3518 117.752 31.5586 118.252 31.5586 118.772L31.5586 123.353C31.5586 123.874 31.3518 124.373 30.9836 124.741C30.6154 125.109 30.1161 125.316 29.5954 125.316L21.7426 125.316C21.222 125.316 20.7226 125.109 20.3545 124.741C19.9863 124.373 19.7795 123.874 19.7795 123.353L19.7795 118.772C19.7795 118.252 19.9863 117.752 20.3545 117.384C20.7226 117.016 21.222 116.809 21.7426 116.809L23.0514 116.809C23.225 116.809 23.3914 116.878 23.5142 117.001C23.6369 117.123 23.7058 117.29 23.7058 117.463C23.7058 117.637 23.6369 117.803 23.5142 117.926C23.3914 118.049 23.225 118.118 23.0514 118.118L21.7426 118.118C21.5691 118.118 21.4026 118.187 21.2799 118.309C21.1572 118.432 21.0882 118.599 21.0882 118.772L21.0882 123.353C21.0882 123.527 21.1572 123.693 21.2799 123.816C21.4026 123.938 21.5691 124.007 21.7426 124.007L29.5954 124.007C29.769 124.007 29.9354 123.938 30.0581 123.816C30.1809 123.693 30.2498 123.527 30.2498 123.353L30.2498 118.772C30.2498 118.599 30.1809 118.432 30.0581 118.309C29.9354 118.187 29.769 118.118 29.5954 118.118L28.2866 118.118C28.1131 118.118 27.9466 118.049 27.8239 117.926C27.7012 117.803 27.6322 117.637 27.6322 117.463C27.6322 117.29 27.7012 117.123 27.8239 117.001C27.9466 116.878 28.1131 116.809 28.2866 116.809ZM24.1693 115.314L25.0135 114.463L25.0135 122.048C25.0135 122.221 25.0824 122.388 25.2051 122.511C25.3279 122.633 25.4943 122.702 25.6679 122.702C25.8414 122.702 26.0079 122.633 26.1306 122.511C26.2533 122.388 26.3223 122.221 26.3223 122.048L26.3223 114.463L27.1664 115.314C27.2273 115.376 27.2996 115.424 27.3794 115.457C27.4591 115.491 27.5447 115.508 27.6311 115.508C27.7174 115.508 27.803 115.491 27.8827 115.457C27.9625 115.424 28.0348 115.376 28.0957 115.314C28.157 115.253 28.2057 115.181 28.2389 115.101C28.2721 115.021 28.2892 114.936 28.2892 114.85C28.2892 114.763 28.2721 114.678 28.2389 114.598C28.2057 114.518 28.157 114.446 28.0957 114.385L26.1325 112.422C26.0717 112.36 25.9993 112.312 25.9195 112.279C25.8398 112.245 25.7543 112.228 25.6679 112.228C25.5815 112.228 25.4959 112.245 25.4162 112.279C25.3365 112.312 25.2641 112.36 25.2032 112.422L23.2401 114.385C23.1168 114.508 23.0476 114.675 23.0476 114.85C23.0476 115.024 23.1168 115.191 23.2401 115.314C23.3633 115.437 23.5304 115.507 23.7047 115.507C23.8789 115.507 24.0461 115.437 24.1693 115.314Z" fill="#FF2048"/>
<g filter="url(#filter1_ddd)">
<rect x="8" y="32.3906" width="303.313" height="54.9693" rx="4" fill="white"/>
</g>
<path d="M232.362 61.9097H233.81L235.386 65.0034H237.39L235.609 61.646C236.581 61.2651 237.144 60.3276 237.144 59.2437C237.144 57.5737 236.001 56.5483 234.144 56.5483H230.593V65.0034H232.362V61.9097ZM232.362 57.9312H233.898C234.777 57.9312 235.327 58.4468 235.327 59.2671C235.327 60.105 234.806 60.5913 233.915 60.5913H232.362V57.9312ZM241.749 65.8354H242.423V64.8979C244.087 64.7866 245.277 63.896 245.277 62.4253C245.277 61.1421 244.439 60.4976 242.839 60.1343L242.423 60.0464V57.978C243.079 58.0718 243.519 58.4351 243.601 59.0679H245.165C245.107 57.6851 244.052 56.771 242.423 56.6538V55.6987H241.749V56.6479C240.138 56.7476 238.984 57.6558 238.984 59.0562C238.984 60.3218 239.827 61.0073 241.357 61.353L241.749 61.4468V63.5854C240.952 63.4976 240.53 63.0815 240.437 62.4839H238.866C238.907 63.9487 240.103 64.8101 241.749 64.9038V65.8354ZM240.624 58.9038C240.624 58.4351 241.011 58.0542 241.749 57.9663V59.8882C240.958 59.6772 240.624 59.3726 240.624 58.9038ZM243.642 62.6069C243.642 63.1401 243.237 63.5034 242.423 63.5854V61.5991C243.331 61.8276 243.642 62.0913 243.642 62.6069ZM246.952 59.1147H248.593C248.593 58.2886 249.132 57.7085 249.993 57.7085C250.82 57.7085 251.3 58.2593 251.3 58.9507C251.3 59.5366 251.071 59.9233 250.017 60.9487L247.052 63.814V65.0034H253.152V63.5796H249.437V63.4741L251.195 61.7983C252.601 60.4624 253.034 59.7827 253.034 58.7925C253.034 57.3687 251.886 56.3315 250.093 56.3315C248.241 56.3315 246.952 57.4683 246.952 59.1147ZM255.911 65.1499C256.544 65.1499 256.948 64.728 256.948 64.1538C256.948 63.5796 256.544 63.1636 255.911 63.1636C255.284 63.1636 254.874 63.5796 254.874 64.1538C254.874 64.728 255.284 65.1499 255.911 65.1499ZM261.542 65.2202C263.634 65.2202 264.9 63.5679 264.9 60.7671C264.9 57.9604 263.616 56.3315 261.542 56.3315C259.462 56.3315 258.185 57.9604 258.185 60.7612C258.185 63.5679 259.45 65.2202 261.542 65.2202ZM261.542 63.8198C260.575 63.8198 259.978 62.7886 259.978 60.7612C259.978 58.7515 260.581 57.7319 261.542 57.7319C262.509 57.7319 263.107 58.7456 263.107 60.7612C263.107 62.7886 262.515 63.8198 261.542 63.8198ZM269.757 65.2202C271.849 65.2202 273.114 63.5679 273.114 60.7671C273.114 57.9604 271.831 56.3315 269.757 56.3315C267.677 56.3315 266.4 57.9604 266.4 60.7612C266.4 63.5679 267.665 65.2202 269.757 65.2202ZM269.757 63.8198C268.79 63.8198 268.193 62.7886 268.193 60.7612C268.193 58.7515 268.796 57.7319 269.757 57.7319C270.724 57.7319 271.321 58.7456 271.321 60.7612C271.321 62.7886 270.73 63.8198 269.757 63.8198ZM277.972 65.2202C280.064 65.2202 281.329 63.5679 281.329 60.7671C281.329 57.9604 280.046 56.3315 277.972 56.3315C275.892 56.3315 274.614 57.9604 274.614 60.7612C274.614 63.5679 275.88 65.2202 277.972 65.2202ZM277.972 63.8198C277.005 63.8198 276.407 62.7886 276.407 60.7612C276.407 58.7515 277.011 57.7319 277.972 57.7319C278.939 57.7319 279.536 58.7456 279.536 60.7612C279.536 62.7886 278.945 63.8198 277.972 63.8198ZM283.427 67.2769L284.493 63.6499H282.823L282.284 67.2769H283.427ZM289.175 65.2202C291.267 65.2202 292.532 63.5679 292.532 60.7671C292.532 57.9604 291.249 56.3315 289.175 56.3315C287.095 56.3315 285.818 57.9604 285.818 60.7612C285.818 63.5679 287.083 65.2202 289.175 65.2202ZM289.175 63.8198C288.208 63.8198 287.611 62.7886 287.611 60.7612C287.611 58.7515 288.214 57.7319 289.175 57.7319C290.142 57.7319 290.739 58.7456 290.739 60.7612C290.739 62.7886 290.148 63.8198 289.175 63.8198ZM297.39 65.2202C299.482 65.2202 300.747 63.5679 300.747 60.7671C300.747 57.9604 299.464 56.3315 297.39 56.3315C295.31 56.3315 294.032 57.9604 294.032 60.7612C294.032 63.5679 295.298 65.2202 297.39 65.2202ZM297.39 63.8198C296.423 63.8198 295.825 62.7886 295.825 60.7612C295.825 58.7515 296.429 57.7319 297.39 57.7319C298.357 57.7319 298.954 58.7456 298.954 60.7612C298.954 62.7886 298.362 63.8198 297.39 63.8198Z" fill="#39464D"/>
<path d="M43.5078 68.5105H45.5879L47.3984 71.8562H48.6348L46.6777 68.3464C47.7383 68.0125 48.377 67.0984 48.377 65.9207C48.377 64.3972 47.3105 63.4011 45.6816 63.4011H42.4531V71.8562H43.5078V68.5105ZM43.5078 64.3386H45.541C46.6309 64.3386 47.2871 64.9421 47.2871 65.9558C47.2871 66.9929 46.6719 67.573 45.5879 67.573H43.5078V64.3386ZM54.1719 70.2214C53.9082 70.7781 53.3574 71.0769 52.543 71.0769C51.4707 71.0769 50.7734 70.2859 50.7207 69.0378V68.991H55.2617V68.6042C55.2617 66.6414 54.2246 65.4285 52.5195 65.4285C50.7852 65.4285 49.6719 66.7175 49.6719 68.7039C49.6719 70.7019 50.7676 71.9675 52.5195 71.9675C53.9023 71.9675 54.8867 71.2996 55.1797 70.2214H54.1719ZM52.5078 66.3191C53.5098 66.3191 54.1777 67.0574 54.2012 68.1765H50.7207C50.7969 67.0574 51.5 66.3191 52.5078 66.3191ZM62.0703 67.4734C61.8945 66.3484 60.957 65.4285 59.4219 65.4285C57.6523 65.4285 56.5273 66.7058 56.5273 68.6746C56.5273 70.6843 57.6582 71.9675 59.4277 71.9675C60.9453 71.9675 61.8887 71.1121 62.0703 69.9519H61.0508C60.8633 70.6667 60.2715 71.0593 59.4219 71.0593C58.2969 71.0593 57.5703 70.1335 57.5703 68.6746C57.5703 67.2449 58.2852 66.3367 59.4219 66.3367C60.3301 66.3367 60.8867 66.8464 61.0508 67.4734H62.0703ZM67.7422 70.2214C67.4785 70.7781 66.9277 71.0769 66.1133 71.0769C65.041 71.0769 64.3438 70.2859 64.291 69.0378V68.991H68.832V68.6042C68.832 66.6414 67.7949 65.4285 66.0898 65.4285C64.3555 65.4285 63.2422 66.7175 63.2422 68.7039C63.2422 70.7019 64.3379 71.9675 66.0898 71.9675C67.4727 71.9675 68.457 71.2996 68.75 70.2214H67.7422ZM66.0781 66.3191C67.0801 66.3191 67.748 67.0574 67.7715 68.1765H64.291C64.3672 67.0574 65.0703 66.3191 66.0781 66.3191ZM73.5547 71.9675C75.1543 71.9675 76.2031 70.6726 76.2031 68.698C76.2031 66.7117 75.1602 65.4285 73.5547 65.4285C72.6875 65.4285 71.9199 65.8562 71.5742 66.5359H71.4805V63.032H70.4727V71.8562H71.4336V70.8484H71.5273C71.9258 71.5515 72.6758 71.9675 73.5547 71.9675ZM73.3203 66.3367C74.4746 66.3367 75.1602 67.2214 75.1602 68.698C75.1602 70.1746 74.4746 71.0593 73.3203 71.0593C72.1719 71.0593 71.457 70.157 71.457 68.698C71.457 67.239 72.1719 66.3367 73.3203 66.3367ZM78.3125 64.321C78.6992 64.321 79.0156 64.0046 79.0156 63.6179C79.0156 63.2312 78.6992 62.9148 78.3125 62.9148C77.9258 62.9148 77.6094 63.2312 77.6094 63.6179C77.6094 64.0046 77.9258 64.321 78.3125 64.321ZM77.8086 71.8562H78.8164V65.5398H77.8086V71.8562ZM80.7383 71.8562H81.7461V67.9421C81.7461 67.0515 82.3848 66.3367 83.2109 66.3367C84.0078 66.3367 84.5293 66.8171 84.5293 67.5671V71.8562H85.5371V67.7957C85.5371 66.9929 86.123 66.3367 87.002 66.3367C87.8926 66.3367 88.332 66.7937 88.332 67.7253V71.8562H89.3398V67.491C89.3398 66.1667 88.6191 65.4285 87.3301 65.4285C86.457 65.4285 85.7363 65.8679 85.3965 66.5359H85.3027C85.0098 65.8796 84.4121 65.4285 83.5566 65.4285C82.7129 65.4285 82.0801 65.8328 81.793 66.5359H81.6992V65.5398H80.7383V71.8562ZM95.3633 70.2214C95.0996 70.7781 94.5488 71.0769 93.7344 71.0769C92.6621 71.0769 91.9648 70.2859 91.9121 69.0378V68.991H96.4531V68.6042C96.4531 66.6414 95.416 65.4285 93.7109 65.4285C91.9766 65.4285 90.8633 66.7175 90.8633 68.7039C90.8633 70.7019 91.959 71.9675 93.7109 71.9675C95.0938 71.9675 96.0781 71.2996 96.3711 70.2214H95.3633ZM93.6992 66.3191C94.7012 66.3191 95.3691 67.0574 95.3926 68.1765H91.9121C91.9883 67.0574 92.6914 66.3191 93.6992 66.3191ZM98.0352 71.8562H99.043V68.1179C99.043 67.0105 99.6934 66.3367 100.701 66.3367C101.709 66.3367 102.189 66.8757 102.189 68.0125V71.8562H103.197V67.7664C103.197 66.2664 102.406 65.4285 100.988 65.4285C100.021 65.4285 99.4062 65.8386 99.0898 66.5359H98.9961V65.5398H98.0352V71.8562ZM105.465 63.905V65.5398H104.445V66.3835H105.465V70.2156C105.465 71.4226 105.986 71.9031 107.287 71.9031C107.486 71.9031 107.68 71.8796 107.879 71.8445V70.9949C107.691 71.0125 107.592 71.0183 107.41 71.0183C106.754 71.0183 106.473 70.7019 106.473 69.9578V66.3835H107.879V65.5398H106.473V63.905H105.465ZM111.904 71.9675C113.703 71.9675 114.816 70.7253 114.816 68.698C114.816 66.6648 113.703 65.4285 111.904 65.4285C110.105 65.4285 108.992 66.6648 108.992 68.698C108.992 70.7253 110.105 71.9675 111.904 71.9675ZM111.904 71.0593C110.709 71.0593 110.035 70.1921 110.035 68.698C110.035 67.198 110.709 66.3367 111.904 66.3367C113.1 66.3367 113.773 67.198 113.773 68.698C113.773 70.1921 113.1 71.0593 111.904 71.0593ZM122.123 71.9675C122.996 71.9675 123.746 71.5515 124.145 70.8484H124.238V71.8562H125.199V63.032H124.191V66.5359H124.104C123.746 65.8445 123.002 65.4285 122.123 65.4285C120.518 65.4285 119.469 66.7175 119.469 68.698C119.469 70.6843 120.506 71.9675 122.123 71.9675ZM122.357 66.3367C123.5 66.3367 124.215 67.2507 124.215 68.698C124.215 70.157 123.506 71.0593 122.357 71.0593C121.203 71.0593 120.512 70.1746 120.512 68.698C120.512 67.2273 121.209 66.3367 122.357 66.3367ZM128.914 71.9675C129.758 71.9675 130.449 71.5984 130.859 70.9246H130.953V71.8562H131.914V67.532C131.914 66.2195 131.053 65.4285 129.512 65.4285C128.164 65.4285 127.168 66.0964 127.033 67.1101H128.053C128.193 66.6121 128.721 66.325 129.477 66.325C130.42 66.325 130.906 66.7527 130.906 67.532V68.1062L129.084 68.2175C127.613 68.3054 126.781 68.9558 126.781 70.0867C126.781 71.241 127.689 71.9675 128.914 71.9675ZM129.102 71.0828C128.369 71.0828 127.824 70.7078 127.824 70.0632C127.824 69.4304 128.246 69.0964 129.207 69.032L130.906 68.9207V69.5007C130.906 70.4031 130.139 71.0828 129.102 71.0828ZM133.631 67.2683C133.631 68.1824 134.17 68.6921 135.354 68.9792L136.438 69.2429C137.111 69.407 137.439 69.7 137.439 70.1335C137.439 70.7136 136.83 71.1179 135.98 71.1179C135.172 71.1179 134.668 70.7781 134.498 70.2449H133.461C133.572 71.2937 134.539 71.9675 135.945 71.9675C137.381 71.9675 138.477 71.1882 138.477 70.0574C138.477 69.1492 137.902 68.6335 136.713 68.3464L135.74 68.1121C134.996 67.9304 134.645 67.6609 134.645 67.2273C134.645 66.6648 135.23 66.2839 135.98 66.2839C136.742 66.2839 137.234 66.6179 137.369 67.1218H138.365C138.23 66.0847 137.311 65.4285 135.986 65.4285C134.645 65.4285 133.631 66.2195 133.631 67.2683ZM148.602 65.5398H147.523L145.795 70.7429H145.701L143.973 65.5398H142.895L145.232 71.8562H146.264L148.602 65.5398ZM153.898 70.2214C153.635 70.7781 153.084 71.0769 152.27 71.0769C151.197 71.0769 150.5 70.2859 150.447 69.0378V68.991H154.988V68.6042C154.988 66.6414 153.951 65.4285 152.246 65.4285C150.512 65.4285 149.398 66.7175 149.398 68.7039C149.398 70.7019 150.494 71.9675 152.246 71.9675C153.629 71.9675 154.613 71.2996 154.906 70.2214H153.898ZM152.234 66.3191C153.236 66.3191 153.904 67.0574 153.928 68.1765H150.447C150.523 67.0574 151.227 66.3191 152.234 66.3191ZM156.57 71.8562H157.578V68.1179C157.578 67.0105 158.229 66.3367 159.236 66.3367C160.244 66.3367 160.725 66.8757 160.725 68.0125V71.8562H161.732V67.7664C161.732 66.2664 160.941 65.4285 159.523 65.4285C158.557 65.4285 157.941 65.8386 157.625 66.5359H157.531V65.5398H156.57V71.8562ZM165.916 71.9675C166.789 71.9675 167.539 71.5515 167.938 70.8484H168.031V71.8562H168.992V63.032H167.984V66.5359H167.896C167.539 65.8445 166.795 65.4285 165.916 65.4285C164.311 65.4285 163.262 66.7175 163.262 68.698C163.262 70.6843 164.299 71.9675 165.916 71.9675ZM166.15 66.3367C167.293 66.3367 168.008 67.2507 168.008 68.698C168.008 70.157 167.299 71.0593 166.15 71.0593C164.996 71.0593 164.305 70.1746 164.305 68.698C164.305 67.2273 165.002 66.3367 166.15 66.3367ZM172.707 71.9675C173.551 71.9675 174.242 71.5984 174.652 70.9246H174.746V71.8562H175.707V67.532C175.707 66.2195 174.846 65.4285 173.305 65.4285C171.957 65.4285 170.961 66.0964 170.826 67.1101H171.846C171.986 66.6121 172.514 66.325 173.27 66.325C174.213 66.325 174.699 66.7527 174.699 67.532V68.1062L172.877 68.2175C171.406 68.3054 170.574 68.9558 170.574 70.0867C170.574 71.241 171.482 71.9675 172.707 71.9675ZM172.895 71.0828C172.162 71.0828 171.617 70.7078 171.617 70.0632C171.617 69.4304 172.039 69.0964 173 69.032L174.699 68.9207V69.5007C174.699 70.4031 173.932 71.0828 172.895 71.0828ZM177.424 67.2683C177.424 68.1824 177.963 68.6921 179.146 68.9792L180.23 69.2429C180.904 69.407 181.232 69.7 181.232 70.1335C181.232 70.7136 180.623 71.1179 179.773 71.1179C178.965 71.1179 178.461 70.7781 178.291 70.2449H177.254C177.365 71.2937 178.332 71.9675 179.738 71.9675C181.174 71.9675 182.27 71.1882 182.27 70.0574C182.27 69.1492 181.695 68.6335 180.506 68.3464L179.533 68.1121C178.789 67.9304 178.438 67.6609 178.438 67.2273C178.438 66.6648 179.023 66.2839 179.773 66.2839C180.535 66.2839 181.027 66.6179 181.162 67.1218H182.158C182.023 66.0847 181.104 65.4285 179.779 65.4285C178.438 65.4285 177.424 66.2195 177.424 67.2683Z" fill="#39464D"/>
<path d="M47.5859 53.2383H43.5078V45.7324H42.4531V54.1875H47.5859V53.2383ZM50.9023 54.2988C51.7461 54.2988 52.4375 53.9297 52.8477 53.2559H52.9414V54.1875H53.9023V49.8633C53.9023 48.5508 53.041 47.7598 51.5 47.7598C50.1523 47.7598 49.1562 48.4277 49.0215 49.4414H50.041C50.1816 48.9434 50.709 48.6562 51.4648 48.6562C52.4082 48.6562 52.8945 49.084 52.8945 49.8633V50.4375L51.0723 50.5488C49.6016 50.6367 48.7695 51.2871 48.7695 52.418C48.7695 53.5723 49.6777 54.2988 50.9023 54.2988ZM51.0898 53.4141C50.3574 53.4141 49.8125 53.0391 49.8125 52.3945C49.8125 51.7617 50.2344 51.4277 51.1953 51.3633L52.8945 51.252V51.832C52.8945 52.7344 52.127 53.4141 51.0898 53.4141ZM55.7656 54.1875H56.7734V50.4492C56.7734 49.3418 57.4238 48.668 58.4316 48.668C59.4395 48.668 59.9199 49.207 59.9199 50.3438V54.1875H60.9277V50.0977C60.9277 48.5977 60.1367 47.7598 58.7188 47.7598C57.752 47.7598 57.1367 48.1699 56.8203 48.8672H56.7266V47.8711H55.7656V54.1875ZM64.5957 55.5938H64.9531C65.5332 55.5938 65.8262 55.6699 65.8262 55.9512C65.8262 56.25 65.4453 56.3438 65.0762 56.3438C64.7891 56.3438 64.5078 56.291 64.4141 56.2676V56.9473C64.7012 57.0117 64.9883 57.0527 65.2637 57.0527C66.0605 57.0527 66.7812 56.7363 66.7812 55.916C66.7812 55.3125 66.2715 54.9609 65.4746 54.9609L65.8906 54.2637C67.0918 54.0879 67.8418 53.3027 68 52.2832H66.9805C66.793 52.998 66.2012 53.3906 65.3516 53.3906C64.2266 53.3906 63.5 52.4648 63.5 51.0059C63.5 49.5762 64.2148 48.668 65.3516 48.668C66.2598 48.668 66.8164 49.1777 66.9805 49.8047H68C67.8242 48.6797 66.8867 47.7598 65.3516 47.7598C63.582 47.7598 62.457 49.0371 62.457 51.0059C62.457 52.8926 63.4531 54.1348 65.0352 54.2871L64.5957 55.0664V55.5938ZM71.2461 54.2988C72.0898 54.2988 72.7812 53.9297 73.1914 53.2559H73.2852V54.1875H74.2461V49.8633C74.2461 48.5508 73.3848 47.7598 71.8438 47.7598C70.4961 47.7598 69.5 48.4277 69.3652 49.4414H70.3848C70.5254 48.9434 71.0527 48.6562 71.8086 48.6562C72.752 48.6562 73.2383 49.084 73.2383 49.8633V50.4375L71.416 50.5488C69.9453 50.6367 69.1133 51.2871 69.1133 52.418C69.1133 53.5723 70.0215 54.2988 71.2461 54.2988ZM71.4336 53.4141C70.7012 53.4141 70.1562 53.0391 70.1562 52.3945C70.1562 51.7617 70.5781 51.4277 71.5391 51.3633L73.2383 51.252V51.832C73.2383 52.7344 72.4707 53.4141 71.4336 53.4141ZM76.1094 54.1875H77.1172V50.2734C77.1172 49.3828 77.7559 48.668 78.582 48.668C79.3789 48.668 79.9004 49.1484 79.9004 49.8984V54.1875H80.9082V50.127C80.9082 49.3242 81.4941 48.668 82.373 48.668C83.2637 48.668 83.7031 49.125 83.7031 50.0566V54.1875H84.7109V49.8223C84.7109 48.498 83.9902 47.7598 82.7012 47.7598C81.8281 47.7598 81.1074 48.1992 80.7676 48.8672H80.6738C80.3809 48.2109 79.7832 47.7598 78.9277 47.7598C78.084 47.7598 77.4512 48.1641 77.1641 48.8672H77.0703V47.8711H76.1094V54.1875ZM90.7344 52.5527C90.4707 53.1094 89.9199 53.4082 89.1055 53.4082C88.0332 53.4082 87.3359 52.6172 87.2832 51.3691V51.3223H91.8242V50.9355C91.8242 48.9727 90.7871 47.7598 89.082 47.7598C87.3477 47.7598 86.2344 49.0488 86.2344 51.0352C86.2344 53.0332 87.3301 54.2988 89.082 54.2988C90.4648 54.2988 91.4492 53.6309 91.7422 52.5527H90.7344ZM89.0703 48.6504C90.0723 48.6504 90.7402 49.3887 90.7637 50.5078H87.2832C87.3594 49.3887 88.0625 48.6504 89.0703 48.6504ZM93.4062 54.1875H94.4141V50.4492C94.4141 49.3418 95.0645 48.668 96.0723 48.668C97.0801 48.668 97.5605 49.207 97.5605 50.3438V54.1875H98.5684V50.0977C98.5684 48.5977 97.7773 47.7598 96.3594 47.7598C95.3926 47.7598 94.7773 48.1699 94.4609 48.8672H94.3672V47.8711H93.4062V54.1875ZM100.836 46.2363V47.8711H99.8164V48.7148H100.836V52.5469C100.836 53.7539 101.357 54.2344 102.658 54.2344C102.857 54.2344 103.051 54.2109 103.25 54.1758V53.3262C103.062 53.3438 102.963 53.3496 102.781 53.3496C102.125 53.3496 101.844 53.0332 101.844 52.2891V48.7148H103.25V47.8711H101.844V46.2363H100.836ZM107.275 54.2988C109.074 54.2988 110.188 53.0566 110.188 51.0293C110.188 48.9961 109.074 47.7598 107.275 47.7598C105.477 47.7598 104.363 48.9961 104.363 51.0293C104.363 53.0566 105.477 54.2988 107.275 54.2988ZM107.275 53.3906C106.08 53.3906 105.406 52.5234 105.406 51.0293C105.406 49.5293 106.08 48.668 107.275 48.668C108.471 48.668 109.145 49.5293 109.145 51.0293C109.145 52.5234 108.471 53.3906 107.275 53.3906ZM115.285 45.7324V54.1875H116.34V51.1699H118.467C120.055 51.1699 121.186 50.0508 121.186 48.4688C121.186 46.8574 120.078 45.7324 118.479 45.7324H115.285ZM116.34 46.6699H118.203C119.428 46.6699 120.102 47.3086 120.102 48.4688C120.102 49.5879 119.404 50.2324 118.203 50.2324H116.34V46.6699ZM123.312 46.6523C123.699 46.6523 124.016 46.3359 124.016 45.9492C124.016 45.5625 123.699 45.2461 123.312 45.2461C122.926 45.2461 122.609 45.5625 122.609 45.9492C122.609 46.3359 122.926 46.6523 123.312 46.6523ZM122.809 54.1875H123.816V47.8711H122.809V54.1875ZM130.965 49.8047C130.789 48.6797 129.852 47.7598 128.316 47.7598C126.547 47.7598 125.422 49.0371 125.422 51.0059C125.422 53.0156 126.553 54.2988 128.322 54.2988C129.84 54.2988 130.783 53.4434 130.965 52.2832H129.945C129.758 52.998 129.166 53.3906 128.316 53.3906C127.191 53.3906 126.465 52.4648 126.465 51.0059C126.465 49.5762 127.18 48.668 128.316 48.668C129.225 48.668 129.781 49.1777 129.945 49.8047H130.965ZM132.582 45.7324V54.1875H133.637V51.1699H135.764C137.352 51.1699 138.482 50.0508 138.482 48.4688C138.482 46.8574 137.375 45.7324 135.775 45.7324H132.582ZM133.637 46.6699H135.5C136.725 46.6699 137.398 47.3086 137.398 48.4688C137.398 49.5879 136.701 50.2324 135.5 50.2324H133.637V46.6699ZM141.605 54.2988C142.449 54.2988 143.141 53.9297 143.551 53.2559H143.645V54.1875H144.605V49.8633C144.605 48.5508 143.744 47.7598 142.203 47.7598C140.855 47.7598 139.859 48.4277 139.725 49.4414H140.744C140.885 48.9434 141.412 48.6562 142.168 48.6562C143.111 48.6562 143.598 49.084 143.598 49.8633V50.4375L141.775 50.5488C140.305 50.6367 139.473 51.2871 139.473 52.418C139.473 53.5723 140.381 54.2988 141.605 54.2988ZM141.793 53.4141C141.061 53.4141 140.516 53.0391 140.516 52.3945C140.516 51.7617 140.938 51.4277 141.898 51.3633L143.598 51.252V51.832C143.598 52.7344 142.83 53.4141 141.793 53.4141ZM146.773 56.4727C147.893 56.4727 148.396 56.0391 148.936 54.5742L151.402 47.8711H150.33L148.602 53.0684H148.508L146.773 47.8711H145.684L148.021 54.1934L147.904 54.5684C147.641 55.3301 147.324 55.6055 146.744 55.6055C146.604 55.6055 146.445 55.5996 146.322 55.5762V56.4375C146.463 56.4609 146.639 56.4727 146.773 56.4727Z" fill="#6C7980"/>
<rect width="15.7055" height="15.7055" transform="translate(17.8164 49.0786)" fill="white"/>
<path fill-rule="evenodd" clip-rule="evenodd" d="M27.1685 57.7717L26.3244 58.6224L26.3244 51.0379C26.3244 50.8644 26.2554 50.6979 26.1327 50.5752C26.01 50.4525 25.8435 50.3835 25.67 50.3835C25.4964 50.3835 25.33 50.4525 25.2072 50.5752C25.0845 50.6979 25.0156 50.8644 25.0156 51.0379L25.0156 58.6224L24.1714 57.7717C24.1106 57.7104 24.0382 57.6617 23.9584 57.6284C23.8787 57.5952 23.7932 57.5781 23.7068 57.5781C23.6204 57.5781 23.5349 57.5952 23.4551 57.6284C23.3754 57.6617 23.303 57.7104 23.2422 57.7717C23.1808 57.8325 23.1321 57.9049 23.0989 57.9846C23.0657 58.0644 23.0486 58.1499 23.0486 58.2363C23.0486 58.3227 23.0657 58.4082 23.0989 58.488C23.1321 58.5677 23.1808 58.6401 23.2422 58.7009L25.2053 60.6641C25.2662 60.7255 25.3386 60.7741 25.4183 60.8074C25.498 60.8406 25.5836 60.8577 25.67 60.8577C25.7564 60.8577 25.8419 60.8406 25.9216 60.8074C26.0014 60.7741 26.0738 60.7255 26.1346 60.6641L28.0978 58.7009C28.221 58.5777 28.2902 58.4106 28.2902 58.2363C28.2902 58.062 28.221 57.8949 28.0978 57.7717C27.9746 57.6485 27.8074 57.5792 27.6332 57.5792C27.4589 57.5792 27.2918 57.6485 27.1685 57.7717ZM28.2865 54.9681H29.5952C30.1159 54.9681 30.6153 55.175 30.9834 55.5431C31.3516 55.9113 31.5584 56.4106 31.5584 56.9313L31.5584 61.5121C31.5584 62.0328 31.3516 62.5321 30.9834 62.9003C30.6153 63.2684 30.1159 63.4753 29.5952 63.4753H21.7425C21.2218 63.4753 20.7225 63.2684 20.3543 62.9003C19.9861 62.5321 19.7793 62.0328 19.7793 61.5121L19.7793 56.9313C19.7793 56.4106 19.9861 55.9113 20.3543 55.5431C20.7225 55.175 21.2218 54.9681 21.7425 54.9681H23.0513C23.2248 54.9681 23.3913 55.0371 23.514 55.1598C23.6367 55.2825 23.7057 55.449 23.7057 55.6225C23.7057 55.7961 23.6367 55.9625 23.514 56.0852C23.3913 56.208 23.2248 56.2769 23.0513 56.2769H21.7425C21.5689 56.2769 21.4025 56.3459 21.2798 56.4686C21.157 56.5913 21.0881 56.7578 21.0881 56.9313L21.0881 61.5121C21.0881 61.6856 21.157 61.8521 21.2798 61.9748C21.4025 62.0975 21.5689 62.1665 21.7425 62.1665H29.5952C29.7688 62.1665 29.9353 62.0975 30.058 61.9748C30.1807 61.8521 30.2496 61.6856 30.2496 61.5121L30.2496 56.9313C30.2496 56.7578 30.1807 56.5913 30.058 56.4686C29.9353 56.3459 29.7688 56.2769 29.5952 56.2769H28.2865C28.1129 56.2769 27.9464 56.208 27.8237 56.0852C27.701 55.9625 27.6321 55.7961 27.6321 55.6225C27.6321 55.449 27.701 55.2825 27.8237 55.1598C27.9464 55.0371 28.1129 54.9681 28.2865 54.9681Z" fill="#00AC4A"/>
<defs>
<filter id="filter0_ddd" x="0" y="83.2883" width="319.313" height="73.9693" filterUnits="userSpaceOnUse" color-interpolation-filters="sRGB">
<feFlood flood-opacity="0" result="BackgroundImageFix"/>
<feColorMatrix in="SourceAlpha" type="matrix" values="0 0 0 0 0 0 0 0 0 0 0 0 0 0 0 0 0 0 127 0"/>
<feOffset/>
<feGaussianBlur stdDeviation="4"/>
<feColorMatrix type="matrix" values="0 0 0 0 0 0 0 0 0 0 0 0 0 0 0 0 0 0 0.04 0"/>
<feBlend mode="normal" in2="BackgroundImageFix" result="effect1_dropShadow"/>
<feColorMatrix in="SourceAlpha" type="matrix" values="0 0 0 0 0 0 0 0 0 0 0 0 0 0 0 0 0 0 127 0"/>
<feOffset dy="3"/>
<feGaussianBlur stdDeviation="4"/>
<feColorMatrix type="matrix" values="0 0 0 0 0 0 0 0 0 0 0 0 0 0 0 0 0 0 0.04 0"/>
<feBlend mode="normal" in2="effect1_dropShadow" result="effect2_dropShadow"/>
<feColorMatrix in="SourceAlpha" type="matrix" values="0 0 0 0 0 0 0 0 0 0 0 0 0 0 0 0 0 0 127 0"/>
<feOffset dy="1"/>
<feGaussianBlur stdDeviation="1.5"/>
<feColorMatrix type="matrix" values="0 0 0 0 0 0 0 0 0 0 0 0 0 0 0 0 0 0 0.04 0"/>
<feBlend mode="normal" in2="effect2_dropShadow" result="effect3_dropShadow"/>
<feBlend mode="normal" in="SourceGraphic" in2="effect3_dropShadow" result="shape"/>
</filter>
<filter id="filter1_ddd" x="0" y="24.3906" width="319.313" height="73.9693" filterUnits="userSpaceOnUse" color-interpolation-filters="sRGB">
<feFlood flood-opacity="0" result="BackgroundImageFix"/>
<feColorMatrix in="SourceAlpha" type="matrix" values="0 0 0 0 0 0 0 0 0 0 0 0 0 0 0 0 0 0 127 0"/>
<feOffset/>
<feGaussianBlur stdDeviation="4"/>
<feColorMatrix type="matrix" values="0 0 0 0 0 0 0 0 0 0 0 0 0 0 0 0 0 0 0.04 0"/>
<feBlend mode="normal" in2="BackgroundImageFix" result="effect1_dropShadow"/>
<feColorMatrix in="SourceAlpha" type="matrix" values="0 0 0 0 0 0 0 0 0 0 0 0 0 0 0 0 0 0 127 0"/>
<feOffset dy="3"/>
<feGaussianBlur stdDeviation="4"/>
<feColorMatrix type="matrix" values="0 0 0 0 0 0 0 0 0 0 0 0 0 0 0 0 0 0 0.04 0"/>
<feBlend mode="normal" in2="effect1_dropShadow" result="effect2_dropShadow"/>
<feColorMatrix in="SourceAlpha" type="matrix" values="0 0 0 0 0 0 0 0 0 0 0 0 0 0 0 0 0 0 127 0"/>
<feOffset dy="1"/>
<feGaussianBlur stdDeviation="1.5"/>
<feColorMatrix type="matrix" values="0 0 0 0 0 0 0 0 0 0 0 0 0 0 0 0 0 0 0.04 0"/>
<feBlend mode="normal" in2="effect2_dropShadow" result="effect3_dropShadow"/>
<feBlend mode="normal" in="SourceGraphic" in2="effect3_dropShadow" result="shape"/>
</filter>
</defs>
</svg>
