<svg width="124" height="40" viewBox="0 0 124 40" fill="none" xmlns="http://www.w3.org/2000/svg">
<path fill-rule="evenodd" clip-rule="evenodd" d="M46.1114 27.8597C43.2805 27.8597 41.2801 25.6322 41.2801 22.3478C41.2801 19.1011 43.2805 16.9114 46.1114 16.9114C48.1118 16.8737 49.6594 17.7042 50.7541 19.0632L54.6795 16.2318C52.8677 13.5137 49.7726 11.9657 45.8848 11.9657C39.6569 11.9657 35.4673 16.1563 35.4673 22.3857C35.4673 28.5392 39.6569 32.692 45.8095 32.692C49.9614 32.692 53.1319 31.0309 54.8307 28.1995L50.8295 25.4814C49.8103 27.0671 48.1873 27.8597 46.1114 27.8597ZM95.3646 25.5191C94.7494 27.2557 93.0788 28.5769 90.6252 28.5769C88.6626 28.5769 87.4441 27.5505 87.4441 26.0026C87.4441 24.3792 88.5282 23.6923 90.755 23.6923H95.3646V25.5191ZM91.9544 11.928C88.4064 11.928 85.8018 12.7586 82.7825 14.2688L84.5941 18.2705C86.7078 17.1002 88.8428 16.496 90.6544 16.496C93.4475 16.496 94.9032 17.742 94.9032 19.8938V20.3077H89.2744C84.2922 20.3077 81.5369 22.5926 81.5369 26.4055C81.5369 30.1054 84.1813 32.7389 88.522 32.7389C91.3528 32.7389 93.365 31.786 94.9032 30.0872V32.3077H100.598L100.56 19.1354C100.522 14.5674 97.3894 11.928 91.9544 11.928ZM118.033 12L113.047 24.6088L108.072 12H102.07L110.019 32.2637L106.96 40H113.046L124 12H118.033ZM69.3158 5.84615H63.9866V10.7692H69.014C72.3354 10.7692 74.2227 12.3831 74.2227 15.3278C74.2227 18.3482 72.3354 20 69.014 20H63.9866V10.7692H58.1417V32.3077H63.9866V24.9231H69.3158C76.0345 24.9231 79.8843 21.274 79.8843 15.1203C79.8843 9.26862 76.0345 5.84615 69.3158 5.84615ZM27.4813 9.74354H35.2746V1.94862H27.4813V9.74354ZM25.5331 11.6923H37.223V0H25.5331V11.6923ZM11.3836 5.84615H5.84493V10.7692H11.0815C14.4031 10.7692 16.2904 12.3831 16.2904 15.3278C16.2904 18.3482 14.4031 20 11.0815 20H5.84493V10.7692H0V32.3077H5.84493V24.9231H11.3836C18.1021 24.9231 21.952 21.274 21.952 15.1203C21.952 9.26862 18.1021 5.84615 11.3836 5.84615ZM29.4297 7.79477H33.3262V3.89738H29.4297V7.79477ZM25.5331 32.3077H31.378V15.3846H25.5331V32.3077Z" fill="#21C25E"/>
</svg>
