<svg width="35" height="32" viewBox="0 0 35 32" fill="none" xmlns="http://www.w3.org/2000/svg">
<path fill-rule="evenodd" clip-rule="evenodd" d="M1.6 0H17.3135C28.5918 0 35 5.59467 35 15.8032C35 26.2736 28.5918 32 17.3135 32H1.6C0.716345 32 0 31.2837 0 30.4V25H2.32795V17.5801H7.03192C9.17857 17.5801 10.8492 17.0387 12.0439 15.9561C13.2385 14.8734 13.8359 13.3614 13.8359 11.4201C13.8359 9.47879 13.2385 7.9668 12.0439 6.88414C10.8492 5.80148 9.17857 5.26015 7.03192 5.26015H0V1.6C0 0.716345 0.716344 0 1.6 0ZM9.7479 11.4481C9.7479 13.3334 8.6559 14.2761 6.47192 14.2761H2.32795V8.59213H6.47192C7.57325 8.59213 8.39457 8.82546 8.9359 9.29212C9.47723 9.75878 9.7479 10.4774 9.7479 11.4481ZM27.7014 11.8401C26.7868 11.2241 25.7415 10.9161 24.5655 10.9161C23.6135 10.9161 22.7548 11.1214 21.9895 11.5321C21.2242 11.9241 20.6362 12.4748 20.2255 13.1841V11.2521H16.0535V30.04H20.2815V23.04C20.6922 23.7307 21.2708 24.272 22.0175 24.664C22.7828 25.0373 23.6321 25.224 24.5655 25.224C25.7601 25.224 26.8148 24.9347 27.7294 24.356C28.6441 23.7773 29.3534 22.956 29.8574 21.892C30.3801 20.8094 30.6414 19.5587 30.6414 18.1401C30.6414 16.7214 30.3801 15.4707 29.8574 14.3881C29.3534 13.2868 28.6348 12.4374 27.7014 11.8401ZM25.6295 21.024C25.0881 21.6774 24.3228 22.004 23.3335 22.004C22.3442 22.004 21.5788 21.668 21.0375 20.996C20.4962 20.3054 20.2255 19.3347 20.2255 18.0841C20.2255 16.8147 20.4962 15.8441 21.0375 15.1721C21.5788 14.4814 22.3442 14.1361 23.3335 14.1361C24.3228 14.1361 25.0881 14.4907 25.6295 15.2001C26.1708 15.8907 26.4415 16.8707 26.4415 18.1401C26.4415 19.3907 26.1708 20.352 25.6295 21.024Z" fill="#58D289"/>
</svg>