<svg width="0" height="0" class="hidden">
  <symbol viewBox="0 0 24 24" fill="none" xmlns="http://www.w3.org/2000/svg" id="brand-android-alt">
    <path d="M2.992 9a1 1 0 0 0-1 1v4a1 1 0 0 0 2 0v-4a1 1 0 0 0-1-1zm18 0a1 1 0 0 0-1 1v4a1 1 0 0 0 2 0v-4a1.001 1.001 0 0 0-1-1zm-4.135-5.5a1 1 0 1 0-1.731-1l-.614 1.063a5.927 5.927 0 0 0-5.04 0L8.857 2.5a1 1 0 1 0-1.731 1l.692 1.198A5.979 5.979 0 0 0 5.992 9v8a1 1 0 0 0 1 1h2v3a1 1 0 0 0 2 0v-3h2v3a1 1 0 0 0 2 0v-3h2a1 1 0 0 0 1-1V9a5.978 5.978 0 0 0-1.827-4.302l.692-1.198zM15.992 16h-8v-5h8v5zm-8-7a4 4 0 0 1 8 0h-8z" fill="currentColor"></path>
  </symbol>
  <symbol viewBox="0 0 24 24" fill="none" xmlns="http://www.w3.org/2000/svg" id="brand-android">
    <path d="M14.975 3.019l.96-1.732a.194.194 0 0 0-.075-.263.193.193 0 0 0-.263.076l-.97 1.75a6.541 6.541 0 0 0-5.253 0l-.97-1.75a.193.193 0 0 0-.34.187l.96 1.732a5.546 5.546 0 0 0-3.092 4.876h12.137a5.545 5.545 0 0 0-3.094-4.876zM9.2 5.674a.507.507 0 1 1 0-1.013.507.507 0 0 1 0 1.013zm5.602 0a.507.507 0 1 1 0-1.013.507.507 0 0 1 0 1.013zM5.93 17.171A1.467 1.467 0 0 0 7.4 18.64h.973v3a1.36 1.36 0 1 0 2.721 0v-3h1.814v3a1.361 1.361 0 1 0 2.72 0v-3h.975a1.467 1.467 0 0 0 1.467-1.468V8.375H5.93v8.796zm-1.867-9.03a1.362 1.362 0 0 0-1.36 1.361v5.669a1.36 1.36 0 1 0 2.72 0V9.502a1.362 1.362 0 0 0-1.36-1.36zm15.872 0a1.362 1.362 0 0 0-1.36 1.361v5.669a1.36 1.36 0 1 0 2.72 0V9.502a1.362 1.362 0 0 0-1.36-1.36z" fill="currentColor"></path>
  </symbol>
  <symbol viewBox="0 0 24 24" fill="none" xmlns="http://www.w3.org/2000/svg" id="brand-apple-alt">
    <path d="M20.504 15.744a3.386 3.386 0 0 1-2.054-3.127 3.498 3.498 0 0 1 1.687-2.947 1 1 0 0 0 .3-1.415 5.574 5.574 0 0 0-4.016-2.385 6.422 6.422 0 0 0 .965-3.977.984.984 0 0 0-1.034-.892 6.69 6.69 0 0 0-4.443 2.261 6.842 6.842 0 0 0-1.48 2.9 5.263 5.263 0 0 0-1.62-.278 5.925 5.925 0 0 0-4.99 3.008c-1.888 3.277-.733 8.189 1.312 11.145C5.95 21.22 7.182 23 9.039 23c.037 0 .074 0 .11-.003a4.741 4.741 0 0 0 1.793-.463 3.273 3.273 0 0 1 1.446-.354c.472.006.937.122 1.357.338.614.29 1.283.446 1.962.456 1.913-.036 3.043-1.686 3.868-2.893a12.04 12.04 0 0 0 1.513-3.108 1.003 1.003 0 0 0-.584-1.23zm-7.08-11.176a4.942 4.942 0 0 1 1.919-1.322 4.857 4.857 0 0 1-1.037 2.151 4.391 4.391 0 0 1-1.264 1.04l-.003.001-.085.034c-.186.073-.417.164-.595.223a4.825 4.825 0 0 1 1.064-2.127zm4.5 14.385c-.803 1.174-1.435 2.006-2.254 2.021a2.365 2.365 0 0 1-1.13-.292 4.97 4.97 0 0 0-2.152-.502 5.214 5.214 0 0 0-2.229.513 2.884 2.884 0 0 1-1.086.306h-.03c-.813 0-1.687-1.262-2.268-2.101-1.452-2.1-2.792-6.283-1.223-9.008a3.917 3.917 0 0 1 3.29-2.006h.034c.57.048 1.126.198 1.642.444.13.051.26.103.389.151a1.2 1.2 0 0 0 .1.037c.356.143.734.224 1.117.237a4.436 4.436 0 0 0 1.564-.42 4.956 4.956 0 0 1 2.223-.498 3.787 3.787 0 0 1 2.25.854 5.31 5.31 0 0 0-1.711 3.945v.001a5.3 5.3 0 0 0 2.45 4.503c-.262.636-.59 1.244-.975 1.815z" fill="currentColor"></path>
  </symbol>
  <symbol viewBox="0 0 24 24" fill="none" xmlns="http://www.w3.org/2000/svg" id="brand-apple">
    <path d="M14.94 5.19A4.379 4.379 0 0 0 16 2a4.44 4.44 0 0 0-3 1.52 4.17 4.17 0 0 0-1 3.09 3.69 3.69 0 0 0 2.94-1.42zm2.52 7.44a4.509 4.509 0 0 1 2.16-3.81 4.66 4.66 0 0 0-3.66-2c-1.56-.16-3 .91-3.83.91-.83 0-2-.89-3.3-.87a4.92 4.92 0 0 0-4.14 2.53C2.93 12.45 4.24 17 6 19.47c.8 1.21 1.8 2.58 3.12 2.53 1.32-.05 1.75-.82 3.28-.82 1.53 0 2 .82 3.3.79 1.3-.03 2.22-1.24 3.06-2.45a11 11 0 0 0 1.38-2.85 4.41 4.41 0 0 1-2.68-4.04z" fill="currentColor"></path>
  </symbol>
  <symbol viewBox="0 0 24 24" fill="none" xmlns="http://www.w3.org/2000/svg" id="brand-whatsapp">
    <path d="M14.6 13C14.4 12.9 13.1 12.3 12.9 12.2C12.7 12.1 12.5 12.1 12.3 12.3C12.1 12.5 11.7 13.1 11.5 13.3C11.4 13.5 11.2 13.5 11 13.4C10.3 13.1 9.6 12.7 9 12.2C8.5 11.7 8 11.1 7.6 10.5C7.5 10.3 7.6 10.1 7.7 9.99998C7.8 9.89997 7.9 9.69998 8.1 9.59998C8.2 9.49998 8.3 9.29998 8.3 9.19998C8.4 9.09997 8.4 8.89998 8.3 8.79998C8.2 8.69998 7.7 7.49998 7.5 6.99998C7.4 6.29998 7.2 6.29998 7 6.29998C6.9 6.29998 6.7 6.29998 6.5 6.29998C6.3 6.29998 6 6.49998 5.9 6.59998C5.3 7.19998 5 7.89998 5 8.69998C5.1 9.59998 5.4 10.5 6 11.3C7.1 12.9 8.5 14.2 10.2 15C10.7 15.2 11.1 15.4 11.6 15.5C12.1 15.7 12.6 15.7 13.2 15.6C13.9 15.5 14.5 15 14.9 14.4C15.1 14 15.1 13.6 15 13.2C15 13.2 14.8 13.1 14.6 13ZM17.1 3.89998C13.2 -2.43187e-05 6.9 -2.43187e-05 3 3.89998C-0.2 7.09998 -0.8 12 1.4 15.9L0 21L5.3 19.6C6.8 20.4 8.4 20.8 10 20.8C15.5 20.8 19.9 16.4 19.9 10.9C20 8.29997 18.9 5.79998 17.1 3.89998ZM14.4 17.9C13.1 18.7 11.6 19.2 10 19.2C8.5 19.2 7.1 18.8 5.8 18.1L5.5 17.9L2.4 18.7L3.2 15.7L3 15.4C0.6 11.4 1.8 6.39998 5.7 3.89998C9.6 1.39998 14.6 2.69998 17 6.49998C19.4 10.4 18.3 15.5 14.4 17.9Z" fill="currentColor" />
  </symbol>
  <symbol viewBox="0 0 24 24" fill="none" xmlns="http://www.w3.org/2000/svg" id="brand-twitter-alt">
    <path d="M22.991 3.95a1 1 0 0 0-1.51-.86 7.48 7.48 0 0 1-1.873.794 5.152 5.152 0 0 0-3.375-1.242 5.232 5.232 0 0 0-5.223 5.063 11.032 11.032 0 0 1-6.814-3.924 1.011 1.011 0 0 0-.857-.365.998.998 0 0 0-.785.5 5.275 5.275 0 0 0-.242 4.769l-.002.002a1.041 1.041 0 0 0-.496.888 3.04 3.04 0 0 0 .027.44 5.185 5.185 0 0 0 1.568 3.312.999.999 0 0 0-.066.77 5.204 5.204 0 0 0 2.362 2.921 7.465 7.465 0 0 1-3.59.449A1 1 0 0 0 1.45 19.3a12.942 12.942 0 0 0 7.01 2.061 12.788 12.788 0 0 0 12.465-9.363c.353-1.183.533-2.412.535-3.646l-.001-.2a5.77 5.77 0 0 0 1.532-4.202zm-3.306 3.212a.995.995 0 0 0-.234.702c.01.165.009.331.009.488a10.825 10.825 0 0 1-.454 3.08 10.685 10.685 0 0 1-10.546 7.93c-.86 0-1.715-.101-2.55-.301a9.48 9.48 0 0 0 2.942-1.564 1.001 1.001 0 0 0-.602-1.786 3.208 3.208 0 0 1-2.214-.935 4.87 4.87 0 0 0 .445-.105 1 1 0 0 0-.08-1.944 3.197 3.197 0 0 1-2.25-1.725c.181.025.363.04.545.046a1.022 1.022 0 0 0 .984-.696 1 1 0 0 0-.4-1.137 3.196 3.196 0 0 1-1.42-2.871 13.014 13.014 0 0 0 8.21 3.48 1.02 1.02 0 0 0 .817-.36 1 1 0 0 0 .206-.867 3.164 3.164 0 0 1-.087-.729 3.23 3.23 0 0 1 4.506-2.962c.403.176.766.433 1.065.756a.993.993 0 0 0 .921.298 9.27 9.27 0 0 0 1.212-.322 6.679 6.679 0 0 1-1.026 1.524z" fill="currentColor"></path>
  </symbol>
  <symbol viewBox="0 0 24 24" fill="none" xmlns="http://www.w3.org/2000/svg" id="brand-twitter">
    <path d="M22 5.8a8.49 8.49 0 0 1-2.36.64 4.13 4.13 0 0 0 1.81-2.27 8.21 8.21 0 0 1-2.61 1 4.1 4.1 0 0 0-7 3.74 11.64 11.64 0 0 1-8.45-4.29 4.16 4.16 0 0 0-.55 2.07 4.09 4.09 0 0 0 1.82 3.41 4.05 4.05 0 0 1-1.86-.51v.05a4.1 4.1 0 0 0 3.3 4 3.929 3.929 0 0 1-1.1.17 4.896 4.896 0 0 1-.77-.07 4.11 4.11 0 0 0 3.83 2.84A8.22 8.22 0 0 1 2 18.28a11.57 11.57 0 0 0 6.29 1.85A11.59 11.59 0 0 0 20 8.45v-.53a8.43 8.43 0 0 0 2-2.12z" fill="currentColor"></path>
  </symbol>
  <symbol viewBox="0 0 24 24" fill="none" xmlns="http://www.w3.org/2000/svg" id="brand-google-play">
    <path d="M20.919 10.653a511.68 511.68 0 0 1-4.023-2.323l-.003-.002L4.64 1.253a1.679 1.679 0 0 0-1.408-.16.953.953 0 0 0-.076.031 1.36 1.36 0 0 0-.173.07 1.519 1.519 0 0 0-.738 1.363v18.986a1.436 1.436 0 0 0 .692 1.27c.05.025.102.046.155.064a1.377 1.377 0 0 0 .533.118c.292-.003.579-.083.831-.232l12.438-7.182 4.021-2.321a1.524 1.524 0 0 0 .842-1.334 1.49 1.49 0 0 0-.837-1.273zM4.244 19.84V4.102l7.94 7.86-7.94 7.877zm5.018-2.162l4.344-4.31 1.15 1.139-5.494 3.171zm4.342-7.125L9.206 6.2l5.554 3.207-1.156 1.146zm2.947 2.917l-1.526-1.51 1.528-1.515c.72.418 1.843 1.069 2.616 1.514l-2.618 1.511z" fill="currentColor"></path>
  </symbol>
  <symbol viewBox="0 0 24 24" fill="none" xmlns="http://www.w3.org/2000/svg" id="brand-facebook-f">
    <path d="M15.12 5.32H17V2.14A26.113 26.113 0 0 0 14.26 2c-2.72 0-4.58 1.66-4.58 4.7v2.62H6.61v3.56h3.07V22h3.68v-9.12h3.06l.46-3.56h-3.52V7.05c0-1.05.28-1.73 1.76-1.73z" fill="currentColor"></path>
  </symbol>
  <symbol viewBox="0 0 24 24" fill="none" xmlns="http://www.w3.org/2000/svg" id="brand-instagram">
    <path d="M12 9.52C11.5095 9.52 11.03 9.66545 10.6222 9.93795C10.2144 10.2105 9.89648 10.5978 9.70878 11.0509C9.52107 11.5041 9.47196 12.0028 9.56765 12.4838C9.66334 12.9649 9.89954 13.4068 10.2464 13.7536C10.5932 14.1005 11.0351 14.3367 11.5162 14.4323C11.9972 14.528 12.4959 14.4789 12.9491 14.2912C13.4022 14.1035 13.7895 13.7856 14.062 13.3778C14.3346 12.97 14.48 12.4905 14.48 12C14.48 11.6743 14.4159 11.3518 14.2912 11.0509C14.1666 10.7501 13.9839 10.4767 13.7536 10.2464C13.5233 10.0161 13.2499 9.83341 12.9491 9.70878C12.6482 9.58415 12.3257 9.52 12 9.52ZM21.93 7.07C21.9247 6.29776 21.7825 5.53257 21.51 4.81C21.3093 4.28126 20.9987 3.80109 20.5988 3.40119C20.1989 3.00128 19.7187 2.69072 19.19 2.49C18.4674 2.21746 17.7022 2.07526 16.93 2.07C15.64 2 15.26 2 12 2C8.74 2 8.36 2 7.07 2.07C6.29776 2.07526 5.53257 2.21746 4.81 2.49C4.28126 2.69072 3.80109 3.00128 3.40119 3.40119C3.00128 3.80109 2.69072 4.28126 2.49 4.81C2.21746 5.53257 2.07526 6.29776 2.07 7.07C2 8.36 2 8.74 2 12C2 15.26 2 15.64 2.07 16.93C2.08076 17.705 2.22277 18.4725 2.49 19.2C2.68983 19.7263 3.00013 20.2037 3.4 20.6C3.79819 21.0023 4.27939 21.3129 4.81 21.51C5.53257 21.7825 6.29776 21.9247 7.07 21.93C8.36 22 8.74 22 12 22C15.26 22 15.64 22 16.93 21.93C17.7022 21.9247 18.4674 21.7825 19.19 21.51C19.7206 21.3129 20.2018 21.0023 20.6 20.6C20.9999 20.2037 21.3102 19.7263 21.51 19.2C21.7823 18.4739 21.9244 17.7055 21.93 16.93C22 15.64 22 15.26 22 12C22 8.74 22 8.36 21.93 7.07ZM19.39 15.07C19.3579 15.6871 19.2262 16.295 19 16.87C18.8059 17.3497 18.5173 17.7854 18.1514 18.1514C17.7854 18.5173 17.3497 18.8059 16.87 19C16.2895 19.2136 15.6783 19.3318 15.06 19.35C14.27 19.35 14.06 19.35 12 19.35C9.94 19.35 9.73 19.35 8.94 19.35C8.32173 19.3318 7.71049 19.2136 7.13 19C6.6341 18.8157 6.18628 18.5217 5.82 18.14C5.45767 17.7813 5.17784 17.3479 5 16.87C4.78556 16.2901 4.67061 15.6782 4.66 15.06C4.66 14.27 4.66 14.06 4.66 12C4.66 9.94 4.66 9.73 4.66 8.94C4.67061 8.32183 4.78556 7.70988 5 7.13C5.18428 6.6341 5.47827 6.18628 5.86 5.82C6.22033 5.45962 6.65326 5.18009 7.13 5C7.71049 4.78641 8.32173 4.66821 8.94 4.65C9.73 4.65 9.94 4.65 12 4.65C14.06 4.65 14.27 4.65 15.06 4.65C15.6783 4.66821 16.2895 4.78641 16.87 5C17.3659 5.18428 17.8137 5.47827 18.18 5.86C18.5423 6.21875 18.8222 6.65213 19 7.13C19.2136 7.71049 19.3318 8.32173 19.35 8.94C19.35 9.73 19.35 9.94 19.35 12C19.35 14.06 19.42 14.27 19.39 15.06V15.07ZM17.79 7.63C17.6709 7.30698 17.4832 7.01364 17.2398 6.77021C16.9964 6.52678 16.703 6.33906 16.38 6.22C15.9365 6.06626 15.4693 5.99179 15 6C14.22 6 14 6 12 6C10 6 9.78 6 9 6C8.52827 6.00461 8.06107 6.09263 7.62 6.26C7.30193 6.37366 7.01169 6.55371 6.76858 6.7882C6.52547 7.02269 6.33506 7.30624 6.21 7.62C6.06478 8.06537 5.99383 8.5316 6 9C6 9.78 6 10 6 12C6 14 6 14.22 6 15C6.00991 15.4712 6.09777 15.9375 6.26 16.38C6.37906 16.703 6.56678 16.9964 6.81021 17.2398C7.05364 17.4832 7.34698 17.6709 7.67 17.79C8.09667 17.9469 8.54565 18.0347 9 18.05C9.78 18.05 10 18.05 12 18.05C14 18.05 14.22 18.05 15 18.05C15.4717 18.0454 15.9389 17.9574 16.38 17.79C16.703 17.6709 16.9964 17.4832 17.2398 17.2398C17.4832 16.9964 17.6709 16.703 17.79 16.38C17.9574 15.9389 18.0454 15.4717 18.05 15C18.05 14.22 18.05 14 18.05 12C18.05 10 18.05 9.78 18.05 9C18.0503 8.5278 17.9621 8.05972 17.79 7.62V7.63ZM12 15.82C11.4988 15.82 11.0026 15.7211 10.5397 15.529C10.0768 15.3369 9.6563 15.0554 9.30238 14.7005C8.94846 14.3457 8.66803 13.9245 8.47714 13.4611C8.28626 12.9977 8.18868 12.5012 8.19 12C8.19 11.2441 8.4143 10.5051 8.83449 9.87669C9.25468 9.24828 9.85187 8.75866 10.5505 8.46983C11.2491 8.181 12.0177 8.10594 12.7589 8.25415C13.5002 8.40236 14.1808 8.76717 14.7147 9.30241C15.2485 9.83764 15.6116 10.5192 15.7578 11.2609C15.9041 12.0026 15.827 12.771 15.5363 13.4688C15.2457 14.1666 14.7545 14.7625 14.125 15.1811C13.4955 15.5996 12.7559 15.822 12 15.82ZM16 8.93C15.7789 8.9066 15.5744 8.80222 15.4257 8.63697C15.277 8.47172 15.1947 8.25729 15.1947 8.035C15.1947 7.81271 15.277 7.59828 15.4257 7.43303C15.5744 7.26778 15.7789 7.1634 16 7.14C16.2211 7.1634 16.4256 7.26778 16.5743 7.43303C16.723 7.59828 16.8053 7.81271 16.8053 8.035C16.8053 8.25729 16.723 8.47172 16.5743 8.63697C16.4256 8.80222 16.2211 8.9066 16 8.93Z" fill="currentColor" />
  </symbol>
  <symbol viewBox="0 0 24 24" fill="none" xmlns="http://www.w3.org/2000/svg" id="brand-google">
    <path d="M22.602 10.004a1 1 0 0 0-.984-.822H12.2a1 1 0 0 0-1 1v3.868a1 1 0 0 0 1 1h3.962a3.65 3.65 0 0 1-1.131 1.187 5.06 5.06 0 0 1-2.831.786 4.935 4.935 0 0 1-4.646-3.438v-.002a4.904 4.904 0 0 1 0-3.167v-.002A4.936 4.936 0 0 1 12.2 6.978a4.377 4.377 0 0 1 3.131 1.217 1 1 0 0 0 1.399-.015l2.868-2.868a1 1 0 0 0-.025-1.439A10.623 10.623 0 0 0 12.2 1a10.949 10.949 0 0 0-9.829 6.059l-.001.002A10.922 10.922 0 0 0 1.2 12a11.079 11.079 0 0 0 1.17 4.94l.001.001A10.95 10.95 0 0 0 12.2 23a10.525 10.525 0 0 0 7.295-2.687l.001-.001a10.786 10.786 0 0 0 3.304-8.084c0-.746-.066-1.49-.198-2.224zM12.2 3a8.682 8.682 0 0 1 5.209 1.673l-1.454 1.453A6.463 6.463 0 0 0 12.2 4.978a6.886 6.886 0 0 0-5.99 3.55L5.142 7.7l-.585-.454A8.953 8.953 0 0 1 12.2 3zM3.68 14.903a9.03 9.03 0 0 1 0-5.806l1.782 1.382a6.854 6.854 0 0 0 0 3.042l-1.783 1.382zM12.2 21a8.952 8.952 0 0 1-7.644-4.246l.379-.294 1.276-.99a6.885 6.885 0 0 0 5.989 3.553 7.276 7.276 0 0 0 3.306-.751l1.691 1.313A8.889 8.889 0 0 1 12.2 21zm6.526-2.76l-.183-.143-1.377-1.069a5.606 5.606 0 0 0 1.4-2.795 1 1 0 0 0-.984-1.183H13.2v-1.868h7.549c.034.345.051.695.051 1.046a9.051 9.051 0 0 1-2.074 6.011z" fill="currentColor"></path>
  </symbol>
  <symbol viewBox="0 0 24 24" fill="none" xmlns="http://www.w3.org/2000/svg" id="brand-instagram-alt">
    <path d="M17.34 5.46C17.1027 5.46 16.8707 5.53038 16.6733 5.66224C16.476 5.79409 16.3222 5.98151 16.2313 6.20078C16.1405 6.42005 16.1168 6.66133 16.1631 6.89411C16.2094 7.12689 16.3236 7.34071 16.4915 7.50853C16.6593 7.67635 16.8731 7.79064 17.1059 7.83694C17.3387 7.88324 17.5799 7.85948 17.7992 7.76866C18.0185 7.67783 18.2059 7.52402 18.3378 7.32668C18.4696 7.12935 18.54 6.89734 18.54 6.66C18.54 6.34174 18.4136 6.03652 18.1885 5.81147C17.9635 5.58643 17.6583 5.46 17.34 5.46ZM21.94 7.88C21.9206 7.0503 21.7652 6.2294 21.48 5.45C21.2257 4.78313 20.83 4.17928 20.32 3.68C19.8248 3.16743 19.2196 2.77418 18.55 2.53C17.7727 2.23616 16.9508 2.07721 16.12 2.06C15.06 2 14.72 2 12 2C9.28 2 8.94 2 7.88 2.06C7.04915 2.07721 6.22734 2.23616 5.45 2.53C4.78168 2.77665 4.17693 3.16956 3.68 3.68C3.16743 4.17518 2.77418 4.78044 2.53 5.45C2.23616 6.22734 2.07721 7.04915 2.06 7.88C2 8.94 2 9.28 2 12C2 14.72 2 15.06 2.06 16.12C2.07721 16.9508 2.23616 17.7727 2.53 18.55C2.77418 19.2196 3.16743 19.8248 3.68 20.32C4.17693 20.8304 4.78168 21.2234 5.45 21.47C6.22734 21.7638 7.04915 21.9228 7.88 21.94C8.94 22 9.28 22 12 22C14.72 22 15.06 22 16.12 21.94C16.9508 21.9228 17.7727 21.7638 18.55 21.47C19.2196 21.2258 19.8248 20.8326 20.32 20.32C20.8322 19.8226 21.2283 19.2182 21.48 18.55C21.7652 17.7706 21.9206 16.9497 21.94 16.12C21.94 15.06 22 14.72 22 12C22 9.28 22 8.94 21.94 7.88ZM20.14 16C20.1327 16.6348 20.0178 17.2637 19.8 17.86C19.6403 18.2952 19.3839 18.6884 19.05 19.01C18.7256 19.3405 18.3332 19.5964 17.9 19.76C17.3037 19.9778 16.6748 20.0927 16.04 20.1C15.04 20.15 14.67 20.16 12.04 20.16C9.41 20.16 9.04 20.16 8.04 20.1C7.38089 20.1123 6.72459 20.0109 6.1 19.8C5.68578 19.6281 5.31136 19.3728 5 19.05C4.66809 18.7287 4.41484 18.3352 4.26 17.9C4.01586 17.2952 3.88044 16.6519 3.86 16C3.86 15 3.8 14.63 3.8 12C3.8 9.37 3.8 9 3.86 8C3.86448 7.35106 3.98295 6.70795 4.21 6.1C4.38605 5.67791 4.65627 5.30166 5 5C5.30381 4.65617 5.67929 4.3831 6.1 4.2C6.70955 3.98004 7.352 3.86508 8 3.86C9 3.86 9.37 3.8 12 3.8C14.63 3.8 15 3.8 16 3.86C16.6348 3.86728 17.2637 3.98225 17.86 4.2C18.3144 4.36865 18.7223 4.64285 19.05 5C19.3777 5.30718 19.6338 5.68273 19.8 6.1C20.0223 6.70893 20.1373 7.35178 20.14 8C20.19 9 20.2 9.37 20.2 12C20.2 14.63 20.19 15 20.14 16ZM12 6.87C10.9858 6.87198 9.99496 7.17453 9.15265 7.73942C8.31035 8.30431 7.65438 9.1062 7.26763 10.0438C6.88089 10.9813 6.78072 12.0125 6.97979 13.0069C7.17886 14.0014 7.66824 14.9145 8.38608 15.631C9.10392 16.3474 10.018 16.835 11.0129 17.0321C12.0077 17.2293 13.0387 17.1271 13.9755 16.7385C14.9123 16.35 15.7129 15.6924 16.2761 14.849C16.8394 14.0056 17.14 13.0142 17.14 12C17.1413 11.3251 17.0092 10.6566 16.7512 10.033C16.4933 9.40931 16.1146 8.84281 15.6369 8.36605C15.1592 7.88929 14.5919 7.51168 13.9678 7.25493C13.3436 6.99818 12.6749 6.86736 12 6.87ZM12 15.33C11.3414 15.33 10.6976 15.1347 10.15 14.7688C9.60234 14.4029 9.17552 13.8828 8.92348 13.2743C8.67144 12.6659 8.6055 11.9963 8.73398 11.3503C8.86247 10.7044 9.17963 10.111 9.64533 9.64533C10.111 9.17963 10.7044 8.86247 11.3503 8.73398C11.9963 8.6055 12.6659 8.67144 13.2743 8.92348C13.8828 9.17552 14.4029 9.60234 14.7688 10.15C15.1347 10.6976 15.33 11.3414 15.33 12C15.33 12.4373 15.2439 12.8703 15.0765 13.2743C14.9092 13.6784 14.6639 14.0454 14.3547 14.3547C14.0454 14.6639 13.6784 14.9092 13.2743 15.0765C12.8703 15.2439 12.4373 15.33 12 15.33Z" fill="currentColor" />
  </symbol>
  <symbol viewBox="0 0 24 24" fill="none" xmlns="http://www.w3.org/2000/svg" id="brand-facebook">
    <path d="M18.9 0H1.1C0.808262 0 0.528473 0.115893 0.322183 0.322183C0.115893 0.528473 0 0.808262 0 1.1V18.9C0 19.0445 0.0284524 19.1875 0.0837326 19.321C0.139013 19.4544 0.220038 19.5757 0.322183 19.6778C0.424327 19.78 0.54559 19.861 0.679048 19.9163C0.812506 19.9715 0.955546 20 1.1 20H10.68V12.25H8.08V9.25H10.68V7C10.6261 6.47176 10.6885 5.93813 10.8627 5.43654C11.0369 4.93495 11.3188 4.47755 11.6885 4.09641C12.0582 3.71528 12.5068 3.41964 13.0028 3.23024C13.4989 3.04083 14.0304 2.96225 14.56 3C15.3383 2.99521 16.1163 3.03528 16.89 3.12V5.82H15.3C14.04 5.82 13.8 6.42 13.8 7.29V9.22H16.8L16.41 12.22H13.8V20H18.9C19.0445 20 19.1875 19.9715 19.321 19.9163C19.4544 19.861 19.5757 19.78 19.6778 19.6778C19.78 19.5757 19.861 19.4544 19.9163 19.321C19.9715 19.1875 20 19.0445 20 18.9V1.1C20 0.955546 19.9715 0.812506 19.9163 0.679048C19.861 0.54559 19.78 0.424327 19.6778 0.322183C19.5757 0.220038 19.4544 0.139013 19.321 0.0837326C19.1875 0.0284524 19.0445 0 18.9 0Z" fill="currentColor" />
  </symbol>
</svg>