<svg width="0" height="0" class="hidden">
  <symbol viewBox="0 0 24 24" fill="none" xmlns="http://www.w3.org/2000/svg" id="charts-analysis">
    <path d="M21.71 7.29a1 1 0 0 0-1.42 0L14 13.59l-4.29-4.3a1 1 0 0 0-1.42 0l-6 6a1 1 0 0 0 0 1.42.998.998 0 0 0 1.42 0L9 11.41l4.29 4.3a.999.999 0 0 0 1.42 0l7-7a1 1 0 0 0 0-1.42z" fill="currentColor"></path>
  </symbol>
  <symbol viewBox="0 0 24 24" fill="none" xmlns="http://www.w3.org/2000/svg" id="charts-analytics">
    <path d="M5 12a1 1 0 0 0-1 1v8a1 1 0 1 0 2 0v-8a1 1 0 0 0-1-1zm5-10a1 1 0 0 0-1 1v18a1 1 0 1 0 2 0V3a1 1 0 0 0-1-1zm10 14a1 1 0 0 0-1 1v4a1 1 0 0 0 2 0v-4a1 1 0 0 0-1-1zm-5-8a1 1 0 0 0-1 1v12a1 1 0 0 0 2 0V9a1 1 0 0 0-1-1z" fill="currentColor"></path>
  </symbol>
  <symbol viewBox="0 0 24 24" fill="none" xmlns="http://www.w3.org/2000/svg" id="charts-panel-add">
    <path d="M18 10H14V3C14 2.73478 13.8946 2.48043 13.7071 2.29289C13.5196 2.10536 13.2652 2 13 2H8C7.73478 2 7.48043 2.10536 7.29289 2.29289C7.10536 2.48043 7 2.73478 7 3V8H3C2.73478 8 2.48043 8.10536 2.29289 8.29289C2.10536 8.48043 2 8.73478 2 9V21C2 21.2652 2.10536 21.5196 2.29289 21.7071C2.48043 21.8946 2.73478 22 3 22H18C18.2652 22 18.5196 21.8946 18.7071 21.7071C18.8946 21.5196 19 21.2652 19 21V11C19 10.7348 18.8946 10.4804 18.7071 10.2929C18.5196 10.1054 18.2652 10 18 10ZM7 20H4V10H7V20ZM12 20H9V4H12V20ZM17 20H14V12H17V20ZM21 4H20V3C20 2.73478 19.8946 2.48043 19.7071 2.29289C19.5196 2.10536 19.2652 2 19 2C18.7348 2 18.4804 2.10536 18.2929 2.29289C18.1054 2.48043 18 2.73478 18 3V4H17C16.7348 4 16.4804 4.10536 16.2929 4.29289C16.1054 4.48043 16 4.73478 16 5C16 5.26522 16.1054 5.51957 16.2929 5.70711C16.4804 5.89464 16.7348 6 17 6H18V7C18 7.26522 18.1054 7.51957 18.2929 7.70711C18.4804 7.89464 18.7348 8 19 8C19.2652 8 19.5196 7.89464 19.7071 7.70711C19.8946 7.51957 20 7.26522 20 7V6H21C21.2652 6 21.5196 5.89464 21.7071 5.70711C21.8946 5.51957 22 5.26522 22 5C22 4.73478 21.8946 4.48043 21.7071 4.29289C21.5196 4.10536 21.2652 4 21 4Z" fill="currentColor" />
  </symbol>
  <symbol viewBox="0 0 24 24" fill="none" xmlns="http://www.w3.org/2000/svg" id="charts-comparision">
    <path d="M21 20H4V19.46L9 14.46L12.8 18.26C12.9874 18.4463 13.2408 18.5508 13.505 18.5508C13.7692 18.5508 14.0226 18.4463 14.21 18.26L21.71 10.76C21.8037 10.667 21.8781 10.5564 21.9289 10.4346C21.9797 10.3127 22.0058 10.182 22.0058 10.05C22.0058 9.91799 21.9797 9.78728 21.9289 9.66542C21.8781 9.54356 21.8037 9.43296 21.71 9.34C21.5226 9.15375 21.2692 9.04921 21.005 9.04921C20.7408 9.04921 20.4874 9.15375 20.3 9.34L13.5 16.14L9.71 12.34C9.52264 12.1537 9.26919 12.0492 9.005 12.0492C8.74081 12.0492 8.48736 12.1537 8.3 12.34L4 16.63V11.46L9 6.46L11.8 9.26C11.9874 9.44625 12.2408 9.55079 12.505 9.55079C12.7692 9.55079 13.0226 9.44625 13.21 9.26L18 4.47L20.19 6.66C20.3783 6.84698 20.6332 6.95149 20.8985 6.95056C21.1639 6.94962 21.418 6.8433 21.605 6.655C21.792 6.4667 21.8965 6.21183 21.8956 5.94646C21.8946 5.6811 21.7883 5.42698 21.6 5.24L18.69 2.35C18.5026 2.16375 18.2492 2.05921 17.985 2.05921C17.7208 2.05921 17.4674 2.16375 17.28 2.35L12.48 7.15L9.69 4.35C9.50264 4.16375 9.24919 4.05921 8.985 4.05921C8.72081 4.05921 8.46736 4.16375 8.28 4.35L4 8.63V3C4 2.73478 3.89464 2.48043 3.70711 2.29289C3.51957 2.10536 3.26522 2 3 2C2.73478 2 2.48043 2.10536 2.29289 2.29289C2.10536 2.48043 2 2.73478 2 3V21C2 21.2652 2.10536 21.5196 2.29289 21.7071C2.48043 21.8946 2.73478 22 3 22H21C21.2652 22 21.5196 21.8946 21.7071 21.7071C21.8946 21.5196 22 21.2652 22 21C22 20.7348 21.8946 20.4804 21.7071 20.2929C21.5196 20.1054 21.2652 20 21 20Z" fill="currentColor" />
  </symbol>
  <symbol viewBox="0 0 24 24" fill="none" xmlns="http://www.w3.org/2000/svg" id="charts-chart-pie">
    <path d="M12 2a10 10 0 1 0 4.93 18.69h.12A10 10 0 0 0 12 2zm1 2.07A8 8 0 0 1 19.93 11H13V4.07zM12 20a8 8 0 0 1-1-15.93V12a1.1 1.1 0 0 0 .07.35v.15l4 6.87c-.97.415-2.015.63-3.07.63zm4.83-1.64L13.73 13h6.2a7.999 7.999 0 0 1-3.1 5.36z" fill="currentColor"></path>
  </symbol>
  <symbol viewBox="0 0 24 24" fill="none" xmlns="http://www.w3.org/2000/svg" id="charts-chart-bar-alt">
    <path d="M21 20H4v-2h3a1 1 0 0 0 0-2H4v-2h11a1 1 0 0 0 0-2H4v-2h7a1 1 0 1 0 0-2H4V6h15a1 1 0 1 0 0-2H4V3a1 1 0 0 0-2 0v18a1 1 0 0 0 1 1h18a1 1 0 0 0 0-2z" fill="currentColor"></path>
  </symbol>
  <symbol viewBox="0 0 24 24" fill="none" xmlns="http://www.w3.org/2000/svg" id="charts-chart-bar">
    <path d="M21 20h-1V5a1 1 0 0 0-2 0v15h-2v-7a1 1 0 0 0-2 0v7h-2V9a1 1 0 0 0-2 0v11H8v-3a1 1 0 1 0-2 0v3H4V3a1 1 0 0 0-2 0v18a1 1 0 0 0 1 1h18a1 1 0 0 0 0-2z" fill="currentColor"></path>
  </symbol>
  <symbol viewBox="0 0 24 24" fill="none" xmlns="http://www.w3.org/2000/svg" id="charts-chart-down">
    <path d="M21 11a1 1 0 0 0-1 1v2.59l-6.29-6.3a1 1 0 0 0-1.42 0L9 11.59l-5.29-5.3a1.004 1.004 0 0 0-1.42 1.42l6 6a.998.998 0 0 0 1.42 0l3.29-3.3L18.59 16H16a1 1 0 0 0 0 2h5a.997.997 0 0 0 .38-.08 1 1 0 0 0 .54-.54c.051-.12.078-.25.08-.38v-5a1 1 0 0 0-1-1z" fill="currentColor"></path>
  </symbol>
  <symbol viewBox="0 0 24 24" fill="none" xmlns="http://www.w3.org/2000/svg" id="charts-chart-growth-alt">
    <path d="M21 20H4v-2h3a1 1 0 0 0 0-2H4v-2h7a1 1 0 0 0 0-2H4v-2h11a1 1 0 1 0 0-2H4V6h15a1 1 0 1 0 0-2H4V3a1 1 0 0 0-2 0v18a1 1 0 0 0 1 1h18a1 1 0 0 0 0-2z" fill="currentColor"></path>
  </symbol>
  <symbol viewBox="0 0 24 24" fill="none" xmlns="http://www.w3.org/2000/svg" id="charts-chart-growth">
    <path d="M21 20h-1V5a1 1 0 0 0-2 0v15h-2V9a1 1 0 0 0-2 0v11h-2v-7a1 1 0 0 0-2 0v7H8v-3a1 1 0 1 0-2 0v3H4V3a1 1 0 0 0-2 0v18a1 1 0 0 0 1 1h18a1 1 0 0 0 0-2z" fill="currentColor"></path>
  </symbol>
  <symbol viewBox="0 0 24 24" fill="none" xmlns="http://www.w3.org/2000/svg" id="charts-chart-line">
    <path d="M7 16a1.5 1.5 0 0 0 1.5-1.5.77.77 0 0 0 0-.15l2.79-2.79h.46l1.61 1.61v.08a1.5 1.5 0 1 0 3 0v-.08L20 9.5A1.5 1.5 0 1 0 18.5 8a.767.767 0 0 0 0 .15l-3.61 3.61h-.16L13 10a1.5 1.5 0 1 0-3 0l-3 3a1.5 1.5 0 1 0 0 3zm13.5 4h-17V3a1 1 0 0 0-2 0v18a1 1 0 0 0 1 1h18a1 1 0 0 0 0-2z" fill="currentColor"></path>
  </symbol>
  <symbol viewBox="0 0 24 24" fill="none" xmlns="http://www.w3.org/2000/svg" id="charts-chart-pie-alt">
    <path d="M19 12h-7V5c0-.6-.4-1-1-1-5 0-9 4-9 9s4 9 9 9 9-4 9-9c0-.6-.4-1-1-1zm-7 7.9c-3.8.6-7.4-2.1-7.9-5.9-.6-3.8 2.1-7.4 5.9-7.9V13c0 .6.4 1 1 1h6.9c-.4 3.1-2.8 5.5-5.9 5.9zM15 2c-.6 0-1 .4-1 1v6c0 .6.4 1 1 1h6c.6 0 1-.4 1-1 0-3.9-3.1-7-7-7zm1 6V4.1c2 .4 3.5 1.9 3.9 3.9H16z" fill="currentColor"></path>
  </symbol>
  <symbol viewBox="0 0 24 24" fill="none" xmlns="http://www.w3.org/2000/svg" id="charts-chart">
    <path d="M12 6a1 1 0 0 0-1 1v10a1 1 0 0 0 2 0V7a1 1 0 0 0-1-1zm-5 6a1 1 0 0 0-1 1v4a1 1 0 1 0 2 0v-4a1 1 0 0 0-1-1zm10-2a1 1 0 0 0-1 1v6a1 1 0 0 0 2 0v-6a1 1 0 0 0-1-1zm2-8H5a3 3 0 0 0-3 3v14a3 3 0 0 0 3 3h14a3 3 0 0 0 3-3V5a3 3 0 0 0-3-3zm1 17a1 1 0 0 1-1 1H5a1 1 0 0 1-1-1V5a1 1 0 0 1 1-1h14a1 1 0 0 1 1 1v14z" fill="currentColor"></path>
  </symbol>
  <symbol viewBox="0 0 24 24" fill="none" xmlns="http://www.w3.org/2000/svg" id="charts-signal">
    <path d="M22 15h-2v-3a1 1 0 0 0-1-1h-6V9h2a1 1 0 0 0 1-1V2a1 1 0 0 0-1-1H9a1 1 0 0 0-1 1v6a1 1 0 0 0 1 1h2v2H5a1 1 0 0 0-1 1v3H2a1 1 0 0 0-1 1v6a1 1 0 0 0 1 1h6a1 1 0 0 0 1-1v-6a1 1 0 0 0-1-1H6v-2h12v2h-2a1 1 0 0 0-1 1v6a1 1 0 0 0 1 1h6a1 1 0 0 0 1-1v-6a1 1 0 0 0-1-1zM7 17v4H3v-4h4zm3-10V3h4v4h-4zm11 14h-4v-4h4v4z" fill="currentColor"></path>
  </symbol>
</svg>