<svg width="0" height="0" class="hidden">
  <symbol viewBox="0 0 24 24" fill="none" xmlns="http://www.w3.org/2000/svg" id="communication-envelope-add">
    <path d="M17 7h1v1a1 1 0 0 0 2 0V7h1a1 1 0 1 0 0-2h-1V4a1 1 0 0 0-2 0v1h-1a1 1 0 1 0 0 2zm4 4a1 1 0 0 0-1 1v6a1 1 0 0 1-1 1H5a1 1 0 0 1-1-1V8.41l5.88 5.89a3 3 0 0 0 4.24 0l2.47-2.47a1.004 1.004 0 1 0-1.42-1.42l-2.47 2.47a1 1 0 0 1-1.4 0L5.41 7H13a1 1 0 1 0 0-2H5a3 3 0 0 0-3 3v10a3 3 0 0 0 3 3h14a3 3 0 0 0 3-3v-6a1 1 0 0 0-1-1z" fill="currentColor"></path>
  </symbol>
  <symbol viewBox="0 0 24 24" fill="none" xmlns="http://www.w3.org/2000/svg" id="communication-envelope-block">
    <path d="M17.5 13.26a5 5 0 1 0 .082-10 5 5 0 0 0-.082 10zm2.12-2.88a3 3 0 0 1-3.4.58l4-4a3 3 0 0 1-.6 3.42zm-4.24-4.24a3 3 0 0 1 2.12-.88 3 3 0 0 1 1.28.3l-4 4a3 3 0 0 1 .6-3.42zm5.12 8.12a1 1 0 0 0-1 1v4a1 1 0 0 1-1 1h-14a1 1 0 0 1-1-1V9.67l5.88 5.88a3 3 0 0 0 3.282.645 3 3 0 0 0 .988-.675 1 1 0 0 0 0-1.39 1 1 0 0 0-1.43 0 1 1 0 0 1-1.4 0L4.91 8.26H9.5a1 1 0 1 0 0-2h-5a3 3 0 0 0-3 3v10a3 3 0 0 0 3 3h14a3 3 0 0 0 3-3v-4a1 1 0 0 0-1-1z" fill="currentColor"></path>
  </symbol>
  <symbol viewBox="0 0 24 24" fill="none" xmlns="http://www.w3.org/2000/svg" id="communication-envelope-bookmark">
    <path d="M21 15.26a1 1 0 0 0-1 1v3a1 1 0 0 1-1 1H5a1 1 0 0 1-1-1V9.67l5.88 5.89a3 3 0 0 0 2.1.87 3 3 0 0 0 1.43-.36 1 1 0 0 0 .15-1.66 1 1 0 0 0-1.11-.1 1 1 0 0 1-1.15-.17L5.41 8.26H12a1 1 0 1 0 0-2H5a3 3 0 0 0-3 3v10a3 3 0 0 0 3 3h14a3 3 0 0 0 3-3v-3a1 1 0 0 0-1-1zm0-12h-5a1 1 0 0 0-1 1v8a1 1 0 0 0 1.57.82l1.93-1.29 1.91 1.28c.173.12.379.187.59.19a1.001 1.001 0 0 0 1-1v-8a1 1 0 0 0-1-1zm-1 7.12l-.94-.63a1 1 0 0 0-1.12 0l-.94.63V5.26h3v5.12z" fill="currentColor"></path>
  </symbol>
  <symbol viewBox="0 0 24 24" fill="none" xmlns="http://www.w3.org/2000/svg" id="communication-envelope-check">
    <path d="M16.29 8.71a1 1 0 0 0 1.42 0l4-4a1.004 1.004 0 1 0-1.42-1.42L17 6.59l-1.29-1.3a1.003 1.003 0 1 0-1.42 1.42l2 2zM21 8a1 1 0 0 0-1 1v9a1 1 0 0 1-1 1H5a1 1 0 0 1-1-1V8.41l5.88 5.89a3 3 0 0 0 2.11.87 3.08 3.08 0 0 0 2.16-.9l1.72-1.72a1.004 1.004 0 1 0-1.42-1.42l-1.75 1.75a1 1 0 0 1-1.4 0L5.41 7H11a1 1 0 1 0 0-2H5a3 3 0 0 0-3 3v10a3 3 0 0 0 3 3h14a3 3 0 0 0 3-3V9a1 1 0 0 0-1-1z" fill="currentColor"></path>
  </symbol>
  <symbol viewBox="0 0 24 24" fill="none" xmlns="http://www.w3.org/2000/svg" id="communication-envelope-download-alt">
    <path d="M11.29 8.79a1 1 0 0 0 1.42 0l2-2a1 1 0 1 0-1.42-1.41l-.29.29V2.92a1 1 0 0 0-2 0v2.75l-.29-.29a1 1 0 1 0-1.42 1.41l2 2zM16 11.08H8a3 3 0 0 0-3 3v5a3 3 0 0 0 3 3h8a3 3 0 0 0 3-3v-5a3 3 0 0 0-3-3zm-.42 2L12.7 16a1 1 0 0 1-1.4 0l-2.88-2.92h7.16zm1.42 6a1 1 0 0 1-1 1H8a1 1 0 0 1-1-1v-4.59l2.88 2.88a3 3 0 0 0 4.24 0L17 14.49v4.59z" fill="currentColor"></path>
  </symbol>
  <symbol viewBox="0 0 24 24" fill="none" xmlns="http://www.w3.org/2000/svg" id="communication-envelope-download">
    <path d="M20.5 14a1 1 0 0 0-1 1v4a1 1 0 0 1-1 1h-14a1 1 0 0 1-1-1V9.41l5.88 5.89a3 3 0 0 0 4.24 0l1.64-1.64a1.004 1.004 0 1 0-1.42-1.42l-1.64 1.64a1 1 0 0 1-1.4 0L4.91 8h6.59a1 1 0 1 0 0-2h-7a3 3 0 0 0-3 3v10a3 3 0 0 0 3 3h14a3 3 0 0 0 3-3v-4a1 1 0 0 0-1-1zm1.71-6.71a1 1 0 0 0-1.42 0l-1.29 1.3V3a1 1 0 0 0-2 0v5.59l-1.29-1.3a1.003 1.003 0 1 0-1.42 1.42l3 3a1 1 0 0 0 .33.21.94.94 0 0 0 .76 0 1 1 0 0 0 .33-.21l3-3a1 1 0 0 0 0-1.42z" fill="currentColor"></path>
  </symbol>
  <symbol viewBox="0 0 24 24" fill="none" xmlns="http://www.w3.org/2000/svg" id="communication-envelope-edit">
    <path d="M14 11.51h2.42a.998.998 0 0 0 .71-.29l4.58-4.58a1.001 1.001 0 0 0 0-1.42L19.29 2.8a1 1 0 0 0-1.42 0l-4.58 4.58a1.05 1.05 0 0 0-.29.71v2.42a1 1 0 0 0 1 1zm1-3l3.58-3.58 1 1L16 9.51h-1v-1zm6 2a1 1 0 0 0-1 1v7a1 1 0 0 1-1 1H5a1 1 0 0 1-1-1V8.9l5.88 5.89a3 3 0 0 0 4.27 0 1 1 0 1 0-1.43-1.4 1 1 0 0 1-1.4 0l-5.91-5.9H10a1 1 0 1 0 0-2H5a3 3 0 0 0-3 3v10a3 3 0 0 0 3 3h14a3 3 0 0 0 3-3v-7a1 1 0 0 0-1-1v.02z" fill="currentColor"></path>
  </symbol>
  <symbol viewBox="0 0 24 24" fill="none" xmlns="http://www.w3.org/2000/svg" id="communication-envelope-exclamation">
    <path d="M21 13.5a1 1 0 0 0-1 1v4a1 1 0 0 1-1 1H5a1 1 0 0 1-1-1V8.91l5.88 5.88a3 3 0 0 0 4.24 0l3.59-3.58a1.004 1.004 0 1 0-1.42-1.42l-3.58 3.59a1.002 1.002 0 0 1-1.42 0L5.41 7.5H17a1 1 0 1 0 0-2H5a3 3 0 0 0-3 3v10a3 3 0 0 0 3 3h14a3 3 0 0 0 3-3v-4a1 1 0 0 0-1-1zm0-11a1 1 0 0 0-1 1v4a1 1 0 0 0 2 0v-4a1 1 0 0 0-1-1zm-.2 7a.64.64 0 0 0-.18.06.76.76 0 0 0-.18.09l-.15.12a1.05 1.05 0 0 0-.29.71 1.23 1.23 0 0 0 0 .19c.01.066.03.13.06.19a.762.762 0 0 0 .09.18c.037.052.077.103.12.15a1.002 1.002 0 0 0 1.42 0l.12-.15a.762.762 0 0 0 .09-.18c.03-.06.05-.124.06-.19a1.23 1.23 0 0 0 0-.19 1 1 0 0 0-1.2-1l.04.02z" fill="currentColor"></path>
  </symbol>
  <symbol viewBox="0 0 24 24" fill="none" xmlns="http://www.w3.org/2000/svg" id="communication-envelope-heart">
    <path d="M20.5 13a1 1 0 0 0-1 1v4a1 1 0 0 1-1 1h-14a1 1 0 0 1-1-1V8.41l5.88 5.89a3 3 0 0 0 3.276.637c.37-.154.704-.381.984-.667l.89-.88a1 1 0 0 0-1.4-1.39l-.93.91a1 1 0 0 1-1.4 0L4.91 7H9.5a1 1 0 1 0 0-2h-5a3 3 0 0 0-3 3v10a3 3 0 0 0 3 3h14a3 3 0 0 0 3-3v-4a1 1 0 0 0-1-1zm1.05-9a3.33 3.33 0 0 0-3.88-.54 3.25 3.25 0 0 0-3.88 5.13L17 11.71c.192.183.445.286.71.29a1 1 0 0 0 .71-.29l3.17-3.17A3.26 3.26 0 0 0 21.55 4zm-1.41 3.12l-2.47 2.47-2.46-2.47A1.255 1.255 0 1 1 17 5.36a1 1 0 0 0 1.42 0 1.28 1.28 0 0 1 1.76 0 1.26 1.26 0 0 1-.04 1.76z" fill="currentColor"></path>
  </symbol>
  <symbol viewBox="0 0 24 24" fill="none" xmlns="http://www.w3.org/2000/svg" id="communication-envelope-info">
    <path d="M21 13.5a1 1 0 0 0-1 1v4a1 1 0 0 1-1 1H5a1 1 0 0 1-1-1V8.91l5.88 5.88a3 3 0 0 0 4.24 0l3.59-3.58a1.004 1.004 0 1 0-1.42-1.42l-3.58 3.59a.999.999 0 0 1-1.42 0L5.41 7.5H17a1 1 0 1 0 0-2H5a3 3 0 0 0-3 3v10a3 3 0 0 0 3 3h14a3 3 0 0 0 3-3v-4a1 1 0 0 0-1-1zm0-9a1.05 1.05 0 0 0 .71-.29l.12-.16a.56.56 0 0 0 .09-.17.64.64 0 0 0 .08-.18 1.362 1.362 0 0 0 0-.2 1.05 1.05 0 0 0-.29-.71 1 1 0 0 0-1.639.325 1 1 0 0 0 .219 1.095c.192.183.445.286.71.29zm0 1a1 1 0 0 0-1 1v4a1 1 0 1 0 2 0v-4a1 1 0 0 0-1-1z" fill="currentColor"></path>
  </symbol>
  <symbol viewBox="0 0 24 24" fill="none" xmlns="http://www.w3.org/2000/svg" id="communication-envelope-lock">
    <path d="M20.5 7.44V6.26a3 3 0 0 0-6 0v1.18a3 3 0 0 0-2 2.82v2a3 3 0 0 0 3 3h4a3 3 0 0 0 3-3v-2a3 3 0 0 0-2-2.82zm-4-1.18a1 1 0 0 1 2 0v1h-2v-1zm4 6a1 1 0 0 1-1 1h-4a1 1 0 0 1-1-1v-2a1 1 0 0 1 1-1h4a1 1 0 0 1 1 1v2zm0 5a1 1 0 0 0-1 1v1a1 1 0 0 1-1 1h-14a1 1 0 0 1-1-1V9.67l5.88 5.88a1.003 1.003 0 0 0 1.415.005 1.001 1.001 0 0 0 .005-1.415L4.91 8.26h5.59a1 1 0 1 0 0-2h-6a3 3 0 0 0-3 3v10a3 3 0 0 0 3 3h14a3 3 0 0 0 3-3v-1a1 1 0 0 0-1-1z" fill="currentColor"></path>
  </symbol>
  <symbol viewBox="0 0 24 24" fill="none" xmlns="http://www.w3.org/2000/svg" id="communication-envelope-minus">
    <path d="M21 8a1 1 0 0 0-1 1v8a1 1 0 0 1-1 1H5a1 1 0 0 1-1-1V7.41l5.88 5.88a3 3 0 0 0 4.24 0l3.59-3.58a1.004 1.004 0 1 0-1.42-1.42l-3.58 3.59a1.002 1.002 0 0 1-1.42 0L5.41 6H13a1 1 0 1 0 0-2H5a3 3 0 0 0-3 3v10a3 3 0 0 0 3 3h14a3 3 0 0 0 3-3V9a1 1 0 0 0-1-1zm-4-2h4a1 1 0 1 0 0-2h-4a1 1 0 1 0 0 2z" fill="currentColor"></path>
  </symbol>
  <symbol viewBox="0 0 24 24" fill="none" xmlns="http://www.w3.org/2000/svg" id="communication-envelope-open">
    <path d="M20.21 8.82L14 2.78a2.83 2.83 0 0 0-3.9 0l-6.21 6A2.6 2.6 0 0 0 3 10.71v8.58A2.75 2.75 0 0 0 5.78 22h12.44A2.75 2.75 0 0 0 21 19.29v-8.58a2.672 2.672 0 0 0-.79-1.89zm-8.77-4.6a.83.83 0 0 1 1.12 0L18 9.5l-5.47 5.28a.83.83 0 0 1-1.12 0L6 9.5l5.44-5.28zM19 19.29a.76.76 0 0 1-.78.71H5.78a.76.76 0 0 1-.78-.71v-7.94l4.05 3.9-1.66 1.6a1 1 0 0 0 0 1.41 1 1 0 0 0 .72.31 1 1 0 0 0 .69-.28l1.77-1.7a2.8 2.8 0 0 0 2.92 0l1.77 1.7a1 1 0 0 0 .69.28.999.999 0 0 0 .72-.31 1 1 0 0 0 0-1.41L15 15.25l4-3.9v7.94z" fill="currentColor"></path>
  </symbol>
  <symbol viewBox="0 0 24 24" fill="none" xmlns="http://www.w3.org/2000/svg" id="communication-envelope-question">
    <path d="M16.77 5.37A1 1 0 0 0 18.13 5a1 1 0 0 1 1.577-.207A1 1 0 0 1 19 6.5a1 1 0 1 0 0 2A3 3 0 1 0 16.4 4a1 1 0 0 0 .37 1.37zM21 13.5a1 1 0 0 0-1 1v4a1 1 0 0 1-1 1H5a1 1 0 0 1-1-1V8.91l5.88 5.89a3 3 0 0 0 4.24 0l1.64-1.64a1.004 1.004 0 0 0-1.42-1.42l-1.64 1.64a1 1 0 0 1-1.4 0L5.41 7.5H13a1 1 0 1 0 0-2H5a3 3 0 0 0-3 3v10a3 3 0 0 0 3 3h14a3 3 0 0 0 3-3v-4a1 1 0 0 0-1-1zm-2.71-3.71a1.001 1.001 0 0 0 0 1.42l.15.12a.762.762 0 0 0 .18.09.64.64 0 0 0 .18.06h.2a1 1 0 0 0 .381-1.924 1 1 0 0 0-1.091.234z" fill="currentColor"></path>
  </symbol>
  <symbol viewBox="0 0 24 24" fill="none" xmlns="http://www.w3.org/2000/svg" id="communication-envelope-receive">
    <path d="M8.29 6.21l2 2a1 1 0 0 0 1.639-.325 1 1 0 0 0-.219-1.095l-.3-.29H15a1 1 0 1 0 0-2h-3.59l.3-.29A1.005 1.005 0 0 0 11 2.496a1.004 1.004 0 0 0-.71.294l-2 2a1 1 0 0 0-.21.33 1 1 0 0 0 0 .76 1 1 0 0 0 .21.33zM16 10.5H8a3 3 0 0 0-3 3v5a3 3 0 0 0 3 3h8a3 3 0 0 0 3-3v-5a3 3 0 0 0-3-3zm-.42 2l-2.88 2.88a1 1 0 0 1-1.4 0L8.42 12.5h7.16zm1.42 6a1 1 0 0 1-1 1H8a1 1 0 0 1-1-1v-4.59l2.88 2.87a2.94 2.94 0 0 0 2.12.89 3 3 0 0 0 2.12-.88L17 13.91v4.59z" fill="currentColor"></path>
  </symbol>
  <symbol viewBox="0 0 24 24" fill="none" xmlns="http://www.w3.org/2000/svg" id="communication-envelope-redo">
    <path d="M20.5 14.26a1 1 0 0 0-1 1v4a1 1 0 0 1-1 1h-14a1 1 0 0 1-1-1V9.67l5.88 5.88a3 3 0 0 0 3.282.645 3 3 0 0 0 .988-.675 1 1 0 0 0 0-1.39 1.002 1.002 0 0 0-1.43 0 1 1 0 0 1-1.4 0L4.91 8.26H9.5a1 1 0 1 0 0-2h-5a3 3 0 0 0-3 3v10a3 3 0 0 0 3 3h14a3 3 0 0 0 3-3v-4a1 1 0 0 0-1-1zm1-11a1 1 0 0 0-1 1 5 5 0 1 0-3 9A5 5 0 0 0 20.8 12a1.003 1.003 0 0 0-1.32-1.51 3 3 0 1 1 .25-4.24H18.5a1 1 0 1 0 0 2h3a1 1 0 0 0 1-1v-3a1 1 0 0 0-1-.99z" fill="currentColor"></path>
  </symbol>
  <symbol viewBox="0 0 24 24" fill="none" xmlns="http://www.w3.org/2000/svg" id="communication-envelope-search">
    <path d="M22.21 10.29l-1.73-1.72a4.37 4.37 0 0 0 .65-2.26 4.31 4.31 0 1 0-4.32 4.32 4.37 4.37 0 0 0 2.26-.63l1.72 1.73a1.002 1.002 0 0 0 1.42 0 .999.999 0 0 0 0-1.44zM18.45 8a2.37 2.37 0 0 1-3.27 0 2.299 2.299 0 0 1-.68-1.64 2.32 2.32 0 0 1 3.198-2.185 2.3 2.3 0 0 1 .752.505 2.278 2.278 0 0 1 .68 1.63A2.3 2.3 0 0 1 18.45 8zm2.05 6a1 1 0 0 0-1 1v4a1 1 0 0 1-1 1h-14a1 1 0 0 1-1-1V9.41l5.88 5.89a3 3 0 0 0 4.24 0L15 13.88a1.004 1.004 0 1 0-1.42-1.42l-1.38 1.42a1 1 0 0 1-1.4 0L4.91 8H9.5a1 1 0 1 0 0-2h-5a3 3 0 0 0-3 3v10a3 3 0 0 0 3 3h14a3 3 0 0 0 3-3v-4a1 1 0 0 0-1-1z" fill="currentColor"></path>
  </symbol>
  <symbol viewBox="0 0 24 24" fill="none" xmlns="http://www.w3.org/2000/svg" id="communication-envelope-send">
    <path d="M16 10.5H8a3 3 0 0 0-3 3v5a3 3 0 0 0 3 3h8a3 3 0 0 0 3-3v-5a3 3 0 0 0-3-3zm-.42 2l-2.88 2.88a1 1 0 0 1-1.4 0L8.42 12.5h7.16zm1.42 6a1 1 0 0 1-1 1H8a1 1 0 0 1-1-1v-4.59l2.88 2.87a2.94 2.94 0 0 0 2.12.89 3 3 0 0 0 2.12-.88L17 13.91v4.59zm-8-12h3.59l-.3.29a1.001 1.001 0 0 0 .325 1.639 1 1 0 0 0 1.095-.22l2-2a1 1 0 0 0 .21-.33 1 1 0 0 0 0-.76 1 1 0 0 0-.21-.33l-2-2a1.004 1.004 0 0 0-1.42 1.42l.3.29H9a1 1 0 0 0 0 2z" fill="currentColor"></path>
  </symbol>
  <symbol viewBox="0 0 24 24" fill="none" xmlns="http://www.w3.org/2000/svg" id="communication-envelope-share">
    <path d="M20 14a1 1 0 0 0-1 1v4a1 1 0 0 1-1 1H4a1 1 0 0 1-1-1V9.41l5.88 5.89a3 3 0 0 0 2.11.87 3.08 3.08 0 0 0 2.16-.9l1.72-1.72a1.004 1.004 0 0 0-1.42-1.42l-1.75 1.75a1 1 0 0 1-1.4 0L4.41 8H10a1 1 0 1 0 0-2H4a3 3 0 0 0-3 3v10a3 3 0 0 0 3 3h14a3 3 0 0 0 3-3v-4a1 1 0 0 0-1-1zm0-6a2 2 0 0 0-1.18.39l-1.75-.8L19 6.71A2 2 0 0 0 20 7a2 2 0 1 0-2-2l-1.9.87A2 2 0 0 0 15 5.5a2 2 0 0 0 0 4c.322 0 .639-.082.92-.24l2.1 1A2 2 0 1 0 20 8z" fill="currentColor"></path>
  </symbol>
  <symbol viewBox="0 0 24 24" fill="none" xmlns="http://www.w3.org/2000/svg" id="communication-envelope-shield">
    <path d="M21.63 5.12a1 1 0 0 0-.84-.2 2.74 2.74 0 0 1-2.2-.46 1 1 0 0 0-1.18 0 2.74 2.74 0 0 1-2.2.46A1 1 0 0 0 14 5.9v3.31a4.619 4.619 0 0 0 1.84 3.7l1.57 1.16a1 1 0 0 0 1.18 0l1.57-1.16A4.618 4.618 0 0 0 22 9.21V5.9a1 1 0 0 0-.37-.78zM20 9.21a2.61 2.61 0 0 1-1 2.09l-1 .7-1-.72a2.61 2.61 0 0 1-1-2.09V7a4.67 4.67 0 0 0 2-.54A4.67 4.67 0 0 0 20 7v2.21zm1 6a1 1 0 0 0-1 1v3a1 1 0 0 1-1 1H5a1 1 0 0 1-1-1V9.67l5.88 5.88a3 3 0 0 0 3.276.647 3 3 0 0 0 .984-.667l-.7-.71-.74-.68a1 1 0 0 1-1.4 0L5.41 8.26H11a1 1 0 1 0 0-2H5a3 3 0 0 0-3 3v10a3 3 0 0 0 3 3h14a3 3 0 0 0 3-3v-3a1 1 0 0 0-1-1v-.05z" fill="currentColor"></path>
  </symbol>
  <symbol viewBox="0 0 24 24" fill="none" xmlns="http://www.w3.org/2000/svg" id="communication-envelope-star">
    <path d="M13.64 9.74l-.29 1.73A1.55 1.55 0 0 0 14 13a1.46 1.46 0 0 0 1.58.09l1.42-.81 1.44.79A1.46 1.46 0 0 0 20 13a1.55 1.55 0 0 0 .63-1.51l-.29-1.73 1.2-1.22a1.54 1.54 0 0 0-.85-2.6l-1.62-.24-.73-1.55a1.5 1.5 0 0 0-2.72 0l-.73 1.55-1.62.24a1.54 1.54 0 0 0-.85 2.6l1.22 1.2zm1.83-2.13a1.51 1.51 0 0 0 1.14-.85l.39-.83.39.83a1.55 1.55 0 0 0 1.14.86l1 .14-.73.74a1.57 1.57 0 0 0-.42 1.34l.16 1-.79-.43a1.48 1.48 0 0 0-1.44 0l-.79.43.16-1a1.54 1.54 0 0 0-.42-1.33l-.73-.75.94-.15zM21 15.26a1 1 0 0 0-1 1v3a1 1 0 0 1-1 1H5a1 1 0 0 1-1-1V9.67l5.88 5.88a2.939 2.939 0 0 0 2.1.88h.27a1 1 0 1 0-.18-1.99.94.94 0 0 1-.77-.28l-5.89-5.9H9a1 1 0 1 0 0-2H5a3 3 0 0 0-3 3v10a3 3 0 0 0 3 3h14a3 3 0 0 0 3-3v-3a1 1 0 0 0-1-1z" fill="currentColor"></path>
  </symbol>
  <symbol viewBox="0 0 24 24" fill="none" xmlns="http://www.w3.org/2000/svg" id="communication-envelope-times">
    <path d="M21 11a1 1 0 0 0-1 1v6a1 1 0 0 1-1 1H5a1 1 0 0 1-1-1V8.41l5.88 5.89a3 3 0 0 0 2.11.87 3.08 3.08 0 0 0 2.16-.9l1.72-1.72a1.004 1.004 0 1 0-1.42-1.42l-1.75 1.75a1 1 0 0 1-1.4 0L5.41 7H13a1 1 0 1 0 0-2H5a3 3 0 0 0-3 3v10a3 3 0 0 0 3 3h14a3 3 0 0 0 3-3v-6a1 1 0 0 0-1-1zm-.59-5l1.3-1.29a1.004 1.004 0 1 0-1.42-1.42L19 4.59l-1.29-1.3a1.003 1.003 0 1 0-1.42 1.42L17.59 6l-1.3 1.29a1.001 1.001 0 0 0 .325 1.639 1 1 0 0 0 1.095-.22L19 7.41l1.29 1.3a1 1 0 0 0 1.639-.324 1 1 0 0 0-.219-1.095L20.41 6z" fill="currentColor"></path>
  </symbol>
  <symbol viewBox="0 0 24 24" fill="none" xmlns="http://www.w3.org/2000/svg" id="communication-envelope-upload-alt">
    <path d="M16 11.08H8a3 3 0 0 0-3 3v5a3 3 0 0 0 3 3h8a3 3 0 0 0 3-3v-5a3 3 0 0 0-3-3zm-.42 2L12.7 16a1 1 0 0 1-1.4 0l-2.88-2.92h7.16zm1.42 6a1 1 0 0 1-1 1H8a1 1 0 0 1-1-1v-4.59l2.88 2.88a3 3 0 0 0 4.24 0L17 14.49v4.59zM10.71 5.62l.29-.29v2.75a1 1 0 0 0 2 0V5.33l.29.29a1 1 0 0 0 1.42-1.41l-2-2a1 1 0 0 0-1.42 0l-2 2a1 1 0 1 0 1.42 1.41z" fill="currentColor"></path>
  </symbol>
  <symbol viewBox="0 0 24 24" fill="none" xmlns="http://www.w3.org/2000/svg" id="communication-envelope-upload">
    <path d="M20.5 14a1 1 0 0 0-1 1v4a1 1 0 0 1-1 1h-14a1 1 0 0 1-1-1V9.41l5.88 5.89a3 3 0 0 0 4.24 0l1.64-1.64a1.004 1.004 0 1 0-1.42-1.42l-1.64 1.64a1 1 0 0 1-1.4 0L4.91 8h6.59a1 1 0 1 0 0-2h-7a3 3 0 0 0-3 3v10a3 3 0 0 0 3 3h14a3 3 0 0 0 3-3v-4a1 1 0 0 0-1-1zm1.71-8.71l-3-3a1 1 0 0 0-.33-.21 1 1 0 0 0-.76 0 1 1 0 0 0-.33.21l-3 3a1.004 1.004 0 1 0 1.42 1.42l1.29-1.3V11a1 1 0 0 0 2 0V5.41l1.29 1.3a1 1 0 0 0 1.639-.326 1 1 0 0 0-.219-1.094z" fill="currentColor"></path>
  </symbol>
  <symbol viewBox="0 0 24 24" fill="none" xmlns="http://www.w3.org/2000/svg" id="communication-envelope">
    <path d="M19 4H5a3 3 0 0 0-3 3v10a3 3 0 0 0 3 3h14a3 3 0 0 0 3-3V7a3 3 0 0 0-3-3zm-.41 2l-5.88 5.88a1.002 1.002 0 0 1-1.42 0L5.41 6h13.18zM20 17a1 1 0 0 1-1 1H5a1 1 0 0 1-1-1V7.41l5.88 5.88a3 3 0 0 0 4.24 0L20 7.41V17z" fill="currentColor"></path>
  </symbol>
  <symbol viewBox="0 0 24 24" fill="none" xmlns="http://www.w3.org/2000/svg" id="communication-fast-mail-alt">
    <path d="M15.69 9a2.93 2.93 0 0 0-1-1.71 3 3 0 0 0-2-.74H4.8a3 3 0 0 0-2.3 1.02v.06A3 3 0 0 0 1.84 10l.88 5a3 3 0 0 0 3 2.48h7.94a3 3 0 0 0 2.29-1.07 3 3 0 0 0 .62-2.41l-.88-5zm-3.41-.5l-2.34 2.64a1 1 0 0 1-1.38.11L5.17 8.5h7.11zm2.1 6.64a1 1 0 0 1-.76.36H5.68a1 1 0 0 1-1-.83L3.87 10l3.43 2.8a3 3 0 0 0 4.14-.34L13.8 9.8l.8 4.53a1 1 0 0 1-.22.81zm6.83-4.64h-2a1 1 0 0 0 0 2h2a1 1 0 0 0 0-2zm0-2a1 1 0 1 0 0-2h-3a1 1 0 1 0 0 2h3z" fill="currentColor"></path>
  </symbol>
  <symbol viewBox="0 0 24 24" fill="none" xmlns="http://www.w3.org/2000/svg" id="communication-fast-mail">
    <path d="M4.79 10.5h-2a1 1 0 0 0 0 2h2a1 1 0 0 0 0-2zm16.78-2.84V7.6a3 3 0 0 0-2.37-1.1h-7.93a3 3 0 0 0-2 .74A2.93 2.93 0 0 0 8.31 9l-.88 5a3 3 0 0 0 2.95 3.52h7.94a3 3 0 0 0 3-2.48l.88-5a3 3 0 0 0-.63-2.38zm-2.74.84l-3.4 2.76a1 1 0 0 1-1.38-.12L11.72 8.5h7.11zm.48 6.17a1 1 0 0 1-1 .83h-7.93a1 1 0 0 1-.98-1.17l.8-4.53 2.35 2.66a3 3 0 0 0 4.14.35L20.13 10l-.82 4.67zM5.79 6.5h-3a1 1 0 1 0 0 2h3a1 1 0 0 0 0-2z" fill="currentColor"></path>
  </symbol>
  <symbol viewBox="0 0 24 24" fill="none" xmlns="http://www.w3.org/2000/svg" id="communication-comment-alt-block">
    <path d="M19 6h-4a1 1 0 1 0 0 2h4a1 1 0 0 1 1 1v9.72l-1.57-1.45a1 1 0 0 0-.68-.27H9a1 1 0 0 1-1-1v-1a1 1 0 1 0-2 0v1a3 3 0 0 0 3 3h8.36l3 2.73A1 1 0 0 0 21 22a1.1 1.1 0 0 0 .4-.08A1 1 0 0 0 22 21V9a3 3 0 0 0-3-3zm-8.46 4.54a5 5 0 1 0-7.062-7.08 5 5 0 0 0 7.062 7.08zM4 7a3 3 0 0 1 3-3 3 3 0 0 1 1.28.3l-4 4A3 3 0 0 1 4 7zm5.7-1.29A3 3 0 0 1 10 7a3 3 0 0 1-4.28 2.7L9.7 5.71z" fill="currentColor"></path>
  </symbol>
  <symbol viewBox="0 0 24 24" fill="none" xmlns="http://www.w3.org/2000/svg" id="communication-comment-alt-chart-lines">
    <path d="M12 8a1 1 0 0 0-1 1v4a1 1 0 0 0 2 0V9a1 1 0 0 0-1-1zm-4 3a1 1 0 0 0-1 1v1a1 1 0 1 0 2 0v-1a1 1 0 0 0-1-1zm11-9H5a3 3 0 0 0-3 3v10a3 3 0 0 0 3 3h11.59l3.7 3.71A1 1 0 0 0 21 22a.84.84 0 0 0 .38-.08A1 1 0 0 0 22 21V5a3 3 0 0 0-3-3zm1 16.59l-2.29-2.3A1 1 0 0 0 17 16H5a1 1 0 0 1-1-1V5a1 1 0 0 1 1-1h14a1 1 0 0 1 1 1v13.59zM16 6a1 1 0 0 0-1 1v6a1 1 0 0 0 2 0V7a1 1 0 0 0-1-1z" fill="currentColor"></path>
  </symbol>
  <symbol viewBox="0 0 24 24" fill="none" xmlns="http://www.w3.org/2000/svg" id="communication-comment-alt-check">
    <path d="M6.77 9.15l5.44-5.44a1.005 1.005 0 0 0-.71-1.714c-.266 0-.522.106-.71.294L6.06 7 4.21 5.17a1.004 1.004 0 0 0-1.42 1.42l2.56 2.56a1 1 0 0 0 1.42 0zM18.5 6H13a1 1 0 1 0 0 2h5.5a1 1 0 0 1 1 1v9.72l-1.57-1.45a1 1 0 0 0-.68-.27H8.5a1 1 0 0 1-1-1v-3.5a1 1 0 0 0-2 0V16a3 3 0 0 0 3 3h8.36l3 2.73a1 1 0 0 0 1.518-.18 1 1 0 0 0 .162-.55V9a3.002 3.002 0 0 0-3.04-3z" fill="currentColor"></path>
  </symbol>
  <symbol viewBox="0 0 24 24" fill="none" xmlns="http://www.w3.org/2000/svg" id="communication-comment-alt-dots">
    <path d="M12 9a1 1 0 1 0 0 2 1 1 0 0 0 0-2zm7-7H5a3 3 0 0 0-3 3v10a3 3 0 0 0 3 3h11.59l3.7 3.71A1 1 0 0 0 21 22a.84.84 0 0 0 .38-.08A1 1 0 0 0 22 21V5a3 3 0 0 0-3-3zm1 16.59l-2.29-2.3A1 1 0 0 0 17 16H5a1 1 0 0 1-1-1V5a1 1 0 0 1 1-1h14a1 1 0 0 1 1 1v13.59zM8 9a1 1 0 1 0 0 2 1 1 0 0 0 0-2zm8 0a1 1 0 1 0 0 2 1 1 0 0 0 0-2z" fill="currentColor"></path>
  </symbol>
  <symbol viewBox="0 0 24 24" fill="none" xmlns="http://www.w3.org/2000/svg" id="communication-comment-alt-download">
    <path d="M6.12 11.92a.94.94 0 0 0 .76 0 1 1 0 0 0 .33-.21l3-3a1.004 1.004 0 1 0-1.42-1.42L7.5 8.59V3a1 1 0 1 0-2 0v5.59l-1.29-1.3a1.004 1.004 0 1 0-1.42 1.42l3 3a1 1 0 0 0 .33.21zM18.5 6h-5a1 1 0 1 0 0 2h5a1 1 0 0 1 1 1v9.72l-1.57-1.45a1 1 0 0 0-.68-.27H8.5a1 1 0 0 1-1-1v-1a1 1 0 1 0-2 0v1a3 3 0 0 0 3 3h8.36l3 2.73a1 1 0 0 0 1.518-.18 1 1 0 0 0 .162-.55V9a3.002 3.002 0 0 0-3.04-3z" fill="currentColor"></path>
  </symbol>
  <symbol viewBox="0 0 24 24" fill="none" xmlns="http://www.w3.org/2000/svg" id="communication-comment-alt-edit">
    <path d="M18.5 5.5h-4a1 1 0 1 0 0 2h4a1 1 0 0 1 1 1v9.72l-1.57-1.45a1 1 0 0 0-.68-.27H8.5a1 1 0 0 1-1-1v-1a1 1 0 1 0-2 0v1a3 3 0 0 0 3 3h8.36l3 2.73a1 1 0 0 0 1.518-.18 1 1 0 0 0 .162-.55v-12a3.002 3.002 0 0 0-3.04-3zm-9.42 7h2.42a1 1 0 0 0 1-1V9.08a1 1 0 0 0-.29-.71L6.63 2.79a1 1 0 0 0-1.41 0L2.79 5.22a1 1 0 0 0 0 1.41l5.58 5.58a1 1 0 0 0 .71.29zM5.92 4.91l4.58 4.58v1h-1L4.91 5.92l1.01-1.01z" fill="currentColor"></path>
  </symbol>
  <symbol viewBox="0 0 24 24" fill="none" xmlns="http://www.w3.org/2000/svg" id="communication-comment-alt-exclamation">
    <path d="M19 2H5a3 3 0 0 0-3 3v10a3 3 0 0 0 3 3h11.59l3.7 3.71A1 1 0 0 0 21 22a.84.84 0 0 0 .38-.08A1 1 0 0 0 22 21V5a3 3 0 0 0-3-3zm1 16.59l-2.29-2.3A1 1 0 0 0 17 16H5a1 1 0 0 1-1-1V5a1 1 0 0 1 1-1h14a1 1 0 0 1 1 1v13.59zM12 12a1 1 0 1 0 0 2 1 1 0 0 0 0-2zm0-6a1 1 0 0 0-1 1v3a1 1 0 0 0 2 0V7a1 1 0 0 0-1-1z" fill="currentColor"></path>
  </symbol>
  <symbol viewBox="0 0 24 24" fill="none" xmlns="http://www.w3.org/2000/svg" id="communication-comment-alt-heart">
    <path d="M12 6.35a3.07 3.07 0 0 0-3.54.53 3 3 0 0 0 0 4.24L11.29 14a1.002 1.002 0 0 0 1.42 0l2.83-2.83a3 3 0 0 0 0-4.24A3.07 3.07 0 0 0 12 6.35zm2.12 3.36L12 11.83 9.88 9.71a1 1 0 1 1 1.41-1.42 1 1 0 0 0 1.42 0 1 1 0 1 1 1.41 1.42zM19 2H5a3 3 0 0 0-3 3v10a3 3 0 0 0 3 3h11.59l3.7 3.71A1 1 0 0 0 21 22a.84.84 0 0 0 .38-.08A1 1 0 0 0 22 21V5a3 3 0 0 0-3-3zm1 16.59l-2.29-2.3A1 1 0 0 0 17 16H5a1 1 0 0 1-1-1V5a1 1 0 0 1 1-1h14a1 1 0 0 1 1 1v13.59z" fill="currentColor"></path>
  </symbol>
  <symbol viewBox="0 0 24 24" fill="none" xmlns="http://www.w3.org/2000/svg" id="communication-comment-alt-image">
    <path d="M19 2H5a3 3 0 0 0-3 3v10a3 3 0 0 0 3 3h11.59l3.7 3.71A1 1 0 0 0 21 22a.84.84 0 0 0 .38-.08A1 1 0 0 0 22 21V5a3 3 0 0 0-3-3zM5.77 16H5a1 1 0 0 1-1-1v-.42l3.3-3.29a1 1 0 0 1 1.41 0l.87.87L5.77 16zM20 18.59l-2.29-2.3A1 1 0 0 0 17 16H8.59l6.71-6.71a1 1 0 0 1 1.4 0l3.3 3.29v6.01zm0-8.83l-1.88-1.87a3 3 0 0 0-4.24 0L11 10.76l-.88-.87a3.06 3.06 0 0 0-4.24 0L4 11.76V5a1 1 0 0 1 1-1h14a1 1 0 0 1 1 1v4.76z" fill="currentColor"></path>
  </symbol>
  <symbol viewBox="0 0 24 24" fill="none" xmlns="http://www.w3.org/2000/svg" id="communication-comment-alt-info">
    <path d="M5 11a1 1 0 0 0 1-1V6a1 1 0 0 0-2 0v4a1 1 0 0 0 1 1zm-.71-7.29a1 1 0 0 0 1.09.21 1.15 1.15 0 0 0 .33-.21 1.15 1.15 0 0 0 .21-.33 1 1 0 0 0-.21-1.09 1 1 0 0 0-1.09-.21 1 1 0 0 0-.33.21 1 1 0 0 0-.21 1.09c.05.121.122.233.21.33zM17 6H9a1 1 0 1 0 0 2h8a1 1 0 0 1 1 1v9.72l-1.57-1.45a1 1 0 0 0-.68-.27H7a1 1 0 0 1-1-1v-2a1 1 0 1 0-2 0v2a3 3 0 0 0 3 3h8.36l3 2.73A1 1 0 0 0 19 22a1.1 1.1 0 0 0 .4-.08A1 1 0 0 0 20 21V9a3 3 0 0 0-3-3z" fill="currentColor"></path>
  </symbol>
  <symbol viewBox="0 0 24 24" fill="none" xmlns="http://www.w3.org/2000/svg" id="communication-comment-alt-lines">
    <path d="M13 11H7a1 1 0 0 0 0 2h6a1 1 0 0 0 0-2zm4-4H7a1 1 0 0 0 0 2h10a1 1 0 1 0 0-2zm2-5H5a3 3 0 0 0-3 3v10a3 3 0 0 0 3 3h11.59l3.7 3.71A1 1 0 0 0 21 22a.84.84 0 0 0 .38-.08A1 1 0 0 0 22 21V5a3 3 0 0 0-3-3zm1 16.59l-2.29-2.3A1 1 0 0 0 17 16H5a1 1 0 0 1-1-1V5a1 1 0 0 1 1-1h14a1 1 0 0 1 1 1v13.59z" fill="currentColor"></path>
  </symbol>
  <symbol viewBox="0 0 24 24" fill="none" xmlns="http://www.w3.org/2000/svg" id="communication-comment-alt-lock">
    <path d="M12 10V8a3 3 0 0 0-2-2.82V4a3 3 0 1 0-6 0v1.18A3 3 0 0 0 2 8v2a3 3 0 0 0 3 3h4a3 3 0 0 0 3-3zM6 4a1 1 0 0 1 2 0v1H6V4zm-2 6V8a1 1 0 0 1 1-1h4a1 1 0 0 1 1 1v2a1 1 0 0 1-1 1H5a1 1 0 0 1-1-1zm15-3h-4a1 1 0 1 0 0 2h4a1 1 0 0 1 1 1v9.72l-1.57-1.45a1 1 0 0 0-.68-.27H9a1 1 0 0 1-1-1v-1a1 1 0 1 0-2 0v1a3 3 0 0 0 3 3h8.36l3 2.73A1 1 0 0 0 21 23a1.1 1.1 0 0 0 .4-.08A1 1 0 0 0 22 22V10a3 3 0 0 0-3-3z" fill="currentColor"></path>
  </symbol>
  <symbol viewBox="0 0 24 24" fill="none" xmlns="http://www.w3.org/2000/svg" id="communication-comment-alt-medical">
    <path d="M14 9h-1V8a1 1 0 0 0-2 0v1h-1a1 1 0 0 0 0 2h1v1a1 1 0 0 0 2 0v-1h1a1 1 0 0 0 0-2zm5-7H5a3 3 0 0 0-3 3v10a3 3 0 0 0 3 3h11.59l3.7 3.71A1 1 0 0 0 21 22a.84.84 0 0 0 .38-.08A1 1 0 0 0 22 21V5a3 3 0 0 0-3-3zm1 16.59l-2.29-2.3A1 1 0 0 0 17 16H5a1 1 0 0 1-1-1V5a1 1 0 0 1 1-1h14a1 1 0 0 1 1 1v13.59z" fill="currentColor"></path>
  </symbol>
  <symbol viewBox="0 0 24 24" fill="none" xmlns="http://www.w3.org/2000/svg" id="communication-comment-alt-message">
    <path d="M17 7H7a1 1 0 0 0 0 2h10a1 1 0 1 0 0-2zm0 4H7a1 1 0 0 0 0 2h10a1 1 0 0 0 0-2zm2-9H5a3 3 0 0 0-3 3v10a3 3 0 0 0 3 3h11.59l3.7 3.71A1 1 0 0 0 21 22a.84.84 0 0 0 .38-.08A1 1 0 0 0 22 21V5a3 3 0 0 0-3-3zm1 16.59l-2.29-2.3A1 1 0 0 0 17 16H5a1 1 0 0 1-1-1V5a1 1 0 0 1 1-1h14a1 1 0 0 1 1 1v13.59z" fill="currentColor"></path>
  </symbol>
  <symbol viewBox="0 0 24 24" fill="none" xmlns="http://www.w3.org/2000/svg" id="communication-comment-alt-notes">
    <path d="M7 7a1 1 0 1 0 0 2 1 1 0 0 0 0-2zm0 4a1 1 0 1 0 0 2 1 1 0 0 0 0-2zm10 0h-6a1 1 0 0 0 0 2h6a1 1 0 0 0 0-2zm0-4h-6a1 1 0 1 0 0 2h6a1 1 0 1 0 0-2zm2-5H5a3 3 0 0 0-3 3v10a3 3 0 0 0 3 3h11.59l3.7 3.71A1 1 0 0 0 21 22a.84.84 0 0 0 .38-.08A1 1 0 0 0 22 21V5a3 3 0 0 0-3-3zm1 16.59l-2.29-2.3A1 1 0 0 0 17 16H5a1 1 0 0 1-1-1V5a1 1 0 0 1 1-1h14a1 1 0 0 1 1 1v13.59z" fill="currentColor"></path>
  </symbol>
  <symbol viewBox="0 0 24 24" fill="none" xmlns="http://www.w3.org/2000/svg" id="communication-comment-alt-plus">
    <path d="M15 9h-2V7a1 1 0 0 0-2 0v2H9a1 1 0 0 0 0 2h2v2a1 1 0 0 0 2 0v-2h2a1 1 0 0 0 0-2zm4-7H5a3 3 0 0 0-3 3v10a3 3 0 0 0 3 3h11.59l3.7 3.71A1 1 0 0 0 21 22a.84.84 0 0 0 .38-.08A1 1 0 0 0 22 21V5a3 3 0 0 0-3-3zm1 16.59l-2.29-2.3A1 1 0 0 0 17 16H5a1 1 0 0 1-1-1V5a1 1 0 0 1 1-1h14a1 1 0 0 1 1 1v13.59z" fill="currentColor"></path>
  </symbol>
  <symbol viewBox="0 0 24 24" fill="none" xmlns="http://www.w3.org/2000/svg" id="communication-comment-alt-question">
    <path d="M6.29 10.3a1 1 0 0 0 1.09 1.63 1.19 1.19 0 0 0 .33-.22 1 1 0 0 0 .21-.32 1 1 0 0 0-1.63-1.09zM7 5a1 1 0 0 1 0 2 1 1 0 0 0 0 2 3 3 0 1 0-2.6-4.5 1 1 0 1 0 1.73 1A1 1 0 0 1 7 5zm12 1h-6a1 1 0 1 0 0 2h6a1 1 0 0 1 1 1v9.72l-1.57-1.45a1 1 0 0 0-.68-.27H9a1 1 0 0 1-1-1v-1a1 1 0 1 0-2 0v1a3 3 0 0 0 3 3h8.36l3 2.73A1 1 0 0 0 21 22a1.1 1.1 0 0 0 .4-.08A1 1 0 0 0 22 21V9a3 3 0 0 0-3-3z" fill="currentColor"></path>
  </symbol>
  <symbol viewBox="0 0 24 24" fill="none" xmlns="http://www.w3.org/2000/svg" id="communication-comment-alt-redo">
    <path d="M10.3 10.75A1 1 0 1 0 9 9.25 3 3 0 1 1 7 4a3 3 0 0 1 2.23 1H8a1 1 0 1 0 0 2h3a1 1 0 0 0 1-1V3a1 1 0 0 0-2 0 5 5 0 1 0 .3 7.75zM19 6h-4a1 1 0 1 0 0 2h4a1 1 0 0 1 1 1v9.72l-1.57-1.45a1 1 0 0 0-.68-.27H9a1 1 0 0 1-1-1v-1a1 1 0 1 0-2 0v1a3 3 0 0 0 3 3h8.36l3 2.73A1 1 0 0 0 21 22a1.1 1.1 0 0 0 .4-.08A1 1 0 0 0 22 21V9a3 3 0 0 0-3-3z" fill="currentColor"></path>
  </symbol>
  <symbol viewBox="0 0 24 24" fill="none" xmlns="http://www.w3.org/2000/svg" id="communication-comment-alt-search">
    <path d="M19 6h-5a1 1 0 1 0 0 2h5a1 1 0 0 1 1 1v9.72l-1.57-1.45a1 1 0 0 0-.68-.27H9a1 1 0 0 1-1-1v-2a1 1 0 1 0-2 0v2a3 3 0 0 0 3 3h8.36l3 2.73A1 1 0 0 0 21 22a1.1 1.1 0 0 0 .4-.08A1 1 0 0 0 22 21V9a3 3 0 0 0-3-3zM8.57 10l1.72 1.73a1.002 1.002 0 0 0 1.639-.325 1 1 0 0 0-.219-1.095L10 8.57a4.37 4.37 0 0 0 .65-2.26 4.325 4.325 0 1 0-7.388 3.051 4.32 4.32 0 0 0 5.308.64zM4 6.31a2.29 2.29 0 0 1 .68-1.63 2.32 2.32 0 0 1 3.32 0A2.31 2.31 0 0 1 8 8a2.32 2.32 0 0 1-4-1.69z" fill="currentColor"></path>
  </symbol>
  <symbol viewBox="0 0 24 24" fill="none" xmlns="http://www.w3.org/2000/svg" id="communication-comment-alt-share">
    <path d="M19.5 6.5h-5a1 1 0 1 0 0 2h5a1 1 0 0 1 1 1v9.72l-1.57-1.45a1 1 0 0 0-.68-.27H9.5a1 1 0 0 1-1-1v-2a1 1 0 1 0-2 0v2a3 3 0 0 0 3 3h8.36l3 2.73a1 1 0 0 0 1.518-.18 1 1 0 0 0 .162-.55v-12a3.002 3.002 0 0 0-3.04-3zm-10 5a1.999 1.999 0 1 0-1.18-3.61l-1.75-.8 1.91-.88a2 2 0 0 0 1 .29 2 2 0 1 0-2-2l-1.9.87A2 2 0 0 0 4.5 5a2 2 0 1 0 0 4 2 2 0 0 0 .93-.24l2.09 1A2 2 0 0 0 9.5 11.5z" fill="currentColor"></path>
  </symbol>
  <symbol viewBox="0 0 24 24" fill="none" xmlns="http://www.w3.org/2000/svg" id="communication-comment-alt-shield">
    <path d="M6.57 12a1 1 0 0 0 .58-.19l1.62-1.16A4.56 4.56 0 0 0 10.68 7V3.63a1.001 1.001 0 0 0-1.21-.97 3 3 0 0 1-2.33-.48 1 1 0 0 0-1.14 0 3 3 0 0 1-2.33.48 1 1 0 0 0-1.2 1V7a4.55 4.55 0 0 0 1.9 3.7L6 11.81a.94.94 0 0 0 .57.19zM4.46 7V4.72a5.16 5.16 0 0 0 2.11-.55 5.12 5.12 0 0 0 2.11.55V7a2.57 2.57 0 0 1-1.07 2l-1 .74L5.53 9a2.57 2.57 0 0 1-1.07-2zm14.08-1h-5a1 1 0 1 0 0 2h5a1 1 0 0 1 1 1v9.72L18 17.27a.94.94 0 0 0-.68-.27H8.54a1 1 0 0 1-1-1v-1a1 1 0 1 0-2 0v1a3 3 0 0 0 3 3h8.36l3 2.73a1 1 0 0 0 1.08.19 1 1 0 0 0 .59-.92V9a3.001 3.001 0 0 0-3.03-3z" fill="currentColor"></path>
  </symbol>
  <symbol viewBox="0 0 24 24" fill="none" xmlns="http://www.w3.org/2000/svg" id="communication-comment-alt-slash">
    <path d="M10.66 6H17a1 1 0 0 1 1 1v6.34a1 1 0 1 0 2 0V7a3 3 0 0 0-3-3h-6.34a1 1 0 1 0 0 2zm11.05 14.29l-18-18a1.004 1.004 0 0 0-1.42 1.42l2 2A3 3 0 0 0 4 7v12a1 1 0 0 0 .62.92A.84.84 0 0 0 5 20a.999.999 0 0 0 .71-.29L8.41 17h7.18l4.7 4.71a.999.999 0 0 0 1.42 0 1 1 0 0 0 0-1.42zM8 15a1 1 0 0 0-.71.29L6 16.59V7.41L13.59 15H8z" fill="currentColor"></path>
  </symbol>
  <symbol viewBox="0 0 24 24" fill="none" xmlns="http://www.w3.org/2000/svg" id="communication-comment-alt-upload">
    <path d="M5.5 11a1 1 0 1 0 2 0V5.41l1.29 1.3a1 1 0 0 0 1.42 0 1.001 1.001 0 0 0 0-1.42l-3-3a1 1 0 0 0-.33-.21 1 1 0 0 0-.76 0 1 1 0 0 0-.33.21l-3 3a1.004 1.004 0 1 0 1.42 1.42l1.29-1.3V11zm13-5h-5a1 1 0 1 0 0 2h5a1 1 0 0 1 1 1v9.72l-1.57-1.45a1 1 0 0 0-.68-.27H8.5a1 1 0 0 1-1-1v-1a1 1 0 1 0-2 0v1a3 3 0 0 0 3 3h8.36l3 2.73a1 1 0 0 0 1.518-.18 1 1 0 0 0 .162-.55V9a3.002 3.002 0 0 0-3.04-3z" fill="currentColor"></path>
  </symbol>
  <symbol viewBox="0 0 24 24" fill="none" xmlns="http://www.w3.org/2000/svg" id="communication-comment-alt-verify">
    <path d="M15.71 6.29l-5.3 5.3-2.12-2.12a1 1 0 1 0-1.41 1.41l2.83 2.83a1 1 0 0 0 1.41 0l6-6a1 1 0 1 0-1.41-1.42zM19 2H5a3 3 0 0 0-3 3v10a3 3 0 0 0 3 3h11.59l3.7 3.71A1 1 0 0 0 21 22a.84.84 0 0 0 .38-.08A1 1 0 0 0 22 21V5a3 3 0 0 0-3-3zm1 16.59l-2.29-2.3A1 1 0 0 0 17 16H5a1 1 0 0 1-1-1V5a1 1 0 0 1 1-1h14a1 1 0 0 1 1 1v13.59z" fill="currentColor"></path>
  </symbol>
  <symbol viewBox="0 0 24 24" fill="none" xmlns="http://www.w3.org/2000/svg" id="communication-comment-alt">
    <path d="M19 2H5a3 3 0 0 0-3 3v10a3 3 0 0 0 3 3h11.59l3.7 3.71A1 1 0 0 0 21 22a.84.84 0 0 0 .38-.08A1 1 0 0 0 22 21V5a3 3 0 0 0-3-3zm1 16.59l-2.29-2.3A1 1 0 0 0 17 16H5a1 1 0 0 1-1-1V5a1 1 0 0 1 1-1h14a1 1 0 0 1 1 1v13.59z" fill="currentColor"></path>
  </symbol>
  <symbol viewBox="0 0 24 24" fill="none" xmlns="http://www.w3.org/2000/svg" id="communication-comment-block">
    <path d="M19 14a.998.998 0 0 0-1.22.72A7 7 0 0 1 11 20H5.41l.64-.63a1 1 0 0 0 0-1.41 7 7 0 0 1 3.2-11.74 1.002 1.002 0 1 0-.5-1.94A9 9 0 0 0 4 18.62l-1.71 1.67a1 1 0 0 0-.21 1.09A1 1 0 0 0 3 22h8a9 9 0 0 0 8.72-6.75A1 1 0 0 0 19 14zm1.54-10.54a5 5 0 1 0-7.08 7.063 5 5 0 0 0 7.08-7.063zM14 7a3 3 0 0 1 3-3 3 3 0 0 1 1.29.3l-4 4A2.999 2.999 0 0 1 14 7zm5.12 2.12a3.08 3.08 0 0 1-3.4.57l4-4A3 3 0 0 1 20 7a3 3 0 0 1-.88 2.12z" fill="currentColor"></path>
  </symbol>
  <symbol viewBox="0 0 24 24" fill="none" xmlns="http://www.w3.org/2000/svg" id="communication-comment-chart-line">
    <path d="M12 10a1 1 0 0 0-1 1v4a1 1 0 1 0 2 0v-4a1 1 0 0 0-1-1zm-4 3a1 1 0 0 0-1 1v1a1 1 0 1 0 2 0v-1a1 1 0 0 0-1-1zm4-11A10 10 0 0 0 2 12a9.89 9.89 0 0 0 2.26 6.33l-2 2a1 1 0 0 0-.21 1.09A1 1 0 0 0 3 22h9a10 10 0 0 0 0-20zm0 18H5.41l.93-.93a1 1 0 0 0 .3-.71 1 1 0 0 0-.3-.7A8 8 0 1 1 12 20zm4-12a1 1 0 0 0-1 1v6a1 1 0 1 0 2 0V9a1 1 0 0 0-1-1z" fill="currentColor"></path>
  </symbol>
  <symbol viewBox="0 0 24 24" fill="none" xmlns="http://www.w3.org/2000/svg" id="communication-comment-check">
    <path d="M13.29 7.13a1 1 0 0 0 0 1.42l1.92 1.92a1.002 1.002 0 0 0 1.42 0l4.08-4.08A1 1 0 1 0 19.29 5l-3.37 3.35-1.21-1.22a1 1 0 0 0-1.42 0zm6.62 3.51a1 1 0 0 0-.91 1.08c.005.093.005.187 0 .28a7 7 0 0 1-7 7H6.41l.64-.63a1 1 0 0 0 0-1.41 7 7 0 0 1 3.48-11.81 7.14 7.14 0 0 1 2.8 0 1.02 1.02 0 0 0 .4-2 9.15 9.15 0 0 0-3.61 0A9.05 9.05 0 0 0 3 12a9 9 0 0 0 2 5.62l-1.71 1.67a1 1 0 0 0-.21 1.09A1 1 0 0 0 4 21h8a9 9 0 0 0 9-9v-.44a1 1 0 0 0-1.09-.92z" fill="currentColor"></path>
  </symbol>
  <symbol viewBox="0 0 24 24" fill="none" xmlns="http://www.w3.org/2000/svg" id="communication-comment-dots">
    <path d="M8 11a1 1 0 1 0 0 2 1 1 0 0 0 0-2zm4 0a1 1 0 1 0 0 2 1 1 0 0 0 0-2zm4 0a1 1 0 1 0 0 2 1 1 0 0 0 0-2zm-4-9A10 10 0 0 0 2 12a9.89 9.89 0 0 0 2.26 6.33l-2 2a1 1 0 0 0-.21 1.09A1 1 0 0 0 3 22h9a10 10 0 0 0 0-20zm0 18H5.41l.93-.93a1 1 0 0 0 .3-.71 1 1 0 0 0-.3-.7A8 8 0 1 1 12 20z" fill="currentColor"></path>
  </symbol>
  <symbol viewBox="0 0 24 24" fill="none" xmlns="http://www.w3.org/2000/svg" id="communication-comment-download">
    <path d="M19 14a.998.998 0 0 0-1.22.72A7 7 0 0 1 11 20H5.41l.64-.63a1 1 0 0 0 0-1.41A7 7 0 0 1 11 6a8.61 8.61 0 0 1 .88 0 1.007 1.007 0 0 0 .24-2A8.319 8.319 0 0 0 11 4a9 9 0 0 0-7 14.62l-1.71 1.67a1 1 0 0 0-.21 1.09A1 1 0 0 0 3 22h8a9 9 0 0 0 8.72-6.75A1 1 0 0 0 19 14zm2.71-6.74a.999.999 0 0 0-1.42 0L19 8.59V3a1 1 0 1 0-2 0v5.59l-1.29-1.3a1.004 1.004 0 1 0-1.42 1.42l3 3c.095.091.207.162.33.21a.94.94 0 0 0 .76 0 1 1 0 0 0 .33-.21l3-3a1 1 0 0 0 0-1.42v-.03z" fill="currentColor"></path>
  </symbol>
  <symbol viewBox="0 0 24 24" fill="none" xmlns="http://www.w3.org/2000/svg" id="communication-comment-edit">
    <path d="M21.71 4.72l-2.43-2.43a1 1 0 0 0-1.41 0l-5.58 5.58a1 1 0 0 0-.29.71V11a1 1 0 0 0 1 1h2.42a1 1 0 0 0 .71-.29l5.58-5.58a1 1 0 0 0 0-1.41zM15 10h-1V9l4.58-4.58 1 1L15 10zm4 2a1 1 0 0 0-1 1 7 7 0 0 1-7 7H5.41l.64-.63a1 1 0 0 0 0-1.42A7 7 0 0 1 11 6a1 1 0 1 0 0-2 9 9 0 0 0-7 14.62l-1.71 1.67a1 1 0 0 0-.21 1.09A1 1 0 0 0 3 22h8a9 9 0 0 0 9-9 1 1 0 0 0-1-1z" fill="currentColor"></path>
  </symbol>
  <symbol viewBox="0 0 24 24" fill="none" xmlns="http://www.w3.org/2000/svg" id="communication-comment-exclamation">
    <path d="M12 14a1 1 0 1 0 0 2 1 1 0 0 0 0-2zm0-12A10 10 0 0 0 2 12a9.89 9.89 0 0 0 2.26 6.33l-2 2a1 1 0 0 0-.21 1.09A1 1 0 0 0 3 22h9a10 10 0 0 0 0-20zm0 18H5.41l.93-.93a1 1 0 0 0 .3-.71 1 1 0 0 0-.3-.7A8 8 0 1 1 12 20zm0-12a1 1 0 0 0-1 1v3a1 1 0 1 0 2 0V9a1 1 0 0 0-1-1z" fill="currentColor"></path>
  </symbol>
  <symbol viewBox="0 0 24 24" fill="none" xmlns="http://www.w3.org/2000/svg" id="communication-comment-heart">
    <path d="M12 8.35a3.07 3.07 0 0 0-3.54.53 3 3 0 0 0 0 4.24L11.29 16a1.002 1.002 0 0 0 1.42 0l2.83-2.83a3 3 0 0 0 0-4.24A3.07 3.07 0 0 0 12 8.35zm2.12 3.36L12 13.83l-2.12-2.12a1 1 0 1 1 1.41-1.42 1.002 1.002 0 0 0 1.42 0 1 1 0 1 1 1.41 1.42zM12 2A10 10 0 0 0 2 12a9.89 9.89 0 0 0 2.26 6.33l-2 2a1 1 0 0 0-.21 1.09A1 1 0 0 0 3 22h9a10 10 0 0 0 0-20zm0 18H5.41l.93-.93a1 1 0 0 0 0-1.41A8 8 0 1 1 12 20z" fill="currentColor"></path>
  </symbol>
  <symbol viewBox="0 0 24 24" fill="none" xmlns="http://www.w3.org/2000/svg" id="communication-comment-image">
    <path d="M12 2a10 10 0 0 0-9.56 12.91.29.29 0 0 0 0 .1 9.83 9.83 0 0 0 1.79 3.32l-2 2a1 1 0 0 0-.21 1.09A1 1 0 0 0 3 22h9a10 10 0 0 0 9.46-6.78v-.08A9.89 9.89 0 0 0 22 12 9.999 9.999 0 0 0 12 2zm0 18H5.41l.3-.29 8.41-8.42a1 1 0 0 1 1.4 0l3.62 3.6.23.22A8 8 0 0 1 12 20zm-7.46-5.13l1.58-1.58a1 1 0 0 1 1.41 0l.87.87-2.72 2.74a7.67 7.67 0 0 1-1.14-2.03zm15.41-2l-3-3a3 3 0 0 0-4.24 0l-2.89 2.89-.88-.87a3 3 0 0 0-4.23 0l-.71.67A5.251 5.251 0 0 1 4 12a8 8 0 0 1 16 0c.015.287.015.573 0 .86l-.05.01z" fill="currentColor"></path>
  </symbol>
  <symbol viewBox="0 0 24 24" fill="none" xmlns="http://www.w3.org/2000/svg" id="communication-comment-info-alt">
    <path d="M12 9a1 1 0 0 0-1 1v3a1 1 0 0 0 2 0v-3a1 1 0 0 0-1-1zm7-7H5a3 3 0 0 0-3 3v10a3 3 0 0 0 3 3h11.59l3.7 3.71A1 1 0 0 0 21 22a.84.84 0 0 0 .38-.08A1 1 0 0 0 22 21V5a3 3 0 0 0-3-3zm1 16.59l-2.29-2.3A1 1 0 0 0 17 16H5a1 1 0 0 1-1-1V5a1 1 0 0 1 1-1h14a1 1 0 0 1 1 1v13.59zM12 6a1 1 0 1 0 0 2 1 1 0 0 0 0-2z" fill="currentColor"></path>
  </symbol>
  <symbol viewBox="0 0 24 24" fill="none" xmlns="http://www.w3.org/2000/svg" id="communication-comment-info">
    <path d="M12 11a1 1 0 0 0-1 1v3a1 1 0 1 0 2 0v-3a1 1 0 0 0-1-1zm0-3a1 1 0 1 0 0 2 1 1 0 0 0 0-2zm0-6A10 10 0 0 0 2 12a9.89 9.89 0 0 0 2.26 6.33l-2 2a1 1 0 0 0-.21 1.09A1 1 0 0 0 3 22h9a10 10 0 0 0 0-20zm0 18H5.41l.93-.93a1 1 0 0 0 .3-.71 1 1 0 0 0-.3-.7A8 8 0 1 1 12 20z" fill="currentColor"></path>
  </symbol>
  <symbol viewBox="0 0 24 24" fill="none" xmlns="http://www.w3.org/2000/svg" id="communication-comment-lines">
    <path d="M17 9H7a1 1 0 0 0 0 2h10a1 1 0 0 0 0-2zm-4 4H7a1 1 0 0 0 0 2h6a1 1 0 0 0 0-2zM12 2A10 10 0 0 0 2 12a9.89 9.89 0 0 0 2.26 6.33l-2 2a1 1 0 0 0-.21 1.09A1 1 0 0 0 3 22h9a10 10 0 0 0 0-20zm0 18H5.41l.93-.93a1 1 0 0 0 0-1.41A8 8 0 1 1 12 20z" fill="currentColor"></path>
  </symbol>
  <symbol viewBox="0 0 24 24" fill="none" xmlns="http://www.w3.org/2000/svg" id="communication-comment-lock">
    <path d="M18.92 16.13a1 1 0 0 0-1.37.37A7 7 0 0 1 11.5 20H5.91l.64-.63a1 1 0 0 0 0-1.41 7 7 0 0 1 4.07-11.91 1.008 1.008 0 0 0-.24-2 9 9 0 0 0-5.91 14.57l-1.68 1.67a1 1 0 0 0-.21 1.09 1 1 0 0 0 .92.62h8a9 9 0 0 0 7.79-4.5 1 1 0 0 0-.37-1.37zm.58-9.95V5a3 3 0 0 0-6 0v1.18a3 3 0 0 0-2 2.82v2a3 3 0 0 0 3 3h4a3 3 0 0 0 3-3V9a3 3 0 0 0-2-2.82zM15.5 5a1 1 0 0 1 2 0v1h-2V5zm4 6a1 1 0 0 1-1 1h-4a1 1 0 0 1-1-1V9a1 1 0 0 1 1-1h4a1 1 0 0 1 1 1v2z" fill="currentColor"></path>
  </symbol>
  <symbol viewBox="0 0 24 24" fill="none" xmlns="http://www.w3.org/2000/svg" id="communication-comment-medical">
    <path d="M12 2A10 10 0 0 0 2 12a9.89 9.89 0 0 0 2.26 6.33l-2 2a1 1 0 0 0-.21 1.09A1 1 0 0 0 3 22h9a10 10 0 0 0 0-20zm0 18H5.41l.93-.93a1 1 0 0 0 0-1.41A8 8 0 1 1 12 20zm2-9h-1v-1a1 1 0 0 0-2 0v1h-1a1 1 0 0 0 0 2h1v1a1 1 0 1 0 2 0v-1h1a1 1 0 0 0 0-2z" fill="currentColor"></path>
  </symbol>
  <symbol viewBox="0 0 24 24" fill="none" xmlns="http://www.w3.org/2000/svg" id="communication-comment-message">
    <path d="M12 2A10 10 0 0 0 2 12a9.89 9.89 0 0 0 2.26 6.33l-2 2a1 1 0 0 0-.21 1.09A1 1 0 0 0 3 22h9a10 10 0 0 0 0-20zm0 18H5.41l.93-.93a1 1 0 0 0 0-1.41A8 8 0 1 1 12 20zm5-9H7a1 1 0 0 0 0 2h10a1 1 0 0 0 0-2zm-2 4H9a1 1 0 0 0 0 2h6a1 1 0 0 0 0-2zM9 9h6a1 1 0 1 0 0-2H9a1 1 0 0 0 0 2z" fill="currentColor"></path>
  </symbol>
  <symbol viewBox="0 0 24 24" fill="none" xmlns="http://www.w3.org/2000/svg" id="communication-comment-notes">
    <path d="M11 11h6a1 1 0 0 0 0-2h-6a1 1 0 1 0 0 2zM7 9a1 1 0 1 0 0 2 1 1 0 0 0 0-2zm0 4a1 1 0 1 0 0 2 1 1 0 0 0 0-2zm5-11A10 10 0 0 0 2 12a9.89 9.89 0 0 0 2.26 6.33l-2 2a1 1 0 0 0-.21 1.09A1 1 0 0 0 3 22h9a10 10 0 0 0 0-20zm0 18H5.41l.93-.93a1 1 0 0 0 .3-.71 1 1 0 0 0-.3-.7A8 8 0 1 1 12 20zm5-7h-6a1 1 0 0 0 0 2h6a1 1 0 0 0 0-2z" fill="currentColor"></path>
  </symbol>
  <symbol viewBox="0 0 24 24" fill="none" xmlns="http://www.w3.org/2000/svg" id="communication-comment-plus">
    <path d="M12 2A10 10 0 0 0 2 12a9.89 9.89 0 0 0 2.26 6.33l-2 2a1 1 0 0 0-.21 1.09A1 1 0 0 0 3 22h9a10 10 0 0 0 0-20zm0 18H5.41l.93-.93a1 1 0 0 0 0-1.41A8 8 0 1 1 12 20zm3-9h-2V9a1 1 0 0 0-2 0v2H9a1 1 0 0 0 0 2h2v2a1 1 0 0 0 2 0v-2h2a1 1 0 0 0 0-2z" fill="currentColor"></path>
  </symbol>
  <symbol viewBox="0 0 24 24" fill="none" xmlns="http://www.w3.org/2000/svg" id="communication-comment-question">
    <path d="M14.77 5.87a1 1 0 0 0 1.36-.37A1 1 0 0 1 18 6a1 1 0 0 1-1 1 1 1 0 1 0 0 2 3 3 0 1 0-2.6-4.5 1 1 0 0 0 .37 1.37zm4.3 7.13a1 1 0 0 0-1.12.86A7 7 0 0 1 11 20H5.41l.65-.65a1 1 0 0 0 0-1.41A7 7 0 0 1 11 6a1 1 0 1 0 0-2 9 9 0 0 0-7 14.61l-1.71 1.68a1 1 0 0 0-.21 1.09A1 1 0 0 0 3 22h8a9 9 0 0 0 8.93-7.87 1 1 0 0 0-.86-1.13zm-1.69-2.93a1 1 0 0 0-.58-.07l-.18.06-.18.09-.15.13a.998.998 0 0 0-.21.32.84.84 0 0 0-.08.4 1 1 0 0 0 .07.39 1 1 0 0 0 .22.32A1 1 0 0 0 17 12a1 1 0 0 0 1-1 .84.84 0 0 0-.08-.38 1.07 1.07 0 0 0-.54-.54v-.01z" fill="currentColor"></path>
  </symbol>
  <symbol viewBox="0 0 24 24" fill="none" xmlns="http://www.w3.org/2000/svg" id="communication-comment-redo">
    <path d="M19 14a1 1 0 0 0-1.22.72A7 7 0 0 1 11 20H5.41l.64-.63a1 1 0 0 0 0-1.41 7 7 0 0 1 3.2-11.74 1.002 1.002 0 0 0-.5-1.94A9 9 0 0 0 4 18.62l-1.71 1.67a1 1 0 0 0-.21 1.09A1 1 0 0 0 3 22h8a9 9 0 0 0 8.72-6.75A1 1 0 0 0 19 14zm2-12a1 1 0 0 0-1 1 5 5 0 1 0 .3 7.75 1 1 0 1 0-1.3-1.5A3 3 0 1 1 17 4a3 3 0 0 1 2.23 1H18a1 1 0 1 0 0 2h3a1 1 0 0 0 1-1V3a1 1 0 0 0-1-1z" fill="currentColor"></path>
  </symbol>
  <symbol viewBox="0 0 24 24" fill="none" xmlns="http://www.w3.org/2000/svg" id="communication-comment-search">
    <path d="M21.21 10.29l-1.73-1.72a4.37 4.37 0 0 0 .65-2.26 4.31 4.31 0 1 0-4.32 4.32 4.35 4.35 0 0 0 2.26-.63l1.72 1.73a1.002 1.002 0 0 0 1.42 0 .999.999 0 0 0 0-1.44zM17.45 8a2.32 2.32 0 0 1-3.95-1.69 2.29 2.29 0 0 1 .68-1.63 2.32 2.32 0 0 1 3.27 0 2.31 2.31 0 0 1 0 3.27V8zm2.05 6a.998.998 0 0 0-1.22.72A7 7 0 0 1 11.5 20H5.91l.64-.63a1 1 0 0 0 0-1.41 7 7 0 0 1-2-5 7 7 0 0 1 4.32-6.44 1 1 0 1 0-.74-1.86 9 9 0 0 0-3.66 14l-1.68 1.63a1 1 0 0 0-.21 1.09 1 1 0 0 0 .92.62h8a9 9 0 0 0 8.72-6.75A1 1 0 0 0 19.5 14z" fill="currentColor"></path>
  </symbol>
  <symbol viewBox="0 0 24 24" fill="none" xmlns="http://www.w3.org/2000/svg" id="communication-comment-share">
    <path d="M19.06 13.51a1 1 0 0 0-1.11.87A7 7 0 0 1 11 20.5H5.41l.64-.63a1 1 0 0 0 0-1.41 7 7 0 0 1 3.2-11.74 1.002 1.002 0 1 0-.5-1.94A9 9 0 0 0 4 19.12l-1.71 1.67a1 1 0 0 0-.21 1.09 1 1 0 0 0 .92.62h8a9 9 0 0 0 8.93-7.88 1 1 0 0 0-.87-1.11zM19 7.5a2 2 0 0 0-1.18.39l-1.75-.8L18 6.21a2 2 0 0 0 1 .29 2 2 0 1 0-2-2l-1.9.87A2 2 0 0 0 14 5a2 2 0 0 0 0 4 2 2 0 0 0 .93-.24l2.09 1A2 2 0 1 0 19 7.5z" fill="currentColor"></path>
  </symbol>
  <symbol viewBox="0 0 24 24" fill="none" xmlns="http://www.w3.org/2000/svg" id="communication-comment-shield">
    <path d="M21.7 2.86a1 1 0 0 0-.84-.2 3 3 0 0 1-2.33-.48 1 1 0 0 0-1.15 0 3 3 0 0 1-2.33.48 1 1 0 0 0-1.21.97V7a4.56 4.56 0 0 0 1.91 3.7l1.62 1.16a1 1 0 0 0 1.17 0l1.62-1.16A4.56 4.56 0 0 0 22.07 7V3.63a1.001 1.001 0 0 0-.37-.77zM20.07 7A2.57 2.57 0 0 1 19 9l-1 .74L16.91 9a2.57 2.57 0 0 1-1.07-2V4.72A5.17 5.17 0 0 0 18 4.17a5.12 5.12 0 0 0 2.11.55L20.07 7zm-1.14 7a1 1 0 0 0-1.21.72A7 7 0 0 1 10.93 20H5.35l.65-.63A1 1 0 0 0 6 18a7 7 0 0 1 4.93-12 1 1 0 1 0 0-2 9 9 0 0 0-7 14.62l-1.7 1.67a1 1 0 0 0 .7 1.71h8a9 9 0 0 0 8.72-6.75 1 1 0 0 0-.72-1.25z" fill="currentColor"></path>
  </symbol>
  <symbol viewBox="0 0 24 24" fill="none" xmlns="http://www.w3.org/2000/svg" id="communication-comment-slash">
    <path d="M10.19 5.23A7.12 7.12 0 0 1 12 5a7 7 0 0 1 7 7 7.135 7.135 0 0 1-.23 1.81 1 1 0 0 0 .7 1.23c.086.01.174.01.26 0a1 1 0 0 0 1-.74A8.91 8.91 0 0 0 21 12a9 9 0 0 0-9-9 8.91 8.91 0 0 0-2.33.3 1 1 0 0 0 .52 1.93zm11.52 15.06l-18-18a1.004 1.004 0 0 0-1.42 1.42L5 6.38a9 9 0 0 0 0 11.24l-1.71 1.67a1 1 0 0 0-.21 1.09A1 1 0 0 0 4 21h8a9 9 0 0 0 5.62-2l2.67 2.68a.999.999 0 0 0 1.42 0 1 1 0 0 0 0-1.39zM12 19H6.41l.64-.63a1 1 0 0 0 0-1.41 7 7 0 0 1-.65-9.15l9.79 9.79A7 7 0 0 1 12 19z" fill="currentColor"></path>
  </symbol>
  <symbol viewBox="0 0 24 24" fill="none" xmlns="http://www.w3.org/2000/svg" id="communication-comment-upload">
    <path d="M19 14a1 1 0 0 0-1.22.72A7 7 0 0 1 11 20H5.41l.64-.63a1 1 0 0 0 0-1.41A7 7 0 0 1 11 6a1 1 0 1 0 0-2 9 9 0 0 0-7 14.62l-1.71 1.67a1 1 0 0 0-.21 1.09A1 1 0 0 0 3 22h8a9 9 0 0 0 8.72-6.75A1 1 0 0 0 19 14zm2.71-8.74l-3-3a1 1 0 0 0-.33-.21 1 1 0 0 0-.76 0 1 1 0 0 0-.33.21l-3 3a1.004 1.004 0 0 0 1.42 1.42L17 5.41V11a1 1 0 1 0 2 0V5.41l1.29 1.3a1 1 0 0 0 1.42 0 1 1 0 0 0 0-1.42v-.03z" fill="currentColor"></path>
  </symbol>
  <symbol viewBox="0 0 24 24" fill="none" xmlns="http://www.w3.org/2000/svg" id="communication-comment-verify">
    <path d="M15.29 8.85l-4.73 4.74-1.85-1.86a1.004 1.004 0 0 0-1.42 1.42l2.56 2.56a1.002 1.002 0 0 0 1.42 0l5.44-5.44a1.003 1.003 0 1 0-1.42-1.42zM12 2A10 10 0 0 0 2 12a9.89 9.89 0 0 0 2.26 6.33l-2 2a1 1 0 0 0-.21 1.09A1 1 0 0 0 3 22h9a10 10 0 0 0 0-20zm0 18H5.41l.93-.93a1 1 0 0 0 0-1.41A8 8 0 1 1 12 20z" fill="currentColor"></path>
  </symbol>
  <symbol viewBox="0 0 24 24" fill="none" xmlns="http://www.w3.org/2000/svg" id="communication-comment">
    <path d="M12 2A10 10 0 0 0 2 12a9.89 9.89 0 0 0 2.26 6.33l-2 2a1 1 0 0 0-.21 1.09A1 1 0 0 0 3 22h9a10 10 0 0 0 0-20zm0 18H5.41l.93-.93a1 1 0 0 0 0-1.41A8 8 0 1 1 12 20z" fill="currentColor"></path>
  </symbol>
  <symbol viewBox="0 0 24 24" fill="none" xmlns="http://www.w3.org/2000/svg" id="communication-comments-alt">
    <path d="M19 8h-1V5a3 3 0 0 0-3-3H5a3 3 0 0 0-3 3v12a1 1 0 0 0 .62.92 1 1 0 0 0 1.09-.21l2.81-2.82H8v1.44a3 3 0 0 0 3 3h6.92l2.37 2.38A1 1 0 0 0 21 22a.84.84 0 0 0 .38-.08A1 1 0 0 0 22 21V11a3 3 0 0 0-3-3zM8 11v1.89H6.11a1 1 0 0 0-.71.29L4 14.59V5a1 1 0 0 1 1-1h10a1 1 0 0 1 1 1v3h-5a3 3 0 0 0-3 3zm12 7.59l-1-1a1 1 0 0 0-.71-.3H11a1 1 0 0 1-1-1V11a1 1 0 0 1 1-1h8a1 1 0 0 1 1 1v7.59z" fill="currentColor"></path>
  </symbol>
  <symbol viewBox="0 0 24 24" fill="none" xmlns="http://www.w3.org/2000/svg" id="communication-comments">
    <path d="M20.61 19.19a7 7 0 0 0-2.74-10.57 8 8 0 1 0-14.19 6.29l-1.39 1.38a1 1 0 0 0-.21 1.09A1 1 0 0 0 3 18h5.69A7 7 0 0 0 15 22h6a1 1 0 0 0 .92-.62 1 1 0 0 0-.21-1.09l-1.1-1.1zM8 15c.001.335.028.67.08 1H5.41l.35-.34a1 1 0 0 0 0-1.42A5.93 5.93 0 0 1 4 10a6 6 0 0 1 6-6 5.94 5.94 0 0 1 5.65 4H15a7 7 0 0 0-7 7zm10.54 5l.05.05H15a5 5 0 1 1 3.54-1.46 1 1 0 0 0-.3.7.999.999 0 0 0 .3.71z" fill="currentColor"></path>
  </symbol>
  <symbol viewBox="0 0 24 24" fill="none" xmlns="http://www.w3.org/2000/svg" id="communication-message">
    <path d="M20.34 9.32l-14-7a3 3 0 0 0-4.08 3.9l2.4 5.37a1.06 1.06 0 0 1 0 .82l-2.4 5.37A3 3 0 0 0 5 22a3.14 3.14 0 0 0 1.35-.32l14-7a3 3 0 0 0 0-5.36h-.01zm-.89 3.57l-14 7a1 1 0 0 1-1.35-1.3l2.39-5.37a2 2 0 0 0 .08-.22h6.89a1 1 0 0 0 0-2H6.57a2 2 0 0 0-.08-.22L4.1 5.41a1 1 0 0 1 1.35-1.3l14 7a1 1 0 0 1 0 1.78z" fill="currentColor"></path>
  </symbol>
  <symbol viewBox="0 0 24 24" fill="none" xmlns="http://www.w3.org/2000/svg" id="communication-backspace">
    <path d="M19 5H9.83a3 3 0 0 0-2.12.88l-5.42 5.41a1 1 0 0 0 0 1.42l5.42 5.41a3 3 0 0 0 2.12.88H19a3 3 0 0 0 3-3V8a3 3 0 0 0-3-3zm1 11a1 1 0 0 1-1 1H9.83a1.05 1.05 0 0 1-.71-.29L4.41 12l4.71-4.71A1.05 1.05 0 0 1 9.83 7H19a1 1 0 0 1 1 1v8zm-3.29-6.71a1 1 0 0 0-1.42 0L14 10.59l-1.29-1.3a1.004 1.004 0 0 0-1.42 1.42l1.3 1.29-1.3 1.29a1.002 1.002 0 0 0 .325 1.639 1 1 0 0 0 1.095-.219l1.29-1.3 1.29 1.3a1.002 1.002 0 0 0 1.639-.325 1 1 0 0 0-.219-1.095L15.41 12l1.3-1.29a1.002 1.002 0 0 0 0-1.42z" fill="currentColor"></path>
  </symbol>
  <symbol viewBox="0 0 24 24" fill="none" xmlns="http://www.w3.org/2000/svg" id="communication-chat-info">
    <path d="M19.29 3.71a1.001 1.001 0 0 0 1.42 0 1.15 1.15 0 0 0 .21-.33 1 1 0 0 0-.21-1.09l-.15-.12a.76.76 0 0 0-.18-.09 1 1 0 0 0-1.09.21A1 1 0 0 0 19 3c.002.13.029.26.08.38.05.121.122.233.21.33zM20 5a1 1 0 0 0-1 1v4a1 1 0 0 0 2 0V6a1 1 0 0 0-1-1zm.06 8a1 1 0 0 0-1.11.87A7 7 0 0 1 12 20H6.41l.64-.63a1 1 0 0 0 0-1.41A7 7 0 0 1 12 6a6.91 6.91 0 0 1 3.49.94 1 1 0 0 0 1-1.72A8.84 8.84 0 0 0 12 4a9 9 0 0 0-7 14.62l-1.71 1.67a1 1 0 0 0-.21 1.09A1 1 0 0 0 4 22h8a9 9 0 0 0 8.93-7.88 1 1 0 0 0-.87-1.12z" fill="currentColor"></path>
  </symbol>
</svg>