<svg width="0" height="0" class="hidden">
  <symbol viewBox="0 0 24 24" fill="none" xmlns="http://www.w3.org/2000/svg" id="devices-watch-alt">
    <path d="M17 8.61l-1-5.77A1 1 0 0 0 15 2H9a1 1 0 0 0-1 .84L7 8.61a6 6 0 0 0 0 6.78l1 5.77A1 1 0 0 0 9 22h6a1 1 0 0 0 1-.84l1-5.77a6 6 0 0 0 0-6.78zM9.85 4h4.3l.44 2.59a6 6 0 0 0-5.18 0L9.85 4zm4.3 16h-4.3l-.44-2.59a6 6 0 0 0 5.18 0L14.15 20zM12 16a4 4 0 1 1 0-8 4 4 0 0 1 0 8z" fill="currentColor"></path>
  </symbol>
  <symbol viewBox="0 0 24 24" fill="none" xmlns="http://www.w3.org/2000/svg" id="devices-watch">
    <path d="M17 6.78V3a1 1 0 0 0-1-1H8a1 1 0 0 0-1 1v3.78A3 3 0 0 0 6 9v6a3 3 0 0 0 1 2.22V21a1 1 0 0 0 1 1h8a1 1 0 0 0 1-1v-3.78A3 3 0 0 0 18 15V9a3 3 0 0 0-1-2.22zM9 4h6v2H9V4zm6 16H9v-2h6v2zm1-5a1 1 0 0 1-1 1H9a1 1 0 0 1-1-1V9a1 1 0 0 1 1-1h6a1 1 0 0 1 1 1v6z" fill="currentColor"></path>
  </symbol>
  <symbol viewBox="0 0 24 24" fill="none" xmlns="http://www.w3.org/2000/svg" id="devices-print">
    <path d="M7 10a1 1 0 1 0 0 2 1 1 0 0 0 0-2zm12-4h-1V3a1 1 0 0 0-1-1H7a1 1 0 0 0-1 1v3H5a3 3 0 0 0-3 3v6a3 3 0 0 0 3 3h1v3a1 1 0 0 0 1 1h10a1 1 0 0 0 1-1v-3h1a3 3 0 0 0 3-3V9a3 3 0 0 0-3-3zM8 4h8v2H8V4zm8 16H8v-4h8v4zm4-5a1 1 0 0 1-1 1h-1v-1a1 1 0 0 0-1-1H7a1 1 0 0 0-1 1v1H5a1 1 0 0 1-1-1V9a1 1 0 0 1 1-1h14a1 1 0 0 1 1 1v6z" fill="currentColor"></path>
  </symbol>
  <symbol viewBox="0 0 24 24" fill="none" xmlns="http://www.w3.org/2000/svg" id="devices-laptop">
    <path d="M21 14h-1V7a3 3 0 0 0-3-3H7a3 3 0 0 0-3 3v7H3a1 1 0 0 0-1 1v2a3 3 0 0 0 3 3h14a3 3 0 0 0 3-3v-2a1 1 0 0 0-1-1zM6 7a1 1 0 0 1 1-1h10a1 1 0 0 1 1 1v7H6V7zm14 10a1 1 0 0 1-1 1H5a1 1 0 0 1-1-1v-1h16v1z" fill="currentColor"></path>
  </symbol>
  <symbol viewBox="0 0 24 24" fill="none" xmlns="http://www.w3.org/2000/svg" id="devices-monitor">
    <path d="M19 2H5a3 3 0 0 0-3 3v10a3 3 0 0 0 3 3h2.64l-.58 1a2 2 0 0 0 1.75 3h6.46A2 2 0 0 0 17 19l-.59-1H19a3 3 0 0 0 3-3V5a3 3 0 0 0-3-3zM8.77 20L10 18h4l1.2 2H8.77zM20 15a1 1 0 0 1-1 1H5a1 1 0 0 1-1-1v-1h16v1zm0-3H4V5a1 1 0 0 1 1-1h14a1 1 0 0 1 1 1v7z" fill="currentColor"></path>
  </symbol>
  <symbol viewBox="0 0 24 24" fill="none" xmlns="http://www.w3.org/2000/svg" id="devices-desktop-alt-slash">
    <path d="M21.71 20.29l-18-18a1.004 1.004 0 0 0-1.42 1.42l1 1A3 3 0 0 0 3 6v8a3 3 0 0 0 3 3h3v2H6a1 1 0 0 0 0 2h12a1 1 0 0 0 .93-.66l1.36 1.37a1.002 1.002 0 0 0 1.639-.325 1 1 0 0 0-.219-1.095zM5 6.41L9.59 11H5V6.41zM13 19h-2v-2h2v2zm-7-4a1 1 0 0 1-1-1v-1h6.59l2 2H6zm9 4v-2h.59l2 2H15zM9.66 5H18a1 1 0 0 1 1 1v5h-1.34a1 1 0 0 0 0 2H19v1a.369.369 0 0 1 0 .11 1 1 0 0 0 .78 1.18h.2a1 1 0 0 0 1-.8c.02-.162.027-.326.02-.49V6a3 3 0 0 0-3-3H9.66a1 1 0 0 0 0 2z" fill="currentColor"></path>
  </symbol>
  <symbol viewBox="0 0 24 24" fill="none" xmlns="http://www.w3.org/2000/svg" id="devices-desktop-alt">
    <path d="M19 2H5a3 3 0 0 0-3 3v10a3 3 0 0 0 3 3h3v2H5a1 1 0 0 0 0 2h14a1 1 0 0 0 0-2h-3v-2h3a3 3 0 0 0 3-3V5a3 3 0 0 0-3-3zm-5 18h-4v-2h4v2zm6-5a1 1 0 0 1-1 1H5a1 1 0 0 1-1-1v-1h16v1zm0-3H4V5a1 1 0 0 1 1-1h14a1 1 0 0 1 1 1v7z" fill="currentColor"></path>
  </symbol>
  <symbol viewBox="0 0 24 24" fill="none" xmlns="http://www.w3.org/2000/svg" id="devices-desktop-cloud-alt">
    <path d="M4.5 10H10a3 3 0 0 0 1.07-5.8 4 4 0 0 0-7.48 1A2.5 2.5 0 0 0 4.5 10zm0-3a1 1 0 0 0 1-1 2 2 0 0 1 3.89-.64 1 1 0 0 0 .78.66A1 1 0 0 1 11 7a1 1 0 0 1-1 1H4.5a.5.5 0 1 1 0-1zM19 2h-5a1 1 0 1 0 0 2h5a1 1 0 0 1 1 1v7H3a1 1 0 0 0-1 1v2a3 3 0 0 0 3 3h3v2H5a1 1 0 0 0 0 2h14a1 1 0 0 0 0-2h-3v-2h3a3 3 0 0 0 3-3V5a3 3 0 0 0-3-3zm-5 18h-4v-2h4v2zm6-5a1 1 0 0 1-1 1H5a1 1 0 0 1-1-1v-1h16v1z" fill="currentColor"></path>
  </symbol>
  <symbol viewBox="0 0 24 24" fill="none" xmlns="http://www.w3.org/2000/svg" id="devices-desktop-slash">
    <path d="M10.66 6H18a1 1 0 0 1 1 1v6a.94.94 0 0 1-.14.5 1 1 0 0 0 .31 1.38.94.94 0 0 0 .53.16 1 1 0 0 0 .84-.46c.3-.472.46-1.02.46-1.58V7a3 3 0 0 0-3-3h-7.34a1 1 0 1 0 0 2zm11.05 14.29L5.86 4.45 3.71 2.29a1.004 1.004 0 1 0-1.42 1.42l1.4 1.39A3 3 0 0 0 3 7v6a3 3 0 0 0 3 3h5v2H7a1 1 0 0 0 0 2h10a1 1 0 0 0 .93-.66l2.36 2.37a1.002 1.002 0 0 0 1.639-.325 1 1 0 0 0-.219-1.095zM6 14a1 1 0 0 1-1-1V7a1 1 0 0 1 .12-.46L12.59 14H6zm7 4v-2h1.59l2 2H13z" fill="currentColor"></path>
  </symbol>
  <symbol viewBox="0 0 24 24" fill="none" xmlns="http://www.w3.org/2000/svg" id="devices-desktop">
    <path d="M19 3H5a3 3 0 0 0-3 3v8a3 3 0 0 0 3 3h6v2H7a1 1 0 0 0 0 2h10a1 1 0 0 0 0-2h-4v-2h6a3 3 0 0 0 3-3V6a3 3 0 0 0-3-3zm1 11a1 1 0 0 1-1 1H5a1 1 0 0 1-1-1V6a1 1 0 0 1 1-1h14a1 1 0 0 1 1 1v8z" fill="currentColor"></path>
  </symbol>
  <symbol viewBox="0 0 24 24" fill="none" xmlns="http://www.w3.org/2000/svg" id="devices-tablet">
    <path d="M17 2H7C6.20435 2 5.44129 2.31607 4.87868 2.87868C4.31607 3.44129 4 4.20435 4 5V19C4 19.7956 4.31607 20.5587 4.87868 21.1213C5.44129 21.6839 6.20435 22 7 22H17C17.7956 22 18.5587 21.6839 19.1213 21.1213C19.6839 20.5587 20 19.7956 20 19V5C20 4.20435 19.6839 3.44129 19.1213 2.87868C18.5587 2.31607 17.7956 2 17 2ZM18 19C18 19.2652 17.8946 19.5196 17.7071 19.7071C17.5196 19.8946 17.2652 20 17 20H7C6.73478 20 6.48043 19.8946 6.29289 19.7071C6.10536 19.5196 6 19.2652 6 19V5C6 4.73478 6.10536 4.48043 6.29289 4.29289C6.48043 4.10536 6.73478 4 7 4H17C17.2652 4 17.5196 4.10536 17.7071 4.29289C17.8946 4.48043 18 4.73478 18 5V19ZM12.71 16.29C12.5945 16.1696 12.4508 16.08 12.2919 16.0293C12.1329 15.9787 11.9638 15.9686 11.8 16L11.62 16.06C11.5563 16.0819 11.4957 16.1122 11.44 16.15L11.29 16.27C11.199 16.3651 11.1276 16.4772 11.08 16.6C11.0034 16.7821 10.9825 16.9828 11.0199 17.1768C11.0572 17.3708 11.1512 17.5494 11.29 17.69C11.3895 17.778 11.5005 17.852 11.62 17.91C11.8031 17.9853 12.0044 18.0046 12.1984 17.9655C12.3924 17.9263 12.5705 17.8304 12.71 17.69C12.8923 17.5062 12.9963 17.2589 13 17C13.0034 16.8688 12.976 16.7387 12.92 16.62C12.8694 16.4988 12.7983 16.3872 12.71 16.29Z" fill="currentColor" />
  </symbol>
  <symbol viewBox="0 0 24 24" fill="none" xmlns="http://www.w3.org/2000/svg" id="devices-webcam">
    <path d="M12 13a3 3 0 1 0 0-5.999A3 3 0 0 0 12 13zm0-4a1 1 0 1 1 0 2 1 1 0 0 1 0-2zm9.59 9.16A10 10 0 0 0 19 13.89a8 8 0 1 0-14 0 9.9 9.9 0 0 0-2.6 4.27A3 3 0 0 0 5.3 22h13.4a3 3 0 0 0 2.89-3.84zM12 4a6 6 0 1 1 0 12 6 6 0 0 1 0-12zm7.52 15.59a1 1 0 0 1-.82.41H5.3a1 1 0 0 1-.996-.828 1 1 0 0 1 .026-.452 7.85 7.85 0 0 1 1.88-3.22 8 8 0 0 0 11.58 0 7.85 7.85 0 0 1 1.88 3.22 1 1 0 0 1-.15.87z" fill="currentColor"></path>
  </symbol>
  <symbol viewBox="0 0 24 24" fill="none" xmlns="http://www.w3.org/2000/svg" id="devices-mobile-android-alt">
    <path d="M16 2H8a3 3 0 0 0-3 3v14a3 3 0 0 0 3 3h8a3 3 0 0 0 3-3V5a3 3 0 0 0-3-3zm1 17a1 1 0 0 1-1 1H8a1 1 0 0 1-1-1v-1h10v1zm0-3H7V5a1 1 0 0 1 1-1h8a1 1 0 0 1 1 1v11z" fill="currentColor"></path>
  </symbol>
  <symbol viewBox="0 0 24 24" fill="none" xmlns="http://www.w3.org/2000/svg" id="devices-mobile-android">
    <path d="M12.71 16.29l-.15-.12a.762.762 0 0 0-.18-.09L12.2 16a1 1 0 0 0-.91.27 1.15 1.15 0 0 0-.21.33 1 1 0 0 0 1.3 1.31c.12-.058.23-.132.33-.22a.999.999 0 0 0 .21-1.09 1.001 1.001 0 0 0-.21-.31zM16 2H8a3 3 0 0 0-3 3v14a3 3 0 0 0 3 3h8a3 3 0 0 0 3-3V5a3 3 0 0 0-3-3zm1 17a1 1 0 0 1-1 1H8a1 1 0 0 1-1-1V5a1 1 0 0 1 1-1h8a1 1 0 0 1 1 1v14z" fill="currentColor"></path>
  </symbol>
  <symbol viewBox="0 0 24 24" fill="none" xmlns="http://www.w3.org/2000/svg" id="devices-mobile-vibrate">
    <path d="M9.88 14.12L9.73 14l-.18-.1-.18-.05a1 1 0 0 0-.9.27.83.83 0 0 0-.22.33.94.94 0 0 0 0 .76c.107.24.3.432.54.54.12.051.25.078.38.08a1.09 1.09 0 0 0 .39-.08.87.87 0 0 0 .32-.22 1 1 0 0 0 .22-.32 1 1 0 0 0 .07-.38.84.84 0 0 0-.08-.38.93.93 0 0 0-.21-.33zM3.51 8.76a1 1 0 0 0 .71-.3l4.24-4.24a1 1 0 0 0 0-1.41 1 1 0 0 0-1.41 0L2.81 7.05a1 1 0 0 0 0 1.41 1 1 0 0 0 .7.3zm17.68 6.78a1 1 0 0 0-1.41 0l-4.24 4.24a1 1 0 0 0 .7 1.71 1.001 1.001 0 0 0 .71-.3L21.19 17a1 1 0 0 0 0-1.46zm.17-5.66a3 3 0 0 0-.87-2.12l-4.25-4.25a3.08 3.08 0 0 0-4.24 0L3.51 12a3 3 0 0 0 0 4.24l4.25 4.25a3 3 0 0 0 4.24 0L20.49 12a3 3 0 0 0 .87-2.12zm-2.29.71l-8.48 8.48a1 1 0 0 1-1.42 0l-4.24-4.24a1 1 0 0 1 0-1.42l8.48-8.48a1 1 0 0 1 1.42 0l4.24 4.24a1 1 0 0 1 0 1.42z" fill="currentColor"></path>
  </symbol>
  <symbol viewBox="0 0 24 24" fill="none" xmlns="http://www.w3.org/2000/svg" id="devices-selfie">
    <path d="M16 2H8a3 3 0 0 0-3 3v14a3 3 0 0 0 3 3h8a3 3 0 0 0 3-3V5a3 3 0 0 0-3-3zm1 17a1 1 0 0 1-1 1H8a1 1 0 0 1-1-1v-1h10v1zm-5-5a3 3 0 0 1 2.82 2H9.18A3 3 0 0 1 12 14zm-1-3a1 1 0 1 1 2 0 1 1 0 0 1-2 0zm6 5h-.1a5 5 0 0 0-2.42-3.32A3 3 0 0 0 15 11a3 3 0 0 0-6 0 3 3 0 0 0 .52 1.68A5 5 0 0 0 7.1 16H7V5a1 1 0 0 1 1-1h8a1 1 0 0 1 1 1v11zM12 5a1 1 0 1 0 0 2 1 1 0 0 0 0-2z" fill="currentColor"></path>
  </symbol>
</svg>