<svg width="0" height="0" class="hidden">
  <symbol viewBox="0 0 24 24" fill="none" xmlns="http://www.w3.org/2000/svg" id="feedback-success">
    <path d="M14.72 8.79l-4.29 4.3-1.65-1.65a1 1 0 1 0-1.41 1.41l2.35 2.36a1 1 0 0 0 1.41 0l5-5a1.002 1.002 0 1 0-1.41-1.42zM12 2a10 10 0 1 0 0 20 10 10 0 0 0 0-20zm0 18a8 8 0 1 1 0-16.001A8 8 0 0 1 12 20z" fill="#00AC4A"></path>
  </symbol>
  <symbol viewBox="0 0 24 24" fill="none" xmlns="http://www.w3.org/2000/svg" id="feedback-exclamation-circle">
    <path d="M12 7a1 1 0 0 0-1 1v4a1 1 0 0 0 2 0V8a1 1 0 0 0-1-1zm.92 8.62a.758.758 0 0 0-.09-.18l-.12-.15a.999.999 0 0 0-1.09-.21 1.15 1.15 0 0 0-.33.21A1 1 0 0 0 11 16c.002.13.029.26.08.38a.9.9 0 0 0 .54.54.94.94 0 0 0 .76 0 .9.9 0 0 0 .54-.54c.051-.12.078-.25.08-.38a1.362 1.362 0 0 0 0-.2.639.639 0 0 0-.08-.18zM12 2a10 10 0 1 0 0 20 10 10 0 0 0 0-20zm0 18a8 8 0 1 1 0-16.001A8 8 0 0 1 12 20z" fill="#FF2048"></path>
  </symbol>
  <symbol viewBox="0 0 24 24" fill="none" xmlns="http://www.w3.org/2000/svg" id="feedback-danger">
    <path d="M12 16a1 1 0 1 0 0 2 1 1 0 0 0 0-2zm0-8a1 1 0 0 0-1 1v4a1 1 0 0 0 2 0V9a1 1 0 0 0-1-1z" fill="#F8B330"></path>
    <path d="M22.67 17.47l-8.05-14a3 3 0 0 0-5.24 0l-8 14A3 3 0 0 0 3.94 22h16.12a3 3 0 0 0 2.61-4.53zm-1.73 2a1 1 0 0 1-.88.51H3.94a1 1 0 0 1-.88-.51 1 1 0 0 1 0-1l8-14a1 1 0 0 1 1.78 0l8.05 14a1 1 0 0 1 .05 1.02v-.02z" fill="#F8B330"></path>
  </symbol>
  <symbol viewBox="0 0 24 24" fill="none" xmlns="http://www.w3.org/2000/svg" id="feedback-info">
    <path d="M12 11a1 1 0 0 0-1 1v4a1 1 0 0 0 2 0v-4a1 1 0 0 0-1-1zm.38-3.92a1 1 0 0 0-.76 0 1 1 0 0 0-.33.21 1.15 1.15 0 0 0-.21.33 1 1 0 0 0 .21 1.09c.097.088.209.16.33.21A1 1 0 0 0 13 8a1.05 1.05 0 0 0-.29-.71 1 1 0 0 0-.33-.21zM12 2a10 10 0 1 0 0 20 10 10 0 0 0 0-20zm0 18a8 8 0 1 1 0-16.001A8 8 0 0 1 12 20z" fill="#0097DC"></path>
  </symbol>
  <symbol viewBox="0 0 24 24" fill="none" xmlns="http://www.w3.org/2000/svg" id="feedback-warning-light">
    <path d="M12 16C11.8022 16 11.6089 16.0586 11.4444 16.1685C11.28 16.2784 11.1518 16.4346 11.0761 16.6173C11.0004 16.8 10.9806 17.0011 11.0192 17.1951C11.0578 17.3891 11.153 17.5673 11.2929 17.7071C11.4327 17.847 11.6109 17.9422 11.8049 17.9808C11.9989 18.0194 12.2 17.9996 12.3827 17.9239C12.5654 17.8482 12.7216 17.72 12.8315 17.5556C12.9414 17.3911 13 17.1978 13 17C13 16.7348 12.8946 16.4804 12.7071 16.2929C12.5196 16.1054 12.2652 16 12 16ZM12 8C11.7348 8 11.4804 8.10536 11.2929 8.29289C11.1054 8.48043 11 8.73478 11 9V13C11 13.2652 11.1054 13.5196 11.2929 13.7071C11.4804 13.8946 11.7348 14 12 14C12.2652 14 12.5196 13.8946 12.7071 13.7071C12.8946 13.5196 13 13.2652 13 13V9C13 8.73478 12.8946 8.48043 12.7071 8.29289C12.5196 8.10536 12.2652 8 12 8Z" fill="#333333" />
    <path d="M22.6705 17.4703L14.6205 3.47027C14.3603 3.00379 13.9802 2.61523 13.5196 2.34474C13.0591 2.07425 12.5346 1.93164 12.0005 1.93164C11.4663 1.93164 10.9419 2.07425 10.4813 2.34474C10.0207 2.61523 9.64065 3.00379 9.38046 3.47027L1.38046 17.4703C1.11125 17.9243 0.966598 18.4413 0.9611 18.9691C0.955602 19.4969 1.08945 20.0168 1.34914 20.4763C1.60883 20.9358 1.98516 21.3187 2.44014 21.5863C2.89512 21.8539 3.41264 21.9967 3.94046 22.0003H20.0605C20.5925 22.0055 21.1164 21.8692 21.5784 21.6052C22.0403 21.3412 22.4238 20.9591 22.6894 20.4981C22.9551 20.0371 23.0933 19.5137 23.09 18.9816C23.0866 18.4495 22.9418 17.9279 22.6705 17.4703ZM20.9405 19.4703C20.8528 19.6262 20.7249 19.7558 20.5701 19.8455C20.4154 19.9352 20.2393 19.9817 20.0605 19.9803H3.94046C3.76157 19.9817 3.58556 19.9352 3.43077 19.8455C3.27599 19.7558 3.14811 19.6262 3.06046 19.4703C2.97269 19.3183 2.92648 19.1458 2.92648 18.9703C2.92648 18.7947 2.97269 18.6223 3.06046 18.4703L11.0605 4.47027C11.1444 4.30647 11.2719 4.169 11.4289 4.07301C11.5859 3.97702 11.7664 3.92623 11.9505 3.92623C12.1345 3.92623 12.315 3.97702 12.472 4.07301C12.629 4.169 12.7565 4.30647 12.8405 4.47027L20.8905 18.4703C20.9897 18.6201 21.0467 18.7939 21.0555 18.9734C21.0643 19.1529 21.0245 19.3314 20.9405 19.4903V19.4703Z" fill="#F7B228" />
  </symbol>
  <symbol viewBox="0 0 24 24" fill="none" xmlns="http://www.w3.org/2000/svg" id="feedback-warning-dark">
    <path d="M12 16C11.8022 16 11.6089 16.0586 11.4444 16.1685C11.28 16.2784 11.1518 16.4346 11.0761 16.6173C11.0004 16.8 10.9806 17.0011 11.0192 17.1951C11.0578 17.3891 11.153 17.5673 11.2929 17.7071C11.4327 17.847 11.6109 17.9422 11.8049 17.9808C11.9989 18.0194 12.2 17.9996 12.3827 17.9239C12.5654 17.8482 12.7216 17.72 12.8315 17.5556C12.9414 17.3911 13 17.1978 13 17C13 16.7348 12.8946 16.4804 12.7071 16.2929C12.5196 16.1054 12.2652 16 12 16ZM12 8C11.7348 8 11.4804 8.10536 11.2929 8.29289C11.1054 8.48043 11 8.73478 11 9V13C11 13.2652 11.1054 13.5196 11.2929 13.7071C11.4804 13.8946 11.7348 14 12 14C12.2652 14 12.5196 13.8946 12.7071 13.7071C12.8946 13.5196 13 13.2652 13 13V9C13 8.73478 12.8946 8.48043 12.7071 8.29289C12.5196 8.10536 12.2652 8 12 8Z" fill="#F5F5F5" />
    <path d="M22.6705 17.4703L14.6205 3.47027C14.3603 3.00379 13.9802 2.61523 13.5196 2.34474C13.0591 2.07425 12.5346 1.93164 12.0005 1.93164C11.4663 1.93164 10.9419 2.07425 10.4813 2.34474C10.0207 2.61523 9.64065 3.00379 9.38046 3.47027L1.38046 17.4703C1.11125 17.9243 0.966598 18.4413 0.9611 18.9691C0.955602 19.4969 1.08945 20.0168 1.34914 20.4763C1.60883 20.9358 1.98516 21.3187 2.44014 21.5863C2.89512 21.8539 3.41264 21.9967 3.94046 22.0003H20.0605C20.5925 22.0055 21.1164 21.8692 21.5784 21.6052C22.0403 21.3412 22.4238 20.9591 22.6894 20.4981C22.9551 20.0371 23.0933 19.5137 23.09 18.9816C23.0866 18.4495 22.9418 17.9279 22.6705 17.4703ZM20.9405 19.4703C20.8528 19.6262 20.7249 19.7558 20.5701 19.8455C20.4154 19.9352 20.2393 19.9817 20.0605 19.9803H3.94046C3.76157 19.9817 3.58556 19.9352 3.43077 19.8455C3.27599 19.7558 3.14811 19.6262 3.06046 19.4703C2.97269 19.3183 2.92648 19.1458 2.92648 18.9703C2.92648 18.7947 2.97269 18.6223 3.06046 18.4703L11.0605 4.47027C11.1444 4.30647 11.2719 4.169 11.4289 4.07301C11.5859 3.97702 11.7664 3.92623 11.9505 3.92623C12.1345 3.92623 12.315 3.97702 12.472 4.07301C12.629 4.169 12.7565 4.30647 12.8405 4.47027L20.8905 18.4703C20.9897 18.6201 21.0467 18.7939 21.0555 18.9734C21.0643 19.1529 21.0245 19.3314 20.9405 19.4903V19.4703Z" fill="#F7B228" />
  </symbol>
  <symbol viewBox="0 0 24 24" fill="none" xmlns="http://www.w3.org/2000/svg" id="feedback-info-alt">
    <path d="M12 11C11.7348 11 11.4804 11.1054 11.2929 11.2929C11.1054 11.4804 11 11.7348 11 12V16C11 16.2652 11.1054 16.5196 11.2929 16.7071C11.4804 16.8946 11.7348 17 12 17C12.2652 17 12.5196 16.8946 12.7071 16.7071C12.8946 16.5196 13 16.2652 13 16V12C13 11.7348 12.8946 11.4804 12.7071 11.2929C12.5196 11.1054 12.2652 11 12 11ZM12.38 7.08C12.1365 6.97998 11.8635 6.97998 11.62 7.08C11.4973 7.12759 11.3851 7.19896 11.29 7.29C11.2017 7.3872 11.1306 7.49882 11.08 7.62C11.024 7.73868 10.9966 7.86882 11 8C10.9992 8.13161 11.0245 8.26207 11.0742 8.38391C11.124 8.50574 11.1973 8.61656 11.29 8.71C11.3872 8.79833 11.4988 8.86936 11.62 8.92C11.7715 8.98224 11.936 9.00632 12.099 8.99011C12.2619 8.97391 12.4184 8.91792 12.5547 8.82707C12.691 8.73622 12.8029 8.61328 12.8805 8.46907C12.9582 8.32486 12.9992 8.16378 13 8C12.9963 7.73523 12.8927 7.48163 12.71 7.29C12.6149 7.19896 12.5028 7.12759 12.38 7.08ZM12 2C10.0222 2 8.08879 2.58649 6.4443 3.6853C4.79981 4.78412 3.51809 6.3459 2.76121 8.17317C2.00433 10.0004 1.8063 12.0111 2.19215 13.9509C2.578 15.8907 3.53041 17.6725 4.92894 19.0711C6.32746 20.4696 8.10929 21.422 10.0491 21.8079C11.9889 22.1937 13.9996 21.9957 15.8268 21.2388C17.6541 20.4819 19.2159 19.2002 20.3147 17.5557C21.4135 15.9112 22 13.9778 22 12C22 10.6868 21.7413 9.38642 21.2388 8.17317C20.7363 6.95991 19.9997 5.85752 19.0711 4.92893C18.1425 4.00035 17.0401 3.26375 15.8268 2.7612C14.6136 2.25866 13.3132 2 12 2Z" fill="#4F77FF" />
    <path d="M11.2929 11.2929C11.4805 11.1054 11.7348 11 12 11C12.2653 11 12.5196 11.1054 12.7071 11.2929C12.8947 11.4804 13 11.7348 13 12V16C13 16.2652 12.8947 16.5196 12.7071 16.7071C12.5196 16.8947 12.2653 17 12 17C11.7348 17 11.4805 16.8947 11.2929 16.7071C11.1054 16.5196 11 16.2652 11 16V12C11 11.7348 11.1054 11.4804 11.2929 11.2929Z" fill="white" />
    <path d="M11.62 7.08002C11.8635 6.98 12.1366 6.98 12.38 7.08002C12.5028 7.12761 12.6149 7.19898 12.71 7.29002C12.8928 7.48165 12.9964 7.73525 13 8.00002C12.9992 8.1638 12.9582 8.32488 12.8805 8.46909C12.8029 8.6133 12.691 8.73624 12.5547 8.82709C12.4185 8.91794 12.262 8.97393 12.099 8.99013C11.936 9.00633 11.7715 8.98226 11.62 8.92002C11.4988 8.86938 11.3872 8.79835 11.29 8.71002C11.1974 8.61658 11.124 8.50576 11.0743 8.38392C11.0245 8.26209 10.9993 8.13163 11 8.00002C10.9967 7.86884 11.0241 7.7387 11.08 7.62002C11.1307 7.49883 11.2017 7.38722 11.29 7.29002C11.3851 7.19898 11.4973 7.12761 11.62 7.08002Z" fill="white" />
  </symbol>
  <symbol viewBox="0 0 24 24" fill="none" xmlns="http://www.w3.org/2000/svg" id="feedback-success-alt">
    <path d="M14.72 8.79L10.43 13.09L8.78 11.44C8.69036 11.3353 8.58004 11.2503 8.45597 11.1903C8.33191 11.1303 8.19678 11.0965 8.05906 11.0912C7.92134 11.0859 7.78401 11.1091 7.65568 11.1594C7.52736 11.2096 7.41081 11.2859 7.31335 11.3833C7.2159 11.4808 7.13964 11.5974 7.08937 11.7257C7.03909 11.854 7.01589 11.9913 7.02121 12.1291C7.02653 12.2668 7.06026 12.4019 7.12028 12.526C7.1803 12.65 7.26532 12.7604 7.37 12.85L9.72 15.21C9.81344 15.3027 9.92426 15.376 10.0461 15.4258C10.1679 15.4755 10.2984 15.5008 10.43 15.5C10.6923 15.4989 10.9437 15.3947 11.13 15.21L16.13 10.21C16.2237 10.117 16.2981 10.0064 16.3489 9.88458C16.3997 9.76272 16.4258 9.63201 16.4258 9.5C16.4258 9.36799 16.3997 9.23728 16.3489 9.11542C16.2981 8.99356 16.2237 8.88296 16.13 8.79C15.9426 8.60375 15.6892 8.49921 15.425 8.49921C15.1608 8.49921 14.9074 8.60375 14.72 8.79ZM12 2C10.0222 2 8.08879 2.58649 6.4443 3.6853C4.79981 4.78412 3.51809 6.3459 2.76121 8.17317C2.00433 10.0004 1.8063 12.0111 2.19215 13.9509C2.578 15.8907 3.53041 17.6725 4.92894 19.0711C6.32746 20.4696 8.10929 21.422 10.0491 21.8079C11.9889 22.1937 13.9996 21.9957 15.8268 21.2388C17.6541 20.4819 19.2159 19.2002 20.3147 17.5557C21.4135 15.9112 22 13.9778 22 12C22 10.6868 21.7413 9.38642 21.2388 8.17317C20.7363 6.95991 19.9997 5.85752 19.0711 4.92893C18.1425 4.00035 17.0401 3.26375 15.8268 2.7612C14.6136 2.25866 13.3132 2 12 2Z" fill="#318C6E" />
    <path d="M10.4301 13.0901L14.7201 8.79006C14.9074 8.60381 15.1609 8.49927 15.4251 8.49927C15.6892 8.49927 15.9427 8.60381 16.1301 8.79006C16.2238 8.88302 16.2982 8.99362 16.3489 9.11548C16.3997 9.23734 16.4258 9.36805 16.4258 9.50006C16.4258 9.63207 16.3997 9.76278 16.3489 9.88464C16.2982 10.0065 16.2238 10.1171 16.1301 10.2101L11.1301 15.2101C10.9438 15.3948 10.6924 15.499 10.4301 15.5001C10.2984 15.5008 10.168 15.4756 10.0461 15.4258C9.92431 15.3761 9.81349 15.3027 9.72005 15.2101L7.37005 12.8501C7.26537 12.7604 7.18035 12.6501 7.12033 12.526C7.0603 12.402 7.02657 12.2668 7.02125 12.1291C7.01593 11.9914 7.03914 11.8541 7.08941 11.7257C7.13969 11.5974 7.21595 11.4809 7.3134 11.3834C7.41086 11.286 7.5274 11.2097 7.65573 11.1594C7.78405 11.1091 7.92139 11.0859 8.0591 11.0913C8.19682 11.0966 8.33196 11.1303 8.45602 11.1903C8.58009 11.2504 8.6904 11.3354 8.78005 11.4401L10.4301 13.0901Z" fill="white" />
  </symbol>
  <symbol viewBox="0 0 24 24" fill="none" xmlns="http://www.w3.org/2000/svg" id="feedback-danger-alt">
    <path d="M12 7C11.7348 7 11.4804 7.10536 11.2929 7.29289C11.1054 7.48043 11 7.73478 11 8V12C11 12.2652 11.1054 12.5196 11.2929 12.7071C11.4804 12.8946 11.7348 13 12 13C12.2652 13 12.5196 12.8946 12.7071 12.7071C12.8946 12.5196 13 12.2652 13 12V8C13 7.73478 12.8946 7.48043 12.7071 7.29289C12.5196 7.10536 12.2652 7 12 7ZM12.92 15.62C12.8981 15.5563 12.8679 15.4957 12.83 15.44L12.71 15.29C12.5694 15.1512 12.3908 15.0572 12.1968 15.0199C12.0028 14.9825 11.8021 15.0034 11.62 15.08C11.4988 15.1306 11.3872 15.2017 11.29 15.29C11.1973 15.3834 11.124 15.4943 11.0742 15.6161C11.0245 15.7379 10.9992 15.8684 11 16C11.0016 16.1307 11.0288 16.2598 11.08 16.38C11.1249 16.5041 11.1966 16.6168 11.2899 16.7101C11.3832 16.8034 11.4959 16.8751 11.62 16.92C11.7397 16.9729 11.8691 17.0002 12 17.0002C12.1309 17.0002 12.2603 16.9729 12.38 16.92C12.5041 16.8751 12.6168 16.8034 12.7101 16.7101C12.8034 16.6168 12.8751 16.5041 12.92 16.38C12.9712 16.2598 12.9984 16.1307 13 16C13.0049 15.9334 13.0049 15.8666 13 15.8C12.9828 15.7362 12.9558 15.6755 12.92 15.62ZM12 2C10.0222 2 8.08879 2.58649 6.4443 3.6853C4.79981 4.78412 3.51809 6.3459 2.76121 8.17317C2.00433 10.0004 1.8063 12.0111 2.19215 13.9509C2.578 15.8907 3.53041 17.6725 4.92894 19.0711C6.32746 20.4696 8.10929 21.422 10.0491 21.8079C11.9889 22.1937 13.9996 21.9957 15.8268 21.2388C17.6541 20.4819 19.2159 19.2002 20.3147 17.5557C21.4135 15.9112 22 13.9778 22 12C22 10.6868 21.7413 9.38642 21.2388 8.17317C20.7363 6.95991 19.9997 5.85752 19.0711 4.92893C18.1425 4.00035 17.0401 3.26375 15.8268 2.7612C14.6136 2.25866 13.3132 2 12 2Z" fill="#FA2724" />
    <path d="M11.2929 7.29289C11.4804 7.10536 11.7348 7 12 7C12.2652 7 12.5196 7.10536 12.7071 7.29289C12.8947 7.48043 13 7.73478 13 8V12C13 12.2652 12.8947 12.5196 12.7071 12.7071C12.5196 12.8946 12.2652 13 12 13C11.7348 13 11.4804 12.8946 11.2929 12.7071C11.1054 12.5196 11 12.2652 11 12V8C11 7.73478 11.1054 7.48043 11.2929 7.29289Z" fill="white" />
    <path d="M12.83 15.44C12.8679 15.4957 12.8981 15.5563 12.92 15.62C12.9558 15.6755 12.9828 15.7362 13 15.8C13.0049 15.8666 13.0049 15.9334 13 16C12.9984 16.1307 12.9713 16.2598 12.92 16.38C12.8751 16.5041 12.8035 16.6168 12.7101 16.7101C12.6168 16.8034 12.5041 16.8751 12.38 16.92C12.2603 16.9729 12.1309 17.0002 12 17.0002C11.8691 17.0002 11.7397 16.9729 11.62 16.92C11.4959 16.8751 11.3832 16.8034 11.2899 16.7101C11.1966 16.6168 11.1249 16.5041 11.08 16.38C11.0288 16.2598 11.0016 16.1307 11 16C10.9993 15.8684 11.0245 15.7379 11.0742 15.6161C11.124 15.4943 11.1973 15.3834 11.29 15.29C11.3872 15.2017 11.4988 15.1306 11.62 15.08C11.8021 15.0034 12.0028 14.9825 12.1968 15.0199C12.3908 15.0572 12.5694 15.1512 12.71 15.29L12.83 15.44Z" fill="white" />
  </symbol>
  <symbol viewBox="0 0 24 24" fill="none" xmlns="http://www.w3.org/2000/svg" id="feedback-warning-alt">
    <path d="M22.5829 17.4854L14.5798 3.53336C14.3212 3.06847 13.9434 2.68125 13.4855 2.41168C13.0275 2.14212 12.5062 2 11.9751 2C11.4441 2 10.9227 2.14212 10.4648 2.41168C10.0069 2.68125 9.62908 3.06847 9.37041 3.53336L1.41707 17.4854C1.14944 17.9378 1.00563 18.4531 1.00016 18.9791C0.994696 19.5051 1.12777 20.0232 1.38594 20.4811C1.64411 20.9391 2.01825 21.3206 2.47057 21.5873C2.9229 21.854 3.4374 21.9963 3.96214 21.9999H19.9881C20.5171 22.0051 21.0379 21.8692 21.4972 21.6061C21.9564 21.3431 22.3377 20.9623 22.6018 20.5028C22.8658 20.0434 23.0033 19.5218 22.9999 18.9915C22.9966 18.4613 22.8527 17.9415 22.5829 17.4854Z" fill="#F7B228" />
    <path d="M12.0391 16.0684C11.8413 16.0684 11.6479 16.127 11.4835 16.2369C11.319 16.3468 11.1909 16.503 11.1152 16.6857C11.0395 16.8684 11.0197 17.0695 11.0583 17.2635C11.0969 17.4574 11.1921 17.6356 11.332 17.7755C11.4718 17.9153 11.65 18.0106 11.844 18.0491C12.038 18.0877 12.239 18.0679 12.4217 17.9922C12.6045 17.9166 12.7607 17.7884 12.8705 17.6239C12.9804 17.4595 13.0391 17.2661 13.0391 17.0684C13.0391 16.8031 12.9337 16.5488 12.7462 16.3613C12.5586 16.1737 12.3043 16.0684 12.0391 16.0684ZM12.0391 8.06836C11.7738 8.06836 11.5195 8.17372 11.332 8.36125C11.1444 8.54879 11.0391 8.80314 11.0391 9.06836V13.0684C11.0391 13.3336 11.1444 13.5879 11.332 13.7755C11.5195 13.963 11.7738 14.0684 12.0391 14.0684C12.3043 14.0684 12.5586 13.963 12.7462 13.7755C12.9337 13.5879 13.0391 13.3336 13.0391 13.0684V9.06836C13.0391 8.80314 12.9337 8.54879 12.7462 8.36125C12.5586 8.17372 12.3043 8.06836 12.0391 8.06836Z" fill="#333333" />
  </symbol>
</svg>