<svg width="0" height="0" class="hidden">
  <symbol viewBox="0 0 24 24" fill="none" xmlns="http://www.w3.org/2000/svg" id="file-file-alt">
    <path d="M9 10h1a1 1 0 1 0 0-2H9a1 1 0 0 0 0 2zm0 2a1 1 0 0 0 0 2h6a1 1 0 0 0 0-2H9zm11-3.06a1.307 1.307 0 0 0-.06-.27v-.09a1.07 1.07 0 0 0-.19-.28l-6-6a1.071 1.071 0 0 0-.28-.19.32.32 0 0 0-.09 0 .88.88 0 0 0-.33-.11H7a3 3 0 0 0-3 3v14a3 3 0 0 0 3 3h10a3 3 0 0 0 3-3V8.94zm-6-3.53L16.59 8H15a1 1 0 0 1-1-1V5.41zM18 19a1 1 0 0 1-1 1H7a1 1 0 0 1-1-1V5a1 1 0 0 1 1-1h5v3a3 3 0 0 0 3 3h3v9zm-3-3H9a1 1 0 0 0 0 2h6a1 1 0 0 0 0-2z" fill="currentColor"></path>
  </symbol>
  <symbol viewBox="0 0 24 24" fill="none" xmlns="http://www.w3.org/2000/svg" id="file-file-blank">
    <path d="M20 8.94a1.307 1.307 0 0 0-.06-.27v-.09a1.07 1.07 0 0 0-.19-.28l-6-6a1.071 1.071 0 0 0-.28-.19h-.09a.88.88 0 0 0-.33-.11H7a3 3 0 0 0-3 3v14a3 3 0 0 0 3 3h10a3 3 0 0 0 3-3V8.94zm-6-3.53L16.59 8H15a1 1 0 0 1-1-1V5.41zM18 19a1 1 0 0 1-1 1H7a1 1 0 0 1-1-1V5a1 1 0 0 1 1-1h5v3a3 3 0 0 0 3 3h3v9z" fill="currentColor"></path>
  </symbol>
  <symbol viewBox="0 0 24 24" fill="none" xmlns="http://www.w3.org/2000/svg" id="file-file-block-alt">
    <path d="M7 8a1 1 0 0 0 0 2h1a1 1 0 0 0 0-2H7zm5 12H5a1 1 0 0 1-1-1V5a1 1 0 0 1 1-1h5v3a3 3 0 0 0 3 3h3v1a1 1 0 0 0 2 0V8.94a1.307 1.307 0 0 0-.06-.27v-.09a1.07 1.07 0 0 0-.19-.28l-6-6a1.071 1.071 0 0 0-.28-.19.32.32 0 0 0-.09 0L11.06 2H5a3 3 0 0 0-3 3v14a3 3 0 0 0 3 3h7a1 1 0 0 0 0-2zm0-14.59L14.59 8H13a1 1 0 0 1-1-1V5.41zm8.83 9.76a4.1 4.1 0 0 0-5.66 0 4 4 0 1 0 5.66 0zM16 18a2 2 0 0 1 2-2c.172.002.343.026.51.07l-2.44 2.44A2.087 2.087 0 0 1 16 18zm3.41 1.41a2 2 0 0 1-1.91.5l2.43-2.42c.044.167.068.338.07.51a2 2 0 0 1-.59 1.41zM11 18a1 1 0 0 0 0-2H7a1 1 0 0 0 0 2h4zm2-6H7a1 1 0 0 0 0 2h6a1 1 0 0 0 0-2z" fill="currentColor"></path>
  </symbol>
  <symbol viewBox="0 0 24 24" fill="none" xmlns="http://www.w3.org/2000/svg" id="file-file-bookmark-alt">
    <path d="M7.5 10h1a1 1 0 0 0 0-2h-1a1 1 0 0 0 0 2zm4 6h-4a1 1 0 0 0 0 2h4a1 1 0 0 0 0-2zm0-4h-4a1 1 0 0 0 0 2h4a1 1 0 0 0 0-2zm6.92-2.62a1 1 0 0 0-.21-1.09l-6-6a1.071 1.071 0 0 0-.28-.19.32.32 0 0 0-.09 0l-.28-.1H5.5a3 3 0 0 0-3 3v14a3 3 0 0 0 3 3h6a1 1 0 0 0 0-2h-6a1 1 0 0 1-1-1V5a1 1 0 0 1 1-1h5v3a3 3 0 0 0 3 3h4a1 1 0 0 0 .92-.62zM13.5 8a1 1 0 0 1-1-1V5.41L15.09 8H13.5zm7 4h-5a1 1 0 0 0-1 1v8a1 1 0 0 0 .53.88 1 1 0 0 0 1-.05l1.97-1.3 2 1.3a1 1 0 0 0 1.5-.83v-8a1 1 0 0 0-1-1zm-1 7.12l-.94-.63a1 1 0 0 0-1.12 0l-.94.63V14h3v5.12z" fill="currentColor"></path>
  </symbol>
  <symbol viewBox="0 0 24 24" fill="none" xmlns="http://www.w3.org/2000/svg" id="file-file-check-alt">
    <path d="M11.5 20h-6a1 1 0 0 1-1-1V5a1 1 0 0 1 1-1h5v3a3 3 0 0 0 3 3h3v5a1 1 0 0 0 2 0V8.94a1.307 1.307 0 0 0-.06-.27v-.09a1.07 1.07 0 0 0-.19-.28l-6-6a1.071 1.071 0 0 0-.28-.19.29.29 0 0 0-.1 0 1.099 1.099 0 0 0-.31-.11H5.5a3 3 0 0 0-3 3v14a3 3 0 0 0 3 3h6a1 1 0 0 0 0-2zm1-14.59L15.09 8H13.5a1 1 0 0 1-1-1V5.41zM7.5 14h6a1 1 0 0 0 0-2h-6a1 1 0 0 0 0 2zm4 2h-4a1 1 0 0 0 0 2h4a1 1 0 0 0 0-2zm-4-6h1a1 1 0 0 0 0-2h-1a1 1 0 0 0 0 2zm13.71 6.29a1.002 1.002 0 0 0-1.42 0l-3.29 3.3-1.29-1.3a1.004 1.004 0 0 0-1.42 1.42l2 2a1.002 1.002 0 0 0 1.42 0l4-4a1.002 1.002 0 0 0 0-1.42z" fill="currentColor"></path>
  </symbol>
  <symbol viewBox="0 0 24 24" fill="none" xmlns="http://www.w3.org/2000/svg" id="file-file-check">
    <path d="M20 8.94a1.307 1.307 0 0 0-.06-.27v-.09a1.07 1.07 0 0 0-.19-.28l-6-6a1.071 1.071 0 0 0-.28-.19.32.32 0 0 0-.09 0 .88.88 0 0 0-.33-.11H7a3 3 0 0 0-3 3v14a3 3 0 0 0 3 3h10a3 3 0 0 0 3-3V8.94zm-6-3.53L16.59 8H15a1 1 0 0 1-1-1V5.41zM18 19a1 1 0 0 1-1 1H7a1 1 0 0 1-1-1V5a1 1 0 0 1 1-1h5v3a3 3 0 0 0 3 3h3v9zm-3.71-6.71L11 15.59l-1.29-1.3a1.004 1.004 0 1 0-1.42 1.42l2 2a1.002 1.002 0 0 0 1.42 0l4-4a1.004 1.004 0 1 0-1.42-1.42z" fill="currentColor"></path>
  </symbol>
  <symbol viewBox="0 0 24 24" fill="none" xmlns="http://www.w3.org/2000/svg" id="file-file-contract-dollar">
    <path d="M21.71 20.29L20 18.56v-.31a2.75 2.75 0 0 0-2.75-2.75h-.34l-1.44-1.44a.67.67 0 0 1 .28-.06H19a1 1 0 0 0 0-2h-1.5v-1a1 1 0 0 0-2 0v1a2.74 2.74 0 0 0-1.47.59l-1.32-1.33a1.004 1.004 0 1 0-1.42 1.42L13 14.44v.31a2.75 2.75 0 0 0 2.75 2.75h.34l1.44 1.44a.67.67 0 0 1-.28.06H14a1 1 0 0 0 0 2h1.5v1a1 1 0 0 0 2 0v-1a2.74 2.74 0 0 0 1.5-.62l1.32 1.33a1.002 1.002 0 0 0 1.42 0 1 1 0 0 0-.03-1.42zM10 19H5a1 1 0 0 1-1-1V4a1 1 0 0 1 1-1h6v4a1 1 0 0 0 1 1h5a1 1 0 0 0 .92-.62 1 1 0 0 0-.21-1.09l-5-5a1.071 1.071 0 0 0-.28-.19h-.09a1.31 1.31 0 0 0-.28-.1H5a3 3 0 0 0-3 3v14a3 3 0 0 0 3 3h5a1 1 0 0 0 0-2zm3-14.59L14.59 6H13V4.41z" fill="currentColor"></path>
  </symbol>
  <symbol viewBox="0 0 24 24" fill="none" xmlns="http://www.w3.org/2000/svg" id="file-file-copy-alt">
    <path d="M16 20H8a3 3 0 0 1-3-3V7a1 1 0 0 0-2 0v10a5 5 0 0 0 5 5h8a1 1 0 0 0 0-2zm-6-7a1 1 0 0 0 1 1h5a1 1 0 0 0 0-2h-5a1 1 0 0 0-1 1zm11-4.06a1.307 1.307 0 0 0-.06-.27v-.09a1.07 1.07 0 0 0-.19-.28l-6-6a1.071 1.071 0 0 0-.28-.19.32.32 0 0 0-.09 0 .88.88 0 0 0-.33-.11H10a3 3 0 0 0-3 3v10a3 3 0 0 0 3 3h8a3 3 0 0 0 3-3V8.94zm-6-3.53L17.59 8H16a1 1 0 0 1-1-1V5.41zM19 15a1 1 0 0 1-1 1h-8a1 1 0 0 1-1-1V5a1 1 0 0 1 1-1h3v3a3 3 0 0 0 .18 1H11a1 1 0 1 0 0 2h8v5z" fill="currentColor"></path>
  </symbol>
  <symbol viewBox="0 0 24 24" fill="none" xmlns="http://www.w3.org/2000/svg" id="file-file-download-alt">
    <path d="M8 8a1 1 0 0 0 0 2h1a1 1 0 0 0 0-2H8zm5 12H6a1 1 0 0 1-1-1V5a1 1 0 0 1 1-1h5v3a3 3 0 0 0 3 3h3v2a1 1 0 0 0 2 0V8.94a1.307 1.307 0 0 0-.06-.27v-.09a1.07 1.07 0 0 0-.19-.28l-6-6a1.071 1.071 0 0 0-.28-.19.29.29 0 0 0-.1 0 1.099 1.099 0 0 0-.31-.11H6a3 3 0 0 0-3 3v14a3 3 0 0 0 3 3h7a1 1 0 0 0 0-2zm0-14.59L15.59 8H14a1 1 0 0 1-1-1V5.41zM14 12H8a1 1 0 0 0 0 2h6a1 1 0 0 0 0-2zm6.71 6.29a1.002 1.002 0 0 0-1.42 0l-.29.3V16a1 1 0 0 0-2 0v2.59l-.29-.3a1.004 1.004 0 1 0-1.42 1.42l2 2a1 1 0 0 0 .33.21.94.94 0 0 0 .76 0 1 1 0 0 0 .33-.21l2-2a1.002 1.002 0 0 0 0-1.42zM12 18a1 1 0 0 0 0-2H8a1 1 0 0 0 0 2h4z" fill="currentColor"></path>
  </symbol>
  <symbol viewBox="0 0 24 24" fill="none" xmlns="http://www.w3.org/2000/svg" id="file-file-download">
    <path d="M20 8.94a1.307 1.307 0 0 0-.06-.27v-.09a1.07 1.07 0 0 0-.19-.28l-6-6a1.071 1.071 0 0 0-.28-.19h-.1a1.099 1.099 0 0 0-.31-.11H7a3 3 0 0 0-3 3v14a3 3 0 0 0 3 3h10a3 3 0 0 0 3-3V8.94zm-6-3.53L16.59 8H15a1 1 0 0 1-1-1V5.41zM18 19a1 1 0 0 1-1 1H7a1 1 0 0 1-1-1V5a1 1 0 0 1 1-1h5v3a3 3 0 0 0 3 3h3v9zm-4.71-4.71l-.29.3V12a1 1 0 0 0-2 0v2.59l-.29-.3a1.004 1.004 0 1 0-1.42 1.42l2 2a1 1 0 0 0 .33.21.94.94 0 0 0 .76 0 1 1 0 0 0 .33-.21l2-2a1.004 1.004 0 1 0-1.42-1.42z" fill="currentColor"></path>
  </symbol>
  <symbol viewBox="0 0 24 24" fill="none" xmlns="http://www.w3.org/2000/svg" id="file-file-edit-alt">
    <path d="M20.71 16.71l-2.42-2.42a1.002 1.002 0 0 0-1.42 0l-3.58 3.58a1 1 0 0 0-.29.71V21a1 1 0 0 0 1 1h2.42a1 1 0 0 0 .71-.29l3.58-3.58a1.002 1.002 0 0 0 0-1.42zM16 20h-1v-1l2.58-2.58 1 1L16 20zm-6 0H6a1 1 0 0 1-1-1V5a1 1 0 0 1 1-1h5v3a3 3 0 0 0 3 3h3v1a1 1 0 0 0 2 0V8.94a1.307 1.307 0 0 0-.06-.27v-.09a1.07 1.07 0 0 0-.19-.28l-6-6a1.071 1.071 0 0 0-.28-.19.32.32 0 0 0-.09 0L12.06 2H6a3 3 0 0 0-3 3v14a3 3 0 0 0 3 3h4a1 1 0 0 0 0-2zm3-14.59L15.59 8H14a1 1 0 0 1-1-1V5.41zM8 14h6a1 1 0 0 0 0-2H8a1 1 0 0 0 0 2zm0-4h1a1 1 0 0 0 0-2H8a1 1 0 0 0 0 2zm2 6H8a1 1 0 0 0 0 2h2a1 1 0 0 0 0-2z" fill="currentColor"></path>
  </symbol>
  <symbol viewBox="0 0 24 24" fill="none" xmlns="http://www.w3.org/2000/svg" id="file-file-exclamation-alt">
    <path d="M9 10h1a1 1 0 1 0 0-2H9a1 1 0 0 0 0 2zm6 2H9a1 1 0 0 0 0 2h6a1 1 0 0 0 0-2zm0 4H9a1 1 0 0 0 0 2h6a1 1 0 0 0 0-2zm4.71 4.29a1.573 1.573 0 0 0-.15-.12.762.762 0 0 0-.18-.09L19.2 20a1 1 0 0 0-.58.06.9.9 0 0 0-.54.54.84.84 0 0 0-.08.4 1 1 0 1 0 1.92-.38 1.15 1.15 0 0 0-.21-.33zM20 8.94a1.307 1.307 0 0 0-.06-.27v-.09a1.07 1.07 0 0 0-.19-.28l-6-6a1.071 1.071 0 0 0-.28-.19.32.32 0 0 0-.09 0 .88.88 0 0 0-.33-.11H7a3 3 0 0 0-3 3v14a3 3 0 0 0 3 3h8a1 1 0 0 0 0-2H7a1 1 0 0 1-1-1V5a1 1 0 0 1 1-1h5v3a3 3 0 0 0 3 3h3v2a1 1 0 0 0 2 0V8.94zM15 8a1 1 0 0 1-1-1V5.41L16.59 8H15zm4 7a1 1 0 0 0-1 1v2a1 1 0 0 0 2 0v-2a1 1 0 0 0-1-1z" fill="currentColor"></path>
  </symbol>
  <symbol viewBox="0 0 24 24" fill="none" xmlns="http://www.w3.org/2000/svg" id="file-file-exclamation">
    <path d="M12.92 16.62a.762.762 0 0 0-.09-.18 1.573 1.573 0 0 0-.12-.15.999.999 0 0 0-1.09-.21 1 1 0 0 0-.33.21 1.573 1.573 0 0 0-.12.15.762.762 0 0 0-.09.18.64.64 0 0 0-.06.18 1.517 1.517 0 0 0 0 .2.84.84 0 0 0 .08.38c.05.121.122.233.21.33A1 1 0 0 0 12 18a.84.84 0 0 0 .38-.08.9.9 0 0 0 .54-.54A.84.84 0 0 0 13 17a1.517 1.517 0 0 0 0-.2.639.639 0 0 0-.08-.18zM20 8.94a1.307 1.307 0 0 0-.06-.27v-.09a1.07 1.07 0 0 0-.19-.28l-6-6a1.071 1.071 0 0 0-.28-.19h-.09a.88.88 0 0 0-.33-.11H7a3 3 0 0 0-3 3v14a3 3 0 0 0 3 3h10a3 3 0 0 0 3-3V8.94zm-6-3.53L16.59 8H15a1 1 0 0 1-1-1V5.41zM18 19a1 1 0 0 1-1 1H7a1 1 0 0 1-1-1V5a1 1 0 0 1 1-1h5v3a3 3 0 0 0 3 3h3v9zm-6-8a1 1 0 0 0-1 1v2a1 1 0 0 0 2 0v-2a1 1 0 0 0-1-1z" fill="currentColor"></path>
  </symbol>
  <symbol viewBox="0 0 24 24" fill="none" xmlns="http://www.w3.org/2000/svg" id="file-file-heart">
    <path d="M20 8.94a1.307 1.307 0 0 0-.06-.27v-.09a1.07 1.07 0 0 0-.19-.28l-6-6a1.071 1.071 0 0 0-.28-.19h-.1a1.099 1.099 0 0 0-.31-.11H7a3 3 0 0 0-3 3v14a3 3 0 0 0 3 3h10a3 3 0 0 0 3-3V8.94zm-6-3.53L16.59 8H15a1 1 0 0 1-1-1V5.41zM18 19a1 1 0 0 1-1 1H7a1 1 0 0 1-1-1V5a1 1 0 0 1 1-1h5v3a3 3 0 0 0 3 3h3v9zm-6-7.66A2.92 2.92 0 0 0 8.57 16l2.72 2.72a1.002 1.002 0 0 0 1.42 0L15.43 16A2.92 2.92 0 0 0 12 11.34zm2 1.93a.92.92 0 0 1 0 1.3l-2 2-2-2a.92.92 0 0 1 1.3-1.3 1.002 1.002 0 0 0 1.42 0 .92.92 0 0 1 1.28 0z" fill="currentColor"></path>
  </symbol>
  <symbol viewBox="0 0 24 24" fill="none" xmlns="http://www.w3.org/2000/svg" id="file-file-info-alt">
    <path d="M15 16H9a1 1 0 0 0 0 2h6a1 1 0 0 0 0-2zm-6-6h1a1 1 0 1 0 0-2H9a1 1 0 0 0 0 2zm6 2H9a1 1 0 0 0 0 2h6a1 1 0 0 0 0-2zm4.71 3.29a1 1 0 0 0-.33-.21.92.92 0 0 0-.76 0 1 1 0 0 0-.33.21 1.15 1.15 0 0 0-.21.33 1 1 0 0 0 .21 1.09A1 1 0 0 0 19 17c.13-.002.26-.029.38-.08a1.15 1.15 0 0 0 .33-.21.999.999 0 0 0 .21-1.09 1.15 1.15 0 0 0-.21-.33zM20 8.94a1.307 1.307 0 0 0-.06-.27v-.09a1.07 1.07 0 0 0-.19-.28l-6-6a1.071 1.071 0 0 0-.28-.19.32.32 0 0 0-.09 0 .88.88 0 0 0-.33-.11H7a3 3 0 0 0-3 3v14a3 3 0 0 0 3 3h8a1 1 0 0 0 0-2H7a1 1 0 0 1-1-1V5a1 1 0 0 1 1-1h5v3a3 3 0 0 0 3 3h3v2a1 1 0 0 0 2 0V8.94zM15 8a1 1 0 0 1-1-1V5.41L16.59 8H15zm4 10a1 1 0 0 0-1 1v2a1 1 0 0 0 2 0v-2a1 1 0 0 0-1-1z" fill="currentColor"></path>
  </symbol>
  <symbol viewBox="0 0 24 24" fill="none" xmlns="http://www.w3.org/2000/svg" id="file-file-landscape-alt">
    <path d="M22 10.94a1.306 1.306 0 0 0-.06-.27v-.09a1.071 1.071 0 0 0-.19-.28l-6-6a1.071 1.071 0 0 0-.28-.19h-.1a1.099 1.099 0 0 0-.31-.11H5a3 3 0 0 0-3 3v10a3 3 0 0 0 3 3h14a3 3 0 0 0 3-3v-6.06zm-6-3.53L18.59 10H17a1 1 0 0 1-1-1V7.41zM20 17a1 1 0 0 1-1 1H5a1 1 0 0 1-1-1V7a1 1 0 0 1 1-1h9v3a3 3 0 0 0 3 3h3v5zM7 12h4a1 1 0 0 0 0-2H7a1 1 0 0 0 0 2zm0 2a1 1 0 0 0 0 2h10a1 1 0 0 0 0-2H7z" fill="currentColor"></path>
  </symbol>
  <symbol viewBox="0 0 24 24" fill="none" xmlns="http://www.w3.org/2000/svg" id="file-file-landscape">
    <path d="M22 10.94a1.306 1.306 0 0 0-.06-.27v-.09a1.071 1.071 0 0 0-.19-.28l-6-6a1.071 1.071 0 0 0-.28-.19h-.1a1.099 1.099 0 0 0-.31-.11H5a3 3 0 0 0-3 3v10a3 3 0 0 0 3 3h14a3 3 0 0 0 3-3v-6.06zm-6-3.53L18.59 10H17a1 1 0 0 1-1-1V7.41zM20 17a1 1 0 0 1-1 1H5a1 1 0 0 1-1-1V7a1 1 0 0 1 1-1h9v3a3 3 0 0 0 3 3h3v5z" fill="currentColor"></path>
  </symbol>
  <symbol viewBox="0 0 24 24" fill="none" xmlns="http://www.w3.org/2000/svg" id="file-file-lanscape-slash">
    <path d="M22 10.94a1.309 1.309 0 0 0-.06-.27v-.09a1.071 1.071 0 0 0-.19-.28l-6-6a1.071 1.071 0 0 0-.28-.19h-.09a.88.88 0 0 0-.33-.11h-4.39a1 1 0 1 0 0 2H14v3a3 3 0 0 0 3 3h3v3.34a1 1 0 1 0 2 0v-4.4zM17 10a1 1 0 0 1-1-1V7.41L18.59 10H17zM3.71 2.29a1.004 1.004 0 1 0-1.42 1.42l.91.9A3 3 0 0 0 2 7v10a3 3 0 0 0 3 3h13.59l1.7 1.71a.999.999 0 0 0 1.42 0 1 1 0 0 0 0-1.42l-18-18zM5 18a1 1 0 0 1-1-1V7a1 1 0 0 1 .66-.93L16.59 18H5z" fill="currentColor"></path>
  </symbol>
  <symbol viewBox="0 0 24 24" fill="none" xmlns="http://www.w3.org/2000/svg" id="file-file-lock-alt">
    <path d="M10 20H5a1 1 0 0 1-1-1V5a1 1 0 0 1 1-1h5v3a3 3 0 0 0 3 3h4a1 1 0 0 0 .92-.62 1 1 0 0 0-.21-1.09l-6-6a1.071 1.071 0 0 0-.28-.19.32.32 0 0 0-.09 0l-.28-.1H5a3 3 0 0 0-3 3v14a3 3 0 0 0 3 3h5a1 1 0 0 0 0-2zm2-14.59L14.59 8H13a1 1 0 0 1-1-1V5.41zM13 13a1 1 0 0 0-1-1H7a1 1 0 0 0 0 2h5a1 1 0 0 0 1-1zm-6-3h1a1 1 0 0 0 0-2H7a1 1 0 0 0 0 2zm0 6a1 1 0 0 0 0 2h2a1 1 0 0 0 0-2H7zm13-.82V15a3 3 0 0 0-6 0v.18A3 3 0 0 0 12 18v1a3 3 0 0 0 3 3h4a3 3 0 0 0 3-3v-1a3 3 0 0 0-2-2.82zM17 14a1 1 0 0 1 1 1h-2a1 1 0 0 1 1-1zm3 5a1 1 0 0 1-1 1h-4a1 1 0 0 1-1-1v-1a1 1 0 0 1 1-1h4a1 1 0 0 1 1 1v1z" fill="currentColor"></path>
  </symbol>
  <symbol viewBox="0 0 24 24" fill="none" xmlns="http://www.w3.org/2000/svg" id="file-file-medical-alt">
    <path d="M18 18a1 1 0 0 0-1 1 1 1 0 0 1-1 1H6a1 1 0 0 1-1-1V5a1 1 0 0 1 1-1h5v3a3 3 0 0 0 3 3h3v1a1 1 0 0 0 2 0V8.94a1.307 1.307 0 0 0-.06-.27.323.323 0 0 0 0-.09 1.07 1.07 0 0 0-.19-.28l-6-6a1.071 1.071 0 0 0-.28-.19h-.1a1.139 1.139 0 0 0-.3-.11H6a3 3 0 0 0-3 3v14a3 3 0 0 0 3 3h10a3 3 0 0 0 3-3 1 1 0 0 0-1-1zM13 5.41L15.59 8H14a1 1 0 0 1-1-1V5.41zM20 14h-2.5a1 1 0 0 0-.71.29l-1.24 1.25-2.8-3.2a1 1 0 0 0-1.46-.05L9.59 14H8a1 1 0 0 0 0 2h2a1 1 0 0 0 .71-.29L12 14.46l2.8 3.2a.999.999 0 0 0 .72.34 1 1 0 0 0 .71-.29L17.91 16H20a1 1 0 0 0 0-2z" fill="currentColor"></path>
  </symbol>
  <symbol viewBox="0 0 24 24" fill="none" xmlns="http://www.w3.org/2000/svg" id="file-file-medical">
    <path d="M14 14h-1v-1a1 1 0 0 0-2 0v1h-1a1 1 0 0 0 0 2h1v1a1 1 0 0 0 2 0v-1h1a1 1 0 0 0 0-2zm6-5.06a1.307 1.307 0 0 0-.06-.27v-.09a1.07 1.07 0 0 0-.19-.28l-6-6a1.071 1.071 0 0 0-.28-.19h-.09a.88.88 0 0 0-.33-.11H7a3 3 0 0 0-3 3v14a3 3 0 0 0 3 3h10a3 3 0 0 0 3-3V8.94zm-6-3.53L16.59 8H15a1 1 0 0 1-1-1V5.41zM18 19a1 1 0 0 1-1 1H7a1 1 0 0 1-1-1V5a1 1 0 0 1 1-1h5v3a3 3 0 0 0 3 3h3v9z" fill="currentColor"></path>
  </symbol>
  <symbol viewBox="0 0 24 24" fill="none" xmlns="http://www.w3.org/2000/svg" id="file-file-minus-alt">
    <path d="M8 8a1 1 0 0 0 0 2h1a1 1 0 0 0 0-2H8zm5 12H6a1 1 0 0 1-1-1V5a1 1 0 0 1 1-1h5v3a3 3 0 0 0 3 3h3v5a1 1 0 0 0 2 0V8.94a1.307 1.307 0 0 0-.06-.27v-.09a1.07 1.07 0 0 0-.19-.28l-6-6a1.071 1.071 0 0 0-.28-.19.29.29 0 0 0-.1 0 1.099 1.099 0 0 0-.31-.11H6a3 3 0 0 0-3 3v14a3 3 0 0 0 3 3h7a1 1 0 0 0 0-2zm0-14.59L15.59 8H14a1 1 0 0 1-1-1V5.41zM20 18h-4a1 1 0 0 0 0 2h4a1 1 0 0 0 0-2zm-7-2H8a1 1 0 0 0 0 2h5a1 1 0 0 0 0-2zm1-4H8a1 1 0 0 0 0 2h6a1 1 0 0 0 0-2z" fill="currentColor"></path>
  </symbol>
  <symbol viewBox="0 0 24 24" fill="none" xmlns="http://www.w3.org/2000/svg" id="file-file-minus">
    <path d="M14 14h-4a1 1 0 0 0 0 2h4a1 1 0 0 0 0-2zm6-5.06a1.307 1.307 0 0 0-.06-.27v-.09a1.07 1.07 0 0 0-.19-.28l-6-6a1.071 1.071 0 0 0-.28-.19h-.09a.88.88 0 0 0-.33-.11H7a3 3 0 0 0-3 3v14a3 3 0 0 0 3 3h10a3 3 0 0 0 3-3V8.94zm-6-3.53L16.59 8H15a1 1 0 0 1-1-1V5.41zM18 19a1 1 0 0 1-1 1H7a1 1 0 0 1-1-1V5a1 1 0 0 1 1-1h5v3a3 3 0 0 0 3 3h3v9z" fill="currentColor"></path>
  </symbol>
  <symbol viewBox="0 0 24 24" fill="none" xmlns="http://www.w3.org/2000/svg" id="file-file-network">
    <path d="M20 18h-1v-1a1 1 0 0 0-2 0v1h-1a1 1 0 0 0 0 2h1v1a1 1 0 0 0 2 0v-1h1a1 1 0 0 0 0-2zm-7 2H6a1 1 0 0 1-1-1V5a1 1 0 0 1 1-1h5v3a3 3 0 0 0 3 3h3v3a1 1 0 0 0 2 0V8.94a1.307 1.307 0 0 0-.06-.27v-.09a1.07 1.07 0 0 0-.19-.28l-6-6a1.071 1.071 0 0 0-.28-.19.29.29 0 0 0-.1 0 1.099 1.099 0 0 0-.31-.11H6a3 3 0 0 0-3 3v14a3 3 0 0 0 3 3h7a1 1 0 0 0 0-2zm0-14.59L15.59 8H14a1 1 0 0 1-1-1V5.41zM8 8a1 1 0 0 0 0 2h1a1 1 0 0 0 0-2H8zm5 8H8a1 1 0 0 0 0 2h5a1 1 0 0 0 0-2zm1-4H8a1 1 0 0 0 0 2h6a1 1 0 0 0 0-2z" fill="currentColor"></path>
  </symbol>
  <symbol viewBox="0 0 24 24" fill="none" xmlns="http://www.w3.org/2000/svg" id="file-file-plus-alt">
    <path d="M21 19h-6.18A3 3 0 0 0 13 17.18V15h3a3 3 0 0 0 3-3V7.94a1.307 1.307 0 0 0-.06-.27v-.09a1.07 1.07 0 0 0-.19-.28l-6-6a1.071 1.071 0 0 0-.28-.19.32.32 0 0 0-.09 0 .88.88 0 0 0-.33-.11H8a3 3 0 0 0-3 3v8a3 3 0 0 0 3 3h3v2.18A3 3 0 0 0 9.18 19H3a1 1 0 0 0 0 2h6.18a3 3 0 0 0 5.64 0H21a1 1 0 0 0 0-2zM13 4.41L15.59 7H14a1 1 0 0 1-1-1V4.41zM8 13a1 1 0 0 1-1-1V4a1 1 0 0 1 1-1h3v3a3 3 0 0 0 3 3h3v3a1 1 0 0 1-1 1H8zm4 8a1 1 0 1 1 0-2 1 1 0 0 1 0 2z" fill="currentColor"></path>
  </symbol>
  <symbol viewBox="0 0 24 24" fill="none" xmlns="http://www.w3.org/2000/svg" id="file-file-plus">
    <path d="M20 8.94a1.307 1.307 0 0 0-.06-.27v-.09a1.07 1.07 0 0 0-.19-.28l-6-6a1.071 1.071 0 0 0-.28-.19.32.32 0 0 0-.09 0 .88.88 0 0 0-.33-.11H7a3 3 0 0 0-3 3v14a3 3 0 0 0 3 3h10a3 3 0 0 0 3-3V8.94zm-6-3.53L16.59 8H15a1 1 0 0 1-1-1V5.41zM18 19a1 1 0 0 1-1 1H7a1 1 0 0 1-1-1V5a1 1 0 0 1 1-1h5v3a3 3 0 0 0 3 3h3v9zm-4-5h-1v-1a1 1 0 0 0-2 0v1h-1a1 1 0 0 0 0 2h1v1a1 1 0 0 0 2 0v-1h1a1 1 0 0 0 0-2z" fill="currentColor"></path>
  </symbol>
  <symbol viewBox="0 0 24 24" fill="none" xmlns="http://www.w3.org/2000/svg" id="file-file-question-alt">
    <path d="M13.07 12h-5a1 1 0 0 0 0 2h5a1 1 0 0 0 0-2zm1 8h-8a1 1 0 0 1-1-1V5a1 1 0 0 1 1-1h5v3a3 3 0 0 0 3 3h3v1a1 1 0 0 0 2 0V9a.141.141 0 0 0 0-.06.86.86 0 0 0-.07-.27v-.09a1.07 1.07 0 0 0-.19-.28l-6-6a1 1 0 0 0-.29-.19h-.08a.88.88 0 0 0-.32-.11h-6a3 3 0 0 0-3 3v14a3 3 0 0 0 3 3h8a1 1 0 0 0 0-2h-.05zm-1-14.59L15.65 8h-1.58a1 1 0 0 1-1-1V5.41zm5.57 14.88a1.08 1.08 0 0 0-.51-.27 1 1 0 1 0 .51.27zM13.07 16h-5a1 1 0 0 0 0 2h5a1 1 0 0 0 0-2zm4.86-3a3 3 0 0 0-2.6 1.5 1.002 1.002 0 0 0 1.482 1.295.987.987 0 0 0 .258-.295 1 1 0 1 1 .86 1.5 1 1 0 0 0 0 2 3 3 0 0 0 0-6zm-9.86-3h1a1 1 0 1 0 0-2h-1a1 1 0 0 0 0 2z" fill="currentColor"></path>
  </symbol>
  <symbol viewBox="0 0 24 24" fill="none" xmlns="http://www.w3.org/2000/svg" id="file-file-question">
    <path d="M12.57 17.29a1 1 0 0 0-1.63.33 1.07 1.07 0 0 0 0 .76c.054.122.129.233.22.33a1 1 0 0 0 .32.21c.123.052.256.08.39.08a1 1 0 0 0 .92-1.38.91.91 0 0 0-.22-.33zM20 8.94a1.307 1.307 0 0 0-.06-.27v-.09a1.07 1.07 0 0 0-.19-.28l-6-6a1.071 1.071 0 0 0-.28-.19h-.09a.88.88 0 0 0-.33-.11H7a3 3 0 0 0-3 3v14a3 3 0 0 0 3 3h10a3 3 0 0 0 3-3V8.94zm-6-3.53L16.59 8H15a1 1 0 0 1-1-1V5.41zM18 19a1 1 0 0 1-1 1H7a1 1 0 0 1-1-1V5a1 1 0 0 1 1-1h5v3a3 3 0 0 0 3 3h3v9zm-6.13-9a3 3 0 0 0-2.6 1.5 1 1 0 1 0 1.73 1 1 1 0 0 1 1.577-.207A1 1 0 0 1 11.87 14a1 1 0 0 0 0 2 3 3 0 0 0 0-6z" fill="currentColor"></path>
  </symbol>
  <symbol viewBox="0 0 24 24" fill="none" xmlns="http://www.w3.org/2000/svg" id="file-file-redo-alt">
    <path d="M14 13a1 1 0 0 0-1-1H8a1 1 0 0 0 0 2h5a1 1 0 0 0 1-1zm-3 7H6a1 1 0 0 1-1-1V5a1 1 0 0 1 1-1h5v3a3 3 0 0 0 3 3h3v1a1 1 0 0 0 2 0V8.94a1.178 1.178 0 0 0-.06-.27v-.09a.92.92 0 0 0-.19-.28l-6-6a1.071 1.071 0 0 0-.28-.19h-.09a.86.86 0 0 0-.32-.11H6a3 3 0 0 0-3 3v14a3 3 0 0 0 3 3h5a1 1 0 0 0 0-2zm2-14.59L15.59 8H14a1 1 0 0 1-1-1V5.41zM20 14a1 1 0 0 0-.91.6A4.07 4.07 0 0 0 17 14a4 4 0 1 0 2.64 7 1.003 1.003 0 0 0-1.32-1.51A2 2 0 0 1 17 20a2.001 2.001 0 1 1 1-3.75h-.22a1 1 0 0 0 0 2H20a1 1 0 0 0 1-1V15a1 1 0 0 0-1-1zM8 10h1a1 1 0 0 0 0-2H8a1 1 0 0 0 0 2zm0 6a1 1 0 0 0 0 2h2a1 1 0 0 0 0-2H8z" fill="currentColor"></path>
  </symbol>
  <symbol viewBox="0 0 24 24" fill="none" xmlns="http://www.w3.org/2000/svg" id="file-file-search-alt">
    <path d="M12 20H5a1 1 0 0 1-1-1V5a1 1 0 0 1 1-1h5v3a3 3 0 0 0 3 3h3v1a1 1 0 0 0 2 0V8.94a1.307 1.307 0 0 0-.06-.27v-.09a1.07 1.07 0 0 0-.19-.28l-6-6a1.071 1.071 0 0 0-.28-.19.32.32 0 0 0-.09 0 .88.88 0 0 0-.33-.11H5a3 3 0 0 0-3 3v14a3 3 0 0 0 3 3h7a1 1 0 0 0 0-2zm0-14.59L14.59 8H13a1 1 0 0 1-1-1V5.41zM7 8a1 1 0 0 0 0 2h1a1 1 0 0 0 0-2H7zm14.71 12.29l-1.17-1.16A3.44 3.44 0 0 0 20 15a3.49 3.49 0 0 0-6 2.49 3.46 3.46 0 0 0 5.13 3.05l1.16 1.17a1.002 1.002 0 0 0 1.639-.325 1 1 0 0 0-.219-1.095zm-3.17-1.75a1.54 1.54 0 0 1-2.11 0 1.5 1.5 0 0 1 .01-2.11 1.48 1.48 0 0 1 1-.43A1.472 1.472 0 0 1 19 17.49a1.5 1.5 0 0 1-.46 1.05zM13 12H7a1 1 0 0 0 0 2h6a1 1 0 0 0 0-2zm-2 6a1 1 0 0 0 0-2H7a1 1 0 0 0 0 2h4z" fill="currentColor"></path>
  </symbol>
  <symbol viewBox="0 0 24 24" fill="none" xmlns="http://www.w3.org/2000/svg" id="file-file-share-alt">
    <path d="M13.5 12.5a1 1 0 0 0-1-1h-5a1 1 0 0 0 0 2h5a1 1 0 0 0 1-1zm5 5a2 2 0 0 0-1.18.39l-1.75-.8 1.91-.88c.302.183.647.283 1 .29a2 2 0 1 0-2-2l-1.89.87A2 2 0 1 0 13.5 19c.322 0 .639-.082.92-.24l2.1 1a2 2 0 1 0 2-2.23l-.02-.03zm-8 2h-5a1 1 0 0 1-1-1v-14a1 1 0 0 1 1-1h5v3a3 3 0 0 0 3 3h3a1 1 0 0 0 2 0V8.44a1.307 1.307 0 0 0-.06-.27v-.09a1.07 1.07 0 0 0-.19-.28l-6-6a1.071 1.071 0 0 0-.28-.19.29.29 0 0 0-.1 0 1.1 1.1 0 0 0-.26-.06H5.5a3 3 0 0 0-3 3v14a3 3 0 0 0 3 3h5a1 1 0 1 0 0-2v-.05zm2-14.59l2.59 2.59H13.5a1 1 0 0 1-1-1V4.91zm-5 10.59a1 1 0 0 0 0 2h1a1 1 0 1 0 0-2h-1zm0-6h1a1 1 0 0 0 0-2h-1a1 1 0 0 0 0 2z" fill="currentColor"></path>
  </symbol>
  <symbol viewBox="0 0 24 24" fill="none" xmlns="http://www.w3.org/2000/svg" id="file-file-shield-alt">
    <path d="M10.5 20h-5a1 1 0 0 1-1-1V5a1 1 0 0 1 1-1h5v3a3 3 0 0 0 3 3h3a1 1 0 0 0 2 0V8.94a1.307 1.307 0 0 0-.06-.27v-.09a1.07 1.07 0 0 0-.19-.28l-6-6a1.071 1.071 0 0 0-.28-.19.32.32 0 0 0-.09 0L11.56 2H5.5a3 3 0 0 0-3 3v14a3 3 0 0 0 3 3h5a1 1 0 0 0 0-2zm2-14.59L15.09 8H13.5a1 1 0 0 1-1-1V5.41zM7.5 8a1 1 0 0 0 0 2h1a1 1 0 0 0 0-2h-1zm13.63 5.86a1 1 0 0 0-.84-.2 2.77 2.77 0 0 1-2.2-.47 1 1 0 0 0-1.18 0 2.781 2.781 0 0 1-2.2.47 1 1 0 0 0-1.21 1V17a4.6 4.6 0 0 0 1.84 3.69l1.56 1.11a1 1 0 0 0 1.2 0l1.56-1.16A4.6 4.6 0 0 0 21.5 17v-2.37a1.001 1.001 0 0 0-.37-.77zM19.5 17a2.62 2.62 0 0 1-1 2.09l-1 .72-1-.72a2.62 2.62 0 0 1-1-2.09v-1.28a4.68 4.68 0 0 0 2-.55c.617.33 1.3.519 2 .55V17zm-9-.95h-3a1 1 0 0 0 0 2h3a1 1 0 0 0 0-2zm1-4h-4a1 1 0 0 0 0 2h4a1 1 0 0 0 0-2z" fill="currentColor"></path>
  </symbol>
  <symbol viewBox="0 0 24 24" fill="none" xmlns="http://www.w3.org/2000/svg" id="file-file-slash">
    <path d="M21.71 20.29l-18-18a1.004 1.004 0 0 0-1.42 1.42L4 5.41V19a3 3 0 0 0 3 3h10a3 3 0 0 0 2.39-1.2l.9.91a.999.999 0 0 0 1.42 0 1 1 0 0 0 0-1.42zM17 20H7a1 1 0 0 1-1-1V7.41l11.93 11.93A1 1 0 0 1 17 20zM8.66 4H12v3a3 3 0 0 0 3 3h3v3.34a1 1 0 1 0 2 0v-4.4a1.307 1.307 0 0 0-.06-.27v-.09a1.07 1.07 0 0 0-.19-.28l-6-6a1.071 1.071 0 0 0-.28-.19h-.09L13.06 2h-4.4a1 1 0 0 0 0 2zM14 5.41L16.59 8H15a1 1 0 0 1-1-1V5.41z" fill="currentColor"></path>
  </symbol>
  <symbol viewBox="0 0 24 24" fill="none" xmlns="http://www.w3.org/2000/svg" id="file-file-times-alt">
    <path d="M14 12H8a1 1 0 0 0 0 2h6a1 1 0 0 0 0-2zm5.41 7l1.3-1.29a1.004 1.004 0 1 0-1.42-1.42L18 17.59l-1.29-1.3a1.004 1.004 0 1 0-1.42 1.42l1.3 1.29-1.3 1.29a1.002 1.002 0 0 0 .325 1.639 1 1 0 0 0 1.095-.219l1.29-1.3 1.29 1.3a1.002 1.002 0 0 0 1.639-.325 1 1 0 0 0-.219-1.095L19.41 19zM12 20H6a1 1 0 0 1-1-1V5a1 1 0 0 1 1-1h5v3a3 3 0 0 0 3 3h3v3a1 1 0 0 0 2 0V8.94a1.307 1.307 0 0 0-.06-.27v-.09a1.07 1.07 0 0 0-.19-.28l-6-6a1.071 1.071 0 0 0-.28-.19.29.29 0 0 0-.1 0 1.099 1.099 0 0 0-.31-.11H6a3 3 0 0 0-3 3v14a3 3 0 0 0 3 3h6a1 1 0 0 0 0-2zm1-14.59L15.59 8H14a1 1 0 0 1-1-1V5.41zM8 8a1 1 0 0 0 0 2h1a1 1 0 0 0 0-2H8zm4 8H8a1 1 0 0 0 0 2h4a1 1 0 0 0 0-2z" fill="currentColor"></path>
  </symbol>
  <symbol viewBox="0 0 24 24" fill="none" xmlns="http://www.w3.org/2000/svg" id="file-file-times">
    <path d="M14.71 12.29a1.002 1.002 0 0 0-1.42 0L12 13.59l-1.29-1.3a1.004 1.004 0 1 0-1.42 1.42l1.3 1.29-1.3 1.29a1 1 0 0 0 .325 1.639 1 1 0 0 0 1.095-.219l1.29-1.3 1.29 1.3a1.002 1.002 0 0 0 1.639-.325 1 1 0 0 0-.219-1.095L13.41 15l1.3-1.29a1.002 1.002 0 0 0 0-1.42zM20 8.94a1.307 1.307 0 0 0-.06-.27v-.09a1.07 1.07 0 0 0-.19-.28l-6-6a1.071 1.071 0 0 0-.28-.19h-.1a1.099 1.099 0 0 0-.31-.11H7a3 3 0 0 0-3 3v14a3 3 0 0 0 3 3h10a3 3 0 0 0 3-3V8.94zm-6-3.53L16.59 8H15a1 1 0 0 1-1-1V5.41zM18 19a1 1 0 0 1-1 1H7a1 1 0 0 1-1-1V5a1 1 0 0 1 1-1h5v3a3 3 0 0 0 3 3h3v9z" fill="currentColor"></path>
  </symbol>
  <symbol viewBox="0 0 24 24" fill="none" xmlns="http://www.w3.org/2000/svg" id="file-file-upload-alt">
    <path d="M13 20H6a1 1 0 0 1-1-1V5a1 1 0 0 1 1-1h5v3a3 3 0 0 0 3 3h3v2a1 1 0 0 0 2 0V8.94a1.307 1.307 0 0 0-.06-.27v-.09a1.07 1.07 0 0 0-.19-.28l-6-6a1.071 1.071 0 0 0-.28-.19.32.32 0 0 0-.09 0 .88.88 0 0 0-.33-.11H6a3 3 0 0 0-3 3v14a3 3 0 0 0 3 3h7a1 1 0 0 0 0-2zm0-14.59L15.59 8H14a1 1 0 0 1-1-1V5.41zM8 8a1 1 0 0 0 0 2h1a1 1 0 0 0 0-2H8zm6 4H8a1 1 0 0 0 0 2h6a1 1 0 0 0 0-2zm6.71 5.29l-2-2a1 1 0 0 0-.33-.21 1 1 0 0 0-.76 0 1 1 0 0 0-.33.21l-2 2a1.004 1.004 0 1 0 1.42 1.42l.29-.3V21a1 1 0 0 0 2 0v-2.59l.29.3a1.002 1.002 0 0 0 1.639-.325 1 1 0 0 0-.219-1.095zM12 18a1 1 0 0 0 0-2H8a1 1 0 0 0 0 2h4z" fill="currentColor"></path>
  </symbol>
  <symbol viewBox="0 0 24 24" fill="none" xmlns="http://www.w3.org/2000/svg" id="file-file-upload">
    <path d="M12.71 11.29a1 1 0 0 0-.33-.21 1 1 0 0 0-.76 0 1 1 0 0 0-.33.21l-2 2a1.004 1.004 0 0 0 1.42 1.42l.29-.3V17a1 1 0 0 0 2 0v-2.59l.29.3a1.002 1.002 0 0 0 1.639-.325 1 1 0 0 0-.219-1.095l-2-2zM20 8.94a1.307 1.307 0 0 0-.06-.27v-.09a1.07 1.07 0 0 0-.19-.28l-6-6a1.071 1.071 0 0 0-.28-.19h-.1a1.099 1.099 0 0 0-.31-.11H7a3 3 0 0 0-3 3v14a3 3 0 0 0 3 3h10a3 3 0 0 0 3-3V8.94zm-6-3.53L16.59 8H15a1 1 0 0 1-1-1V5.41zM18 19a1 1 0 0 1-1 1H7a1 1 0 0 1-1-1V5a1 1 0 0 1 1-1h5v3a3 3 0 0 0 3 3h3v9z" fill="currentColor"></path>
  </symbol>
  <symbol viewBox="0 0 24 24" fill="none" xmlns="http://www.w3.org/2000/svg" id="file-file">
    <path d="M20 8.94a1.307 1.307 0 0 0-.06-.27v-.09a1.07 1.07 0 0 0-.19-.28l-6-6a1.071 1.071 0 0 0-.28-.19h-.09L13.06 2H7a3 3 0 0 0-3 3v14a3 3 0 0 0 3 3h10a3 3 0 0 0 3-3V8.94zm-6-3.53L16.59 8H14V5.41zM18 19a1 1 0 0 1-1 1H7a1 1 0 0 1-1-1V5a1 1 0 0 1 1-1h5v5a1 1 0 0 0 1 1h5v9z" fill="currentColor"></path>
  </symbol>
  <symbol viewBox="0 0 24 24" fill="none" xmlns="http://www.w3.org/2000/svg" id="file-files-landscapes-alt">
    <path d="M18 19H6a3 3 0 0 1-3-3V8a1 1 0 0 0-2 0v8a5 5 0 0 0 5 5h12a1 1 0 0 0 0-2zm-4-8h-4a1 1 0 0 0 0 2h4a1 1 0 0 0 0-2zm9-1.06a1.307 1.307 0 0 0-.06-.27v-.09a1.07 1.07 0 0 0-.19-.28l-6-6a1.071 1.071 0 0 0-.28-.19h-.09a.88.88 0 0 0-.33-.11H8a3 3 0 0 0-3 3v8a3 3 0 0 0 3 3h12a3 3 0 0 0 3-3V9.94zm-6-3.53L19.59 9H18a1 1 0 0 1-1-1V6.41zM21 14a1 1 0 0 1-1 1H8a1 1 0 0 1-1-1V6a1 1 0 0 1 1-1h7v3a3 3 0 0 0 3 3h3v3zM10 9h2a1 1 0 1 0 0-2h-2a1 1 0 0 0 0 2z" fill="currentColor"></path>
  </symbol>
  <symbol viewBox="0 0 24 24" fill="none" xmlns="http://www.w3.org/2000/svg" id="file-files-landscapes">
    <path d="M23 9.94a1.307 1.307 0 0 0-.06-.27v-.09a1.07 1.07 0 0 0-.19-.28l-6-6a1.071 1.071 0 0 0-.28-.19h-.09a.88.88 0 0 0-.33-.11H8a3 3 0 0 0-3 3v1H4a3 3 0 0 0-3 3v8a3 3 0 0 0 3 3h12a3 3 0 0 0 3-3v-1h1a3 3 0 0 0 3-3V9.94zm-6-3.53L19.59 9H18a1 1 0 0 1-1-1V6.41zM17 18a1 1 0 0 1-1 1H4a1 1 0 0 1-1-1v-8a1 1 0 0 1 1-1h1v5a3 3 0 0 0 3 3h9v1zm4-4a1 1 0 0 1-1 1H8a1 1 0 0 1-1-1V6a1 1 0 0 1 1-1h7v3a3 3 0 0 0 3 3h3v3z" fill="currentColor"></path>
  </symbol>
  <symbol viewBox="0 0 24 24" fill="none" xmlns="http://www.w3.org/2000/svg" id="file-folder-check">
    <path d="M14.29 10.79L11 14.09l-1.29-1.3a1.004 1.004 0 1 0-1.42 1.42l2 2a1.002 1.002 0 0 0 1.42 0l4-4a1.004 1.004 0 1 0-1.42-1.42zM19 5.5h-6.28l-.32-1a3 3 0 0 0-2.84-2H5a3 3 0 0 0-3 3v13a3 3 0 0 0 3 3h14a3 3 0 0 0 3-3v-10a3 3 0 0 0-3-3zm1 13a1 1 0 0 1-1 1H5a1 1 0 0 1-1-1v-13a1 1 0 0 1 1-1h4.56a1 1 0 0 1 .95.68l.54 1.64a1 1 0 0 0 .95.68h7a1 1 0 0 1 1 1v10z" fill="currentColor"></path>
  </symbol>
  <symbol viewBox="0 0 24 24" fill="none" xmlns="http://www.w3.org/2000/svg" id="file-folder-download">
    <path d="M13.29 13.79l-.29.3V11.5a1 1 0 0 0-2 0v2.59l-.29-.3a1.004 1.004 0 1 0-1.42 1.42l2 2a.999.999 0 0 0 .33.21.94.94 0 0 0 .76 0 .999.999 0 0 0 .33-.21l2-2a1.004 1.004 0 1 0-1.42-1.42zM19 5.5h-6.28l-.32-1a3 3 0 0 0-2.84-2H5a3 3 0 0 0-3 3v13a3 3 0 0 0 3 3h14a3 3 0 0 0 3-3v-10a3 3 0 0 0-3-3zm1 13a1 1 0 0 1-1 1H5a1 1 0 0 1-1-1v-13a1 1 0 0 1 1-1h4.56a1 1 0 0 1 .95.68l.54 1.64a1 1 0 0 0 .95.68h7a1 1 0 0 1 1 1v10z" fill="currentColor"></path>
  </symbol>
  <symbol viewBox="0 0 24 24" fill="none" xmlns="http://www.w3.org/2000/svg" id="file-folder-exclamation">
    <path d="M12.92 16.12a.764.764 0 0 0-.09-.18 1.573 1.573 0 0 0-.12-.15l-.15-.12-.18-.09a1.002 1.002 0 0 0-1.09.21l-.12.15a.764.764 0 0 0-.09.18.64.64 0 0 0-.06.18 1.362 1.362 0 0 0 0 .2c.002.13.029.26.08.38.05.121.122.233.21.33a1 1 0 0 0 1.09.22c.12-.058.23-.132.33-.22.088-.1.162-.21.22-.33a1 1 0 0 0 .05-.38 1.362 1.362 0 0 0 0-.2.64.64 0 0 0-.08-.18zM12 10.5a1 1 0 0 0-1 1v2a1 1 0 0 0 2 0v-2a1 1 0 0 0-1-1zm7-5h-6.28l-.32-1a3 3 0 0 0-2.84-2H5a3 3 0 0 0-3 3v13a3 3 0 0 0 3 3h14a3 3 0 0 0 3-3v-10a3 3 0 0 0-3-3zm1 13a1 1 0 0 1-1 1H5a1 1 0 0 1-1-1v-13a1 1 0 0 1 1-1h4.56a1 1 0 0 1 .95.68l.54 1.64a1 1 0 0 0 .95.68h7a1 1 0 0 1 1 1v10z" fill="currentColor"></path>
  </symbol>
  <symbol viewBox="0 0 24 24" fill="none" xmlns="http://www.w3.org/2000/svg" id="file-folder-heart">
    <path d="M12 9.84a2.92 2.92 0 0 0-3.43 4.65l2.72 2.72a1.002 1.002 0 0 0 1.42 0l2.72-2.72A2.92 2.92 0 0 0 12 9.84zm2 3.23l-2 2-2-2a.92.92 0 0 1 1.3-1.3 1 1 0 0 0 1.42 0 .92.92 0 0 1 1.3 1.3H14zm5-7.57h-6.28l-.32-1a3 3 0 0 0-2.84-2H5a3 3 0 0 0-3 3v13a3 3 0 0 0 3 3h14a3 3 0 0 0 3-3v-10a3 3 0 0 0-3-3zm1 13a1 1 0 0 1-1 1H5a1 1 0 0 1-1-1v-13a1 1 0 0 1 1-1h4.56a1 1 0 0 1 .95.68l.54 1.64a1 1 0 0 0 .95.68h7a1 1 0 0 1 1 1v10z" fill="currentColor"></path>
  </symbol>
  <symbol viewBox="0 0 24 24" fill="none" xmlns="http://www.w3.org/2000/svg" id="file-folder-info">
    <path d="M12 13.5a1 1 0 0 0-1 1v2a1 1 0 0 0 2 0v-2a1 1 0 0 0-1-1zm7-8h-6.28l-.32-1a3 3 0 0 0-2.84-2H5a3 3 0 0 0-3 3v13a3 3 0 0 0 3 3h14a3 3 0 0 0 3-3v-10a3 3 0 0 0-3-3zm1 13a1 1 0 0 1-1 1H5a1 1 0 0 1-1-1v-13a1 1 0 0 1 1-1h4.56a1 1 0 0 1 .95.68l.54 1.64a1 1 0 0 0 .95.68h7a1 1 0 0 1 1 1v10zm-7.29-7.71a1 1 0 0 0-1.09-.21.93.93 0 0 0-.33.21 1.05 1.05 0 0 0-.29.71 1 1 0 0 0 2 0 1.001 1.001 0 0 0-.08-.38.93.93 0 0 0-.21-.33z" fill="currentColor"></path>
  </symbol>
  <symbol viewBox="0 0 24 24" fill="none" xmlns="http://www.w3.org/2000/svg" id="file-folder-lock">
    <path d="M4 4h4.56a1 1 0 0 1 .95.68l.54 1.64A1 1 0 0 0 11 7h7a1 1 0 0 1 1 1 1 1 0 0 0 2 0 3 3 0 0 0-3-3h-6.28l-.32-1a3 3 0 0 0-2.84-2H4a3 3 0 0 0-3 3v13a3 3 0 0 0 3 3h6a1 1 0 1 0 0-2H4a1 1 0 0 1-1-1V5a1 1 0 0 1 1-1zm17 11.18V14a3 3 0 0 0-6 0v1.18A3 3 0 0 0 13 18v2a3 3 0 0 0 3 3h4a3 3 0 0 0 3-3v-2a3 3 0 0 0-2-2.82zM17 14a1 1 0 0 1 2 0v1h-2v-1zm4 6a1 1 0 0 1-1 1h-4a1 1 0 0 1-1-1v-2a1 1 0 0 1 1-1h4a1 1 0 0 1 1 1v2z" fill="currentColor"></path>
  </symbol>
  <symbol viewBox="0 0 24 24" fill="none" xmlns="http://www.w3.org/2000/svg" id="file-folder-medical">
    <path d="M14 12.5h-1v-1a1 1 0 0 0-2 0v1h-1a1 1 0 0 0 0 2h1v1a1 1 0 0 0 2 0v-1h1a1 1 0 1 0 0-2zm5-7h-6.28l-.32-1a3 3 0 0 0-2.84-2H5a3 3 0 0 0-3 3v13a3 3 0 0 0 3 3h14a3 3 0 0 0 3-3v-10a3 3 0 0 0-3-3zm1 13a1 1 0 0 1-1 1H5a1 1 0 0 1-1-1v-13a1 1 0 0 1 1-1h4.56a1 1 0 0 1 .95.68l.54 1.64a1 1 0 0 0 .95.68h7a1 1 0 0 1 1 1v10z" fill="currentColor"></path>
  </symbol>
  <symbol viewBox="0 0 24 24" fill="none" xmlns="http://www.w3.org/2000/svg" id="file-folder-minus">
    <path d="M14 12.5h-4a1 1 0 0 0 0 2h4a1 1 0 1 0 0-2zm5-7h-6.28l-.32-1a3 3 0 0 0-2.84-2H5a3 3 0 0 0-3 3v13a3 3 0 0 0 3 3h14a3 3 0 0 0 3-3v-10a3 3 0 0 0-3-3zm1 13a1 1 0 0 1-1 1H5a1 1 0 0 1-1-1v-13a1 1 0 0 1 1-1h4.56a1 1 0 0 1 .95.68l.54 1.64a1 1 0 0 0 .95.68h7a1 1 0 0 1 1 1v10z" fill="currentColor"></path>
  </symbol>
  <symbol viewBox="0 0 24 24" fill="none" xmlns="http://www.w3.org/2000/svg" id="file-folder-network">
    <path d="M21 18h-6.18A3 3 0 0 0 13 16.18V14h3.67A2.34 2.34 0 0 0 19 11.67V6.33A2.34 2.34 0 0 0 16.67 4h-4l-.13-.41A2.34 2.34 0 0 0 10.37 2h-3A2.34 2.34 0 0 0 5 4.33v7.34A2.34 2.34 0 0 0 7.33 14H11v2.18A3.002 3.002 0 0 0 9.18 18H3a1 1 0 0 0 0 2h6.18a3 3 0 0 0 5.64 0H21a1 1 0 1 0 0-2zM7.33 12a.33.33 0 0 1-.33-.33V4.33A.33.33 0 0 1 7.33 4h3a.33.33 0 0 1 .32.23l.36 1.09A1 1 0 0 0 12 6h4.67a.33.33 0 0 1 .33.33v5.34a.33.33 0 0 1-.33.33H7.33zM12 20a1 1 0 1 1 0-2 1 1 0 0 1 0 2z" fill="currentColor"></path>
  </symbol>
  <symbol viewBox="0 0 24 24" fill="none" xmlns="http://www.w3.org/2000/svg" id="file-folder-plus">
    <path d="M14 12.5h-1v-1a1 1 0 0 0-2 0v1h-1a1 1 0 0 0 0 2h1v1a1 1 0 0 0 2 0v-1h1a1 1 0 1 0 0-2zm5-7h-6.28l-.32-1a3 3 0 0 0-2.84-2H5a3 3 0 0 0-3 3v13a3 3 0 0 0 3 3h14a3 3 0 0 0 3-3v-10a3 3 0 0 0-3-3zm1 13a1 1 0 0 1-1 1H5a1 1 0 0 1-1-1v-13a1 1 0 0 1 1-1h4.56a1 1 0 0 1 .95.68l.54 1.64a1 1 0 0 0 .95.68h7a1 1 0 0 1 1 1v10z" fill="currentColor"></path>
  </symbol>
  <symbol viewBox="0 0 24 24" fill="none" xmlns="http://www.w3.org/2000/svg" id="file-folder-question">
    <path d="M12.57 16.3a.64.64 0 0 0-.15-.13l-.17-.09-.19-.08a1 1 0 0 0-.9.28 1 1 0 0 0-.22.32 1 1 0 0 0-.07.39 1 1 0 0 0 .29.7 1 1 0 0 0 .32.22 1 1 0 0 0 .39.07 1 1 0 0 0 .38-.07 1 1 0 0 0 .32-.22 1 1 0 0 0 .3-.7.986.986 0 0 0-.08-.39.87.87 0 0 0-.22-.3zm-.7-7.3a3 3 0 0 0-2.6 1.5 1 1 0 1 0 1.73 1 1 1 0 0 1 1.87.5 1 1 0 0 1-1 1 1 1 0 0 0 0 2 3 3 0 1 0 0-6zM19 5.5h-6.28l-.32-1a3 3 0 0 0-2.84-2H5a3 3 0 0 0-3 3v13a3 3 0 0 0 3 3h14a3 3 0 0 0 3-3v-10a3 3 0 0 0-3-3zm1 13a1 1 0 0 1-1 1H5a1 1 0 0 1-1-1v-13a1 1 0 0 1 1-1h4.56a1 1 0 0 1 .95.68l.54 1.64a1 1 0 0 0 .95.68h7a1 1 0 0 1 1 1v10z" fill="currentColor"></path>
  </symbol>
  <symbol viewBox="0 0 24 24" fill="none" xmlns="http://www.w3.org/2000/svg" id="file-folder-slash">
    <path d="M21.71 20.29l-1.6-1.6-16.4-16.4a1.004 1.004 0 1 0-1.42 1.42l1.4 1.39A3 3 0 0 0 3 7v11a3 3 0 0 0 3 3h12a2.999 2.999 0 0 0 1.29-.3l1 1a.999.999 0 0 0 1.42 0 1 1 0 0 0 0-1.41zM6 19a1 1 0 0 1-1-1V7a1 1 0 0 1 .12-.46L17.59 19H6zm4.62-13a1 1 0 0 1 .89.67l.54 1.64A1 1 0 0 0 13 9h5a1 1 0 0 1 1 1v4.34a1 1 0 1 0 2 0V10a3 3 0 0 0-3-3h-4.28l-.32-1a3 3 0 0 0-2.68-2 1.002 1.002 0 0 0-.1 2z" fill="currentColor"></path>
  </symbol>
  <symbol viewBox="0 0 24 24" fill="none" xmlns="http://www.w3.org/2000/svg" id="file-folder-times">
    <path d="M14.71 10.79a1.002 1.002 0 0 0-1.42 0L12 12.09l-1.29-1.3a1.004 1.004 0 1 0-1.42 1.42l1.3 1.29-1.3 1.29a1 1 0 0 0 .325 1.639 1 1 0 0 0 1.095-.219l1.29-1.3 1.29 1.3a1.002 1.002 0 0 0 1.639-.325 1 1 0 0 0-.219-1.095l-1.3-1.29 1.3-1.29a1 1 0 0 0 0-1.42zM19 5.5h-6.28l-.32-1a3 3 0 0 0-2.84-2H5a3 3 0 0 0-3 3v13a3 3 0 0 0 3 3h14a3 3 0 0 0 3-3v-10a3 3 0 0 0-3-3zm1 13a1 1 0 0 1-1 1H5a1 1 0 0 1-1-1v-13a1 1 0 0 1 1-1h4.56a1 1 0 0 1 .95.68l.54 1.64a1 1 0 0 0 .95.68h7a1 1 0 0 1 1 1v10z" fill="currentColor"></path>
  </symbol>
  <symbol viewBox="0 0 24 24" fill="none" xmlns="http://www.w3.org/2000/svg" id="file-folder-upload">
    <path d="M12.71 10.79a1 1 0 0 0-.33-.21 1 1 0 0 0-.76 0 1 1 0 0 0-.33.21l-2 2a1.004 1.004 0 0 0 1.42 1.42l.29-.3v2.59a1 1 0 0 0 2 0v-2.59l.29.3a1 1 0 0 0 1.42 0 1 1 0 0 0 0-1.42l-2-2zM19 5.5h-6.28l-.32-1a3 3 0 0 0-2.84-2H5a3 3 0 0 0-3 3v13a3 3 0 0 0 3 3h14a3 3 0 0 0 3-3v-10a3 3 0 0 0-3-3zm1 13a1 1 0 0 1-1 1H5a1 1 0 0 1-1-1v-13a1 1 0 0 1 1-1h4.56a1 1 0 0 1 .95.68l.54 1.64a1 1 0 0 0 .95.68h7a1 1 0 0 1 1 1v10z" fill="currentColor"></path>
  </symbol>
  <symbol viewBox="0 0 24 24" fill="none" xmlns="http://www.w3.org/2000/svg" id="file-folder">
    <path d="M19 5.5h-6.28l-.32-1a3 3 0 0 0-2.84-2H5a3 3 0 0 0-3 3v13a3 3 0 0 0 3 3h14a3 3 0 0 0 3-3v-10a3 3 0 0 0-3-3zm1 13a1 1 0 0 1-1 1H5a1 1 0 0 1-1-1v-13a1 1 0 0 1 1-1h4.56a1 1 0 0 1 .95.68l.54 1.64a1 1 0 0 0 .95.68h7a1 1 0 0 1 1 1v10z" fill="currentColor"></path>
  </symbol>
  <symbol viewBox="0 0 24 24" fill="none" xmlns="http://www.w3.org/2000/svg" id="file-clipboard-blank">
    <path d="M17 4h-1a2 2 0 0 0-2-2h-4a2 2 0 0 0-2 2H7a3 3 0 0 0-3 3v12a3 3 0 0 0 3 3h10a3 3 0 0 0 3-3V7a3 3 0 0 0-3-3zm-7 0h4v2h-4V4zm8 15a1 1 0 0 1-1 1H7a1 1 0 0 1-1-1V7a1 1 0 0 1 1-1h1a2 2 0 0 0 2 2h4a2 2 0 0 0 2-2h1a1 1 0 0 1 1 1v12z" fill="currentColor"></path>
  </symbol>
  <symbol viewBox="0 0 24 24" fill="none" xmlns="http://www.w3.org/2000/svg" id="file-clipboard-notes">
    <path d="M13 14H9a1 1 0 0 0 0 2h4a1 1 0 0 0 0-2zm4-10h-1.18A3 3 0 0 0 13 2h-2a3 3 0 0 0-2.82 2H7a3 3 0 0 0-3 3v12a3 3 0 0 0 3 3h10a3 3 0 0 0 3-3V7a3 3 0 0 0-3-3zm-7 1a1 1 0 0 1 1-1h2a1 1 0 0 1 1 1v1h-4V5zm8 14a1 1 0 0 1-1 1H7a1 1 0 0 1-1-1V7a1 1 0 0 1 1-1h1v1a1 1 0 0 0 1 1h6a1 1 0 0 0 1-1V6h1a1 1 0 0 1 1 1v12zm-3-9H9a1 1 0 0 0 0 2h6a1 1 0 0 0 0-2z" fill="currentColor"></path>
  </symbol>
  <symbol viewBox="0 0 24 24" fill="none" xmlns="http://www.w3.org/2000/svg" id="file-clipboard">
    <path d="M17 4h-1.18A3 3 0 0 0 13 2h-2a3 3 0 0 0-2.82 2H7a3 3 0 0 0-3 3v12a3 3 0 0 0 3 3h10a3 3 0 0 0 3-3V7a3 3 0 0 0-3-3zm-7 1a1 1 0 0 1 1-1h2a1 1 0 0 1 1 1v1h-4V5zm8 14a1 1 0 0 1-1 1H7a1 1 0 0 1-1-1V7a1 1 0 0 1 1-1h1v1a1 1 0 0 0 1 1h6a1 1 0 0 0 1-1V6h1a1 1 0 0 1 1 1v12z" fill="currentColor"></path>
  </symbol>
  <symbol viewBox="0 0 24 24" fill="none" xmlns="http://www.w3.org/2000/svg" id="file-archive">
    <path d="M10 14h4a1 1 0 0 0 0-2h-4a1 1 0 0 0 0 2zm9-11H5a3 3 0 0 0-3 3v3a1 1 0 0 0 1 1h1v8a3 3 0 0 0 3 3h10a3 3 0 0 0 3-3v-8h1a1 1 0 0 0 1-1V6a3 3 0 0 0-3-3zm-1 15a1 1 0 0 1-1 1H7a1 1 0 0 1-1-1v-8h12v8zm2-10H4V6a1 1 0 0 1 1-1h14a1 1 0 0 1 1 1v2z" fill="currentColor"></path>
  </symbol>
  <symbol viewBox="0 0 24 24" fill="none" xmlns="http://www.w3.org/2000/svg" id="file-folder-alt">
    <path d="M19 5.50002H12.72L12.4 4.50002C12.1926 3.91325 11.8077 3.40553 11.2989 3.04718C10.7901 2.68884 10.1824 2.49762 9.56 2.50002H5C4.20435 2.50002 3.44129 2.81609 2.87868 3.3787C2.31607 3.94131 2 4.70437 2 5.50002V18.5C2 19.2957 2.31607 20.0587 2.87868 20.6213C3.44129 21.184 4.20435 21.5 5 21.5H19C19.7956 21.5 20.5587 21.184 21.1213 20.6213C21.6839 20.0587 22 19.2957 22 18.5V8.50002C22 7.70437 21.6839 6.94131 21.1213 6.3787C20.5587 5.81609 19.7956 5.50002 19 5.50002Z" fill="currentColor" />
  </symbol>
</svg>