<svg width="0" height="0" class="hidden">
  <symbol viewBox="0 0 24 24" fill="none" xmlns="http://www.w3.org/2000/svg" id="interface-user-check">
    <path d="M13.3 12.22A4.92 4.92 0 0 0 15 8.5a5 5 0 0 0-10 0 4.92 4.92 0 0 0 1.7 3.72A8 8 0 0 0 2 19.5a1 1 0 1 0 2 0 6 6 0 1 1 12 0 1 1 0 0 0 2 0 8 8 0 0 0-4.7-7.28zM10 11.5a3 3 0 1 1 0-6 3 3 0 0 1 0 6zm11.71-2.37a1 1 0 0 0-1.42 0l-2 2-.62-.63a1.002 1.002 0 0 0-1.71.705 1 1 0 0 0 .29.705l1.34 1.34a1 1 0 0 0 1.41 0l2.67-2.67a1 1 0 0 0 .04-1.45z" fill="currentColor"></path>
  </symbol>
  <symbol viewBox="0 0 24 24" fill="none" xmlns="http://www.w3.org/2000/svg" id="interface-user-circle">
    <path d="M12 2a10 10 0 0 0-7.35 16.76 10.001 10.001 0 0 0 14.7 0A10 10 0 0 0 12 2zm0 18a8 8 0 0 1-5.55-2.25 6 6 0 0 1 11.1 0A8 8 0 0 1 12 20zm-2-10a2 2 0 1 1 4 0 2 2 0 0 1-4 0zm8.91 6A8 8 0 0 0 15 12.62a4 4 0 1 0-6 0A8 8 0 0 0 5.09 16 7.92 7.92 0 0 1 4 12a8 8 0 0 1 16 0 7.92 7.92 0 0 1-1.09 4z" fill="currentColor"></path>
  </symbol>
  <symbol viewBox="0 0 24 24" fill="none" xmlns="http://www.w3.org/2000/svg" id="interface-user-exclamation">
    <path d="M14.55 12.22a4.92 4.92 0 0 0 1.7-3.72 5 5 0 0 0-10 0A4.92 4.92 0 0 0 8 12.22a8 8 0 0 0-4.7 7.28 1 1 0 1 0 2 0 6 6 0 1 1 12 0 1 1 0 0 0 2 0 8 8 0 0 0-4.75-7.28zm-3.3-.72a3 3 0 1 1 0-6 3 3 0 0 1 0 6zm8.5-5a1 1 0 0 0-1 1v2a1 1 0 0 0 2 0v-2a1 1 0 0 0-1-1zM19 11.79a1.05 1.05 0 0 0-.29.71 1 1 0 0 0 .29.71c.097.088.209.16.33.21a.94.94 0 0 0 .76 0 .9.9 0 0 0 .54-.54.84.84 0 0 0 .08-.38 1 1 0 0 0-1.71-.71z" fill="currentColor"></path>
  </symbol>
  <symbol viewBox="0 0 24 24" fill="none" xmlns="http://www.w3.org/2000/svg" id="interface-user-minus">
    <path d="M21 10.5h-4a1 1 0 0 0 0 2h4a1 1 0 0 0 0-2zm-7.7 1.72A4.92 4.92 0 0 0 15 8.5a5 5 0 0 0-10 0 4.92 4.92 0 0 0 1.7 3.72A8 8 0 0 0 2 19.5a1 1 0 1 0 2 0 6 6 0 1 1 12 0 1 1 0 0 0 2 0 8 8 0 0 0-4.7-7.28zM10 11.5a3 3 0 1 1 0-6 3 3 0 0 1 0 6z" fill="currentColor"></path>
  </symbol>
  <symbol viewBox="0 0 24 24" fill="none" xmlns="http://www.w3.org/2000/svg" id="interface-user-plus">
    <path d="M14.81 12.28a3.73 3.73 0 0 0 1-2.5 3.78 3.78 0 1 0-7.56 0 3.73 3.73 0 0 0 1 2.5A5.94 5.94 0 0 0 6 16.89a1.006 1.006 0 1 0 2 .22 4 4 0 0 1 7.94 0A1 1 0 0 0 17 18h.11a1 1 0 0 0 .88-1.1 5.94 5.94 0 0 0-3.18-4.62zM12 11.56A1.78 1.78 0 1 1 12 8a1.78 1.78 0 0 1 0 3.56zM19 2H5a3 3 0 0 0-3 3v14a3 3 0 0 0 3 3h14a3 3 0 0 0 3-3V5a3 3 0 0 0-3-3zm1 17a1 1 0 0 1-1 1H5a1 1 0 0 1-1-1V5a1 1 0 0 1 1-1h14a1 1 0 0 1 1 1v14z" fill="currentColor"></path>
  </symbol>
  <symbol viewBox="0 0 24 24" fill="none" xmlns="http://www.w3.org/2000/svg" id="interface-user-square">
    <path d="M21 10.5h-1v-1a1 1 0 0 0-2 0v1h-1a1 1 0 0 0 0 2h1v1a1 1 0 0 0 2 0v-1h1a1 1 0 0 0 0-2zm-7.7 1.72A4.92 4.92 0 0 0 15 8.5a5 5 0 0 0-10 0 4.92 4.92 0 0 0 1.7 3.72A8 8 0 0 0 2 19.5a1 1 0 1 0 2 0 6 6 0 1 1 12 0 1 1 0 0 0 2 0 8 8 0 0 0-4.7-7.28zM10 11.5a3 3 0 1 1 0-6 3 3 0 0 1 0 6z" fill="currentColor"></path>
  </symbol>
  <symbol viewBox="0 0 24 24" fill="none" xmlns="http://www.w3.org/2000/svg" id="interface-user-times">
    <path d="M13.3 12.22A4.92 4.92 0 0 0 15 8.5a5 5 0 0 0-10 0 4.92 4.92 0 0 0 1.7 3.72A8 8 0 0 0 2 19.5a1 1 0 1 0 2 0 6 6 0 1 1 12 0 1 1 0 0 0 2 0 8 8 0 0 0-4.7-7.28zM10 11.5a3 3 0 1 1 0-6 3 3 0 0 1 0 6zm10.91.5l.8-.79a1.004 1.004 0 0 0-1.42-1.42l-.79.8-.79-.8a1.003 1.003 0 1 0-1.42 1.42l.8.79-.8.79a1.002 1.002 0 0 0 .325 1.639 1 1 0 0 0 1.095-.219l.79-.8.79.8a1.002 1.002 0 0 0 1.639-.325 1 1 0 0 0-.219-1.095l-.8-.79z" fill="currentColor"></path>
  </symbol>
  <symbol viewBox="0 0 24 24" fill="none" xmlns="http://www.w3.org/2000/svg" id="interface-user">
    <path d="M15.71 12.71a6 6 0 1 0-7.42 0 10 10 0 0 0-6.22 8.18 1.006 1.006 0 1 0 2 .22 8 8 0 0 1 15.9 0 1 1 0 0 0 1 .89h.11a1 1 0 0 0 .88-1.1 10 10 0 0 0-6.25-8.19zM12 12a4 4 0 1 1 0-8 4 4 0 0 1 0 8z" fill="currentColor"></path>
  </symbol>
  <symbol viewBox="0 0 24 24" fill="none" xmlns="http://www.w3.org/2000/svg" id="interface-users-alt">
    <path d="M12.3 12.22A4.92 4.92 0 0 0 14 8.5a5 5 0 0 0-10 0 4.92 4.92 0 0 0 1.7 3.72A8 8 0 0 0 1 19.5a1 1 0 1 0 2 0 6 6 0 1 1 12 0 1 1 0 0 0 2 0 8 8 0 0 0-4.7-7.28zM9 11.5a3 3 0 1 1 0-6 3 3 0 0 1 0 6zm9.74.32A5 5 0 0 0 15 3.5a1 1 0 1 0 0 2 3 3 0 0 1 3 3 3 3 0 0 1-1.5 2.59 1 1 0 0 0-.05 1.7l.39.26.13.07a7 7 0 0 1 4 6.38 1 1 0 0 0 2 0 9 9 0 0 0-4.23-7.68z" fill="currentColor"></path>
  </symbol>
  <symbol viewBox="0 0 24 24" fill="none" xmlns="http://www.w3.org/2000/svg" id="interface-users-arrows">
    <path d="M20.6403 15.7718C21.1913 15.1429 21.4966 14.3361 21.5 13.5C21.5 12.5717 21.1313 11.6815 20.4749 11.0251C19.8185 10.3687 18.9283 9.99999 18 9.99999C17.0717 9.99999 16.1815 10.3687 15.5251 11.0251C14.8687 11.6815 14.5 12.5717 14.5 13.5C14.5034 14.3361 14.8087 15.1429 15.3597 15.7718C14.6397 16.2182 14.0453 16.8406 13.6324 17.5804C13.2196 18.3201 13.0019 19.1528 13 20C13 20.2652 13.1054 20.5196 13.2929 20.7071C13.4804 20.8946 13.7348 21 14 21C14.2652 21 14.5196 20.8946 14.7071 20.7071C14.8946 20.5196 15 20.2652 15 20C15 19.2043 15.3161 18.4413 15.8787 17.8787C16.4413 17.3161 17.2044 17 18 17C18.7956 17 19.5587 17.3161 20.1213 17.8787C20.6839 18.4413 21 19.2043 21 20C21 20.2652 21.1054 20.5196 21.2929 20.7071C21.4804 20.8946 21.7348 21 22 21C22.2652 21 22.5196 20.8946 22.7071 20.7071C22.8946 20.5196 23 20.2652 23 20C22.9981 19.1528 22.7804 18.3201 22.3676 17.5804C21.9547 16.8406 21.3603 16.2182 20.6403 15.7718ZM18 15C17.7033 15 17.4133 14.912 17.1666 14.7472C16.92 14.5824 16.7277 14.3481 16.6142 14.074C16.5007 13.7999 16.4709 13.4983 16.5288 13.2074C16.5867 12.9164 16.7296 12.6491 16.9393 12.4393C17.1491 12.2295 17.4164 12.0867 17.7074 12.0288C17.9983 11.9709 18.2999 12.0006 18.574 12.1142C18.8481 12.2277 19.0824 12.42 19.2472 12.6666C19.412 12.9133 19.5 13.2033 19.5 13.5C19.4996 13.8977 19.3414 14.279 19.0602 14.5602C18.779 14.8414 18.3977 14.9996 18 15ZM6.79327 7.70733L8.793 9.70699C8.98109 9.8917 9.23451 9.99466 9.49812 9.99346C9.76174 9.99227 10.0142 9.88702 10.2006 9.70061C10.387 9.51421 10.4923 9.26173 10.4935 8.99811C10.4947 8.7345 10.3917 8.48107 10.207 8.29299L9.91406 7.99999H14.0859L13.7929 8.29299C13.6991 8.38562 13.6246 8.4959 13.5736 8.61746C13.5225 8.73902 13.496 8.86948 13.4956 9.00131C13.4952 9.13315 13.5209 9.26376 13.5711 9.38564C13.6214 9.50752 13.6953 9.61826 13.7885 9.71148C13.8817 9.8047 13.9925 9.87857 14.1144 9.92882C14.2362 9.97908 14.3669 10.0047 14.4987 10.0043C14.6305 10.0039 14.761 9.97742 14.8825 9.92639C15.0041 9.87536 15.1144 9.8008 15.207 9.70699L17.2067 7.7073C17.3935 7.51929 17.4984 7.265 17.4984 6.99996C17.4984 6.73491 17.3935 6.48063 17.2067 6.29262L15.207 4.29299C15.0189 4.10828 14.7655 4.00532 14.5019 4.00651C14.2383 4.00771 13.9858 4.11296 13.7994 4.29936C13.613 4.48577 13.5077 4.73825 13.5065 5.00186C13.5053 5.26548 13.6083 5.5189 13.793 5.70699L14.086 5.99999H9.91406L10.2071 5.70699C10.3926 5.51907 10.4963 5.26537 10.4955 5.00127C10.4946 4.73717 10.3893 4.48413 10.2026 4.29739C10.0158 4.11065 9.7628 4.00538 9.49871 4.00455C9.23461 4.00373 8.98091 4.10742 8.793 4.29299L6.79327 6.29265C6.60645 6.48066 6.5016 6.73494 6.5016 6.99999C6.5016 7.26503 6.60645 7.51932 6.79327 7.70733ZM8.64027 15.7718C9.19131 15.1429 9.49662 14.3361 9.5 13.5C9.5 12.5717 9.13125 11.6815 8.47487 11.0251C7.8185 10.3687 6.92826 9.99999 6 9.99999C5.07174 9.99999 4.1815 10.3687 3.52513 11.0251C2.86875 11.6815 2.5 12.5717 2.5 13.5C2.50338 14.3361 2.8087 15.1429 3.35974 15.7718C2.63973 16.2182 2.04527 16.8406 1.63242 17.5804C1.21957 18.3201 1.00192 19.1528 1 20C1 20.2652 1.10536 20.5196 1.29289 20.7071C1.48043 20.8946 1.73478 21 2 21C2.26522 21 2.51957 20.8946 2.70711 20.7071C2.89464 20.5196 3 20.2652 3 20C3 19.2043 3.31607 18.4413 3.87868 17.8787C4.44129 17.3161 5.20435 17 6 17C6.79565 17 7.55871 17.3161 8.12132 17.8787C8.68393 18.4413 9 19.2043 9 20C9 20.2652 9.10536 20.5196 9.29289 20.7071C9.48043 20.8946 9.73478 21 10 21C10.2652 21 10.5196 20.8946 10.7071 20.7071C10.8946 20.5196 11 20.2652 11 20C10.9981 19.1528 10.7804 18.3201 10.3676 17.5804C9.95473 16.8406 9.36027 16.2182 8.64026 15.7718H8.64027ZM6 15C5.70333 15 5.41332 14.912 5.16664 14.7472C4.91997 14.5824 4.72771 14.3481 4.61418 14.074C4.50065 13.7999 4.47094 13.4983 4.52882 13.2074C4.5867 12.9164 4.72956 12.6491 4.93934 12.4393C5.14912 12.2295 5.41639 12.0867 5.70736 12.0288C5.99834 11.9709 6.29994 12.0006 6.57403 12.1142C6.84811 12.2277 7.08238 12.42 7.2472 12.6666C7.41203 12.9133 7.5 13.2033 7.5 13.5C7.49957 13.8977 7.34139 14.279 7.06018 14.5602C6.77897 14.8414 6.39769 14.9996 6 15Z" fill="currentColor" />
  </symbol>
  <symbol viewBox="0 0 24 24" fill="none" xmlns="http://www.w3.org/2000/svg" id="interface-social-distancing">
    <path d="M8.5 17H5.91406L6.20706 16.707C6.39262 16.5191 6.4963 16.2654 6.49547 16.0013C6.49463 15.7372 6.38934 15.4841 6.20259 15.2974C6.01585 15.1107 5.7628 15.0054 5.49871 15.0046C5.23461 15.0037 4.98091 15.1074 4.793 15.293L2.7933 17.2927C2.60648 17.4807 2.50163 17.735 2.50163 18C2.50163 18.2651 2.60648 18.5194 2.7933 18.7074L4.793 20.707C4.98109 20.8917 5.23451 20.9947 5.49812 20.9935C5.76174 20.9923 6.01422 20.887 6.20063 20.7006C6.38703 20.5142 6.49228 20.2617 6.49348 19.9981C6.49467 19.7345 6.39171 19.4811 6.207 19.293L5.91406 19H8.5C8.76522 19 9.01957 18.8946 9.20711 18.7071C9.39464 18.5196 9.5 18.2652 9.5 18C9.5 17.7348 9.39464 17.4804 9.20711 17.2929C9.01957 17.1054 8.76522 17 8.5 17ZM21.2067 17.2927L19.207 15.293C19.0189 15.1083 18.7655 15.0053 18.5019 15.0065C18.2383 15.0077 17.9858 15.113 17.7994 15.2994C17.613 15.4858 17.5077 15.7383 17.5065 16.0019C17.5053 16.2655 17.6083 16.5189 17.793 16.707L18.086 17H15.5C15.2348 17 14.9804 17.1054 14.7929 17.2929C14.6054 17.4804 14.5 17.7348 14.5 18C14.5 18.2652 14.6054 18.5196 14.7929 18.7071C14.9804 18.8946 15.2348 19 15.5 19H18.0859L17.7929 19.293C17.6991 19.3856 17.6246 19.4959 17.5736 19.6175C17.5225 19.739 17.496 19.8695 17.4956 20.0013C17.4952 20.1332 17.5209 20.2638 17.5711 20.3857C17.6214 20.5075 17.6953 20.6183 17.7885 20.7115C17.8817 20.8047 17.9925 20.8786 18.1144 20.9288C18.2362 20.9791 18.3669 21.0048 18.4987 21.0043C18.6305 21.0039 18.761 20.9774 18.8825 20.9264C19.0041 20.8754 19.1144 20.8008 19.207 20.707L21.2067 18.7073C21.3935 18.5193 21.4984 18.265 21.4984 18C21.4984 17.7349 21.3935 17.4806 21.2067 17.2926L21.2067 17.2927ZM20.6403 9.77179C21.1913 9.14291 21.4966 8.33614 21.5 7.5C21.5 6.57174 21.1313 5.6815 20.4749 5.02513C19.8185 4.36875 18.9283 4 18 4C17.0717 4 16.1815 4.36875 15.5251 5.02513C14.8687 5.6815 14.5 6.57174 14.5 7.5C14.5034 8.33614 14.8087 9.14291 15.3597 9.77179C14.6397 10.2182 14.0453 10.8406 13.6324 11.5804C13.2196 12.3201 13.0019 13.1528 13 14C13 14.2652 13.1054 14.5196 13.2929 14.7071C13.4804 14.8946 13.7348 15 14 15C14.2652 15 14.5196 14.8946 14.7071 14.7071C14.8946 14.5196 15 14.2652 15 14C15 13.2044 15.3161 12.4413 15.8787 11.8787C16.4413 11.3161 17.2044 11 18 11C18.7956 11 19.5587 11.3161 20.1213 11.8787C20.6839 12.4413 21 13.2044 21 14C21 14.2652 21.1054 14.5196 21.2929 14.7071C21.4804 14.8946 21.7348 15 22 15C22.2652 15 22.5196 14.8946 22.7071 14.7071C22.8946 14.5196 23 14.2652 23 14C22.9981 13.1528 22.7804 12.3201 22.3676 11.5804C21.9547 10.8406 21.3603 10.2182 20.6403 9.77179ZM18 9C17.7033 9 17.4133 8.91203 17.1666 8.7472C16.92 8.58238 16.7277 8.34811 16.6142 8.07403C16.5007 7.79994 16.4709 7.49834 16.5288 7.20736C16.5867 6.91639 16.7296 6.64912 16.9393 6.43934C17.1491 6.22956 17.4164 6.0867 17.7074 6.02882C17.9983 5.97094 18.2999 6.00065 18.574 6.11418C18.8481 6.22771 19.0824 6.41997 19.2472 6.66664C19.412 6.91332 19.5 7.20333 19.5 7.5C19.4996 7.89769 19.3414 8.27897 19.0602 8.56018C18.779 8.84139 18.3977 8.99957 18 9ZM8.64026 9.77179C9.1913 9.14291 9.49662 8.33614 9.5 7.5C9.5 6.57174 9.13125 5.6815 8.47487 5.02513C7.8185 4.36875 6.92826 4 6 4C5.07174 4 4.1815 4.36875 3.52513 5.02513C2.86875 5.6815 2.5 6.57174 2.5 7.5C2.50338 8.33614 2.8087 9.14291 3.35974 9.77179C2.63973 10.2182 2.04527 10.8406 1.63242 11.5804C1.21957 12.3201 1.00192 13.1528 1 14C1 14.2652 1.10536 14.5196 1.29289 14.7071C1.48043 14.8946 1.73478 15 2 15C2.26522 15 2.51957 14.8946 2.70711 14.7071C2.89464 14.5196 3 14.2652 3 14C3 13.2044 3.31607 12.4413 3.87868 11.8787C4.44129 11.3161 5.20435 11 6 11C6.79565 11 7.55871 11.3161 8.12132 11.8787C8.68393 12.4413 9 13.2044 9 14C9 14.2652 9.10536 14.5196 9.29289 14.7071C9.48043 14.8946 9.73478 15 10 15C10.2652 15 10.5196 14.8946 10.7071 14.7071C10.8946 14.5196 11 14.2652 11 14C10.9981 13.1528 10.7804 12.3201 10.3676 11.5804C9.95473 10.8406 9.36027 10.2182 8.64026 9.77179ZM6 9C5.70333 9 5.41332 8.91203 5.16664 8.7472C4.91997 8.58238 4.72771 8.34811 4.61418 8.07403C4.50065 7.79994 4.47094 7.49834 4.52882 7.20736C4.5867 6.91639 4.72956 6.64912 4.93934 6.43934C5.14912 6.22956 5.41639 6.0867 5.70736 6.02882C5.99834 5.97094 6.29994 6.00065 6.57403 6.11418C6.84811 6.22771 7.08238 6.41997 7.2472 6.66664C7.41203 6.91332 7.5 7.20333 7.5 7.5C7.49957 7.89769 7.34139 8.27897 7.06018 8.56018C6.77897 8.84139 6.39769 8.99957 6 9Z" fill="currentColor" />
  </symbol>
  <symbol viewBox="0 0 24 24" fill="none" xmlns="http://www.w3.org/2000/svg" id="interface-chat-bubble-user">
    <path d="M14.58 11.3a3.24 3.24 0 0 0 .71-2 3.29 3.29 0 1 0-6.58 0 3.24 3.24 0 0 0 .71 2 5 5 0 0 0-2 2.31 1 1 0 1 0 1.84.78A3 3 0 0 1 12 12.57a3 3 0 0 1 2.75 1.82 1 1 0 1 0 1.84-.78 5 5 0 0 0-2.01-2.31zM12 10.57a1.29 1.29 0 1 1 0-2.58 1.29 1.29 0 0 1 0 2.58zM18 2H6a3 3 0 0 0-3 3v11a3 3 0 0 0 3 3h2.59l2.7 2.71A1 1 0 0 0 12 22a1 1 0 0 0 .65-.24L15.87 19H18a3 3 0 0 0 3-3V5a3 3 0 0 0-3-3zm1 14a1 1 0 0 1-1 1h-2.5a1 1 0 0 0-.65.24l-2.8 2.4-2.34-2.35A1 1 0 0 0 9 17H6a1 1 0 0 1-1-1V5a1 1 0 0 1 1-1h12a1 1 0 0 1 1 1v11z" fill="currentColor"></path>
  </symbol>
  <symbol viewBox="0 0 24 24" fill="none" xmlns="http://www.w3.org/2000/svg" id="interface-user-location">
    <path d="M14.49 10.86C14.8249 10.399 15.0258 9.85429 15.0705 9.2862C15.1152 8.71811 15.0019 8.14873 14.7432 7.641C14.4844 7.13328 14.0904 6.70698 13.6045 6.40925C13.1186 6.11151 12.5598 5.95394 11.99 5.95394C11.4202 5.95394 10.8614 6.11151 10.3755 6.40925C9.88965 6.70698 9.49557 7.13328 9.23685 7.641C8.97812 8.14873 8.86484 8.71811 8.90951 9.2862C8.95419 9.85429 9.15509 10.399 9.49 10.86C9.06518 11.1307 8.68696 11.4684 8.37 11.86C8.28727 11.967 8.22643 12.0893 8.19095 12.2198C8.15547 12.3504 8.14606 12.4866 8.16323 12.6208C8.18041 12.755 8.22385 12.8845 8.29107 13.0019C8.35829 13.1193 8.44798 13.2223 8.555 13.305C8.66203 13.3877 8.78431 13.4486 8.91485 13.4841C9.04539 13.5195 9.18164 13.529 9.31582 13.5118C9.45 13.4946 9.57948 13.4512 9.69687 13.3839C9.81427 13.3167 9.91727 13.227 10 13.12C10.2442 12.8096 10.5555 12.5584 10.9105 12.3852C11.2655 12.212 11.655 12.1214 12.05 12.12C12.445 12.1214 12.8345 12.212 13.1895 12.3852C13.5445 12.5584 13.8558 12.8096 14.1 13.12C14.1941 13.236 14.313 13.3295 14.448 13.3935C14.583 13.4575 14.7306 13.4905 14.88 13.49C15.0675 13.4891 15.2509 13.4356 15.4094 13.3355C15.5679 13.2354 15.6951 13.0927 15.7764 12.9238C15.8577 12.7549 15.8899 12.5666 15.8694 12.3802C15.8488 12.1939 15.7762 12.0171 15.66 11.87C15.3288 11.4707 14.9334 11.1293 14.49 10.86ZM12 10.13C11.7862 10.1299 11.5771 10.0668 11.3988 9.94872C11.2205 9.83063 11.0809 9.6627 10.9974 9.46585C10.9138 9.26899 10.89 9.05192 10.9289 8.84164C10.9679 8.63136 11.0678 8.43718 11.2162 8.28327C11.3647 8.12936 11.5552 8.02251 11.7639 7.97605C11.9726 7.92958 12.1904 7.94554 12.3902 8.02194C12.5899 8.09834 12.7627 8.2318 12.8872 8.40572C13.0116 8.57963 13.0822 8.7863 13.09 9C13.0954 9.14647 13.0712 9.29253 13.0188 9.42942C12.9664 9.56632 12.887 9.69125 12.7852 9.79674C12.6835 9.90223 12.5615 9.98612 12.4266 10.0434C12.2917 10.1006 12.1466 10.1301 12 10.13ZM20.46 9.63C20.3196 8.16892 19.8032 6.76909 18.9612 5.56682C18.1191 4.36456 16.9801 3.40083 15.655 2.7695C14.3299 2.13816 12.8639 1.86072 11.3997 1.96421C9.93555 2.06769 8.52314 2.54856 7.3 3.36C6.2492 4.06265 5.36706 4.9893 4.71695 6.07339C4.06684 7.15749 3.6649 8.37211 3.54 9.63C3.41749 10.8797 3.57468 12.1409 4.00017 13.3223C4.42567 14.5036 5.1088 15.5755 6 16.46L11.3 21.77C11.393 21.8637 11.5036 21.9381 11.6254 21.9889C11.7473 22.0397 11.878 22.0658 12.01 22.0658C12.142 22.0658 12.2727 22.0397 12.3946 21.9889C12.5164 21.9381 12.627 21.8637 12.72 21.77L18 16.46C18.8912 15.5755 19.5743 14.5036 19.9998 13.3223C20.4253 12.1409 20.5825 10.8797 20.46 9.63ZM16.6 15.05L12 19.65L7.4 15.05C6.72209 14.3721 6.20281 13.5523 5.87947 12.6498C5.55614 11.7472 5.43679 10.7842 5.53 9.83C5.62382 8.86111 5.93177 7.92516 6.43157 7.08985C6.93138 6.25453 7.61056 5.54071 8.42 5C9.48095 4.29524 10.7263 3.9193 12 3.9193C13.2737 3.9193 14.5191 4.29524 15.58 5C16.387 5.53862 17.0647 6.24928 17.5644 7.08094C18.064 7.9126 18.3733 8.84461 18.47 9.81C18.5663 10.7674 18.4484 11.7343 18.125 12.6406C17.8016 13.5468 17.2807 14.3698 16.6 15.05Z" fill="currentColor" />
  </symbol>
  <symbol viewBox="0 0 24 24" fill="none" xmlns="http://www.w3.org/2000/svg" id="interface-house-user">
    <path d="M21.6641 10.2524L12.6641 2.25244C12.4812 2.08968 12.2449 1.99976 12 1.99976C11.7552 1.99976 11.5189 2.08968 11.336 2.25244L2.33597 10.2524C2.13771 10.4286 2.01753 10.6762 2.00187 10.941C1.98621 11.2057 2.07635 11.4658 2.25247 11.6641C2.42859 11.8623 2.67626 11.9825 2.94099 11.9982C3.20572 12.0138 3.46583 11.9237 3.66409 11.7476L4.00003 11.449V21C4 21.1313 4.02584 21.2614 4.07609 21.3827C4.12633 21.5041 4.19999 21.6143 4.29285 21.7072C4.38572 21.8 4.49597 21.8737 4.61731 21.9239C4.73865 21.9742 4.8687 22 5.00003 22H19C19.1314 22 19.2614 21.9742 19.3828 21.9239C19.5041 21.8737 19.6144 21.8 19.7072 21.7072C19.8001 21.6143 19.8737 21.5041 19.924 21.3827C19.9742 21.2614 20.0001 21.1313 20 21V11.449L20.336 11.7476C20.4341 11.8348 20.5485 11.9018 20.6726 11.9448C20.7967 11.9878 20.928 12.0059 21.0591 11.9982C21.1902 11.9904 21.3184 11.9569 21.4366 11.8996C21.5547 11.8423 21.6604 11.7623 21.7476 11.6641C21.8348 11.5659 21.9018 11.4515 21.9448 11.3275C21.9878 11.2034 22.006 11.0721 21.9982 10.941C21.9904 10.8099 21.9569 10.6816 21.8996 10.5635C21.8423 10.4454 21.7623 10.3397 21.6641 10.2525V10.2524ZM9.1843 20C9.3881 19.4157 9.76864 18.9092 10.2732 18.5509C10.7777 18.1925 11.3812 18 12 18C12.6189 18 13.2224 18.1925 13.7269 18.5509C14.2314 18.9092 14.612 19.4157 14.8158 20H9.1843ZM10.5 14.5C10.5 14.2033 10.588 13.9133 10.7528 13.6666C10.9177 13.42 11.1519 13.2277 11.426 13.1142C11.7001 13.0006 12.0017 12.9709 12.2927 13.0288C12.5836 13.0867 12.8509 13.2296 13.0607 13.4393C13.2705 13.6491 13.4133 13.9164 13.4712 14.2074C13.5291 14.4983 13.4994 14.7999 13.3859 15.074C13.2723 15.3481 13.0801 15.5824 12.8334 15.7472C12.5867 15.912 12.2967 16 12 16C11.6023 15.9996 11.2211 15.8414 10.9399 15.5602C10.6586 15.279 10.5005 14.8977 10.5 14.5ZM18 20H16.899C16.7607 19.337 16.4892 18.709 16.1009 18.1541C15.7127 17.5992 15.2158 17.1289 14.6403 16.7718C15.1913 16.1429 15.4967 15.3361 15.5 14.5C15.5 13.5717 15.1313 12.6815 14.4749 12.0251C13.8185 11.3687 12.9283 11 12 11C11.0718 11 10.1815 11.3687 9.52516 12.0251C8.86878 12.6815 8.50003 13.5717 8.50003 14.5C8.50342 15.3361 8.80873 16.1429 9.35977 16.7718C8.78432 17.1289 8.28739 17.5992 7.89913 18.1541C7.51087 18.709 7.23938 19.337 7.1011 20H6.00003V9.6712L12 4.33789L18 9.6712V20Z" fill="currentColor" />
  </symbol>
  <symbol viewBox="0 0 24 24" fill="none" xmlns="http://www.w3.org/2000/svg" id="interface-head-side">
    <path d="M13.2305 2.00342C12.2254 1.96514 11.2232 2.13292 10.2854 2.49644C9.34756 2.85996 8.49406 3.41152 7.77737 4.11719C7.05408 4.81423 6.47941 5.65051 6.08802 6.57561C5.69663 7.50072 5.49661 8.49551 5.50003 9.5V9.53027L3.59573 13.5737C3.52376 13.7261 3.49149 13.8942 3.50191 14.0624C3.51234 14.2306 3.56513 14.3934 3.65536 14.5357C3.7456 14.6781 3.87035 14.7952 4.01803 14.8764C4.16571 14.9576 4.33151 15.0001 4.50003 15H5.50003V17C5.50063 17.5302 5.71154 18.0386 6.08648 18.4135C6.46142 18.7885 6.96978 18.9994 7.50003 19H8.50003V21C8.50003 21.2652 8.60538 21.5196 8.79292 21.7071C8.98046 21.8946 9.23481 22 9.50003 22C9.76524 22 10.0196 21.8946 10.2071 21.7071C10.3947 21.5196 10.5 21.2652 10.5 21V19C10.7652 19 11.0196 18.8946 11.2071 18.7071C11.3947 18.5196 11.5 18.2652 11.5 18C11.5 17.7348 11.3947 17.4804 11.2071 17.2929C11.0196 17.1054 10.7652 17 10.5 17H7.50003V14C7.50006 13.8687 7.47422 13.7386 7.42398 13.6173C7.37373 13.4959 7.30008 13.3857 7.20721 13.2928C7.11435 13.2 7.00409 13.1263 6.88275 13.076C6.76141 13.0258 6.63136 13 6.50003 13H6.0762L7.41603 10.1558C7.48472 10.0109 7.51722 9.85158 7.51075 9.69141C7.51075 9.68115 7.50099 9.51025 7.50001 9.5C7.49742 8.76339 7.64406 8.03388 7.93106 7.35548C8.21807 6.67708 8.6395 6.06383 9.16995 5.55273C9.69971 5.04077 10.3265 4.63989 11.0134 4.37366C11.7003 4.10742 12.4335 3.98121 13.1699 4.00244C14.6302 4.09354 15.9991 4.74412 16.9918 5.81882C17.9846 6.89353 18.5248 8.3096 18.5 9.77246L16.5332 17.2773C16.4873 17.4525 16.4893 17.6369 16.5391 17.811L17.5391 21.2773C17.5994 21.4857 17.7256 21.6688 17.8989 21.7992C18.0722 21.9296 18.2832 22.0003 18.5 22.0005C18.5939 22.0002 18.6872 21.9868 18.7774 21.9609C19.0322 21.8873 19.2473 21.7155 19.3755 21.4833C19.5037 21.2511 19.5344 20.9775 19.461 20.7227L18.5371 17.5225L20.4668 10.2563C20.4886 10.1726 20.4998 10.0865 20.5 10V9.77246C20.5214 7.7907 19.7776 5.87705 18.4235 4.4299C17.0694 2.98275 15.2093 2.11361 13.2305 2.00342Z" fill="currentColor" />
  </symbol>
  <symbol viewBox="0 0 24 24" fill="none" xmlns="http://www.w3.org/2000/svg" id="interface-chat">
    <path d="M18 2H6a3 3 0 0 0-3 3v11a3 3 0 0 0 3 3h2.59l2.7 2.71A1 1 0 0 0 12 22a1 1 0 0 0 .65-.24L15.87 19H18a3 3 0 0 0 3-3V5a3 3 0 0 0-3-3zm1 14a1 1 0 0 1-1 1h-2.5a1 1 0 0 0-.65.24l-2.8 2.4-2.34-2.35A1 1 0 0 0 9 17H6a1 1 0 0 1-1-1V5a1 1 0 0 1 1-1h12a1 1 0 0 1 1 1v11z" fill="currentColor"></path>
  </symbol>
  <symbol viewBox="0 0 24 24" fill="none" xmlns="http://www.w3.org/2000/svg" id="interface-bars">
    <path d="M3 8h18a1 1 0 1 0 0-2H3a1 1 0 0 0 0 2zm18 8H3a1 1 0 0 0 0 2h18a1 1 0 0 0 0-2zm0-5H3a1 1 0 0 0 0 2h18a1 1 0 0 0 0-2z" fill="currentColor"></path>
  </symbol>
  <symbol viewBox="0 0 24 24" fill="none" xmlns="http://www.w3.org/2000/svg" id="interface-bell-slash">
    <path d="M11.07 6.12A3.48 3.48 0 0 1 12 6a4 4 0 0 1 4 4v1.34a1 1 0 1 0 2 0V10a6 6 0 0 0-5-5.91V3a1 1 0 0 0-2 0v1.1l-.45.08a1.004 1.004 0 1 0 .52 1.94zm10.64 14.17l-18-18a1.004 1.004 0 0 0-1.42 1.42l4.12 4.11A6 6 0 0 0 6 10v3.18A3 3 0 0 0 4 16v2a1 1 0 0 0 1 1h3.14a4 4 0 0 0 7.72 0h1.73l2.7 2.71a.999.999 0 0 0 1.42 0 1 1 0 0 0 0-1.42zM8 10a3.31 3.31 0 0 1 0-.55L11.59 13H8v-3zm4 10a2 2 0 0 1-1.72-1h3.44A2 2 0 0 1 12 20zm-6-3v-1a1 1 0 0 1 1-1h6.59l2 2H6z" fill="currentColor"></path>
  </symbol>
  <symbol viewBox="0 0 24 24" fill="none" xmlns="http://www.w3.org/2000/svg" id="interface-home">
    <path d="M21.66 10.25l-9-8a1 1 0 0 0-1.32 0l-9 8A1 1 0 0 0 3 12h1v9a1 1 0 0 0 1 1h14a1 1 0 0 0 1-1v-9h1a1 1 0 0 0 .66-1.75zM13 20h-2v-3a1 1 0 0 1 2 0v3zm5 0h-3v-3a3 3 0 0 0-6 0v3H6v-8h12v8zM5.63 10L12 4.34 18.37 10H5.63z" fill="currentColor"></path>
  </symbol>
  <symbol viewBox="0 0 24 24" fill="none" xmlns="http://www.w3.org/2000/svg" id="interface-setting">
    <path d="M19.9 12.66C19.7397 12.4775 19.6513 12.2429 19.6513 12C19.6513 11.7571 19.7397 11.5225 19.9 11.34L21.18 9.90002C21.3211 9.74269 21.4087 9.54472 21.4302 9.33452C21.4518 9.12433 21.4062 8.9127 21.3 8.73002L19.3 5.27002C19.1949 5.08754 19.0349 4.94289 18.8428 4.8567C18.6506 4.77051 18.4362 4.74718 18.23 4.79002L16.35 5.17002C16.1108 5.21945 15.8618 5.17961 15.6499 5.05802C15.438 4.93643 15.278 4.7415 15.2 4.51002L14.59 2.68002C14.5229 2.4814 14.3951 2.30888 14.2246 2.18686C14.0542 2.06484 13.8497 1.99948 13.64 2.00002H9.64002C9.42195 1.98864 9.20615 2.04894 9.02558 2.17173C8.84501 2.29452 8.7096 2.47304 8.64002 2.68002L8.08002 4.51002C8.00202 4.7415 7.84199 4.93643 7.63013 5.05802C7.41827 5.17961 7.16924 5.21945 6.93002 5.17002L5.00002 4.79002C4.80457 4.7624 4.60532 4.79324 4.42737 4.87866C4.24941 4.96407 4.10072 5.10025 4.00002 5.27002L2.00002 8.73002C1.89118 8.91067 1.84224 9.1211 1.8602 9.33124C1.87816 9.54138 1.9621 9.74046 2.10002 9.90002L3.37002 11.34C3.53034 11.5225 3.61875 11.7571 3.61875 12C3.61875 12.2429 3.53034 12.4775 3.37002 12.66L2.10002 14.1C1.9621 14.2596 1.87816 14.4587 1.8602 14.6688C1.84224 14.8789 1.89118 15.0894 2.00002 15.27L4.00002 18.73C4.10512 18.9125 4.26514 19.0571 4.45727 19.1433C4.6494 19.2295 4.86384 19.2529 5.07002 19.21L6.95002 18.83C7.18924 18.7806 7.43827 18.8204 7.65013 18.942C7.86199 19.0636 8.02202 19.2585 8.10002 19.49L8.71002 21.32C8.7796 21.527 8.91501 21.7055 9.09558 21.8283C9.27615 21.9511 9.49195 22.0114 9.71002 22H13.71C13.9197 22.0006 14.1242 21.9352 14.2946 21.8132C14.4651 21.6912 14.5929 21.5186 14.66 21.32L15.27 19.49C15.348 19.2585 15.508 19.0636 15.7199 18.942C15.9318 18.8204 16.1808 18.7806 16.42 18.83L18.3 19.21C18.5062 19.2529 18.7206 19.2295 18.9128 19.1433C19.1049 19.0571 19.2649 18.9125 19.37 18.73L21.37 15.27C21.4762 15.0873 21.5218 14.8757 21.5002 14.6655C21.4787 14.4553 21.3911 14.2573 21.25 14.1L19.9 12.66ZM18.41 14L19.21 14.9L17.93 17.12L16.75 16.88C16.0298 16.7328 15.2806 16.8551 14.6446 17.2238C14.0086 17.5925 13.5302 18.1819 13.3 18.88L12.92 20H10.36L10 18.86C9.76987 18.1619 9.2914 17.5725 8.65542 17.2038C8.01945 16.8351 7.27024 16.7128 6.55002 16.86L5.37002 17.1L4.07002 14.89L4.87002 13.99C5.36197 13.44 5.63395 12.7279 5.63395 11.99C5.63395 11.2521 5.36197 10.54 4.87002 9.99002L4.07002 9.09002L5.35002 6.89002L6.53002 7.13002C7.25024 7.27724 7.99945 7.1549 8.63542 6.78622C9.2714 6.41753 9.74987 5.82818 9.98002 5.13002L10.36 4.00002H12.92L13.3 5.14002C13.5302 5.83818 14.0086 6.42753 14.6446 6.79622C15.2806 7.1649 16.0298 7.28724 16.75 7.14002L17.93 6.90002L19.21 9.12002L18.41 10.02C17.9236 10.5688 17.655 11.2767 17.655 12.01C17.655 12.7433 17.9236 13.4513 18.41 14ZM11.64 8.00002C10.8489 8.00002 10.0755 8.23461 9.41774 8.67414C8.75994 9.11366 8.24725 9.73838 7.9445 10.4693C7.64175 11.2002 7.56254 12.0045 7.71688 12.7804C7.87122 13.5563 8.25218 14.269 8.81159 14.8284C9.371 15.3879 10.0837 15.7688 10.8597 15.9232C11.6356 16.0775 12.4398 15.9983 13.1708 15.6955C13.9017 15.3928 14.5264 14.8801 14.9659 14.2223C15.4054 13.5645 15.64 12.7911 15.64 12C15.64 10.9392 15.2186 9.92174 14.4684 9.17159C13.7183 8.42144 12.7009 8.00002 11.64 8.00002ZM11.64 14C11.2445 14 10.8578 13.8827 10.5289 13.663C10.2 13.4432 9.94363 13.1308 9.79226 12.7654C9.64088 12.3999 9.60128 11.9978 9.67845 11.6098C9.75562 11.2219 9.9461 10.8655 10.2258 10.5858C10.5055 10.3061 10.8619 10.1156 11.2498 10.0384C11.6378 9.96128 12.0399 10.0009 12.4054 10.1523C12.7708 10.3036 13.0832 10.56 13.303 10.8889C13.5227 11.2178 13.64 11.6045 13.64 12C13.64 12.5304 13.4293 13.0392 13.0542 13.4142C12.6792 13.7893 12.1705 14 11.64 14Z" fill="currentColor" />
  </symbol>
  <symbol viewBox="0 0 24 24" fill="none" xmlns="http://www.w3.org/2000/svg" id="interface-setting-alt">
    <path fill-rule="evenodd" clip-rule="evenodd" d="M19.7947 12.0015C19.7947 12.2444 19.8831 12.479 20.0435 12.6615L21.3935 14.1015C21.5345 14.2588 21.6221 14.4568 21.6436 14.667C21.6652 14.8772 21.6196 15.0888 21.5135 15.2715L19.5135 18.7315C19.4084 18.914 19.2483 19.0586 19.0562 19.1448C18.8641 19.231 18.6496 19.2543 18.4435 19.2115L16.5635 18.8315C16.3242 18.7821 16.0752 18.8219 15.8633 18.9435C15.6515 19.0651 15.4915 19.26 15.4135 19.4915L14.8035 21.3215C14.7364 21.5201 14.6086 21.6926 14.4381 21.8146C14.2676 21.9367 14.0631 22.002 13.8535 22.0015H9.85345C9.63538 22.0129 9.41959 21.9526 9.23902 21.8298C9.05845 21.707 8.92303 21.5285 8.85345 21.3215L8.24345 19.4915C8.16545 19.26 8.00542 19.0651 7.79356 18.9435C7.5817 18.8219 7.33267 18.7821 7.09345 18.8315L5.21345 19.2115C5.00728 19.2543 4.79284 19.231 4.6007 19.1448C4.40857 19.0586 4.24855 18.914 4.14345 18.7315L2.14345 15.2715C2.03461 15.0908 1.98567 14.8804 2.00363 14.6703C2.02159 14.4601 2.10553 14.261 2.24345 14.1015L3.51345 12.6615C3.67377 12.479 3.76219 12.2444 3.76219 12.0015C3.76219 11.7586 3.67377 11.524 3.51345 11.3415L2.24345 9.90148C2.10553 9.74192 2.02159 9.54284 2.00363 9.33271C1.98567 9.12257 2.03461 8.91213 2.14345 8.73148L4.14345 5.27148C4.24415 5.10171 4.39285 4.96554 4.5708 4.88012C4.74875 4.7947 4.948 4.76386 5.14345 4.79148L7.07345 5.17148C7.31267 5.22091 7.5617 5.18107 7.77356 5.05948C7.98542 4.93789 8.14545 4.74297 8.22345 4.51148L8.78345 2.68148C8.85303 2.4745 8.98845 2.29598 9.16902 2.1732C9.34959 2.05041 9.56538 1.9901 9.78345 2.00148H13.7835C13.9931 2.00094 14.1976 2.0663 14.3681 2.18832C14.5386 2.31035 14.6664 2.48286 14.7335 2.68148L15.3435 4.51148C15.4214 4.74297 15.5815 4.93789 15.7933 5.05948C16.0052 5.18107 16.2542 5.22091 16.4935 5.17148L18.3735 4.79148C18.5796 4.74864 18.7941 4.77198 18.9862 4.85817C19.1783 4.94436 19.3384 5.089 19.4435 5.27148L21.4435 8.73148C21.5496 8.91417 21.5952 9.12579 21.5736 9.33599C21.5521 9.54619 21.4645 9.74415 21.3235 9.90148L20.0435 11.3415C19.8831 11.524 19.7947 11.7586 19.7947 12.0015ZM11.905 13.9978C10.8446 13.9482 10 13.0727 10 12C10 10.9366 10.83 10.067 11.8775 10.0037C11.918 10.0012 11.9589 10 12 10C13.1046 10 14 10.8954 14 12C14 13.1046 13.1046 14 12 14C11.9682 14 11.9365 13.9993 11.905 13.9978Z" fill="currentColor" />
  </symbol>
  <symbol viewBox="0 0 24 24" fill="none" xmlns="http://www.w3.org/2000/svg" id="interface-schedule">
    <path d="M12 14a1 1 0 1 0 0-2 1 1 0 0 0 0 2zm5 0a1 1 0 1 0 0-2 1 1 0 0 0 0 2zm-5 4a1 1 0 1 0 0-2 1 1 0 0 0 0 2zm5 0a1 1 0 1 0 0-2 1 1 0 0 0 0 2zM7 14a1 1 0 1 0 0-2 1 1 0 0 0 0 2zM19 4h-1V3a1 1 0 0 0-2 0v1H8V3a1 1 0 0 0-2 0v1H5a3 3 0 0 0-3 3v12a3 3 0 0 0 3 3h14a3 3 0 0 0 3-3V7a3 3 0 0 0-3-3zm1 15a1 1 0 0 1-1 1H5a1 1 0 0 1-1-1v-9h16v9zm0-11H4V7a1 1 0 0 1 1-1h14a1 1 0 0 1 1 1v1zM7 18a1 1 0 1 0 0-2 1 1 0 0 0 0 2z" fill="currentColor"></path>
  </symbol>
  <symbol viewBox="0 0 24 24" fill="none" xmlns="http://www.w3.org/2000/svg" id="interface-calendar-slash">
    <path d="M11.66 7H15v1a1 1 0 0 0 2 0V7h1a1 1 0 0 1 1 1v3h-1.34a1 1 0 1 0 0 2H19v1.34a1 1 0 0 0 2 0V8a3 3 0 0 0-3-3h-1V4a1 1 0 0 0-2 0v1h-3.34a1 1 0 1 0 0 2zm10.05 13.29l-1.6-1.6-16.4-16.4a1.004 1.004 0 1 0-1.42 1.42l1.91 1.9A3 3 0 0 0 3 8v10a3 3 0 0 0 3 3h12a3.002 3.002 0 0 0 1.29-.3l1 1a1.002 1.002 0 0 0 1.71-.705 1 1 0 0 0-.29-.705zM5 8a1 1 0 0 1 .66-.93L9.59 11H5V8zm1 11a1 1 0 0 1-1-1v-5h6.59l6 6H6z" fill="currentColor"></path>
  </symbol>
  <symbol viewBox="0 0 24 24" fill="none" xmlns="http://www.w3.org/2000/svg" id="interface-filter-slash">
    <path d="M19.22 6h-6.56a1 1 0 1 0 0 2h6.56a.78.78 0 0 1 .78.78v.78h-3.78a1 1 0 1 0 0 2h2.37l-.7.69a1 1 0 0 0 0 1.42 1.002 1.002 0 0 0 1.42 0l1.88-1.88c.23-.229.413-.5.54-.8v-.1A2.59 2.59 0 0 0 22 9.82v-1A2.788 2.788 0 0 0 19.22 6zM3.71 2.29a1.004 1.004 0 1 0-1.42 1.42l2.85 2.84A2.73 2.73 0 0 0 4 8.78v1c0 .38.082.755.24 1.1v.06a2.6 2.6 0 0 0 .54.81l5.41 5.4V21a1 1 0 0 0 1 1 1 1 0 0 0 .45-.11l3.56-1.78a1 1 0 0 0 .55-.89v-2l4.51 4.52a1.002 1.002 0 0 0 1.639-.325 1 1 0 0 0-.219-1.095L3.71 2.29zM6 8.78a.76.76 0 0 1 .5-.72L6.59 8l1.56 1.56H6v-.78zm8.07 7.29a1 1 0 0 0-.29.71v1.82l-1.56.78v-2.6a1 1 0 0 0-.29-.71l-4.52-4.51h2.74l4.22 4.22-.3.29z" fill="currentColor"></path>
  </symbol>
  <symbol viewBox="0 0 24 24" fill="none" xmlns="http://www.w3.org/2000/svg" id="interface-filter">
    <path d="M19 2H5a3 3 0 0 0-3 3v1.17a3 3 0 0 0 .25 1.2v.06c.141.321.341.613.59.86L9 14.41V21a1 1 0 0 0 1 1 1 1 0 0 0 .45-.11l4-2A1 1 0 0 0 15 19v-4.59l6.12-6.12a2.81 2.81 0 0 0 .59-.86v-.06a3 3 0 0 0 .29-1.2V5a3 3 0 0 0-3-3zm-5.71 11.29A1 1 0 0 0 13 14v4.38l-2 1V14a1 1 0 0 0-.29-.71L5.41 8h13.18l-5.3 5.29zM20 6H4V5a1 1 0 0 1 1-1h14a1 1 0 0 1 1 1v1z" fill="currentColor"></path>
  </symbol>
  <symbol viewBox="0 0 24 24" fill="none" xmlns="http://www.w3.org/2000/svg" id="interface-copy">
    <path d="M21 8.94a1.307 1.307 0 0 0-.06-.27v-.09a1.07 1.07 0 0 0-.19-.28l-6-6a1.071 1.071 0 0 0-.28-.19.32.32 0 0 0-.09 0 .88.88 0 0 0-.33-.11H10a3 3 0 0 0-3 3v1H6a3 3 0 0 0-3 3v10a3 3 0 0 0 3 3h8a3 3 0 0 0 3-3v-1h1a3 3 0 0 0 3-3V8.94zm-6-3.53L17.59 8H16a1 1 0 0 1-1-1V5.41zM15 19a1 1 0 0 1-1 1H6a1 1 0 0 1-1-1V9a1 1 0 0 1 1-1h1v7a3 3 0 0 0 3 3h5v1zm4-4a1 1 0 0 1-1 1h-8a1 1 0 0 1-1-1V5a1 1 0 0 1 1-1h3v3a3 3 0 0 0 3 3h3v5z" fill="currentColor"></path>
  </symbol>
  <symbol viewBox="0 0 24 24" fill="none" xmlns="http://www.w3.org/2000/svg" id="interface-edit">
    <path d="M21 12a1 1 0 0 0-1 1v6a1 1 0 0 1-1 1H5a1 1 0 0 1-1-1V5a1 1 0 0 1 1-1h6a1 1 0 1 0 0-2H5a3 3 0 0 0-3 3v14a3 3 0 0 0 3 3h14a3 3 0 0 0 3-3v-6a1 1 0 0 0-1-1zm-15 .76V17a1 1 0 0 0 1 1h4.24a.998.998 0 0 0 .71-.29l6.92-6.93L21.71 8a1.001 1.001 0 0 0 0-1.42l-4.24-4.29a1 1 0 0 0-1.42 0l-2.82 2.83-6.94 6.93a1.001 1.001 0 0 0-.29.71zm10.76-8.35l2.83 2.83-1.42 1.42-2.83-2.83 1.42-1.42zM8 13.17l5.93-5.93 2.83 2.83L10.83 16H8v-2.83z" fill="currentColor"></path>
  </symbol>
  <symbol viewBox="0 0 24 24" fill="none" xmlns="http://www.w3.org/2000/svg" id="interface-pen">
    <path d="M22 7.24a1 1 0 0 0-.29-.71l-4.24-4.24a1 1 0 0 0-.71-.29 1 1 0 0 0-.71.29l-2.83 2.83L2.29 16.05a1.001 1.001 0 0 0-.29.71V21a1 1 0 0 0 1 1h4.24a1.001 1.001 0 0 0 .76-.29l10.87-10.93L21.71 8a1.19 1.19 0 0 0 .22-.33c.01-.08.01-.16 0-.24a.697.697 0 0 0 0-.14l.07-.05zM6.83 20H4v-2.83l9.93-9.93 2.83 2.83L6.83 20zM18.17 8.66l-2.83-2.83 1.42-1.41 2.82 2.82-1.41 1.42z" fill="currentColor"></path>
  </symbol>
  <symbol viewBox="0 0 24 24" fill="none" xmlns="http://www.w3.org/2000/svg" id="interface-paperclip">
    <path d="M18.08 12.42l-6.18 6.19a4.25 4.25 0 0 1-6-6l8-8a2.57 2.57 0 0 1 3.54 0 2.52 2.52 0 0 1 0 3.54l-6.9 6.89A.765.765 0 0 1 9.42 14l5.13-5.12a1.004 1.004 0 0 0-1.42-1.42L8 12.6a2.74 2.74 0 0 0 0 3.89 2.82 2.82 0 0 0 3.89 0l6.89-6.9a4.5 4.5 0 0 0-6.36-6.36l-8 8A6.25 6.25 0 0 0 13.31 20l6.19-6.18a1.007 1.007 0 0 0 0-1.42 1.003 1.003 0 0 0-1.42 0v.02z" fill="currentColor"></path>
  </symbol>
  <symbol viewBox="0 0 24 24" fill="none" xmlns="http://www.w3.org/2000/svg" id="interface-paperclip">
    <path d="M20.71 9.29L14.71 3.29C14.6178 3.20005 14.5092 3.12874 14.39 3.08C14.266 3.02962 14.1338 3.0025 14 3H6C5.20435 3 4.44129 3.31607 3.87868 3.87868C3.31607 4.44129 3 5.20435 3 6V18C3 18.7956 3.31607 19.5587 3.87868 20.1213C4.44129 20.6839 5.20435 21 6 21H18C18.7956 21 19.5587 20.6839 20.1213 20.1213C20.6839 19.5587 21 18.7956 21 18V10C21.0008 9.86839 20.9755 9.73793 20.9258 9.61609C20.876 9.49426 20.8027 9.38344 20.71 9.29ZM9 5H13V7H9V5ZM15 19H9V16C9 15.7348 9.10536 15.4804 9.29289 15.2929C9.48043 15.1054 9.73478 15 10 15H14C14.2652 15 14.5196 15.1054 14.7071 15.2929C14.8946 15.4804 15 15.7348 15 16V19ZM19 18C19 18.2652 18.8946 18.5196 18.7071 18.7071C18.5196 18.8946 18.2652 19 18 19H17V16C17 15.2044 16.6839 14.4413 16.1213 13.8787C15.5587 13.3161 14.7956 13 14 13H10C9.20435 13 8.44129 13.3161 7.87868 13.8787C7.31607 14.4413 7 15.2044 7 16V19H6C5.73478 19 5.48043 18.8946 5.29289 18.7071C5.10536 18.5196 5 18.2652 5 18V6C5 5.73478 5.10536 5.48043 5.29289 5.29289C5.48043 5.10536 5.73478 5 6 5H7V8C7 8.26522 7.10536 8.51957 7.29289 8.70711C7.48043 8.89464 7.73478 9 8 9H14C14.2652 9 14.5196 8.89464 14.7071 8.70711C14.8946 8.51957 15 8.26522 15 8V6.41L19 10.41V18Z" fill="currentColor" />
  </symbol>
  <symbol viewBox="0 0 24 24" fill="none" xmlns="http://www.w3.org/2000/svg" id="interface-eye-slash">
    <path d="M10.94 6.08A6.93 6.93 0 0 1 12 6c3.18 0 6.17 2.29 7.91 6a15.23 15.23 0 0 1-.9 1.64 1 1 0 0 0 .05 1.152 1 1 0 0 0 1.65-.102 15.77 15.77 0 0 0 1.21-2.3.999.999 0 0 0 0-.79C19.9 6.91 16.1 4 12 4a7.77 7.77 0 0 0-1.4.12 1.014 1.014 0 1 0 .34 2v-.04zM3.71 2.29a1.004 1.004 0 1 0-1.42 1.42l3.1 3.09a14.62 14.62 0 0 0-3.31 4.8 1 1 0 0 0 0 .8C4.1 17.09 7.9 20 12 20a9.26 9.26 0 0 0 5.05-1.54l3.24 3.25a.999.999 0 0 0 1.42 0 1 1 0 0 0 0-1.42l-18-18zm6.36 9.19l2.45 2.45a2 2 0 0 1-2.45-2.45zM12 18c-3.18 0-6.17-2.29-7.9-6a12.09 12.09 0 0 1 2.7-3.79L8.57 10A4 4 0 0 0 14 15.43L15.59 17A7.24 7.24 0 0 1 12 18z" fill="currentColor"></path>
  </symbol>
  <symbol viewBox="0 0 24 24" fill="none" xmlns="http://www.w3.org/2000/svg" id="interface-eye">
    <path d="M21.92 11.6C19.9 6.91 16.1 4 12 4s-7.9 2.91-9.92 7.6a1 1 0 0 0 0 .8C4.1 17.09 7.9 20 12 20s7.9-2.91 9.92-7.6a1 1 0 0 0 0-.8zM12 18c-3.17 0-6.17-2.29-7.9-6C5.83 8.29 8.83 6 12 6s6.17 2.29 7.9 6c-1.73 3.71-4.73 6-7.9 6zm0-10a4 4 0 1 0 0 8 4 4 0 0 0 0-8zm0 6a2 2 0 1 1 0-4 2 2 0 0 1 0 4z" fill="currentColor"></path>
  </symbol>
  <symbol viewBox="0 0 24 24" fill="none" xmlns="http://www.w3.org/2000/svg" id="interface-share-alt">
    <path d="M18 14a4 4 0 0 0-3.08 1.48l-5.1-2.35a3.64 3.64 0 0 0 0-2.26l5.1-2.35a4 4 0 1 0-.85-1.81L8.79 9.14a4 4 0 1 0 0 5.72l5.28 2.43A4.177 4.177 0 0 0 14 18a4 4 0 1 0 4-4zm0-10a2 2 0 1 1 0 4 2 2 0 0 1 0-4zM6 14a2 2 0 1 1 0-4 2 2 0 0 1 0 4zm12 6a2 2 0 1 1 0-4 2 2 0 0 1 0 4z" fill="currentColor"></path>
  </symbol>
  <symbol viewBox="0 0 24 24" fill="none" xmlns="http://www.w3.org/2000/svg" id="interface-trash-alt">
    <path d="M10 18a1 1 0 0 0 1-1v-6a1 1 0 0 0-2 0v6a1 1 0 0 0 1 1zM20 6h-4V5a3 3 0 0 0-3-3h-2a3 3 0 0 0-3 3v1H4a1 1 0 0 0 0 2h1v11a3 3 0 0 0 3 3h8a3 3 0 0 0 3-3V8h1a1 1 0 1 0 0-2zM10 5a1 1 0 0 1 1-1h2a1 1 0 0 1 1 1v1h-4V5zm7 14a1 1 0 0 1-1 1H8a1 1 0 0 1-1-1V8h10v11zm-3-1a1 1 0 0 0 1-1v-6a1 1 0 0 0-2 0v6a1 1 0 0 0 1 1z" fill="currentColor"></path>
  </symbol>
  <symbol viewBox="0 0 24 24" fill="none" xmlns="http://www.w3.org/2000/svg" id="interface-trash">
    <path d="M20 6h-4V5a3 3 0 0 0-3-3h-2a3 3 0 0 0-3 3v1H4a1 1 0 0 0 0 2h1v11a3 3 0 0 0 3 3h8a3 3 0 0 0 3-3V8h1a1 1 0 1 0 0-2zM10 5a1 1 0 0 1 1-1h2a1 1 0 0 1 1 1v1h-4V5zm7 14a1 1 0 0 1-1 1H8a1 1 0 0 1-1-1V8h10v11z" fill="currentColor"></path>
  </symbol>
  <symbol viewBox="0 0 24 24" fill="none" xmlns="http://www.w3.org/2000/svg" id="interface-external-link-alt">
    <path d="M18 10.82a1 1 0 0 0-1 1V19a1 1 0 0 1-1 1H5a1 1 0 0 1-1-1V8a1 1 0 0 1 1-1h7.18a1 1 0 1 0 0-2H5a3 3 0 0 0-3 3v11a3 3 0 0 0 3 3h11a3 3 0 0 0 3-3v-7.18a1 1 0 0 0-1-1zm3.92-8.2a1 1 0 0 0-.54-.54A1 1 0 0 0 21 2h-6a1 1 0 1 0 0 2h3.59L8.29 14.29a1 1 0 0 0 .325 1.639 1 1 0 0 0 1.095-.219L20 5.41V9a1 1 0 0 0 2 0V3a1.001 1.001 0 0 0-.08-.38z" fill="currentColor"></path>
  </symbol>
  <symbol viewBox="0 0 24 24" fill="none" xmlns="http://www.w3.org/2000/svg" id="interface-link-alt">
    <path d="M12.11 15.39l-3.88 3.88a2.52 2.52 0 0 1-3.5 0 2.47 2.47 0 0 1 0-3.5l3.88-3.88a1.004 1.004 0 0 0-1.42-1.42l-3.88 3.89a4.48 4.48 0 0 0 6.33 6.33l3.89-3.88a1.004 1.004 0 1 0-1.42-1.42zm8.58-12.08a4.49 4.49 0 0 0-6.33 0l-3.89 3.88a1.004 1.004 0 0 0 1.42 1.42l3.88-3.88a2.52 2.52 0 0 1 3.5 0 2.471 2.471 0 0 1 0 3.5l-3.88 3.88a1.002 1.002 0 0 0 .325 1.639 1 1 0 0 0 1.095-.219l3.88-3.89a4.49 4.49 0 0 0 0-6.33zM8.83 15.17a1 1 0 0 0 .71.29 1 1 0 0 0 .71-.29l4.92-4.92a1.004 1.004 0 0 0-1.42-1.42l-4.92 4.92a1 1 0 0 0 0 1.42z" fill="currentColor"></path>
  </symbol>
  <symbol viewBox="0 0 24 24" fill="none" xmlns="http://www.w3.org/2000/svg" id="interface-link-broken">
    <path d="M4.76 10.59a1.008 1.008 0 1 0 .26-2l-1.76-.44a1 1 0 1 0-.52 1.93l1.76.47a.778.778 0 0 0 .26.04zM8.62 5a1 1 0 0 0 1 .74.82.82 0 0 0 .26 0 1 1 0 0 0 .7-1.22l-.47-1.76a1 1 0 1 0-1.93.52L8.62 5zm4.83 10A1 1 0 0 0 12 15l-3.5 3.56a2.21 2.21 0 0 1-3.06 0 2.15 2.15 0 0 1 0-3.06L9 12a1 1 0 1 0-1.41-1.41L4 14.08A4.186 4.186 0 1 0 9.92 20l3.53-3.53a1 1 0 0 0 0-1.47zM5.18 6.59a1 1 0 0 0 1.41 0 1 1 0 0 0 0-1.41L5.3 3.89A1 1 0 0 0 3.89 5.3l1.29 1.29zm16.08 7.33l-1.76-.47a1 1 0 1 0-.5 1.93l1.76.47h.26a1.008 1.008 0 1 0 .26-2l-.02.07zM15.38 19a1 1 0 0 0-1.93.52l.47 1.76a1 1 0 0 0 1 .74c.086.01.174.01.26 0a1 1 0 0 0 .71-1.23L15.38 19zm3.44-1.57a1 1 0 0 0-1.41 1.41l1.29 1.29a1 1 0 0 0 1.41 0 1 1 0 0 0 0-1.41l-1.29-1.29zM21.2 7a4.16 4.16 0 0 0-7.12-3l-3.53 3.56A1.022 1.022 0 0 0 12 9l3.5-3.56a2.21 2.21 0 0 1 3.06 0 2.15 2.15 0 0 1 0 3.06L15 12a1 1 0 0 0 0 1.41 1 1 0 0 0 1.41 0L20 9.92A4.19 4.19 0 0 0 21.2 7z" fill="currentColor"></path>
  </symbol>
  <symbol viewBox="0 0 24 24" fill="none" xmlns="http://www.w3.org/2000/svg" id="interface-link-h">
    <path d="M8 12a1 1 0 0 0 1 1h6a1 1 0 0 0 0-2H9a1 1 0 0 0-1 1zm2 3H7a3 3 0 0 1 0-6h3a1 1 0 1 0 0-2H7a5 5 0 1 0 0 10h3a1 1 0 0 0 0-2zm7-8h-3a1 1 0 1 0 0 2h3a3 3 0 0 1 0 6h-3a1 1 0 0 0 0 2h3a5 5 0 1 0 0-10z" fill="currentColor"></path>
  </symbol>
  <symbol viewBox="0 0 24 24" fill="none" xmlns="http://www.w3.org/2000/svg" id="interface-link">
    <path d="M10 17.55l-1.77 1.72a2.475 2.475 0 0 1-3.5-3.5l4.54-4.55a2.46 2.46 0 0 1 3.39-.09l.12.1a1.001 1.001 0 0 0 1.4-1.43 2.74 2.74 0 0 0-.18-.21 4.46 4.46 0 0 0-6.09.22l-4.6 4.55a4.48 4.48 0 0 0 6.33 6.33L11.37 19A1 1 0 0 0 10 17.55zM20.69 3.31a4.49 4.49 0 0 0-6.33 0L12.63 5A1 1 0 0 0 14 6.45l1.73-1.72a2.475 2.475 0 1 1 3.5 3.5l-4.54 4.55a2.46 2.46 0 0 1-3.39.09l-.12-.1a1 1 0 1 0-1.4 1.43c.073.074.15.145.23.21a4.47 4.47 0 0 0 6.09-.22l4.55-4.55a4.49 4.49 0 0 0 .04-6.33z" fill="currentColor"></path>
  </symbol>
  <symbol viewBox="0 0 24 24" fill="none" xmlns="http://www.w3.org/2000/svg" id="interface-link-add">
    <path d="M12.11 15.39L8.23002 19.27C8.00053 19.5004 7.72781 19.6832 7.4275 19.8079C7.12719 19.9326 6.80521 19.9969 6.48002 19.9969C6.15483 19.9969 5.83285 19.9326 5.53254 19.8079C5.23223 19.6832 4.95951 19.5004 4.73002 19.27C4.49842 19.0412 4.31454 18.7686 4.18904 18.4682C4.06354 18.1678 3.99892 17.8455 3.99892 17.52C3.99892 17.1944 4.06354 16.8721 4.18904 16.5717C4.31454 16.2713 4.49842 15.9988 4.73002 15.77L8.61002 11.89C8.79832 11.7017 8.90411 11.4463 8.90411 11.18C8.90411 10.9137 8.79832 10.6583 8.61002 10.47C8.42172 10.2817 8.16632 10.1759 7.90002 10.1759C7.63372 10.1759 7.37832 10.2817 7.19002 10.47L3.31002 14.36C2.52838 15.2108 2.10564 16.3306 2.13009 17.4857C2.15455 18.6408 2.6243 19.7418 3.44125 20.5587C4.2582 21.3757 5.35918 21.8454 6.51427 21.8699C7.66935 21.8943 8.78923 21.4716 9.64002 20.69L13.53 16.81C13.7183 16.6217 13.8241 16.3663 13.8241 16.1C13.8241 15.8337 13.7183 15.5783 13.53 15.39C13.3417 15.2017 13.0863 15.0959 12.82 15.0959C12.5537 15.0959 12.2983 15.2017 12.11 15.39ZM8.83002 15.17C8.92346 15.2626 9.03428 15.336 9.15611 15.3857C9.27795 15.4355 9.40841 15.4607 9.54002 15.46C9.67163 15.4607 9.80209 15.4355 9.92393 15.3857C10.0458 15.336 10.1566 15.2626 10.25 15.17L15.17 10.25C15.3583 10.0617 15.4641 9.80626 15.4641 9.53996C15.4641 9.27366 15.3583 9.01826 15.17 8.82996C14.9817 8.64165 14.7263 8.53587 14.46 8.53587C14.1937 8.53587 13.9383 8.64165 13.75 8.82996L8.83002 13.75C8.73629 13.8429 8.6619 13.9535 8.61113 14.0754C8.56036 14.1972 8.53422 14.3279 8.53422 14.46C8.53422 14.592 8.56036 14.7227 8.61113 14.8445C8.6619 14.9664 8.73629 15.077 8.83002 15.17ZM21 18H20V17C20 16.7347 19.8947 16.4804 19.7071 16.2929C19.5196 16.1053 19.2652 16 19 16C18.7348 16 18.4804 16.1053 18.2929 16.2929C18.1054 16.4804 18 16.7347 18 17V18H17C16.7348 18 16.4804 18.1053 16.2929 18.2929C16.1054 18.4804 16 18.7347 16 19C16 19.2652 16.1054 19.5195 16.2929 19.7071C16.4804 19.8946 16.7348 20 17 20H18V21C18 21.2652 18.1054 21.5195 18.2929 21.7071C18.4804 21.8946 18.7348 22 19 22C19.2652 22 19.5196 21.8946 19.7071 21.7071C19.8947 21.5195 20 21.2652 20 21V20H21C21.2652 20 21.5196 19.8946 21.7071 19.7071C21.8947 19.5195 22 19.2652 22 19C22 18.7347 21.8947 18.4804 21.7071 18.2929C21.5196 18.1053 21.2652 18 21 18ZM16.81 13.53L20.69 9.63996C21.4717 8.78916 21.8944 7.66929 21.8699 6.51421C21.8455 5.35912 21.3757 4.25814 20.5588 3.44119C19.7418 2.62424 18.6409 2.15449 17.4858 2.13003C16.3307 2.10558 15.2108 2.52831 14.36 3.30996L10.47 7.18996C10.3768 7.2832 10.3028 7.39389 10.2524 7.51571C10.2019 7.63753 10.1759 7.7681 10.1759 7.89996C10.1759 8.03182 10.2019 8.16239 10.2524 8.28421C10.3028 8.40603 10.3768 8.51672 10.47 8.60996C10.5633 8.7032 10.6739 8.77716 10.7958 8.82762C10.9176 8.87808 11.0482 8.90405 11.18 8.90405C11.3119 8.90405 11.4424 8.87808 11.5643 8.82762C11.6861 8.77716 11.7968 8.7032 11.89 8.60996L15.77 4.72996C15.9995 4.49956 16.2722 4.31675 16.5725 4.19201C16.8728 4.06727 17.1948 4.00306 17.52 4.00306C17.8452 4.00306 18.1672 4.06727 18.4675 4.19201C18.7678 4.31675 19.0405 4.49956 19.27 4.72996C19.5016 4.95877 19.6855 5.23127 19.811 5.53167C19.9365 5.83207 20.0011 6.1544 20.0011 6.47996C20.0011 6.80552 19.9365 7.12785 19.811 7.42825C19.6855 7.72865 19.5016 8.00115 19.27 8.22996L15.39 12.11C15.2963 12.2029 15.2219 12.3135 15.1711 12.4354C15.1204 12.5572 15.0942 12.6879 15.0942 12.82C15.0942 12.952 15.1204 13.0827 15.1711 13.2045C15.2219 13.3264 15.2963 13.437 15.39 13.53C15.483 13.6237 15.5936 13.6981 15.7154 13.7489C15.8373 13.7996 15.968 13.8258 16.1 13.8258C16.232 13.8258 16.3627 13.7996 16.4846 13.7489C16.6065 13.6981 16.7171 13.6237 16.81 13.53Z" fill="currentColor" />
  </symbol>
  <symbol viewBox="0 0 24 24" fill="none" xmlns="http://www.w3.org/2000/svg" id="interface-search-minus">
    <path d="M21.71 20.29L18 16.61A9 9 0 1 0 16.61 18l3.68 3.68a1.002 1.002 0 0 0 1.42 0 1 1 0 0 0 0-1.39zM11 18a7 7 0 1 1 0-14 7 7 0 0 1 0 14zm4-8H7a1 1 0 0 0 0 2h8a1 1 0 0 0 0-2z" fill="currentColor"></path>
  </symbol>
  <symbol viewBox="0 0 24 24" fill="none" xmlns="http://www.w3.org/2000/svg" id="interface-search-plus">
    <path d="M15 10h-3V7a1 1 0 0 0-2 0v3H7a1 1 0 0 0 0 2h3v3a1 1 0 0 0 2 0v-3h3a1 1 0 0 0 0-2zm6.71 10.29L18 16.61A9 9 0 1 0 16.61 18l3.68 3.68a1.002 1.002 0 0 0 1.42 0 1 1 0 0 0 0-1.39zM11 18a7 7 0 1 1 0-14 7 7 0 0 1 0 14z" fill="currentColor"></path>
  </symbol>
  <symbol viewBox="0 0 24 24" fill="none" xmlns="http://www.w3.org/2000/svg" id="interface-search">
    <path d="M21.71 20.29L18 16.61A9 9 0 1 0 16.61 18l3.68 3.68a1.002 1.002 0 0 0 1.42 0 1 1 0 0 0 0-1.39zM11 18a7 7 0 1 1 0-14 7 7 0 0 1 0 14z" fill="currentColor"></path>
  </symbol>
  <symbol viewBox="0 0 24 24" fill="none" xmlns="http://www.w3.org/2000/svg" id="interface-question-circle">
    <path d="M11.29 15.29a1.573 1.573 0 0 0-.12.15.762.762 0 0 0-.09.18.64.64 0 0 0-.06.18 1.362 1.362 0 0 0 0 .2.84.84 0 0 0 .08.38.9.9 0 0 0 .54.54.94.94 0 0 0 .76 0 .9.9 0 0 0 .54-.54A1 1 0 0 0 13 16a1 1 0 0 0-1.71-.71zM12 2a10 10 0 1 0 0 20 10 10 0 0 0 0-20zm0 18a8 8 0 1 1 0-16 8 8 0 0 1 0 16zm0-13a3 3 0 0 0-2.6 1.5 1 1 0 1 0 1.73 1 1 1 0 0 1 1.577-.207A1 1 0 0 1 12 11a1 1 0 0 0-1 1v1a1 1 0 0 0 2 0v-.18A3 3 0 0 0 12 7z" fill="currentColor"></path>
  </symbol>
  <symbol viewBox="0 0 24 24" fill="none" xmlns="http://www.w3.org/2000/svg" id="interface-info-circle">
    <path d="M12 11a1 1 0 0 0-1 1v4a1 1 0 0 0 2 0v-4a1 1 0 0 0-1-1zm.38-3.92a1 1 0 0 0-.76 0 1 1 0 0 0-.33.21 1.15 1.15 0 0 0-.21.33 1 1 0 0 0 .21 1.09c.097.088.209.16.33.21A1 1 0 0 0 13 8a1.05 1.05 0 0 0-.29-.71 1 1 0 0 0-.33-.21zM12 2a10 10 0 1 0 0 20 10 10 0 0 0 0-20zm0 18a8 8 0 1 1 0-16 8 8 0 0 1 0 16z" fill="currentColor"></path>
  </symbol>
  <symbol viewBox="0 0 24 24" fill="none" xmlns="http://www.w3.org/2000/svg" id="interface-minus-circle">
    <path d="M12 2a10 10 0 1 0 0 20 10 10 0 0 0 0-20zm0 18a8 8 0 1 1 0-16.001A8 8 0 0 1 12 20zm4-9H8a1 1 0 0 0 0 2h8a1 1 0 0 0 0-2z" fill="currentColor"></path>
  </symbol>
  <symbol viewBox="0 0 24 24" fill="none" xmlns="http://www.w3.org/2000/svg" id="interface-ban">
    <path d="M12 2a10 10 0 1 0 0 20 10 10 0 0 0 0-20zm0 18a8 8 0 0 1-8-8 7.92 7.92 0 0 1 1.69-4.9L16.9 18.31A7.92 7.92 0 0 1 12 20zm6.31-3.1L7.1 5.69A7.92 7.92 0 0 1 12 4a8 8 0 0 1 8 8 7.92 7.92 0 0 1-1.69 4.9z" fill="currentColor"></path>
  </symbol>
  <symbol viewBox="0 0 24 24" fill="none" xmlns="http://www.w3.org/2000/svg" id="interface-import">
    <path d="M21 14a1 1 0 0 0-1 1v4a1 1 0 0 1-1 1H5a1 1 0 0 1-1-1v-4a1 1 0 1 0-2 0v4a3 3 0 0 0 3 3h14a3 3 0 0 0 3-3v-4a1 1 0 0 0-1-1zm-9.71 1.71a1 1 0 0 0 .33.21.94.94 0 0 0 .76 0 1 1 0 0 0 .33-.21l4-4a1.004 1.004 0 1 0-1.42-1.42L13 12.59V3a1 1 0 0 0-2 0v9.59l-2.29-2.3a1.005 1.005 0 0 0-1.714.71 1.004 1.004 0 0 0 .294.71l4 4z" fill="currentColor"></path>
  </symbol>
  <symbol viewBox="0 0 24 24" fill="none" xmlns="http://www.w3.org/2000/svg" id="interface-upload">
    <path d="M8.71 7.71L11 5.41V15a1 1 0 0 0 2 0V5.41l2.29 2.3a1 1 0 0 0 1.639-.326 1 1 0 0 0-.219-1.094l-4-4a1 1 0 0 0-.33-.21 1 1 0 0 0-.76 0 1 1 0 0 0-.33.21l-4 4a1.004 1.004 0 1 0 1.42 1.42zM21 12a1 1 0 0 0-1 1v6a1 1 0 0 1-1 1H5a1 1 0 0 1-1-1v-6a1 1 0 1 0-2 0v6a3 3 0 0 0 3 3h14a3 3 0 0 0 3-3v-6a1 1 0 0 0-1-1z" fill="currentColor"></path>
  </symbol>
  <symbol viewBox="0 0 24 24" fill="none" xmlns="http://www.w3.org/2000/svg" id="interface-signin">
    <path d="M20 12C20 11.7348 19.8946 11.4804 19.7071 11.2929C19.5196 11.1054 19.2652 11 19 11H11.41L13.71 8.71C13.8032 8.61676 13.8772 8.50607 13.9277 8.38425C13.9781 8.26243 14.0041 8.13186 14.0041 8C14.0041 7.86814 13.9781 7.73757 13.9277 7.61575C13.8772 7.49393 13.8032 7.38324 13.71 7.29C13.6168 7.19676 13.5061 7.1228 13.3842 7.07234C13.2624 7.02188 13.1319 6.99591 13 6.99591C12.8681 6.99591 12.7376 7.02188 12.6158 7.07234C12.4939 7.1228 12.3832 7.19676 12.29 7.29L8.29 11.29C8.19896 11.3851 8.12759 11.4972 8.08 11.62C7.97998 11.8635 7.97998 12.1365 8.08 12.38C8.12759 12.5028 8.19896 12.6149 8.29 12.71L12.29 16.71C12.383 16.8037 12.4936 16.8781 12.6154 16.9289C12.7373 16.9797 12.868 17.0058 13 17.0058C13.132 17.0058 13.2627 16.9797 13.3846 16.9289C13.5064 16.8781 13.617 16.8037 13.71 16.71C13.8037 16.617 13.8781 16.5064 13.9289 16.3846C13.9797 16.2627 14.0058 16.132 14.0058 16C14.0058 15.868 13.9797 15.7373 13.9289 15.6154C13.8781 15.4936 13.8037 15.383 13.71 15.29L11.41 13H19C19.2652 13 19.5196 12.8946 19.7071 12.7071C19.8946 12.5196 20 12.2652 20 12ZM17 2H7C6.20435 2 5.44129 2.31607 4.87868 2.87868C4.31607 3.44129 4 4.20435 4 5V19C4 19.7956 4.31607 20.5587 4.87868 21.1213C5.44129 21.6839 6.20435 22 7 22H17C17.7956 22 18.5587 21.6839 19.1213 21.1213C19.6839 20.5587 20 19.7956 20 19V16C20 15.7348 19.8946 15.4804 19.7071 15.2929C19.5196 15.1054 19.2652 15 19 15C18.7348 15 18.4804 15.1054 18.2929 15.2929C18.1054 15.4804 18 15.7348 18 16V19C18 19.2652 17.8946 19.5196 17.7071 19.7071C17.5196 19.8946 17.2652 20 17 20H7C6.73478 20 6.48043 19.8946 6.29289 19.7071C6.10536 19.5196 6 19.2652 6 19V5C6 4.73478 6.10536 4.48043 6.29289 4.29289C6.48043 4.10536 6.73478 4 7 4H17C17.2652 4 17.5196 4.10536 17.7071 4.29289C17.8946 4.48043 18 4.73478 18 5V8C18 8.26522 18.1054 8.51957 18.2929 8.70711C18.4804 8.89464 18.7348 9 19 9C19.2652 9 19.5196 8.89464 19.7071 8.70711C19.8946 8.51957 20 8.26522 20 8V5C20 4.20435 19.6839 3.44129 19.1213 2.87868C18.5587 2.31607 17.7956 2 17 2Z" fill="currentColor" />
  </symbol>
  <symbol viewBox="0 0 24 24" fill="none" xmlns="http://www.w3.org/2000/svg" id="interface-upload">
    <path d="M4 12C4 12.2652 4.10536 12.5196 4.29289 12.7071C4.48043 12.8946 4.73478 13 5 13H12.59L10.29 15.29C10.1963 15.383 10.1219 15.4936 10.0711 15.6154C10.0203 15.7373 9.9942 15.868 9.9942 16C9.9942 16.132 10.0203 16.2627 10.0711 16.3846C10.1219 16.5064 10.1963 16.617 10.29 16.71C10.383 16.8037 10.4936 16.8781 10.6154 16.9289C10.7373 16.9797 10.868 17.0058 11 17.0058C11.132 17.0058 11.2627 16.9797 11.3846 16.9289C11.5064 16.8781 11.617 16.8037 11.71 16.71L15.71 12.71C15.801 12.6149 15.8724 12.5028 15.92 12.38C16.02 12.1365 16.02 11.8635 15.92 11.62C15.8724 11.4972 15.801 11.3851 15.71 11.29L11.71 7.29C11.6168 7.19676 11.5061 7.1228 11.3842 7.07234C11.2624 7.02188 11.1319 6.99591 11 6.99591C10.8681 6.99591 10.7376 7.02188 10.6158 7.07234C10.4939 7.1228 10.3832 7.19676 10.29 7.29C10.1968 7.38324 10.1228 7.49393 10.0723 7.61575C10.0219 7.73757 9.99591 7.86814 9.99591 8C9.99591 8.13186 10.0219 8.26243 10.0723 8.38425C10.1228 8.50607 10.1968 8.61676 10.29 8.71L12.59 11H5C4.73478 11 4.48043 11.1054 4.29289 11.2929C4.10536 11.4804 4 11.7348 4 12ZM17 2H7C6.20435 2 5.44129 2.31607 4.87868 2.87868C4.31607 3.44129 4 4.20435 4 5V8C4 8.26522 4.10536 8.51957 4.29289 8.70711C4.48043 8.89464 4.73478 9 5 9C5.26522 9 5.51957 8.89464 5.70711 8.70711C5.89464 8.51957 6 8.26522 6 8V5C6 4.73478 6.10536 4.48043 6.29289 4.29289C6.48043 4.10536 6.73478 4 7 4H17C17.2652 4 17.5196 4.10536 17.7071 4.29289C17.8946 4.48043 18 4.73478 18 5V19C18 19.2652 17.8946 19.5196 17.7071 19.7071C17.5196 19.8946 17.2652 20 17 20H7C6.73478 20 6.48043 19.8946 6.29289 19.7071C6.10536 19.5196 6 19.2652 6 19V16C6 15.7348 5.89464 15.4804 5.70711 15.2929C5.51957 15.1054 5.26522 15 5 15C4.73478 15 4.48043 15.1054 4.29289 15.2929C4.10536 15.4804 4 15.7348 4 16V19C4 19.7956 4.31607 20.5587 4.87868 21.1213C5.44129 21.6839 6.20435 22 7 22H17C17.7956 22 18.5587 21.6839 19.1213 21.1213C19.6839 20.5587 20 19.7956 20 19V5C20 4.20435 19.6839 3.44129 19.1213 2.87868C18.5587 2.31607 17.7956 2 17 2Z" fill="currentColor" />
  </symbol>
  <symbol viewBox="0 0 24 24" fill="none" xmlns="http://www.w3.org/2000/svg" id="interface-sign-in-alt">
    <path d="M12.59 13l-2.3 2.29a1.002 1.002 0 0 0 .325 1.639 1 1 0 0 0 1.095-.219l4-4a1 1 0 0 0 .21-.33 1 1 0 0 0 0-.76 1 1 0 0 0-.21-.33l-4-4a1.003 1.003 0 1 0-1.42 1.42l2.3 2.29H3a1 1 0 0 0 0 2h9.59zM12 2a10 10 0 0 0-9 5.55 1.006 1.006 0 1 0 1.8.9A8 8 0 1 1 12 20a7.929 7.929 0 0 1-7.16-4.45 1.006 1.006 0 0 0-1.8.9A10 10 0 1 0 12 2z" fill="currentColor"></path>
  </symbol>
  <symbol viewBox="0 0 24 24" fill="none" xmlns="http://www.w3.org/2000/svg" id="interface-sign-out-alt">
    <path d="M20.5 15.1a1 1 0 0 0-1.34.45A8 8 0 1 1 12 4a7.93 7.93 0 0 1 7.16 4.45 1.006 1.006 0 0 0 1.8-.9 10 10 0 1 0 0 8.9 1 1 0 0 0-.46-1.35zM21 11h-9.59l2.3-2.29A1.005 1.005 0 0 0 13 6.996a1.004 1.004 0 0 0-.71.294l-4 4a1 1 0 0 0-.21.33 1 1 0 0 0 0 .76 1 1 0 0 0 .21.33l4 4a1.002 1.002 0 0 0 1.639-.325 1 1 0 0 0-.219-1.095L11.41 13H21a1 1 0 1 0 0-2z" fill="currentColor"></path>
  </symbol>
  <symbol viewBox="0 0 24 24" fill="none" xmlns="http://www.w3.org/2000/svg" id="interface-power">
    <path d="M10.21 6.21l.79-.8V10a1 1 0 1 0 2 0V5.41l.79.8a.999.999 0 0 0 1.42 0 1.001 1.001 0 0 0 0-1.42l-2.5-2.5a1 1 0 0 0-.33-.21 1 1 0 0 0-.76 0 1 1 0 0 0-.33.21l-2.5 2.5a1.004 1.004 0 1 0 1.42 1.42zM18 7.56A1.018 1.018 0 0 0 16.56 9a6.45 6.45 0 1 1-9.12 0A1.018 1.018 0 0 0 6 7.56a8.46 8.46 0 1 0 12 0z" fill="currentColor"></path>
  </symbol>
  <symbol viewBox="0 0 24 24" fill="none" xmlns="http://www.w3.org/2000/svg" id="interface-bluetooth-b">
    <path d="M13.41 12l3.8-3.79a1.001 1.001 0 0 0 0-1.42l-4.5-4.5a1 1 0 0 0-.33-.21 1 1 0 0 0-.76 0 1 1 0 0 0-.54.54c-.051.12-.078.25-.08.38v6.59l-2.79-2.8a1.004 1.004 0 1 0-1.42 1.42l3.8 3.79-3.8 3.79a1.004 1.004 0 1 0 1.42 1.42l2.79-2.8V21c.002.13.029.26.08.38a1 1 0 0 0 .54.54.94.94 0 0 0 .76 0 1.02 1.02 0 0 0 .33-.21l4.5-4.5a1.002 1.002 0 0 0 0-1.42L13.41 12zM13 5.41l2.09 2.09L13 9.59V5.41zm0 13.18v-4.18l2.09 2.09L13 18.59z" fill="currentColor"></path>
  </symbol>
  <symbol viewBox="0 0 24 24" fill="none" xmlns="http://www.w3.org/2000/svg" id="interface-minus-square">
    <path d="M19 2H5a3 3 0 0 0-3 3v14a3 3 0 0 0 3 3h14a3 3 0 0 0 3-3V5a3 3 0 0 0-3-3zm1 17a1 1 0 0 1-1 1H5a1 1 0 0 1-1-1V5a1 1 0 0 1 1-1h14a1 1 0 0 1 1 1v14zm-4-8H8a1 1 0 0 0 0 2h8a1 1 0 0 0 0-2z" fill="currentColor"></path>
  </symbol>
  <symbol viewBox="0 0 24 24" fill="none" xmlns="http://www.w3.org/2000/svg" id="interface-minus">
    <path d="M19 11H5a1 1 0 0 0 0 2h14a1 1 0 0 0 0-2z" fill="currentColor"></path>
  </symbol>
  <symbol viewBox="0 0 24 24" fill="none" xmlns="http://www.w3.org/2000/svg" id="interface-plus-circle">
    <path d="M12 2a10 10 0 1 0 0 20 10 10 0 0 0 0-20zm0 18a8 8 0 1 1 0-16.001A8 8 0 0 1 12 20zm4-9h-3V8a1 1 0 0 0-2 0v3H8a1 1 0 0 0 0 2h3v3a1 1 0 0 0 2 0v-3h3a1 1 0 0 0 0-2z" fill="currentColor"></path>
  </symbol>
  <symbol viewBox="0 0 24 24" fill="none" xmlns="http://www.w3.org/2000/svg" id="interface-plus-square">
    <path d="M9 13h2v2a1 1 0 0 0 2 0v-2h2a1 1 0 0 0 0-2h-2V9a1 1 0 0 0-2 0v2H9a1 1 0 0 0 0 2zM21 2H3a1 1 0 0 0-1 1v18a1 1 0 0 0 1 1h18a1 1 0 0 0 1-1V3a1 1 0 0 0-1-1zm-1 18H4V4h16v16z" fill="currentColor"></path>
  </symbol>
  <symbol viewBox="0 0 24 24" fill="none" xmlns="http://www.w3.org/2000/svg" id="interface-plus">
    <path d="M19 11h-6V5a1 1 0 0 0-2 0v6H5a1 1 0 0 0 0 2h6v6a1 1 0 0 0 2 0v-6h6a1 1 0 0 0 0-2z" fill="currentColor"></path>
  </symbol>
  <symbol viewBox="0 0 24 24" fill="none" xmlns="http://www.w3.org/2000/svg" id="interface-thumbs-down">
    <path d="M19 2H6.27a3 3 0 0 0-2.95 2.46l-1.27 7A3 3 0 0 0 5 15h4.56L9 16.43A4.13 4.13 0 0 0 12.89 22a1 1 0 0 0 .91-.59L16.65 15H19a3 3 0 0 0 3-3V5a3 3 0 0 0-3-3zm-4 11.79l-2.72 6.12a2.131 2.131 0 0 1-1.38-2.78l.53-1.43A2 2 0 0 0 9.56 13H5a1 1 0 0 1-.77-.36 1 1 0 0 1-.23-.82l1.27-7a1 1 0 0 1 1-.82H15v9.79zM20 12a1 1 0 0 1-1 1h-2V4h2a1 1 0 0 1 1 1v7z" fill="currentColor"></path>
  </symbol>
  <symbol viewBox="0 0 24 24" fill="none" xmlns="http://www.w3.org/2000/svg" id="interface-thumbs-up">
    <path d="M21.3 10.08A3 3 0 0 0 19 9h-4.56L15 7.57A4.13 4.13 0 0 0 11.11 2a1 1 0 0 0-.91.59L7.35 9H5a3 3 0 0 0-3 3v7a3 3 0 0 0 3 3h12.73a3 3 0 0 0 2.95-2.46l1.27-7a3 3 0 0 0-.65-2.46zM7 20H5a1 1 0 0 1-1-1v-7a1 1 0 0 1 1-1h2v9zm13-7.82l-1.27 7a1 1 0 0 1-1 .82H9v-9.79l2.72-6.12a2.11 2.11 0 0 1 1.38 2.78l-.53 1.43a2 2 0 0 0 1.87 2.7H19a1 1 0 0 1 .77.36 1.002 1.002 0 0 1 .23.82z" fill="currentColor"></path>
  </symbol>
  <symbol viewBox="0 0 24 24" fill="none" xmlns="http://www.w3.org/2000/svg" id="interface-bell">
    <path d="M18 13.18V10a6 6 0 0 0-5-5.91V3a1 1 0 0 0-2 0v1.09A6 6 0 0 0 6 10v3.18A3 3 0 0 0 4 16v2a1 1 0 0 0 1 1h3.14a4 4 0 0 0 7.72 0H19a1 1 0 0 0 1-1v-2a3 3 0 0 0-2-2.82zM8 10a4 4 0 0 1 8 0v3H8v-3zm4 10a2 2 0 0 1-1.72-1h3.44A2 2 0 0 1 12 20zm6-3H6v-1a1 1 0 0 1 1-1h10a1 1 0 0 1 1 1v1z" fill="currentColor"></path>
  </symbol>
  <symbol viewBox="0 0 24 24" fill="none" xmlns="http://www.w3.org/2000/svg" id="interface-bell-alt">
    <path d="M18 12.1349V8.95491C17.9986 7.53803 17.4958 6.16738 16.5806 5.08568C15.6655 4.00399 14.3971 3.28105 13 3.04491C12.3347 2.98503 11.6653 2.98503 11 3.04491C9.60294 3.28105 8.33452 4.00399 7.41939 5.08568C6.50425 6.16738 6.00144 7.53803 6 8.95491V12.1349C5.41645 12.3412 4.911 12.723 4.55294 13.2278C4.19488 13.7327 4.00174 14.336 4 14.9549V16.9549C4 17.2201 4.10536 17.4745 4.29289 17.662C4.48043 17.8496 4.73478 17.9549 5 17.9549H8.14C8.37028 18.8023 8.873 19.5503 9.5706 20.0836C10.2682 20.617 11.1219 20.9059 12 20.9059C12.8781 20.9059 13.7318 20.617 14.4294 20.0836C15.127 19.5503 15.6297 18.8023 15.86 17.9549H19C19.2652 17.9549 19.5196 17.8496 19.7071 17.662C19.8946 17.4745 20 17.2201 20 16.9549V14.9549C19.9983 14.336 19.8051 13.7327 19.4471 13.2278C19.089 12.723 18.5835 12.3412 18 12.1349ZM12 18.9549C11.651 18.9528 11.3086 18.8594 11.0068 18.684C10.7051 18.5085 10.4545 18.2572 10.28 17.9549H13.72C13.5455 18.2572 13.2949 18.5085 12.9932 18.684C12.6914 18.8594 12.349 18.9528 12 18.9549Z" fill="currentColor" />
  </symbol>
  <symbol viewBox="0 0 24 24" fill="none" xmlns="http://www.w3.org/2000/svg" id="interface-edit-alt">
    <path d="M5 18h4.24a.999.999 0 0 0 .71-.29l6.92-6.93L19.71 8a1.001 1.001 0 0 0 0-1.42l-4.24-4.29a1 1 0 0 0-1.42 0l-2.82 2.83-6.94 6.93a1.001 1.001 0 0 0-.29.71V17a1 1 0 0 0 1 1zm9.76-13.59l2.83 2.83-1.42 1.42-2.83-2.83 1.42-1.42zM6 13.17l5.93-5.93 2.83 2.83L8.83 16H6v-2.83zM21 20H3a1 1 0 0 0 0 2h18a1 1 0 1 0 0-2z" fill="currentColor"></path>
  </symbol>
  <symbol viewBox="0 0 24 24" fill="none" xmlns="http://www.w3.org/2000/svg" id="interface-user-arrows">
    <path d="M20.6403 15.7718C21.1913 15.1429 21.4966 14.3361 21.5 13.5C21.5 12.5717 21.1313 11.6815 20.4749 11.0251C19.8185 10.3687 18.9283 9.99999 18 9.99999C17.0717 9.99999 16.1815 10.3687 15.5251 11.0251C14.8687 11.6815 14.5 12.5717 14.5 13.5C14.5034 14.3361 14.8087 15.1429 15.3597 15.7718C14.6397 16.2182 14.0453 16.8406 13.6324 17.5804C13.2196 18.3201 13.0019 19.1528 13 20C13 20.2652 13.1054 20.5196 13.2929 20.7071C13.4804 20.8946 13.7348 21 14 21C14.2652 21 14.5196 20.8946 14.7071 20.7071C14.8946 20.5196 15 20.2652 15 20C15 19.2043 15.3161 18.4413 15.8787 17.8787C16.4413 17.3161 17.2044 17 18 17C18.7956 17 19.5587 17.3161 20.1213 17.8787C20.6839 18.4413 21 19.2043 21 20C21 20.2652 21.1054 20.5196 21.2929 20.7071C21.4804 20.8946 21.7348 21 22 21C22.2652 21 22.5196 20.8946 22.7071 20.7071C22.8946 20.5196 23 20.2652 23 20C22.9981 19.1528 22.7804 18.3201 22.3676 17.5804C21.9547 16.8406 21.3603 16.2182 20.6403 15.7718ZM18 15C17.7033 15 17.4133 14.912 17.1666 14.7472C16.92 14.5824 16.7277 14.3481 16.6142 14.074C16.5007 13.7999 16.4709 13.4983 16.5288 13.2074C16.5867 12.9164 16.7296 12.6491 16.9393 12.4393C17.1491 12.2295 17.4164 12.0867 17.7074 12.0288C17.9983 11.9709 18.2999 12.0006 18.574 12.1142C18.8481 12.2277 19.0824 12.42 19.2472 12.6666C19.412 12.9133 19.5 13.2033 19.5 13.5C19.4996 13.8977 19.3414 14.279 19.0602 14.5602C18.779 14.8414 18.3977 14.9996 18 15ZM6.79327 7.70733L8.793 9.70699C8.98109 9.8917 9.23451 9.99466 9.49812 9.99346C9.76174 9.99227 10.0142 9.88702 10.2006 9.70061C10.387 9.51421 10.4923 9.26173 10.4935 8.99811C10.4947 8.7345 10.3917 8.48107 10.207 8.29299L9.91406 7.99999H14.0859L13.7929 8.29299C13.6991 8.38562 13.6246 8.4959 13.5736 8.61746C13.5225 8.73902 13.496 8.86948 13.4956 9.00131C13.4952 9.13315 13.5209 9.26376 13.5711 9.38564C13.6214 9.50752 13.6953 9.61826 13.7885 9.71148C13.8817 9.8047 13.9925 9.87857 14.1144 9.92882C14.2362 9.97908 14.3669 10.0047 14.4987 10.0043C14.6305 10.0039 14.761 9.97742 14.8825 9.92639C15.0041 9.87536 15.1144 9.8008 15.207 9.70699L17.2067 7.7073C17.3935 7.51929 17.4984 7.265 17.4984 6.99996C17.4984 6.73491 17.3935 6.48063 17.2067 6.29262L15.207 4.29299C15.0189 4.10828 14.7655 4.00532 14.5019 4.00651C14.2383 4.00771 13.9858 4.11296 13.7994 4.29936C13.613 4.48577 13.5077 4.73825 13.5065 5.00186C13.5053 5.26548 13.6083 5.5189 13.793 5.70699L14.086 5.99999H9.91406L10.2071 5.70699C10.3926 5.51907 10.4963 5.26537 10.4955 5.00127C10.4946 4.73717 10.3893 4.48413 10.2026 4.29739C10.0158 4.11065 9.7628 4.00538 9.49871 4.00455C9.23461 4.00373 8.98091 4.10742 8.793 4.29299L6.79327 6.29265C6.60645 6.48066 6.5016 6.73494 6.5016 6.99999C6.5016 7.26503 6.60645 7.51932 6.79327 7.70733ZM8.64027 15.7718C9.19131 15.1429 9.49662 14.3361 9.5 13.5C9.5 12.5717 9.13125 11.6815 8.47487 11.0251C7.8185 10.3687 6.92826 9.99999 6 9.99999C5.07174 9.99999 4.1815 10.3687 3.52513 11.0251C2.86875 11.6815 2.5 12.5717 2.5 13.5C2.50338 14.3361 2.8087 15.1429 3.35974 15.7718C2.63973 16.2182 2.04527 16.8406 1.63242 17.5804C1.21957 18.3201 1.00192 19.1528 1 20C1 20.2652 1.10536 20.5196 1.29289 20.7071C1.48043 20.8946 1.73478 21 2 21C2.26522 21 2.51957 20.8946 2.70711 20.7071C2.89464 20.5196 3 20.2652 3 20C3 19.2043 3.31607 18.4413 3.87868 17.8787C4.44129 17.3161 5.20435 17 6 17C6.79565 17 7.55871 17.3161 8.12132 17.8787C8.68393 18.4413 9 19.2043 9 20C9 20.2652 9.10536 20.5196 9.29289 20.7071C9.48043 20.8946 9.73478 21 10 21C10.2652 21 10.5196 20.8946 10.7071 20.7071C10.8946 20.5196 11 20.2652 11 20C10.9981 19.1528 10.7804 18.3201 10.3676 17.5804C9.95473 16.8406 9.36027 16.2182 8.64026 15.7718H8.64027ZM6 15C5.70333 15 5.41332 14.912 5.16664 14.7472C4.91997 14.5824 4.72771 14.3481 4.61418 14.074C4.50065 13.7999 4.47094 13.4983 4.52882 13.2074C4.5867 12.9164 4.72956 12.6491 4.93934 12.4393C5.14912 12.2295 5.41639 12.0867 5.70736 12.0288C5.99834 11.9709 6.29994 12.0006 6.57403 12.1142C6.84811 12.2277 7.08238 12.42 7.2472 12.6666C7.41203 12.9133 7.5 13.2033 7.5 13.5C7.49957 13.8977 7.34139 14.279 7.06018 14.5602C6.77897 14.8414 6.39769 14.9996 6 15Z" fill="currentColor" />
  </symbol>
  <symbol viewBox="0 0 24 24" fill="none" xmlns="http://www.w3.org/2000/svg" id="interface-headside">
    <path d="M13.2305 2.00342C12.2254 1.96514 11.2232 2.13292 10.2854 2.49644C9.34756 2.85996 8.49406 3.41152 7.77737 4.11719C7.05408 4.81423 6.47941 5.65051 6.08802 6.57561C5.69663 7.50072 5.49661 8.49551 5.50003 9.5V9.53027L3.59573 13.5737C3.52376 13.7261 3.49149 13.8942 3.50191 14.0624C3.51234 14.2306 3.56513 14.3934 3.65536 14.5357C3.7456 14.6781 3.87035 14.7952 4.01803 14.8764C4.16571 14.9576 4.33151 15.0001 4.50003 15H5.50003V17C5.50063 17.5302 5.71154 18.0386 6.08648 18.4135C6.46142 18.7885 6.96978 18.9994 7.50003 19H8.50003V21C8.50003 21.2652 8.60538 21.5196 8.79292 21.7071C8.98046 21.8946 9.23481 22 9.50003 22C9.76524 22 10.0196 21.8946 10.2071 21.7071C10.3947 21.5196 10.5 21.2652 10.5 21V19C10.7652 19 11.0196 18.8946 11.2071 18.7071C11.3947 18.5196 11.5 18.2652 11.5 18C11.5 17.7348 11.3947 17.4804 11.2071 17.2929C11.0196 17.1054 10.7652 17 10.5 17H7.50003V14C7.50006 13.8687 7.47422 13.7386 7.42398 13.6173C7.37373 13.4959 7.30008 13.3857 7.20721 13.2928C7.11435 13.2 7.00409 13.1263 6.88275 13.076C6.76141 13.0258 6.63136 13 6.50003 13H6.0762L7.41603 10.1558C7.48472 10.0109 7.51722 9.85158 7.51075 9.69141C7.51075 9.68115 7.50099 9.51025 7.50001 9.5C7.49742 8.76339 7.64406 8.03388 7.93106 7.35548C8.21807 6.67708 8.6395 6.06383 9.16995 5.55273C9.69971 5.04077 10.3265 4.63989 11.0134 4.37366C11.7003 4.10742 12.4335 3.98121 13.1699 4.00244C14.6302 4.09354 15.9991 4.74412 16.9918 5.81882C17.9846 6.89353 18.5248 8.3096 18.5 9.77246L16.5332 17.2773C16.4873 17.4525 16.4893 17.6369 16.5391 17.811L17.5391 21.2773C17.5994 21.4857 17.7256 21.6688 17.8989 21.7992C18.0722 21.9296 18.2832 22.0003 18.5 22.0005C18.5939 22.0002 18.6872 21.9868 18.7774 21.9609C19.0322 21.8873 19.2473 21.7155 19.3755 21.4833C19.5037 21.2511 19.5344 20.9775 19.461 20.7227L18.5371 17.5225L20.4668 10.2563C20.4886 10.1726 20.4998 10.0865 20.5 10V9.77246C20.5214 7.7907 19.7776 5.87705 18.4235 4.4299C17.0694 2.98275 15.2093 2.11361 13.2305 2.00342Z" fill="currentColor" />
  </symbol>
  <symbol viewBox="0 0 24 24" fill="none" xmlns="http://www.w3.org/2000/svg" id="interface-save">
    <path d="M20.71 9.29L14.71 3.29C14.6178 3.20005 14.5092 3.12874 14.39 3.08C14.266 3.02962 14.1338 3.0025 14 3H6C5.20435 3 4.44129 3.31607 3.87868 3.87868C3.31607 4.44129 3 5.20435 3 6V18C3 18.7956 3.31607 19.5587 3.87868 20.1213C4.44129 20.6839 5.20435 21 6 21H18C18.7956 21 19.5587 20.6839 20.1213 20.1213C20.6839 19.5587 21 18.7956 21 18V10C21.0008 9.86839 20.9755 9.73793 20.9258 9.61609C20.876 9.49426 20.8027 9.38344 20.71 9.29ZM9 5H13V7H9V5ZM15 19H9V16C9 15.7348 9.10536 15.4804 9.29289 15.2929C9.48043 15.1054 9.73478 15 10 15H14C14.2652 15 14.5196 15.1054 14.7071 15.2929C14.8946 15.4804 15 15.7348 15 16V19ZM19 18C19 18.2652 18.8946 18.5196 18.7071 18.7071C18.5196 18.8946 18.2652 19 18 19H17V16C17 15.2044 16.6839 14.4413 16.1213 13.8787C15.5587 13.3161 14.7956 13 14 13H10C9.20435 13 8.44129 13.3161 7.87868 13.8787C7.31607 14.4413 7 15.2044 7 16V19H6C5.73478 19 5.48043 18.8946 5.29289 18.7071C5.10536 18.5196 5 18.2652 5 18V6C5 5.73478 5.10536 5.48043 5.29289 5.29289C5.48043 5.10536 5.73478 5 6 5H7V8C7 8.26522 7.10536 8.51957 7.29289 8.70711C7.48043 8.89464 7.73478 9 8 9H14C14.2652 9 14.5196 8.89464 14.7071 8.70711C14.8946 8.51957 15 8.26522 15 8V6.41L19 10.41V18Z" fill="currentColor" />
  </symbol>
  <symbol viewBox="0 0 24 24" fill="none" xmlns="http://www.w3.org/2000/svg" id="interface-ellipsis-h">
    <path d="M12 10a2 2 0 1 0 0 4 2 2 0 0 0 0-4zm-7 0a2 2 0 1 0 0 4 2 2 0 0 0 0-4zm14 0a2 2 0 1 0 0 4 2 2 0 0 0 0-4z" fill="currentColor"></path>
  </symbol>
  <symbol viewBox="0 0 24 24" fill="none" xmlns="http://www.w3.org/2000/svg" id="interface-ellipsis-v">
    <path d="M12 7a2 2 0 1 0 0-4 2 2 0 0 0 0 4zm0 10a2 2 0 1 0 0 4 2 2 0 0 0 0-4zm0-7a2 2 0 1 0 0 4 2 2 0 0 0 0-4z" fill="currentColor"></path>
  </symbol>
  <symbol viewBox="0 0 24 24" fill="none" xmlns="http://www.w3.org/2000/svg" id="interface-export">
    <path d="M8.71 7.71L11 5.41V15a1 1 0 0 0 2 0V5.41l2.29 2.3a1 1 0 0 0 1.639-.326 1 1 0 0 0-.219-1.094l-4-4a1 1 0 0 0-.33-.21 1 1 0 0 0-.76 0 1 1 0 0 0-.33.21l-4 4a1.004 1.004 0 1 0 1.42 1.42zM21 14a1 1 0 0 0-1 1v4a1 1 0 0 1-1 1H5a1 1 0 0 1-1-1v-4a1 1 0 1 0-2 0v4a3 3 0 0 0 3 3h14a3 3 0 0 0 3-3v-4a1 1 0 0 0-1-1z" fill="currentColor"></path>
  </symbol>
  <symbol viewBox="0 0 24 24" fill="none" xmlns="http://www.w3.org/2000/svg" id="interface-signout">
    <path d="M4 12C4 12.2652 4.10536 12.5196 4.29289 12.7071C4.48043 12.8946 4.73478 13 5 13H12.59L10.29 15.29C10.1963 15.383 10.1219 15.4936 10.0711 15.6154C10.0203 15.7373 9.9942 15.868 9.9942 16C9.9942 16.132 10.0203 16.2627 10.0711 16.3846C10.1219 16.5064 10.1963 16.617 10.29 16.71C10.383 16.8037 10.4936 16.8781 10.6154 16.9289C10.7373 16.9797 10.868 17.0058 11 17.0058C11.132 17.0058 11.2627 16.9797 11.3846 16.9289C11.5064 16.8781 11.617 16.8037 11.71 16.71L15.71 12.71C15.801 12.6149 15.8724 12.5028 15.92 12.38C16.02 12.1365 16.02 11.8635 15.92 11.62C15.8724 11.4972 15.801 11.3851 15.71 11.29L11.71 7.29C11.6168 7.19676 11.5061 7.1228 11.3842 7.07234C11.2624 7.02188 11.1319 6.99591 11 6.99591C10.8681 6.99591 10.7376 7.02188 10.6158 7.07234C10.4939 7.1228 10.3832 7.19676 10.29 7.29C10.1968 7.38324 10.1228 7.49393 10.0723 7.61575C10.0219 7.73757 9.99591 7.86814 9.99591 8C9.99591 8.13186 10.0219 8.26243 10.0723 8.38425C10.1228 8.50607 10.1968 8.61676 10.29 8.71L12.59 11H5C4.73478 11 4.48043 11.1054 4.29289 11.2929C4.10536 11.4804 4 11.7348 4 12ZM17 2H7C6.20435 2 5.44129 2.31607 4.87868 2.87868C4.31607 3.44129 4 4.20435 4 5V8C4 8.26522 4.10536 8.51957 4.29289 8.70711C4.48043 8.89464 4.73478 9 5 9C5.26522 9 5.51957 8.89464 5.70711 8.70711C5.89464 8.51957 6 8.26522 6 8V5C6 4.73478 6.10536 4.48043 6.29289 4.29289C6.48043 4.10536 6.73478 4 7 4H17C17.2652 4 17.5196 4.10536 17.7071 4.29289C17.8946 4.48043 18 4.73478 18 5V19C18 19.2652 17.8946 19.5196 17.7071 19.7071C17.5196 19.8946 17.2652 20 17 20H7C6.73478 20 6.48043 19.8946 6.29289 19.7071C6.10536 19.5196 6 19.2652 6 19V16C6 15.7348 5.89464 15.4804 5.70711 15.2929C5.51957 15.1054 5.26522 15 5 15C4.73478 15 4.48043 15.1054 4.29289 15.2929C4.10536 15.4804 4 15.7348 4 16V19C4 19.7956 4.31607 20.5587 4.87868 21.1213C5.44129 21.6839 6.20435 22 7 22H17C17.7956 22 18.5587 21.6839 19.1213 21.1213C19.6839 20.5587 20 19.7956 20 19V5C20 4.20435 19.6839 3.44129 19.1213 2.87868C18.5587 2.31607 17.7956 2 17 2Z" fill="currentColor" />
  </symbol>
  <symbol viewBox="0 0 24 24" fill="none" xmlns="http://www.w3.org/2000/svg" id="interface-sliders-v">
    <path d="M7 6H6V3a1 1 0 0 0-2 0v3H3a1 1 0 0 0 0 2h4a1 1 0 0 0 0-2zm-2 4a1 1 0 0 0-1 1v10a1 1 0 1 0 2 0V11a1 1 0 0 0-1-1zm7 8a1 1 0 0 0-1 1v2a1 1 0 0 0 2 0v-2a1 1 0 0 0-1-1zm9-8h-1V3a1 1 0 0 0-2 0v7h-1a1 1 0 0 0 0 2h4a1 1 0 0 0 0-2zm-2 4a1 1 0 0 0-1 1v6a1 1 0 0 0 2 0v-6a1 1 0 0 0-1-1zm-5 0h-1V3a1 1 0 0 0-2 0v11h-1a1 1 0 0 0 0 2h4a1 1 0 0 0 0-2z" fill="currentColor"></path>
  </symbol>
  <symbol viewBox="0 0 24 24" fill="none" xmlns="http://www.w3.org/2000/svg" id="interface-times-circle">
    <path d="M15.71 8.29a1 1 0 0 0-1.42 0L12 10.59l-2.29-2.3a1.004 1.004 0 0 0-1.42 1.42l2.3 2.29-2.3 2.29a1 1 0 0 0 .325 1.639 1 1 0 0 0 1.095-.219l2.29-2.3 2.29 2.3a1.002 1.002 0 0 0 1.639-.325 1 1 0 0 0-.219-1.095L13.41 12l2.3-2.29a1 1 0 0 0 0-1.42zM19 2H5a3 3 0 0 0-3 3v14a3 3 0 0 0 3 3h14a3 3 0 0 0 3-3V5a3 3 0 0 0-3-3zm1 17a1 1 0 0 1-1 1H5a1 1 0 0 1-1-1V5a1 1 0 0 1 1-1h14a1 1 0 0 1 1 1v14z" fill="currentColor"></path>
  </symbol>
  <symbol viewBox="0 0 24 24" fill="none" xmlns="http://www.w3.org/2000/svg" id="interface-times-square">
    <path d="M15.71 8.29a.999.999 0 0 0-1.42 0L12 10.59l-2.29-2.3a1.004 1.004 0 0 0-1.42 1.42l2.3 2.29-2.3 2.29a.999.999 0 0 0 0 1.42 1 1 0 0 0 1.42 0l2.29-2.3 2.29 2.3a1.002 1.002 0 0 0 1.639-.325 1 1 0 0 0-.219-1.095L13.41 12l2.3-2.29a1 1 0 0 0 0-1.42zm3.36-3.36A10 10 0 1 0 4.93 19.07 10 10 0 1 0 19.07 4.93zm-1.41 12.73A8 8 0 1 1 20 12a7.949 7.949 0 0 1-2.34 5.66z" fill="currentColor"></path>
  </symbol>
  <symbol viewBox="0 0 24 24" fill="none" xmlns="http://www.w3.org/2000/svg" id="interface-times">
    <path d="M13.41 12l4.3-4.29a1.004 1.004 0 1 0-1.42-1.42L12 10.59l-4.29-4.3a1.004 1.004 0 0 0-1.42 1.42l4.3 4.29-4.3 4.29a1 1 0 0 0 0 1.42.998.998 0 0 0 1.42 0l4.29-4.3 4.29 4.3a.999.999 0 0 0 1.42 0 1 1 0 0 0 0-1.42L13.41 12z" fill="currentColor"></path>
  </symbol>
  <symbol viewBox="0 0 24 24" fill="none" xmlns="http://www.w3.org/2000/svg" id="interface-multiply">
    <path d="M13.41 12l6.3-6.29a1.004 1.004 0 1 0-1.42-1.42L12 10.59l-6.29-6.3a1.004 1.004 0 0 0-1.42 1.42l6.3 6.29-6.3 6.29a1 1 0 0 0 0 1.42.998.998 0 0 0 1.42 0l6.29-6.3 6.29 6.3a.999.999 0 0 0 1.42 0 1 1 0 0 0 0-1.42L13.41 12z" fill="currentColor"></path>
  </symbol>
  <symbol viewBox="0 0 24 24" fill="none" xmlns="http://www.w3.org/2000/svg" id="interface-check-circle">
    <path d="M14.72 8.79l-4.29 4.3-1.65-1.65a1 1 0 1 0-1.41 1.41l2.35 2.36a1 1 0 0 0 1.41 0l5-5a1.002 1.002 0 1 0-1.41-1.42zM12 2a10 10 0 1 0 0 20 10 10 0 0 0 0-20zm0 18a8 8 0 1 1 0-16.001A8 8 0 0 1 12 20z" fill="currentColor"></path>
  </symbol>
  <symbol viewBox="0 0 24 24" fill="none" xmlns="http://www.w3.org/2000/svg" id="interface-check">
    <path d="M18.71 7.21a1.001 1.001 0 0 0-1.42 0l-7.45 7.46-3.13-3.14a1.024 1.024 0 0 0-1.445.025A1.022 1.022 0 0 0 5.29 13l3.84 3.84a1 1 0 0 0 1.42 0l8.16-8.16a1 1 0 0 0 0-1.47z" fill="currentColor"></path>
  </symbol>
  <symbol viewBox="0 0 24 24" fill="none" xmlns="http://www.w3.org/2000/svg" id="interface-home-alt">
    <path d="M20 8.00001L14 2.74001C13.45 2.24805 12.7379 1.97607 12 1.97607C11.262 1.97607 10.55 2.24805 9.99997 2.74001L3.99997 8.00001C3.68234 8.28408 3.42887 8.63256 3.25644 9.02225C3.08402 9.41194 2.99659 9.83389 2.99997 10.26V19C2.99997 19.7957 3.31604 20.5587 3.87865 21.1213C4.44126 21.6839 5.20432 22 5.99997 22H18C18.7956 22 19.5587 21.6839 20.1213 21.1213C20.6839 20.5587 21 19.7957 21 19V10.25C21.0019 9.82557 20.9138 9.40555 20.7414 9.01769C20.5691 8.62983 20.3163 8.28296 20 8.00001ZM14 20H9.99997V15C9.99997 14.7348 10.1053 14.4804 10.2929 14.2929C10.4804 14.1054 10.7348 14 11 14H13C13.2652 14 13.5195 14.1054 13.7071 14.2929C13.8946 14.4804 14 14.7348 14 15V20Z" fill="currentColor" />
  </symbol>
</svg>