<svg width="0" height="0" class="hidden">
  <symbol viewBox="0 0 24 24" fill="none" xmlns="http://www.w3.org/2000/svg" id="location-hospital-symbol">
    <path d="M15 7C14.8687 6.99997 14.7386 7.02581 14.6173 7.07605C14.4959 7.12629 14.3857 7.19995 14.2928 7.29282C14.2 7.38568 14.1263 7.49593 14.0761 7.61728C14.0258 7.73862 14 7.86867 14 8V11H10V8C10 7.73478 9.89465 7.48043 9.70711 7.29289C9.51957 7.10536 9.26522 7 9 7C8.73479 7 8.48043 7.10536 8.2929 7.29289C8.10536 7.48043 8 7.73478 8 8V16C8 16.2652 8.10536 16.5196 8.2929 16.7071C8.48043 16.8946 8.73479 17 9 17C9.26522 17 9.51957 16.8946 9.70711 16.7071C9.89465 16.5196 10 16.2652 10 16V13H14V16C14 16.2652 14.1054 16.5196 14.2929 16.7071C14.4804 16.8946 14.7348 17 15 17C15.2652 17 15.5196 16.8946 15.7071 16.7071C15.8946 16.5196 16 16.2652 16 16V8C16 7.86867 15.9742 7.73862 15.924 7.61728C15.8737 7.49593 15.8001 7.38568 15.7072 7.29282C15.6143 7.19995 15.5041 7.12629 15.3827 7.07605C15.2614 7.02581 15.1313 6.99997 15 7ZM12 2C10.0222 2 8.08879 2.58649 6.4443 3.6853C4.79981 4.78412 3.51809 6.3459 2.76121 8.17317C2.00433 10.0004 1.8063 12.0111 2.19215 13.9509C2.578 15.8907 3.53041 17.6725 4.92894 19.0711C6.32746 20.4696 8.10929 21.422 10.0491 21.8079C11.9889 22.1937 13.9996 21.9957 15.8268 21.2388C17.6541 20.4819 19.2159 19.2002 20.3147 17.5557C21.4135 15.9112 22 13.9778 22 12C21.997 9.34877 20.9424 6.80699 19.0677 4.93228C17.193 3.05758 14.6512 2.00303 12 2ZM12 20C10.4178 20 8.87104 19.5308 7.55544 18.6518C6.23985 17.7727 5.21447 16.5233 4.60897 15.0615C4.00347 13.5997 3.84504 11.9911 4.15372 10.4393C4.4624 8.88743 5.22433 7.46197 6.34315 6.34315C7.46197 5.22433 8.88743 4.4624 10.4393 4.15372C11.9911 3.84504 13.5997 4.00346 15.0615 4.60896C16.5233 5.21447 17.7727 6.23984 18.6518 7.55544C19.5308 8.87103 20 10.4177 20 12C19.9976 14.121 19.1539 16.1544 17.6542 17.6542C16.1544 19.1539 14.121 19.9976 12 20Z" fill="currentColor" />
  </symbol>
  <symbol viewBox="0 0 24 24" fill="none" xmlns="http://www.w3.org/2000/svg" id="location-hospital-square-sign">
    <path d="M15 6C14.8687 5.99997 14.7386 6.02581 14.6173 6.07605C14.4959 6.12629 14.3857 6.19995 14.2928 6.29282C14.2 6.38568 14.1263 6.49593 14.0761 6.61728C14.0258 6.73862 14 6.86867 14 7V11H10V7C10 6.73478 9.89464 6.48043 9.70711 6.29289C9.51957 6.10536 9.26522 6 9 6C8.73478 6 8.48043 6.10536 8.29289 6.29289C8.10536 6.48043 8 6.73478 8 7V17C8 17.2652 8.10536 17.5196 8.29289 17.7071C8.48043 17.8946 8.73478 18 9 18C9.26522 18 9.51957 17.8946 9.70711 17.7071C9.89464 17.5196 10 17.2652 10 17V13H14V17C14 17.2652 14.1054 17.5196 14.2929 17.7071C14.4804 17.8946 14.7348 18 15 18C15.2652 18 15.5196 17.8946 15.7071 17.7071C15.8946 17.5196 16 17.2652 16 17V7C16 6.86867 15.9742 6.73862 15.9239 6.61728C15.8737 6.49593 15.8 6.38568 15.7072 6.29282C15.6143 6.19995 15.5041 6.12629 15.3827 6.07605C15.2614 6.02581 15.1313 5.99997 15 6ZM19 2H5C4.20462 2.00087 3.44206 2.31722 2.87964 2.87964C2.31722 3.44206 2.00087 4.20462 2 5V19C2.00087 19.7954 2.31722 20.5579 2.87964 21.1204C3.44206 21.6828 4.20462 21.9991 5 22H19C19.7954 21.9991 20.5579 21.6828 21.1204 21.1204C21.6828 20.5579 21.9991 19.7954 22 19V5C21.9991 4.20462 21.6828 3.44206 21.1204 2.87964C20.5579 2.31722 19.7954 2.00087 19 2ZM20 19C19.9997 19.2651 19.8943 19.5193 19.7068 19.7068C19.5193 19.8943 19.2651 19.9997 19 20H5C4.73486 19.9997 4.48066 19.8943 4.29319 19.7068C4.10571 19.5193 4.00026 19.2651 4 19V5C4.00026 4.73486 4.10571 4.48066 4.29319 4.29319C4.48066 4.10571 4.73486 4.00026 5 4H19C19.2651 4.00026 19.5193 4.10571 19.7068 4.29319C19.8943 4.48066 19.9997 4.73486 20 5V19Z" fill="currentColor" />
  </symbol>
  <symbol viewBox="0 0 24 24" fill="none" xmlns="http://www.w3.org/2000/svg" id="location-map-pin">
    <path d="M16.37 12.79a1.001 1.001 0 0 0-.74 1.86C17.09 15.23 18 16.13 18 17c0 1.42-2.46 3-6 3s-6-1.58-6-3c0-.87.91-1.77 2.37-2.35a1 1 0 1 0-.74-1.86C5.36 13.69 4 15.26 4 17c0 2.8 3.51 5 8 5s8-2.2 8-5c0-1.74-1.36-3.31-3.63-4.21zM11 9.86V17a1 1 0 0 0 2 0V9.86a4 4 0 1 0-2 0zM12 4a2 2 0 1 1 0 4 2 2 0 0 1 0-4z" fill="currentColor"></path>
  </symbol>
  <symbol viewBox="0 0 24 24" fill="none" xmlns="http://www.w3.org/2000/svg" id="location-map-marker">
    <path d="M12 2a8 8 0 0 0-8 8c0 5.4 7.05 11.5 7.35 11.76a1 1 0 0 0 1.3 0C13 21.5 20 15.4 20 10a8 8 0 0 0-8-8zm0 17.65c-2.13-2-6-6.31-6-9.65a6 6 0 1 1 12 0c0 3.34-3.87 7.66-6 9.65zM12 6a4 4 0 1 0 0 8 4 4 0 0 0 0-8zm0 6a2 2 0 1 1 0-4 2 2 0 0 1 0 4z" fill="currentColor"></path>
  </symbol>
  <symbol viewBox="0 0 24 24" fill="none" xmlns="http://www.w3.org/2000/svg" id="location-map-marker-question">
    <path d="M12.44 13.11l-.17-.11a1 1 0 0 0-1.09.22 1.002 1.002 0 0 0-.3.71c.002.13.029.26.08.38.107.24.3.432.54.54.12.051.25.078.38.08a1 1 0 0 0 .71-.3 1 1 0 0 0 0-1.41l-.15-.11zM11.88 6A2.75 2.75 0 0 0 9.5 7.32a1 1 0 1 0 1.73 1 .77.77 0 0 1 .65-.32.75.75 0 1 1 0 1.5 1 1 0 1 0 0 2 2.75 2.75 0 1 0 0-5.5zm8.58 3.68A8.5 8.5 0 0 0 7.3 3.36a8.56 8.56 0 0 0-3.76 6.27A8.46 8.46 0 0 0 6 16.46l5.3 5.31a.999.999 0 0 0 1.42 0L18 16.46a8.46 8.46 0 0 0 2.46-6.83v.05zm-3.86 5.37l-4.6 4.6-4.6-4.6a6.49 6.49 0 0 1-1.87-5.22A6.57 6.57 0 0 1 8.42 5a6.47 6.47 0 0 1 7.16 0 6.57 6.57 0 0 1 2.89 4.81 6.49 6.49 0 0 1-1.87 5.24z" fill="currentColor"></path>
  </symbol>
  <symbol viewBox="0 0 24 24" fill="none" xmlns="http://www.w3.org/2000/svg" id="location-map-marker-shield">
    <path d="M14.41 6.53a2.24 2.24 0 0 1-1.82-.39 1 1 0 0 0-1.18 0 2.24 2.24 0 0 1-1.82.39 1 1 0 0 0-1.21.98v2.9A4.14 4.14 0 0 0 10 13.74l1.37 1a1 1 0 0 0 1.18 0l1.37-1a4.14 4.14 0 0 0 1.66-3.33v-2.9a1 1 0 0 0-.37-.78 1 1 0 0 0-.8-.2zm-.79 3.88a2.15 2.15 0 0 1-.85 1.73l-.77.57-.77-.57a2.15 2.15 0 0 1-.85-1.73V8.57A4.22 4.22 0 0 0 12 8.12a4.22 4.22 0 0 0 1.62.45v1.84zm6.84-.78A8.5 8.5 0 0 0 7.3 3.36a8.56 8.56 0 0 0-3.76 6.27A8.46 8.46 0 0 0 6 16.46l5.3 5.31a1 1 0 0 0 1.42 0L18 16.46a8.46 8.46 0 0 0 2.46-6.83zm-3.86 5.42l-4.6 4.6-4.6-4.6a6.49 6.49 0 0 1-1.87-5.22A6.57 6.57 0 0 1 8.42 5a6.47 6.47 0 0 1 7.16 0 6.57 6.57 0 0 1 2.89 4.81 6.49 6.49 0 0 1-1.87 5.24z" fill="currentColor"></path>
  </symbol>
  <symbol viewBox="0 0 24 24" fill="none" xmlns="http://www.w3.org/2000/svg" id="location-map-marker-slash">
    <path d="M10.63 5.49a6 6 0 0 1 7.21 7.2 1 1 0 0 0 .74 1.21c.076.01.154.01.23 0a1 1 0 0 0 1-.76 8 8 0 0 0-9.61-9.62 1.026 1.026 0 1 0 .46 2l-.03-.03zm11.08 14.58l-4.27-4.27L3.71 2.07a1 1 0 1 0-1.42 1.41L5.5 6.69A8 8 0 0 0 6.34 17l4.95 4.95a1.002 1.002 0 0 0 1.42 0l4-4 3.56 3.56a1 1 0 0 0 1.42-1.41l.02-.03zm-9.59-6.76a2 2 0 0 1-1.989-1.271A2 2 0 0 1 10 11.21l2.12 2.1zm-.12 6.5l-4.24-4.24a6 6 0 0 1-.82-7.44L8.41 9.6a4 4 0 0 0 .76 4.55A3.998 3.998 0 0 0 12 15.33a3.93 3.93 0 0 0 1.73-.41l1.58 1.58L12 19.81z" fill="currentColor"></path>
  </symbol>
  <symbol viewBox="0 0 24 24" fill="none" xmlns="http://www.w3.org/2000/svg" id="location-map-marker-alt">
    <path d="M20.46 9.63A8.5 8.5 0 0 0 7.3 3.36a8.56 8.56 0 0 0-3.76 6.27A8.46 8.46 0 0 0 6 16.46l5.3 5.31a1 1 0 0 0 1.42 0L18 16.46a8.46 8.46 0 0 0 2.46-6.83zm-3.86 5.42l-4.6 4.6-4.6-4.6a6.49 6.49 0 0 1-1.87-5.22A6.57 6.57 0 0 1 8.42 5a6.47 6.47 0 0 1 7.16 0 6.57 6.57 0 0 1 2.89 4.81 6.49 6.49 0 0 1-1.87 5.24zM12 6a4.5 4.5 0 1 0 4.5 4.5A4.51 4.51 0 0 0 12 6zm0 7a2.5 2.5 0 1 1 0-5 2.5 2.5 0 0 1 0 5z" fill="currentColor"></path>
  </symbol>
  <symbol viewBox="0 0 24 24" fill="none" xmlns="http://www.w3.org/2000/svg" id="location-map-marker-edit">
    <path d="M20.46 9.63A8.5 8.5 0 1 0 6 16.46l5.3 5.31a.999.999 0 0 0 1.42 0L18 16.46a8.46 8.46 0 0 0 2.46-6.83zm-3.86 5.42l-4.6 4.6-4.6-4.6a6.49 6.49 0 0 1-1.87-5.22A6.57 6.57 0 0 1 8.42 5a6.47 6.47 0 0 1 7.16 0 6.57 6.57 0 0 1 2.89 4.81 6.49 6.49 0 0 1-1.87 5.24zm-2.81-8.8a1 1 0 0 0-1.42 0L8.79 9.83a1 1 0 0 0-.29.7V13a1 1 0 0 0 1 1h2.42a.998.998 0 0 0 .71-.29l3.58-3.58a1 1 0 0 0 0-1.41l-2.42-2.47zM11.51 12h-1v-1l2.58-2.58 1 1L11.51 12z" fill="currentColor"></path>
  </symbol>
  <symbol viewBox="0 0 24 24" fill="none" xmlns="http://www.w3.org/2000/svg" id="location-map-marker-info">
    <path d="M12 10a1 1 0 0 0-1 1v2a1 1 0 1 0 2 0v-2a1 1 0 0 0-1-1zm8.46-.32A8.5 8.5 0 0 0 7.3 3.36a8.56 8.56 0 0 0-3.76 6.27A8.46 8.46 0 0 0 6 16.46l5.3 5.31a.999.999 0 0 0 1.42 0L18 16.46a8.46 8.46 0 0 0 2.46-6.83v.05zm-3.86 5.37l-4.6 4.6-4.6-4.6a6.49 6.49 0 0 1-1.87-5.22A6.57 6.57 0 0 1 8.42 5a6.47 6.47 0 0 1 7.16 0 6.57 6.57 0 0 1 2.89 4.81 6.49 6.49 0 0 1-1.87 5.24zm-3.68-7.48a.56.56 0 0 0-.09-.17l-.12-.15A1 1 0 0 0 11.8 7h-.18l-.18.09-.15.13-.12.15a.56.56 0 0 0-.09.17.602.602 0 0 0-.06.19c-.017.089-.023.18-.02.27a.88.88 0 0 0 .08.39c.05.118.122.226.21.32.095.093.207.168.33.22.245.093.515.093.76 0a1.19 1.19 0 0 0 .33-.22 1.11 1.11 0 0 0 .21-.32A.986.986 0 0 0 13 8a1.23 1.23 0 0 0 0-.19.6.6 0 0 0-.08-.24z" fill="currentColor"></path>
  </symbol>
  <symbol viewBox="0 0 24 24" fill="none" xmlns="http://www.w3.org/2000/svg" id="location-map-marker-minus">
    <path d="M14 9.45h-4a1 1 0 0 0 0 2h4a1 1 0 1 0 0-2zm6.46.18A8.5 8.5 0 1 0 6 16.46l5.3 5.31a.999.999 0 0 0 1.42 0L18 16.46a8.46 8.46 0 0 0 2.46-6.83zm-3.86 5.42l-4.6 4.6-4.6-4.6a6.49 6.49 0 0 1-1.87-5.22A6.57 6.57 0 0 1 8.42 5a6.47 6.47 0 0 1 7.16 0 6.57 6.57 0 0 1 2.89 4.81 6.49 6.49 0 0 1-1.87 5.24z" fill="currentColor"></path>
  </symbol>
  <symbol viewBox="0 0 24 24" fill="none" xmlns="http://www.w3.org/2000/svg" id="location-map-marker-plus">
    <path d="M14 9.45h-1v-1a1 1 0 0 0-2 0v1h-1a1 1 0 0 0 0 2h1v1a1 1 0 0 0 2 0v-1h1a1 1 0 1 0 0-2zm6.46.18A8.5 8.5 0 1 0 6 16.46l5.3 5.31a.999.999 0 0 0 1.42 0L18 16.46a8.46 8.46 0 0 0 2.46-6.83zm-3.86 5.42l-4.6 4.6-4.6-4.6a6.49 6.49 0 0 1-1.87-5.22A6.57 6.57 0 0 1 8.42 5a6.47 6.47 0 0 1 7.16 0 6.57 6.57 0 0 1 2.89 4.81 6.49 6.49 0 0 1-1.87 5.24z" fill="currentColor"></path>
  </symbol>
  <symbol viewBox="0 0 24 24" fill="none" xmlns="http://www.w3.org/2000/svg" id="location-location-pin-alt">
    <path d="M12 10.8a2 2 0 1 0 0-3.999 2 2 0 0 0 0 4zm-.71 6.91a1.002 1.002 0 0 0 1.42 0l4.09-4.1a6.79 6.79 0 1 0-9.6 0l4.09 4.1zM7.23 8.34a4.81 4.81 0 0 1 2.13-3.55 4.81 4.81 0 0 1 5.28 0 4.82 4.82 0 0 1 .75 7.41L12 15.59 8.61 12.2a4.77 4.77 0 0 1-1.38-3.86zM19 20H5a1 1 0 1 0 0 2h14a1 1 0 0 0 0-2z" fill="currentColor"></path>
  </symbol>
  <symbol viewBox="0 0 24 24" fill="none" xmlns="http://www.w3.org/2000/svg" id="location-location-arrow-alt">
    <path d="M21.68 17.65l-7-14a3 3 0 0 0-5.36 0l-7 14a3 3 0 0 0 3.9 4.08l5.37-2.4a1.059 1.059 0 0 1 .82 0l5.37 2.4a3 3 0 0 0 3.9-4.08zm-2 2a1 1 0 0 1-1.13.22l-5.37-2.39a3 3 0 0 0-2.44 0L5.41 19.9a1 1 0 0 1-1.3-1.35l7-14a1 1 0 0 1 1.78 0l7 14a1 1 0 0 1-.17 1.13l-.04-.03z" fill="currentColor"></path>
  </symbol>
  <symbol viewBox="0 0 24 24" fill="none" xmlns="http://www.w3.org/2000/svg" id="location-location-arrow">
    <path d="M21.15 2.86a2.89 2.89 0 0 0-3-.71L4 6.88a2.9 2.9 0 0 0-.12 5.47l5.24 2a.929.929 0 0 1 .53.52l2 5.25A2.87 2.87 0 0 0 14.36 22h.07a2.88 2.88 0 0 0 2.69-2l4.73-14.17a2.89 2.89 0 0 0-.7-2.97zM20 5.2l-4.78 14.18a.88.88 0 0 1-.84.62.92.92 0 0 1-.87-.58l-2-5.25a2.91 2.91 0 0 0-1.67-1.68l-5.25-2A.9.9 0 0 1 4 9.62a.88.88 0 0 1 .62-.84L18.8 4.05A.91.91 0 0 1 20 5.2z" fill="currentColor"></path>
  </symbol>
  <symbol viewBox="0 0 24 24" fill="none" xmlns="http://www.w3.org/2000/svg" id="location-parking-square">
    <path d="M12 6H9a1 1 0 0 0-1 1v10a1 1 0 1 0 2 0v-3h2a4 4 0 1 0 0-8zm0 6h-2V8h2a2 2 0 0 1 0 4zm7-10H5a3 3 0 0 0-3 3v14a3 3 0 0 0 3 3h14a3 3 0 0 0 3-3V5a3 3 0 0 0-3-3zm1 17a1 1 0 0 1-1 1H5a1 1 0 0 1-1-1V5a1 1 0 0 1 1-1h14a1 1 0 0 1 1 1v14z" fill="currentColor"></path>
  </symbol>
  <symbol viewBox="0 0 24 24" fill="none" xmlns="http://www.w3.org/2000/svg" id="location-parking-circle">
    <path d="M13 7H10C9.73479 7 9.48043 7.10536 9.2929 7.29289C9.10536 7.48043 9 7.73478 9 8V16C9 16.2652 9.10536 16.5196 9.2929 16.7071C9.48043 16.8946 9.73479 17 10 17C10.2652 17 10.5196 16.8946 10.7071 16.7071C10.8946 16.5196 11 16.2652 11 16V14H13C13.7957 14 14.5587 13.6839 15.1213 13.1213C15.6839 12.5587 16 11.7956 16 11V10C16 9.20435 15.6839 8.44129 15.1213 7.87868C14.5587 7.31607 13.7957 7 13 7ZM14 11C14 11.2652 13.8946 11.5196 13.7071 11.7071C13.5196 11.8946 13.2652 12 13 12H11V9H13C13.2652 9 13.5196 9.10536 13.7071 9.29289C13.8946 9.48043 14 9.73478 14 10V11ZM12 2C10.0222 2 8.08879 2.58649 6.4443 3.6853C4.79981 4.78412 3.51809 6.3459 2.76121 8.17317C2.00433 10.0004 1.8063 12.0111 2.19215 13.9509C2.578 15.8907 3.53041 17.6725 4.92894 19.0711C6.32746 20.4696 8.10929 21.422 10.0491 21.8079C11.9889 22.1937 13.9996 21.9957 15.8268 21.2388C17.6541 20.4819 19.2159 19.2002 20.3147 17.5557C21.4135 15.9112 22 13.9778 22 12C22 10.6868 21.7413 9.38642 21.2388 8.17317C20.7363 6.95991 19.9997 5.85752 19.0711 4.92893C18.1425 4.00035 17.0401 3.26375 15.8268 2.7612C14.6136 2.25866 13.3132 2 12 2ZM12 20C10.4178 20 8.87104 19.5308 7.55544 18.6518C6.23985 17.7727 5.21447 16.5233 4.60897 15.0615C4.00347 13.5997 3.84504 11.9911 4.15372 10.4393C4.4624 8.88743 5.22433 7.46197 6.34315 6.34315C7.46197 5.22433 8.88743 4.4624 10.4393 4.15372C11.9911 3.84504 13.5997 4.00346 15.0615 4.60896C16.5233 5.21447 17.7727 6.23984 18.6518 7.55544C19.5308 8.87103 20 10.4177 20 12C20 14.1217 19.1572 16.1566 17.6569 17.6569C16.1566 19.1571 14.1217 20 12 20Z" fill="currentColor" />
  </symbol>
  <symbol viewBox="0 0 24 24" fill="none" xmlns="http://www.w3.org/2000/svg" id="location-traffic-light">
    <path d="M12 5.5C11.7033 5.5 11.4133 5.58797 11.1666 5.7528C10.92 5.91762 10.7277 6.15189 10.6142 6.42597C10.5006 6.70006 10.4709 7.00166 10.5288 7.29264C10.5867 7.58361 10.7296 7.85088 10.9393 8.06066C11.1491 8.27044 11.4164 8.4133 11.7074 8.47118C11.9983 8.52906 12.2999 8.49935 12.574 8.38582C12.8481 8.27229 13.0824 8.08003 13.2472 7.83336C13.412 7.58668 13.5 7.29667 13.5 7C13.5 6.60218 13.342 6.22064 13.0607 5.93934C12.7794 5.65804 12.3978 5.5 12 5.5ZM22 8.5H21.46C22.4483 7.40175 22.9967 5.97746 23 4.5C23 4.23478 22.8946 3.98043 22.7071 3.79289C22.5196 3.60536 22.2652 3.5 22 3.5H17.82C17.6137 2.91645 17.2319 2.411 16.7271 2.05294C16.2222 1.69488 15.6189 1.50174 15 1.5H9C8.38106 1.50174 7.7778 1.69488 7.27293 2.05294C6.76807 2.411 6.38631 2.91645 6.18 3.5H2C1.73478 3.5 1.48043 3.60536 1.29289 3.79289C1.10536 3.98043 1 4.23478 1 4.5C1.00334 5.97746 1.55169 7.40175 2.54 8.5H2C1.73478 8.5 1.48043 8.60536 1.29289 8.79289C1.10536 8.98043 1 9.23478 1 9.5C1.00334 10.9775 1.55169 12.4018 2.54 13.5H2C1.73478 13.5 1.48043 13.6054 1.29289 13.7929C1.10536 13.9804 1 14.2348 1 14.5C1.00263 15.9439 1.52585 17.3384 2.47367 18.4277C3.42149 19.5169 4.73032 20.2279 6.16 20.43C6.35558 21.0298 6.7353 21.5528 7.24517 21.9244C7.75503 22.296 8.36908 22.4974 9 22.5H15C15.6309 22.4974 16.245 22.296 16.7548 21.9244C17.2647 21.5528 17.6444 21.0298 17.84 20.43C19.2697 20.2279 20.5785 19.5169 21.5263 18.4277C22.4741 17.3384 22.9974 15.9439 23 14.5C23 14.2348 22.8946 13.9804 22.7071 13.7929C22.5196 13.6054 22.2652 13.5 22 13.5H21.46C22.4483 12.4018 22.9967 10.9775 23 9.5C23 9.23478 22.8946 8.98043 22.7071 8.79289C22.5196 8.60536 22.2652 8.5 22 8.5ZM6 18.37C5.30908 18.1912 4.6786 17.8307 4.17394 17.3261C3.66929 16.8214 3.30885 16.1909 3.13 15.5H6V18.37ZM6 13.37C5.30908 13.1912 4.6786 12.8307 4.17394 12.3261C3.66929 11.8214 3.30885 11.1909 3.13 10.5H6V13.37ZM6 8.37C5.31384 8.20039 4.68335 7.85586 4.17 7.37C3.68414 6.85665 3.33961 6.22616 3.17 5.54H6V8.37ZM16 19.5C16 19.7652 15.8946 20.0196 15.7071 20.2071C15.5196 20.3946 15.2652 20.5 15 20.5H9C8.73478 20.5 8.48043 20.3946 8.29289 20.2071C8.10536 20.0196 8 19.7652 8 19.5V4.5C8 4.23478 8.10536 3.98043 8.29289 3.79289C8.48043 3.60536 8.73478 3.5 9 3.5H15C15.2652 3.5 15.5196 3.60536 15.7071 3.79289C15.8946 3.98043 16 4.23478 16 4.5V19.5ZM19.83 17.33C19.3167 17.8159 18.6862 18.1604 18 18.33V15.5H20.87C20.6889 16.1903 20.3304 16.8212 19.83 17.33ZM19.83 12.33C19.3167 12.8159 18.6862 13.1604 18 13.33V10.5H20.87C20.6889 11.1903 20.3304 11.8212 19.83 12.33ZM19.83 7.33C19.3167 7.81586 18.6862 8.16039 18 8.33V5.5H20.87C20.6889 6.19029 20.3304 6.82118 19.83 7.33ZM12 15.5C11.7033 15.5 11.4133 15.588 11.1666 15.7528C10.92 15.9176 10.7277 16.1519 10.6142 16.426C10.5006 16.7001 10.4709 17.0017 10.5288 17.2926C10.5867 17.5836 10.7296 17.8509 10.9393 18.0607C11.1491 18.2704 11.4164 18.4133 11.7074 18.4712C11.9983 18.5291 12.2999 18.4993 12.574 18.3858C12.8481 18.2723 13.0824 18.08 13.2472 17.8334C13.412 17.5867 13.5 17.2967 13.5 17C13.5 16.6022 13.342 16.2206 13.0607 15.9393C12.7794 15.658 12.3978 15.5 12 15.5ZM12 10.5C11.7033 10.5 11.4133 10.588 11.1666 10.7528C10.92 10.9176 10.7277 11.1519 10.6142 11.426C10.5006 11.7001 10.4709 12.0017 10.5288 12.2926C10.5867 12.5836 10.7296 12.8509 10.9393 13.0607C11.1491 13.2704 11.4164 13.4133 11.7074 13.4712C11.9983 13.5291 12.2999 13.4994 12.574 13.3858C12.8481 13.2723 13.0824 13.08 13.2472 12.8334C13.412 12.5867 13.5 12.2967 13.5 12C13.5 11.6022 13.342 11.2206 13.0607 10.9393C12.7794 10.658 12.3978 10.5 12 10.5Z" fill="currentColor" />
  </symbol>
  <symbol viewBox="0 0 24 24" fill="none" xmlns="http://www.w3.org/2000/svg" id="location-bus">
    <path d="M8.5 17a1 1 0 0 0 1-1 1.36 1.36 0 0 0 0-.2.64.64 0 0 0-.06-.18.76.76 0 0 0-.09-.18l-.12-.15a1 1 0 0 0-.33-.21 1 1 0 0 0-.6-.08l-.18.06-.18.09a1.577 1.577 0 0 0-.15.12l-.12.15a.76.76 0 0 0-.09.18.64.64 0 0 0-.06.18 1.36 1.36 0 0 0 0 .2 1 1 0 0 0 1 1L8.5 17zm8 0a1 1 0 0 0 1-1 1.362 1.362 0 0 0 0-.2.64.64 0 0 0-.06-.18.762.762 0 0 0-.09-.18l-.12-.15a1.15 1.15 0 0 0-.33-.21 1 1 0 0 0-.76 0 1.15 1.15 0 0 0-.33.21l-.12.15a.762.762 0 0 0-.09.18.64.64 0 0 0-.06.18 1.362 1.362 0 0 0 0 .2 1 1 0 0 0 .29.7 1 1 0 0 0 .67.3zm-3-12h-2a1 1 0 1 0 0 2h2a1 1 0 1 0 0-2zm5-3h-12a3 3 0 0 0-3 3v12a3 3 0 0 0 2 2.82V21a1 1 0 1 0 2 0v-1h10v1a1 1 0 0 0 2 0v-1.18a3 3 0 0 0 2-2.82V5a3 3 0 0 0-3-3zm1 15a1 1 0 0 1-1 1h-12a1 1 0 0 1-1-1v-3h14v3zm0-5h-14V5a1 1 0 0 1 1-1h12a1 1 0 0 1 1 1v7z" fill="currentColor"></path>
  </symbol>
  <symbol viewBox="0 0 24 24" fill="none" xmlns="http://www.w3.org/2000/svg" id="location-bus-alt">
    <path d="M18.5 2h-12a3 3 0 0 0-3 3v12a3 3 0 0 0 2 2.82V21a1 1 0 1 0 2 0v-1h10v1a1 1 0 0 0 2 0v-1.18a3 3 0 0 0 2-2.82V5a3 3 0 0 0-3-3zm-13 6h6v4h-6V8zm14 9a1 1 0 0 1-1 1h-12a1 1 0 0 1-1-1v-3h14v3zm0-5h-6V8h6v4zm0-6h-14V5a1 1 0 0 1 1-1h12a1 1 0 0 1 1 1v1zm-3.38 10.92c.12.051.25.078.38.08a1 1 0 0 0 1-1 1.362 1.362 0 0 0 0-.2.64.64 0 0 0-.06-.18.762.762 0 0 0-.09-.18 1.573 1.573 0 0 0-.12-.15l-.15-.12a.762.762 0 0 0-.18-.09.64.64 0 0 0-.2-.08 1 1 0 0 0-.91.27 1.573 1.573 0 0 0-.12.15.762.762 0 0 0-.09.18.64.64 0 0 0-.06.18 1.362 1.362 0 0 0 0 .2 1 1 0 0 0 .29.7 1 1 0 0 0 .31.24zm-8 0c.12.051.25.078.38.08a1 1 0 0 0 1-1 1.36 1.36 0 0 0 0-.2.64.64 0 0 0-.06-.18.76.76 0 0 0-.09-.18 1.575 1.575 0 0 0-.12-.15l-.15-.12-.18-.09-.2-.08a1 1 0 0 0-.91.27 1.575 1.575 0 0 0-.12.15.76.76 0 0 0-.09.18.64.64 0 0 0-.06.18 1.36 1.36 0 0 0 0 .2 1 1 0 0 0 .29.7 1 1 0 0 0 .31.24z" fill="currentColor"></path>
  </symbol>
  <symbol viewBox="0 0 24 24" fill="none" xmlns="http://www.w3.org/2000/svg" id="location-bus-school">
    <path d="M1 12.5v4a1 1 0 0 0 1 1h1a3 3 0 0 0 6 0h6a3 3 0 0 0 6 0h1a1 1 0 0 0 1-1v-10a3 3 0 0 0-3-3H8.44A3 3 0 0 0 5.6 5.55L4.16 9.86l-2.71 1.81a1 1 0 0 0-.45.83zm20-3h-2v-4h1a1 1 0 0 1 1 1v3zm-4 8a1 1 0 1 1 2 0 1 1 0 0 1-2 0zm-2-6h6v4h-.78a3 3 0 0 0-4.44 0H15v-4zm0-6h2v4h-2v-4zm-4 6h2v4h-2v-4zm0-6h2v4h-2v-4zm-2 4H6.39l1.1-3.32a1 1 0 0 1 .95-.68H9v4zm-4 8a1 1 0 1 1 2 0 1 1 0 0 1-2 0zM3 13l2.3-1.5H9v4h-.78a3 3 0 0 0-4.44 0H3V13z" fill="currentColor"></path>
  </symbol>
  <symbol viewBox="0 0 24 24" fill="none" xmlns="http://www.w3.org/2000/svg" id="location-car-sideview">
    <path d="M19 9.5h-.32l-1.25-3.12a3 3 0 0 0-2.78-1.88h-6A3 3 0 0 0 5.7 6.91L5.18 9.5H5a3 3 0 0 0-3 3v3a1 1 0 0 0 1 1h1a3 3 0 1 0 6 0h4a3 3 0 0 0 6 0h1a1 1 0 0 0 1-1v-3a3 3 0 0 0-3-3zm-6-3h1.65a1 1 0 0 1 .92.63l.95 2.37H13v-3zm-5.34.8a1 1 0 0 1 1-.8H11v3H7.22l.44-2.2zM7 17.5a1 1 0 1 1 0-2 1 1 0 0 1 0 2zm10 0a1 1 0 1 1 0-2 1 1 0 0 1 0 2zm3-3h-.78a3.002 3.002 0 0 0-4.44 0H9.22a3.002 3.002 0 0 0-4.44 0H4v-2a1 1 0 0 1 1-1h14a1 1 0 0 1 1 1v2z" fill="currentColor"></path>
  </symbol>
  <symbol viewBox="0 0 24 24" fill="none" xmlns="http://www.w3.org/2000/svg" id="location-car-slash">
    <path d="M7 13a1 1 0 1 0 0 2 1 1 0 0 0 0-2zm12.76-3.89l-1.35-4.06a3 3 0 0 0-2.85-2h-5.9a1 1 0 0 0 0 2h5.9a1 1 0 0 1 1 .69L17.61 9h-1.95a1 1 0 1 0 0 2H19a1 1 0 0 1 1 1v3.34a1 1 0 0 0 2 0V12a3 3 0 0 0-2.24-2.89zm-16-6.82a1.022 1.022 0 0 0-1.47 1.42l2.82 2.81-.87 2.59A3 3 0 0 0 2 12v4a3 3 0 0 0 2 2.82V20a1 1 0 0 0 2 0v-1h11.59l.41.41V20a1 1 0 0 0 1 1 .91.91 0 0 0 .46-.13l.83.84a.999.999 0 0 0 1.42 0 1 1 0 0 0 0-1.42l-17.95-18zm3 5.81l.9.9H6.39l.37-.9zM5 17a1 1 0 0 1-1-1v-4a1 1 0 0 1 1-1h4.59l2 2H11a1 1 0 0 0 0 2h2a.909.909 0 0 0 .46-.13L15.59 17H5z" fill="currentColor"></path>
  </symbol>
  <symbol viewBox="0 0 24 24" fill="none" xmlns="http://www.w3.org/2000/svg" id="location-car-wash">
    <path d="M7.5 4a1 1 0 0 0 .71-.29l1-1a1.004 1.004 0 0 0-1.42-1.42l-1 1A1 1 0 0 0 7.5 4zm4 0a1 1 0 0 0 .71-.29l1-1a1.004 1.004 0 0 0-1.42-1.42l-1 1A1 1 0 0 0 11.5 4zm4 0a1 1 0 0 0 .71-.29l1-1A1.005 1.005 0 0 0 16.5.996a1.004 1.004 0 0 0-.71.294l-1 1A1 1 0 0 0 15.5 4zm2.42 11.62a.762.762 0 0 0-.09-.18l-.12-.15-.15-.12a.758.758 0 0 0-.18-.09.6.6 0 0 0-.19-.06 1 1 0 0 0-.9.27 1.573 1.573 0 0 0-.12.15.762.762 0 0 0-.09.18.64.64 0 0 0-.06.18 1.362 1.362 0 0 0 0 .2 1 1 0 0 0 .62.92A1 1 0 0 0 17 17a1 1 0 0 0 1-1 1.362 1.362 0 0 0 0-.2.639.639 0 0 0-.08-.18zm1.84-4.51L18.4 7.05a3 3 0 0 0-2.84-2H8.44a3 3 0 0 0-2.84 2l-1.36 4.06A3 3 0 0 0 2 14v4a3 3 0 0 0 2 2.82V22a1 1 0 1 0 2 0v-1h12v1a1 1 0 0 0 2 0v-1.18A3 3 0 0 0 22 18v-4a3 3 0 0 0-2.24-2.89zM7.49 7.68A1 1 0 0 1 8.44 7h7.12a1 1 0 0 1 1 .68L17.61 11H6.39l1.1-3.32zM20 18a1 1 0 0 1-1 1H5a1 1 0 0 1-1-1v-4a1 1 0 0 1 1-1h14a1 1 0 0 1 1 1v4zm-7-3h-2a1 1 0 1 0 0 2h2a1 1 0 0 0 0-2zm-5.08.62a.76.76 0 0 0-.09-.18l-.12-.15a1 1 0 0 0-1.09-.21 1 1 0 0 0-.33.21 1.575 1.575 0 0 0-.12.15.76.76 0 0 0-.09.18.64.64 0 0 0-.08.18 1.36 1.36 0 0 0 0 .2 1 1 0 0 0 2 0 1.36 1.36 0 0 0 0-.2.64.64 0 0 0-.08-.18z" fill="currentColor"></path>
  </symbol>
  <symbol viewBox="0 0 24 24" fill="none" xmlns="http://www.w3.org/2000/svg" id="location-car">
    <path d="M6.62 13.08a.9.9 0 0 0-.54.54 1 1 0 0 0 1.3 1.3c.121-.05.233-.122.33-.21a1.15 1.15 0 0 0 .21-.33A.84.84 0 0 0 8 14a1.05 1.05 0 0 0-.29-.71 1 1 0 0 0-1.09-.21zm13.14-4L18.4 5.05a3 3 0 0 0-2.84-2H8.44a3 3 0 0 0-2.84 2L4.24 9.11A3 3 0 0 0 2 12v4a3 3 0 0 0 2 2.82V20a1 1 0 1 0 2 0v-1h12v1a1 1 0 0 0 2 0v-1.18A3 3 0 0 0 22 16v-4a3 3 0 0 0-2.24-2.89v-.03zM7.49 5.68A1 1 0 0 1 8.44 5h7.12a1 1 0 0 1 1 .68L17.61 9H6.39l1.1-3.32zM20 16a1 1 0 0 1-1 1H5a1 1 0 0 1-1-1v-4a1 1 0 0 1 1-1h14a1 1 0 0 1 1 1v4zm-3.38-2.92a.9.9 0 0 0-.54.54 1 1 0 0 0 1.3 1.3.899.899 0 0 0 .54-.54A.84.84 0 0 0 18 14a1.05 1.05 0 0 0-.29-.71 1 1 0 0 0-1.09-.21zM13 13h-2a1 1 0 0 0 0 2h2a1 1 0 1 0 0-2z" fill="currentColor"></path>
  </symbol>
  <symbol viewBox="0 0 24 24" fill="none" xmlns="http://www.w3.org/2000/svg" id="location-trees">
    <path d="M17.38 14.58a1 1 0 0 0-.58-.06.64.64 0 0 0-.18.06.762.762 0 0 0-.18.09l-.15.12a1.05 1.05 0 0 0-.29.71 1 1 0 0 0 .29.71c.097.091.209.166.33.22a1 1 0 0 0 1.09-.22 1.15 1.15 0 0 0 .21-.33.84.84 0 0 0 .08-.38 1.05 1.05 0 0 0-.29-.71.93.93 0 0 0-.33-.21zm2.62-3.9V7.5a3 3 0 0 0-3-3h-.78l-.77-2.32a1 1 0 0 0-.95-.68h-5a1 1 0 0 0-.95.68L7.78 4.5H7a3 3 0 0 0-3 3v3.18a3 3 0 0 0-2 2.82v6a1 1 0 0 0 1 1h1v1a1 1 0 1 0 2 0v-1h12v1a1 1 0 0 0 2 0v-1h1a1 1 0 0 0 1-1v-6a3 3 0 0 0-2-2.82zM10.22 3.5h3.56l.33 1H9.89l.33-1zM6 7.5a1 1 0 0 1 1-1h10a1 1 0 0 1 1 1v3H6v-3zm14 11H4v-5a1 1 0 0 1 1-1h14a1 1 0 0 1 1 1v5zM6.62 14.58a1 1 0 0 0-.33.21 1.05 1.05 0 0 0-.29.71 1 1 0 0 0 1.38.93 1.19 1.19 0 0 0 .33-.22A1 1 0 0 0 8 15.5a1.05 1.05 0 0 0-.29-.71 1 1 0 0 0-1.09-.21zM13 14.5h-2a1 1 0 0 0 0 2h2a1 1 0 0 0 0-2z" fill="currentColor"></path>
  </symbol>
  <symbol viewBox="0 0 24 24" fill="none" xmlns="http://www.w3.org/2000/svg" id="location-sign-alt">
    <path d="M21.78 11.88l-2-2.5A1 1 0 0 0 19 9h-6V3a1 1 0 0 0-2 0v1H5a1 1 0 0 0-.78.38l-2 2.5a1 1 0 0 0 0 1.24l2 2.5A1 1 0 0 0 5 11h6v9H9a1 1 0 0 0 0 2h6a1 1 0 0 0 0-2h-2v-4h6a1 1 0 0 0 .78-.38l2-2.5a1 1 0 0 0 0-1.24zM11 9H5.48l-1.2-1.5L5.48 6H11v3zm7.52 5H13v-3h5.52l1.2 1.5-1.2 1.5z" fill="currentColor"></path>
  </symbol>
  <symbol viewBox="0 0 24 24" fill="none" xmlns="http://www.w3.org/2000/svg" id="location-sign-left">
    <path d="M16 5h-3V3a1 1 0 0 0-2 0v2H6a1 1 0 0 0-.78.38l-2 2.5a1 1 0 0 0 0 1.24l2 2.5A1 1 0 0 0 6 12h5v8H9a1 1 0 0 0 0 2h6a1 1 0 0 0 0-2h-2v-8h3a1 1 0 0 0 1-1V6a1 1 0 0 0-1-1zm-1 5H6.48l-1.2-1.5L6.48 7H15v3z" fill="currentColor"></path>
  </symbol>
  <symbol viewBox="0 0 24 24" fill="none" xmlns="http://www.w3.org/2000/svg" id="location-sign-right">
    <path d="M7 6v5a1 1 0 0 0 1 1h3v8H9a1 1 0 0 0 0 2h6a1 1 0 0 0 0-2h-2v-8h5a1 1 0 0 0 .78-.37l2-2.5a1 1 0 0 0 0-1.25l-2-2.5A1 1 0 0 0 18 5h-5V3a1 1 0 0 0-2 0v2H8a1 1 0 0 0-1 1zm2 1h8.52l1.2 1.5-1.2 1.5H9V7z" fill="currentColor"></path>
  </symbol>
  <symbol viewBox="0 0 24 24" fill="none" xmlns="http://www.w3.org/2000/svg" id="location-pump">
    <path d="M20.54 6.29L19 4.75l-1.41-1.41a1.003 1.003 0 1 0-1.42 1.42l1 1-.83 2.49a3 3 0 0 0 .73 3.07l2.95 3V19a1 1 0 0 1-2 0v-2a3 3 0 0 0-3-3H14V5a3 3 0 0 0-3-3H5a3 3 0 0 0-3 3v14a3 3 0 0 0 3 3h6a3 3 0 0 0 3-3v-3h1a1 1 0 0 1 1 1v2a3 3 0 0 0 6 0V9.83a5 5 0 0 0-1.46-3.54zM12 19a1 1 0 0 1-1 1H5a1 1 0 0 1-1-1v-7h8v7zm0-9H4V5a1 1 0 0 1 1-1h6a1 1 0 0 1 1 1v5zm8 1.42l-1.54-1.54a1 1 0 0 1-.24-1l.51-1.54.39.4A3 3 0 0 1 20 9.83v1.59z" fill="currentColor"></path>
  </symbol>
  <symbol viewBox="0 0 24 24" fill="none" xmlns="http://www.w3.org/2000/svg" id="location-truck">
    <path d="M1 12.5v5a1 1 0 0 0 1 1h1a3 3 0 0 0 6 0h6a3 3 0 0 0 6 0h1a1 1 0 0 0 1-1v-12a3 3 0 0 0-3-3h-9a3 3 0 0 0-3 3v2H6a3 3 0 0 0-2.4 1.2l-2.4 3.2a.61.61 0 0 0-.07.14l-.06.11a1 1 0 0 0-.07.35zm16 6a1 1 0 1 1 2 0 1 1 0 0 1-2 0zm-7-13a1 1 0 0 1 1-1h9a1 1 0 0 1 1 1v11h-.78a3 3 0 0 0-4.44 0H10v-11zm-2 6H4l1.2-1.6a1 1 0 0 1 .8-.4h2v2zm-3 7a1 1 0 1 1 2 0 1 1 0 0 1-2 0zm-2-5h5v2.78a3 3 0 0 0-4.22.22H3v-3z" fill="currentColor"></path>
  </symbol>
  <symbol viewBox="0 0 24 24" fill="none" xmlns="http://www.w3.org/2000/svg" id="location-taxi">
    <path d="M16.5 5a4.86 4.86 0 0 0-2.5.69A6 6 0 0 0 2.5 8v4a6 6 0 0 0 5 5.91V21a1 1 0 1 0 2 0v-3.09a6.079 6.079 0 0 0 2.78-1.26 5 5 0 0 0 3.22 2.25V21a1 1 0 0 0 2 0v-2.1a5 5 0 0 0 4-4.9v-4a5 5 0 0 0-5-5zm-5 5v4c.01.19.03.381.06.57a4 4 0 0 1-2.06 1.3V13a1 1 0 0 0-2 0v2.86a4 4 0 0 1-3-3.86V8a4 4 0 0 1 6.83-2.84 3.94 3.94 0 0 1 1.06 2A5 5 0 0 0 11.5 10zm8 4a3 3 0 0 1-2 2.82V13a1 1 0 0 0-2 0v3.82a3 3 0 0 1-2-2.82v-4a3 3 0 0 1 6 0v4z" fill="currentColor"></path>
  </symbol>
  <symbol viewBox="0 0 24 24" fill="none" xmlns="http://www.w3.org/2000/svg" id="location-subway-alt">
    <path d="M15 17h1a1 1 0 0 0 0-2h-1a1 1 0 0 0 0 2zm6 0V9a3 3 0 0 0-3-3h-5V4h4a1 1 0 1 0 0-2H7a1 1 0 0 0 0 2h4v2H6a3 3 0 0 0-3 3v8a3 3 0 0 0 1.2 2.39l-.91.9a1 1 0 0 0 .325 1.639 1 1 0 0 0 1.095-.219L6.41 20h11.18l1.7 1.71a1.002 1.002 0 0 0 1.639-.325 1 1 0 0 0-.219-1.095l-.91-.9A3.001 3.001 0 0 0 21 17zM5 9a1 1 0 0 1 1-1h5v4H5V9zm14 8a1 1 0 0 1-1 1H6a1 1 0 0 1-1-1v-3h14v3zm0-5h-6V8h5a1 1 0 0 1 1 1v3zM8 17h1a1 1 0 0 0 0-2H8a1 1 0 0 0 0 2z" fill="currentColor"></path>
  </symbol>
  <symbol viewBox="0 0 24 24" fill="none" xmlns="http://www.w3.org/2000/svg" id="location-subway">
    <path d="M16 17a1 1 0 0 0 1-1 1.362 1.362 0 0 0 0-.2.64.64 0 0 0-.06-.18.762.762 0 0 0-.09-.18l-.12-.15a1.15 1.15 0 0 0-.33-.21 1 1 0 0 0-.76 0 1.15 1.15 0 0 0-.33.21l-.12.15a.762.762 0 0 0-.09.18.64.64 0 0 0-.06.18 1.362 1.362 0 0 0 0 .2 1 1 0 0 0 1 1H16zm2-15H6a3 3 0 0 0-3 3v12a3 3 0 0 0 1.2 2.39l-.91.9a1 1 0 0 0 .325 1.639 1 1 0 0 0 1.095-.219L6.41 20h11.18l1.7 1.71a1.002 1.002 0 0 0 1.639-.325 1 1 0 0 0-.219-1.095l-.91-.9A3.001 3.001 0 0 0 21 17V5a3 3 0 0 0-3-3zM5 8h6v4H5V8zm14 9a1 1 0 0 1-1 1H6a1 1 0 0 1-1-1v-3h14v3zm0-5h-6V8h6v4zm0-6H5V5a1 1 0 0 1 1-1h12a1 1 0 0 1 1 1v1zM8 17a1 1 0 0 0 1-1 1.36 1.36 0 0 0 0-.2.64.64 0 0 0-.06-.18.76.76 0 0 0-.09-.18l-.12-.15a1.15 1.15 0 0 0-.33-.21 1 1 0 0 0-.76 0 1.15 1.15 0 0 0-.33.21l-.12.15a.76.76 0 0 0-.09.18.64.64 0 0 0-.1.18 1.36 1.36 0 0 0 0 .2 1 1 0 0 0 .615.921A.999.999 0 0 0 8 17z" fill="currentColor"></path>
  </symbol>
  <symbol viewBox="0 0 24 24" fill="none" xmlns="http://www.w3.org/2000/svg" id="location-rocket">
    <path d="M22.601 2.06199C22.5559 1.89071 22.4661 1.73447 22.3409 1.60923C22.2156 1.48398 22.0594 1.39422 21.8881 1.3491C19.8368 0.816284 17.6766 0.873671 15.6564 1.51465C13.6362 2.15562 11.8381 3.35413 10.4692 4.97216L9.35426 6.29599L6.74946 5.66751C6.1162 5.44673 5.42444 5.46256 4.80194 5.71205C4.17943 5.96155 3.66823 6.42787 3.36274 7.02489L1.16255 10.9248C1.08546 11.0614 1.04158 11.2142 1.03447 11.3709C1.02737 11.5276 1.05722 11.6838 1.12163 11.8268C1.18603 11.9698 1.28318 12.0957 1.40523 12.1942C1.52727 12.2927 1.67078 12.3612 1.82417 12.394L4.89692 13.0527C4.63663 13.845 4.45077 14.6599 4.34175 15.4868C4.32198 15.6387 4.33737 15.7931 4.38673 15.9381C4.43608 16.0831 4.51808 16.2149 4.62641 16.3232L7.72651 19.4233C7.81933 19.5162 7.92954 19.5899 8.05085 19.6401C8.17216 19.6904 8.30219 19.7163 8.43351 19.7163C8.46232 19.7163 8.49113 19.7148 8.52043 19.7124C9.36577 19.6364 10.2008 19.4722 11.012 19.2224L11.6557 22.2256C11.6886 22.3789 11.7571 22.5224 11.8556 22.6444C11.9542 22.7664 12.08 22.8635 12.223 22.9279C12.366 22.9923 12.5221 23.0221 12.6788 23.0151C12.8355 23.008 12.9883 22.9642 13.1249 22.8872L17.0302 20.6845C17.5798 20.3506 18.0092 19.8506 18.2563 19.2569C18.5034 18.6631 18.5556 18.0061 18.4052 17.3808L17.7365 14.6218L18.9735 13.4843C20.5976 12.1192 21.8007 10.321 22.4429 8.29894C23.0851 6.27686 23.1399 4.11401 22.601 2.06199ZM3.57222 10.7231L5.12837 7.96337C5.22502 7.77601 5.3897 7.63273 5.58862 7.56291C5.78754 7.49309 6.00564 7.50202 6.19819 7.58788L7.9156 8.00408L7.2656 8.77587C6.64936 9.51444 6.11637 10.3187 5.67628 11.174L3.57222 10.7231ZM16.0424 18.9453L13.3266 20.477L12.8971 18.4723C13.7677 18.0382 14.5789 17.4937 15.3105 16.8525L16.054 16.1688L16.4575 17.8334C16.5098 18.039 16.4981 18.2556 16.4239 18.4543C16.3497 18.653 16.2166 18.8243 16.0424 18.9453ZM17.6567 11.98L13.9721 15.3662C12.5137 16.6275 10.7147 17.4292 8.80171 17.6704L6.39741 15.2661C6.72033 13.3481 7.54912 11.551 8.79829 10.0601L10.4766 8.06743C10.5046 8.03818 10.5307 8.0072 10.5548 7.97467L11.9897 6.27099C13.0507 5.01788 14.4252 4.06879 15.9729 3.52063C17.5206 2.97247 19.1861 2.84487 20.7993 3.15087C21.1127 4.76908 20.9864 6.44173 20.4337 7.99459C19.881 9.54744 18.922 10.9237 17.6567 11.98ZM16.7337 5.81623C16.437 5.81623 16.147 5.9042 15.9003 6.06902C15.6537 6.23384 15.4614 6.46811 15.3479 6.7422C15.2343 7.01629 15.2046 7.31789 15.2625 7.60886C15.3204 7.89983 15.4632 8.16711 15.673 8.37688C15.8828 8.58666 16.1501 8.72953 16.4411 8.7874C16.732 8.84528 17.0336 8.81558 17.3077 8.70204C17.5818 8.58851 17.8161 8.39625 17.9809 8.14958C18.1457 7.90291 18.2337 7.6129 18.2337 7.31623C18.2337 7.11923 18.1949 6.92417 18.1195 6.74217C18.0442 6.56017 17.9337 6.39481 17.7944 6.25551C17.6551 6.11622 17.4897 6.00573 17.3077 5.93036C17.1257 5.85498 16.9306 5.81619 16.7336 5.81621L16.7337 5.81623Z" fill="currentColor" />
  </symbol>
  <symbol viewBox="0 0 24 24" fill="none" xmlns="http://www.w3.org/2000/svg" id="location-metro">
    <path d="M8.71 14.29a1.002 1.002 0 0 0-1.09-.21.901.901 0 0 0-.54.54 1 1 0 1 0 1.84 0 1.148 1.148 0 0 0-.21-.33zm8 0a1.046 1.046 0 0 0-1.42 0c-.088.097-.16.209-.21.33a.99.99 0 0 0 .21 1.09c.097.088.209.16.33.21a.941.941 0 0 0 .76 0c.121-.05.233-.122.33-.21a.989.989 0 0 0 .21-1.09 1.145 1.145 0 0 0-.21-.33zm2.6 4.605a4.97 4.97 0 0 0 1.784-4.817l-1.5-8A5 5 0 0 0 14.68 2H9.319a5 5 0 0 0-4.913 4.078l-1.5 8a4.97 4.97 0 0 0 1.785 4.817l-1.398 1.398a1 1 0 1 0 1.414 1.414l1.87-1.87c.405.107.823.161 1.242.163h8.362a5.01 5.01 0 0 0 1.243-.162l1.869 1.869a1 1 0 0 0 1.414-1.414l-1.398-1.398zM6.37 6.447A3.002 3.002 0 0 1 9.32 4h5.362a3.002 3.002 0 0 1 2.948 2.447l.347 1.85a7.955 7.955 0 0 1-11.952 0l.347-1.85zm12.117 10.469A2.99 2.99 0 0 1 16.181 18H7.819a3.001 3.001 0 0 1-2.948-3.553l.711-3.792a9.955 9.955 0 0 0 12.836 0l.71 3.792a2.989 2.989 0 0 1-.64 2.469z" fill="currentColor"></path>
  </symbol>
  <symbol viewBox="0 0 24 24" fill="none" xmlns="http://www.w3.org/2000/svg" id="location-plane-departure">
    <path d="M22 5.08a3.08 3.08 0 0 0-5.26-2.18l-2.81 2.81-6.49-2.16a1 1 0 0 0-1 .24L4.06 6.15a1 1 0 0 0 .29 1.61l5.18 2.35-2.6 2.6-1.71-.86a1 1 0 0 0-1.16.15l-1.77 1.81a1 1 0 0 0 0 1.41l6.49 6.49a1 1 0 0 0 1.41 0L12 19.94a1 1 0 0 0 .19-1.16l-.86-1.71 2.6-2.6 2.35 5.18a1 1 0 0 0 1.61.29l2.36-2.36a1 1 0 0 0 .24-1l-2.16-6.49 2.77-2.83a3.05 3.05 0 0 0 .9-2.18zm-2.32.77l-3.24 3.24a1 1 0 0 0-.24 1l2.16 6.48-.9.9-2.35-5.17a1 1 0 0 0-1.62-.29l-4.12 4.16a1 1 0 0 0-.19 1.15L10 19l-.56.56-5.03-5.04L5 14l1.71.86a1 1 0 0 0 1.15-.19L12 10.51a1 1 0 0 0-.29-1.62L6.5 6.54l.9-.9 6.48 2.16a1 1 0 0 0 1-.24l3.24-3.24a1.071 1.071 0 0 1 1.53 0 1 1 0 0 1 .32.76 1.06 1.06 0 0 1-.29.77z" fill="currentColor"></path>
  </symbol>
  <symbol viewBox="0 0 24 24" fill="none" xmlns="http://www.w3.org/2000/svg" id="location-plane-fly">
    <path d="M23 9.32a1.06 1.06 0 0 0-.1-.76 4.93 4.93 0 0 0-6.75-1.8L14 8 9 5.65a1 1 0 0 0-.92 0l-3 1.73a1 1 0 0 0-.04 1.71l3.3 2.08-1.74 1-4.78.58a1 1 0 0 0-.53 1.75l3.54 3.06a3 3 0 0 0 3.55.44L22.5 9.93a1.001 1.001 0 0 0 .5-.61zm-15.53 7a1 1 0 0 1-1.2-.18l-1.9-1.63 2.73-.33a1 1 0 0 0 .38-.13l3.36-1.93a1 1 0 0 0 .378-1.341 1 1 0 0 0-.348-.369l-3.3-2.09 1.1-.63 5 2.32a1 1 0 0 0 .92 0l2.56-1.48a3 3 0 0 1 3.36.29l-13.04 7.5z" fill="currentColor"></path>
  </symbol>
  <symbol viewBox="0 0 24 24" fill="none" xmlns="http://www.w3.org/2000/svg" id="location-map">
    <path d="M21.32 5.05l-6-2h-.07a.7.7 0 0 0-.14 0h-.43L9 5 3.32 3.05a1 1 0 0 0-.9.14A1 1 0 0 0 2 4v14a1 1 0 0 0 .68.95l6 2a1 1 0 0 0 .62 0l5.7-1.9L20.68 21c.106.014.214.014.32 0a.94.94 0 0 0 .58-.19A1.001 1.001 0 0 0 22 20V6a1 1 0 0 0-.68-.95zM8 18.61l-4-1.33V5.39l4 1.33v11.89zm6-1.33l-4 1.33V6.72l4-1.33v11.89zm6 1.33l-4-1.33V5.39l4 1.33v11.89z" fill="currentColor"></path>
  </symbol>
  <symbol viewBox="0 0 24 24" fill="none" xmlns="http://www.w3.org/2000/svg" id="location-baby-carriage">
    <path d="M19 16a3 3 0 1 0 0 5.999A3 3 0 0 0 19 16zm0 4a1 1 0 1 1 0-2 1 1 0 0 1 0 2zM9 16a3 3 0 1 0 0 6 3 3 0 0 0 0-6zm0 4a1 1 0 1 1 0-2 1 1 0 0 1 0 2zM22 8.5A6.51 6.51 0 0 0 15.5 2H15a1 1 0 0 0-1 1v5H7.52L6.27 4.65A1 1 0 0 0 5.33 4H3a1 1 0 0 0 0 2h1.64l1.25 3.37.51 1.37v.09A6.44 6.44 0 0 0 12.5 15h3A6.49 6.49 0 0 0 22 8.5zm-3.32 3.18A4.471 4.471 0 0 1 15.5 13h-3a4.47 4.47 0 0 1-4.16-2.8.14.14 0 0 1 0-.06L8.26 10h11.48a4.32 4.32 0 0 1-1.06 1.68zM16 8V4a4.49 4.49 0 0 1 4 4h-4z" fill="currentColor"></path>
  </symbol>
  <symbol viewBox="0 0 24 24" fill="none" xmlns="http://www.w3.org/2000/svg" id="location-university">
    <path d="M21 10a1 1 0 0 0 1-1V6a.999.999 0 0 0-.684-.948l-9-3a1.002 1.002 0 0 0-.632 0l-9 3A.999.999 0 0 0 2 6v3a1 1 0 0 0 1 1h1v7.184A2.995 2.995 0 0 0 2 20v2a1 1 0 0 0 1 1h18a1 1 0 0 0 1-1v-2a2.995 2.995 0 0 0-2-2.816V10h1zm-1 11H4v-1a1.001 1.001 0 0 1 1-1h14a1.001 1.001 0 0 1 1 1v1zM6 17v-7h2v7H6zm4 0v-7h4v7h-4zm6 0v-7h2v7h-2zM4 8V6.72l8-2.666 8 2.667V8H4z" fill="currentColor"></path>
  </symbol>
  <symbol viewBox="0 0 24 24" fill="none" xmlns="http://www.w3.org/2000/svg" id="location-compass">
    <path d="M12 2a10 10 0 1 0 0 20 10 10 0 0 0 0-20zm1 17.93V19a1 1 0 0 0-2 0v.93A8 8 0 0 1 4.07 13H5a1 1 0 0 0 0-2h-.93A8 8 0 0 1 11 4.07V5a1 1 0 0 0 2 0v-.93A8 8 0 0 1 19.93 11H19a1 1 0 0 0 0 2h.93A8 8 0 0 1 13 19.93zm2.14-12.38l-5 2.12a1 1 0 0 0-.52.52l-2.12 5a1 1 0 0 0 .21 1.1 1 1 0 0 0 .7.3.93.93 0 0 0 .4-.09l5-2.12a1 1 0 0 0 .52-.52l2.12-5a1 1 0 0 0-1.31-1.31zm-2.49 5.1l-2.28 1 1-2.28 2.28-1-1 2.28z" fill="currentColor"></path>
  </symbol>
  <symbol viewBox="0 0 24 24" fill="none" xmlns="http://www.w3.org/2000/svg" id="location-restaurant">
    <path d="M16.84 11.63a2.998 2.998 0 0 0 2.16-.88l2.83-2.83a1 1 0 1 0-1.42-1.41l-2.86 2.82a1 1 0 0 1-1.42 0l3.54-3.53a1.005 1.005 0 0 0-.71-1.714 1.004 1.004 0 0 0-.71.294l-3.53 3.54a1 1 0 0 1 0-1.41l2.83-2.83a1.005 1.005 0 0 0-.71-1.714 1.004 1.004 0 0 0-.71.294L13.3 5.09a3 3 0 0 0 0 4.24L12 10.62l-8.27-8.3-.1-.06a.71.71 0 0 0-.17-.11l-.18-.07L3.16 2h-.27a.57.57 0 0 0-.18 0 .7.7 0 0 0-.17.09l-.16.1h-.07l-.06.1a1 1 0 0 0-.11.17.984.984 0 0 0-.07.19v.11a11 11 0 0 0 3.11 9.34l2.64 2.63-5.41 5.4a1 1 0 0 0 .71 1.71 1 1 0 0 0 .71-.29l6.07-5.98 2.83-2.83 2-2a3 3 0 0 0 2.11.89zm-7.65 1.82l-2.63-2.64A9.06 9.06 0 0 1 4 5.4l6.61 6.6-1.42 1.45zm6.24.57A1.008 1.008 0 0 0 14 15.44l6.3 6.3a1 1 0 0 0 .7.26 1 1 0 0 0 .71-1.71l-6.28-6.27z" fill="currentColor"></path>
  </symbol>
  <symbol viewBox="0 0 24 24" fill="none" xmlns="http://www.w3.org/2000/svg" id="location-utensils">
    <path d="M19 2a1 1 0 0 0-1 1v5.46l-1 .67V3a1 1 0 0 0-2 0v6.13l-1-.67V3a1 1 0 0 0-2 0v6a1 1 0 0 0 .45.83L15 11.54V21a1 1 0 0 0 2 0v-9.46l2.55-1.71A1 1 0 0 0 20 9V3a1 1 0 0 0-1-1zM9 2a5 5 0 0 0-5 5v6a1 1 0 0 0 1 1h3v7a1 1 0 1 0 2 0V3a1 1 0 0 0-1-1zM8 12H6V7a3 3 0 0 1 2-2.83V12z" fill="currentColor"></path>
  </symbol>
  <symbol viewBox="0 0 24 24" fill="none" xmlns="http://www.w3.org/2000/svg" id="location-coffee">
    <path d="M9 17h4a5 5 0 0 0 5-5v-1h1a3 3 0 0 0 0-6h-1V4a1 1 0 0 0-1-1H5a1 1 0 0 0-1 1v8a5 5 0 0 0 5 5zm9-10h1a1 1 0 1 1 0 2h-1V7zM6 5h10v7a3 3 0 0 1-3 3H9a3 3 0 0 1-3-3V5zm15 14H3a1 1 0 0 0 0 2h18a1 1 0 0 0 0-2z" fill="currentColor"></path>
  </symbol>
  <symbol viewBox="0 0 24 24" fill="none" xmlns="http://www.w3.org/2000/svg" id="location-pizza-slice">
    <path d="M8.50997 12.48C8.31219 12.48 8.11885 12.5387 7.9544 12.6485C7.78995 12.7584 7.66177 12.9146 7.58609 13.0973C7.5104 13.2801 7.4906 13.4811 7.52918 13.6751C7.56777 13.8691 7.66301 14.0473 7.80286 14.1871C7.94271 14.327 8.1209 14.4222 8.31488 14.4608C8.50886 14.4994 8.70992 14.4796 8.89265 14.4039C9.07538 14.3282 9.23155 14.2 9.34144 14.0356C9.45132 13.8711 9.50997 13.6778 9.50997 13.48C9.50997 13.2148 9.40461 12.9604 9.21707 12.7729C9.02954 12.5854 8.77518 12.48 8.50997 12.48ZM8.50997 8.00001C8.31219 8.00001 8.11885 8.05866 7.9544 8.16854C7.78995 8.27842 7.66177 8.4346 7.58609 8.61732C7.5104 8.80005 7.4906 9.00112 7.52918 9.1951C7.56777 9.38908 7.66301 9.56726 7.80286 9.70711C7.94271 9.84697 8.1209 9.94221 8.31488 9.98079C8.50886 10.0194 8.70992 9.99957 8.89265 9.92389C9.07538 9.8482 9.23155 9.72003 9.34144 9.55558C9.45132 9.39113 9.50997 9.19779 9.50997 9.00001C9.50997 8.73479 9.40461 8.48044 9.21707 8.2929C9.02954 8.10536 8.77518 8.00001 8.50997 8.00001ZM12 10C11.7347 10 11.4804 10.1054 11.2929 10.2929C11.1053 10.4804 11 10.7348 11 11V12C11 12.2652 11.1053 12.5196 11.2929 12.7071C11.4804 12.8947 11.7347 13 12 13C12.2652 13 12.5195 12.8947 12.7071 12.7071C12.8946 12.5196 13 12.2652 13 12V11C13 10.7348 12.8946 10.4804 12.7071 10.2929C12.5195 10.1054 12.2652 10 12 10ZM20.5 8.57001C20.155 8.37152 19.774 8.24366 19.3791 8.19387C18.9842 8.14408 18.5834 8.17336 18.2 8.28001C17.8009 8.3869 17.4293 8.57783 17.11 8.84001L5.50997 2.13001C5.35795 2.04224 5.1855 1.99603 5.00997 1.99603C4.83443 1.99603 4.66199 2.04224 4.50997 2.13001C4.3555 2.21683 4.22688 2.34314 4.13727 2.49601C4.04766 2.64888 4.00027 2.82281 3.99997 3.00001V16.17C3.40982 16.3691 2.89814 16.7504 2.53869 17.259C2.17924 17.7676 1.9906 18.3773 1.99997 19C1.99969 19.782 2.30475 20.5332 2.85018 21.0935C3.3956 21.6539 4.13826 21.9792 4.91997 22H5.49997C8.7767 21.9923 11.9931 21.1177 14.8225 19.465C17.6519 17.8123 19.9937 15.4404 21.61 12.59C21.9833 11.908 22.0772 11.1077 21.872 10.3578C21.6668 9.60789 21.1785 8.96693 20.51 8.57001H20.5ZM5.99997 4.73001L15.89 10.44C14.7928 12.0772 13.3259 13.4335 11.608 14.3993C9.88996 15.3651 7.96893 15.9135 5.99997 16V4.73001ZM19.87 11.61C18.3854 14.2257 16.2174 16.3883 13.5979 17.8662C10.9785 19.3441 8.00645 20.0817 4.99997 20C4.73475 20 4.4804 19.8947 4.29286 19.7071C4.10532 19.5196 3.99997 19.2652 3.99997 19C3.99918 18.866 4.02534 18.7332 4.07687 18.6096C4.12841 18.4859 4.20427 18.3738 4.29997 18.28C4.48783 18.0989 4.73904 17.9984 4.99997 18H5.50997C8.07768 17.999 10.5991 17.3161 12.8164 16.0212C15.0337 14.7263 16.8674 12.8658 18.13 10.63C18.1907 10.5203 18.2736 10.4245 18.3735 10.3487C18.4734 10.273 18.588 10.2189 18.71 10.19C18.9621 10.1208 19.2313 10.1531 19.46 10.28C19.6894 10.4033 19.8617 10.6113 19.9401 10.8597C20.0185 11.1081 19.997 11.3773 19.88 11.61H19.87Z" fill="currentColor" />
  </symbol>
  <symbol viewBox="0 0 24 24" fill="none" xmlns="http://www.w3.org/2000/svg" id="location-assistive-listening-systems">
    <path d="M11 3a7 7 0 0 0-7 7 1 1 0 1 0 2 0 5 5 0 1 1 9.29 2.57L11.73 20A2 2 0 0 1 8 19a1 1 0 1 0-2 0 4 4 0 0 0 6.033 3.443A4 4 0 0 0 13.5 20.93l3.56-7.43A7 7 0 0 0 11 3zM4 15a1 1 0 1 0 0 2 1 1 0 0 0 0-2zM17.59 1.2a1 1 0 0 0-1.2 1.6A9 9 0 0 1 20 10a1 1 0 0 0 2 0 11.06 11.06 0 0 0-4.41-8.8zM11 9a1 1 0 0 1 1 1 1 1 0 0 0 2 0 3 3 0 0 0-6 0 3 3 0 0 0 .51 1.68c.138.196.295.377.47.54l.2.22a1 1 0 0 1 0 1.11 1 1 0 0 0 1.283 1.456 1 1 0 0 0 .357-.316 3 3 0 0 0-.35-3.81l-.14-.14a1.367 1.367 0 0 1-.16-.18A1 1 0 0 1 11 9zm-4 6a1 1 0 1 0 0-2 1 1 0 0 0 0 2z" fill="currentColor"></path>
  </symbol>
  <symbol viewBox="0 0 24 24" fill="none" xmlns="http://www.w3.org/2000/svg" id="location-ear">
    <path d="M12 8a1 1 0 0 1 1 1 1 1 0 0 0 2 0 3 3 0 1 0-5.018 2.22c.01.01.162.17.194.215a.988.988 0 0 1 0 1.12.999.999 0 1 0 1.648 1.13 2.983 2.983 0 0 0-.005-3.388 7.107 7.107 0 0 0-.49-.557A1 1 0 0 1 12 8zm0-6a7 7 0 0 0-6.762 8.812 1 1 0 0 0 1.932-.518A5 5 0 1 1 17 9a5.114 5.114 0 0 1-.705 2.567L12.73 19A2.006 2.006 0 0 1 11 20a2.027 2.027 0 0 1-2-2c0-.35.093-.695.269-.999a1 1 0 1 0-1.733-1.002 3.999 3.999 0 1 0 6.963 3.934l3.563-7.433A7 7 0 0 0 12 2z" fill="currentColor"></path>
  </symbol>
  <symbol viewBox="0 0 24 24" fill="none" xmlns="http://www.w3.org/2000/svg" id="location-wheelchair">
    <path d="M12 6.5a2 2 0 1 0 0-4 2 2 0 0 0 0 4zm7.5 14h-1v-5a1 1 0 0 0-1-1h-5v-2h5a1 1 0 0 0 0-2h-5v-2a1 1 0 0 0-2 0v7a1 1 0 0 0 1 1h5v5a1 1 0 0 0 1 1h2a1 1 0 0 0 0-2zm-6.8-1.6a4 4 0 0 1-7.2-2.4 4 4 0 0 1 2.4-3.66A1.003 1.003 0 0 0 7.1 11a5.999 5.999 0 1 0 7.2 9.1 1 1 0 0 0-1.6-1.2z" fill="currentColor"></path>
  </symbol>
  <symbol viewBox="0 0 24 24" fill="none" xmlns="http://www.w3.org/2000/svg" id="location-building">
    <path d="M14 8h1a1 1 0 1 0 0-2h-1a1 1 0 1 0 0 2zm0 4h1a1 1 0 0 0 0-2h-1a1 1 0 0 0 0 2zM9 8h1a1 1 0 1 0 0-2H9a1 1 0 0 0 0 2zm0 4h1a1 1 0 0 0 0-2H9a1 1 0 0 0 0 2zm12 8h-1V3a1 1 0 0 0-1-1H5a1 1 0 0 0-1 1v17H3a1 1 0 0 0 0 2h18a1 1 0 0 0 0-2zm-8 0h-2v-4h2v4zm5 0h-3v-5a1 1 0 0 0-1-1h-4a1 1 0 0 0-1 1v5H6V4h12v16z" fill="currentColor"></path>
  </symbol>
  <symbol viewBox="0 0 24 24" fill="none" xmlns="http://www.w3.org/2000/svg" id="location-exclamation-circle">
    <path d="M12 7a1 1 0 0 0-1 1v4a1 1 0 0 0 2 0V8a1 1 0 0 0-1-1zm.92 8.62a.758.758 0 0 0-.09-.18l-.12-.15a.999.999 0 0 0-1.09-.21 1.15 1.15 0 0 0-.33.21A1 1 0 0 0 11 16c.002.13.029.26.08.38a.9.9 0 0 0 .54.54.94.94 0 0 0 .76 0 .9.9 0 0 0 .54-.54c.051-.12.078-.25.08-.38a1.362 1.362 0 0 0 0-.2.639.639 0 0 0-.08-.18zM12 2a10 10 0 1 0 0 20 10 10 0 0 0 0-20zm0 18a8 8 0 1 1 0-16.001A8 8 0 0 1 12 20z" fill="currentColor"></path>
  </symbol>
  <symbol viewBox="0 0 24 24" fill="none" xmlns="http://www.w3.org/2000/svg" id="location-exclamation-triangle">
    <path d="M12 16a1 1 0 1 0 0 2 1 1 0 0 0 0-2zm10.67 1.47l-8.05-14a3 3 0 0 0-5.24 0l-8 14A3 3 0 0 0 3.94 22h16.12a3 3 0 0 0 2.61-4.53zm-1.73 2a1 1 0 0 1-.88.51H3.94a1 1 0 0 1-.88-.51 1 1 0 0 1 0-1l8-14a1 1 0 0 1 1.78 0l8.05 14a1 1 0 0 1 .05 1.02v-.02zM12 8a1 1 0 0 0-1 1v4a1 1 0 0 0 2 0V9a1 1 0 0 0-1-1z" fill="currentColor"></path>
  </symbol>
  <symbol viewBox="0 0 24 24" fill="none" xmlns="http://www.w3.org/2000/svg" id="location-location">
    <path d="M14.49 10.86a3.09 3.09 0 1 0-5 0c-.425.27-.803.608-1.12 1A1.03 1.03 0 1 0 10 13.12a2.62 2.62 0 0 1 2.05-1 2.621 2.621 0 0 1 2.05 1 1 1 0 0 0 1.56-1.25c-.331-.4-.727-.74-1.17-1.01zM12 10.13a1.09 1.09 0 1 1 .001-2.18A1.09 1.09 0 0 1 12 10.13zm8.46-.5A8.5 8.5 0 0 0 7.3 3.36a8.56 8.56 0 0 0-3.76 6.27A8.46 8.46 0 0 0 6 16.46l5.3 5.31a1 1 0 0 0 1.42 0L18 16.46a8.46 8.46 0 0 0 2.46-6.83zm-3.86 5.42l-4.6 4.6-4.6-4.6a6.49 6.49 0 0 1-1.87-5.22A6.57 6.57 0 0 1 8.42 5a6.47 6.47 0 0 1 7.16 0 6.57 6.57 0 0 1 2.89 4.81 6.49 6.49 0 0 1-1.87 5.24z" fill="currentColor"></path>
  </symbol>
  <symbol viewBox="0 0 24 24" fill="none" xmlns="http://www.w3.org/2000/svg" id="location-map-pin-alt">
    <path d="M11 11.9V17a1 1 0 0 0 2 0v-5.1a5 5 0 1 0-2 0zM12 4a3 3 0 1 1 0 6 3 3 0 0 1 0-6zm4.21 10.42a1.021 1.021 0 1 0-.42 2C18.06 16.87 19 17.68 19 18c0 .58-2.45 2-7 2s-7-1.42-7-2c0-.32.94-1.13 3.21-1.62a1.023 1.023 0 0 0-.42-2C4.75 15.08 3 16.39 3 18c0 2.63 4.53 4 9 4s9-1.37 9-4c0-1.61-1.75-2.92-4.79-3.58z" fill="currentColor"></path>
  </symbol>
</svg>