<svg width="0" height="0" class="hidden">
    <symbol width="173" height="40" viewBox="0 0 173 40" fill="none" xmlns="http://www.w3.org/2000/svg" id="herodash">
        <path fill-rule="evenodd" clip-rule="evenodd" d="M1.85 1H19.7869C32.6764 1 40 7.64367 40 19.7663C40 32.1999 32.6764 39 19.7869 39H1.85C0.828272 39 0 38.1717 0 37.15V31H4.4345V22.232H12.1145V31H17.9385V8.6H12.1145V16.856H4.4345V8.6H0V2.85001C0 1.82828 0.828275 1 1.85 1Z" fill="#318C6E"/>
        <path d="M63.7325 14.805C62.0144 14.805 60.3959 15.5769 59.4497 16.8717V10.323H55.2167V28.5H59.4497V21.6525C59.4497 19.7103 60.5204 18.6894 61.9895 18.6894C63.3839 18.6894 64.2305 19.6107 64.2305 21.4035V28.5H68.4635V20.0589C68.4635 16.6974 66.4217 14.805 63.7325 14.805ZM84.3919 21.5031C84.3919 17.4195 81.379 14.805 77.5444 14.805C73.4857 14.805 70.3981 17.6685 70.3981 21.8517C70.3981 25.9851 73.3861 28.6992 77.5693 28.6992C80.9308 28.6992 83.5204 26.9313 84.2425 23.9433H80.1589C79.7854 24.765 78.8641 25.263 77.6191 25.263C76.0255 25.263 74.8303 24.4164 74.5315 22.7232H84.3172C84.367 22.2999 84.3919 21.8766 84.3919 21.5031ZM77.5444 18.2412C78.8392 18.2412 79.8103 18.8139 80.1589 20.034H74.7307C75.2038 18.8388 76.1998 18.2412 77.5444 18.2412ZM94.5291 15.0042C92.811 15.0042 91.3419 15.8757 90.6696 17.3697V15.0042H86.5362V28.5H90.7692V22.4991C90.7692 20.0589 91.9395 18.8886 94.3797 18.8886H95.7243V15.0042H94.5291ZM103.803 28.6992C107.837 28.6992 110.825 25.8606 110.825 21.7521C110.825 17.6436 107.837 14.805 103.803 14.805C99.7694 14.805 96.7814 17.6436 96.7814 21.7521C96.7814 25.8606 99.7694 28.6992 103.803 28.6992ZM103.803 24.9642C102.21 24.9642 101.064 23.769 101.064 21.7521C101.064 19.7352 102.21 18.54 103.803 18.54C105.397 18.54 106.542 19.7352 106.542 21.7521C106.542 23.769 105.397 24.9642 103.803 24.9642ZM122.132 16.6725C121.311 15.4773 119.916 14.805 118.273 14.805C115.011 14.805 112.322 17.4693 112.322 21.7521C112.322 26.0349 115.011 28.6992 118.273 28.6992C119.991 28.6992 121.435 27.9771 122.232 26.6823V28.5H126.365V10.323H122.132V16.6725ZM119.393 24.9642C117.8 24.9642 116.605 23.769 116.605 21.7521C116.605 19.7352 117.8 18.54 119.393 18.54C120.987 18.54 122.182 19.7352 122.182 21.7521C122.182 23.769 120.987 24.9642 119.393 24.9642ZM142.21 25.014C141.563 25.014 141.264 24.7152 141.264 24.0678V20.3079C141.264 16.7223 139.173 14.805 135.238 14.805C131.429 14.805 129.113 16.5978 128.839 19.4364H133.197C133.321 18.5898 134.018 18.0918 135.164 18.0918C136.508 18.0918 137.206 18.789 137.206 20.1087V20.3328H133.819C130.383 20.3328 128.266 22.026 128.266 24.5409C128.266 26.9562 130.234 28.6494 133.072 28.6494C134.989 28.6494 136.608 27.9024 137.479 26.5329C137.878 27.8526 139.048 28.5 140.766 28.5H142.609V25.014H142.21ZM134.317 25.4871C133.172 25.4871 132.524 24.9891 132.524 24.2421C132.524 23.4702 133.222 23.022 134.616 23.022H137.206C137.131 24.4413 135.985 25.4871 134.317 25.4871ZM149.639 28.6992C153.3 28.6992 155.516 26.7819 155.516 24.0678C155.516 22.026 154.246 20.7312 151.631 20.2581L149.341 19.8348C148.071 19.6107 147.722 19.3617 147.722 18.9384C147.722 18.3906 148.245 17.9922 149.266 17.9922C150.486 17.9922 151.208 18.5649 151.333 19.2372H155.366C155.192 16.4484 152.976 14.805 149.54 14.805C145.88 14.805 143.688 16.6725 143.688 19.2372C143.688 21.1545 144.933 22.4493 147.548 22.9224L149.839 23.3457C151.084 23.5698 151.482 23.9433 151.482 24.4164C151.482 25.0389 150.86 25.4622 149.839 25.4622C148.619 25.4622 147.772 24.8646 147.722 23.9931H143.688C143.713 26.8068 146.004 28.6992 149.639 28.6992ZM166.032 14.805C164.313 14.805 162.695 15.5769 161.749 16.8717V10.323H157.516V28.5H161.749V21.6525C161.749 19.7103 162.819 18.6894 164.289 18.6894C165.683 18.6894 166.53 19.6107 166.53 21.4035V28.5H170.763V20.0589C170.763 16.6974 168.721 14.805 166.032 14.805Z" fill="#318C6E"/>
    </symbol>
</svg>
