<svg width="0" height="0" class="hidden">
  <symbol viewBox="0 0 24 24" fill="none" xmlns="http://www.w3.org/2000/svg" id="money_business-qrcode-scan">
    <path d="M8 21H4C3.73478 21 3.48043 20.8946 3.29289 20.7071C3.10536 20.5196 3 20.2652 3 20V16C3 15.7348 2.89464 15.4804 2.70711 15.2929C2.51957 15.1054 2.26522 15 2 15C1.73478 15 1.48043 15.1054 1.29289 15.2929C1.10536 15.4804 1 15.7348 1 16V20C1 20.7956 1.31607 21.5587 1.87868 22.1213C2.44129 22.6839 3.20435 23 4 23H8C8.26522 23 8.51957 22.8946 8.70711 22.7071C8.89464 22.5196 9 22.2652 9 22C9 21.7348 8.89464 21.4804 8.70711 21.2929C8.51957 21.1054 8.26522 21 8 21ZM22 15C21.7348 15 21.4804 15.1054 21.2929 15.2929C21.1054 15.4804 21 15.7348 21 16V20C21 20.2652 20.8946 20.5196 20.7071 20.7071C20.5196 20.8946 20.2652 21 20 21H16C15.7348 21 15.4804 21.1054 15.2929 21.2929C15.1054 21.4804 15 21.7348 15 22C15 22.2652 15.1054 22.5196 15.2929 22.7071C15.4804 22.8946 15.7348 23 16 23H20C20.7956 23 21.5587 22.6839 22.1213 22.1213C22.6839 21.5587 23 20.7956 23 20V16C23 15.7348 22.8946 15.4804 22.7071 15.2929C22.5196 15.1054 22.2652 15 22 15ZM20 1H16C15.7348 1 15.4804 1.10536 15.2929 1.29289C15.1054 1.48043 15 1.73478 15 2C15 2.26522 15.1054 2.51957 15.2929 2.70711C15.4804 2.89464 15.7348 3 16 3H20C20.2652 3 20.5196 3.10536 20.7071 3.29289C20.8946 3.48043 21 3.73478 21 4V8C21 8.26522 21.1054 8.51957 21.2929 8.70711C21.4804 8.89464 21.7348 9 22 9C22.2652 9 22.5196 8.89464 22.7071 8.70711C22.8946 8.51957 23 8.26522 23 8V4C23 3.20435 22.6839 2.44129 22.1213 1.87868C21.5587 1.31607 20.7956 1 20 1ZM2 9C2.26522 9 2.51957 8.89464 2.70711 8.70711C2.89464 8.51957 3 8.26522 3 8V4C3 3.73478 3.10536 3.48043 3.29289 3.29289C3.48043 3.10536 3.73478 3 4 3H8C8.26522 3 8.51957 2.89464 8.70711 2.70711C8.89464 2.51957 9 2.26522 9 2C9 1.73478 8.89464 1.48043 8.70711 1.29289C8.51957 1.10536 8.26522 1 8 1H4C3.20435 1 2.44129 1.31607 1.87868 1.87868C1.31607 2.44129 1 3.20435 1 4V8C1 8.26522 1.10536 8.51957 1.29289 8.70711C1.48043 8.89464 1.73478 9 2 9ZM10 5H6C5.73478 5 5.48043 5.10536 5.29289 5.29289C5.10536 5.48043 5 5.73478 5 6V10C5 10.2652 5.10536 10.5196 5.29289 10.7071C5.48043 10.8946 5.73478 11 6 11H10C10.2652 11 10.5196 10.8946 10.7071 10.7071C10.8946 10.5196 11 10.2652 11 10V6C11 5.73478 10.8946 5.48043 10.7071 5.29289C10.5196 5.10536 10.2652 5 10 5ZM9 9H7V7H9V9ZM14 11H18C18.2652 11 18.5196 10.8946 18.7071 10.7071C18.8946 10.5196 19 10.2652 19 10V6C19 5.73478 18.8946 5.48043 18.7071 5.29289C18.5196 5.10536 18.2652 5 18 5H14C13.7348 5 13.4804 5.10536 13.2929 5.29289C13.1054 5.48043 13 5.73478 13 6V10C13 10.2652 13.1054 10.5196 13.2929 10.7071C13.4804 10.8946 13.7348 11 14 11ZM15 7H17V9H15V7ZM10 13H6C5.73478 13 5.48043 13.1054 5.29289 13.2929C5.10536 13.4804 5 13.7348 5 14V18C5 18.2652 5.10536 18.5196 5.29289 18.7071C5.48043 18.8946 5.73478 19 6 19H10C10.2652 19 10.5196 18.8946 10.7071 18.7071C10.8946 18.5196 11 18.2652 11 18V14C11 13.7348 10.8946 13.4804 10.7071 13.2929C10.5196 13.1054 10.2652 13 10 13ZM9 17H7V15H9V17ZM14 16C14.2652 16 14.5196 15.8946 14.7071 15.7071C14.8946 15.5196 15 15.2652 15 15C15.2652 15 15.5196 14.8946 15.7071 14.7071C15.8946 14.5196 16 14.2652 16 14C16 13.7348 15.8946 13.4804 15.7071 13.2929C15.5196 13.1054 15.2652 13 15 13H14C13.7348 13 13.4804 13.1054 13.2929 13.2929C13.1054 13.4804 13 13.7348 13 14V15C13 15.2652 13.1054 15.5196 13.2929 15.7071C13.4804 15.8946 13.7348 16 14 16ZM18 13C17.7348 13 17.4804 13.1054 17.2929 13.2929C17.1054 13.4804 17 13.7348 17 14V17C16.7348 17 16.4804 17.1054 16.2929 17.2929C16.1054 17.4804 16 17.7348 16 18C16 18.2652 16.1054 18.5196 16.2929 18.7071C16.4804 18.8946 16.7348 19 17 19H18C18.2652 19 18.5196 18.8946 18.7071 18.7071C18.8946 18.5196 19 18.2652 19 18V14C19 13.7348 18.8946 13.4804 18.7071 13.2929C18.5196 13.1054 18.2652 13 18 13ZM14 17C13.8022 17 13.6089 17.0586 13.4444 17.1685C13.28 17.2784 13.1518 17.4346 13.0761 17.6173C13.0004 17.8 12.9806 18.0011 13.0192 18.1951C13.0578 18.3891 13.153 18.5673 13.2929 18.7071C13.4327 18.847 13.6109 18.9422 13.8049 18.9808C13.9989 19.0194 14.2 18.9996 14.3827 18.9239C14.5654 18.8482 14.7216 18.72 14.8315 18.5556C14.9414 18.3911 15 18.1978 15 18C15 17.7348 14.8946 17.4804 14.7071 17.2929C14.5196 17.1054 14.2652 17 14 17Z" fill="currentColor" />
  </symbol>
  <symbol viewBox="0 0 24 24" fill="none" xmlns="http://www.w3.org/2000/svg" id="money_business-usd-circle">
    <path d="M11 9h4a1 1 0 1 0 0-2h-2V6a1 1 0 0 0-2 0v1a3 3 0 0 0 0 6h2a1 1 0 0 1 0 2H9a1 1 0 0 0 0 2h2v1a1 1 0 0 0 2 0v-1a3 3 0 0 0 0-6h-2a1 1 0 0 1 0-2zm1-8a11 11 0 1 0 0 22 11 11 0 0 0 0-22zm0 20a9 9 0 1 1 0-18 9 9 0 0 1 0 18z" fill="currentColor"></path>
  </symbol>
  <symbol viewBox="0 0 24 24" fill="none" xmlns="http://www.w3.org/2000/svg" id="money_business-usd-square">
    <path d="M11 9h4a1 1 0 1 0 0-2h-2V6a1 1 0 0 0-2 0v1a3 3 0 0 0 0 6h2a1 1 0 0 1 0 2H9a1 1 0 0 0 0 2h2v1a1 1 0 0 0 2 0v-1a3 3 0 0 0 0-6h-2a1 1 0 0 1 0-2zm8-7H5a3 3 0 0 0-3 3v14a3 3 0 0 0 3 3h14a3 3 0 0 0 3-3V5a3 3 0 0 0-3-3zm1 17a1 1 0 0 1-1 1H5a1 1 0 0 1-1-1V5a1 1 0 0 1 1-1h14a1 1 0 0 1 1 1v14z" fill="currentColor"></path>
  </symbol>
  <symbol viewBox="0 0 24 24" fill="none" xmlns="http://www.w3.org/2000/svg" id="money_business-dollar-alt">
    <path d="M14 11h-1V7h2a1 1 0 0 1 1 1 1 1 0 0 0 2 0 3 3 0 0 0-3-3h-2V3a1 1 0 0 0-2 0v2h-1a4 4 0 0 0 0 8h1v4H9a1 1 0 0 1-1-1 1 1 0 1 0-2 0 3 3 0 0 0 3 3h2v2a1 1 0 0 0 2 0v-2h1a4 4 0 1 0 0-8zm-3 0h-1a2 2 0 1 1 0-4h1v4zm3 6h-1v-4h1a2 2 0 0 1 0 4z" fill="currentColor"></path>
  </symbol>
  <symbol viewBox="0 0 24 24" fill="none" xmlns="http://www.w3.org/2000/svg" id="money_business-dollar-sign">
    <path d="M14 11h-4a2 2 0 1 1 0-4h5a1 1 0 0 1 1 1 1 1 0 0 0 2 0 3 3 0 0 0-3-3h-2V3a1 1 0 0 0-2 0v2h-1a4 4 0 0 0 0 8h4a2 2 0 0 1 0 4H9a1 1 0 0 1-1-1 1 1 0 1 0-2 0 3 3 0 0 0 3 3h2v2a1 1 0 0 0 2 0v-2h1a4 4 0 1 0 0-8z" fill="currentColor"></path>
  </symbol>
  <symbol viewBox="0 0 24 24" fill="none" xmlns="http://www.w3.org/2000/svg" id="money_business-percentage">
    <path d="M7.758 10.758a3 3 0 1 0 0-6 3 3 0 0 0 0 6zm0-4a1 1 0 1 1 0 2 1 1 0 0 1 0-2zm8.484 6.484a3 3 0 1 0 0 6 3 3 0 0 0 0-6zm0 4a1 1 0 1 1 0-2 1 1 0 0 1 0 2zm3.465-12.949a.999.999 0 0 0-1.414 0l-14 14a1 1 0 1 0 1.414 1.414l14-14a1 1 0 0 0 0-1.414z" fill="currentColor"></path>
  </symbol>
  <symbol viewBox="0 0 24 24" fill="none" xmlns="http://www.w3.org/2000/svg" id="money_business-exposure-increase">
    <path d="M11 7h-1V6a1 1 0 0 0-2 0v1H7a1 1 0 0 0 0 2h1v1a1 1 0 1 0 2 0V9h1a1 1 0 1 0 0-2zm2 11h4a1 1 0 0 0 0-2h-4a1 1 0 0 0 0 2zm6-16H5a3 3 0 0 0-3 3v14a3 3 0 0 0 3 3h14a3 3 0 0 0 3-3V5a3 3 0 0 0-3-3zM4 18.59V5a1 1 0 0 1 1-1h13.59L4 18.59zM20 19a1 1 0 0 1-1 1H5.41L20 5.41V19z" fill="currentColor"></path>
  </symbol>
  <symbol viewBox="0 0 24 24" fill="none" xmlns="http://www.w3.org/2000/svg" id="money_business-calculator-alt">
    <path d="M5.5 8H6v.5a1 1 0 0 0 2 0V8h.5a1 1 0 0 0 0-2H8v-.5a1 1 0 0 0-2 0V6h-.5a1 1 0 0 0 0 2zm-.62 11.12a1 1 0 0 0 1.41 0l.71-.71.71.71a1 1 0 0 0 1.41 0 1 1 0 0 0 0-1.41L8.41 17l.71-.71a1 1 0 0 0-1.41-1.41l-.71.71-.71-.71a1 1 0 0 0-1.41 1.41l.71.71-.71.71a1 1 0 0 0 0 1.41zM20 1H4a3 3 0 0 0-3 3v16a3 3 0 0 0 3 3h16a3 3 0 0 0 3-3V4a3 3 0 0 0-3-3zm-9 20H4a1 1 0 0 1-1-1v-7h8v8zm0-10H3V4a1 1 0 0 1 1-1h7v8zm10 9a1 1 0 0 1-1 1h-7v-8h8v7zm0-9h-8V3h7a1 1 0 0 1 1 1v7zm-5.5 5.5h3a1 1 0 0 0 0-2h-3a1 1 0 0 0 0 2zm3-10.5h-3a1 1 0 1 0 0 2h3a1 1 0 1 0 0-2zm-3 13.5h3a1 1 0 0 0 0-2h-3a1 1 0 0 0 0 2z" fill="currentColor"></path>
  </symbol>
  <symbol viewBox="0 0 24 24" fill="none" xmlns="http://www.w3.org/2000/svg" id="money_business-calculator">
    <path d="M12.71 17.29a1.007 1.007 0 0 0-.16-.12.561.561 0 0 0-.17-.09.602.602 0 0 0-.19-.06.93.93 0 0 0-.57.06.9.9 0 0 0-.54.54.84.84 0 0 0-.08.38 1 1 0 0 0 .07.38c.058.12.132.23.22.33A1 1 0 0 0 12 19a.84.84 0 0 0 .38-.08 1.15 1.15 0 0 0 .33-.21A1 1 0 0 0 13 18a1.001 1.001 0 0 0-.08-.38 1 1 0 0 0-.21-.33zm-4.16-4.12a.56.56 0 0 0-.17-.09.6.6 0 0 0-.19-.08.859.859 0 0 0-.39 0l-.18.06-.18.09-.15.12a1.05 1.05 0 0 0-.216 1.114 1 1 0 0 0 .216.326c.097.088.209.16.33.21A1 1 0 0 0 9 14a1.05 1.05 0 0 0-.29-.71l-.16-.12zm.16 4.12a1 1 0 0 0-.33-.21A1 1 0 0 0 7.8 17l-.18.06a.762.762 0 0 0-.18.09 1.577 1.577 0 0 0-.15.12 1 1 0 0 0-.21.33.94.94 0 0 0 0 .76A1 1 0 0 0 8 19a.84.84 0 0 0 .38-.08 1.15 1.15 0 0 0 .33-.21 1.15 1.15 0 0 0 .21-.33.94.94 0 0 0 0-.76 1 1 0 0 0-.21-.33zm2.91-4.21a1 1 0 0 0-.33.21A1.05 1.05 0 0 0 11 14a1 1 0 0 0 1.38.92 1.15 1.15 0 0 0 .33-.21A1 1 0 0 0 13 14a1.05 1.05 0 0 0-.29-.71.999.999 0 0 0-1.09-.21zm5.09 4.21a1.15 1.15 0 0 0-.33-.21 1 1 0 0 0-1.09.21 1 1 0 0 0-.21.33.94.94 0 0 0 0 .76c.05.121.122.233.21.33A1 1 0 0 0 16 19a.84.84 0 0 0 .38-.08 1.15 1.15 0 0 0 .33-.21.999.999 0 0 0 .21-1.09 1 1 0 0 0-.21-.33zM16 5H8a1 1 0 0 0-1 1v4a1 1 0 0 0 1 1h8a1 1 0 0 0 1-1V6a1 1 0 0 0-1-1zm-1 4H9V7h6v2zm3-8H6a3 3 0 0 0-3 3v16a3 3 0 0 0 3 3h12a3 3 0 0 0 3-3V4a3 3 0 0 0-3-3zm1 19a1 1 0 0 1-1 1H6a1 1 0 0 1-1-1V4a1 1 0 0 1 1-1h12a1 1 0 0 1 1 1v16zm-2.45-6.83a.561.561 0 0 0-.17-.09.602.602 0 0 0-.19-.06.859.859 0 0 0-.39 0l-.18.06-.18.09-.15.12A1.05 1.05 0 0 0 15 14a1 1 0 0 0 1.38.92 1.15 1.15 0 0 0 .33-.21A1 1 0 0 0 17 14a1.05 1.05 0 0 0-.29-.71l-.16-.12z" fill="currentColor"></path>
  </symbol>
  <symbol viewBox="0 0 24 24" fill="none" xmlns="http://www.w3.org/2000/svg" id="money_business-money-withdrawal">
    <path d="M22 2H2a1 1 0 0 0-1 1v8a1 1 0 0 0 1 1h3v9a1 1 0 0 0 1 1h12a1 1 0 0 0 1-1v-9h3a1 1 0 0 0 1-1V3a1 1 0 0 0-1-1zM7 20v-2a2 2 0 0 1 2 2H7zm10 0h-2a2 2 0 0 1 2-2v2zm0-4a4 4 0 0 0-4 4h-2a4 4 0 0 0-4-4V8h10v8zm4-6h-2V7a1 1 0 0 0-1-1H6a1 1 0 0 0-1 1v3H3V4h18v6zm-9 5a3 3 0 1 0 0-5.999A3 3 0 0 0 12 15zm0-4a1 1 0 1 1 0 2 1 1 0 0 1 0-2z" fill="currentColor"></path>
  </symbol>
  <symbol viewBox="0 0 24 24" fill="none" xmlns="http://www.w3.org/2000/svg" id="money_business-mobey-bill-slash">
    <path d="M6 11a1 1 0 1 0 0 2 1 1 0 0 0 0-2zm5.86-1.55L4.71 2.29a1.004 1.004 0 1 0-1.42 1.42L4.59 5H4a3 3 0 0 0-3 3v8a3 3 0 0 0 3 3h14.59l2.7 2.71a1.002 1.002 0 0 0 1.639-.325 1 1 0 0 0-.219-1.095L11.86 9.45zm-.74 2.09l1.34 1.34A1 1 0 0 1 12 13a1 1 0 0 1-1-1 1 1 0 0 1 .12-.46zM4 17a1 1 0 0 1-1-1V8a1 1 0 0 1 1-1h2.59l3.1 3.1A3 3 0 0 0 9 12a3 3 0 0 0 3 3 3 3 0 0 0 1.9-.69L16.59 17H4zM20 5h-7.34a1 1 0 1 0 0 2H20a1 1 0 0 1 1 1v7.34a1 1 0 0 0 2 0V8a3 3 0 0 0-3-3zm-1 7a1 1 0 1 0-2 0 1 1 0 0 0 2 0z" fill="currentColor"></path>
  </symbol>
  <symbol viewBox="0 0 24 24" fill="none" xmlns="http://www.w3.org/2000/svg" id="money_business-money-bill-stack">
    <path d="M20 1H4a3 3 0 0 0-3 3v16a3 3 0 0 0 3 3h16a3 3 0 0 0 3-3V4a3 3 0 0 0-3-3zM8 21H4a1 1 0 0 1-1-1v-1.18A3 3 0 0 0 4 19h4v2zm0-4H4a1 1 0 0 1-1-1v-1.18A3 3 0 0 0 4 15h4v2zm0-4H4a1 1 0 0 1-1-1V4a1 1 0 0 1 1-1h4v10zm6 8h-4v-6h4v6zm0-8h-4V3h4v10zm7 7a1 1 0 0 1-1 1h-4v-2h4a3 3 0 0 0 1-.18V20zm0-4a1 1 0 0 1-1 1h-4v-2h4a3 3 0 0 0 1-.18V16zm0-4a1 1 0 0 1-1 1h-4V3h4a1 1 0 0 1 1 1v8zm-3-5a1 1 0 1 0 0 2 1 1 0 0 0 0-2zM6 9a1 1 0 1 0 0-2 1 1 0 0 0 0 2z" fill="currentColor"></path>
  </symbol>
  <symbol viewBox="0 0 24 24" fill="none" xmlns="http://www.w3.org/2000/svg" id="money_business-money-bill">
    <path d="M6 11a1 1 0 1 0 0 2 1 1 0 0 0 0-2zm12 0a1 1 0 1 0 0 2 1 1 0 0 0 0-2zm2-6H4a3 3 0 0 0-3 3v8a3 3 0 0 0 3 3h16a3 3 0 0 0 3-3V8a3 3 0 0 0-3-3zm1 11a1 1 0 0 1-1 1H4a1 1 0 0 1-1-1V8a1 1 0 0 1 1-1h16a1 1 0 0 1 1 1v8zm-9-7a3 3 0 1 0 0 6 3 3 0 0 0 0-6zm0 4a1 1 0 1 1 0-2 1 1 0 0 1 0 2z" fill="currentColor"></path>
  </symbol>
  <symbol viewBox="0 0 24 24" fill="none" xmlns="http://www.w3.org/2000/svg" id="money_business-money-insert">
    <path d="M10.46 6l.54-.59V9a1 1 0 0 0 2 0V5.41l.54.55A1 1 0 0 0 15 6a1.001 1.001 0 0 0 0-1.42l-2.29-2.29a1 1 0 0 0-.33-.21 1 1 0 0 0-.76 0 1 1 0 0 0-.33.21L9 4.54A1.032 1.032 0 1 0 10.46 6zM12 12a3 3 0 1 0 0 5.999 3 3 0 0 0 0-6zm0 4a1 1 0 1 1 0-2.002A1 1 0 0 1 12 16zm-7-1a1 1 0 1 0 2 0 1 1 0 0 0-2 0zm14 0a1 1 0 1 0-2 0 1 1 0 0 0 2 0zm1-7h-4a1 1 0 1 0 0 2h4a1 1 0 0 1 1 1v8a1 1 0 0 1-1 1H4a1 1 0 0 1-1-1v-8a1 1 0 0 1 1-1h4a1 1 0 0 0 0-2H4a3 3 0 0 0-3 3v8a3 3 0 0 0 3 3h16a3 3 0 0 0 3-3v-8a3 3 0 0 0-3-3z" fill="currentColor"></path>
  </symbol>
  <symbol viewBox="0 0 24 24" fill="none" xmlns="http://www.w3.org/2000/svg" id="money_business-money-stack">
    <path d="M22 17H2a1 1 0 0 0 0 2h20a1 1 0 0 0 0-2zm0 4H2a1 1 0 0 0 0 2h20a1 1 0 0 0 0-2zM6 7a1 1 0 1 0 0 2 1 1 0 0 0 0-2zm14-6H4a3 3 0 0 0-3 3v8a3 3 0 0 0 3 3h16a3 3 0 0 0 3-3V4a3 3 0 0 0-3-3zm1 11a1 1 0 0 1-1 1H4a1 1 0 0 1-1-1V4a1 1 0 0 1 1-1h16a1 1 0 0 1 1 1v8zm-9-7a3 3 0 1 0 0 6 3 3 0 0 0 0-6zm0 4a1 1 0 1 1 0-2 1 1 0 0 1 0 2zm6-2a1 1 0 1 0 0 2 1 1 0 0 0 0-2z" fill="currentColor"></path>
  </symbol>
  <symbol viewBox="0 0 24 24" fill="none" xmlns="http://www.w3.org/2000/svg" id="money_business-money-withdraw">
    <path d="M12 12a3 3 0 1 0 0 5.999A3 3 0 0 0 12 12zm0 4a1 1 0 1 1 0-2 1 1 0 0 1 0 2zm-.71-6.29a1 1 0 0 0 .33.21.94.94 0 0 0 .76 0 1 1 0 0 0 .33-.21L15 7.46A1.032 1.032 0 1 0 13.54 6l-.54.59V3a1 1 0 0 0-2 0v3.59L10.46 6A1.032 1.032 0 1 0 9 7.46l2.29 2.25zM19 15a1 1 0 1 0-2 0 1 1 0 0 0 2 0zm1-7h-3a1 1 0 1 0 0 2h3a1 1 0 0 1 1 1v8a1 1 0 0 1-1 1H4a1 1 0 0 1-1-1v-8a1 1 0 0 1 1-1h3a1 1 0 0 0 0-2H4a3 3 0 0 0-3 3v8a3 3 0 0 0 3 3h16a3 3 0 0 0 3-3v-8a3 3 0 0 0-3-3zM5 15a1 1 0 1 0 2 0 1 1 0 0 0-2 0z" fill="currentColor"></path>
  </symbol>
  <symbol viewBox="0 0 24 24" fill="none" xmlns="http://www.w3.org/2000/svg" id="money_business-card-atm">
    <path d="M19 4.5H5a3 3 0 0 0-3 3v9a3 3 0 0 0 3 3h14a3 3 0 0 0 3-3v-9a3 3 0 0 0-3-3zm1 12a1 1 0 0 1-1 1H5a1 1 0 0 1-1-1v-9a1 1 0 0 1 1-1h14a1 1 0 0 1 1 1v9zm-4-6a3 3 0 0 0-1.51.42 3 3 0 1 0 0 5.16A3 3 0 1 0 16 10.5zm-2.83 4a1.005 1.005 0 0 1-.17 0 1 1 0 0 1 0-2 .965.965 0 0 1 .17 0 2.8 2.8 0 0 0 0 1.92v.08zm2.83 0a1 1 0 1 1 0-2 1 1 0 0 1 0 2z" fill="currentColor"></path>
  </symbol>
  <symbol viewBox="0 0 24 24" fill="none" xmlns="http://www.w3.org/2000/svg" id="money_business-credit-card">
    <path d="M7 15h3a1 1 0 0 0 0-2H7a1 1 0 0 0 0 2zM19 5H5a3 3 0 0 0-3 3v9a3 3 0 0 0 3 3h14a3 3 0 0 0 3-3V8a3 3 0 0 0-3-3zm1 12a1 1 0 0 1-1 1H5a1 1 0 0 1-1-1v-6h16v6zm0-8H4V8a1 1 0 0 1 1-1h14a1 1 0 0 1 1 1v1z" fill="currentColor"></path>
  </symbol>
  <symbol viewBox="0 0 24 24" fill="none" xmlns="http://www.w3.org/2000/svg" id="money_business-credit-card-search">
    <path d="M20 17.57C20.4954 16.7582 20.7078 15.805 20.6037 14.8596C20.4997 13.9142 20.0851 13.03 19.425 12.3454C18.7649 11.6607 17.8963 11.2142 16.9554 11.0758C16.0145 10.9374 15.0542 11.1148 14.2248 11.5803C13.3954 12.0458 12.7438 12.7732 12.3719 13.6485C12 14.5239 11.9288 15.4978 12.1694 16.418C12.4101 17.3381 12.949 18.1525 13.7018 18.7337C14.4546 19.3149 15.3789 19.6301 16.33 19.63C17.1199 19.6263 17.894 19.4086 18.57 19L20.29 20.73C20.383 20.8237 20.4936 20.8981 20.6154 20.9489C20.7373 20.9997 20.868 21.0258 21 21.0258C21.132 21.0258 21.2627 20.9997 21.3846 20.9489C21.5064 20.8981 21.617 20.8237 21.71 20.73C21.8037 20.637 21.8781 20.5264 21.9289 20.4046C21.9797 20.2827 22.0058 20.152 22.0058 20.02C22.0058 19.888 21.9797 19.7573 21.9289 19.6354C21.8781 19.5136 21.8037 19.403 21.71 19.31L20 17.57ZM18 17C17.5593 17.42 16.9738 17.6543 16.365 17.6543C15.7562 17.6543 15.1707 17.42 14.73 17C14.2983 16.5654 14.056 15.9776 14.056 15.365C14.056 14.7524 14.2983 14.1646 14.73 13.73C14.9446 13.515 15.1994 13.3445 15.48 13.2281C15.7605 13.1117 16.0613 13.0518 16.365 13.0518C16.6687 13.0518 16.9695 13.1117 17.25 13.2281C17.5306 13.3445 17.7854 13.515 18 13.73C18.4317 14.1646 18.674 14.7524 18.674 15.365C18.674 15.9776 18.4317 16.5654 18 17ZM19 3H5C4.20435 3 3.44129 3.31607 2.87868 3.87868C2.31607 4.44129 2 5.20435 2 6V15C2 15.7956 2.31607 16.5587 2.87868 17.1213C3.44129 17.6839 4.20435 18 5 18H9C9.26522 18 9.51957 17.8946 9.70711 17.7071C9.89464 17.5196 10 17.2652 10 17C10 16.7348 9.89464 16.4804 9.70711 16.2929C9.51957 16.1054 9.26522 16 9 16H5C4.73478 16 4.48043 15.8946 4.29289 15.7071C4.10536 15.5196 4 15.2652 4 15V9H20V10C20 10.2652 20.1054 10.5196 20.2929 10.7071C20.4804 10.8946 20.7348 11 21 11C21.2652 11 21.5196 10.8946 21.7071 10.7071C21.8946 10.5196 22 10.2652 22 10V6C22 5.20435 21.6839 4.44129 21.1213 3.87868C20.5587 3.31607 19.7956 3 19 3ZM20 7H4V6C4 5.73478 4.10536 5.48043 4.29289 5.29289C4.48043 5.10536 4.73478 5 5 5H19C19.2652 5 19.5196 5.10536 19.7071 5.29289C19.8946 5.48043 20 5.73478 20 6V7ZM10 11H7C6.73478 11 6.48043 11.1054 6.29289 11.2929C6.10536 11.4804 6 11.7348 6 12C6 12.2652 6.10536 12.5196 6.29289 12.7071C6.48043 12.8946 6.73478 13 7 13H10C10.2652 13 10.5196 12.8946 10.7071 12.7071C10.8946 12.5196 11 12.2652 11 12C11 11.7348 10.8946 11.4804 10.7071 11.2929C10.5196 11.1054 10.2652 11 10 11Z" fill="currentColor" />
  </symbol>

  <symbol viewBox="0 0 24 24" fill="none" xmlns="http://www.w3.org/2000/svg" id="money_business-wallet">
    <path d="M19 7h-1V6a3 3 0 0 0-3-3H5a3 3 0 0 0-3 3v12a3 3 0 0 0 3 3h14a3 3 0 0 0 3-3v-8a3 3 0 0 0-3-3zM5 5h10a1 1 0 0 1 1 1v1H5a1 1 0 0 1 0-2zm15 10h-1a1 1 0 0 1 0-2h1v2zm0-4h-1a3 3 0 0 0 0 6h1v1a1 1 0 0 1-1 1H5a1 1 0 0 1-1-1V8.83A3 3 0 0 0 5 9h14a1 1 0 0 1 1 1v1z" fill="currentColor"></path>
  </symbol>
  <symbol viewBox="0 0 24 24" fill="none" xmlns="http://www.w3.org/2000/svg" id="money_business-wallet-alt">
    <path d="M19 7H18V6C18 5.20435 17.6839 4.44129 17.1213 3.87868C16.5587 3.31607 15.7956 3 15 3H5C4.20435 3 3.44129 3.31607 2.87868 3.87868C2.31607 4.44129 2 5.20435 2 6V18C2 18.7956 2.31607 19.5587 2.87868 20.1213C3.44129 20.6839 4.20435 21 5 21H19C19.7956 21 20.5587 20.6839 21.1213 20.1213C21.6839 19.5587 22 18.7956 22 18V10C22 9.20435 21.6839 8.44129 21.1213 7.87868C20.5587 7.31607 19.7956 7 19 7ZM5 5H15C15.2652 5 15.5196 5.10536 15.7071 5.29289C15.8946 5.48043 16 5.73478 16 6V7H5C4.73478 7 4.48043 6.89464 4.29289 6.70711C4.10536 6.51957 4 6.26522 4 6C4 5.73478 4.10536 5.48043 4.29289 5.29289C4.48043 5.10536 4.73478 5 5 5ZM20 15H19C18.7348 15 18.4804 14.8946 18.2929 14.7071C18.1054 14.5196 18 14.2652 18 14C18 13.7348 18.1054 13.4804 18.2929 13.2929C18.4804 13.1054 18.7348 13 19 13H20V15Z" fill="currentColor" />
  </symbol>
  <symbol viewBox="0 0 24 24" fill="none" xmlns="http://www.w3.org/2000/svg" id="money_business-bag-alt">
    <path d="M19 6.5h-3v-1a3 3 0 0 0-3-3h-2a3 3 0 0 0-3 3v1H5a3 3 0 0 0-3 3v9a3 3 0 0 0 3 3h14a3 3 0 0 0 3-3v-9a3 3 0 0 0-3-3zm-9-1a1 1 0 0 1 1-1h2a1 1 0 0 1 1 1v1h-4v-1zm10 13a1 1 0 0 1-1 1H5a1 1 0 0 1-1-1V13a21.71 21.71 0 0 0 8 1.53A21.75 21.75 0 0 0 20 13v5.5zm0-7.69a19.89 19.89 0 0 1-16 0V9.5a1 1 0 0 1 1-1h14a1 1 0 0 1 1 1v1.31z" fill="currentColor"></path>
  </symbol>
  <symbol viewBox="0 0 24 24" fill="none" xmlns="http://www.w3.org/2000/svg" id="money_business-shopping-basket">
    <path d="M14 18a1 1 0 0 0 1-1v-2a1 1 0 0 0-2 0v2a1 1 0 0 0 1 1zm-4 0a1 1 0 0 0 1-1v-2a1 1 0 0 0-2 0v2a1 1 0 0 0 1 1zm9-12h-1.38l-1.73-3.45a1 1 0 1 0-1.78.9L15.38 6H8.62l1.27-2.55a1 1 0 0 0-1.78-.9L6.38 6H5a3 3 0 0 0-.92 5.84l.74 7.46a3 3 0 0 0 3 2.7h8.38a3 3 0 0 0 3-2.7l.74-7.46A3 3 0 0 0 19 6zm-1.81 13.1a1 1 0 0 1-1 .9H7.81a1 1 0 0 1-1-.9L6.1 12h11.8l-.71 7.1zM19 10H5a1 1 0 1 1 0-2h14a1 1 0 1 1 0 2z" fill="currentColor"></path>
  </symbol>
  <symbol viewBox="0 0 24 24" fill="none" xmlns="http://www.w3.org/2000/svg" id="money_business-shopping-cart-alt">
    <path d="M21 16H7a1 1 0 0 1 0-2h10.44a3 3 0 0 0 2.91-2.27L22 5.24a1 1 0 0 0-.18-.86A1 1 0 0 0 21 4H6.76a3 3 0 0 0-2.82-2H3a1 1 0 0 0 0 2h.94a1 1 0 0 1 1 .76l.06.48L6.73 12A3.003 3.003 0 1 0 7 18h.18a3 3 0 1 0 5.64 0h2.36a3 3 0 1 0 5.64 0H21a1 1 0 0 0 0-2zM19.72 6l-1.31 5.24a1 1 0 0 1-1 .76H8.78l-1.5-6h12.44zM10 20a1 1 0 1 1 0-2 1 1 0 0 1 0 2zm8 0a1 1 0 1 1 0-2 1 1 0 0 1 0 2z" fill="currentColor"></path>
  </symbol>
  <symbol viewBox="0 0 24 24" fill="none" xmlns="http://www.w3.org/2000/svg" id="money_business-store-alt">
    <path d="M22 2H2a1 1 0 0 0-1 1v4a3 3 0 0 0 2 2.82V21a1 1 0 0 0 1 1h16a1 1 0 0 0 1-1V9.82A3 3 0 0 0 23 7V3a1 1 0 0 0-1-1zm-7 2h2v3a1 1 0 0 1-2 0V4zm-4 0h2v3a1 1 0 0 1-2 0V4zM7 4h2v3a1 1 0 0 1-2 0V4zM4 8a1 1 0 0 1-1-1V4h2v3a1 1 0 0 1-1 1zm10 12h-4v-4a2 2 0 0 1 4 0v4zm5 0h-3v-4a4 4 0 1 0-8 0v4H5V9.82a3.17 3.17 0 0 0 1-.6 3 3 0 0 0 4 0 3 3 0 0 0 4 0 3 3 0 0 0 4 0c.293.26.632.464 1 .6V20zm2-13a1 1 0 0 1-2 0V4h2v3z" fill="currentColor"></path>
  </symbol>
  <symbol viewBox="0 0 24 24" fill="none" xmlns="http://www.w3.org/2000/svg" id="money_business-store">
    <path d="M22 7.82a1.255 1.255 0 0 0 0-.19l-2-5A1 1 0 0 0 19 2H5a1 1 0 0 0-.93.63l-2 5a1.25 1.25 0 0 0 0 .19A.58.58 0 0 0 2 8a4 4 0 0 0 2 3.4V21a1 1 0 0 0 1 1h14a1 1 0 0 0 1-1v-9.56A4 4 0 0 0 22 8c.01-.06.01-.12 0-.18zM13 20h-2v-4h2v4zm5 0h-3v-5a1 1 0 0 0-1-1h-4a1 1 0 0 0-1 1v5H6v-8a4 4 0 0 0 3-1.38 4 4 0 0 0 6 0A4 4 0 0 0 18 12v8zm0-10a2 2 0 0 1-2-2 1 1 0 0 0-2 0 2 2 0 1 1-4 0 1 1 0 0 0-2 0 2.001 2.001 0 1 1-4 .15L5.68 4h12.64L20 8.15A2 2 0 0 1 18 10z" fill="currentColor"></path>
  </symbol>
  <symbol viewBox="0 0 24 24" fill="none" xmlns="http://www.w3.org/2000/svg" id="money_business-shopping-bag">
    <path d="M19 7H16V6C16 4.93913 15.5786 3.92172 14.8284 3.17157C14.0783 2.42143 13.0609 2 12 2C10.9391 2 9.92172 2.42143 9.17157 3.17157C8.42143 3.92172 8 4.93913 8 6V7H5C4.73478 7 4.48043 7.10536 4.29289 7.29289C4.10536 7.48043 4 7.73478 4 8V19C4 19.7956 4.31607 20.5587 4.87868 21.1213C5.44129 21.6839 6.20435 22 7 22H17C17.7956 22 18.5587 21.6839 19.1213 21.1213C19.6839 20.5587 20 19.7956 20 19V8C20 7.73478 19.8946 7.48043 19.7071 7.29289C19.5196 7.10536 19.2652 7 19 7ZM10 6C10 5.46957 10.2107 4.96086 10.5858 4.58579C10.9609 4.21071 11.4696 4 12 4C12.5304 4 13.0391 4.21071 13.4142 4.58579C13.7893 4.96086 14 5.46957 14 6V7H10V6ZM18 19C18 19.2652 17.8946 19.5196 17.7071 19.7071C17.5196 19.8946 17.2652 20 17 20H7C6.73478 20 6.48043 19.8946 6.29289 19.7071C6.10536 19.5196 6 19.2652 6 19V9H8V10C8 10.2652 8.10536 10.5196 8.29289 10.7071C8.48043 10.8946 8.73478 11 9 11C9.26522 11 9.51957 10.8946 9.70711 10.7071C9.89464 10.5196 10 10.2652 10 10V9H14V10C14 10.2652 14.1054 10.5196 14.2929 10.7071C14.4804 10.8946 14.7348 11 15 11C15.2652 11 15.5196 10.8946 15.7071 10.7071C15.8946 10.5196 16 10.2652 16 10V9H18V19Z" fill="currentColor" />
  </symbol>
  <symbol viewBox="0 0 24 24" fill="none" xmlns="http://www.w3.org/2000/svg" id="money_business-shopping-bag-alt">
    <path d="M19 7H16V6C16 4.93913 15.5786 3.92172 14.8284 3.17157C14.0783 2.42143 13.0609 2 12 2C10.9391 2 9.92172 2.42143 9.17157 3.17157C8.42143 3.92172 8 4.93913 8 6V7H5C4.73478 7 4.48043 7.10536 4.29289 7.29289C4.10536 7.48043 4 7.73478 4 8V19C4 19.7956 4.31607 20.5587 4.87868 21.1213C5.44129 21.6839 6.20435 22 7 22H17C17.7956 22 18.5587 21.6839 19.1213 21.1213C19.6839 20.5587 20 19.7956 20 19V8C20 7.73478 19.8946 7.48043 19.7071 7.29289C19.5196 7.10536 19.2652 7 19 7ZM10 6C10 5.46957 10.2107 4.96086 10.5858 4.58579C10.9609 4.21071 11.4696 4 12 4C12.5304 4 13.0391 4.21071 13.4142 4.58579C13.7893 4.96086 14 5.46957 14 6V7H10V6Z" fill="currentColor" />
  </symbol>
  <symbol viewBox="0 0 24 24" fill="none" xmlns="http://www.w3.org/2000/svg" id="money_business-box">
    <path d="M20.49 7.52a.19.19 0 0 1 0-.08.172.172 0 0 1 0-.07v-.09l-.06-.15a.48.48 0 0 0-.09-.11l-.09-.08h-.05l-3.94-2.49-3.72-2.3a.85.85 0 0 0-.29-.15h-.08a.82.82 0 0 0-.27 0h-.1a1.13 1.13 0 0 0-.33.13L4 6.78l-.09.07-.09.08-.1.07-.05.06-.06.15v.15a.69.69 0 0 0 0 .2v8.73a1 1 0 0 0 .47.85l7.5 4.64.15.06h.08a.86.86 0 0 0 .52 0h.08l.15-.06L20 17.21a1 1 0 0 0 .47-.85V7.63s.02-.07.02-.11zM12 4.17l1.78 1.1-5.59 3.46-1.79-1.1L12 4.17zm-1 15l-5.5-3.36V9.42l5.5 3.4v6.35zm1-8.11l-1.91-1.15 5.59-3.47 1.92 1.19-5.6 3.43zm6.5 4.72L13 19.2v-6.38l5.5-3.4v6.36z" fill="currentColor"></path>
  </symbol>
  <symbol viewBox="0 0 24 24" fill="none" xmlns="http://www.w3.org/2000/svg" id="money_business-truck-loading">
    <path d="M9 10a1 1 0 0 0-1 1v2a1 1 0 1 0 2 0v-2a1 1 0 0 0-1-1zm12 1a1 1 0 0 0 1-1V6a1 1 0 0 0-1-1H3a1 1 0 0 0-1 1v4a1 1 0 0 0 1 1 1 1 0 0 1 0 2 1 1 0 0 0-1 1v4a1 1 0 0 0 1 1h18a1 1 0 0 0 1-1v-4a1 1 0 0 0-1-1 1 1 0 0 1 0-2zm-1-1.82a3 3 0 0 0 0 5.64V17H10a1 1 0 1 0-2 0H4v-2.18a3 3 0 0 0 0-5.64V7h4a1 1 0 0 0 2 0h10v2.18z" fill="currentColor"></path>
  </symbol>
  <symbol viewBox="0 0 24 24" fill="none" xmlns="http://www.w3.org/2000/svg" id="money_business-gift">
    <path d="M18 7h-.35A3.45 3.45 0 0 0 18 5.5a3.49 3.49 0 0 0-6-2.44A3.49 3.49 0 0 0 6 5.5 3.45 3.45 0 0 0 6.35 7H6a3 3 0 0 0-3 3v2a1 1 0 0 0 1 1h1v6a3 3 0 0 0 3 3h8a3 3 0 0 0 3-3v-6h1a1 1 0 0 0 1-1v-2a3 3 0 0 0-3-3zm-7 13H8a1 1 0 0 1-1-1v-6h4v7zm0-9H5v-1a1 1 0 0 1 1-1h5v2zm0-4H9.5A1.5 1.5 0 1 1 11 5.5V7zm2-1.5A1.5 1.5 0 1 1 14.5 7H13V5.5zM17 19a1 1 0 0 1-1 1h-3v-7h4v6zm2-8h-6V9h5a1 1 0 0 1 1 1v1z" fill="currentColor"></path>
  </symbol>
  <symbol viewBox="0 0 24 24" fill="none" xmlns="http://www.w3.org/2000/svg" id="money_business-ticket">
    <path d="M22 16h-2.18a3 3 0 0 0 .18-1v-5a3 3 0 0 0-3-3h-6a3 3 0 0 0-3 3v5a3 3 0 0 0 .18 1H7a1 1 0 0 1-1-1V5a3 3 0 0 0-3-3H2a1 1 0 0 0 0 2h1a1 1 0 0 1 1 1v10a3 3 0 0 0 2.22 2.88 3 3 0 1 0 5.6.12h3.36a3 3 0 1 0 5.64 0H22a1 1 0 0 0 0-2zM9 20a1 1 0 1 1 0-2 1 1 0 0 1 0 2zm2-4a1 1 0 0 1-1-1v-5a1 1 0 0 1 1-1h6a1 1 0 0 1 1 1v5a1 1 0 0 1-1 1h-6zm7 4a1 1 0 1 1 0-2 1 1 0 0 1 0 2z" fill="currentColor"></path>
  </symbol>
  <symbol viewBox="0 0 24 24" fill="none" xmlns="http://www.w3.org/2000/svg" id="money_business-tag">
    <path d="M21.12 10.71l-8.41-8.42A1.001 1.001 0 0 0 12 2H3a1 1 0 0 0-1 1v9a1 1 0 0 0 .29.71l8.42 8.41a3 3 0 0 0 4.24 0L21.12 15a3 3 0 0 0 0-4.24v-.05zm-1.41 2.82l-6.18 6.17a1 1 0 0 1-1.41 0L4 11.59V4h7.59l8.12 8.12a1.001 1.001 0 0 1 0 1.41z" fill="currentColor"></path>
  </symbol>
  <symbol viewBox="0 0 24 24" fill="none" xmlns="http://www.w3.org/2000/svg" id="money_business-label">
    <path d="M21.71 11.29l-5-5A1 1 0 0 0 16 6H5a3 3 0 0 0-3 3v6a3 3 0 0 0 3 3h11a.998.998 0 0 0 .71-.29l5-5a1 1 0 0 0 0-1.42zM15.59 16H5a1 1 0 0 1-1-1V9a1 1 0 0 1 1-1h10.59l4 4-4 4z" fill="currentColor"></path>
  </symbol>
  <symbol viewBox="0 0 24 24" fill="none" xmlns="http://www.w3.org/2000/svg" id="money_business-receipt-alt">
    <path d="M10 8h6a1 1 0 1 0 0-2h-6a1 1 0 0 0 0 2zm-2 4h8a1 1 0 0 0 0-2H8a1 1 0 0 0 0 2zm0 4h8a1 1 0 0 0 0-2H8a1 1 0 0 0 0 2zM20 2H4a1 1 0 0 0-1 1v18a1 1 0 0 0 1.6.8l2.07-1.55 2.06 1.55a1 1 0 0 0 1.2 0L12 20.25l2.07 1.55a1 1 0 0 0 1.2 0l2.06-1.55 2.07 1.55a1 1 0 0 0 1.45-.277A1 1 0 0 0 21 21V3a1 1 0 0 0-1-1zm-1 17l-1.07-.8a1 1 0 0 0-1.2 0l-2.06 1.55-2.07-1.55a1 1 0 0 0-1.2 0l-2.07 1.55-2.06-1.55a1 1 0 0 0-1.2 0L5 19V4h14v15z" fill="currentColor"></path>
  </symbol>
  <symbol viewBox="0 0 24 24" fill="none" xmlns="http://www.w3.org/2000/svg" id="money_business-meeting-board">
    <path d="M7 10h2a1 1 0 0 0 0-2H7a1 1 0 0 0 0 2zm14-6h-8V3a1 1 0 0 0-2 0v1H3a1 1 0 0 0-1 1v10a3 3 0 0 0 3 3h4.59l-2.3 2.29a1 1 0 0 0 .325 1.639 1 1 0 0 0 1.095-.219l2.29-2.3V21a1 1 0 0 0 2 0v-1.59l2.29 2.3a1.002 1.002 0 0 0 1.639-.325 1 1 0 0 0-.219-1.095L14.41 18H19a3 3 0 0 0 3-3V5a1 1 0 0 0-1-1zm-1 11a1 1 0 0 1-1 1H5a1 1 0 0 1-1-1V6h16v9zM7 14h6a1 1 0 0 0 0-2H7a1 1 0 0 0 0 2z" fill="currentColor"></path>
  </symbol>
  <symbol viewBox="0 0 24 24" fill="none" xmlns="http://www.w3.org/2000/svg" id="money_business-invoice">
    <path d="M13 16H7a1 1 0 1 0 0 2h6a1 1 0 0 0 0-2zm-4-6h2a1 1 0 0 0 0-2H9a1 1 0 0 0 0 2zm12 2h-3V3a1 1 0 0 0-1.5-.87l-3 1.72-3-1.72a1 1 0 0 0-1 0l-3 1.72-3-1.72A1 1 0 0 0 2 3v16a3 3 0 0 0 3 3h14a3 3 0 0 0 3-3v-6a1 1 0 0 0-1-1zM5 20a1 1 0 0 1-1-1V4.73l2 1.14a1.08 1.08 0 0 0 1 0l3-1.72 3 1.72a1.08 1.08 0 0 0 1 0l2-1.14V19a3 3 0 0 0 .18 1H5zm15-1a1 1 0 0 1-2 0v-5h2v5zm-7-7H7a1 1 0 1 0 0 2h6a1 1 0 0 0 0-2z" fill="currentColor"></path>
  </symbol>
  <symbol viewBox="0 0 24 24" fill="none" xmlns="http://www.w3.org/2000/svg" id="money_business-parcel">
    <path d="M7 14h2a1 1 0 0 0 0-2H7a1 1 0 0 0 0 2zm6 2H7a1 1 0 0 0 0 2h6a1 1 0 0 0 0-2zm6-14H5a3 3 0 0 0-3 3v14a3 3 0 0 0 3 3h14a3 3 0 0 0 3-3V5a3 3 0 0 0-3-3zm-5 2v3.29l-1.51-.84a1 1 0 0 0-1 0L10 7.29V4h4zm6 15a1 1 0 0 1-1 1H5a1 1 0 0 1-1-1V5a1 1 0 0 1 1-1h3v5a1 1 0 0 0 1.5.86L12 8.47l2.51 1.4a1 1 0 0 0 1.197-.163A1 1 0 0 0 16 9V4h3a1 1 0 0 1 1 1v14z" fill="currentColor"></path>
  </symbol>
  <symbol viewBox="0 0 24 24" fill="none" xmlns="http://www.w3.org/2000/svg" id="money_business-notes">
    <path d="M16 14H8a1 1 0 0 0 0 2h8a1 1 0 0 0 0-2zm0-4h-6a1 1 0 0 0 0 2h6a1 1 0 0 0 0-2zm4-6h-3V3a1 1 0 0 0-2 0v1h-2V3a1 1 0 0 0-2 0v1H9V3a1 1 0 0 0-2 0v1H4a1 1 0 0 0-1 1v14a3 3 0 0 0 3 3h12a3 3 0 0 0 3-3V5a1 1 0 0 0-1-1zm-1 15a1 1 0 0 1-1 1H6a1 1 0 0 1-1-1V6h2v1a1 1 0 0 0 2 0V6h2v1a1 1 0 0 0 2 0V6h2v1a1 1 0 0 0 2 0V6h2v13z" fill="currentColor"></path>
  </symbol>
  <symbol viewBox="0 0 24 24" fill="none" xmlns="http://www.w3.org/2000/svg" id="money_business-newspaper">
    <path d="M17 11h-1a1 1 0 0 0 0 2h1a1 1 0 0 0 0-2zm0 4h-1a1 1 0 0 0 0 2h1a1 1 0 0 0 0-2zm-6-6h6a1 1 0 1 0 0-2h-6a1 1 0 1 0 0 2zm10-6H7a1 1 0 0 0-1 1v3H3a1 1 0 0 0-1 1v10a3 3 0 0 0 3 3h13a4 4 0 0 0 4-4V4a1 1 0 0 0-1-1zM6 18a1 1 0 1 1-2 0V9h2v9zm14-1a2 2 0 0 1-2 2H7.82A3 3 0 0 0 8 18V5h12v12zm-9-4h1a1 1 0 0 0 0-2h-1a1 1 0 0 0 0 2zm0 4h1a1 1 0 0 0 0-2h-1a1 1 0 0 0 0 2z" fill="currentColor"></path>
  </symbol>
  <symbol viewBox="0 0 24 24" fill="none" xmlns="http://www.w3.org/2000/svg" id="money_business-notebooks">
    <path d="M21 6a1 1 0 0 0-1 1v10a3 3 0 0 1-3 3H7a1 1 0 0 0 0 2h10a5 5 0 0 0 5-5V7a1 1 0 0 0-1-1zm-3 9V5a3 3 0 0 0-3-3H5a3 3 0 0 0-3 3v10a3 3 0 0 0 3 3h10a3 3 0 0 0 3-3zM10 4h2v4.86l-.36-.3a1 1 0 0 0-1.28 0l-.36.3V4zM4 15V5a1 1 0 0 1 1-1h3v7a1 1 0 0 0 1.65.76L11 10.63l1.35 1.13A1 1 0 0 0 14 11V4h1a1 1 0 0 1 1 1v10a1 1 0 0 1-1 1H5a1 1 0 0 1-1-1z" fill="currentColor"></path>
  </symbol>
  <symbol viewBox="0 0 24 24" fill="none" xmlns="http://www.w3.org/2000/svg" id="money_business-transaction">
    <path d="M20 2H10C9.20435 2 8.44129 2.31607 7.87868 2.87868C7.31607 3.44129 7 4.20435 7 5V12C7 12.7956 7.31607 13.5587 7.87868 14.1213C8.44129 14.6839 9.20435 15 10 15H20C20.7956 15 21.5587 14.6839 22.1213 14.1213C22.6839 13.5587 23 12.7956 23 12V5C23 4.20435 22.6839 3.44129 22.1213 2.87868C21.5587 2.31607 20.7956 2 20 2ZM21 12C21 12.2652 20.8946 12.5196 20.7071 12.7071C20.5196 12.8946 20.2652 13 20 13H10C9.73478 13 9.48043 12.8946 9.29289 12.7071C9.10536 12.5196 9 12.2652 9 12V5C9 4.73478 9.10536 4.48043 9.29289 4.29289C9.48043 4.10536 9.73478 4 10 4H20C20.2652 4 20.5196 4.10536 20.7071 4.29289C20.8946 4.48043 21 4.73478 21 5V12ZM17.5 8C17.1298 8.00125 16.7733 8.14028 16.5 8.39C16.285 8.19455 16.0178 8.06577 15.7309 8.0193C15.4441 7.97284 15.1499 8.01069 14.8842 8.12826C14.6185 8.24582 14.3926 8.43805 14.234 8.68157C14.0755 8.92509 13.9911 9.20942 13.9911 9.5C13.9911 9.79058 14.0755 10.0749 14.234 10.3184C14.3926 10.562 14.6185 10.7542 14.8842 10.8717C15.1499 10.9893 15.4441 11.0272 15.7309 10.9807C16.0178 10.9342 16.285 10.8054 16.5 10.61C16.6806 10.7741 16.8985 10.8917 17.1348 10.9526C17.3711 11.0134 17.6187 11.0157 17.8561 10.9592C18.0935 10.9027 18.3135 10.7892 18.4971 10.6284C18.6807 10.4676 18.8223 10.2645 18.9096 10.0366C18.9969 9.80877 19.0273 9.56304 18.9981 9.32076C18.969 9.07848 18.8812 8.84697 18.7423 8.64632C18.6034 8.44567 18.4177 8.28192 18.2012 8.1693C17.9847 8.05667 17.744 7.99856 17.5 8ZM16 17C15.7348 17 15.4804 17.1054 15.2929 17.2929C15.1054 17.4804 15 17.7348 15 18V19C15 19.2652 14.8946 19.5196 14.7071 19.7071C14.5196 19.8946 14.2652 20 14 20H4C3.73478 20 3.48043 19.8946 3.29289 19.7071C3.10536 19.5196 3 19.2652 3 19V15H4C4.26522 15 4.51957 14.8946 4.70711 14.7071C4.89464 14.5196 5 14.2652 5 14C5 13.7348 4.89464 13.4804 4.70711 13.2929C4.51957 13.1054 4.26522 13 4 13H3V12C3 11.7348 3.10536 11.4804 3.29289 11.2929C3.48043 11.1054 3.73478 11 4 11C4.26522 11 4.51957 10.8946 4.70711 10.7071C4.89464 10.5196 5 10.2652 5 10C5 9.73478 4.89464 9.48043 4.70711 9.29289C4.51957 9.10536 4.26522 9 4 9C3.20435 9 2.44129 9.31607 1.87868 9.87868C1.31607 10.4413 1 11.2044 1 12V19C1 19.7956 1.31607 20.5587 1.87868 21.1213C2.44129 21.6839 3.20435 22 4 22H14C14.7956 22 15.5587 21.6839 16.1213 21.1213C16.6839 20.5587 17 19.7956 17 19V18C17 17.7348 16.8946 17.4804 16.7071 17.2929C16.5196 17.1054 16.2652 17 16 17ZM6 18H7C7.26522 18 7.51957 17.8946 7.70711 17.7071C7.89464 17.5196 8 17.2652 8 17C8 16.7348 7.89464 16.4804 7.70711 16.2929C7.51957 16.1054 7.26522 16 7 16H6C5.73478 16 5.48043 16.1054 5.29289 16.2929C5.10536 16.4804 5 16.7348 5 17C5 17.2652 5.10536 17.5196 5.29289 17.7071C5.48043 17.8946 5.73478 18 6 18Z" fill="currentColor" />
  </symbol>
  <symbol viewBox="0 0 24 24" fill="none" xmlns="http://www.w3.org/2000/svg" id="money_business-package">
    <path d="M19 2H5a3 3 0 0 0-3 3v14a3 3 0 0 0 3 3h14a3 3 0 0 0 3-3V5a3 3 0 0 0-3-3zm-9 2h4v3.13l-1.45-1a1 1 0 0 0-1.1 0l-1.45 1V4zm10 15a1 1 0 0 1-1 1H5a1 1 0 0 1-1-1V5a1 1 0 0 1 1-1h3v5a1 1 0 0 0 .53.88 1 1 0 0 0 1-.05L12 8.2l2.45 1.63A1 1 0 0 0 16 9V4h3a1 1 0 0 1 1 1v14z" fill="currentColor"></path>
  </symbol>
  <symbol viewBox="0 0 24 24" fill="none" xmlns="http://www.w3.org/2000/svg" id="money_business-virtual-card">
    <path fill-rule="evenodd" clip-rule="evenodd" d="M10 15H7C6.73478 15 6.48043 14.8946 6.29289 14.7071C6.10536 14.5196 6 14.2652 6 14C6 13.7348 6.10536 13.4804 6.29289 13.2929C6.48043 13.1054 6.73478 13 7 13H10C10.2652 13 10.5196 13.1054 10.7071 13.2929C10.8946 13.4804 11 13.7348 11 14C11 14.2652 10.8946 14.5196 10.7071 14.7071C10.5196 14.8946 10.2652 15 10 15ZM5 5H15V7H5C4.73478 7 4.48043 7.10536 4.29289 7.29289C4.10536 7.48043 4 7.73478 4 8V11V17C4 17.2652 4.10536 17.5196 4.29289 17.7071C4.48043 17.8946 4.73478 18 5 18H15V20H5C4.20435 20 3.44129 19.6839 2.87868 19.1213C2.31607 18.5587 2 17.7956 2 17V8C2 7.20435 2.31607 6.44129 2.87868 5.87868C3.44129 5.31607 4.20435 5 5 5ZM18 20H19C19.7956 20 20.5587 19.6839 21.1213 19.1213C21.6839 18.5587 22 17.7956 22 17V14H20V17C20 17.2652 19.8946 17.5196 19.7071 17.7071C19.5196 17.8946 19.2652 18 19 18H18V20ZM18 7V5H19C19.7956 5 20.5587 5.31607 21.1213 5.87868C21.6839 6.44129 22 7.20435 22 8V11H20V8C20 7.73478 19.8946 7.48043 19.7071 7.29289C19.5196 7.10536 19.2652 7 19 7H18Z" fill="currentColor" />
  </symbol>
  <symbol viewBox="0 0 24 24" fill="none" xmlns="http://www.w3.org/2000/svg" id="money_business-avatar-maquininhas">
    <mask id="path-1-inside-1" fill="white">
      <path d="M12.6311 19.1583C12.5874 19.1199 12.5397 19.0859 12.4889 19.0566C12.4435 19.023 12.3924 18.9972 12.3378 18.9802C12.2848 18.9544 12.2278 18.9372 12.1689 18.9294C11.9986 18.895 11.8213 18.9128 11.6622 18.9802C11.5519 19.0183 11.4517 19.0791 11.3688 19.1582C11.2858 19.2373 11.2221 19.3329 11.1822 19.4381C11.1325 19.5388 11.1081 19.6491 11.1111 19.7603C11.1097 19.8706 11.1308 19.98 11.1733 20.0826C11.2249 20.1839 11.2907 20.278 11.3689 20.3624C11.4519 20.441 11.5504 20.5031 11.6588 20.5453C11.7671 20.5875 11.883 20.6089 12 20.6083C12.1166 20.6111 12.2323 20.5879 12.3378 20.5404C12.4455 20.4975 12.5447 20.4373 12.6311 20.3624C12.7135 20.2831 12.7787 20.1892 12.8229 20.0859C12.8671 19.9826 12.8896 19.8719 12.8889 19.7603C12.8875 19.6495 12.8633 19.5401 12.8178 19.4381C12.7755 19.334 12.712 19.2389 12.6311 19.1583ZM8.93333 15.6648C8.88795 15.6313 8.83683 15.6054 8.78222 15.5885C8.73045 15.5568 8.67331 15.5338 8.61333 15.5207C8.4993 15.4953 8.3807 15.4953 8.26667 15.5207L8.10667 15.5715L7.94667 15.6479L7.81333 15.7496C7.64669 15.9164 7.55429 16.1382 7.55556 16.3686C7.55488 16.4802 7.5773 16.5908 7.62154 16.6941C7.66577 16.7974 7.73095 16.8914 7.81333 16.9706C7.89973 17.0455 7.99895 17.1058 8.10667 17.1487C8.24133 17.2015 8.38752 17.2219 8.5324 17.2082C8.67727 17.1944 8.81639 17.1469 8.93752 17.0699C9.05866 16.9929 9.1581 16.8886 9.22712 16.7663C9.29614 16.6441 9.33261 16.5075 9.33333 16.3686C9.33006 16.1441 9.23799 15.9291 9.07556 15.7666L8.93333 15.6648ZM9.07556 19.1583C8.99102 19.0811 8.89133 19.0206 8.78222 18.9802C8.62131 18.9091 8.44176 18.8854 8.26667 18.9124L8.10667 18.9633C8.05002 18.9818 7.99622 19.0075 7.94667 19.0396C7.9001 19.0709 7.85557 19.1049 7.81333 19.1413C7.73241 19.222 7.66897 19.3171 7.62667 19.4212C7.57964 19.5227 7.55535 19.6324 7.55535 19.7434C7.55535 19.8544 7.57964 19.9641 7.62667 20.0656C7.67168 20.1684 7.73482 20.263 7.81333 20.3454C7.89491 20.4271 7.99275 20.4924 8.10112 20.5375C8.20949 20.5826 8.32621 20.6067 8.44444 20.6083C8.56105 20.6111 8.67673 20.5879 8.78222 20.5404C8.88994 20.4975 8.98915 20.4373 9.07556 20.3624C9.15407 20.28 9.21721 20.1853 9.26222 20.0826C9.30925 19.9811 9.33354 19.8713 9.33354 19.7603C9.33354 19.6494 9.30925 19.5396 9.26222 19.4381C9.21992 19.334 9.15648 19.2389 9.07556 19.1583ZM11.6622 15.5885C11.5531 15.6289 11.4534 15.6894 11.3689 15.7666C11.2065 15.9291 11.1144 16.1441 11.1111 16.3686C11.1118 16.5075 11.1483 16.6441 11.2173 16.7663C11.2863 16.8886 11.3858 16.9929 11.5069 17.0699C11.6281 17.1469 11.7672 17.1944 11.912 17.2082C12.0569 17.2219 12.2031 17.2015 12.3378 17.1487C12.4455 17.1058 12.5447 17.0455 12.6311 16.9706C12.7135 16.8914 12.7787 16.7974 12.8229 16.6941C12.8671 16.5908 12.8896 16.4802 12.8889 16.3686C12.8856 16.1441 12.7935 15.9291 12.6311 15.7666C12.5061 15.6489 12.3474 15.5692 12.1749 15.5375C12.0025 15.5058 11.8241 15.5236 11.6622 15.5885ZM16.1867 19.1583C16.1003 19.0834 16.0011 19.0232 15.8933 18.9802C15.7315 18.9153 15.553 18.8976 15.3806 18.9293C15.2082 18.9609 15.0494 19.0406 14.9244 19.1583C14.8435 19.2389 14.7801 19.334 14.7378 19.4381C14.6908 19.5396 14.6665 19.6494 14.6665 19.7603C14.6665 19.8713 14.6908 19.9811 14.7378 20.0826C14.7828 20.1853 14.8459 20.28 14.9244 20.3624C15.0075 20.441 15.106 20.5031 15.2143 20.5453C15.3226 20.5875 15.4386 20.6089 15.5556 20.6083C15.6722 20.6111 15.7878 20.5879 15.8933 20.5404C16.0011 20.4975 16.1003 20.4373 16.1867 20.3624C16.31 20.2431 16.3936 20.0917 16.4268 19.9272C16.46 19.7627 16.4414 19.5925 16.3733 19.4381C16.331 19.334 16.2676 19.2389 16.1867 19.1583ZM17.3333 5.34546H6.66667C5.95942 5.34546 5.28115 5.61347 4.78105 6.09052C4.28095 6.56758 4 7.2146 4 7.88926V21.4562C4 22.1309 4.28095 22.7779 4.78105 23.2549C5.28115 23.732 5.95942 24 6.66667 24H17.3333C18.0406 24 18.7189 23.732 19.219 23.2549C19.719 22.7779 20 22.1309 20 21.4562V7.88926C20 7.2146 19.719 6.56758 19.219 6.09052C18.7189 5.61347 18.0406 5.34546 17.3333 5.34546ZM18.2222 21.4562C18.2222 21.6811 18.1286 21.8968 17.9619 22.0558C17.7952 22.2148 17.5691 22.3041 17.3333 22.3041H6.66667C6.43092 22.3041 6.20483 22.2148 6.03813 22.0558C5.87143 21.8968 5.77778 21.6811 5.77778 21.4562V7.88926C5.77778 7.66438 5.87143 7.4487 6.03813 7.28968C6.20483 7.13066 6.43092 7.04133 6.66667 7.04133H17.3333C17.5691 7.04133 17.7952 7.13066 17.9619 7.28968C18.1286 7.4487 18.2222 7.66438 18.2222 7.88926V21.4562ZM16.0444 15.6648C15.9991 15.6313 15.9479 15.6054 15.8933 15.5885C15.8404 15.5627 15.7833 15.5455 15.7244 15.5376C15.6104 15.5123 15.4918 15.5123 15.3778 15.5376L15.2178 15.5885L15.0578 15.6648L14.9244 15.7666C14.762 15.9291 14.6699 16.1441 14.6667 16.3686C14.6674 16.5075 14.7039 16.6441 14.7729 16.7663C14.8419 16.8886 14.9413 16.9929 15.0625 17.0699C15.1836 17.1469 15.3227 17.1944 15.4676 17.2082C15.6125 17.2219 15.7587 17.2015 15.8933 17.1487C16.0011 17.1058 16.1003 17.0455 16.1867 16.9706C16.269 16.8914 16.3342 16.7974 16.3785 16.6941C16.4227 16.5908 16.4451 16.4802 16.4444 16.3686C16.4412 16.1441 16.3491 15.9291 16.1867 15.7666L16.0444 15.6648Z" />
    </mask>
    <path d="M12.6311 19.1583C12.5874 19.1199 12.5397 19.0859 12.4889 19.0566C12.4435 19.023 12.3924 18.9972 12.3378 18.9802C12.2848 18.9544 12.2278 18.9372 12.1689 18.9294C11.9986 18.895 11.8213 18.9128 11.6622 18.9802C11.5519 19.0183 11.4517 19.0791 11.3688 19.1582C11.2858 19.2373 11.2221 19.3329 11.1822 19.4381C11.1325 19.5388 11.1081 19.6491 11.1111 19.7603C11.1097 19.8706 11.1308 19.98 11.1733 20.0826C11.2249 20.1839 11.2907 20.278 11.3689 20.3624C11.4519 20.441 11.5504 20.5031 11.6588 20.5453C11.7671 20.5875 11.883 20.6089 12 20.6083C12.1166 20.6111 12.2323 20.5879 12.3378 20.5404C12.4455 20.4975 12.5447 20.4373 12.6311 20.3624C12.7135 20.2831 12.7787 20.1892 12.8229 20.0859C12.8671 19.9826 12.8896 19.8719 12.8889 19.7603C12.8875 19.6495 12.8633 19.5401 12.8178 19.4381C12.7755 19.334 12.712 19.2389 12.6311 19.1583ZM8.93333 15.6648C8.88795 15.6313 8.83683 15.6054 8.78222 15.5885C8.73045 15.5568 8.67331 15.5338 8.61333 15.5207C8.4993 15.4953 8.3807 15.4953 8.26667 15.5207L8.10667 15.5715L7.94667 15.6479L7.81333 15.7496C7.64669 15.9164 7.55429 16.1382 7.55556 16.3686C7.55488 16.4802 7.5773 16.5908 7.62154 16.6941C7.66577 16.7974 7.73095 16.8914 7.81333 16.9706C7.89973 17.0455 7.99895 17.1058 8.10667 17.1487C8.24133 17.2015 8.38752 17.2219 8.5324 17.2082C8.67727 17.1944 8.81639 17.1469 8.93752 17.0699C9.05866 16.9929 9.1581 16.8886 9.22712 16.7663C9.29614 16.6441 9.33261 16.5075 9.33333 16.3686C9.33006 16.1441 9.23799 15.9291 9.07556 15.7666L8.93333 15.6648ZM9.07556 19.1583C8.99102 19.0811 8.89133 19.0206 8.78222 18.9802C8.62131 18.9091 8.44176 18.8854 8.26667 18.9124L8.10667 18.9633C8.05002 18.9818 7.99622 19.0075 7.94667 19.0396C7.9001 19.0709 7.85557 19.1049 7.81333 19.1413C7.73241 19.222 7.66897 19.3171 7.62667 19.4212C7.57964 19.5227 7.55535 19.6324 7.55535 19.7434C7.55535 19.8544 7.57964 19.9641 7.62667 20.0656C7.67168 20.1684 7.73482 20.263 7.81333 20.3454C7.89491 20.4271 7.99275 20.4924 8.10112 20.5375C8.20949 20.5826 8.32621 20.6067 8.44444 20.6083C8.56105 20.6111 8.67673 20.5879 8.78222 20.5404C8.88994 20.4975 8.98915 20.4373 9.07556 20.3624C9.15407 20.28 9.21721 20.1853 9.26222 20.0826C9.30925 19.9811 9.33354 19.8713 9.33354 19.7603C9.33354 19.6494 9.30925 19.5396 9.26222 19.4381C9.21992 19.334 9.15648 19.2389 9.07556 19.1583ZM11.6622 15.5885C11.5531 15.6289 11.4534 15.6894 11.3689 15.7666C11.2065 15.9291 11.1144 16.1441 11.1111 16.3686C11.1118 16.5075 11.1483 16.6441 11.2173 16.7663C11.2863 16.8886 11.3858 16.9929 11.5069 17.0699C11.6281 17.1469 11.7672 17.1944 11.912 17.2082C12.0569 17.2219 12.2031 17.2015 12.3378 17.1487C12.4455 17.1058 12.5447 17.0455 12.6311 16.9706C12.7135 16.8914 12.7787 16.7974 12.8229 16.6941C12.8671 16.5908 12.8896 16.4802 12.8889 16.3686C12.8856 16.1441 12.7935 15.9291 12.6311 15.7666C12.5061 15.6489 12.3474 15.5692 12.1749 15.5375C12.0025 15.5058 11.8241 15.5236 11.6622 15.5885ZM16.1867 19.1583C16.1003 19.0834 16.0011 19.0232 15.8933 18.9802C15.7315 18.9153 15.553 18.8976 15.3806 18.9293C15.2082 18.9609 15.0494 19.0406 14.9244 19.1583C14.8435 19.2389 14.7801 19.334 14.7378 19.4381C14.6908 19.5396 14.6665 19.6494 14.6665 19.7603C14.6665 19.8713 14.6908 19.9811 14.7378 20.0826C14.7828 20.1853 14.8459 20.28 14.9244 20.3624C15.0075 20.441 15.106 20.5031 15.2143 20.5453C15.3226 20.5875 15.4386 20.6089 15.5556 20.6083C15.6722 20.6111 15.7878 20.5879 15.8933 20.5404C16.0011 20.4975 16.1003 20.4373 16.1867 20.3624C16.31 20.2431 16.3936 20.0917 16.4268 19.9272C16.46 19.7627 16.4414 19.5925 16.3733 19.4381C16.331 19.334 16.2676 19.2389 16.1867 19.1583ZM17.3333 5.34546H6.66667C5.95942 5.34546 5.28115 5.61347 4.78105 6.09052C4.28095 6.56758 4 7.2146 4 7.88926V21.4562C4 22.1309 4.28095 22.7779 4.78105 23.2549C5.28115 23.732 5.95942 24 6.66667 24H17.3333C18.0406 24 18.7189 23.732 19.219 23.2549C19.719 22.7779 20 22.1309 20 21.4562V7.88926C20 7.2146 19.719 6.56758 19.219 6.09052C18.7189 5.61347 18.0406 5.34546 17.3333 5.34546ZM18.2222 21.4562C18.2222 21.6811 18.1286 21.8968 17.9619 22.0558C17.7952 22.2148 17.5691 22.3041 17.3333 22.3041H6.66667C6.43092 22.3041 6.20483 22.2148 6.03813 22.0558C5.87143 21.8968 5.77778 21.6811 5.77778 21.4562V7.88926C5.77778 7.66438 5.87143 7.4487 6.03813 7.28968C6.20483 7.13066 6.43092 7.04133 6.66667 7.04133H17.3333C17.5691 7.04133 17.7952 7.13066 17.9619 7.28968C18.1286 7.4487 18.2222 7.66438 18.2222 7.88926V21.4562ZM16.0444 15.6648C15.9991 15.6313 15.9479 15.6054 15.8933 15.5885C15.8404 15.5627 15.7833 15.5455 15.7244 15.5376C15.6104 15.5123 15.4918 15.5123 15.3778 15.5376L15.2178 15.5885L15.0578 15.6648L14.9244 15.7666C14.762 15.9291 14.6699 16.1441 14.6667 16.3686C14.6674 16.5075 14.7039 16.6441 14.7729 16.7663C14.8419 16.8886 14.9413 16.9929 15.0625 17.0699C15.1836 17.1469 15.3227 17.1944 15.4676 17.2082C15.6125 17.2219 15.7587 17.2015 15.8933 17.1487C16.0011 17.1058 16.1003 17.0455 16.1867 16.9706C16.269 16.8914 16.3342 16.7974 16.3785 16.6941C16.4227 16.5908 16.4451 16.4802 16.4444 16.3686C16.4412 16.1441 16.3491 15.9291 16.1867 15.7666L16.0444 15.6648Z" fill="currentColor" stroke="currentColor" stroke-width="2" mask="url(#path-1-inside-1)" />
    <mask id="path-2-inside-2" fill="white">
      <path d="M8.44446 1C8.44446 0.447716 8.89217 0 9.44446 0H14.5556C15.1079 0 15.5556 0.447715 15.5556 1V6.87273H8.44446V1Z" />
    </mask>
    <path d="M8.44446 1C8.44446 0.447716 8.89217 0 9.44446 0H14.5556C15.1079 0 15.5556 0.447715 15.5556 1V6.87273H8.44446V1Z" stroke="currentColor" stroke-width="3" mask="url(#path-2-inside-2)" />
    <rect x="10.7791" y="2.51998" width="2.54182" height="0.458182" rx="0.229091" fill="currentColor" stroke="currentColor" stroke-width="0.458182" />
    <rect x="10.7791" y="3.8945" width="2.54182" height="0.458182" rx="0.229091" fill="currentColor" stroke="currentColor" stroke-width="0.458182" />
    <mask id="path-5-inside-3" fill="white">
      <rect x="6.66663" y="7.96362" width="10.6667" height="6.10909" rx="1" />
    </mask>
    <rect x="6.66663" y="7.96362" width="10.6667" height="6.10909" rx="1" stroke="currentColor" stroke-width="3" mask="url(#path-5-inside-3)" />
  </symbol>
  <symbol viewBox="0 0 24 24" fill="none" xmlns="http://www.w3.org/2000/svg" id="money_business-barcode">
    <path d="M1 16.3548C1 17.5306 1.95319 18.4838 3.12901 18.4838H4.83666C5.06938 18.4838 5.25803 18.2951 5.25803 18.0624C5.25803 17.8297 5.06938 17.641 4.83666 17.641H3.55482C2.61416 17.641 1.85161 16.8785 1.85161 15.9378V7.54595C1.85161 6.60529 2.61416 5.84274 3.55482 5.84274H4.83666C5.06938 5.84274 5.25803 5.65408 5.25803 5.42137C5.25803 5.18865 5.06938 5 4.83666 5H3.12902C1.95319 5 1 5.95319 1 7.12901V16.3548Z" fill="currentColor" stroke="currentColor" />
    <path d="M19.1633 5C18.9305 5 18.7419 5.18865 18.7419 5.42137C18.7419 5.65408 18.9305 5.84274 19.1632 5.84274H20.4451C21.3858 5.84274 22.1483 6.60529 22.1483 7.54595V15.9378C22.1483 16.8785 21.3858 17.641 20.4451 17.641H19.1632C18.9305 17.641 18.7419 17.8297 18.7419 18.0624C18.7419 18.2951 18.9305 18.4838 19.1632 18.4838H20.8709C22.0467 18.4838 22.9999 17.5306 22.9999 16.3547V7.12902C22.9999 5.95319 22.0467 5 20.8709 5H19.1633Z" fill="currentColor" stroke="currentColor" />
    <path d="M4.54865 8.90073C4.54865 8.70476 4.70751 8.5459 4.90348 8.5459C5.09945 8.5459 5.25832 8.70476 5.25832 8.90073V14.5781C5.25832 14.7741 5.09945 14.9329 4.90348 14.9329C4.70751 14.9329 4.54865 14.7741 4.54865 14.5781V8.90073Z" fill="currentColor" stroke="currentColor" />
    <path d="M18.7419 8.90074C18.7419 8.70476 18.9007 8.5459 19.0967 8.5459C19.2927 8.5459 19.4516 8.70476 19.4516 8.90074V14.5781C19.4516 14.7741 19.2927 14.9329 19.0967 14.9329C18.9007 14.9329 18.7419 14.7741 18.7419 14.5781V8.90074Z" fill="currentColor" stroke="currentColor" />
    <path d="M15.1932 6.77464C15.1932 6.57867 15.3521 6.4198 15.5481 6.4198C15.744 6.4198 15.9029 6.57867 15.9029 6.77464V16.71C15.9029 16.906 15.744 17.0649 15.5481 17.0649C15.3521 17.0649 15.1932 16.906 15.1932 16.71V6.77464Z" fill="currentColor" stroke="currentColor" />
    <path d="M8.09637 6.77464C8.09637 6.57866 8.25524 6.4198 8.45121 6.4198C8.64718 6.4198 8.80605 6.57867 8.80605 6.77464V16.71C8.80605 16.906 8.64718 17.0649 8.45121 17.0649C8.25524 17.0649 8.09637 16.906 8.09637 16.71V6.77464Z" fill="currentColor" stroke="currentColor" />
    <path d="M11.6455 8.1926C11.6455 7.99663 11.8044 7.83777 12.0003 7.83777C12.1963 7.83777 12.3552 7.99663 12.3552 8.1926V15.2893C12.3552 15.4853 12.1963 15.6442 12.0003 15.6442C11.8044 15.6442 11.6455 15.4853 11.6455 15.2893V8.1926Z" fill="currentColor" stroke="currentColor" />
  </symbol>
  <symbol viewBox="0 0 24 24" fill="none" xmlns="http://www.w3.org/2000/svg" id="money_business-pix">
    <path fill-rule="evenodd" clip-rule="evenodd" d="M14.4582 5.70282C14.5926 5.56843 14.7333 5.44219 14.8796 5.3244L12.9494 3.39424C12.4252 2.87005 11.5754 2.87005 11.0512 3.39424L9.63698 1.98003C10.9422 0.674788 13.0584 0.674788 14.3637 1.98003L18.2738 5.89017C18.3775 5.99388 18.3041 6.17121 18.1574 6.17121C18.1572 6.17121 18.1575 6.17121 18.1574 6.17121C18.101 6.17122 18.0444 6.17266 17.9884 6.17552C17.4321 6.20398 16.9017 6.37273 16.4383 6.66473C16.394 6.69268 16.3502 6.72175 16.3071 6.75194C16.1532 6.85978 16.0077 6.98182 15.872 7.1174L12.5723 10.4174C12.5723 10.4174 12.5723 10.4174 12.5723 10.4174C12.5538 10.436 12.5342 10.4533 12.514 10.469C12.4039 10.5545 12.2712 10.5971 12.1385 10.597C12.0058 10.5969 11.8732 10.5542 11.7633 10.469C11.7431 10.4533 11.7237 10.4363 11.7052 10.4178L8.39331 7.10539C8.21379 6.92599 8.0165 6.76993 7.80594 6.6395C7.77146 6.61813 7.7366 6.59745 7.7014 6.57744C7.3009 6.34988 6.85531 6.21101 6.38933 6.1711C6.29632 6.16313 6.20249 6.15911 6.10804 6.15911C6.10791 6.15911 6.10818 6.15911 6.10804 6.15911C5.8684 6.15878 5.74807 5.86894 5.91762 5.69939L9.63698 1.98003L11.0512 3.39424L9.2436 5.20184C9.44135 5.35023 9.62975 5.51347 9.80728 5.69094L12.1386 8.02261L14.4582 5.70282ZM1.97875 9.63769C0.673506 10.9428 0.673506 13.059 1.97875 14.3644L4.39799 16.7836C4.47316 16.8588 4.58537 16.8727 4.69168 16.8727H6.10764C6.10781 16.8727 6.10747 16.8727 6.10764 16.8727C6.70286 16.8726 7.28583 16.6312 7.70644 16.2104L11.0183 12.8985C11.0185 12.8983 11.0188 12.898 11.019 12.8978C11.1839 12.7333 11.3824 12.6141 11.5961 12.5402C11.7702 12.48 11.9544 12.4499 12.1385 12.4499C12.3229 12.4499 12.5073 12.4801 12.6816 12.5405C12.8951 12.6145 13.0934 12.7338 13.258 12.8985C13.2581 12.8986 13.2579 12.8984 13.258 12.8985L16.5579 16.1979C16.9785 16.619 17.5616 16.8607 18.157 16.8607H19.3085C19.4205 16.8607 19.5398 16.8456 19.619 16.7663L22.0211 14.3644C23.3263 13.059 23.3263 10.9428 22.0211 9.63769L19.6188 7.23544C19.5396 7.15626 19.4204 7.14123 19.3085 7.14123H18.1574C17.562 7.14123 16.9788 7.38262 16.5582 7.80353C16.5582 7.80355 16.5582 7.80352 16.5582 7.80353L13.2583 11.1034C13.0923 11.2695 12.8981 11.391 12.691 11.4678C12.5132 11.5338 12.3258 11.5668 12.1385 11.5668C11.9514 11.5668 11.7644 11.5339 11.5869 11.4682C11.3796 11.3915 11.1852 11.2701 11.0189 11.104L7.7069 7.79203C7.28626 7.37119 6.7033 7.12934 6.10804 7.12923C6.10791 7.12923 6.10818 7.12923 6.10804 7.12923H4.69168C4.58543 7.12923 4.47329 7.14314 4.39816 7.21827L1.97875 9.63769ZM9.08741 12.001L6.29223 9.20579C6.24672 9.16026 6.17261 9.12923 6.10764 9.12923H5.31564L3.39296 11.0519C2.86892 11.5759 2.86869 12.4258 3.39296 12.9501C3.39298 12.9502 3.39294 12.9501 3.39296 12.9501L5.31553 14.8727H6.10764C6.17261 14.8727 6.24638 14.842 6.29188 14.7965L9.08741 12.001ZM15.1891 12.0011L17.9731 14.7847C18.0183 14.83 18.0919 14.8607 18.157 14.8607H18.6962L20.6068 12.9502C20.6068 12.9502 20.6068 12.9502 20.6068 12.9502C21.1311 12.4258 21.1309 11.5759 20.6069 11.052L18.6962 9.14123H18.157C18.0919 9.14123 18.0181 9.17201 17.9729 9.21727L15.1891 12.0011ZM18.2739 18.1111C18.3777 18.0074 18.3042 17.83 18.1575 17.83C18.1577 17.83 18.1573 17.83 18.1575 17.83C18.1011 17.83 18.0444 17.8286 17.9885 17.8257C17.4322 17.7972 16.9018 17.6285 16.4385 17.3365C16.3941 17.3086 16.3504 17.2795 16.3073 17.2493C16.1535 17.1415 16.008 17.0195 15.8725 16.8841C15.8725 16.8841 15.8724 16.884 15.8725 16.8841L12.5728 13.5845C12.5728 13.5845 12.5728 13.5844 12.5728 13.5845C12.5591 13.5708 12.5444 13.5575 12.5297 13.5454C12.419 13.455 12.2787 13.41 12.1385 13.4101C11.9985 13.4103 11.8586 13.4555 11.7481 13.5455C11.7333 13.5575 11.719 13.5704 11.7054 13.5841L8.39351 16.8959C8.39371 16.8957 8.39332 16.8961 8.39351 16.8959C8.39346 16.896 8.39282 16.8966 8.39276 16.8967C8.21331 17.0759 8.01647 17.2314 7.80606 17.3618C7.77156 17.3831 7.7367 17.4038 7.70149 17.4238C7.30099 17.6513 6.85543 17.7901 6.3895 17.83C6.29646 17.838 6.20261 17.842 6.10815 17.842C6.10832 17.842 6.10798 17.842 6.10815 17.842C5.86853 17.8424 5.74814 18.1322 5.91769 18.3018L9.63709 22.0213C10.9423 23.3264 13.0585 23.3264 14.3638 22.0213L18.2739 18.1111ZM14.8798 18.6768C14.7335 18.559 14.5927 18.4327 14.4583 18.2983L12.1389 15.979L9.80773 18.3101C9.63024 18.4875 9.4414 18.6511 9.24372 18.7995L11.0512 20.607C11.0513 20.607 11.0512 20.607 11.0512 20.607C11.5755 21.1311 12.4254 21.1312 12.9496 20.607L14.8798 18.6768Z" fill="currentColor" />
  </symbol>
  <symbol viewBox="0 0 24 24" fill="none" xmlns="http://www.w3.org/2000/svg" id="money_business-pix-alt">
    <path d="M9.63692 1.98003C10.9422 0.674788 13.0583 0.674788 14.3636 1.98003L18.2737 5.89017C18.3774 5.99389 18.304 6.17121 18.1573 6.17121C18.1009 6.17122 18.0443 6.17266 17.9884 6.17552C17.4321 6.20398 16.9016 6.37273 16.4383 6.66473C16.3939 6.69268 16.3502 6.72175 16.3071 6.75194C16.1532 6.85978 16.0076 6.98182 15.872 7.1174L12.5723 10.4174C12.5537 10.436 12.5342 10.4533 12.5139 10.469C12.4039 10.5545 12.2711 10.5971 12.1385 10.597C12.0058 10.5969 11.8731 10.5542 11.7632 10.469C11.743 10.4533 11.7236 10.4363 11.7051 10.4178L8.39325 7.10539C8.21372 6.92599 8.01644 6.76993 7.80588 6.6395C7.77139 6.61813 7.73654 6.59745 7.70134 6.57745C7.30084 6.34988 6.85524 6.21101 6.38927 6.1711C6.29625 6.16313 6.20243 6.15911 6.10798 6.15911C5.86834 6.15878 5.74801 5.86894 5.91756 5.69939L9.63692 1.98003Z" fill="currentColor" />
    <path d="M4.39793 16.7836C4.4731 16.8588 4.5853 16.8727 4.69161 16.8727H6.10758C6.7028 16.8726 7.28577 16.6312 7.70638 16.2104L11.0182 12.8985L11.019 12.8978C11.1838 12.7333 11.3824 12.6141 11.596 12.5402C11.7701 12.48 11.9543 12.4499 12.1385 12.4499C12.3229 12.4499 12.5073 12.4801 12.6816 12.5405C12.895 12.6145 13.0933 12.7338 13.2579 12.8985L16.5578 16.1979C16.9784 16.619 17.5615 16.8607 18.1569 16.8607H19.3084C19.4204 16.8607 19.5397 16.8456 19.6189 16.7663L22.021 14.3644C23.3263 13.059 23.3263 10.9428 22.021 9.63769L19.6188 7.23544C19.5396 7.15626 19.4204 7.14123 19.3084 7.14123H18.1573C17.5619 7.14123 16.9788 7.38262 16.5582 7.80353L13.2583 11.1034C13.0922 11.2695 12.898 11.391 12.691 11.4678C12.5131 11.5338 12.3258 11.5668 12.1385 11.5668C11.9514 11.5668 11.7643 11.5339 11.5868 11.4682C11.3795 11.3915 11.1852 11.2701 11.0188 11.104L7.70684 7.79203C7.2862 7.37119 6.70324 7.12934 6.10798 7.12923H4.69161C4.58537 7.12923 4.47323 7.14314 4.3981 7.21827L1.97869 9.63769C0.673445 10.9428 0.673445 13.059 1.97869 14.3644L4.39793 16.7836Z" fill="currentColor" />
    <path d="M18.1574 17.83C18.3041 17.83 18.3776 18.0074 18.2739 18.1111L14.3637 22.0213C13.0585 23.3264 10.9423 23.3264 9.63702 22.0213L5.91763 18.3018C5.74808 18.1322 5.86847 17.8424 6.10809 17.842C6.20255 17.842 6.2964 17.838 6.38944 17.83C6.85537 17.7901 7.30093 17.6513 7.70142 17.4238C7.73664 17.4038 7.7715 17.3831 7.80599 17.3618C8.01641 17.2314 8.21325 17.0759 8.3927 16.8967L8.39345 16.8959L11.7053 13.5841C11.719 13.5704 11.7332 13.5575 11.748 13.5455C11.8585 13.4555 11.9985 13.4103 12.1385 13.4101C12.2787 13.41 12.4189 13.455 12.5296 13.5454C12.5444 13.5575 12.5591 13.5708 12.5727 13.5845L15.8724 16.8841C16.008 17.0195 16.1535 17.1415 16.3073 17.2493C16.3503 17.2795 16.3941 17.3086 16.4384 17.3365C16.9017 17.6285 17.4321 17.7972 17.9884 17.8257C18.0444 17.8286 18.101 17.83 18.1574 17.83Z" fill="currentColor" />
  </symbol>
  <symbol viewBox="0 0 24 24" fill="none" xmlns="http://www.w3.org/2000/svg" id="money_business-receipt-alt">
    <path fill-rule="evenodd" clip-rule="evenodd" d="M3 2H21C21.2652 2 21.5196 2.10536 21.7071 2.29289C21.8946 2.48043 22 2.73478 22 3V21C21.9994 21.1847 21.9478 21.3656 21.8507 21.5227C21.7536 21.6798 21.6149 21.8069 21.45 21.89C21.284 21.9742 21.0977 22.0104 20.9122 21.9945C20.7267 21.9786 20.5493 21.9113 20.4 21.8L17.5 20.25L15.8 21.8C15.6269 21.9298 15.4164 22 15.2 22C14.9836 22 14.7731 21.9298 14.6 21.8L12.1 20.25L9.93 21.8C9.7569 21.9298 9.54637 22 9.33 22C9.11363 22 8.9031 21.9298 8.73 21.8L6.67 20.25L3.6 21.8C3.45143 21.9114 3.27477 21.9793 3.08981 21.996C2.90484 22.0126 2.71889 21.9775 2.55279 21.8944C2.38668 21.8114 2.24698 21.6837 2.14935 21.5257C2.05171 21.3678 2 21.1857 2 21V3C2 2.73478 2.10536 2.48043 2.29289 2.29289C2.48043 2.10536 2.73478 2 3 2ZM18.1 18.2L20 19.3779V4H4V19.3779L6.07 18.2C6.2431 18.0702 6.45363 18 6.67 18C6.88637 18 7.0969 18.0702 7.27 18.2L9.33 19.75L11.5 18.2C11.6731 18.0702 11.8836 18 12.1 18C12.3164 18 12.5269 18.0702 12.7 18.2L15.2 19.75L16.9 18.2C17.0731 18.0702 17.2836 18 17.5 18C17.7164 18 17.9269 18.0702 18.1 18.2ZM6.14866 15.4208C5.73815 15.7903 5.70487 16.4226 6.07433 16.8331C6.44379 17.2436 7.07608 17.2769 7.48659 16.9074L18.3379 6.98658C18.7484 6.61712 18.7817 5.98483 18.4123 5.57432C18.0428 5.16381 17.4105 5.13053 17 5.49999L6.14866 15.4208ZM8 9.5C8.55228 9.5 9 9.05228 9 8.5C9 7.94772 8.55228 7.5 8 7.5C7.44772 7.5 7 7.94772 7 8.5C7 9.05228 7.44772 9.5 8 9.5ZM8 11.5C9.65685 11.5 11 10.1569 11 8.5C11 6.84315 9.65685 5.5 8 5.5C6.34315 5.5 5 6.84315 5 8.5C5 10.1569 6.34315 11.5 8 11.5ZM17 14.3C17 14.8523 16.5523 15.3 16 15.3C15.4477 15.3 15 14.8523 15 14.3C15 13.7477 15.4477 13.3 16 13.3C16.5523 13.3 17 13.7477 17 14.3ZM19 14.3C19 15.9569 17.6569 17.3 16 17.3C14.3431 17.3 13 15.9569 13 14.3C13 12.6431 14.3431 11.3 16 11.3C17.6569 11.3 19 12.6431 19 14.3Z" fill="currentColor" />
  </symbol>
  <symbol viewBox="0 0 24 24" fill="none" xmlns="http://www.w3.org/2000/svg" id="money_business-extract">
      <path d="M21 11.9999H18V2.99995C18.0007 2.82374 17.9548 2.65047 17.867 2.49769C17.7792 2.34491 17.6526 2.21805 17.5 2.12995C17.348 2.04218 17.1755 1.99597 17 1.99597C16.8245 1.99597 16.652 2.04218 16.5 2.12995L13.5 3.84995L10.5 2.12995C10.348 2.04218 10.1755 1.99597 10 1.99597C9.82447 1.99597 9.65203 2.04218 9.50001 2.12995L6.50001 3.84995L3.50001 2.12995C3.34799 2.04218 3.17554 1.99597 3.00001 1.99597C2.82447 1.99597 2.65203 2.04218 2.50001 2.12995C2.3474 2.21805 2.22079 2.34491 2.13299 2.49769C2.04518 2.65047 1.99931 2.82374 2.00001 2.99995V18.9999C2.00001 19.7956 2.31608 20.5587 2.87869 21.1213C3.4413 21.6839 4.20436 21.9999 5.00001 21.9999H19C19.7957 21.9999 20.5587 21.6839 21.1213 21.1213C21.6839 20.5587 22 19.7956 22 18.9999V12.9999C22 12.7347 21.8947 12.4804 21.7071 12.2928C21.5196 12.1053 21.2652 11.9999 21 11.9999ZM5.00001 19.9999C4.73479 19.9999 4.48044 19.8946 4.2929 19.7071C4.10536 19.5195 4.00001 19.2652 4.00001 18.9999V4.72995L6.00001 5.86995C6.15435 5.95056 6.32589 5.99266 6.50001 5.99266C6.67413 5.99266 6.84567 5.95056 7.00001 5.86995L10 4.14995L13 5.86995C13.1543 5.95056 13.3259 5.99266 13.5 5.99266C13.6741 5.99266 13.8457 5.95056 14 5.86995L16 4.72995V18.9999C16.0027 19.3411 16.0636 19.6793 16.18 19.9999H5.00001ZM20 18.9999C20 19.2652 19.8947 19.5195 19.7071 19.7071C19.5196 19.8946 19.2652 19.9999 19 19.9999C18.7348 19.9999 18.4804 19.8946 18.2929 19.7071C18.1054 19.5195 18 19.2652 18 18.9999V13.9999H20V18.9999Z" fill="currentColor"/>
        </symbol>
  <symbol viewBox="0 0 24 24" fill="none" xmlns="http://www.w3.org/2000/svg" id="money_business-extract-alt">
    <path fill-rule="evenodd" clip-rule="evenodd" d="M18 11.9999H21C21.2652 11.9999 21.5196 12.1053 21.7071 12.2928C21.8947 12.4804 22 12.7347 22 12.9999V18.9999C22 19.7956 21.6839 20.5587 21.1213 21.1213C20.5587 21.6839 19.7957 21.9999 19 21.9999H5.00001C4.20436 21.9999 3.4413 21.6839 2.87869 21.1213C2.31608 20.5587 2.00001 19.7956 2.00001 18.9999V2.99995C1.99931 2.82374 2.04518 2.65047 2.13299 2.49769C2.22079 2.34491 2.3474 2.21805 2.50001 2.12995C2.65203 2.04218 2.82447 1.99597 3.00001 1.99597C3.17554 1.99597 3.34799 2.04218 3.50001 2.12995L6.50001 3.84995L9.50001 2.12995C9.65203 2.04218 9.82447 1.99597 10 1.99597C10.1755 1.99597 10.348 2.04218 10.5 2.12995L13.5 3.84995L16.5 2.12995C16.652 2.04218 16.8245 1.99597 17 1.99597C17.1755 1.99597 17.348 2.04218 17.5 2.12995C17.6526 2.21805 17.7792 2.34491 17.867 2.49769C17.9548 2.65047 18.0007 2.82374 18 2.99995V11.9999ZM19.7071 19.7071C19.8947 19.5195 20 19.2652 20 18.9999V13.9999H18V18.9999C18 19.2652 18.1054 19.5195 18.2929 19.7071C18.4804 19.8946 18.7348 19.9999 19 19.9999C19.2652 19.9999 19.5196 19.8946 19.7071 19.7071Z" fill="currentColor" />
  </symbol>
</svg>