<svg width="0" height="0" class="hidden">
  <symbol viewBox="0 0 24 24" fill="none" xmlns="http://www.w3.org/2000/svg" id="multimedia-camera">
    <path d="M19 6.5h-1.28l-.32-1a3 3 0 0 0-2.84-2H9.44A3 3 0 0 0 6.6 5.55l-.32 1H5a3 3 0 0 0-3 3v8a3 3 0 0 0 3 3h14a3 3 0 0 0 3-3v-8a3.002 3.002 0 0 0-3-3.05zm1 11a1 1 0 0 1-1 1H5a1 1 0 0 1-1-1v-8a1 1 0 0 1 1-1h2a1 1 0 0 0 1-.68l.54-1.64a1 1 0 0 1 .95-.68h5.12a1 1 0 0 1 .95.68l.54 1.64a1 1 0 0 0 .9.68h2a1 1 0 0 1 1 1v8zm-8-9a4 4 0 1 0 0 8 4 4 0 0 0 0-8zm0 6a2 2 0 1 1 0-4 2 2 0 0 1 0 4z" fill="currentColor"></path>
  </symbol>
  <symbol viewBox="0 0 24 24" fill="none" xmlns="http://www.w3.org/2000/svg" id="multimedia-tv-retro">
    <path d="M18 6h-3.59l2.3-2.29A1.005 1.005 0 0 0 16 1.996c-.266 0-.522.106-.71.294L12 5.54l-1.17-2a1.004 1.004 0 0 0-1.74 1L10 6H6a3 3 0 0 0-3 3v8a3 3 0 0 0 3 3v1a1 1 0 1 0 2 0v-1h8v1a1 1 0 0 0 2 0v-1a3 3 0 0 0 3-3V9a3 3 0 0 0-3-3zm1 11a1 1 0 0 1-1 1H6a1 1 0 0 1-1-1V9a1 1 0 0 1 1-1h12a1 1 0 0 1 1 1v8z" fill="currentColor"></path>
  </symbol>
  <symbol viewBox="0 0 24 24" fill="none" xmlns="http://www.w3.org/2000/svg" id="multimedia-headphones">
    <path d="M12 3A10 10 0 0 0 2 13v7a1 1 0 0 0 1 1h3a3 3 0 0 0 3-3v-2a3 3 0 0 0-3-3H4a8 8 0 0 1 16 0h-2a3 3 0 0 0-3 3v2a3 3 0 0 0 3 3h3a1 1 0 0 0 1-1v-7A10 10 0 0 0 12 3zM6 15a1 1 0 0 1 1 1v2a1 1 0 0 1-1 1H4v-4h2zm14 4h-2a1 1 0 0 1-1-1v-2a1 1 0 0 1 1-1h2v4z" fill="currentColor"></path>
  </symbol>
  <symbol viewBox="0 0 24 24" fill="none" xmlns="http://www.w3.org/2000/svg" id="multimedia-headphones-slash">
    <path d="M19.0693 5.93557C17.866 4.7208 16.3698 3.83681 14.7252 3.36895C13.0806 2.90109 11.3432 2.86518 9.68066 3.26467C9.42255 3.32343 9.19828 3.48214 9.057 3.706C8.91573 3.92986 8.86899 4.20061 8.92703 4.45888C8.98507 4.71716 9.14315 4.94187 9.36662 5.08377C9.59009 5.22567 9.86071 5.27316 10.1191 5.21584C11.2962 4.93493 12.5215 4.92404 13.7033 5.18397C14.8851 5.4439 15.9928 5.96792 16.9434 6.71675C17.8939 7.46559 18.6626 8.41983 19.192 9.50797C19.7213 10.5961 19.9976 11.7899 20 13H19.6602C19.3949 13 19.1406 13.1054 18.9531 13.2929C18.7655 13.4804 18.6602 13.7348 18.6602 14C18.6602 14.2652 18.7655 14.5196 18.9531 14.7071C19.1406 14.8947 19.3949 15 19.6602 15H20V15.3399C20 15.6051 20.1054 15.8594 20.2929 16.047C20.4804 16.2345 20.7348 16.3399 21 16.3399C21.2652 16.3399 21.5196 16.2345 21.7071 16.047C21.8946 15.8594 22 15.6051 22 15.3399V13C22.005 11.6869 21.7485 10.3859 21.2453 9.17298C20.7421 7.96007 20.0024 6.85952 19.0693 5.93557ZM3.707 2.29302C3.51892 2.10831 3.26549 2.00535 3.00188 2.00654C2.73826 2.00773 2.48578 2.11299 2.29938 2.29939C2.11297 2.4858 2.00772 2.73828 2.00653 3.00189C2.00533 3.26551 2.10829 3.51893 2.293 3.70702L4.72833 6.14242C2.97443 7.99466 1.9979 10.4491 2 13V20C2 20.2652 2.10536 20.5196 2.2929 20.7071C2.48043 20.8947 2.73479 21 3 21H6C6.79539 20.9991 7.55794 20.6828 8.12036 20.1204C8.68279 19.558 8.99914 18.7954 9 18V16C8.99914 15.2046 8.68279 14.4421 8.12036 13.8797C7.55794 13.3172 6.79539 13.0009 6 13H4C3.99878 10.9799 4.76538 9.03474 6.14453 7.55861L15 16.4141V18C15.0009 18.7954 15.3172 19.558 15.8796 20.1204C16.4421 20.6828 17.2046 20.9991 18 21H19.5859L20.2929 21.707C20.4809 21.8926 20.7346 21.9963 20.9986 21.9955C21.2627 21.9946 21.5158 21.8894 21.7025 21.7026C21.8893 21.5159 21.9946 21.2628 21.9954 20.9987C21.9962 20.7346 21.8926 20.4809 21.707 20.293L3.707 2.29302ZM6 15C6.26511 15.0004 6.51927 15.1058 6.70673 15.2933C6.89419 15.4808 6.99966 15.7349 7 16V18C6.99966 18.2651 6.89419 18.5193 6.70673 18.7067C6.51927 18.8942 6.26511 18.9997 6 19H4V15H6Z" fill="currentColor" />
  </symbol>
  <symbol viewBox="0 0 24 24" fill="none" xmlns="http://www.w3.org/2000/svg" id="multimedia-cancel">
    <path d="M21.77 11.36l-5-6A1 1 0 0 0 16 5H5a3 3 0 0 0-3 3v8a3 3 0 0 0 3 3h11a1.001 1.001 0 0 0 .77-.36l5-6a1 1 0 0 0 0-1.28zM15.53 17H5a1 1 0 0 1-1-1V8a1 1 0 0 1 1-1h10.53l4.17 5-4.17 5zm-2.82-7.71a1 1 0 0 0-1.42 0L10 10.59l-1.29-1.3a1.004 1.004 0 0 0-1.42 1.42L8.59 12l-1.3 1.29a1 1 0 0 0 .325 1.639 1 1 0 0 0 1.095-.219l1.29-1.3 1.29 1.3a1.002 1.002 0 0 0 1.639-.325 1 1 0 0 0-.219-1.095L11.41 12l1.3-1.29a1.002 1.002 0 0 0 0-1.42z" fill="currentColor"></path>
  </symbol>
  <symbol viewBox="0 0 24 24" fill="none" xmlns="http://www.w3.org/2000/svg" id="multimedia-volume-down">
    <path d="M18.83 9.17a1.003 1.003 0 1 0-1.42 1.42A2 2 0 0 1 18 12a2.001 2.001 0 0 1-.71 1.53.997.997 0 1 0 1.28 1.53A4 4 0 0 0 20 12a4.06 4.06 0 0 0-1.17-2.83zm-4.4-5.07a1 1 0 0 0-1 .12L8.65 8H5a1 1 0 0 0-1 1v6a1 1 0 0 0 1 1h3.65l4.73 3.78A1 1 0 0 0 14 20a.91.91 0 0 0 .43-.1A1 1 0 0 0 15 19V5a1 1 0 0 0-.57-.9zM13 16.92l-3.38-2.7A1 1 0 0 0 9 14H6v-4h3a1 1 0 0 0 .62-.22L13 7.08v9.84z" fill="currentColor"></path>
  </symbol>
  <symbol viewBox="0 0 24 24" fill="none" xmlns="http://www.w3.org/2000/svg" id="multimedia-volume-mute">
    <path d="M12.43 4.1a1 1 0 0 0-1 .12L6.65 8H3a1 1 0 0 0-1 1v6a1 1 0 0 0 1 1h3.65l4.73 3.78A1 1 0 0 0 12 20a.91.91 0 0 0 .43-.1A1 1 0 0 0 13 19V5a1 1 0 0 0-.57-.9zM11 16.92l-3.38-2.7A1 1 0 0 0 7 14H4v-4h3a1 1 0 0 0 .62-.22L11 7.08v9.84zM19.91 12l1.8-1.79a1.006 1.006 0 0 0-.326-1.638 1.004 1.004 0 0 0-1.094.218l-1.79 1.8-1.79-1.8a1.004 1.004 0 1 0-1.42 1.42l1.8 1.79-1.8 1.79a1.002 1.002 0 0 0 .325 1.639 1.002 1.002 0 0 0 1.095-.22l1.79-1.8 1.79 1.8a1.002 1.002 0 0 0 1.639-.325 1 1 0 0 0-.219-1.094L19.91 12z" fill="currentColor"></path>
  </symbol>
  <symbol viewBox="0 0 24 24" fill="none" xmlns="http://www.w3.org/2000/svg" id="multimedia-volume-off">
    <path d="M16.93 4.1a1 1 0 0 0-1 .12L11.15 8H7.5a1 1 0 0 0-1 1v6a1 1 0 0 0 1 1h3.65l4.73 3.78a1 1 0 0 0 .62.22.91.91 0 0 0 .43-.1 1 1 0 0 0 .57-.9V5a1 1 0 0 0-.57-.9zM15.5 16.92l-3.38-2.7a1 1 0 0 0-.62-.22h-3v-4h3a1 1 0 0 0 .62-.22l3.38-2.7v9.84z" fill="currentColor"></path>
  </symbol>
  <symbol viewBox="0 0 24 24" fill="none" xmlns="http://www.w3.org/2000/svg" id="multimedia-volume-up">
    <path d="M12.43 4.1a1 1 0 0 0-1 .12L6.65 8H3a1 1 0 0 0-1 1v6a1 1 0 0 0 1 1h3.65l4.73 3.78A1 1 0 0 0 12 20a.91.91 0 0 0 .43-.1A1 1 0 0 0 13 19V5a1 1 0 0 0-.57-.9zM11 16.92l-3.38-2.7A1 1 0 0 0 7 14H4v-4h3a1 1 0 0 0 .62-.22L11 7.08v9.84zm4.14-12.83a1.01 1.01 0 1 0-.28 2 6 6 0 0 1 0 11.86 1.002 1.002 0 0 0 .14 2h.14a8 8 0 0 0 0-15.82v-.04zm-.46 9.78a1.013 1.013 0 1 0 .32 2c.108-.001.216-.018.32-.05a4 4 0 0 0 0-7.54 1.002 1.002 0 1 0-.64 1.9 2 2 0 0 1 0 3.74v-.05z" fill="currentColor"></path>
  </symbol>
  <symbol viewBox="0 0 24 24" fill="none" xmlns="http://www.w3.org/2000/svg" id="multimedia-volume">
    <path d="M12.43 4.1a1 1 0 0 0-1 .12L6.65 8H3a1 1 0 0 0-1 1v6a1 1 0 0 0 1 1h3.65l4.73 3.78A1 1 0 0 0 12 20a.91.91 0 0 0 .43-.1A1 1 0 0 0 13 19V5a1 1 0 0 0-.57-.9zM11 16.92l-3.38-2.7A1 1 0 0 0 7 14H4v-4h3a1 1 0 0 0 .62-.22L11 7.08v9.84zm8.66-10.58a1.004 1.004 0 1 0-1.42 1.42 5.998 5.998 0 0 1-.38 8.84 1 1 0 0 0 .64 1.76 1 1 0 0 0 .64-.23 8 8 0 0 0 .52-11.79zm-2.83 2.83a1.003 1.003 0 1 0-1.42 1.42A2 2 0 0 1 16 12a2.001 2.001 0 0 1-.71 1.53.997.997 0 1 0 1.28 1.53A4 4 0 0 0 18 12a4.06 4.06 0 0 0-1.17-2.83z" fill="currentColor"></path>
  </symbol>
  <symbol viewBox="0 0 24 24" fill="none" xmlns="http://www.w3.org/2000/svg" id="multimedia-video-slash">
    <path d="M7.71 6.29l-4-4a1.004 1.004 0 1 0-1.42 1.42L4.62 6A3 3 0 0 0 2 9v6a3 3 0 0 0 3 3h9a3 3 0 0 0 1.9-.69l4.39 4.4a1.002 1.002 0 0 0 1.639-.325 1 1 0 0 0-.219-1.095l-14-14zM14 16H5a1 1 0 0 1-1-1V9a1 1 0 0 1 1-1h1.59l7.87 7.88A1 1 0 0 1 14 16zm7.53-8.85a1 1 0 0 0-1 0L17 8.89A3 3 0 0 0 14 6h-1.34a1 1 0 1 0 0 2H14a1 1 0 0 1 1 1v1.5a1.628 1.628 0 0 0 0 .19.65.65 0 0 0 .05.2s.05.06.07.1c.04.076.091.147.15.21 0 0 .1.06.15.1l.17.11c.076.01.154.01.23 0a.697.697 0 0 0 .14 0c.063.004.127.004.19 0a.65.65 0 0 0 .2-.05L20 9.62v5.72a1 1 0 0 0 2 0V8a1 1 0 0 0-.47-.85z" fill="currentColor"></path>
  </symbol>
  <symbol viewBox="0 0 24 24" fill="none" xmlns="http://www.w3.org/2000/svg" id="multimedia-video">
    <path d="M21.53 7.15a1 1 0 0 0-1 0L17 8.89A3 3 0 0 0 14 6H5a3 3 0 0 0-3 3v6a3 3 0 0 0 3 3h9a3 3 0 0 0 3-2.89l3.56 1.78A1 1 0 0 0 21 17a1 1 0 0 0 .875-.514A1 1 0 0 0 22 16V8a1 1 0 0 0-.47-.85zM15 15a1 1 0 0 1-1 1H5a1 1 0 0 1-1-1V9a1 1 0 0 1 1-1h9a1 1 0 0 1 1 1v6zm5-.62l-3-1.5v-1.76l3-1.5v4.76z" fill="currentColor"></path>
  </symbol>
  <symbol viewBox="0 0 24 24" fill="none" xmlns="http://www.w3.org/2000/svg" id="multimedia-video-question">
    <path d="M10.21 17.29C10.0167 17.1115 9.76317 17.0124 9.50004 17.0124C9.23691 17.0124 8.98343 17.1115 8.79008 17.29C8.69962 17.3854 8.62833 17.4973 8.58008 17.6196C8.52727 17.7394 8.5 17.8688 8.5 17.9997C8.5 18.1306 8.52727 18.2601 8.58008 18.3798C8.63078 18.501 8.7018 18.6126 8.79008 18.7099C8.92995 18.8509 9.10864 18.9471 9.30336 18.9861C9.49809 19.0252 9.70004 19.0054 9.88346 18.9292C10.0669 18.8531 10.2235 18.724 10.3333 18.5585C10.4431 18.393 10.5011 18.1986 10.5 18C10.4984 17.8692 10.4712 17.74 10.4199 17.6196C10.3692 17.4986 10.2982 17.3871 10.21 17.29ZM9.5 9C8.9737 9.00096 8.45685 9.13994 8.00104 9.40306C7.54523 9.66618 7.16639 10.0442 6.90234 10.4995C6.7696 10.729 6.73345 11.0018 6.80185 11.2579C6.87026 11.514 7.0376 11.7325 7.26708 11.8652C7.49655 11.998 7.76936 12.0341 8.02548 11.9657C8.28161 11.8973 8.50007 11.73 8.63281 11.5005C8.72045 11.3483 8.84662 11.2219 8.99862 11.1339C9.15063 11.0459 9.32312 10.9995 9.49875 10.9994C9.67437 10.9992 9.84695 11.0453 9.99912 11.133C10.1513 11.2206 10.2777 11.3469 10.3656 11.4989C10.4535 11.6509 10.4999 11.8234 10.5 11.9991C10.5001 12.1747 10.454 12.3472 10.3662 12.4994C10.2785 12.6515 10.1523 12.7779 10.0002 12.8658C9.84815 12.9536 9.67563 12.9999 9.5 13C9.36867 13 9.23862 13.0258 9.11728 13.0761C8.99593 13.1263 8.88568 13.2 8.79282 13.2928C8.69995 13.3857 8.62629 13.4959 8.57605 13.6173C8.52581 13.7386 8.49997 13.8687 8.5 14V15C8.5 15.2652 8.60536 15.5196 8.79289 15.7071C8.98043 15.8946 9.23478 16 9.5 16C9.76522 16 10.0196 15.8946 10.2071 15.7071C10.3946 15.5196 10.5 15.2652 10.5 15V14.8157C11.167 14.5812 11.7294 14.1181 12.0876 13.5085C12.4458 12.899 12.5765 12.1822 12.4567 11.4854C12.3369 10.7886 11.9743 10.1568 11.433 9.70182C10.8918 9.24687 10.207 8.99824 9.5 9ZM21.5254 6.14941C21.3805 6.05973 21.215 6.00861 21.0448 6.00092C20.8745 5.99323 20.7051 6.02922 20.5527 6.10547L16.9886 7.88747C16.9602 7.11324 16.6331 6.38009 16.0759 5.84176C15.5187 5.30344 14.7748 5.00177 14 5H5C4.20462 5.00087 3.44206 5.31722 2.87964 5.87964C2.31722 6.44206 2.00087 7.20462 2 8V14C2.00087 14.7954 2.31722 15.5579 2.87964 16.1204C3.44206 16.6828 4.20462 16.9991 5 17H6C6.26522 17 6.51957 16.8946 6.70711 16.7071C6.89464 16.5196 7 16.2652 7 16C7 15.7348 6.89464 15.4804 6.70711 15.2929C6.51957 15.1054 6.26522 15 6 15H5C4.73486 14.9997 4.48066 14.8943 4.29319 14.7068C4.10571 14.5193 4.00026 14.2651 4 14V8C4.00026 7.73486 4.10571 7.48066 4.29319 7.29319C4.48066 7.10571 4.73486 7.00026 5 7H14C14.2651 7.00026 14.5193 7.10571 14.7068 7.29319C14.8943 7.48066 14.9997 7.73486 15 8V14C14.9997 14.2651 14.8943 14.5193 14.7068 14.7068C14.5193 14.8943 14.2651 14.9997 14 15H13.5C13.2348 15 12.9804 15.1054 12.7929 15.2929C12.6054 15.4804 12.5 15.7348 12.5 16C12.5 16.2652 12.6054 16.5196 12.7929 16.7071C12.9804 16.8946 13.2348 17 13.5 17H14C14.7748 16.9982 15.5187 16.6966 16.0759 16.1582C16.6331 15.6199 16.9602 14.8867 16.9886 14.1125L20.5527 15.8945C20.7052 15.9706 20.8746 16.0065 21.0449 15.9988C21.2151 15.9911 21.3806 15.94 21.5256 15.8504C21.6705 15.7608 21.7902 15.6357 21.8732 15.4868C21.9563 15.338 21.9999 15.1704 22 15V7C22 6.82952 21.9564 6.66187 21.8733 6.513C21.7902 6.36412 21.6705 6.23896 21.5254 6.14941ZM20 13.3818L17 11.8818V10.1182L20 8.61816V13.3818Z" fill="currentColor" />
  </symbol>
  <symbol viewBox="0 0 24 24" fill="none" xmlns="http://www.w3.org/2000/svg" id="multimedia-microphone-slash">
    <path d="M10.5 3.73a2 2 0 0 1 2.95-.14A2 2 0 0 1 14 5v3.41a1 1 0 0 0 2 0V5a4 4 0 0 0-7-2.53 1 1 0 1 0 1.5 1.26zm8.22 9.54h.2a1 1 0 0 0 1-.81c.072-.483.098-.972.08-1.46a1 1 0 1 0-2 0c0 .37-.037.738-.11 1.1a1 1 0 0 0 .83 1.17zm3 6.06l-18-18A1 1 0 1 0 2.3 2.74L8 8.48V11a4 4 0 0 0 6 3.46l1.46 1.46A6 6 0 0 1 6 11a1 1 0 1 0-2 0 8 8 0 0 0 7 7.93V21H9a1 1 0 1 0 0 2h6a1 1 0 0 0 0-2h-2v-2.07a7.87 7.87 0 0 0 3.85-1.59l3.4 3.4a1 1 0 0 0 1.42-1.41h.05zM12 13a2 2 0 0 1-2-2v-.52l2.45 2.46c-.147.04-.298.06-.45.06z" fill="currentColor"></path>
  </symbol>
  <symbol viewBox="0 0 24 24" fill="none" xmlns="http://www.w3.org/2000/svg" id="multimedia-microphone">
    <path d="M12 15a4 4 0 0 0 4-4V5a4 4 0 1 0-8 0v6a4 4 0 0 0 4 4zM10 5a2 2 0 1 1 4 0v6a2 2 0 0 1-4 0V5zm10 6a1 1 0 0 0-2 0 6 6 0 1 1-12 0 1 1 0 1 0-2 0 8 8 0 0 0 7 7.93V21H9a1 1 0 0 0 0 2h6a1 1 0 0 0 0-2h-2v-2.07A8 8 0 0 0 20 11z" fill="currentColor"></path>
  </symbol>
  <symbol viewBox="0 0 24 24" fill="none" xmlns="http://www.w3.org/2000/svg" id="multimedia-scenery">
    <path d="M19 2H5a3 3 0 0 0-3 3v14a3 3 0 0 0 3 3h14a2.78 2.78 0 0 0 .49-.05l.3-.07h.12l.37-.14.13-.07c.1-.06.21-.11.31-.18a3.78 3.78 0 0 0 .38-.32l.07-.09c.098-.1.188-.206.27-.32l.09-.13c.07-.111.13-.228.18-.35.027-.048.05-.098.07-.15.05-.12.08-.25.12-.38v-.15c.057-.195.09-.397.1-.6V5a3 3 0 0 0-3-3zM5 20a1 1 0 0 1-1-1v-4.31l3.29-3.3a1 1 0 0 1 1.42 0l8.6 8.61H5zm15-1a1 1 0 0 1-.07.36c-.023.049-.05.096-.08.14a.948.948 0 0 1-.09.12l-5.35-5.35.88-.88a1.002 1.002 0 0 1 1.42 0l3.29 3.3V19zm0-5.14L18.12 12a3.08 3.08 0 0 0-4.24 0l-.88.88L10.12 10a3.08 3.08 0 0 0-4.24 0L4 11.86V5a1 1 0 0 1 1-1h14a1 1 0 0 1 1 1v8.86zM13.5 6a1.5 1.5 0 1 0 0 3 1.5 1.5 0 0 0 0-3z" fill="currentColor"></path>
  </symbol>
  <symbol viewBox="0 0 24 24" fill="none" xmlns="http://www.w3.org/2000/svg" id="multimedia-bolt-alt">
    <path d="M19.89 9.55A1 1 0 0 0 19 9h-5V3a1 1 0 0 0-1.309-1.002 1 1 0 0 0-.501.362l-8 11a1 1 0 0 0-.08 1A1 1 0 0 0 5 15h5v6a1 1 0 0 0 1.81.59l8-11a1 1 0 0 0 .08-1.04zM12 17.92V14a1 1 0 0 0-1-1H7l5-6.92V10a1 1 0 0 0 1 1h4l-5 6.92z" fill="currentColor"></path>
  </symbol>
  <symbol viewBox="0 0 24 24" fill="none" xmlns="http://www.w3.org/2000/svg" id="multimedia-bolt-slash">
    <path d="M8.67 4.23A1 1 0 0 0 9.6 4h5.1l-1.27 4.74a1 1 0 0 0 .52 1.157 1 1 0 0 0 .44.103H18l-1.13 1.24a1 1 0 0 0 1.145 1.583.999.999 0 0 0 .335-.243L21 9.67A1 1 0 0 0 20.23 8h-4.54L17 3.26a1 1 0 0 0-.18-.87A1 1 0 0 0 16 2H9a1 1 0 0 0-1 .74V3a1 1 0 0 0 .67 1.23zm13 16.06l-18-18a1 1 0 0 0-1.38 1.42L6.61 8l-1.26 4.74a1 1 0 0 0 .18.87 1 1 0 0 0 .79.39h3.84l-1.81 6.74a1 1 0 0 0 1.71.93l4.85-5.34 5.38 5.38a1.002 1.002 0 0 0 1.639-.325 1 1 0 0 0-.219-1.095h-.04zM7.62 12l.63-2.34L10.59 12H7.62zm3.73 5.28l1-3.56 1.2 1.19-2.2 2.37z" fill="currentColor"></path>
  </symbol>
  <symbol viewBox="0 0 24 24" fill="none" xmlns="http://www.w3.org/2000/svg" id="multimedia-bolt">
    <path d="M19.87 8.6A1 1 0 0 0 19 8h-4.58l1.27-4.74a1 1 0 0 0-.52-1.157A1 1 0 0 0 14.73 2h-7a1 1 0 0 0-1 .74l-2.68 10a1 1 0 0 0 .524 1.159A1 1 0 0 0 5.02 14h3.87l-1.81 6.74a1 1 0 0 0 1.71.93l10.9-12a1 1 0 0 0 .18-1.07zm-9.79 8.68l1.07-4a1 1 0 0 0-.52-1.157 1 1 0 0 0-.44-.103H6.35L8.49 4h4.93l-1.27 4.74a1 1 0 0 0 1 1.26h3.57l-6.64 7.28z" fill="currentColor"></path>
  </symbol>
  <symbol viewBox="0 0 24 24" fill="none" xmlns="http://www.w3.org/2000/svg" id="multimedia-history">
    <path d="M12 2a10 10 0 0 0-6.88 2.77V3a1 1 0 0 0-2 0v4.5a1 1 0 0 0 1 1h4.5a1 1 0 0 0 0-2h-2.4A8 8 0 1 1 4 12a1 1 0 1 0-2 0A10 10 0 1 0 12 2zm0 6a1 1 0 0 0-1 1v3a1 1 0 0 0 1 1h2a1 1 0 0 0 0-2h-1V9a1 1 0 0 0-1-1z" fill="currentColor"></path>
  </symbol>
  <symbol viewBox="0 0 24 24" fill="none" xmlns="http://www.w3.org/2000/svg" id="multimedia-clock">
    <path d="M11 2a10 10 0 1 0 0 20 10 10 0 0 0 0-20zm0 18a8 8 0 1 1 0-16 8 8 0 0 1 0 16zm3.1-7.37L12 11.42V7a1 1 0 0 0-2 0v5.12a.65.65 0 0 0 .05.2c.02.06.047.116.08.17.027.057.06.11.1.16l.16.13.09.09 2.6 1.5a1 1 0 0 0 .5.13 1 1 0 0 0 .5-1.87h.02z" fill="currentColor"></path>
  </symbol>
  <symbol viewBox="0 0 24 24" fill="none" xmlns="http://www.w3.org/2000/svg" id="multimedia-tachometer-fast">
    <path d="M15.29 10.29l-2.78 2.78A2.087 2.087 0 0 0 12 13a2 2 0 0 0-2 2c.002.172.026.344.07.51l-.78.78a1 1 0 0 0 .325 1.639 1 1 0 0 0 1.095-.219l.78-.78c.166.044.338.068.51.07a2 2 0 0 0 2-2 2.087 2.087 0 0 0-.07-.51l2.78-2.78a1.004 1.004 0 1 0-1.42-1.42zM12 4A10 10 0 0 0 2 14a9.91 9.91 0 0 0 1.69 5.56 1.002 1.002 0 0 0 1.66-1.12 8 8 0 1 1 13.3 0 1 1 0 0 0 1.3 1.444 1 1 0 0 0 .36-.324A9.91 9.91 0 0 0 22 14 10 10 0 0 0 12 4z" fill="currentColor"></path>
  </symbol>
  <symbol viewBox="0 0 24 24" fill="none" xmlns="http://www.w3.org/2000/svg" id="multimedia-stopwatch">
    <path d="M18.3 8.59l.91-.9a1.004 1.004 0 1 0-1.42-1.42l-.9.91a8 8 0 0 0-9.79 0l-.91-.92a1.008 1.008 0 0 0-1.42 1.43l.92.91A7.92 7.92 0 0 0 4 13.5a8 8 0 1 0 14.3-4.91zM12 19.5a6 6 0 1 1 0-12 6 6 0 0 1 0 12zm-2-15h4a1 1 0 1 0 0-2h-4a1 1 0 0 0 0 2zm3 6a1 1 0 0 0-2 0v1.89a1.5 1.5 0 1 0 2 0V10.5z" fill="currentColor"></path>
  </symbol>
  <symbol viewBox="0 0 24 24" fill="none" xmlns="http://www.w3.org/2000/svg" id="multimedia-stopwatch-slash">
    <path d="M10.6 5.63a1.016 1.016 0 0 0 .36 2 6.18 6.18 0 0 1 1-.09 6 6 0 0 1 6 6c-.003.335-.033.67-.09 1a1 1 0 0 0 .8 1.16h.18a1 1 0 0 0 1-.82A7.45 7.45 0 0 0 20 13.5a8 8 0 0 0-1.7-4.91l.91-.9a1.004 1.004 0 1 0-1.42-1.42l-.9.91A8 8 0 0 0 12 5.5c-.47 0-.938.043-1.4.13zM10 4.5h4a1 1 0 1 0 0-2h-4a1 1 0 0 0 0 2zm3.49 9.08v-.16l1.34-1.33a1.004 1.004 0 0 0-1.42-1.42L12.08 12h-.16L5.71 5.79a1.004 1.004 0 0 0-1.42 1.42l.48.48.91.91A8 8 0 0 0 16.9 19.82l1.39 1.39a1.002 1.002 0 0 0 1.639-.325 1 1 0 0 0-.219-1.095l-6.22-6.21zM12 19.5A6 6 0 0 1 7.11 10l3.4 3.39v.08A1.5 1.5 0 0 0 12 15h.08l3.39 3.4A6 6 0 0 1 12 19.5z" fill="currentColor"></path>
  </symbol>
  <symbol viewBox="0 0 24 24" fill="none" xmlns="http://www.w3.org/2000/svg" id="multimedia-image-edit">
    <path d="M19 11.48a1 1 0 0 0-1 1v2.39l-1.5-1.48a2.83 2.83 0 0 0-3.92 0l-.7.7-2.49-2.49a2.78 2.78 0 0 0-3.92 0L4 13.09V7.48a1 1 0 0 1 1-1h6a1 1 0 1 0 0-2H5a3 3 0 0 0-3 3v12a3 3 0 0 0 3 3h12a3 3 0 0 0 3-3v-7a1 1 0 0 0-1-1zm-14 9a1 1 0 0 1-1-1v-3.56L6.88 13A.78.78 0 0 1 8 13l3.17 3.17 4.26 4.26L5 20.48zm13-1a1 1 0 0 1-.17.54l-4.54-4.52.7-.69a.78.78 0 0 1 1.1 0L18 17.7v1.78zm3.72-15.25L19.3 1.81a1 1 0 0 0-1.41 0l-4.58 4.58a1 1 0 0 0-.31.71v2.42a1 1 0 0 0 1 1h2.42a1 1 0 0 0 .7-.29l4.58-4.58a1 1 0 0 0 .02-1.42zM16 8.52h-1v-1l3.6-3.59 1 1L16 8.52z" fill="currentColor"></path>
  </symbol>
</svg>