<svg width="0" height="0" class="hidden">
  <symbol viewBox="0 0 24 24" fill="none" xmlns="http://www.w3.org/2000/svg" id="objects-books">
    <path d="M22.47 18.82l-1-3.86-3.15-11.59a1 1 0 0 0-1.22-.71l-3.87 1a1 1 0 0 0-.73-.33h-10a1 1 0 0 0-1 1v16a1 1 0 0 0 1 1h10a1 1 0 0 0 1-1v-8l2.2 8.22a1 1 0 0 0 1 .74c.086.01.174.01.26 0L21.79 20a1 1 0 0 0 .61-.47 1.05 1.05 0 0 0 .07-.71zm-16 .55h-3v-2h3v2zm0-4h-3v-6h3v6zm0-8h-3v-2h3v2zm5 12h-3v-2h3v2zm0-4h-3v-6h3v6zm0-8h-3v-2h3v2zm2.25-1.74l2.9-.78.52 1.93-2.9.78-.52-1.93zm2.59 9.66l-1.55-5.8 2.9-.78 1.55 5.8-2.9.78zm1 3.86l-.52-1.93 2.9-.78.52 1.93-2.9.78z" fill="currentColor"></path>
  </symbol>
  <symbol viewBox="0 0 24 24" fill="none" xmlns="http://www.w3.org/2000/svg" id="objects-bookmark">
    <path d="M16 2H8.00001C7.20436 2 6.4413 2.31607 5.87869 2.87868C5.31608 3.44129 5.00001 4.20435 5.00001 5V21C4.99931 21.1762 5.04518 21.3495 5.13299 21.5023C5.22079 21.655 5.3474 21.7819 5.50001 21.87C5.65203 21.9578 5.82447 22.004 6.00001 22.004C6.17554 22.004 6.34799 21.9578 6.50001 21.87L12 18.69L17.5 21.87C17.6524 21.9564 17.8248 22.0012 18 22C18.1752 22.0012 18.3476 21.9564 18.5 21.87C18.6526 21.7819 18.7792 21.655 18.867 21.5023C18.9548 21.3495 19.0007 21.1762 19 21V5C19 4.20435 18.6839 3.44129 18.1213 2.87868C17.5587 2.31607 16.7957 2 16 2ZM17 19.27L12.5 16.67C12.348 16.5822 12.1755 16.536 12 16.536C11.8245 16.536 11.652 16.5822 11.5 16.67L7.00001 19.27V5C7.00001 4.73478 7.10536 4.48043 7.2929 4.29289C7.48044 4.10536 7.73479 4 8.00001 4H16C16.2652 4 16.5196 4.10536 16.7071 4.29289C16.8947 4.48043 17 4.73478 17 5V19.27Z" fill="currentColor" />
  </symbol>
  <symbol viewBox="0 0 24 24" fill="none" xmlns="http://www.w3.org/2000/svg" id="objects-book-open">
    <path d="M21.17 2.06A13.1 13.1 0 0 0 19 1.87a12.94 12.94 0 0 0-7 2.05 12.94 12.94 0 0 0-7-2 13.1 13.1 0 0 0-2.17.19 1 1 0 0 0-.83 1v12a1 1 0 0 0 1.17 1 10.9 10.9 0 0 1 8.25 1.91l.12.07h.11a.91.91 0 0 0 .7 0h.11l.12-.07A10.9 10.9 0 0 1 20.83 16 1 1 0 0 0 22 15V3a1 1 0 0 0-.83-.94zM11 15.35a12.87 12.87 0 0 0-6-1.48H4v-10a8.34 8.34 0 0 1 1 0 10.86 10.86 0 0 1 6 1.8v9.68zm9-1.44h-1a12.87 12.87 0 0 0-6 1.48V5.67a10.86 10.86 0 0 1 6-1.8 8.34 8.34 0 0 1 1 0v10.04zm1.17 4.15a13.11 13.11 0 0 0-2.17-.19 12.94 12.94 0 0 0-7 2.05 12.94 12.94 0 0 0-7-2.05 13.11 13.11 0 0 0-2.17.19A1.002 1.002 0 0 0 2 19.21a1 1 0 0 0 1.17.79 10.9 10.9 0 0 1 8.25 1.91 1 1 0 0 0 1.16 0A10.9 10.9 0 0 1 20.83 20a1 1 0 0 0 1.17-.79 1 1 0 0 0-.83-1.15z" fill="currentColor"></path>
  </symbol>
  <symbol viewBox="0 0 24 24" fill="none" xmlns="http://www.w3.org/2000/svg" id="objects-book-alt">
    <path d="M18 2H8a4 4 0 0 0-4 4v12a4 4 0 0 0 4 4h10a2 2 0 0 0 2-2V4a2 2 0 0 0-2-2zM6 6a2 2 0 0 1 2-2h10v10H8a3.91 3.91 0 0 0-2 .56V6zm2 14a2 2 0 1 1 0-4h10v4H8zm2-12h4a1 1 0 1 0 0-2h-4a1 1 0 0 0 0 2z" fill="currentColor"></path>
  </symbol>
  <symbol viewBox="0 0 24 24" fill="none" xmlns="http://www.w3.org/2000/svg" id="objects-head-side-mask">
    <path d="M13.2305 2.00336C12.2254 1.96473 11.223 2.13235 10.2851 2.49589C9.34729 2.85942 8.49382 3.41117 7.77734 4.11713C7.05829 4.81015 6.4861 5.64081 6.09485 6.55963C5.7036 7.47845 5.5013 8.46662 5.5 9.46527L3.65625 12.4628C3.55697 12.6183 3.50287 12.7984 3.5 12.9828V13.0234C3.50264 13.1422 3.52645 13.2596 3.57031 13.37L5.00977 17.2426C5.02246 17.2768 5.03711 17.3095 5.05277 17.3417C5.30052 17.8412 5.68324 18.2613 6.15754 18.5544C6.63185 18.8475 7.17878 19.0018 7.73633 18.9999H8.5V20.9999C8.5 21.2652 8.60536 21.5195 8.79289 21.707C8.98043 21.8946 9.23478 21.9999 9.5 21.9999C9.76522 21.9999 10.0196 21.8946 10.2071 21.707C10.3946 21.5195 10.5 21.2652 10.5 20.9999V18.9999H12.4969L12.5 19.0004C12.6093 19.0002 12.7179 18.9821 12.8213 18.9467L16.5215 17.6905C16.5249 17.731 16.5308 17.7712 16.5391 17.811L17.5391 21.2773C17.5993 21.4856 17.7256 21.6687 17.8989 21.7992C18.0722 21.9296 18.2831 22.0002 18.5 22.0004C18.5938 22.0001 18.6872 21.9868 18.7773 21.9609C19.0322 21.8873 19.2473 21.7155 19.3755 21.4833C19.5037 21.2511 19.5344 20.9775 19.4609 20.7226L18.5371 17.5224L20.4668 10.2563C20.4886 10.1726 20.4997 10.0864 20.5 9.99994V9.7724C20.5214 7.79064 19.7776 5.87699 18.4235 4.42984C17.0694 2.9827 15.2093 2.11356 13.2305 2.00336ZM11.5 16.9999H7.73633C7.55803 17.0006 7.38283 16.9533 7.22907 16.863C7.07532 16.7727 6.94865 16.6428 6.86233 16.4868L5.93848 13.9999H11.5V16.9999ZM17.023 15.4086L13.5 16.6046V13.7208L17.8448 12.2725L17.023 15.4086ZM18.4351 10.0201C18.3503 10.0195 18.2657 10.0299 18.1836 10.0512L12.3374 11.9999H6.28906L7.36328 10.2534C7.46702 10.0848 7.51834 9.88916 7.51074 9.69136C7.51074 9.6811 7.50098 9.5102 7.5 9.49995C7.49741 8.76334 7.64404 8.03383 7.93105 7.35543C8.21805 6.67703 8.63948 6.06378 9.16992 5.55267C9.69953 5.0405 10.3263 4.63948 11.0132 4.37323C11.7002 4.10698 12.4335 3.98089 13.1699 4.00238C14.6301 4.09349 15.999 4.74406 16.9918 5.81876C17.9845 6.89347 18.5247 8.30954 18.5 9.7724L18.4351 10.0201Z" fill="currentColor" />
  </symbol>
  <symbol viewBox="0 0 24 24" fill="none" xmlns="http://www.w3.org/2000/svg" id="objects-head-side-mask">
    <path d="M13.2305 2.00336C12.2254 1.96473 11.223 2.13235 10.2851 2.49589C9.34729 2.85942 8.49382 3.41117 7.77734 4.11713C7.05829 4.81015 6.4861 5.64081 6.09485 6.55963C5.7036 7.47845 5.5013 8.46662 5.5 9.46527L3.65625 12.4628C3.55697 12.6183 3.50287 12.7984 3.5 12.9828V13.0234C3.50264 13.1422 3.52645 13.2596 3.57031 13.37L5.00977 17.2426C5.02246 17.2768 5.03711 17.3095 5.05277 17.3417C5.30052 17.8412 5.68324 18.2613 6.15754 18.5544C6.63185 18.8475 7.17878 19.0018 7.73633 18.9999H8.5V20.9999C8.5 21.2652 8.60536 21.5195 8.79289 21.707C8.98043 21.8946 9.23478 21.9999 9.5 21.9999C9.76522 21.9999 10.0196 21.8946 10.2071 21.707C10.3946 21.5195 10.5 21.2652 10.5 20.9999V18.9999H12.4969L12.5 19.0004C12.6093 19.0002 12.7179 18.9821 12.8213 18.9467L16.5215 17.6905C16.5249 17.731 16.5308 17.7712 16.5391 17.811L17.5391 21.2773C17.5993 21.4856 17.7256 21.6687 17.8989 21.7992C18.0722 21.9296 18.2831 22.0002 18.5 22.0004C18.5938 22.0001 18.6872 21.9868 18.7773 21.9609C19.0322 21.8873 19.2473 21.7155 19.3755 21.4833C19.5037 21.2511 19.5344 20.9775 19.4609 20.7226L18.5371 17.5224L20.4668 10.2563C20.4886 10.1726 20.4997 10.0864 20.5 9.99994V9.7724C20.5214 7.79064 19.7776 5.87699 18.4235 4.42984C17.0694 2.9827 15.2093 2.11356 13.2305 2.00336ZM11.5 16.9999H7.73633C7.55803 17.0006 7.38283 16.9533 7.22907 16.863C7.07532 16.7727 6.94865 16.6428 6.86233 16.4868L5.93848 13.9999H11.5V16.9999ZM17.023 15.4086L13.5 16.6046V13.7208L17.8448 12.2725L17.023 15.4086ZM18.4351 10.0201C18.3503 10.0195 18.2657 10.0299 18.1836 10.0512L12.3374 11.9999H6.28906L7.36328 10.2534C7.46702 10.0848 7.51834 9.88916 7.51074 9.69136C7.51074 9.6811 7.50098 9.5102 7.5 9.49995C7.49741 8.76334 7.64404 8.03383 7.93105 7.35543C8.21805 6.67703 8.63948 6.06378 9.16992 5.55267C9.69953 5.0405 10.3263 4.63948 11.0132 4.37323C11.7002 4.10698 12.4335 3.98089 13.1699 4.00238C14.6301 4.09349 15.999 4.74406 16.9918 5.81876C17.9845 6.89347 18.5247 8.30954 18.5 9.7724L18.4351 10.0201Z" fill="currentColor" />
  </symbol>
  <symbol viewBox="0 0 24 24" fill="none" xmlns="http://www.w3.org/2000/svg" id="objects-ambulance">
    <path d="M10.5 9.5h-1v-1a1 1 0 0 0-2 0v1h-1a1 1 0 0 0 0 2h1v1a1 1 0 1 0 2 0v-1h1a1 1 0 0 0 0-2zm12.43 2.15l-.06-.11a.611.611 0 0 0-.07-.14l-2.4-3.2A3 3 0 0 0 18 7h-2V6a3 3 0 0 0-3-3H4a3 3 0 0 0-3 3v11a1 1 0 0 0 1 1h1a3 3 0 0 0 6 0h6a3 3 0 0 0 6 0h1a1 1 0 0 0 1-1v-5a1.002 1.002 0 0 0-.07-.35zM6 19a1 1 0 1 1 0-2 1 1 0 0 1 0 2zm8-3H8.22a3 3 0 0 0-4.44 0H3V6a1 1 0 0 1 1-1h9a1 1 0 0 1 1 1v10zm2-7h2a1 1 0 0 1 .8.4L20 11h-4V9zm2 10a1 1 0 1 1 0-2 1 1 0 0 1 0 2zm3-3h-.78a3 3 0 0 0-4.22-.22V13h5v3z" fill="currentColor"></path>
  </symbol>
  <symbol viewBox="0 0 24 24" fill="none" xmlns="http://www.w3.org/2000/svg" id="objects-syringe">
    <path d="M21.71 2.29a1 1 0 0 0-1.42 0l-2.12 2.12-.71-.7a1 1 0 0 0-1.41 0l-1.41 1.41-.71-.71a1 1 0 0 0-1.42 0l-7.77 7.78-.74-.7a1 1 0 0 0-1.38 1.41l3.53 3.54-1.73 1.74-.71-.72a1.004 1.004 0 1 0-1.42 1.42l2.83 2.83a1 1 0 0 0 .71.29.999.999 0 0 0 .71-1.71l-.71-.7 1.74-1.74 3.53 3.53a1 1 0 0 0 .71.3.999.999 0 0 0 .7-1.71l-.7-.71 7.78-7.77a1 1 0 0 0 0-1.42l-.71-.71L20.29 8a1 1 0 0 0 0-1.41l-.7-.71 2.12-2.12a1 1 0 0 0 0-1.47zM7.57 15l-1.42-1.39 1.41-1.42L9 13.61 7.57 15zm2.82 2.83L9 16.44 10.39 15l1.42 1.42-1.42 1.41zM13.22 15L9 10.78l4.24-4.24.71.7 3.53 3.54L13.22 15zm4.24-7l-1.41-1.46.71-.71.7.7.7.7-.7.77z" fill="currentColor"></path>
  </symbol>
  <symbol viewBox="0 0 24 24" fill="none" xmlns="http://www.w3.org/2000/svg" id="objects-stethosope">
    <path d="M19 8C18.293 7.99823 17.6082 8.24685 17.0669 8.70179C16.5257 9.15673 16.1631 9.7886 16.0433 10.4854C15.9234 11.1822 16.0542 11.8989 16.4124 12.5085C16.7706 13.1181 17.333 13.5812 18 13.8157V15.5C18 16.6935 17.5259 17.8381 16.682 18.682C15.8381 19.5259 14.6935 20 13.5 20C12.3065 20 11.1619 19.5259 10.318 18.682C9.47411 17.8381 9 16.6935 9 15.5V14.9097C10.3966 14.6727 11.6645 13.9496 12.5795 12.8681C13.4944 11.7867 13.9976 10.4166 14 9V3C14 2.73478 13.8946 2.48043 13.7071 2.29289C13.5196 2.10536 13.2652 2 13 2H11C10.7348 2 10.4804 2.10536 10.2929 2.29289C10.1054 2.48043 10 2.73478 10 3C10 3.26522 10.1054 3.51957 10.2929 3.70711C10.4804 3.89464 10.7348 4 11 4H12V9C12 10.0609 11.5786 11.0783 10.8284 11.8284C10.0783 12.5786 9.06087 13 8 13C6.93913 13 5.92172 12.5786 5.17157 11.8284C4.42143 11.0783 4 10.0609 4 9V4H5C5.26522 4 5.51957 3.89464 5.70711 3.70711C5.89464 3.51957 6 3.26522 6 3C6 2.73478 5.89464 2.48043 5.70711 2.29289C5.51957 2.10536 5.26522 2 5 2H3C2.73478 2 2.48043 2.10536 2.29289 2.29289C2.10536 2.48043 2 2.73478 2 3V9C2.00241 10.4166 2.50557 11.7867 3.42055 12.8681C4.33552 13.9496 5.60338 14.6727 7 14.9097V15.5C7 17.2239 7.68482 18.8772 8.90381 20.0962C10.1228 21.3152 11.7761 22 13.5 22C15.2239 22 16.8772 21.3152 18.0962 20.0962C19.3152 18.8772 20 17.2239 20 15.5V13.8157C20.667 13.5812 21.2294 13.1181 21.5876 12.5085C21.9458 11.899 22.0765 11.1822 21.9567 10.4854C21.8369 9.78864 21.4743 9.15676 20.933 8.70182C20.3918 8.24687 19.707 7.99824 19 8ZM19 12C18.8022 12 18.6089 11.9414 18.4444 11.8315C18.28 11.7216 18.1518 11.5654 18.0761 11.3827C18.0004 11.2 17.9806 10.9989 18.0192 10.8049C18.0578 10.6109 18.153 10.4327 18.2929 10.2929C18.4327 10.153 18.6109 10.0578 18.8049 10.0192C18.9989 9.98063 19.2 10.0004 19.3827 10.0761C19.5654 10.1518 19.7216 10.28 19.8315 10.4444C19.9414 10.6089 20 10.8022 20 11C19.9997 11.2651 19.8942 11.5193 19.7067 11.7067C19.5193 11.8942 19.2651 11.9997 19 12Z" fill="currentColor" />
  </symbol>
  <symbol viewBox="0 0 24 24" fill="none" xmlns="http://www.w3.org/2000/svg" id="objects-medkit">
    <path d="M10 17h1v1a1 1 0 0 0 2 0v-1h1a1 1 0 0 0 0-2h-1v-1a1 1 0 0 0-2 0v1h-1a1 1 0 0 0 0 2zm9-11h-2V5a3 3 0 0 0-3-3h-4a3 3 0 0 0-3 3v1H5a3 3 0 0 0-3 3v10a3 3 0 0 0 3 3h14a3 3 0 0 0 3-3V9a3 3 0 0 0-3-3zM9 5a1 1 0 0 1 1-1h4a1 1 0 0 1 1 1v1H9V5zm11 14a1 1 0 0 1-1 1H5a1 1 0 0 1-1-1v-7h16v7zm0-9H4V9a1 1 0 0 1 1-1h14a1 1 0 0 1 1 1v1z" fill="currentColor"></path>
  </symbol>
  <symbol viewBox="0 0 24 24" fill="none" xmlns="http://www.w3.org/2000/svg" id="objects-medical-square">
    <path d="M19 2H5a3 3 0 0 0-3 3v14a3 3 0 0 0 3 3h14a3 3 0 0 0 3-3V5a3 3 0 0 0-3-3zm1 17a1 1 0 0 1-1 1H5a1 1 0 0 1-1-1V5a1 1 0 0 1 1-1h14a1 1 0 0 1 1 1v14zM17 9h-2V7a1 1 0 0 0-1-1h-4a1 1 0 0 0-1 1v2H7a1 1 0 0 0-1 1v4a1 1 0 0 0 1 1h2v2a1 1 0 0 0 1 1h4a1 1 0 0 0 1-1v-2h2a1 1 0 0 0 1-1v-4a1 1 0 0 0-1-1zm-1 4h-2a1 1 0 0 0-1 1v2h-2v-2a1 1 0 0 0-1-1H8v-2h2a1 1 0 0 0 1-1V8h2v2a1 1 0 0 0 1 1h2v2z" fill="currentColor"></path>
  </symbol>
  <symbol viewBox="0 0 24 24" fill="none" xmlns="http://www.w3.org/2000/svg" id="objects-sanitizer">
    <path d="M12.9999 12C12.4066 12 11.8266 12.176 11.3332 12.5056C10.8399 12.8353 10.4554 13.3038 10.2283 13.852C10.0012 14.4001 9.94183 15.0033 10.0576 15.5853C10.1733 16.1672 10.4591 16.7018 10.8786 17.1213C11.2982 17.5409 11.8327 17.8266 12.4147 17.9424C12.9966 18.0581 13.5998 17.9987 14.148 17.7717C14.6962 17.5446 15.1647 17.1601 15.4944 16.6667C15.824 16.1734 15.9999 15.5934 15.9999 15C15.9991 14.2046 15.6827 13.4421 15.1203 12.8797C14.5579 12.3172 13.7953 12.0009 12.9999 12ZM12.9999 16C12.8022 16 12.6088 15.9414 12.4444 15.8315C12.2799 15.7216 12.1518 15.5654 12.0761 15.3827C12.0004 15.2 11.9806 14.9989 12.0192 14.8049C12.0577 14.6109 12.153 14.4328 12.2928 14.2929C12.4327 14.1531 12.6109 14.0578 12.8049 14.0192C12.9988 13.9806 13.1999 14.0005 13.3826 14.0761C13.5654 14.1518 13.7215 14.28 13.8314 14.4444C13.9413 14.6089 13.9999 14.8022 13.9999 15C13.9996 15.2651 13.8941 15.5193 13.7067 15.7067C13.5192 15.8942 13.2651 15.9997 12.9999 16ZM18.8002 7.60012L15.9999 5.50014V3.00002H16.9999C17.2652 3.00002 17.5195 2.89466 17.7071 2.70713C17.8946 2.51959 17.9999 2.26524 17.9999 2.00002C17.9999 1.7348 17.8946 1.48045 17.7071 1.29291C17.5195 1.10538 17.2652 1.00002 16.9999 1.00002H8.65669C7.99988 0.998221 7.34923 1.12672 6.74242 1.37808C6.13561 1.62944 5.58468 1.99866 5.12153 2.46438L4.29295 3.29302C4.19872 3.38556 4.12375 3.49584 4.07239 3.61751C4.02102 3.73918 3.99426 3.86983 3.99366 4.00189C3.99306 4.13396 4.01864 4.26484 4.0689 4.38697C4.11916 4.5091 4.19313 4.62006 4.28651 4.71345C4.3799 4.80684 4.49086 4.8808 4.61299 4.93106C4.73512 4.98133 4.866 5.0069 4.99807 5.0063C5.13014 5.0057 5.26078 4.97895 5.38245 4.92758C5.50412 4.87621 5.61441 4.80125 5.70695 4.70702L6.53556 3.87841C7.09952 3.31798 7.86162 3.00239 8.65669 3.00002H9.99995V5.50008L7.19917 7.60008C6.82762 7.88043 6.52602 8.24298 6.31797 8.65934C6.10992 9.0757 6.00107 9.53457 5.99995 10V22C5.99995 22.2652 6.1053 22.5196 6.29284 22.7071C6.48038 22.8947 6.73473 23 6.99995 23H18.9999C19.2652 23 19.5195 22.8947 19.7071 22.7071C19.8946 22.5196 19.9999 22.2652 19.9999 22V10C19.9988 9.53453 19.8899 9.07561 19.6818 8.65925C19.4736 8.24288 19.1719 7.88037 18.8002 7.60012ZM11.9999 3.00002H13.9999V5.00002H11.9999V3.00002ZM17.9999 21H7.99995V10C8.00031 9.84481 8.03661 9.69179 8.10599 9.55295C8.17537 9.41411 8.27595 9.29321 8.39985 9.19973L11.3334 7.00002H14.6664L17.5996 9.19973C17.7236 9.29311 17.8243 9.41397 17.8938 9.55283C17.9633 9.69168 17.9996 9.84475 17.9999 10V21Z" fill="currentColor" />
  </symbol>
  <symbol viewBox="0 0 24 24" fill="none" xmlns="http://www.w3.org/2000/svg" id="objects-lightbulb-alt">
    <path d="M17.09 2.82a8 8 0 0 0-6.68-1.66 8 8 0 0 0-6.27 6.32 8.07 8.07 0 0 0 1.72 6.65A4.54 4.54 0 0 1 7 17v3a3 3 0 0 0 3 3h4a3 3 0 0 0 3-3v-2.81A5.17 5.17 0 0 1 18.22 14a8 8 0 0 0-1.13-11.2v.02zM15 20a1 1 0 0 1-1 1h-4a1 1 0 0 1-1-1v-1h6v1zm1.67-7.24A7.13 7.13 0 0 0 15 17h-2v-3a1 1 0 0 0-2 0v3H9a6.5 6.5 0 0 0-1.6-4.16 6 6 0 0 1 3.39-9.72A6 6 0 0 1 18 9a5.89 5.89 0 0 1-1.33 3.76z" fill="currentColor"></path>
  </symbol>
  <symbol viewBox="0 0 24 24" fill="none" xmlns="http://www.w3.org/2000/svg" id="objects-bug">
    <path d="M19 14h2a1 1 0 0 0 0-2h-2v-1a5.15 5.15 0 0 0-.21-1.36A5 5 0 0 0 22 5a1 1 0 0 0-2 0 3 3 0 0 1-2.14 2.87A5 5 0 0 0 16 6.4a2.67 2.67 0 0 0 0-.4 4 4 0 1 0-8 0 2.58 2.58 0 0 0 0 .4 5 5 0 0 0-1.9 1.47A3 3 0 0 1 4 5a1 1 0 0 0-2 0 5 5 0 0 0 3.21 4.64c-.13.442-.201.9-.21 1.36v1H3a1 1 0 0 0 0 2h2v1a7 7 0 0 0 .14 1.38A5 5 0 0 0 2 21a1 1 0 1 0 2 0 3 3 0 0 1 1.81-2.74 7 7 0 0 0 12.38 0A3 3 0 0 1 20 21a1 1 0 0 0 2 0 5 5 0 0 0-3.14-4.62c.092-.454.14-.916.14-1.38v-1zm-8 5.9A5 5 0 0 1 7 15v-4a3 3 0 0 1 3-3h1v11.9zM10 6a2 2 0 1 1 4 0h-4zm7 9a5 5 0 0 1-4 4.9V8h1a3 3 0 0 1 3 3v4z" fill="currentColor"></path>
  </symbol>
  <symbol viewBox="0 0 24 24" fill="none" xmlns="http://www.w3.org/2000/svg" id="objects-dumbbell">
    <path d="M17.48 6.55l-2.84-2.84a1 1 0 1 0-1.42 1.41l2.12 2.12-8.1 8.1-2.12-2.12a1 1 0 1 0-1.41 1.42l2.81 2.81 2.81 2.81a1 1 0 1 0 1.42-1.41l-2.09-2.09 8.1-8.1 2.12 2.12a.999.999 0 0 0 1.63-.33 1.001 1.001 0 0 0-.22-1.09l-2.81-2.81zM3.71 17.46a1.004 1.004 0 1 0-1.42 1.42l2.83 2.83a1 1 0 0 0 .71.29 1.002 1.002 0 0 0 1.006-1 1 1 0 0 0-.296-.71l-2.83-2.83zm18-12.34l-2.83-2.83a1.004 1.004 0 1 0-1.42 1.42l2.83 2.83a1.001 1.001 0 0 0 1.639-.325 1 1 0 0 0-.219-1.095z" fill="currentColor"></path>
  </symbol>
  <symbol viewBox="0 0 24 24" fill="none" xmlns="http://www.w3.org/2000/svg" id="objects-wrench">
    <path d="M21.71 15.58l-4.52-4.51c.095-.46.141-.93.14-1.4A7.669 7.669 0 0 0 6.42 2.72a1 1 0 0 0-.29 1.62l4.35 4.34-1.8 1.8-4.34-4.35a1 1 0 0 0-.88-.27 1 1 0 0 0-.74.56 7.67 7.67 0 0 0 7 10.91c.47.001.94-.045 1.4-.14l4.51 4.52a1.002 1.002 0 0 0 1.639-.326 1 1 0 0 0-.219-1.094l-4.9-4.9a1 1 0 0 0-.95-.26 5.88 5.88 0 0 1-1.48.2A5.671 5.671 0 0 1 4 9.67a6 6 0 0 1 .08-1L8 12.6a1 1 0 0 0 1.42 0l3.18-3.21a1 1 0 0 0 0-1.39L8.71 4.08c.33-.054.665-.08 1-.08a5.67 5.67 0 0 1 5.66 5.67c-.003.5-.07.997-.2 1.48a1 1 0 0 0 .26.95l4.9 4.9a1.004 1.004 0 1 0 1.42-1.42h-.04z" fill="currentColor"></path>
  </symbol>
  <symbol viewBox="0 0 24 24" fill="none" xmlns="http://www.w3.org/2000/svg" id="objects-graduation-hat">
    <path d="M21.49 10.19l-1-.55-9-5h-.11a1.06 1.06 0 0 0-.19-.06h-.37a1.17 1.17 0 0 0-.2.06h-.11l-9 5a1 1 0 0 0 0 1.74L4 12.76v4.74a3 3 0 0 0 3 3h8a3 3 0 0 0 3-3v-4.74l2-1.12v2.86a1 1 0 0 0 2 0v-3.44a1 1 0 0 0-.51-.87zM16 17.5a1 1 0 0 1-1 1H7a1 1 0 0 1-1-1v-3.63l4.51 2.5.15.06h.09c.083.01.167.01.25 0 .083.01.167.01.25 0h.09a.47.47 0 0 0 .15-.06l4.51-2.5v3.63zm-5-3.14L4.06 10.5 11 6.64l6.94 3.86L11 14.36z" fill="currentColor"></path>
  </symbol>
  <symbol viewBox="0 0 24 24" fill="none" xmlns="http://www.w3.org/2000/svg" id="objects-plug">
    <path d="M19 6h-3V3a1 1 0 0 0-2 0v3h-4V3a1 1 0 0 0-2 0v3H5a1 1 0 0 0 0 2h1v5a1 1 0 0 0 .29.71L9 16.41V21a1 1 0 1 0 2 0v-4h2v4a1 1 0 0 0 2 0v-4.59l2.71-2.7A1 1 0 0 0 18 13V8h1a1 1 0 1 0 0-2zm-3 6.59L13.59 15h-3.18L8 12.59V8h8v4.59zM11 13h2a1 1 0 0 0 0-2h-2a1 1 0 0 0 0 2z" fill="currentColor"></path>
  </symbol>
  <symbol viewBox="0 0 24 24" fill="none" xmlns="http://www.w3.org/2000/svg" id="objects-trophy">
    <path d="M21 4h-3V3a1 1 0 0 0-1-1H7a1 1 0 0 0-1 1v1H3a1 1 0 0 0-1 1v3a4 4 0 0 0 4 4h1.54A6 6 0 0 0 11 13.91V16h-1a3 3 0 0 0-3 3v2a1 1 0 0 0 1 1h8a1 1 0 0 0 1-1v-2a3 3 0 0 0-3-3h-1v-2.09A6 6 0 0 0 16.46 12H18a4 4 0 0 0 4-4V5a1 1 0 0 0-1-1zM6 10a2 2 0 0 1-2-2V6h2v2a6 6 0 0 0 .35 2H6zm8 8a1 1 0 0 1 1 1v1H9v-1a1 1 0 0 1 1-1h4zm2-10a4 4 0 1 1-8 0V4h8v4zm4 0a2 2 0 0 1-2 2h-.35A6 6 0 0 0 18 8V6h2v2z" fill="currentColor"></path>
  </symbol>
  <symbol viewBox="0 0 24 24" fill="none" xmlns="http://www.w3.org/2000/svg" id="objects-dna">
    <path d="M9.2 13.73a1 1 0 0 0-1.41-.05A11.18 11.18 0 0 0 4 22a1 1 0 1 0 2 0 9.15 9.15 0 0 1 3.15-6.86 1 1 0 0 0 .05-1.41zm10.17 4.64a10.86 10.86 0 0 0-1.6-3A14.31 14.31 0 0 0 14.06 12C16.3 10.57 20 7.4 20 2a1 1 0 0 0-2 0c0 5.4-4.59 8.17-6 8.89A13.421 13.421 0 0 1 9.31 9H12a1 1 0 1 0 0-2H7.55a9.39 9.39 0 0 1-1-2H15a1 1 0 1 0 0-2H6.06A8.14 8.14 0 0 1 6 2a1 1 0 0 0-2 0c0 7.57 7.3 10.79 7.61 10.92A12.932 12.932 0 0 1 14.7 15H12a1 1 0 0 0 0 2h4.43a9.07 9.07 0 0 1 1 2H9a1 1 0 0 0 0 2h8.94c.04.332.06.666.06 1a1 1 0 0 0 2 0c.004-.736-.07-1.47-.22-2.19a9.23 9.23 0 0 0-.41-1.44z" fill="currentColor"></path>
  </symbol>
  <symbol viewBox="0 0 24 24" fill="none" xmlns="http://www.w3.org/2000/svg" id="objects-megaphone">
    <path d="M19.991 2.002a1 1 0 0 0-1 1v.637a9.036 9.036 0 0 1-7 3.363h-6a3.003 3.003 0 0 0-3 3v2a3.003 3.003 0 0 0 3 3h.484l-2.403 5.606a.999.999 0 0 0 .92 1.394h4a.999.999 0 0 0 .918-.607l2.724-6.355a9.026 9.026 0 0 1 6.357 3.325v.637a1 1 0 0 0 2 0v-16a.998.998 0 0 0-1-1zm-14 11a1 1 0 0 1-1-1v-2a1 1 0 0 1 1-1h1v4h-1zm2.341 7H6.508l2.142-5h1.825l-2.143 5zm10.66-4.478a11.052 11.052 0 0 0-7-2.522h-3v-4h3a11.053 11.053 0 0 0 7-2.522v9.044z" fill="currentColor"></path>
  </symbol>
  <symbol viewBox="0 0 24 24" fill="none" xmlns="http://www.w3.org/2000/svg" id="objects-globe">
    <path d="M21.41 8.64v-.05a10 10 0 0 0-18.78 0v.05a9.86 9.86 0 0 0 0 6.72v.05a10 10 0 0 0 18.78 0v-.05a9.86 9.86 0 0 0 0-6.72zM4.26 14a7.82 7.82 0 0 1 0-4h1.86a16.73 16.73 0 0 0 0 4H4.26zm.82 2h1.4c.235.892.57 1.754 1 2.57A7.999 7.999 0 0 1 5.08 16zm1.4-8h-1.4a8 8 0 0 1 2.37-2.57A12.15 12.15 0 0 0 6.48 8zM11 19.7A6.34 6.34 0 0 1 8.57 16H11v3.7zm0-5.7H8.14a14.36 14.36 0 0 1 0-4H11v4zm0-6H8.57A6.34 6.34 0 0 1 11 4.3V8zm7.92 0h-1.4a12.148 12.148 0 0 0-1-2.57A8 8 0 0 1 18.92 8zM13 4.3A6.34 6.34 0 0 1 15.43 8H13V4.3zm0 15.4V16h2.43A6.34 6.34 0 0 1 13 19.7zm2.86-5.7H13v-4h2.86a14.36 14.36 0 0 1 0 4zm.69 4.57c.43-.816.765-1.678 1-2.57h1.4a7.999 7.999 0 0 1-2.4 2.57zM19.74 14h-1.86c.081-.663.121-1.331.12-2a16.285 16.285 0 0 0-.12-2h1.86a7.82 7.82 0 0 1 0 4z" fill="currentColor"></path>
  </symbol>
  <symbol viewBox="0 0 24 24" fill="none" xmlns="http://www.w3.org/2000/svg" id="objects-glass">
    <path d="M19.75 2.33A1 1 0 0 0 19 2H5a1 1 0 0 0-1 1.11l1.8 16.22a3 3 0 0 0 3 2.67h6.42a3 3 0 0 0 3-2.67L20 3.11a1 1 0 0 0-.25-.78zM16.2 19.11a1 1 0 0 1-1 .89H8.79a1 1 0 0 1-1-.89L6.78 10h10.44l-1.02 9.11zM17.44 8H6.56l-.44-4h11.76l-.44 4z" fill="currentColor"></path>
  </symbol>
  <symbol viewBox="0 0 24 24" fill="none" xmlns="http://www.w3.org/2000/svg" id="objects-glass-martini-alt-slash">
    <path d="M19.71 16.29l-14-14a1.004 1.004 0 1 0-1.42 1.42L6.59 6H5a1 1 0 0 0-.9.57 1 1 0 0 0 .12 1L11 16.1V20H6.75a1 1 0 1 0 0 2h10.5a1 1 0 0 0 0-2H13v-3.9l1.64-2 3.65 3.65a1.002 1.002 0 0 0 1.42 0 1 1 0 0 0 0-1.46zM7.08 8h1.51l1.89 1.89H8.59L7.08 8zM12 14.15l-1.81-2.26h2.29l.74.74L12 14.15zM14.66 8h2.26l-.63.79a1 1 0 0 0 .15 1.4 1 1 0 0 0 .63.22 1 1 0 0 0 .78-.37l1.93-2.42a1 1 0 0 0 .12-1A1 1 0 0 0 19 6h-4.34a1 1 0 1 0 0 2z" fill="currentColor"></path>
  </symbol>
  <symbol viewBox="0 0 24 24" fill="none" xmlns="http://www.w3.org/2000/svg" id="objects-glass-martini-alt">
    <path d="M21.78 3.62A1 1 0 0 0 21 2H3a1 1 0 0 0-.78 1.62L11 14.6V20H5.25a1 1 0 0 0 0 2h13.5a1 1 0 0 0 0-2H13v-5.4l8.78-10.98zM5.08 4h13.84l-2.4 3h-9L5.08 4zM12 12.65L9.08 9h5.84L12 12.65z" fill="currentColor"></path>
  </symbol>
  <symbol viewBox="0 0 24 24" fill="none" xmlns="http://www.w3.org/2000/svg" id="objects-glass-martini">
    <path d="M18 20h-5v-5.06A9 9 0 0 0 21 6a8.721 8.721 0 0 0-.67-3.39 1 1 0 0 0-.22-.32L20 2.21a.92.92 0 0 0-.21-.13.94.94 0 0 0-.28-.08H4.5a.94.94 0 0 0-.29.06A2.12 2.12 0 0 0 4 2.2l-.12.09a1 1 0 0 0-.22.32A8.72 8.72 0 0 0 3 6a9 9 0 0 0 8 8.94V20H6a1 1 0 0 0 0 2h12a1 1 0 0 0 0-2zM5 6a6.91 6.91 0 0 1 .29-2h13.42A7 7 0 1 1 5 6z" fill="currentColor"></path>
  </symbol>
  <symbol viewBox="0 0 24 24" fill="none" xmlns="http://www.w3.org/2000/svg" id="objects-football">
    <path d="M20.07 6.11a9.85 9.85 0 0 0-4.3-3.36A10 10 0 0 0 2 12v.56A9.94 9.94 0 0 0 3.33 17a10 10 0 0 0 5.89 4.65c.906.245 1.842.363 2.78.35a10 10 0 0 0 9.88-8.59c.075-.467.115-.938.12-1.41a9.83 9.83 0 0 0-1.93-5.89zm-2 .77L17 9.74l-1.62.44L13 8.49V6.64l2.49-1.81a7.81 7.81 0 0 1 2.62 2.05h-.04zM14 11.67L13.22 14h-2.45L10 11.67l2-1.43 2 1.43zM12 4a8 8 0 0 1 1.11.09l-1.11.8-1.11-.8A8 8 0 0 1 12 4zM4.88 8.37l.4 1.32-1.13.79a7.88 7.88 0 0 1 .73-2.11zm1.37 9.17l1.38.05.37 1.33a8.319 8.319 0 0 1-1.75-1.38zM8 15.6l-3.15-.11A7.83 7.83 0 0 1 4.07 13l2.49-1.74 1.44.62.89 2.76-.89.96zm.86-5.53l-1.56-.7-.91-3A7.93 7.93 0 0 1 8.5 4.83L11 6.64v1.85l-2.14 1.58zM13 19.93a8.082 8.082 0 0 1-2.63-.12l-.83-2.92.83-.89h3.07l.67 1L13 19.93zm2.41-.7l.46-1.23 1.36.07a7.832 7.832 0 0 1-1.85 1.16h.03zm3.46-3.12L15.76 16l-.71-1.1.89-2.76 1.51-.41 2.36 2a7.839 7.839 0 0 1-.97 2.38h.03zm.05-5.83L19.4 9c.282.68.46 1.397.53 2.13l-1.01-.85z" fill="currentColor"></path>
  </symbol>
  <symbol viewBox="0 0 24 24" fill="none" xmlns="http://www.w3.org/2000/svg" id="objects-flower">
    <path d="M19.68 6.88a4.4 4.4 0 0 0-3.31-.32 4.37 4.37 0 0 0-8.73 0 4.48 4.48 0 0 0-3.31.29 4.37 4.37 0 0 0 .61 8 4.4 4.4 0 0 0-.8 2.5 5 5 0 0 0 .07.75 4.34 4.34 0 0 0 4.29 3.63c.213.015.427.015.64 0A4.42 4.42 0 0 0 12 20a4.42 4.42 0 0 0 2.86 1.69c.213.015.427.015.64 0a4.36 4.36 0 0 0 3.56-6.87 4.36 4.36 0 0 0 .62-8v.06zm-9.34-1.94a2.4 2.4 0 0 1 3.32 0 2.43 2.43 0 0 1 .52 2.66l-.26.59-.66.58A4.07 4.07 0 0 0 12 8.55a4 4 0 0 0-1.61.34L9.83 7.6a2.39 2.39 0 0 1 .51-2.66zm-6.1 6.84A2.37 2.37 0 0 1 7.94 9l.49.43.35.8A3.92 3.92 0 0 0 8 12.55c-.012.15-.012.3 0 .45h-.55l-.84.08a2.37 2.37 0 0 1-2.37-1.3zm6.6 6.08a2.38 2.38 0 0 1-4.66-.08 3.07 3.07 0 0 1 0-.42 2.33 2.33 0 0 1 1.17-2l.51-.36.91-.1a4 4 0 0 0 2.38 1.57l-.31 1.39zM12 14.55a2 2 0 1 1 0-4 2 2 0 0 1 0 4zm5.82 3.22a2.36 2.36 0 0 1-2.68 1.94 2.39 2.39 0 0 1-2-1.85l-.14-.6.21-.92a4 4 0 0 0 2.2-1.76l.5.3H16l.66.39a2.38 2.38 0 0 1 1.16 2.5zm1.94-6a2.39 2.39 0 0 1-2.13 1.33h-.24l-.64-.1-.75-.41a4 4 0 0 0-1-2.64l.43-.37.63-.58a2.37 2.37 0 0 1 3.7 2.82v-.05z" fill="currentColor"></path>
  </symbol>
  <symbol viewBox="0 0 24 24" fill="none" xmlns="http://www.w3.org/2000/svg" id="objects-fire">
    <path d="M8.468 8.395l-.002.002-.003.002.005-.004zm9.954-.187a1.238 1.238 0 0 0-.23-.175 1 1 0 0 0-1.4.412 5.782 5.782 0 0 1-1.398 1.777 8.714 8.714 0 0 0-4.267-9.092 1 1 0 0 0-1.49.806 7.017 7.017 0 0 1-2.472 4.942l-.23.188a8.513 8.513 0 0 0-1.988 1.862 8.983 8.983 0 0 0 3.656 13.908 1 1 0 0 0 1.327-1.238 6.977 6.977 0 0 1-.19-2.581 9.004 9.004 0 0 0 4.313 4.016c.225.101.48.115.715.038a8.994 8.994 0 0 0 3.654-14.863zM14.517 21.04a6.964 6.964 0 0 1-3.577-4.402 8.93 8.93 0 0 1-.18-.964 1 1 0 0 0-1.857-.362 8.959 8.959 0 0 0-1.205 4.718 6.986 6.986 0 0 1-1.176-9.869 6.555 6.555 0 0 1 1.562-1.458.745.745 0 0 0 .075-.054s.296-.246.306-.251a8.967 8.967 0 0 0 2.9-4.633 6.736 6.736 0 0 1 1.386 8.088.999.999 0 0 0 1.183 1.418 7.856 7.856 0 0 0 3.862-2.688 7.002 7.002 0 0 1-3.279 10.457z" fill="currentColor"></path>
  </symbol>
  <symbol viewBox="0 0 24 24" fill="none" xmlns="http://www.w3.org/2000/svg" id="objects-wheelchair-alt">
    <path d="M20 16.18V16a3 3 0 0 0-2-2.82V7h1a1 1 0 1 0 0-2H7a3 3 0 0 0-3-3H3a1 1 0 0 0 0 2h1a1 1 0 0 1 1 1v7.42A5 5 0 1 0 11.58 15H17a1 1 0 0 1 1 1v.18a3 3 0 1 0 2 0zM7 20a3 3 0 1 1 0-6 3 3 0 0 1 0 6zm9-7h-6a4.93 4.93 0 0 0-3-1v-1h9v2zm0-4H7V7h9v2zm3 11a1 1 0 1 1 0-2 1 1 0 0 1 0 2zM7 16a1 1 0 1 0 0 2 1 1 0 0 0 0-2z" fill="currentColor"></path>
  </symbol>
  <symbol viewBox="0 0 24 24" fill="none" xmlns="http://www.w3.org/2000/svg" id="objects-constructor">
    <path d="M20 9.67V9.5a7.95 7.95 0 0 0-5.59-7.62h-.06a8.32 8.32 0 0 0-2.59-.36A8.21 8.21 0 0 0 4 9.67a3 3 0 0 0 0 5.66 8 8 0 0 0 8 7.17h.23a8.13 8.13 0 0 0 7.68-7.16A3 3 0 0 0 20 9.67zM12.18 20.5a6 6 0 0 1-6.09-5h11.77a6.09 6.09 0 0 1-5.68 5zm6.82-7H5a1 1 0 0 1 0-2h2a1 1 0 0 0 0-2H6a6.4 6.4 0 0 1 3-5.15V7.5a1 1 0 0 0 2 0V3.59c.271-.045.545-.075.82-.09H12c.335.005.67.035 1 .09V7.5a1 1 0 0 0 2 0V4.32c.424.246.82.538 1.18.87A5.999 5.999 0 0 1 18 9.5h-1a1 1 0 1 0 0 2h2a1 1 0 1 1 0 2z" fill="currentColor"></path>
  </symbol>
  <symbol viewBox="0 0 24 24" fill="none" xmlns="http://www.w3.org/2000/svg" id="objects-mailbox">
    <path d="M8 12h2a1 1 0 0 0 0-2H8a1 1 0 0 0 0 2zm9-6h-5V4h1a1 1 0 1 0 0-2h-2a1 1 0 0 0-1 1v3H7a4 4 0 0 0-4 4v6a1 1 0 0 0 1 1h6v4a1 1 0 0 0 2 0v-4h8a1 1 0 0 0 1-1v-6a4 4 0 0 0-4-4zm-4 4v5H5v-5a2 2 0 0 1 2-2h6.56a3.91 3.91 0 0 0-.56 2zm6 5h-4v-5a2 2 0 1 1 4 0v5z" fill="currentColor"></path>
  </symbol>
  <symbol viewBox="0 0 24 24" fill="none" xmlns="http://www.w3.org/2000/svg" id="objects-award-alt">
    <path d="M12 1a7 7 0 0 0-5 11.89V22a1 1 0 0 0 1.45.89L12 21.12l3.55 1.77a1 1 0 0 0 .98-.04A1 1 0 0 0 17 22v-9.11A7 7 0 0 0 12 1zm3 19.38l-2.55-1.27a1 1 0 0 0-.9 0L9 20.38v-6.06a7 7 0 0 0 2 .6V16a1 1 0 0 0 2 0v-1.08a7 7 0 0 0 2-.6v6.06zM12 13a5 5 0 1 1 0-9.999A5 5 0 0 1 12 13z" fill="currentColor"></path>
  </symbol>
  <symbol viewBox="0 0 24 24" fill="none" xmlns="http://www.w3.org/2000/svg" id="objects-award">
    <path d="M20.87 17.25l-2.71-4.68A7 7 0 1 0 5 9.25a6.9 6.9 0 0 0 .84 3.32l-2.71 4.68a1 1 0 0 0 .87 1.5h2.87l1.46 2.46c.05.081.11.156.18.22a1 1 0 0 0 .69.28h.14a1 1 0 0 0 .73-.49L12 17.9l1.93 3.35a1 1 0 0 0 .73.48h.14a1 1 0 0 0 .7-.28.87.87 0 0 0 .17-.21l1.46-2.46H20a1 1 0 0 0 .87-.5 1 1 0 0 0 0-1.03zM9.19 18.78l-.89-1.49a1 1 0 0 0-.85-.49H5.72l1.43-2.48a7 7 0 0 0 3.57 1.84l-1.53 2.62zM12 14.25a5 5 0 1 1 0-9.999 5 5 0 0 1 0 9.999zm4.55 2.55a1 1 0 0 0-.85.49l-.89 1.49-1.52-2.65a7.06 7.06 0 0 0 3.56-1.84l1.43 2.48-1.73.03z" fill="currentColor"></path>
  </symbol>
  <symbol viewBox="0 0 24 24" fill="none" xmlns="http://www.w3.org/2000/svg" id="objects-medal">
    <path d="M21.38 5.76a1 1 0 0 0-.47-.61l-5.2-3a1 1 0 0 0-1.37.36L12 6.57 9.66 2.51a1 1 0 0 0-1.37-.36l-5.2 3a1 1 0 0 0-.47.61 1 1 0 0 0 .1.75l4 6.83A5.91 5.91 0 0 0 6 16a6 6 0 1 0 11.34-2.72l3.9-6.76a1 1 0 0 0 .14-.76zM5 6.38l3.46-2L11.68 10A5.94 5.94 0 0 0 8 11.58l-3-5.2zM12 20a4 4 0 1 1 0-8 4 4 0 0 1 0 8zm4-8.45a5.9 5.9 0 0 0-1.86-1.15l-.98-1.83 2.42-4.19 3.46 2L16 11.55z" fill="currentColor"></path>
  </symbol>
  <symbol viewBox="0 0 24 24" fill="none" xmlns="http://www.w3.org/2000/svg" id="objects-book-medical">
    <path d="M13 9h-2V7a1 1 0 0 0-2 0v2H7a1 1 0 0 0 0 2h2v2a1 1 0 1 0 2 0v-2h2a1 1 0 0 0 0-2zm5 6V5a3 3 0 0 0-3-3H5a3 3 0 0 0-3 3v10a3 3 0 0 0 3 3h10a3 3 0 0 0 3-3zM4 15V5a1 1 0 0 1 1-1h10a1 1 0 0 1 1 1v10a1 1 0 0 1-1 1H5a1 1 0 0 1-1-1zm17-9a1 1 0 0 0-1 1v10a3 3 0 0 1-3 3H7a1 1 0 0 0 0 2h10a5 5 0 0 0 5-5V7a1 1 0 0 0-1-1z" fill="currentColor"></path>
  </symbol>
  <symbol viewBox="0 0 24 24" fill="none" xmlns="http://www.w3.org/2000/svg" id="objects-hourglass">
    <path d="M18.992 21.002h-1v-1.667a4.998 4.998 0 0 0-.3-1.678.956.956 0 0 0-.036-.084 4.976 4.976 0 0 0-.664-1.237l-1.4-1.867a3.019 3.019 0 0 1-.6-1.801v-1.01a3.021 3.021 0 0 1 .878-2.12l.657-.658a4.945 4.945 0 0 0 1.397-2.839c0-.013.008-.025.008-.04l-.003-.013c.035-.213.056-.428.063-.643V3.002h1a1 1 0 1 0 0-2h-14a1 1 0 0 0 0 2h1v2.343c.007.215.028.43.063.643l-.003.014c0 .014.007.026.008.04A4.946 4.946 0 0 0 7.456 8.88l.657.657c.56.564.876 1.326.879 2.121v1.01a3.022 3.022 0 0 1-.6 1.8l-1.4 1.868a4.983 4.983 0 0 0-.665 1.237.968.968 0 0 0-.036.084 5.003 5.003 0 0 0-.3 1.678v1.667h-1a1 1 0 1 0 0 2h14a1 1 0 0 0 0-2zm-11-16v-2h8v2h-8zm.878 2.464a2.97 2.97 0 0 1-.377-.464h6.997a2.97 2.97 0 0 1-.377.464l-.657.657a4.96 4.96 0 0 0-1.422 2.879H10.95a4.96 4.96 0 0 0-1.422-2.88l-.657-.656zm1.122 8.202c.579-.775.922-1.7.988-2.666h2.023c.066.965.41 1.89.989 2.666l1 1.334h-6l1-1.334zm6 5.334h-8v-1.667c.002-.111.012-.223.027-.333h7.945c.016.11.025.222.028.333v1.667z" fill="currentColor"></path>
  </symbol>
  <symbol viewBox="0 0 24 24" fill="none" xmlns="http://www.w3.org/2000/svg" id="objects-heart">
    <path d="M20.16 5A6.29 6.29 0 0 0 12 4.36a6.27 6.27 0 0 0-8.16 9.48l6.21 6.22a2.78 2.78 0 0 0 3.9 0l6.21-6.22a6.27 6.27 0 0 0 0-8.84zm-1.41 7.46l-6.21 6.21a.76.76 0 0 1-1.08 0l-6.21-6.24a4.29 4.29 0 0 1 0-6 4.27 4.27 0 0 1 6 0 1.001 1.001 0 0 0 1.42 0 4.27 4.27 0 0 1 6 0 4.29 4.29 0 0 1 .08 6v.03z" fill="currentColor"></path>
  </symbol>
  <symbol viewBox="0 0 24 24" fill="none" xmlns="http://www.w3.org/2000/svg" id="objects-heart-medical">
    <path d="M14 11h-1v-1a1 1 0 0 0-2 0v1h-1a1 1 0 1 0 0 2h1v1a1 1 0 0 0 2 0v-1h1a1 1 0 0 0 0-2zm6.16-6A6.29 6.29 0 0 0 12 4.41a6.27 6.27 0 0 0-8.16 9.48l6 6.05a3 3 0 0 0 4.24 0l6-6.05A6.27 6.27 0 0 0 20.16 5zm-1.41 7.46l-6 6a1.002 1.002 0 0 1-1.42 0l-6-6a4.29 4.29 0 0 1 0-6 4.27 4.27 0 0 1 6 0 1 1 0 0 0 1.42 0 4.27 4.27 0 0 1 6 0 4.29 4.29 0 0 1 0 6.02v-.02z" fill="currentColor"></path>
  </symbol>
  <symbol viewBox="0 0 24 24" fill="none" xmlns="http://www.w3.org/2000/svg" id="objects-favorite">
    <path d="M22 9.67a1 1 0 0 0-.86-.67l-5.69-.83L12.9 3a1 1 0 0 0-1.8 0L8.55 8.16 2.86 9a1 1 0 0 0-.81.68 1 1 0 0 0 .25 1l4.13 4-1 5.68a1 1 0 0 0 1.47 1.08l5.1-2.67 5.1 2.67c.14.079.299.12.46.12a1 1 0 0 0 .936-.632 1 1 0 0 0 .054-.558l-1-5.68 4.13-4A1 1 0 0 0 22 9.67zm-6.15 4a1 1 0 0 0-.29.88l.72 4.2-3.76-2a1.06 1.06 0 0 0-.94 0l-3.76 2 .72-4.2a1 1 0 0 0-.29-.88l-3-3 4.21-.61a1 1 0 0 0 .76-.55L12 5.7l1.88 3.82a1 1 0 0 0 .76.55l4.21.61-3 2.99z" fill="currentColor"></path>
  </symbol>
  <symbol viewBox="0 0 24 24" fill="none" xmlns="http://www.w3.org/2000/svg" id="objects-book-reader">
    <path d="M20.18 10.19c-.72-.13-1.449-.194-2.18-.19-.42 0-.83 0-1.24.08a5.91 5.91 0 0 0-1.91-1.65 3.81 3.81 0 0 0 1-2.57 3.86 3.86 0 0 0-7.72 0 3.81 3.81 0 0 0 1 2.57 6.11 6.11 0 0 0-1.91 1.64C6.83 10 6.42 10 6 10c-.732.003-1.461.073-2.18.21a1 1 0 0 0-.82 1v8.25a1 1 0 0 0 .745.971 1 1 0 0 0 .435.019A9.752 9.752 0 0 1 6 20.23a9.89 9.89 0 0 1 5.45 1.63l.13.05c.133.058.275.088.42.09a.871.871 0 0 0 .28-.05h.07l.13-.05A9.89 9.89 0 0 1 18 20.23c.611.003 1.22.063 1.82.18a1 1 0 0 0 .82-.22 1 1 0 0 0 .36-.77v-8.25a1 1 0 0 0-.82-.98zM12 4a1.86 1.86 0 0 1 0 3.71A1.86 1.86 0 0 1 12 4zm-1 15.33a11.92 11.92 0 0 0-5-1.1c-.33 0-.66 0-1 .05V12a9.63 9.63 0 0 1 2.52.05h.11A10 10 0 0 1 11 13.33v6zm1-7.73a11.773 11.773 0 0 0-1.38-.68h-.06c-.33-.13-.66-.26-1-.36A4 4 0 0 1 12 9.69a4 4 0 0 1 2.44.85A12.43 12.43 0 0 0 12 11.6zm7 6.68a11.6 11.6 0 0 0-6 1v-6a9.761 9.761 0 0 1 3.37-1.22h.2A9.389 9.389 0 0 1 19 12v6.28z" fill="currentColor"></path>
  </symbol>
  <symbol viewBox="0 0 24 24" fill="none" xmlns="http://www.w3.org/2000/svg" id="objects-heart-alt">
    <path d="M20.16 5.00004C19.1 3.93725 17.6948 3.28858 16.1984 3.17121C14.7019 3.05384 13.2128 3.47551 12 4.36004C10.7277 3.41368 9.14402 2.98455 7.56795 3.15908C5.99188 3.33361 4.54047 4.09882 3.506 5.30063C2.47154 6.50244 1.93085 8.05156 1.99283 9.63606C2.05481 11.2206 2.71485 12.7227 3.84003 13.84L10.05 20.06C10.57 20.5718 11.2704 20.8587 12 20.8587C12.7296 20.8587 13.43 20.5718 13.95 20.06L20.16 13.84C21.3276 12.6653 21.983 11.0763 21.983 9.42004C21.983 7.76377 21.3276 6.17478 20.16 5.00004Z" fill="currentColor" />
  </symbol>
  <symbol viewBox="0 0 24 24" fill="none" xmlns="http://www.w3.org/2000/svg" id="objects-crosshairs">
    <path d="M21 11H19.93C19.7068 9.23998 18.9049 7.60408 17.6504 6.34959C16.3959 5.0951 14.76 4.29319 13 4.07V3C13 2.73478 12.8946 2.48043 12.7071 2.29289C12.5196 2.10536 12.2652 2 12 2C11.7348 2 11.4804 2.10536 11.2929 2.29289C11.1054 2.48043 11 2.73478 11 3V4.07C9.23998 4.29319 7.60408 5.0951 6.34959 6.34959C5.0951 7.60408 4.29319 9.23998 4.07 11H3C2.73478 11 2.48043 11.1054 2.29289 11.2929C2.10536 11.4804 2 11.7348 2 12C2 12.2652 2.10536 12.5196 2.29289 12.7071C2.48043 12.8946 2.73478 13 3 13H4.07C4.29319 14.76 5.0951 16.3959 6.34959 17.6504C7.60408 18.9049 9.23998 19.7068 11 19.93V21C11 21.2652 11.1054 21.5196 11.2929 21.7071C11.4804 21.8946 11.7348 22 12 22C12.2652 22 12.5196 21.8946 12.7071 21.7071C12.8946 21.5196 13 21.2652 13 21V19.93C14.76 19.7068 16.3959 18.9049 17.6504 17.6504C18.9049 16.3959 19.7068 14.76 19.93 13H21C21.2652 13 21.5196 12.8946 21.7071 12.7071C21.8946 12.5196 22 12.2652 22 12C22 11.7348 21.8946 11.4804 21.7071 11.2929C21.5196 11.1054 21.2652 11 21 11ZM12 18C10.8133 18 9.65327 17.6481 8.66658 16.9888C7.67988 16.3295 6.91085 15.3925 6.45672 14.2961C6.0026 13.1997 5.88378 11.9933 6.11529 10.8295C6.3468 9.66557 6.91824 8.59647 7.75736 7.75736C8.59647 6.91824 9.66557 6.3468 10.8295 6.11529C11.9933 5.88378 13.1997 6.0026 14.2961 6.45672C15.3925 6.91085 16.3295 7.67988 16.9888 8.66658C17.6481 9.65327 18 10.8133 18 12C18 13.5913 17.3679 15.1174 16.2426 16.2426C15.1174 17.3679 13.5913 18 12 18ZM12 9C11.4067 9 10.8266 9.17595 10.3333 9.50559C9.83994 9.83524 9.45542 10.3038 9.22836 10.8519C9.0013 11.4001 8.94189 12.0033 9.05764 12.5853C9.1734 13.1672 9.45912 13.7018 9.87868 14.1213C10.2982 14.5409 10.8328 14.8266 11.4147 14.9424C11.9967 15.0581 12.5999 14.9987 13.1481 14.7716C13.6962 14.5446 14.1648 14.1601 14.4944 13.6667C14.8241 13.1734 15 12.5933 15 12C15 11.2044 14.6839 10.4413 14.1213 9.87868C13.5587 9.31607 12.7956 9 12 9ZM12 13C11.8022 13 11.6089 12.9414 11.4444 12.8315C11.28 12.7216 11.1518 12.5654 11.0761 12.3827C11.0004 12.2 10.9806 11.9989 11.0192 11.8049C11.0578 11.6109 11.153 11.4327 11.2929 11.2929C11.4327 11.153 11.6109 11.0578 11.8049 11.0192C11.9989 10.9806 12.2 11.0004 12.3827 11.0761C12.5654 11.1518 12.7216 11.28 12.8315 11.4444C12.9414 11.6089 13 11.8022 13 12C13 12.2652 12.8946 12.5196 12.7071 12.7071C12.5196 12.8946 12.2652 13 12 13Z" fill="currentColor"></path>
  </symbol>
</svg>
