<svg width="0" height="0" class="hidden">
  <symbol viewBox="0 0 24 24" fill="none" xmlns="http://www.w3.org/2000/svg" id="tech-window">
    <path d="M10 5a1 1 0 1 0 0 2 1 1 0 0 0 0-2zM6 5a1 1 0 1 0 0 2 1 1 0 0 0 0-2zm8 0a1 1 0 1 0 0 2 1 1 0 0 0 0-2zm6-4H4a3 3 0 0 0-3 3v16a3 3 0 0 0 3 3h16a3 3 0 0 0 3-3V4a3 3 0 0 0-3-3zm1 19a1 1 0 0 1-1 1H4a1 1 0 0 1-1-1v-9h18v9zm0-11H3V4a1 1 0 0 1 1-1h16a1 1 0 0 1 1 1v5z" fill="currentColor"></path>
  </symbol>
  <symbol viewBox="0 0 24 24" fill="none" xmlns="http://www.w3.org/2000/svg" id="tech-at">
    <path d="M12 2a10 10 0 1 0 5 18.66 1 1 0 1 0-1-1.73A8 8 0 1 1 20 12v.75a1.75 1.75 0 0 1-3.5 0V8.5a1 1 0 0 0-1-1 1 1 0 0 0-1 .79A4.45 4.45 0 0 0 12 7.5a4.5 4.5 0 1 0 3.3 7.5 3.74 3.74 0 0 0 6.7-2.25V12A10 10 0 0 0 12 2zm0 12.5a2.5 2.5 0 1 1 0-5 2.5 2.5 0 0 1 0 5z" fill="currentColor"></path>
  </symbol>
  <symbol viewBox="0 0 24 24" fill="none" xmlns="http://www.w3.org/2000/svg" id="tech-wifi-router">
    <path d="M8.9 17a1 1 0 1 0 0 2 1 1 0 0 0 0-2zm-3 0a1 1 0 1 0 0 2 1 1 0 0 0 0-2zm6 0a1 1 0 1 0 0 2 1 1 0 0 0 0-2zM15 8.5a1 1 0 0 1 1.73 0 1 1 0 0 0 1.36.37 1 1 0 0 0 .41-1.37 3 3 0 0 0-5.2 0 1 1 0 0 0 1.7 1zm7-3a7 7 0 0 0-12.12 0A1 1 0 0 0 10.7 7a1 1 0 0 0 .87-.5 5 5 0 0 1 8.66 0 1 1 0 0 0 1.37.37A1 1 0 0 0 22 5.5zM17.9 14h-1v-3a1 1 0 0 0-2 0v3h-10a3 3 0 0 0-3 3v2a3 3 0 0 0 3 3h13a3 3 0 0 0 3-3v-2a3 3 0 0 0-3-3zm1 5a1 1 0 0 1-1 1h-13a1 1 0 0 1-1-1v-2a1 1 0 0 1 1-1h13a1 1 0 0 1 1 1v2z" fill="currentColor"></path>
  </symbol>
  <symbol viewBox="0 0 24 24" fill="none" xmlns="http://www.w3.org/2000/svg" id="tech-wifi-slash">
    <path d="M6.92 5.51L3.71 2.29a1.004 1.004 0 1 0-1.42 1.42L4.56 6A15.21 15.21 0 0 0 1.4 8.39a1 1 0 0 0 0 1.41 1 1 0 0 0 .71.3 1 1 0 0 0 .7-.29 13.07 13.07 0 0 1 3.24-2.35L7.54 9a10.78 10.78 0 0 0-3.32 2.27 1 1 0 1 0 1.42 1.4 8.8 8.8 0 0 1 3.45-2.12l1.62 1.61a7.07 7.07 0 0 0-3.66 1.94 1 1 0 1 0 1.42 1.4A5 5 0 0 1 12 14c.211 0 .422.018.63.05l7.66 7.66a1.002 1.002 0 0 0 1.639-.325 1 1 0 0 0-.219-1.095L6.92 5.51zM12 16a3 3 0 1 0 0 6 3 3 0 0 0 0-6zm0 4a1 1 0 1 1 0-2 1 1 0 0 1 0 2zM22.61 8.39A15 15 0 0 0 10.29 4.1a1.006 1.006 0 1 0 .22 2A13.07 13.07 0 0 1 21.2 9.81a1 1 0 1 0 1.41-1.42zm-4.25 4.24a1 1 0 0 0 1.42-1.4 10.75 10.75 0 0 0-4.84-2.82 1 1 0 1 0-.52 1.92 8.94 8.94 0 0 1 3.94 2.3z" fill="currentColor"></path>
  </symbol>
  <symbol viewBox="0 0 24 24" fill="none" xmlns="http://www.w3.org/2000/svg" id="tech-wifi">
    <path d="M12 15a3 3 0 1 0 0 5.999A3 3 0 0 0 12 15zm0 4a1 1 0 1 1 0-2 1 1 0 0 1 0 2zm0-8a7.06 7.06 0 0 0-4.95 2.05 1 1 0 0 0 0 1.41 1 1 0 0 0 1.41 0 5 5 0 0 1 7.08 0 1 1 0 0 0 .7.3 1 1 0 0 0 .76-1.71A7.061 7.061 0 0 0 12 11zm0-4a11.08 11.08 0 0 0-7.78 3.22 1.004 1.004 0 1 0 1.42 1.42 9 9 0 0 1 12.72 0 1 1 0 0 0 .71.29 1 1 0 0 0 .71-1.71A11.08 11.08 0 0 0 12 7zm10.61.39a15 15 0 0 0-21.22 0 1.004 1.004 0 1 0 1.42 1.42 13 13 0 0 1 18.38 0 1 1 0 0 0 1.639-.325 1 1 0 0 0-.219-1.095z" fill="currentColor"></path>
  </symbol>
  <symbol viewBox="0 0 24 24" fill="none" xmlns="http://www.w3.org/2000/svg" id="tech-database-alt">
    <path d="M8 17a1 1 0 1 0 0 2 1 1 0 0 0 0-2zm0-6a1 1 0 1 0 0 2 1 1 0 0 0 0-2zm8-9H8a4 4 0 0 0-4 4v12a4 4 0 0 0 4 4h8a4 4 0 0 0 4-4V6a4 4 0 0 0-4-4zm2 16a2 2 0 0 1-2 2H8a2 2 0 0 1-2-2v-2.56A3.91 3.91 0 0 0 8 16h8a3.91 3.91 0 0 0 2-.56V18zm0-6a2 2 0 0 1-2 2H8a2 2 0 0 1-2-2V9.44A3.91 3.91 0 0 0 8 10h8a3.91 3.91 0 0 0 2-.56V12zm-2-4H8a2 2 0 1 1 0-4h8a2 2 0 0 1 0 4z" fill="currentColor"></path>
  </symbol>
</svg>