<svg width="0" height="0" class="hidden">
  <symbol viewBox="0 0 24 24" fill="none" xmlns="http://www.w3.org/2000/svg" id="weather-umbrella">
    <path d="M21 11.24a.22.22 0 0 1 0-.08v-.19c0-.23-.06-.46-.1-.69a.75.75 0 0 1 0-.16c-.05-.25-.12-.49-.19-.73a8.91 8.91 0 0 0-5.86-5.87h-.08c-.22-.07-.45-.13-.68-.18h-.18a5.212 5.212 0 0 0-.55-.08h-.24V3a1 1 0 0 0-2 0v.06c-.337.04-.67.1-1 .18a4.71 4.71 0 0 0-.62.16h-.13c-.25.08-.48.17-.72.26a8.93 8.93 0 0 0-5.23 5.62.31.31 0 0 0 0 .08 6.38 6.38 0 0 0-.19.72v.16c-.053.24-.093.49-.12.75V12a1 1 0 0 0 1 1h7v6a1 1 0 0 1-2 0 1 1 0 1 0-2 0 3 3 0 0 0 6 0v-6h7a1 1 0 0 0 1-1c-.11-.26-.11-.51-.11-.76zM8 11H5.08v-.11c0-.04 0-.28.08-.41.08-.13 0-.13 0-.19s.08-.32.13-.48v-.08A7 7 0 0 1 9.1 5.64 16.09 16.09 0 0 0 8 11zm2 0c.19-3.91 1.44-6 2-6s1.79 2.09 2 6h-4zm6 0a16.091 16.091 0 0 0-1.1-5.36 7 7 0 0 1 3.73 4.12c.06.174.11.35.15.53a.835.835 0 0 0 0 .15c0 .14.06.29.08.43.02.14 0 .07 0 .11L16 11z" fill="currentColor"></path>
  </symbol>
  <symbol viewBox="0 0 24 24" fill="none" xmlns="http://www.w3.org/2000/svg" id="weather-moon">
    <path d="M21.64 13a1 1 0 0 0-1.05-.14 8.052 8.052 0 0 1-3.37.73 8.15 8.15 0 0 1-8.14-8.1 8.59 8.59 0 0 1 .25-2A1 1 0 0 0 8 2.36a10.14 10.14 0 1 0 14 11.69 1 1 0 0 0-.36-1.05zm-9.5 6.69A8.14 8.14 0 0 1 7.08 5.22v.27a10.15 10.15 0 0 0 12.24 9.92 8.11 8.11 0 0 1-7.18 4.32v-.04z" fill="currentColor"></path>
  </symbol>
  <symbol viewBox="0 0 24 24" fill="none" xmlns="http://www.w3.org/2000/svg" id="weather-sun">
    <path d="M5.64 17l-.71.71a1 1 0 0 0 0 1.41 1 1 0 0 0 1.41 0l.71-.71A1 1 0 0 0 5.64 17zM5 12a1 1 0 0 0-1-1H3a1 1 0 0 0 0 2h1a1 1 0 0 0 1-1zm7-7a1 1 0 0 0 1-1V3a1 1 0 0 0-2 0v1a1 1 0 0 0 1 1zM5.64 7.05a1 1 0 0 0 1.41 0 1 1 0 0 0 0-1.41l-.71-.71a1 1 0 0 0-1.41 1.41l.71.71zm12 .29a1 1 0 0 0 .7-.29l.71-.71a1 1 0 1 0-1.41-1.41l-.64.71a1 1 0 0 0 0 1.41 1 1 0 0 0 .66.29h-.02zM21 11h-1a1 1 0 0 0 0 2h1a1 1 0 0 0 0-2zm-9 8a1 1 0 0 0-1 1v1a1 1 0 0 0 2 0v-1a1 1 0 0 0-1-1zm6.36-2A1 1 0 0 0 17 18.36l.71.71a1 1 0 0 0 1.41 0 1 1 0 0 0 0-1.41l-.76-.66zM12 6.5a5.5 5.5 0 1 0 5.5 5.5A5.51 5.51 0 0 0 12 6.5zm0 9a3.5 3.5 0 1 1 0-7 3.5 3.5 0 0 1 0 7z" fill="currentColor"></path>
  </symbol>
</svg>