<svg width="145" height="144" viewBox="0 0 145 144" fill="none" xmlns="http://www.w3.org/2000/svg">
<ellipse cx="72.4227" cy="80.8798" rx="62.9508" ry="63.12" fill="#E3F7EA"/>
<path d="M91.9755 26.3564L79.83 38.5301L75.1587 33.8588C74.9049 33.5624 74.5926 33.3217 74.2414 33.1518C73.8901 32.9819 73.5076 32.8864 73.1177 32.8713C72.7278 32.8563 72.339 32.922 71.9757 33.0643C71.6124 33.2066 71.2824 33.4225 71.0065 33.6984C70.7306 33.9743 70.5147 34.3043 70.3724 34.6676C70.23 35.0309 70.1643 35.4197 70.1794 35.8096C70.1945 36.1995 70.29 36.5821 70.4599 36.9333C70.6298 37.2845 70.8705 37.5969 71.1669 37.8507L77.82 44.5321C78.0845 44.7944 78.3982 45.002 78.7432 45.1429C79.0881 45.2838 79.4575 45.3552 79.83 45.3531C80.5728 45.3499 81.2845 45.0551 81.8118 44.5321L95.9673 30.3766C96.2327 30.1134 96.4433 29.8003 96.587 29.4553C96.7307 29.1103 96.8047 28.7402 96.8047 28.3665C96.8047 27.9927 96.7307 27.6227 96.587 27.2777C96.4433 26.9327 96.2327 26.6196 95.9673 26.3564C95.4369 25.8291 94.7193 25.5331 93.9714 25.5331C93.2234 25.5331 92.5059 25.8291 91.9755 26.3564ZM84.2749 7.13324C78.6755 7.13324 73.2018 8.79365 68.5461 11.9045C63.8904 15.0154 60.2617 19.4369 58.1189 24.6101C55.9761 29.7832 55.4155 35.4756 56.5079 40.9674C57.6003 46.4592 60.2966 51.5038 64.256 55.4631C68.2153 59.4225 73.2599 62.1188 78.7517 63.2112C84.2435 64.3036 89.9359 63.743 95.109 61.6002C100.282 59.4574 104.704 55.8287 107.815 51.173C110.925 46.5173 112.586 41.0436 112.586 35.4442C112.586 31.7264 111.854 28.0449 110.431 24.6101C109.008 21.1752 106.923 18.0543 104.294 15.4253C101.665 12.7964 98.5439 10.711 95.109 9.28829C91.6742 7.86553 87.9927 7.13324 84.2749 7.13324ZM84.2749 58.093C79.7954 58.093 75.4164 56.7647 71.6919 54.276C67.9673 51.7873 65.0643 48.2501 63.3501 44.1115C61.6359 39.973 61.1874 35.4191 62.0613 31.0257C62.9352 26.6322 65.0923 22.5966 68.2598 19.4291C71.4272 16.2616 75.4629 14.1045 79.8563 13.2306C84.2497 12.3567 88.8037 12.8052 92.9422 14.5195C97.0807 16.2337 100.618 19.1367 103.107 22.8612C105.595 26.5858 106.924 30.9647 106.924 35.4442C106.924 41.4511 104.537 47.2119 100.29 51.4593C96.0425 55.7068 90.2817 58.093 84.2749 58.093Z" fill="#00AC4A"/>
<g clip-path="url(#clip0)">
<path d="M115.178 64.2662C115.727 63.7397 111.281 62.6453 111.819 62.1239C112.168 61.7839 117.53 62.0096 117.891 61.6683L118.22 61.354L118.272 61.3051C118.777 60.8303 117.749 61.883 118.061 61.5241C118.314 61.2302 118.564 60.9407 118.792 60.6265C118.891 60.4827 118.991 60.3351 119.088 60.2032C119.186 60.0714 119.209 60.0064 119.267 59.9064C118.972 60.4422 118.888 60.588 119.017 60.3243C119.163 59.9807 119.328 59.6583 119.477 59.3028C119.536 59.1443 119.595 58.982 119.646 58.8205C119.898 58.0138 119.571 59.2413 119.611 58.984C119.666 58.6239 119.756 58.2674 119.799 57.9009C119.819 57.7354 119.83 57.5669 119.842 57.3985C119.892 56.5609 119.875 57.8532 119.863 57.5825C119.828 56.8224 119.722 56.067 119.549 55.326L119.807 56.2714C119.581 55.4445 119.251 54.6498 118.824 53.9064L119.311 54.7513C119.073 54.3482 118.808 53.9623 118.516 53.5964C118.366 53.4118 118.203 53.2443 118.045 53.0567C117.595 52.5301 118.728 53.6844 118.206 53.2089C117.442 52.5979 116.932 51.7254 116.774 50.7601C116.656 49.8163 116.906 48.8634 117.47 48.0981C118.62 46.6892 121.076 45.9868 122.581 47.362C125.819 50.327 127.57 54.5147 127.04 58.9298C126.759 61.0896 125.956 63.1484 124.7 64.9279C123.891 65.9815 122.979 66.9523 121.979 67.8261L119.706 69.9958C119.059 70.6115 117.824 70.8604 116.972 70.75C116.029 70.6209 115.171 70.1354 114.575 69.3933C113.331 67.661 113.699 65.6787 115.178 64.2701L115.178 64.2662Z" fill="#648CFF"/>
<path d="M123.792 33.489C123.458 36.8512 123.314 38.9863 122.982 42.3327L121.391 58.384L121.042 62.055C120.852 63.9583 118.851 65.5365 116.951 65.2024C115.999 65.0588 115.14 64.5528 114.554 63.7903C113.967 63.0277 113.698 62.0677 113.803 61.1114L114.8 51.0333C115.342 45.6802 115.675 41.5681 116.205 36.2164L116.554 32.5454C116.744 30.6421 118.748 29.0635 120.649 29.3976C121.6 29.5411 122.459 30.0471 123.046 30.8097C123.632 31.5722 123.901 32.5322 123.796 33.4886L123.792 33.489Z" fill="#648CFF"/>
<path d="M111.466 33.5085C112.273 36.3917 117.1 53.7505 117.1 53.7505C117.492 54.7814 117.694 55.8772 117.992 56.9385C118.265 57.9133 118.41 58.7515 118.011 59.7309C117.646 60.6277 116.94 61.343 116.049 61.7197C115.157 62.0963 114.152 62.1033 113.255 61.7393C112.434 61.3648 111.518 60.6825 111.265 59.7754L108.844 51.1182C107.558 46.5187 106.916 44.1214 105.63 39.5219L104.752 36.3322C104.479 35.3573 104.335 34.5191 104.734 33.5397C104.914 33.0955 105.179 32.6911 105.516 32.3497C105.852 32.0083 106.252 31.7365 106.694 31.55C107.135 31.3635 107.609 31.2659 108.088 31.2628C108.567 31.2596 109.042 31.351 109.486 31.5317C110.307 31.9063 111.223 32.5885 111.476 33.4957L111.466 33.5085Z" fill="#648CFF"/>
<path d="M120.803 48.4091L115.54 55.6732C115.266 56.0441 115.068 56.4653 114.957 56.9128C114.845 57.3602 114.823 57.8253 114.892 58.2812C114.96 58.7372 115.118 59.1752 115.356 59.5702C115.594 59.9653 115.907 60.3096 116.278 60.5836C116.649 60.8575 117.07 61.0558 117.517 61.1669C117.965 61.2781 118.43 61.3001 118.886 61.2316C119.342 61.163 119.78 61.0054 120.175 60.7676C120.57 60.5298 120.914 60.2165 121.188 59.8456L126.446 52.5743C126.72 52.2037 126.918 51.7827 127.03 51.3354C127.141 50.8882 127.163 50.4234 127.095 49.9676C127.027 49.5117 126.869 49.0739 126.632 48.6789C126.394 48.2839 126.081 47.9396 125.71 47.6656C125.34 47.3916 124.919 47.1933 124.472 47.082C124.024 46.9707 123.559 46.9486 123.104 47.0169C122.648 47.0852 122.21 47.2427 121.815 47.4802C121.42 47.7178 121.076 48.0308 120.802 48.4014L120.803 48.4091Z" fill="#648CFF"/>
<path fill-rule="evenodd" clip-rule="evenodd" d="M125.504 53.9058C125.677 54.0307 125.716 54.272 125.591 54.4448L121.504 60.0986L121.499 60.1057C120.878 60.9248 119.962 61.469 118.945 61.6222C117.929 61.7754 116.893 61.5254 116.058 60.9256L116.054 60.9226L116.054 60.9226C115.637 60.6142 115.287 60.2231 115.028 59.7737C114.921 59.589 114.985 59.3529 115.169 59.2464C115.354 59.1398 115.59 59.2031 115.697 59.3877C115.903 59.7444 116.18 60.055 116.511 60.3001C117.182 60.7813 118.014 60.9817 118.83 60.8587C119.646 60.7358 120.382 60.2995 120.881 59.6427L124.965 53.9925C125.09 53.8197 125.331 53.7809 125.504 53.9058Z" fill="black"/>
<path d="M113.433 62.4015L114.988 56.5339L115.469 54.7287C115.957 52.8838 114.961 50.6757 112.996 50.1898C111.123 49.7242 108.981 50.6581 108.457 52.6626L105.061 65.4964L104.583 67.3012C104.387 67.9918 104.398 68.7249 104.614 69.4095C104.831 70.0941 105.243 70.7002 105.801 71.1524C106.359 71.6047 107.037 71.8834 107.751 71.9538C108.466 72.0242 109.185 71.8834 109.821 71.5487L114.271 69.1523C115.957 68.2443 116.752 65.8934 115.742 64.2038C114.733 62.5142 113.433 62.4015 113.433 62.4015Z" fill="#648CFF"/>
<path fill-rule="evenodd" clip-rule="evenodd" d="M110.943 49.8253C111.646 49.6418 112.384 49.6385 113.089 49.8156C115.305 50.3639 116.374 52.8184 115.842 54.8279L115.842 54.8285L113.806 62.5007C113.752 62.7068 113.54 62.8297 113.334 62.7751C113.128 62.7205 113.005 62.5091 113.06 62.303L115.096 54.6303C115.096 54.6301 115.096 54.63 115.096 54.6299C115.54 52.9498 114.617 50.9888 112.903 50.5649L112.902 50.5646C112.323 50.4189 111.716 50.4216 111.138 50.5724C110.56 50.7232 110.029 51.0171 109.595 51.4272C109.44 51.5735 109.195 51.5665 109.049 51.4114C108.903 51.2563 108.91 51.012 109.065 50.8657C109.593 50.3666 110.239 50.0088 110.943 49.8253Z" fill="black"/>
<path d="M125.213 67.3704L104.459 63.0916C103.144 62.8032 101.767 63.0289 100.613 63.7225C99.4578 64.416 98.6119 65.5249 98.2482 66.8219C97.9501 67.9453 98.0386 69.1363 98.4996 70.2032C98.9605 71.2701 99.7671 72.1509 100.789 72.7038C100.888 72.7565 100.973 72.8306 101.039 72.9206C101.105 73.0106 101.151 73.1142 101.171 73.2239C101.192 73.3336 101.188 73.4466 101.16 73.5545C101.132 73.6625 101.079 73.7628 101.007 73.848C100.442 74.5219 100.038 75.3162 99.8272 76.1702L92.5851 105.66L122.302 119.292L124.432 80.3263C124.428 79.7425 124.334 79.1627 124.153 78.6077C124.119 78.5021 124.11 78.3903 124.125 78.2805C124.14 78.1708 124.179 78.0657 124.24 77.9731C124.301 77.8805 124.382 77.8026 124.476 77.7451C124.571 77.6876 124.677 77.6519 124.788 77.6407C125.94 77.5333 127.024 77.0432 127.866 76.2485C128.708 75.4538 129.259 74.4002 129.433 73.2556C129.611 71.9217 129.273 70.5701 128.489 69.4765C127.705 68.3829 126.533 67.6297 125.213 67.3704Z" fill="#00CD73"/>
<path d="M72.6931 68.2437L103.234 86.6123L87.3324 114.246L64.9487 76.0266L72.6931 68.2437Z" fill="#00CD73"/>
<path d="M30.3885 61.5843C30.3824 61.0118 30.5904 60.4577 30.9717 60.0307C31.3531 59.6036 31.8802 59.3344 32.4497 59.2759C32.3812 58.7876 32.3449 58.2954 32.341 57.8023C32.3161 55.6573 32.8589 53.5438 33.9145 51.6764C34.9701 49.8089 36.5009 48.2539 38.3515 47.169C40.2022 46.0842 42.3068 45.5081 44.452 45.4993C46.5971 45.4905 48.7064 46.0493 50.5659 47.1189C52.4254 48.1885 53.9689 49.7309 55.0398 51.5897C56.1107 53.4484 56.6709 55.5574 56.6635 57.7025C56.6562 59.8477 56.0816 61.9527 54.998 63.8041C53.9144 65.6555 52.3605 67.1873 50.4937 68.2442L56.6675 76.8577L48.4319 80.4852C48.4319 80.4852 47.4054 73.5258 46.8256 69.5926C46.1076 69.7364 45.3775 69.8116 44.6453 69.8172C42.4467 69.8429 40.2825 69.2711 38.3834 68.1631C36.4843 67.0551 34.9216 65.4523 33.862 63.5257C33.5128 63.7351 33.1146 63.849 32.7075 63.8558C32.0988 63.862 31.5126 63.6262 31.0777 63.2002C30.6429 62.7742 30.395 62.193 30.3885 61.5843Z" fill="#648CFF"/>
<path d="M32.4663 59.2729L32.6535 59.2331C32.9762 59.2295 33.296 59.2946 33.5917 59.4238C33.8874 59.5531 34.1523 59.7437 34.3688 59.983C36.7095 58.5508 40.5965 54.8684 40.0489 46.3192C40.3975 47.5208 43.1048 54.7867 56.3004 54.775C55.5849 51.882 53.832 49.3524 51.3745 47.6664C48.917 45.9805 45.926 45.2556 42.9693 45.6293C40.0126 46.003 37.2961 47.4493 35.3354 49.6937C33.3747 51.9381 32.3064 54.8243 32.3332 57.8044C32.3371 58.2975 32.3734 58.7897 32.4419 59.278" fill="#333132"/>
<path d="M58.3144 43.7518L57.4075 42.2435L50.7812 46.2012C49.059 43.9884 46.5891 42.4797 43.8341 41.9576C41.0792 41.4356 38.2285 41.9361 35.8162 43.3655C34.5139 44.1368 33.3764 45.1571 32.4686 46.3682C31.5608 47.5793 30.9005 48.9574 30.5255 50.4237C30.1505 51.8901 30.0681 53.416 30.283 54.9142C30.4979 56.4124 31.0059 57.8536 31.778 59.1554L31.921 59.3887L31.9366 59.4619L58.3144 43.7518Z" fill="#00CD73"/>
<path d="M67.7593 67.9386L115.353 127.785C95.4705 144.965 71.1487 146.895 52.6179 140.718L34.5968 81.2769L67.7593 67.9386Z" fill="#00CD73"/>
<path d="M44.9531 89.7599C45.5263 85.4697 42.4772 81.5224 38.1427 80.9433C33.8081 80.3642 29.8297 83.3725 29.2565 87.6627C28.6833 91.9528 31.7324 95.9001 36.067 96.4793C40.4015 97.0584 44.38 94.05 44.9531 89.7599Z" fill="#00CD73"/>
<path d="M48.9726 132.996C52.5669 124.1 48.1936 113.944 39.2047 110.312C30.2157 106.681 20.0151 110.948 16.4209 119.844C12.8267 128.74 17.1999 138.896 26.1888 142.528C35.1778 146.159 45.3784 141.892 48.9726 132.996Z" fill="#00CD73"/>
<path d="M29.5549 86.342L16.8497 118.779L48.6803 127.025L44.9085 87.4269L29.5549 86.342Z" fill="#00CD73"/>
<path d="M75.313 73.7604C75.7211 70.6533 73.5056 67.8001 70.3647 67.3877C67.2238 66.9753 64.3468 69.1597 63.9388 72.2669C63.5308 75.374 65.7463 78.2272 68.8872 78.6396C72.0281 79.0521 74.905 76.8676 75.313 73.7604Z" fill="#00CD73"/>
<path d="M104.609 105.603L103.346 103.715C102.765 102.85 101.907 102.208 100.914 101.893C99.9201 101.578 98.8493 101.609 97.8758 101.981L79.3719 107.128C79.3719 107.128 80.8004 114.725 80.8004 114.698C80.8004 114.671 104.609 105.603 104.609 105.603Z" fill="#648CFF"/>
<path d="M121.537 126.118C122.245 125.233 122.717 124.185 122.912 123.07C123.106 121.954 123.016 120.807 122.649 119.736C122.649 119.736 119.904 112.687 118.761 110.656C117.619 108.625 114.882 106.911 112.264 106.135C109.898 105.433 106.991 105.711 104.516 105.618C98.339 105.382 82.553 107.421 80.9161 107.332C78.7233 107.216 76.959 106.714 77.1598 108.784C77.1924 109.131 77.2636 109.475 77.3721 109.807L76.4649 110.116L73.5964 123.944C73.5964 123.944 78.6152 135.14 90.9691 130.855C102.203 126.952 105.917 130.747 106.272 131.241C106.658 131.829 106.869 132.514 106.879 133.217C106.879 135.453 109.195 137.329 111.272 137.155C113.723 136.947 115.441 135.198 115.461 132.908C115.468 132.611 115.448 132.314 115.399 132.021C116.684 133.368 119.178 133.646 120.672 132.623C122.68 131.252 123.016 129.017 121.954 126.948L121.537 126.118Z" fill="#648CFF"/>
<path fill-rule="evenodd" clip-rule="evenodd" d="M103.192 105.597C103.195 105.81 103.024 105.986 102.811 105.989C98.6124 106.049 92.0418 106.698 87.1693 107.18C85.7926 107.316 84.5515 107.439 83.5378 107.531C83.3254 107.551 83.1376 107.394 83.1183 107.182C83.099 106.969 83.2555 106.782 83.4678 106.762C84.4678 106.671 85.6975 106.55 87.0652 106.414C91.9385 105.932 98.5645 105.277 102.8 105.217C103.013 105.213 103.189 105.384 103.192 105.597Z" fill="black"/>
<path fill-rule="evenodd" clip-rule="evenodd" d="M110.089 111.939C107.682 110.875 105.468 110.944 104.101 111.131C103.89 111.16 103.695 111.012 103.666 110.801C103.637 110.59 103.785 110.395 103.996 110.366C105.447 110.167 107.818 110.091 110.401 111.233C112.988 112.377 115.745 114.724 117.998 119.295L120.975 124.39C121.083 124.574 121.021 124.811 120.836 124.918C120.652 125.026 120.416 124.964 120.308 124.78L117.324 119.672C117.319 119.664 117.315 119.656 117.311 119.648C115.125 115.208 112.49 113.001 110.089 111.939Z" fill="black"/>
<path fill-rule="evenodd" clip-rule="evenodd" d="M99.064 117.78C99.0912 117.568 99.2847 117.419 99.4961 117.446C102.585 117.843 105.53 118.991 108.074 120.788L108.075 120.789C111.423 123.175 113.64 126.765 115.198 130.394L115.199 130.397L115.199 130.397L115.373 130.814C115.455 131.011 115.362 131.237 115.165 131.319C114.968 131.401 114.742 131.308 114.66 131.111L114.488 130.698C114.488 130.697 114.488 130.697 114.487 130.696C112.956 127.13 110.811 123.687 107.628 121.418C105.187 119.694 102.362 118.593 99.3977 118.212C99.1862 118.185 99.0368 117.991 99.064 117.78Z" fill="black"/>
<path d="M34.6393 143.768L68.0141 138.263C70.3755 137.617 72.4215 136.135 73.771 134.092C75.1205 132.049 75.6814 129.586 75.3492 127.16L73.7007 115.1C73.5088 113.697 73.0244 112.351 72.2789 111.148C71.5335 109.945 70.5436 108.912 69.3735 108.116C68.2033 107.32 66.879 106.779 65.4863 106.528C64.0936 106.276 62.6636 106.32 61.2889 106.656L25.2465 115.493L34.6393 143.768Z" fill="#00CD73"/>
<path d="M79.3659 107.134C78.772 104.333 76.0206 102.543 73.2204 103.137C70.4203 103.731 68.6317 106.483 69.2256 109.284L73.6838 130.312C74.2777 133.113 77.0291 134.903 79.8293 134.309C82.6294 133.716 84.418 130.964 83.8241 128.162L79.3659 107.134Z" fill="#00CD73"/>
<path fill-rule="evenodd" clip-rule="evenodd" d="M73.1459 102.754C74.217 102.527 75.3313 102.621 76.3493 103.024C77.3674 103.427 78.2442 104.121 78.8702 105.019C78.9921 105.194 78.9492 105.434 78.7742 105.556C78.5993 105.678 78.3587 105.635 78.2368 105.46C77.6975 104.687 76.9422 104.089 76.0653 103.742C75.1883 103.395 74.2285 103.314 73.3059 103.509L73.2259 103.132L73.3056 103.509C72.6437 103.649 72.0191 103.928 71.4729 104.327C70.9267 104.726 70.4714 105.236 70.1372 105.824L70.136 105.826C69.7911 106.424 69.2522 106.887 68.6086 107.137C67.9649 107.387 67.2551 107.41 66.5967 107.202L66.5962 107.202C64.8994 106.663 63.0867 106.604 61.3584 107.031L61.3576 107.031L31.4149 114.367C31.2078 114.417 30.9988 114.291 30.9481 114.083C30.8973 113.876 31.0241 113.667 31.2312 113.617L61.1731 106.282C61.1733 106.282 61.1735 106.282 61.1738 106.282C63.0399 105.82 64.9973 105.884 66.8295 106.466C67.3202 106.621 67.8491 106.604 68.3288 106.418C68.8081 106.231 69.2094 105.887 69.4665 105.442C69.8547 104.759 70.3833 104.166 71.0174 103.703C71.6518 103.24 72.3773 102.916 73.1459 102.754Z" fill="black"/>
<path fill-rule="evenodd" clip-rule="evenodd" d="M79.8399 136.003C80.9085 135.764 81.8831 135.216 82.6419 134.427C83.4007 133.637 83.9101 132.642 84.1065 131.565C84.1447 131.355 84.0057 131.154 83.7959 131.116C83.5862 131.078 83.3851 131.217 83.3469 131.426C83.1777 132.354 82.7389 133.212 82.0853 133.891C81.4316 134.571 80.5921 135.043 79.6717 135.249C79.0116 135.397 78.3274 135.403 77.6649 135.267C77.0023 135.131 76.3761 134.856 75.8278 134.459L75.8259 134.458C75.2637 134.057 74.5814 133.86 73.8919 133.9C73.2025 133.94 72.5473 134.214 72.0348 134.676L72.0345 134.677C70.7148 135.872 69.0904 136.678 67.3408 137.008L67.34 137.008L58.6019 138.981C58.3925 139.021 58.255 139.223 58.2949 139.433C58.3347 139.642 58.5368 139.78 58.7463 139.74L67.4835 137.766L67.4842 137.766C69.3733 137.411 71.1274 136.54 72.5524 135.249C72.9343 134.904 73.4226 134.7 73.9363 134.671C74.4497 134.641 74.9578 134.788 75.3766 135.086C76.0133 135.546 76.7402 135.865 77.5095 136.023C78.279 136.181 79.0733 136.174 79.8399 136.003Z" fill="black"/>
<path fill-rule="evenodd" clip-rule="evenodd" d="M70.3517 111.488C70.5617 111.451 70.7621 111.591 70.7993 111.801L74.0731 130.243C74.1104 130.453 73.9704 130.653 73.7605 130.691C73.5505 130.728 73.3501 130.588 73.3129 130.378L70.0391 111.936C70.0018 111.726 70.1418 111.526 70.3517 111.488Z" fill="black"/>
<path d="M55.5004 70.0076L45.8434 73.6452C44.7001 74.0758 44.1224 75.3517 44.5531 76.4951C44.9837 77.6384 46.2597 78.2161 47.403 77.7854L57.06 74.1479C58.2033 73.7173 58.781 72.4413 58.3503 71.298C57.9197 70.1547 56.6437 69.577 55.5004 70.0076Z" fill="#00CD73"/>
<path fill-rule="evenodd" clip-rule="evenodd" d="M58.5257 72.3771C58.7289 72.4416 58.8414 72.6586 58.7768 72.8619C58.6583 73.2352 58.4568 73.5769 58.1873 73.8613C57.9179 74.1456 57.5876 74.3653 57.2212 74.5037L47.5695 78.1405C47.1799 78.2874 46.7607 78.3386 46.3472 78.2897C45.9337 78.2408 45.538 78.0932 45.1935 77.8593C45.0171 77.7396 44.9711 77.4995 45.0908 77.3231C45.2106 77.1467 45.4506 77.1007 45.6271 77.2205C45.8692 77.3848 46.1473 77.4885 46.4379 77.5229C46.7285 77.5573 47.0232 77.5213 47.297 77.418L56.9482 73.7814C56.9484 73.7814 56.9481 73.7815 56.9482 73.7814C57.2055 73.6842 57.4377 73.5298 57.6269 73.3302C57.8161 73.1305 57.9577 72.8905 58.0409 72.6282C58.1054 72.425 58.3225 72.3126 58.5257 72.3771Z" fill="black"/>
<path fill-rule="evenodd" clip-rule="evenodd" d="M102.772 74.2889C102.811 74.0793 103.013 73.9413 103.222 73.9806L121.721 77.4501C121.931 77.4894 122.069 77.6911 122.029 77.9007C121.99 78.1102 121.788 78.2483 121.579 78.2089L103.08 74.7395C102.87 74.7002 102.732 74.4985 102.772 74.2889Z" fill="black"/>
</g>
<defs>
<clipPath id="clip0">
<rect width="114.66" height="116.976" fill="white" transform="translate(15.1703 27.0241)"/>
</clipPath>
</defs>
</svg>
