<svg width="145" height="144" viewBox="0 0 145 144" fill="none" xmlns="http://www.w3.org/2000/svg">
<g clip-path="url(#clip0)">
<circle cx="76.0999" cy="80.8798" r="63.12" fill="#FFE6EB"/>
<mask id="mask0" mask-type="alpha" maskUnits="userSpaceOnUse" x="12" y="17" width="128" height="127">
<circle cx="76.0999" cy="80.8798" r="63.12" fill="#FFE6EB"/>
</mask>
<g mask="url(#mask0)">
<path d="M53.207 65.0904C53.5216 65.0092 53.8479 64.983 54.1714 65.013C54.1396 62.5576 54.9348 60.163 56.4289 58.2144C57.9231 56.2657 60.0293 54.8764 62.4088 54.2699C65.2399 53.5319 68.248 53.9408 70.7794 55.4077C73.3108 56.8747 75.1612 59.2812 75.9287 62.1045C76.2973 63.4992 76.3857 64.9532 76.1888 66.3822C75.9918 67.8113 75.5134 69.1872 74.7811 70.4301C74.0489 71.6731 73.0774 72.7584 71.9229 73.6235C70.7685 74.4885 69.4539 75.1159 68.0553 75.4695C65.6652 76.0901 63.1365 75.898 60.8675 74.9234C58.5986 73.9488 56.7184 72.2471 55.523 70.0863C55.2545 70.2653 54.9571 70.3963 54.6438 70.4736C53.9229 70.663 53.1563 70.5596 52.5113 70.1859C51.8663 69.8123 51.3953 69.1987 51.2009 68.4791C51.1086 68.1249 51.0872 67.7558 51.1382 67.3933C51.1892 67.0307 51.3115 66.6819 51.498 66.3668C51.6845 66.0518 51.9315 65.7768 52.2249 65.5577C52.5182 65.3386 52.852 65.1798 53.207 65.0904Z" fill="#648CFF"/>
<path d="M62.4084 54.2699C65.2396 53.5319 68.2476 53.9408 70.779 55.4077C73.3105 56.8747 75.1609 59.2812 75.9283 62.1045C76.0408 62.5274 76.1274 62.9568 76.1878 63.3903C65.921 65.3267 59.2986 55.6718 59.2676 55.6447C60.2374 55.0272 61.2968 54.5635 62.4084 54.2699Z" fill="black"/>
<path d="M54.1678 65.0131C54.1421 63.1419 54.5976 61.2954 55.4908 59.6509C56.3839 58.0063 57.6847 56.6189 59.2682 55.6216C61.0962 61.8607 58.4627 65.0906 56.4527 66.5661C56.2362 66.1337 55.9125 65.7639 55.5126 65.492C55.1126 65.2201 54.6496 65.0553 54.1678 65.0131Z" fill="black"/>
<path d="M54.5095 56.1655C54.8404 53.6893 53.0806 51.411 50.5789 51.0767C48.0773 50.7425 45.7811 52.4789 45.4502 54.9551C45.1194 57.4313 46.8792 59.7096 49.3808 60.0439C51.8825 60.3781 54.1787 58.6417 54.5095 56.1655Z" fill="black"/>
<path d="M72.9877 47.9063C73.3125 45.4331 71.5502 43.1621 69.0516 42.834C66.553 42.5059 64.2641 44.2449 63.9394 46.7181C63.6146 49.1913 65.3769 51.4623 67.8755 51.7904C70.3741 52.1185 72.663 50.3795 72.9877 47.9063Z" fill="black"/>
<path d="M128.236 90.9891L113.393 85.881C112.116 85.4411 110.752 85.3187 109.418 85.5244C108.084 85.73 106.82 86.2576 105.735 87.0613C104.651 87.8651 103.778 88.9209 103.193 90.1376C102.608 91.3542 102.329 92.695 102.378 94.044L102.611 99.8265L94.9392 90.518L91.914 86.4166C90.4122 84.5012 88.53 82.9174 86.3859 81.7652C84.2419 80.6129 81.8825 79.9171 79.4563 79.7216L47.0227 78.6306C46.1613 78.5917 45.2983 78.6466 44.4488 78.7942C42.4711 79.1326 40.6096 79.9606 39.0339 81.2028C37.4583 82.445 36.2186 84.0618 35.4279 85.9058L34.6046 84.9933L33.6128 83.8775L25.4498 74.8665C24.3751 73.6833 23.0025 72.8104 21.4753 72.3389C19.948 71.8674 18.3222 71.8146 16.7676 72.186C15.213 72.5574 13.7866 73.3395 12.6375 74.4504C11.4883 75.5613 10.6585 76.9605 10.2347 78.5016C7.31371 89.1938 3.91165 101.716 3.45044 103.402C2.39705 106.438 2.41821 109.744 3.51039 112.766C4.60258 115.788 6.69952 118.344 9.45039 120.005C12.2013 121.666 15.4392 122.332 18.6224 121.892C21.8056 121.452 24.7411 119.931 26.9376 117.586L36.747 108.024L28.5692 131.447L98.8991 159.839L98.0636 128.203C102.472 130.634 107.035 131.591 111.047 129.29C117.152 125.788 126.515 112.512 132.476 103.382C133.165 102.324 133.603 101.124 133.759 99.8712C133.915 98.6186 133.784 97.347 133.375 96.1528C132.966 94.9585 132.291 93.8729 131.401 92.9783C130.51 92.0836 129.428 91.4034 128.236 90.9891Z" fill="#FF0828"/>
<path d="M51.7944 55.421C51.2539 55.6392 50.7084 55.8475 50.1628 56.0557C49.7239 55.9456 49.2701 55.9071 48.8189 55.9417C42.8677 56.3285 35.6817 55.659 31.7292 61.0547C31.6201 61.2084 31.516 61.3671 31.4118 61.5506C31.4118 61.5506 26.4525 67.8638 22.738 72.8627C23.7554 73.3652 24.6677 74.0569 25.426 74.901L36.4851 87.1157C37.5579 85.4937 38.2466 83.6483 38.4986 81.72C41.0721 80.011 43.4944 78.0847 45.7392 75.9623C49.4487 72.4313 43.8745 66.7678 40.1749 70.2889C39.7682 70.6807 39.3466 71.0625 38.9202 71.4345C42.4561 66.4454 49.6818 64.8485 55.1271 62.6665C59.9078 60.7274 56.5405 53.5315 51.7944 55.421Z" fill="#648CFF"/>
<path fill-rule="evenodd" clip-rule="evenodd" d="M52.1525 57.2795C52.3832 57.1318 52.6899 57.199 52.8376 57.4297C53.6408 58.684 53.8478 60.3217 53.3666 61.6952C52.8742 63.1006 51.6658 64.2065 49.7347 64.3315C49.7346 64.3316 49.7349 64.3315 49.7347 64.3315L43.4666 64.7481C43.1613 64.7682 42.8657 64.7818 42.5797 64.795C41.7507 64.8331 40.9993 64.8677 40.3055 65.0465C39.427 65.273 38.6987 65.7231 38.1831 66.7433L38.1825 66.7446C37.62 67.85 37.1099 68.9974 36.6275 70.1786C36.524 70.4322 36.2345 70.5538 35.9809 70.4503C35.7274 70.3467 35.6058 70.0572 35.7093 69.8037C36.1989 68.6047 36.7202 67.4314 37.2982 66.2954C37.963 64.9802 38.9504 64.3716 40.0579 64.0861C40.8606 63.8791 41.7598 63.8382 42.6164 63.7993C42.8835 63.7871 43.1465 63.7752 43.4011 63.7584C43.4011 63.7584 43.4011 63.7584 43.4011 63.7584L49.6703 63.3418C51.1907 63.2435 52.065 62.4104 52.4305 61.3672C52.8072 60.2921 52.6472 58.9716 52.0023 57.9645C51.8546 57.7339 51.9219 57.4272 52.1525 57.2795Z" fill="black"/>
</g>
<path d="M62.8313 73.2096C62.2798 75.7084 61.8195 90.3806 61.8195 90.3806L78.434 88.9436L67.1999 72.5841L62.8313 73.2096Z" fill="#648CFF"/>
<path d="M135.052 54.3964C134.392 53.8781 133.557 53.6357 132.722 53.7201C132.03 53.8084 131.382 54.1054 130.863 54.5715C130.68 54.5324 130.492 54.515 130.305 54.5194C129.833 54.5354 129.369 54.6507 128.945 54.8577C128.52 55.0647 128.144 55.3589 127.841 55.721C127.575 56.0419 127.377 56.4138 127.261 56.8138C127.144 57.2138 127.11 57.6335 127.161 58.0471C127.294 58.8883 127.72 59.6553 128.364 60.2122L128.484 60.3464C128.095 60.3367 127.708 60.4063 127.347 60.5511C126.549 60.8676 125.908 61.4872 125.565 62.2745C125.4 62.6519 125.311 63.0582 125.303 63.4701C125.295 63.882 125.369 64.2914 125.52 64.6749C126.081 65.8136 126.635 66.9581 127.183 68.1083C127.367 68.4828 127.544 68.857 127.728 69.2315C125.936 72.2232 123.765 73.8052 122.65 74.8061L119.772 77.3891C116.973 79.6664 115.693 76.9684 115.693 76.9684C115.305 76.1023 114.852 75.2672 114.337 74.4704C113.546 73.2427 110.54 70.7724 110.209 70.4883C109.9 70.2035 109.529 69.994 109.125 69.8761C108.722 69.7582 108.297 69.7351 107.883 69.8086C107.034 69.9186 106.259 70.3473 105.714 71.0078C105.207 71.6661 104.972 72.4939 105.057 73.3205C105.178 74.1658 105.606 74.9368 106.26 75.4857C106.72 75.8897 108.741 77.4792 109.456 79.1695C110.287 81.1287 110.923 85.3525 111.013 87.0711C111.103 88.7897 111.006 90.5857 111.002 92.3393L110.999 93.5461C111.129 94.3882 111.556 95.156 112.202 95.7112C112.862 96.2279 113.694 96.4713 114.528 96.391C115.185 96.3036 115.804 96.0295 116.31 95.6012L122.718 97.9306L127.182 97.4459L138.847 76.8252C139.685 75.6885 140.219 74.3569 140.398 72.9563C140.477 71.8426 140.459 70.7242 140.345 69.6135L140.117 65.6669C140.069 64.8038 140.031 63.9376 139.969 63.0737C139.871 62.2002 139.43 61.4013 138.743 60.8526L138.531 60.6625C138.211 60.3827 137.89 60.1029 137.57 59.8158L136.474 58.856L136.233 56.5604C136.131 55.7143 135.708 54.9395 135.052 54.3964Z" fill="#648CFF"/>
<path fill-rule="evenodd" clip-rule="evenodd" d="M136.571 59.4325C136.855 59.4126 137.101 59.6265 137.121 59.9102L137.409 64.03L136.96 72.5659C136.945 72.8499 136.702 73.068 136.418 73.053C136.134 73.038 135.916 72.7957 135.931 72.5117L136.378 64.0389L136.094 59.9821C136.074 59.6984 136.288 59.4523 136.571 59.4325Z" fill="black"/>
<path d="M128.358 90.9941L113.527 85.9067C112.252 85.4686 110.889 85.3467 109.555 85.5515C108.222 85.7563 106.959 86.2817 105.876 87.0822C104.792 87.8828 103.92 88.9343 103.336 90.146C102.751 91.3577 102.472 92.6931 102.521 94.0367L102.754 99.7959L95.0884 90.5249L92.0657 86.4401C90.5651 84.5324 88.6844 82.9551 86.5421 81.8075C84.3998 80.6599 82.0424 79.9669 79.6182 79.7721L47.211 78.6855C46.3504 78.6468 45.4881 78.7015 44.6393 78.8485C42.6632 79.1855 40.8032 80.0102 39.2288 81.2474C37.6544 82.4845 36.4158 84.0948 35.6257 85.9314L34.8031 85.0226L33.8121 83.9112L25.6558 74.9366C24.582 73.7582 23.2105 72.8888 21.6845 72.4192C20.1585 71.9496 18.534 71.897 16.9807 72.267C15.4274 72.6369 14.0022 73.4158 12.8539 74.5222C11.7057 75.6287 10.8766 77.0221 10.4532 78.5571C7.53453 89.2061 4.13525 101.678 3.67441 103.357C2.62188 106.381 2.64303 109.673 3.73432 112.683C4.82561 115.693 6.92084 118.238 9.66946 119.893C12.4181 121.547 15.6533 122.211 18.834 121.772C22.0146 121.334 24.9476 119.82 27.1424 117.483L36.9438 107.96L47.211 100.971L98.0913 132.504L98.2102 128.058C102.615 130.478 107.174 131.432 111.183 129.14C117.283 125.653 126.638 112.43 132.595 103.337C133.283 102.284 133.721 101.088 133.877 99.8404C134.032 98.5929 133.901 97.3264 133.493 96.137C133.084 94.9475 132.41 93.8663 131.52 92.9753C130.631 92.0842 129.549 91.4067 128.358 90.9941Z" fill="#FF0828"/>
<path fill-rule="evenodd" clip-rule="evenodd" d="M37.4271 87.9585C37.6453 87.7973 37.95 87.8476 38.1076 88.071C39.4817 90.0184 40.0818 92.4271 39.7866 94.8099C39.4915 97.1927 38.3231 99.372 36.5176 100.907L27.6988 108.389C27.4915 108.565 27.1842 108.536 27.0124 108.324C26.8405 108.112 26.8692 107.797 27.0765 107.621L35.8945 100.14C35.8946 100.14 35.8944 100.14 35.8945 100.14C37.5097 98.7664 38.5553 96.8163 38.8194 94.6845C39.0835 92.5524 38.5466 90.3974 37.3172 88.6549C37.1596 88.4316 37.2088 88.1198 37.4271 87.9585Z" fill="black"/>
<path d="M101.3 27.142C100.547 27.142 99.8243 27.4412 99.2917 27.9738C98.7591 28.5064 98.4599 29.2288 98.4599 29.982V41.342C98.4599 42.0952 98.7591 42.8176 99.2917 43.3502C99.8243 43.8828 100.547 44.182 101.3 44.182C102.053 44.182 102.775 43.8828 103.308 43.3502C103.841 42.8176 104.14 42.0952 104.14 41.342V29.982C104.14 29.2288 103.841 28.5064 103.308 27.9738C102.775 27.4412 102.053 27.142 101.3 27.142ZM103.913 51.6228C103.851 51.4418 103.765 51.2699 103.657 51.1116L103.316 50.6856C102.917 50.2915 102.41 50.0246 101.859 49.9184C101.308 49.8123 100.738 49.8717 100.221 50.0892C99.8765 50.233 99.5596 50.4347 99.2835 50.6856C99.0203 50.951 98.8121 51.2657 98.6707 51.6117C98.5294 51.9577 98.4578 52.3282 98.4599 52.702C98.4644 53.0731 98.5416 53.4398 98.6871 53.7812C98.8147 54.1336 99.0182 54.4537 99.2832 54.7187C99.5482 54.9837 99.8683 55.1872 100.221 55.3148C100.561 55.465 100.928 55.5426 101.3 55.5426C101.672 55.5426 102.039 55.465 102.379 55.3148C102.732 55.1872 103.052 54.9837 103.317 54.7187C103.582 54.4537 103.785 54.1336 103.913 53.7812C104.058 53.4398 104.135 53.0731 104.14 52.702C104.154 52.5129 104.154 52.3231 104.14 52.134C104.091 51.9529 104.014 51.7804 103.913 51.6228ZM101.3 12.942C95.6829 12.942 90.1921 14.6076 85.5217 17.7282C80.8514 20.8489 77.2113 25.2844 75.0617 30.4738C72.9122 35.6632 72.3498 41.3735 73.4456 46.8825C74.5414 52.3916 77.2463 57.452 81.2181 61.4238C85.1899 65.3956 90.2503 68.1005 95.7593 69.1963C101.268 70.2921 106.979 69.7297 112.168 67.5802C117.358 65.4306 121.793 61.7905 124.914 57.1202C128.034 52.4498 129.7 46.959 129.7 41.342C129.7 37.6124 128.965 33.9194 127.538 30.4738C126.111 27.0281 124.019 23.8973 121.382 21.2602C118.745 18.623 115.614 16.531 112.168 15.1038C108.722 13.6766 105.029 12.942 101.3 12.942ZM101.3 64.062C96.8063 64.062 92.4136 62.7295 88.6774 60.233C84.9411 57.7365 82.029 54.1881 80.3094 50.0366C78.5897 45.885 78.1398 41.3168 79.0165 36.9095C79.8931 32.5023 82.057 28.454 85.2344 25.2765C88.4119 22.0991 92.4602 19.9352 96.8675 19.0585C101.275 18.1819 105.843 18.6318 109.994 20.3514C114.146 22.0711 117.694 24.9831 120.191 28.7194C122.687 32.4557 124.02 36.8484 124.02 41.342C124.02 47.3677 121.626 53.1466 117.365 57.4075C113.105 61.6683 107.326 64.062 101.3 64.062Z" fill="#FF2048"/>
</g>
<defs>
<clipPath id="clip0">
<rect width="144" height="144" fill="white" transform="translate(0.5)"/>
</clipPath>
</defs>
</svg>
