<svg width="145" height="144" viewBox="0 0 145 144" fill="none" xmlns="http://www.w3.org/2000/svg">
<g clip-path="url(#clip0)">
<circle cx="76.0999" cy="80.8799" r="63.12" fill="#E0F4FC"/>
<path d="M86.838 30.8539C86.0848 30.8539 85.3624 31.1532 84.8298 31.6858C84.2972 32.2184 83.998 32.9407 83.998 33.6939V45.0539C83.998 45.8072 84.2972 46.5295 84.8298 47.0621C85.3624 47.5947 86.0848 47.8939 86.838 47.8939C87.5912 47.8939 88.3136 47.5947 88.8462 47.0621C89.3788 46.5295 89.678 45.8072 89.678 45.0539V33.6939C89.678 32.9407 89.3788 32.2184 88.8462 31.6858C88.3136 31.1532 87.5912 30.8539 86.838 30.8539ZM87.9172 19.7211C87.2258 19.4371 86.4502 19.4371 85.7588 19.7211C85.4102 19.8563 85.0917 20.059 84.8216 20.3175C84.5707 20.5936 84.369 20.9106 84.2252 21.2547C84.0662 21.5918 83.9884 21.9614 83.998 22.3339C83.9958 22.7077 84.0675 23.0782 84.2088 23.4242C84.3501 23.7703 84.5584 24.085 84.8216 24.3503C85.0977 24.6012 85.4146 24.8029 85.7588 24.9467C86.1891 25.1235 86.6561 25.1919 87.119 25.1459C87.5819 25.0998 88.0264 24.9408 88.4134 24.6828C88.8004 24.4248 89.1182 24.0757 89.3387 23.6661C89.5592 23.2565 89.6757 22.7991 89.678 22.3339C89.6675 21.582 89.3734 20.8618 88.8544 20.3175C88.5843 20.059 88.2658 19.8563 87.9172 19.7211ZM86.838 5.29395C81.221 5.29395 75.7302 6.95958 71.0598 10.0802C66.3895 13.2008 62.7494 17.6363 60.5998 22.8257C58.4503 28.0152 57.8879 33.7254 58.9837 39.2345C60.0795 44.7436 62.7844 49.804 66.7562 53.7758C70.728 57.7476 75.7884 60.4524 81.2974 61.5482C86.8065 62.6441 92.5168 62.0816 97.7062 59.9321C102.896 57.7826 107.331 54.1425 110.452 49.4721C113.572 44.8018 115.238 39.3109 115.238 33.6939C115.238 29.9644 114.503 26.2714 113.076 22.8257C111.649 19.3801 109.557 16.2493 106.92 13.6121C104.283 10.9749 101.152 8.883 97.7062 7.45577C94.2606 6.02853 90.5676 5.29395 86.838 5.29395ZM86.838 56.4139C82.3444 56.4139 77.9517 55.0814 74.2154 52.5849C70.4792 50.0884 67.5671 46.54 65.8475 42.3885C64.1278 38.237 63.6779 33.6687 64.5546 29.2615C65.4312 24.8542 67.5951 20.8059 70.7725 17.6285C73.95 14.451 77.9983 12.2872 82.4056 11.4105C86.8128 10.5338 91.381 10.9838 95.5326 12.7034C99.6841 14.423 103.232 17.3351 105.729 21.0714C108.226 24.8077 109.558 29.2004 109.558 33.6939C109.558 39.7197 107.164 45.4986 102.903 49.7594C98.6427 54.0202 92.8637 56.4139 86.838 56.4139Z" fill="#0097DC"/>
<g clip-path="url(#clip1)">
<path d="M76.371 68.2435L110.823 88.7936L105.403 126.82L68.6058 76.0265L76.371 68.2435Z" fill="white"/>
<path d="M71.4241 67.9388L119.145 127.786C99.2098 144.965 74.8227 146.895 56.242 140.718L38.1725 81.2772L71.4241 67.9388Z" fill="white"/>
<path d="M48.5565 89.7597C49.1312 85.4696 46.0739 81.5223 41.7277 80.9432C37.3815 80.3641 33.3923 83.3724 32.8176 87.6626C32.2429 91.9527 35.3002 95.9 39.6464 96.4791C43.9926 97.0582 47.9818 94.0499 48.5565 89.7597Z" fill="white"/>
<path d="M52.5868 132.996C56.1907 124.1 51.8056 113.944 42.7926 110.312C33.7795 106.68 23.5514 110.948 19.9475 119.844C16.3436 128.74 20.7287 138.896 29.7418 142.528C38.7548 146.159 48.9829 141.892 52.5868 132.996Z" fill="white"/>
<path d="M33.1169 86.3423L20.3776 118.779L52.2937 127.025L48.5118 87.4271L33.1169 86.3423Z" fill="white"/>
<path d="M78.998 73.7603C79.4071 70.6532 77.1857 67.8 74.0363 67.3876C70.887 66.9751 68.0023 69.1596 67.5932 72.2667C67.1841 75.3739 69.4055 78.2271 72.5548 78.6395C75.7042 79.0519 78.5889 76.8675 78.998 73.7603Z" fill="white"/>
<path d="M124.864 65.3044C125.234 64.6395 120.651 64.9037 121.012 64.2471C121.246 63.8193 119.106 58.3557 119.351 57.9232L120.883 57.5615L121.477 57.6423C121.82 57.0401 122.103 57.3751 122.296 56.9402C122.452 56.5847 127.126 61.1287 127.251 60.7614C127.304 60.5945 127.356 60.4242 127.41 60.2695C127.464 60.1148 127.468 60.0459 127.494 59.933C127.37 60.532 127.332 60.6961 127.378 60.4062C127.416 60.0347 127.479 59.6782 127.516 59.2946C127.526 59.1256 127.535 58.9532 127.536 58.7839C127.539 57.9388 127.588 59.2081 127.551 58.9505C127.497 58.5901 127.478 58.2228 127.411 57.86C127.381 57.696 127.342 57.5317 127.303 57.3673C127.104 56.5522 127.47 57.7919 127.378 57.5369C127.12 56.8209 126.796 56.1301 126.411 55.4729L126.937 56.3004C126.477 55.5769 125.925 54.9148 125.297 54.3301L126.013 54.9939C125.666 54.6788 125.297 54.3883 124.91 54.1247C124.712 53.9924 124.506 53.8805 124.299 53.7478C123.712 53.3771 125.139 54.1462 124.499 53.8456C123.586 53.4869 122.839 52.8035 122.403 51.9276C122.011 51.0604 121.968 50.0763 122.283 49.1786C122.968 47.4936 125.114 46.0986 126.963 46.9693C130.941 48.8486 133.857 52.3342 134.653 56.7096C135.022 58.8563 134.861 61.0603 134.183 63.1309C133.719 64.376 133.133 65.5723 132.432 66.7021L130.895 69.4453C130.457 70.2245 129.348 70.826 128.499 70.9716C127.557 71.1262 126.591 70.915 125.801 70.3814C124.097 69.0926 123.864 67.09 124.865 65.3079L124.864 65.3044Z" fill="#648CFF"/>
<path d="M121.661 55.5969C121.381 56.4572 126.248 56.8871 125.975 57.7375C125.799 58.2917 129.049 66.2627 128.863 66.8215L127.283 67.058L126.632 66.8423C126.37 67.6202 118.801 67.3958 118.67 67.9672C118.565 68.4344 119.967 61.0109 119.897 61.4999C119.869 61.7227 119.843 61.9506 119.812 62.1563C119.781 62.362 119.79 62.4573 119.781 62.6096C119.81 61.7982 119.821 61.5765 119.823 61.9718C119.847 62.4817 119.842 62.9667 119.869 63.4937C119.888 63.7269 119.909 63.9653 119.937 64.2006C120.082 65.3754 119.807 63.6014 119.893 63.9663C120.013 64.4769 120.097 64.991 120.233 65.5072C120.294 65.7405 120.364 65.9758 120.434 66.2111C120.791 67.3795 120.182 65.5916 120.324 65.9623C120.727 67.003 121.195 68.0202 121.722 69.0011L121.013 67.7586C121.634 68.8451 122.341 69.8618 123.117 70.7843L122.233 69.7365C122.66 70.2351 123.106 70.7032 123.568 71.1373C123.803 71.3557 124.044 71.5473 124.288 71.7678C124.982 72.3853 123.318 71.0675 124.057 71.597C125.098 72.2546 126.018 73.3349 126.639 74.6291C127.211 75.9033 127.429 77.2793 127.248 78.473C126.808 80.6974 124.752 82.2641 122.618 80.7316C118.025 77.4259 114.29 72.071 112.671 65.8473C111.9 62.7976 111.687 59.7603 112.051 56.9986C112.331 55.3475 112.75 53.7858 113.303 52.3364L114.472 48.7886C114.805 47.7812 115.889 47.1376 116.774 47.0828C117.756 47.0317 118.828 47.4933 119.769 48.3729C121.82 50.4617 122.421 53.2875 121.659 55.5917L121.661 55.5969Z" fill="#648CFF"/>
<path d="M127.54 49.3173L124.643 57.8096C124.491 58.2447 124.425 58.7056 124.451 59.166C124.476 59.6264 124.593 60.0772 124.793 60.4928C124.993 60.9083 125.274 61.2804 125.619 61.5878C125.963 61.8952 126.365 62.132 126.801 62.2845C127.238 62.437 127.7 62.5023 128.161 62.4767C128.623 62.4511 129.075 62.3351 129.492 62.1352C129.908 61.9354 130.281 61.6556 130.59 61.312C130.898 60.9683 131.135 60.5675 131.288 60.1324L134.178 51.6346C134.331 51.1996 134.397 50.7389 134.371 50.2787C134.346 49.8185 134.229 49.3678 134.029 48.9524C133.829 48.537 133.549 48.1649 133.205 47.8575C132.86 47.5501 132.459 47.3133 132.023 47.1606C131.586 47.008 131.125 46.9426 130.663 46.968C130.202 46.9934 129.75 47.1092 129.333 47.3089C128.917 47.5085 128.544 47.7879 128.235 48.1313C127.927 48.4747 127.69 48.8753 127.537 49.3102L127.54 49.3173Z" fill="#648CFF"/>
<path d="M122.124 46.6355L119.228 55.1278C119.075 55.563 119.009 56.0239 119.035 56.4843C119.06 56.9446 119.177 57.3955 119.377 57.811C119.578 58.2265 119.858 58.5986 120.203 58.906C120.547 59.2135 120.949 59.4502 121.385 59.6027C121.822 59.7552 122.284 59.8206 122.746 59.7949C123.207 59.7693 123.659 59.6533 124.076 59.4535C124.492 59.2536 124.866 58.9739 125.174 58.6302C125.482 58.2866 125.719 57.8857 125.872 57.4506L128.762 48.9528C128.915 48.5179 128.981 48.0572 128.955 47.597C128.93 47.1368 128.814 46.6861 128.613 46.2706C128.413 45.8552 128.133 45.4832 127.789 45.1757C127.444 44.8683 127.043 44.6315 126.607 44.4789C126.171 44.3263 125.709 44.2608 125.247 44.2862C124.786 44.3117 124.334 44.4275 123.917 44.6271C123.501 44.8267 123.128 45.1062 122.819 45.4496C122.511 45.793 122.274 46.1935 122.121 46.6284L122.124 46.6355Z" fill="#648CFF"/>
<path fill-rule="evenodd" clip-rule="evenodd" d="M133.668 53.1842C133.871 53.2527 133.979 53.4719 133.911 53.6738L131.666 60.2807L131.663 60.289C131.31 61.2547 130.593 62.0448 129.664 62.4907C128.735 62.9366 127.669 63.003 126.691 62.6758L126.687 62.6742L126.687 62.6741C126.196 62.5024 125.745 62.2316 125.364 61.8786C125.207 61.7335 125.198 61.4892 125.344 61.333C125.489 61.1767 125.734 61.1676 125.891 61.3127C126.194 61.5929 126.551 61.808 126.94 61.9447C127.725 62.2068 128.582 62.1531 129.328 61.795C130.073 61.437 130.65 60.8033 130.934 60.0286L133.177 53.426C133.246 53.224 133.466 53.1158 133.668 53.1842Z" fill="black"/>
<path fill-rule="evenodd" clip-rule="evenodd" d="M128.252 50.5026C128.455 50.571 128.563 50.7902 128.495 50.9921L126.25 57.599L126.247 57.6073C125.894 58.5731 125.177 59.3631 124.248 59.809C123.319 60.2549 122.253 60.3214 121.276 59.9942L121.271 59.9925L121.271 59.9925C120.78 59.8207 120.33 59.5499 119.948 59.1969C119.792 59.0519 119.783 58.8076 119.928 58.6513C120.073 58.4951 120.318 58.486 120.475 58.631C120.778 58.9112 121.135 59.1264 121.525 59.263C122.31 59.5252 123.166 59.4715 123.912 59.1133C124.658 58.7554 125.234 58.1217 125.518 57.3469L127.762 50.7443C127.83 50.5424 128.05 50.4342 128.252 50.5026Z" fill="black"/>
<path d="M120.972 36.2149C121.148 39.2036 122.183 57.1915 122.183 57.1915C122.348 58.2821 122.313 59.3958 122.379 60.4963C122.439 61.5069 122.403 62.3566 121.803 63.229C121.255 64.028 120.411 64.5772 119.457 64.7559C118.503 64.9346 117.517 64.7282 116.715 64.182C115.991 63.6417 115.239 62.7807 115.184 61.8404L114.655 52.8667C114.373 48.0988 114.255 45.6201 113.973 40.8523L113.793 37.549C113.733 36.5384 113.77 35.6886 114.369 34.8163C114.639 34.4203 114.986 34.0816 115.388 33.8193C115.79 33.5571 116.24 33.3765 116.713 33.2879C117.185 33.1994 117.67 33.2046 118.14 33.3033C118.61 33.4019 119.056 33.5921 119.453 33.8629C120.178 34.4032 120.929 35.2642 120.984 36.2045L120.972 36.2149Z" fill="#648CFF"/>
<path fill-rule="evenodd" clip-rule="evenodd" d="M116.539 52.7524C117.159 52.3699 117.865 52.1492 118.593 52.1106C120.878 51.9818 122.627 54.0124 122.711 56.0893L122.712 56.09L123.028 64.0213C123.037 64.2344 122.87 64.414 122.657 64.4226C122.443 64.4311 122.263 64.2654 122.254 64.0523L121.938 56.1204C121.938 56.1203 121.938 56.1201 121.938 56.12C121.867 54.3836 120.404 52.7815 118.636 52.8816L118.635 52.8816C118.037 52.9132 117.456 53.0945 116.947 53.4089C116.437 53.7233 116.016 54.1607 115.721 54.6805C115.615 54.866 115.379 54.9313 115.193 54.8262C115.007 54.7212 114.942 54.4856 115.047 54.3001C115.406 53.6674 115.919 53.1351 116.539 52.7524Z" fill="black"/>
<mask id="mask0" mask-type="alpha" maskUnits="userSpaceOnUse" x="12" y="18" width="130" height="127">
<path d="M139.127 81.6509C139.127 116.511 110.867 144.771 76.0072 144.771C41.147 144.771 12.8872 116.511 12.8872 81.6509C12.8872 46.7907 41.147 18.5309 76.0072 18.5309C110.867 18.5309 152.242 48.4505 139.127 81.6509Z" fill="#E0F4FC"/>
</mask>
<g mask="url(#mask0)">
<path d="M135.259 66.273L114.085 64.5289C112.74 64.4013 111.398 64.7914 110.332 65.6191C109.266 66.4469 108.559 67.6497 108.353 68.9811C108.193 70.1323 108.425 71.3039 109.013 72.3074C109.6 73.3109 110.51 74.088 111.594 74.5135C111.699 74.554 111.793 74.6172 111.869 74.6986C111.946 74.78 112.003 74.8774 112.037 74.9838C112.072 75.0901 112.081 75.2027 112.066 75.3134C112.051 75.424 112.011 75.5298 111.949 75.6231C111.468 76.3603 111.162 77.1975 111.056 78.0707L106.371 122.188L141.5 121.428L136.049 79.2285C135.975 78.6494 135.811 78.0852 135.564 77.556C135.518 77.4553 135.494 77.3455 135.496 77.2347C135.498 77.1239 135.524 77.0149 135.574 76.9156C135.623 76.8163 135.694 76.7293 135.781 76.6608C135.869 76.5923 135.97 76.544 136.079 76.5196C137.213 76.274 138.232 75.6567 138.974 74.7663C139.716 73.8758 140.138 72.7634 140.172 71.6062C140.188 70.2605 139.688 68.9595 138.775 67.9685C137.863 66.9775 136.605 66.3711 135.259 66.273Z" fill="white"/>
<path fill-rule="evenodd" clip-rule="evenodd" d="M113.759 75.8482C113.773 75.6355 113.957 75.4741 114.17 75.4878L133.003 76.7005C133.217 76.7143 133.378 76.8979 133.365 77.1107C133.351 77.3234 133.167 77.4848 132.953 77.471L114.121 76.2584C113.907 76.2446 113.745 76.061 113.759 75.8482Z" fill="black"/>
</g>
<path d="M36.5116 62.5341C36.4605 62.0793 36.5815 61.6217 36.8506 61.2524C37.1196 60.8832 37.517 60.6293 37.9637 60.5414C37.8744 60.1588 37.8065 59.7714 37.7601 59.3812C37.5717 57.6868 37.8323 55.9725 38.5156 54.4122C39.1988 52.8519 40.2804 51.5011 41.6504 50.497C43.0204 49.493 44.6302 48.8713 46.3163 48.6952C48.0025 48.519 49.7049 48.7946 51.2509 49.4941C52.7969 50.1935 54.1314 51.2918 55.1189 52.6776C56.1064 54.0634 56.7118 55.6873 56.8737 57.3844C57.0355 59.0815 56.748 60.7915 56.0404 62.3408C55.3328 63.8901 54.2303 65.2235 52.8446 66.2058L58.9517 75.0777L52.1661 76.0536C52.1661 76.0536 50.8089 70.594 50.0625 67.5639C49.5083 67.7295 48.9406 67.846 48.3661 67.9119C46.6377 68.1041 44.8898 67.821 43.3088 67.0926C41.7278 66.3643 40.3729 65.2181 39.3887 63.7762C39.1333 63.9692 38.8309 64.0895 38.5134 64.1243C38.0386 64.1782 37.562 64.0414 37.1871 63.7436C36.8122 63.4458 36.5694 63.0111 36.5116 62.5341Z" fill="#648CFF"/>
<path d="M28.9228 64.215C30.1406 65.6615 30.2759 67.7943 31.5208 69.2072C33.0972 70.9901 36.0131 71.0035 38.124 69.88C39.6486 68.9855 40.9689 67.7848 42.0007 66.3545C41.0051 65.683 40.1427 64.8345 39.4568 63.8517C39.2022 64.0419 38.9007 64.1605 38.5841 64.1948C38.1104 64.2671 37.6272 64.1492 37.2408 63.8672C36.8545 63.5852 36.5966 63.1622 36.5239 62.6911C36.4513 62.22 36.5697 61.7395 36.8533 61.3553C37.1369 60.9711 37.5623 60.7147 38.036 60.6424H38.1849C38.4382 60.6142 38.6946 60.6397 38.9372 60.7174C39.1798 60.7952 39.403 60.9232 39.5921 61.0932C41.3174 59.7947 44.0777 56.6258 42.9749 49.9987C43.3471 50.9137 46.0262 56.3634 56.3506 55.3273C56.5961 56.0122 56.7597 56.7236 56.8377 57.4466C57.0568 59.3473 56.6886 61.2693 55.7823 62.9568C56.882 62.7969 58.0048 62.9292 59.0365 63.3403C61.9451 64.5359 65.1888 64.6529 68.1769 63.67C69.9145 63.0811 71.467 62.0503 72.68 60.68C73.893 59.3096 74.7243 57.6475 75.0913 55.8588C75.707 52.2862 73.8803 48.3369 70.5922 46.7692C68.1295 45.5649 65.2609 45.7668 62.5546 45.5111C59.8484 45.2554 56.8174 44.2799 55.674 41.8107C54.9433 40.2296 55.1463 38.3996 54.8283 36.6974C54.5188 34.9465 53.6607 33.3377 52.3766 32.101C51.0924 30.8643 49.448 30.0629 47.6784 29.8114C45.9087 29.5599 44.1044 29.8711 42.5233 30.7006C40.9422 31.5301 39.6652 32.8355 38.875 34.4301C37.6369 36.8656 37.5895 39.8865 35.844 41.9923C32.6439 45.8609 26.1962 44.226 21.785 46.6414C20.4548 47.3696 19.3536 48.4502 18.6037 49.7633C17.8539 51.0763 17.4847 52.5704 17.5373 54.0795C17.5898 55.5887 18.0621 57.0538 18.9015 58.3121C19.741 59.5704 20.9147 60.5727 22.2925 61.2075C24.5386 62.2302 27.3734 62.3446 28.9228 64.215Z" fill="black"/>
<path d="M108.372 105.603L107.106 103.715C106.523 102.85 105.663 102.208 104.667 101.893C103.671 101.578 102.597 101.609 101.621 101.981L83.0677 107.127C83.0677 107.127 84.5 114.725 84.5 114.698C84.5 114.671 108.372 105.603 108.372 105.603Z" fill="#648CFF"/>
<path d="M125.346 126.118C126.056 125.234 126.53 124.185 126.724 123.07C126.919 121.954 126.829 120.808 126.461 119.736C126.461 119.736 123.709 112.687 122.563 110.656C121.417 108.626 118.673 106.912 116.048 106.136C113.675 105.433 110.761 105.711 108.279 105.618C102.086 105.383 86.2574 107.421 84.6161 107.332C82.4174 107.216 80.6484 106.715 80.8496 108.784C80.8823 109.132 80.9537 109.475 81.0625 109.807L80.1529 110.116L77.2767 123.944C77.2767 123.944 82.309 135.14 94.6961 130.855C105.961 126.952 109.684 130.747 110.041 131.241C110.427 131.829 110.638 132.514 110.648 133.218C110.648 135.453 112.971 137.329 115.054 137.155C117.512 136.947 119.234 135.198 119.254 132.909C119.261 132.611 119.24 132.314 119.192 132.021C120.481 133.368 122.981 133.646 124.479 132.623C126.492 131.253 126.829 129.017 125.764 126.948L125.346 126.118Z" fill="#648CFF"/>
<path fill-rule="evenodd" clip-rule="evenodd" d="M106.952 105.597C106.955 105.81 106.784 105.986 106.57 105.989C102.36 106.049 95.7717 106.698 90.8861 107.18C89.5057 107.316 88.2613 107.439 87.2448 107.531C87.0319 107.551 86.8436 107.394 86.8242 107.182C86.8049 106.969 86.9618 106.782 87.1747 106.762C88.1774 106.671 89.4104 106.55 90.7817 106.414C95.6682 105.932 102.312 105.277 106.559 105.217C106.773 105.214 106.949 105.384 106.952 105.597Z" fill="black"/>
<path fill-rule="evenodd" clip-rule="evenodd" d="M113.867 111.94C111.454 110.875 109.234 110.944 107.864 111.131C107.652 111.16 107.456 111.012 107.427 110.801C107.398 110.59 107.547 110.395 107.758 110.366C109.213 110.167 111.591 110.091 114.18 111.233C116.774 112.377 119.538 114.724 121.797 119.295L124.783 124.39C124.89 124.574 124.828 124.811 124.644 124.918C124.459 125.026 124.222 124.964 124.114 124.78L121.122 119.672C121.117 119.664 121.113 119.656 121.109 119.648C118.917 115.208 116.274 113.001 113.867 111.94Z" fill="black"/>
<path fill-rule="evenodd" clip-rule="evenodd" d="M102.813 117.78C102.84 117.568 103.034 117.419 103.246 117.446C106.344 117.843 109.297 118.991 111.847 120.788L111.849 120.789C115.205 123.175 117.428 126.765 118.99 130.394L118.992 130.397L118.992 130.397L119.166 130.814C119.248 131.011 119.155 131.237 118.957 131.319C118.76 131.401 118.533 131.308 118.451 131.111L118.279 130.698C118.278 130.697 118.278 130.697 118.278 130.696C116.743 127.13 114.592 123.687 111.4 121.418C108.953 119.694 106.119 118.593 103.147 118.212C102.935 118.185 102.786 117.991 102.813 117.78Z" fill="black"/>
<path d="M38.2149 143.768L71.6795 138.263C74.0472 137.617 76.0987 136.135 77.4518 134.092C78.8049 132.049 79.3674 129.586 79.0343 127.16L77.3814 115.1C77.1889 113.697 76.7032 112.351 75.9558 111.148C75.2083 109.945 74.2158 108.912 73.0425 108.116C71.8692 107.32 70.5413 106.779 69.1449 106.528C67.7484 106.276 66.3146 106.32 64.9362 106.657L28.7969 115.493L38.2149 143.768Z" fill="white"/>
<path d="M83.0618 107.134C82.4663 104.333 79.7075 102.543 76.8998 103.137C74.0921 103.731 72.2988 106.483 72.8943 109.284L77.3644 130.312C77.9599 133.113 80.7187 134.903 83.5264 134.309C86.3341 133.716 88.1275 130.964 87.532 128.162L83.0618 107.134Z" fill="white"/>
<path fill-rule="evenodd" clip-rule="evenodd" d="M76.8251 102.754C77.8991 102.527 79.0163 102.621 80.0371 103.024C81.0579 103.427 81.9371 104.121 82.5648 105.019C82.687 105.194 82.6439 105.435 82.4685 105.556C82.2931 105.678 82.0518 105.635 81.9296 105.46C81.3889 104.687 80.6316 104.089 79.7523 103.742C78.8729 103.395 77.9106 103.314 76.9854 103.509L76.9052 103.132L76.9852 103.51C76.3215 103.649 75.6952 103.928 75.1475 104.327C74.5999 104.726 74.1434 105.236 73.8082 105.824L73.807 105.826C73.4612 106.425 72.9209 106.887 72.2755 107.137C71.6301 107.388 70.9184 107.41 70.2582 107.202L70.2577 107.202C68.5564 106.663 66.7388 106.604 65.0059 107.031L65.0051 107.031L34.9819 114.367C34.7742 114.417 34.5646 114.291 34.5138 114.083C34.4629 113.876 34.59 113.667 34.7976 113.617L64.8201 106.282C64.8203 106.282 64.8205 106.282 64.8207 106.282C66.6919 105.82 68.6545 105.884 70.4916 106.466C70.9836 106.621 71.514 106.604 71.995 106.418C72.4755 106.231 72.878 105.887 73.1357 105.442C73.525 104.759 74.055 104.167 74.6908 103.703C75.3269 103.24 76.0543 102.916 76.8251 102.754Z" fill="black"/>
<path fill-rule="evenodd" clip-rule="evenodd" d="M83.5371 136.003C84.6085 135.764 85.5857 135.216 86.3466 134.427C87.1074 133.637 87.6182 132.642 87.8151 131.565C87.8535 131.355 87.7141 131.154 87.5037 131.116C87.2934 131.078 87.0918 131.217 87.0535 131.426C86.8839 132.354 86.4439 133.212 85.7885 133.892C85.1331 134.571 84.2913 135.044 83.3684 135.249C82.7066 135.397 82.0205 135.403 81.3562 135.267C80.6918 135.131 80.064 134.856 79.5142 134.46L79.5123 134.458C78.9486 134.057 78.2644 133.86 77.5731 133.9C76.8818 133.94 76.2249 134.214 75.711 134.677L75.7107 134.677C74.3875 135.872 72.7586 136.679 71.0043 137.008L71.0035 137.008L62.242 138.981C62.032 139.021 61.8942 139.223 61.9341 139.433C61.9741 139.642 62.1768 139.78 62.3868 139.74L71.1475 137.767L71.1481 137.766C73.0424 137.411 74.8011 136.54 76.23 135.25C76.6129 134.905 77.1025 134.7 77.6176 134.671C78.1324 134.641 78.6418 134.788 79.0618 135.086C79.7001 135.546 80.4291 135.865 81.2004 136.023C81.972 136.181 82.7684 136.174 83.5371 136.003Z" fill="black"/>
<path fill-rule="evenodd" clip-rule="evenodd" d="M74.0234 111.488C74.2339 111.451 74.4348 111.591 74.4722 111.801L77.7547 130.243C77.7921 130.453 77.6518 130.653 77.4413 130.69C77.2308 130.728 77.0298 130.588 76.9925 130.378L73.7099 111.936C73.6725 111.726 73.8129 111.525 74.0234 111.488Z" fill="black"/>
<path d="M59.1322 70.0076L49.4492 73.6452C48.3029 74.0758 47.7236 75.3517 48.1554 76.4951C48.5872 77.6384 49.8666 78.2161 51.0129 77.7854L60.6959 74.1479C61.8423 73.7173 62.4215 72.4413 61.9897 71.298C61.5579 70.1547 60.2786 69.577 59.1322 70.0076Z" fill="white"/>
<path fill-rule="evenodd" clip-rule="evenodd" d="M62.1656 72.3772C62.3694 72.4417 62.4821 72.6588 62.4174 72.862C62.2986 73.2353 62.0965 73.577 61.8264 73.8614C61.5562 74.1457 61.225 74.3654 60.8576 74.5038L51.18 78.1406C50.7893 78.2876 50.369 78.3387 49.9544 78.2898C49.5398 78.2409 49.143 78.0933 48.7976 77.8595C48.6207 77.7397 48.5746 77.4997 48.6946 77.3232C48.8147 77.1468 49.0554 77.1009 49.2323 77.2206C49.4751 77.3849 49.754 77.4886 50.0454 77.523C50.3368 77.5574 50.6322 77.5215 50.9067 77.4182L60.5839 73.7816C60.584 73.7815 60.5838 73.7816 60.5839 73.7816C60.8419 73.6843 61.0747 73.53 61.2644 73.3303C61.4541 73.1306 61.5961 72.8906 61.6795 72.6284C61.7442 72.4251 61.9619 72.3127 62.1656 72.3772Z" fill="black"/>
</g>
</g>
<defs>
<clipPath id="clip0">
<rect width="144" height="144" fill="white" transform="translate(0.5)"/>
</clipPath>
<clipPath id="clip1">
<rect width="132" height="116.976" fill="white" transform="translate(10.5646 27.0242)"/>
</clipPath>
</defs>
</svg>
