<svg width="145" height="144" viewBox="0 0 145 144" fill="none" xmlns="http://www.w3.org/2000/svg">
<g clip-path="url(#clip0)">
<path d="M63.1793 10.7995C67.4286 3.43949 78.0518 3.43947 82.3011 10.7995L141.537 113.399C145.787 120.759 140.475 129.959 131.976 129.959H13.5041C5.00552 129.959 -0.306118 120.759 3.94318 113.399L63.1793 10.7995Z" fill="#FEF8E3"/>
<path d="M87.0569 47.9748C86.4952 47.9748 85.9461 48.1414 85.4791 48.4534C85.0121 48.7655 84.6481 49.2091 84.4331 49.728C84.2181 50.2469 84.1619 50.818 84.2715 51.3689C84.3811 51.9198 84.6516 52.4258 85.0487 52.823C85.4459 53.2202 85.952 53.4907 86.5029 53.6002C87.0538 53.7098 87.6248 53.6536 88.1437 53.4386C88.6627 53.2237 89.1062 52.8597 89.4183 52.3926C89.7304 51.9256 89.8969 51.3765 89.8969 50.8148C89.8969 50.0616 89.5977 49.3392 89.0651 48.8066C88.5325 48.274 87.8101 47.9748 87.0569 47.9748ZM87.0569 25.2548C86.3037 25.2548 85.5813 25.554 85.0487 26.0866C84.5161 26.6192 84.2169 27.3416 84.2169 28.0948V39.4548C84.2169 40.208 84.5161 40.9304 85.0487 41.463C85.5813 41.9956 86.3037 42.2948 87.0569 42.2948C87.8101 42.2948 88.5325 41.9956 89.0651 41.463C89.5977 40.9304 89.8969 40.208 89.8969 39.4548V28.0948C89.8969 27.3416 89.5977 26.6192 89.0651 26.0866C88.5325 25.554 87.8101 25.2548 87.0569 25.2548Z" fill="#F8B330"/>
<path d="M117.361 52.1504L94.499 12.3904C93.76 11.0656 92.6808 9.96208 91.3727 9.19389C90.0646 8.42571 88.5751 8.02069 87.0582 8.02069C85.5412 8.02069 84.0517 8.42571 82.7437 9.19389C81.4356 9.96208 80.3563 11.0656 79.6174 12.3904L56.8974 52.1504C56.1328 53.4398 55.722 54.9081 55.7064 56.4071C55.6908 57.906 56.0709 59.3825 56.8084 60.6876C57.5459 61.9926 58.6147 63.08 59.9069 63.8399C61.199 64.5998 62.6688 65.0054 64.1678 65.0156H109.949C111.46 65.0305 112.947 64.6432 114.259 63.8936C115.571 63.1439 116.66 62.0587 117.415 60.7494C118.169 59.4401 118.562 57.9537 118.552 56.4426C118.543 54.9315 118.132 53.4502 117.361 52.1504ZM112.448 57.8304C112.199 58.2733 111.836 58.6413 111.396 58.8961C110.956 59.1508 110.457 59.283 109.949 59.2788H64.1678C63.6597 59.283 63.1598 59.1508 62.7203 58.8961C62.2807 58.6413 61.9175 58.2733 61.6686 57.8304C61.4193 57.3987 61.2881 56.9089 61.2881 56.4104C61.2881 55.9119 61.4193 55.4221 61.6686 54.9904L84.3886 15.2304C84.6269 14.7652 84.989 14.3748 85.435 14.1022C85.8809 13.8296 86.3935 13.6853 86.9162 13.6853C87.4389 13.6853 87.9514 13.8296 88.3974 14.1022C88.8434 14.3748 89.2054 14.7652 89.4438 15.2304L112.306 54.9904C112.588 55.4159 112.749 55.9095 112.774 56.4193C112.799 56.9291 112.687 57.4361 112.448 57.8872V57.8304Z" fill="#F8B330"/>
<path d="M128.647 47.2465C128.096 46.7024 127.355 46.3931 126.58 46.3835C125.937 46.3926 125.311 46.5975 124.787 46.971C124.623 46.9161 124.453 46.8805 124.28 46.8651C123.845 46.8306 123.408 46.8881 122.997 47.0337C122.586 47.1794 122.211 47.4101 121.895 47.7107C121.617 47.9774 121.398 48.298 121.249 48.6527C121.1 49.0074 121.025 49.3888 121.029 49.7735C121.063 50.5589 121.374 51.3069 121.907 51.8849L122.004 52.0204C121.648 51.971 121.285 51.9946 120.939 52.0898C120.174 52.297 119.522 52.7987 119.125 53.4851C118.934 53.8141 118.81 54.1775 118.76 54.5545C118.71 54.9316 118.735 55.3148 118.833 55.6822C119.229 56.7851 119.619 57.8926 120.002 59.0047C120.131 59.3675 120.254 59.7291 120.384 60.0918C118.43 62.6495 116.273 63.8745 115.146 64.6765L112.238 66.7461C109.433 68.5436 108.54 65.9355 108.54 65.9355C108.274 65.1007 107.945 64.2875 107.556 63.5029C106.958 62.2944 104.458 59.7154 104.184 59.4204C103.93 59.127 103.612 58.8962 103.254 58.746C102.896 58.5958 102.508 58.5304 102.121 58.5547C101.331 58.5672 100.575 58.8798 100.007 59.4289C99.4731 59.9799 99.1712 60.7147 99.1633 61.4819C99.1859 62.2698 99.4986 63.0216 100.041 63.5932C100.421 64.0116 102.11 65.6802 102.589 67.3051C103.148 69.1887 103.292 73.1294 103.195 74.7151C103.098 76.3009 102.822 77.9382 102.636 79.5464L102.508 80.653C102.539 81.439 102.851 82.1877 103.386 82.7643C103.937 83.3069 104.675 83.6169 105.449 83.6301C106.061 83.6184 106.656 83.4313 107.165 83.0911L112.801 85.8951L116.946 85.9153L129.793 68.2151C130.68 67.2596 131.308 66.0938 131.618 64.8278C131.807 63.8144 131.907 62.7867 131.918 61.756L132.12 58.1121C132.165 57.3154 132.221 56.517 132.254 55.718C132.255 54.9065 131.934 54.1278 131.361 53.5531L131.186 53.3566C130.921 53.0665 130.657 52.7765 130.393 52.4799L129.487 51.4852L129.505 49.3545C129.5 48.5678 129.193 47.8131 128.647 47.2465Z" fill="#648CFF"/>
<path fill-rule="evenodd" clip-rule="evenodd" d="M129.517 52.0245C129.779 52.0359 129.983 52.2577 129.971 52.5199L129.807 56.329L128.506 64.1119C128.462 64.3709 128.217 64.5457 127.958 64.5024C127.699 64.4591 127.525 64.2141 127.568 63.9551L128.86 56.2297L129.022 52.4789C129.033 52.2166 129.255 52.0132 129.517 52.0245Z" fill="black"/>
<path d="M120.661 83.9675L102.455 74.0776C101.306 73.4346 99.9537 73.2554 98.6764 73.5769C97.3991 73.8983 96.2931 74.696 95.585 75.8065C94.9874 76.7731 94.7324 77.9126 94.8611 79.0417C94.9899 80.1708 95.4948 81.2238 96.2946 82.031C96.3717 82.1083 96.4306 82.2018 96.4669 82.3048C96.5033 82.4077 96.5161 82.5175 96.5045 82.6261C96.493 82.7346 96.4572 82.8392 96.4 82.9322C96.3428 83.0252 96.2655 83.1042 96.1738 83.1635C95.4536 83.6337 94.8506 84.2625 94.411 85.0018L79.2705 110.542L104.474 128.967L116.255 95.8692C116.418 95.3219 116.494 94.7527 116.482 94.1819C116.481 94.0736 116.503 93.9663 116.548 93.8679C116.594 93.7694 116.66 93.6823 116.744 93.6129C116.827 93.5435 116.924 93.4935 117.029 93.4665C117.134 93.4396 117.244 93.4364 117.35 93.4572C118.459 93.6836 119.612 93.5324 120.625 93.0275C121.638 92.5227 122.454 91.6933 122.941 90.6714C123.485 89.4737 123.553 88.1133 123.129 86.8676C122.706 85.6218 121.823 84.5846 120.661 83.9675Z" fill="#FDCD01"/>
<path d="M38.4608 59.3688C37.4075 59.6991 36.4849 60.3541 35.8231 61.2414C35.1614 62.1287 34.7939 63.2035 34.7725 64.3141C34.662 69.2707 36.728 71.0359 32.3704 74.3461C30.1657 76.038 26.5252 81.8739 32.8413 83.9887C39.6815 86.2584 66.1771 71.0247 66.1771 71.0247C66.1771 71.0247 69.6642 68.4393 67.5753 63.3782C65.3397 57.9582 60.1698 60.0178 58.3298 56.3245C55.2005 50.0411 38.4608 59.3688 38.4608 59.3688Z" fill="#333132"/>
<path d="M36.3646 59.7487C36.4123 59.2804 36.6368 58.8453 36.9936 58.5293C37.3505 58.2134 37.8138 58.0396 38.2919 58.0423C38.2851 57.6377 38.3 57.2329 38.3367 56.8294C38.5138 55.0826 39.1573 53.4089 40.2018 51.9783C41.2463 50.5477 42.6547 49.4111 44.284 48.6837C45.9134 47.9564 47.7058 47.6642 49.4793 47.8368C51.2528 48.0094 52.9443 48.6407 54.3822 49.6666C55.8202 50.6925 56.9534 52.0765 57.6668 53.6782C58.3803 55.2799 58.6486 57.0422 58.4446 58.7865C58.2406 60.5308 57.5715 62.1948 56.5051 63.6098C55.4388 65.0249 54.0133 66.1405 52.3731 66.8436L56.7069 74.3522L49.5633 76.6142C49.5633 76.6142 49.361 70.8678 49.2447 67.6177C48.6378 67.6721 48.0276 67.6733 47.4214 67.6214C45.6017 67.4574 43.8655 66.8104 42.3981 65.7494C40.9307 64.6883 39.787 63.2531 39.0891 61.5966C38.7833 61.7403 38.4445 61.8004 38.1084 61.7706C37.8577 61.7522 37.6136 61.6852 37.3901 61.5735C37.1666 61.4618 36.9681 61.3076 36.8061 61.1197C36.644 60.9318 36.5216 60.7139 36.4458 60.4787C36.3701 60.2434 36.3425 59.9953 36.3646 59.7487Z" fill="#648CFF"/>
<path d="M38.3808 57.9642L38.2293 58.0005C38.2241 57.599 38.2409 57.1973 38.2796 56.7968C38.4893 54.8019 39.3204 52.9055 40.6628 51.3596C42.0051 49.8136 43.7951 48.6912 45.795 48.1414C45.4354 55.0855 41.8626 57.7487 39.7448 58.7181C39.5881 58.5045 39.3852 58.3267 39.1499 58.1966C38.9146 58.0666 38.6523 57.9873 38.3808 57.9642Z" fill="#333132"/>
<path d="M58.4855 56.6178C47.5953 55.4611 45.9962 49.1795 45.8019 48.1463C46.9767 47.8201 48.2022 47.7161 49.416 47.8395C51.6899 48.0596 53.8244 49.0472 55.4715 50.6414C57.1186 52.2356 58.181 54.3423 58.4855 56.6178Z" fill="#333132"/>
<path d="M75.4095 70.8277L94.4869 97.6268L88.1978 114.271L66.3118 76.9008L75.4095 70.8277Z" fill="#FDCD01"/>
<path d="M68.3695 69.0101L113.979 125.684L41.3264 129.999L36.574 82.0518L68.3695 69.0101Z" fill="#FDCD01"/>
<path d="M46.7606 90.3277C47.3211 86.133 44.3397 82.2734 40.1016 81.7072C35.8634 81.141 31.9734 84.0824 31.413 88.2772C30.8525 92.4719 33.8339 96.3315 38.072 96.8977C42.3101 97.4639 46.2002 94.5225 46.7606 90.3277Z" fill="#FDCD01"/>
<path d="M50.6912 132.603C54.2055 123.905 49.9294 113.975 41.1404 110.424C32.3513 106.873 22.3775 111.046 18.8632 119.744C15.3489 128.442 19.6249 138.372 28.414 141.923C37.203 145.474 47.1769 141.301 50.6912 132.603Z" fill="#FDCD01"/>
<path d="M31.7049 86.9864L19.2822 118.702L50.405 126.765L46.7171 88.0471L31.7049 86.9864Z" fill="#FDCD01"/>
<path d="M76.4459 74.6844C76.8449 71.6463 74.6787 68.8566 71.6076 68.4533C68.5366 68.05 65.7236 70.1859 65.3246 73.224C64.9257 76.262 67.0919 79.0518 70.1629 79.455C73.234 79.8583 76.047 77.7224 76.4459 74.6844Z" fill="#FDCD01"/>
<path d="M105.091 105.818L103.856 103.973C103.288 103.127 102.449 102.499 101.478 102.191C100.506 101.884 99.4594 101.914 98.5076 102.278L80.4152 107.309C80.4152 107.309 81.8118 114.738 81.8118 114.712C81.8118 114.685 105.091 105.818 105.091 105.818Z" fill="#648CFF"/>
<path d="M121.642 125.878C122.334 125.013 122.796 123.988 122.986 122.898C123.176 121.807 123.088 120.686 122.729 119.638C122.729 119.638 120.046 112.746 118.928 110.76C117.811 108.775 115.135 107.099 112.575 106.34C110.261 105.653 107.419 105.925 104.999 105.834C98.9598 105.604 83.5249 107.597 81.9244 107.51C79.7803 107.397 78.0553 106.906 78.2516 108.929C78.2834 109.269 78.3531 109.605 78.4592 109.93L77.5721 110.232L74.7675 123.753C74.7675 123.753 79.6746 134.7 91.7538 130.51C102.738 126.693 106.37 130.404 106.717 130.887C107.094 131.462 107.3 132.132 107.31 132.82C107.31 135.005 109.574 136.84 111.605 136.67C114.002 136.466 115.682 134.756 115.701 132.518C115.708 132.227 115.688 131.936 115.64 131.65C116.897 132.967 119.336 133.239 120.797 132.238C122.76 130.898 123.088 128.713 122.05 126.69L121.642 125.878Z" fill="#648CFF"/>
<path fill-rule="evenodd" clip-rule="evenodd" d="M103.705 105.813C103.708 106.021 103.542 106.193 103.333 106.196C99.2278 106.254 92.8033 106.89 88.0391 107.361C86.6931 107.494 85.4796 107.614 84.4884 107.704C84.2807 107.723 84.0971 107.57 84.0782 107.362C84.0593 107.155 84.2123 106.971 84.42 106.952C85.3977 106.863 86.6001 106.744 87.9373 106.612C92.7023 106.141 99.1809 105.5 103.323 105.441C103.531 105.438 103.702 105.604 103.705 105.813Z" fill="black"/>
<path fill-rule="evenodd" clip-rule="evenodd" d="M110.448 112.014C108.095 110.974 105.93 111.041 104.594 111.224C104.387 111.252 104.197 111.108 104.168 110.901C104.14 110.695 104.285 110.504 104.491 110.476C105.91 110.282 108.228 110.207 110.754 111.324C113.283 112.442 115.978 114.737 118.181 119.206L121.092 124.188C121.197 124.368 121.137 124.599 120.957 124.705C120.777 124.81 120.546 124.749 120.44 124.569L117.522 119.575C117.518 119.567 117.514 119.56 117.51 119.551C115.373 115.21 112.795 113.052 110.448 112.014Z" fill="black"/>
<path fill-rule="evenodd" clip-rule="evenodd" d="M99.6687 117.725C99.6952 117.518 99.8844 117.372 100.091 117.399C103.112 117.787 105.991 118.909 108.478 120.666L108.48 120.667C111.753 123 113.921 126.51 115.444 130.058L115.445 130.062L115.445 130.062L115.615 130.469C115.695 130.662 115.604 130.883 115.412 130.963C115.219 131.043 114.998 130.952 114.918 130.76L114.75 130.356C114.75 130.355 114.749 130.355 114.749 130.354C113.252 126.867 111.155 123.501 108.042 121.282C105.656 119.596 102.893 118.52 99.9949 118.147C99.7881 118.121 99.6421 117.932 99.6687 117.725Z" fill="black"/>
<path d="M36.676 143.136L69.3087 137.753C71.6176 137.121 73.6181 135.672 74.9376 133.674C76.2571 131.677 76.8055 129.268 76.4807 126.897L74.8689 115.104C74.6812 113.733 74.2076 112.417 73.4787 111.241C72.7499 110.065 71.782 109.055 70.6379 108.276C69.4937 107.498 68.1989 106.969 66.8371 106.723C65.4754 106.477 64.0772 106.52 62.7331 106.849L27.4921 115.489L36.676 143.136Z" fill="#FDCD01"/>
<path d="M80.4084 107.316C79.8277 104.577 77.1375 102.828 74.3996 103.408C71.6616 103.988 69.9129 106.679 70.4935 109.418L74.8526 129.979C75.4333 132.718 78.1235 134.468 80.8614 133.887C83.5994 133.307 85.3481 130.616 84.7674 127.877L80.4084 107.316Z" fill="#FDCD01"/>
<path fill-rule="evenodd" clip-rule="evenodd" d="M74.3274 103.034C75.3747 102.812 76.4641 102.904 77.4596 103.297C78.455 103.691 79.3123 104.37 79.9244 105.248C80.0436 105.419 80.0016 105.654 79.8306 105.774C79.6595 105.893 79.4242 105.851 79.305 105.68C78.7778 104.923 78.0393 104.339 77.1818 103.999C76.3243 103.66 75.3859 103.581 74.4838 103.772L74.4056 103.403L74.4835 103.772C73.8364 103.909 73.2256 104.181 72.6916 104.571C72.1575 104.961 71.7124 105.46 71.3855 106.035L71.3844 106.037C71.0472 106.622 70.5203 107.075 69.8909 107.319C69.2616 107.564 68.5675 107.586 67.9238 107.383L67.9233 107.383C66.2643 106.856 64.4918 106.798 62.802 107.216L62.8012 107.216L33.5243 114.388C33.3218 114.437 33.1174 114.313 33.0678 114.111C33.0182 113.909 33.1421 113.704 33.3446 113.655L62.6208 106.483C62.621 106.483 62.6212 106.483 62.6214 106.483C64.4461 106.032 66.36 106.094 68.1514 106.663C68.6312 106.815 69.1484 106.798 69.6174 106.616C70.086 106.433 70.4784 106.097 70.7297 105.661C71.1093 104.994 71.6262 104.415 72.2462 103.962C72.8665 103.508 73.5758 103.192 74.3274 103.034Z" fill="black"/>
<path fill-rule="evenodd" clip-rule="evenodd" d="M71.595 111.574C71.8003 111.537 71.9962 111.674 72.0327 111.88L75.2336 129.912C75.2701 130.117 75.1332 130.313 74.928 130.349C74.7227 130.386 74.5268 130.249 74.4903 130.043L71.2893 112.012C71.2529 111.806 71.3897 111.61 71.595 111.574Z" fill="black"/>
<path d="M57.0734 71.0147L47.6312 74.5714C46.5133 74.9925 45.9484 76.24 46.3695 77.3579C46.7905 78.4758 48.0381 79.0406 49.156 78.6196L58.5982 75.0629C59.7161 74.6419 60.281 73.3943 59.8599 72.2764C59.4388 71.1585 58.1913 70.5937 57.0734 71.0147Z" fill="#FDCD01"/>
<path fill-rule="evenodd" clip-rule="evenodd" d="M60.0314 73.3316C60.2301 73.3947 60.34 73.6069 60.277 73.8056C60.1611 74.1706 59.964 74.5047 59.7006 74.7828C59.4371 75.0608 59.1141 75.2756 58.7559 75.4109L49.3188 78.9669C48.9379 79.1106 48.528 79.1606 48.1237 79.1127C47.7194 79.0649 47.3325 78.9206 46.9956 78.692C46.8231 78.5749 46.7782 78.3402 46.8953 78.1677C47.0123 77.9952 47.2471 77.9502 47.4196 78.0673C47.6563 78.228 47.9282 78.3294 48.2124 78.363C48.4965 78.3966 48.7846 78.3615 49.0523 78.2605L58.489 74.7047C58.4891 74.7047 58.4889 74.7048 58.489 74.7047C58.7405 74.6096 58.9676 74.4587 59.1525 74.2635C59.3376 74.0682 59.476 73.8336 59.5574 73.5771C59.6205 73.3784 59.8327 73.2685 60.0314 73.3316Z" fill="black"/>
<path fill-rule="evenodd" clip-rule="evenodd" d="M97.6992 84.077C97.7954 83.8921 98.0233 83.8201 98.2083 83.9163L114.534 92.4095C114.719 92.5057 114.791 92.7337 114.695 92.9186C114.599 93.1035 114.371 93.1755 114.186 93.0793L97.8598 84.5861C97.6749 84.4899 97.603 84.2619 97.6992 84.077Z" fill="black"/>
</g>
<defs>
<clipPath id="clip0">
<rect width="144" height="144" fill="white" transform="translate(0.5)"/>
</clipPath>
</defs>
</svg>
