<svg width="21" height="18" viewBox="0 0 21 18" fill="none" xmlns="http://www.w3.org/2000/svg">
<path fill-rule="evenodd" clip-rule="evenodd" d="M12.284 6.70823L13.584 7.99823L1.99402 7.99823C1.7288 7.99823 1.47445 8.10359 1.28691 8.29112C1.09937 8.47866 0.994019 8.73301 0.994019 8.99823C0.994019 9.26345 1.09937 9.5178 1.28691 9.70534C1.47445 9.89287 1.7288 9.99823 1.99402 9.99823L13.584 9.99823L12.284 11.2882C12.1903 11.3812 12.1159 11.4918 12.0651 11.6137C12.0144 11.7355 11.9882 11.8662 11.9882 11.9982C11.9882 12.1302 12.0144 12.2609 12.0651 12.3828C12.1159 12.5047 12.1903 12.6153 12.284 12.7082C12.377 12.802 12.4876 12.8764 12.6094 12.9271C12.7313 12.9779 12.862 13.004 12.994 13.004C13.126 13.004 13.2567 12.9779 13.3786 12.9271C13.5005 12.8764 13.6111 12.802 13.704 12.7082L16.704 9.70823C16.7977 9.61527 16.8721 9.50467 16.9229 9.38281C16.9737 9.26095 16.9998 9.13024 16.9998 8.99823C16.9998 8.86622 16.9737 8.73551 16.9229 8.61365C16.8721 8.49179 16.7977 8.38119 16.704 8.28823L13.704 5.28823C13.5157 5.09993 13.2603 4.99414 12.994 4.99414C12.7277 4.99414 12.4723 5.09993 12.284 5.28823C12.0957 5.47653 11.9899 5.73193 11.9899 5.99823C11.9899 6.26453 12.0957 6.51993 12.284 6.70823ZM7.99997 5L7.99997 3C7.99997 2.20435 8.31604 1.44129 8.87865 0.878679C9.44126 0.316071 10.2043 1.09832e-07 11 1.1932e-07L18 2.02794e-07C18.7956 2.12282e-07 19.5587 0.316071 20.1213 0.87868C20.6839 1.44129 21 2.20435 21 3L21 15C21 15.7956 20.6839 16.5587 20.1213 17.1213C19.5587 17.6839 18.7956 18 18 18L11 18C10.2043 18 9.44126 17.6839 8.87865 17.1213C8.31604 16.5587 7.99997 15.7956 7.99997 15L7.99997 13C7.99997 12.7348 8.10533 12.4804 8.29286 12.2929C8.4804 12.1054 8.73475 12 8.99997 12C9.26519 12 9.51954 12.1054 9.70708 12.2929C9.89461 12.4804 9.99997 12.7348 9.99997 13L9.99997 15C9.99997 15.2652 10.1053 15.5196 10.2929 15.7071C10.4804 15.8946 10.7348 16 11 16L18 16C18.2652 16 18.5195 15.8946 18.7071 15.7071C18.8946 15.5196 19 15.2652 19 15L19 3C19 2.73478 18.8946 2.48043 18.7071 2.29289C18.5195 2.10536 18.2652 2 18 2L11 2C10.7348 2 10.4804 2.10536 10.2929 2.29289C10.1053 2.48043 9.99997 2.73478 9.99997 3L9.99997 5C9.99997 5.26522 9.89461 5.51957 9.70708 5.70711C9.51954 5.89464 9.26519 6 8.99997 6C8.73475 6 8.4804 5.89464 8.29286 5.70711C8.10533 5.51957 7.99997 5.26522 7.99997 5Z" fill="black"/>
</svg>
