<svg width="32" height="32" viewBox="0 0 32 32" fill="none" xmlns="http://www.w3.org/2000/svg">
<rect width="32" height="32" fill="white"/>
<circle cx="16" cy="16" r="16" fill="#C4DEFF"/>
<path d="M25.622 11.9883H6.37708V23.8018H25.622V11.9883Z" fill="#648CFF"/>
<path d="M5 11.9873H27V10.4905L15.8862 6L5 10.4905V11.9873Z" fill="#FF84F9"/>
<path d="M27 24.1699H5V25.9994H27V24.1699Z" fill="#FF84F9"/>
<path d="M26.4252 11.9883H5.63928V12.956H26.4252V11.9883Z" fill="#FF84F9"/>
<path d="M26.4252 23.3164H5.63928V24.2841H26.4252V23.3164Z" fill="#FF84F9"/>
<path d="M8.4487 12.9551H6.37708V23.3166H8.4487V12.9551Z" fill="#0010F3"/>
<path d="M25.622 12.9551H23.5504V23.3166H25.622V12.9551Z" fill="#0010F3"/>
<path d="M21.0716 12.9551H19V23.3166H21.0716V12.9551Z" fill="#0010F3"/>
<path d="M13.0716 12.9551H11V23.3166H13.0716V12.9551Z" fill="#0010F3"/>
<path d="M17.9943 18.9648H14.0056V23.3175H17.9943V18.9648Z" fill="#C8E6FF"/>
<path d="M16 10.6549C16.904 10.6549 17.6369 9.91104 17.6369 8.99346C17.6369 8.07588 16.904 7.33203 16 7.33203C15.0959 7.33203 14.363 8.07588 14.363 8.99346C14.363 9.91104 15.0959 10.6549 16 10.6549Z" fill="#648CFF"/>
<path d="M16 20.8262V21.6448" stroke="black" stroke-width="0.5" stroke-miterlimit="10" stroke-linecap="round"/>
<path d="M6.41016 24.2852H25.6551" stroke="black" stroke-width="0.5" stroke-miterlimit="10" stroke-linecap="round"/>
<path d="M6.41016 12H25.6551" stroke="black" stroke-width="0.5" stroke-miterlimit="10" stroke-linecap="round"/>
</svg>
