<svg width="22" height="28" viewBox="0 0 22 28" fill="none" xmlns="http://www.w3.org/2000/svg">
<path d="M18.9987 15.5727V11.3327C18.9968 9.44351 18.3264 7.61597 17.1062 6.17372C15.886 4.73146 14.1948 3.76754 12.332 3.45268V1.99935C12.332 1.64573 12.1916 1.30659 11.9415 1.05654C11.6915 0.806491 11.3523 0.666016 10.9987 0.666016C10.6451 0.666016 10.3059 0.806491 10.0559 1.05654C9.80584 1.30659 9.66537 1.64573 9.66537 1.99935V3.45268C7.80262 3.76754 6.1114 4.73146 4.89121 6.17372C3.67103 7.61597 3.00061 9.44351 2.9987 11.3327V15.5727C2.22063 15.8478 1.5467 16.3568 1.06928 17.0299C0.591869 17.7031 0.334351 18.5074 0.332031 19.3327V21.9993C0.332031 22.353 0.472507 22.6921 0.722556 22.9422C0.972604 23.1922 1.31174 23.3327 1.66536 23.3327H5.85203C6.15908 24.4625 6.82937 25.4599 7.75949 26.171C8.68962 26.8821 9.82789 27.2673 10.9987 27.2673C12.1695 27.2673 13.3078 26.8821 14.2379 26.171C15.168 25.4599 15.8383 24.4625 16.1454 23.3327H20.332C20.6857 23.3327 21.0248 23.1922 21.2748 22.9422C21.5249 22.6921 21.6654 22.353 21.6654 21.9993V19.3327C21.663 18.5074 21.4055 17.7031 20.9281 17.0299C20.4507 16.3568 19.7768 15.8478 18.9987 15.5727ZM5.66536 11.3327C5.66536 9.91819 6.22727 8.56164 7.22746 7.56145C8.22766 6.56125 9.58421 5.99935 10.9987 5.99935C12.4132 5.99935 13.7697 6.56125 14.7699 7.56145C15.7701 8.56164 16.332 9.91819 16.332 11.3327V15.3327H5.66536V11.3327ZM10.9987 24.666C10.5333 24.6632 10.0768 24.5387 9.67447 24.3048C9.27215 24.0708 8.93805 23.7357 8.70536 23.3327H13.292C13.0594 23.7357 12.7252 24.0708 12.3229 24.3048C11.9206 24.5387 11.4641 24.6632 10.9987 24.666ZM18.9987 20.666H2.9987V19.3327C2.9987 18.9791 3.13917 18.6399 3.38922 18.3899C3.63927 18.1398 3.97841 17.9993 4.33203 17.9993H17.6654C18.019 17.9993 18.3581 18.1398 18.6082 18.3899C18.8582 18.6399 18.9987 18.9791 18.9987 19.3327V20.666Z" fill="#38727C"/>
</svg>
