<svg width="18" height="21" viewBox="0 0 18 21" fill="none" xmlns="http://www.w3.org/2000/svg">
<path fill-rule="evenodd" clip-rule="evenodd" d="M11.2917 12.2842L10.0017 13.5842L10.0017 1.9942C10.0017 1.72898 9.89635 1.47463 9.70881 1.28709C9.52128 1.09956 9.26692 0.994202 9.00171 0.994202C8.73649 0.994202 8.48214 1.09956 8.2946 1.28709C8.10707 1.47463 8.00171 1.72898 8.00171 1.9942L8.00171 13.5842L6.71171 12.2842C6.61874 12.1905 6.50814 12.1161 6.38628 12.0653C6.26442 12.0145 6.13372 11.9884 6.00171 11.9884C5.8697 11.9884 5.73899 12.0145 5.61713 12.0653C5.49527 12.1161 5.38467 12.1905 5.29171 12.2842C5.19798 12.3772 5.12358 12.4878 5.07282 12.6096C5.02205 12.7315 4.99591 12.8622 4.99591 12.9942C4.99591 13.1262 5.02205 13.2569 5.07282 13.3788C5.12358 13.5006 5.19798 13.6112 5.29171 13.7042L8.29171 16.7042C8.38467 16.7979 8.49527 16.8723 8.61713 16.9231C8.73899 16.9739 8.86969 17 9.00171 17C9.13372 17 9.26442 16.9739 9.38628 16.9231C9.50814 16.8723 9.61874 16.7979 9.71171 16.7042L12.7117 13.7042C12.9 13.5159 13.0058 13.2605 13.0058 12.9942C13.0058 12.7279 12.9 12.4725 12.7117 12.2842C12.5234 12.0959 12.268 11.9901 12.0017 11.9901C11.7354 11.9901 11.48 12.0959 11.2917 12.2842ZM13 8H15C15.7956 8 16.5587 8.31607 17.1213 8.87868C17.6839 9.44129 18 10.2044 18 11V18C18 18.7957 17.6839 19.5587 17.1213 20.1213C16.5587 20.6839 15.7956 21 15 21H3C2.20435 21 1.44129 20.6839 0.87868 20.1213C0.316071 19.5587 0 18.7957 0 18V11C0 10.2044 0.316071 9.44129 0.87868 8.87868C1.44129 8.31607 2.20435 8 3 8H5C5.26522 8 5.51957 8.10536 5.70711 8.29289C5.89464 8.48043 6 8.73478 6 9C6 9.26522 5.89464 9.51957 5.70711 9.70711C5.51957 9.89464 5.26522 10 5 10H3C2.73478 10 2.48043 10.1054 2.29289 10.2929C2.10536 10.4804 2 10.7348 2 11V18C2 18.2652 2.10536 18.5196 2.29289 18.7071C2.48043 18.8946 2.73478 19 3 19H15C15.2652 19 15.5196 18.8946 15.7071 18.7071C15.8946 18.5196 16 18.2652 16 18V11C16 10.7348 15.8946 10.4804 15.7071 10.2929C15.5196 10.1054 15.2652 10 15 10H13C12.7348 10 12.4804 9.89464 12.2929 9.70711C12.1054 9.51957 12 9.26522 12 9C12 8.73478 12.1054 8.48043 12.2929 8.29289C12.4804 8.10536 12.7348 8 13 8Z" fill="#11C76F"/>
</svg>
