<svg width="18" height="21" viewBox="0 0 18 21" fill="none" xmlns="http://www.w3.org/2000/svg">
<path fill-rule="evenodd" clip-rule="evenodd" d="M6.71006 5.70994L8.00006 4.40994V15.9999C8.00006 16.2652 8.10542 16.5195 8.29296 16.707C8.48049 16.8946 8.73485 16.9999 9.00006 16.9999C9.26528 16.9999 9.51963 16.8946 9.70717 16.707C9.8947 16.5195 10.0001 16.2652 10.0001 15.9999V4.40994L11.2901 5.70994C11.383 5.80367 11.4936 5.87806 11.6155 5.92883C11.7373 5.9796 11.868 6.00574 12.0001 6.00574C12.1321 6.00574 12.2628 5.9796 12.3846 5.92883C12.5065 5.87806 12.6171 5.80367 12.7101 5.70994C12.8038 5.61698 12.8782 5.50637 12.929 5.38452C12.9797 5.26266 13.0059 5.13195 13.0059 4.99994C13.0059 4.86793 12.9797 4.73722 12.929 4.61536C12.8782 4.4935 12.8038 4.3829 12.7101 4.28994L9.71006 1.28994C9.6171 1.19621 9.5065 1.12182 9.38464 1.07105C9.26278 1.02028 9.13207 0.994141 9.00006 0.994141C8.86805 0.994141 8.73734 1.02028 8.61549 1.07105C8.49363 1.12182 8.38303 1.19621 8.29006 1.28994L5.29006 4.28994C5.10176 4.47824 4.99597 4.73364 4.99597 4.99994C4.99597 5.26624 5.10176 5.52164 5.29006 5.70994C5.47837 5.89824 5.73376 6.00403 6.00006 6.00403C6.26636 6.00403 6.52176 5.89824 6.71006 5.70994ZM13 7.99998H15C15.7956 7.99998 16.5587 8.31605 17.1213 8.87866C17.6839 9.44127 18 10.2043 18 11V18C18 18.7956 17.6839 19.5587 17.1213 20.1213C16.5587 20.6839 15.7956 21 15 21H3C2.20435 21 1.44129 20.6839 0.87868 20.1213C0.316071 19.5587 0 18.7956 0 18V11C0 10.2043 0.316071 9.44127 0.87868 8.87866C1.44129 8.31605 2.20435 7.99998 3 7.99998H5C5.26522 7.99998 5.51957 8.10534 5.70711 8.29288C5.89464 8.48041 6 8.73477 6 8.99998C6 9.2652 5.89464 9.51955 5.70711 9.70709C5.51957 9.89463 5.26522 9.99998 5 9.99998H3C2.73478 9.99998 2.48043 10.1053 2.29289 10.2929C2.10536 10.4804 2 10.7348 2 11V18C2 18.2652 2.10536 18.5196 2.29289 18.7071C2.48043 18.8946 2.73478 19 3 19H15C15.2652 19 15.5196 18.8946 15.7071 18.7071C15.8946 18.5196 16 18.2652 16 18V11C16 10.7348 15.8946 10.4804 15.7071 10.2929C15.5196 10.1053 15.2652 9.99998 15 9.99998H13C12.7348 9.99998 12.4804 9.89463 12.2929 9.70709C12.1054 9.51955 12 9.2652 12 8.99998C12 8.73477 12.1054 8.48041 12.2929 8.29288C12.4804 8.10534 12.7348 7.99998 13 7.99998Z" fill="#FF2048"/>
</svg>
