<svg width="28" height="28" viewBox="0 0 28 28" fill="none" xmlns="http://www.w3.org/2000/svg">
<path d="M13.0546 18.386C12.9973 18.4494 12.9439 18.5162 12.8946 18.586C12.8442 18.6603 12.8038 18.7411 12.7746 18.826C12.7362 18.9016 12.7092 18.9825 12.6946 19.066C12.6881 19.1548 12.6881 19.2439 12.6946 19.3327C12.6901 19.5076 12.7267 19.6811 12.8013 19.8393C12.8612 20.0048 12.9567 20.1551 13.0812 20.2795C13.2056 20.4039 13.3558 20.4995 13.5213 20.5594C13.6809 20.6299 13.8535 20.6663 14.028 20.6663C14.2025 20.6663 14.375 20.6299 14.5346 20.5594C14.7001 20.4995 14.8504 20.4039 14.9748 20.2795C15.0992 20.1551 15.1948 20.0048 15.2546 19.8393C15.3138 19.6772 15.341 19.5052 15.3346 19.3327C15.3357 19.1572 15.302 18.9833 15.2357 18.8208C15.1693 18.6584 15.0716 18.5106 14.948 18.386C14.824 18.261 14.6766 18.1619 14.5141 18.0942C14.3516 18.0265 14.1773 17.9916 14.0013 17.9916C13.8253 17.9916 13.651 18.0265 13.4885 18.0942C13.3261 18.1619 13.1786 18.261 13.0546 18.386ZM14.0013 0.666016C11.3642 0.666016 8.78636 1.448 6.59371 2.91309C4.40105 4.37817 2.69208 6.46056 1.68291 8.8969C0.673746 11.3333 0.409701 14.0141 0.924171 16.6006C1.43864 19.187 2.70852 21.5627 4.57322 23.4274C6.43792 25.2921 8.81369 26.562 11.4001 27.0765C13.9865 27.591 16.6674 27.3269 19.1038 26.3177C21.5401 25.3086 23.6225 23.5996 25.0876 21.407C26.5527 19.2143 27.3346 16.6364 27.3346 13.9994C27.3346 12.2484 26.9898 10.5146 26.3197 8.8969C25.6496 7.27923 24.6675 5.80937 23.4294 4.57126C22.1913 3.33314 20.7214 2.35102 19.1038 1.68096C17.4861 1.01089 15.7523 0.666016 14.0013 0.666016ZM14.0013 24.666C11.8916 24.666 9.82935 24.0404 8.07523 22.8684C6.3211 21.6963 4.95393 20.0304 4.14659 18.0813C3.33926 16.1322 3.12802 13.9875 3.5396 11.9184C3.95117 9.84926 4.96708 7.94864 6.45884 6.45688C7.9506 4.96512 9.85121 3.94922 11.9203 3.53764C13.9895 3.12606 16.1342 3.3373 18.0833 4.14463C20.0323 4.95197 21.6982 6.31914 22.8703 8.07327C24.0424 9.82739 24.668 11.8897 24.668 13.9994C24.668 16.8283 23.5442 19.5414 21.5438 21.5418C19.5434 23.5422 16.8303 24.666 14.0013 24.666ZM14.0013 7.33268C13.2987 7.33223 12.6084 7.51684 11.9999 7.86794C11.3913 8.21904 10.8859 8.72423 10.5346 9.33268C10.4382 9.48444 10.3734 9.65414 10.3442 9.83158C10.315 10.009 10.322 10.1905 10.3648 10.3652C10.4076 10.5399 10.4853 10.7041 10.5932 10.8479C10.701 10.9918 10.8369 11.1124 10.9926 11.2023C11.1483 11.2923 11.3206 11.3499 11.4991 11.3716C11.6776 11.3933 11.8587 11.3786 12.0314 11.3285C12.2041 11.2784 12.3648 11.1939 12.504 11.08C12.6432 10.9662 12.758 10.8254 12.8413 10.666C12.9588 10.4625 13.1279 10.2937 13.3316 10.1767C13.5353 10.0596 13.7664 9.99842 14.0013 9.99935C14.3549 9.99935 14.6941 10.1398 14.9441 10.3899C15.1942 10.6399 15.3346 10.9791 15.3346 11.3327C15.3346 11.6863 15.1942 12.0254 14.9441 12.2755C14.6941 12.5255 14.3549 12.666 14.0013 12.666C13.6477 12.666 13.3085 12.8065 13.0585 13.0565C12.8085 13.3066 12.668 13.6457 12.668 13.9994V15.3327C12.668 15.6863 12.8085 16.0254 13.0585 16.2755C13.3085 16.5255 13.6477 16.666 14.0013 16.666C14.3549 16.666 14.6941 16.5255 14.9441 16.2755C15.1942 16.0254 15.3346 15.6863 15.3346 15.3327V15.0927C16.2165 14.7727 16.9578 14.153 17.429 13.3418C17.9002 12.5307 18.0714 11.5797 17.9125 10.6552C17.7537 9.73067 17.2749 8.89137 16.56 8.28404C15.845 7.6767 14.9394 7.33996 14.0013 7.33268Z" fill="#38727C"/>
</svg>
