<svg width="20" height="18" viewBox="0 0 20 18" fill="none" xmlns="http://www.w3.org/2000/svg">
<path d="M20.0001 2.79997C19.2485 3.12606 18.4535 3.34163 17.6401 3.43997C18.4983 2.92729 19.1414 2.12075 19.4501 1.16997C18.6437 1.65003 17.7609 1.98826 16.8401 2.16997C16.2247 1.50254 15.4051 1.05826 14.5099 0.906817C13.6148 0.755372 12.6947 0.905324 11.8939 1.33315C11.0932 1.76099 10.4571 2.4425 10.0854 3.2708C9.71367 4.09911 9.62741 5.02736 9.84012 5.90997C8.20955 5.82749 6.61456 5.40292 5.15878 4.66383C3.70299 3.92474 2.41897 2.88766 1.39012 1.61997C1.02926 2.25013 0.839641 2.96379 0.840122 3.68997C0.838842 4.36435 1.00434 5.02858 1.32188 5.62353C1.63942 6.21848 2.09914 6.72568 2.66012 7.09997C2.0081 7.08223 1.37001 6.90726 0.800122 6.58997V6.63997C0.805009 7.58486 1.13612 8.49906 1.73744 9.22793C2.33876 9.95681 3.17338 10.4556 4.10012 10.64C3.74338 10.7485 3.373 10.8058 3.00012 10.81C2.74201 10.807 2.48454 10.7835 2.23012 10.74C2.49403 11.5528 3.00474 12.2631 3.6912 12.7721C4.37765 13.2811 5.2057 13.5635 6.06012 13.58C4.61732 14.7152 2.83601 15.3348 1.00012 15.34C0.665857 15.3411 0.331858 15.321 0.00012207 15.28C1.87455 16.4902 4.05894 17.1327 6.29012 17.13C7.82981 17.146 9.35726 16.855 10.7832 16.274C12.2092 15.6931 13.5051 14.8339 14.5953 13.7465C15.6855 12.6591 16.5481 11.3654 17.1327 9.94087C17.7173 8.51639 18.0122 6.98969 18.0001 5.44997C18.0001 5.27997 18.0001 5.09997 18.0001 4.91997C18.7848 4.33478 19.4616 3.61739 20.0001 2.79997Z" fill="#00AC4A"/>
</svg>
