<svg width="20" height="20" viewBox="0 0 20 20" fill="none" xmlns="http://www.w3.org/2000/svg">
<path fill-rule="evenodd" clip-rule="evenodd" d="M10.299 19.1C8.73778 19.0923 7.20387 18.6898 5.84 17.93L3.37 18.58L0.9 19.23L2.2 14.394C1.36165 12.9854 0.912981 11.3792 0.9 9.74C0.905176 7.8978 1.45536 6.09833 2.48127 4.56822C3.50717 3.03811 4.96291 1.84579 6.66515 1.14143C8.36738 0.437071 10.24 0.252172 12.0471 0.61002C13.8542 0.967868 15.515 1.85246 16.8204 3.15238C18.1257 4.45231 19.0172 6.10943 19.3826 7.91504C19.7479 9.72065 19.5708 11.594 18.8735 13.2991C18.1762 15.0043 16.99 16.465 15.4642 17.4972C13.9383 18.5295 12.1412 19.0872 10.299 19.1ZM6.38802 3.13436C7.5713 2.42748 8.92075 2.04677 10.299 2.031C12.3677 2.031 14.3386 2.70978 15.8014 4.17257C17.2642 5.63535 18.086 7.61931 18.086 9.688C18.086 11.7567 17.2642 13.7406 15.8014 15.2034C14.3386 16.6662 12.3547 17.488 10.286 17.488C8.91372 17.4777 7.56845 17.1055 6.386 16.409L6.1 16.24L3.136 17.046L3.916 14.199L3.734 13.9C3.01488 12.7241 2.62018 11.3787 2.59011 10.0007C2.56003 8.62268 2.89565 7.2613 3.56279 6.05518C4.22992 4.84905 5.20475 3.84124 6.38802 3.13436Z" fill="#00AC4A"/>
<path d="M14.849 13.107C14.6787 13.391 14.4507 13.6361 14.1798 13.8265C13.9088 14.0168 13.6009 14.1481 13.276 14.212C12.7905 14.3007 12.2907 14.2695 11.82 14.121C11.3772 13.9825 10.943 13.8176 10.52 13.627C8.91286 12.8206 7.54227 11.6112 6.542 10.117C5.99845 9.42472 5.66864 8.58891 5.593 7.712C5.58526 7.34772 5.65417 6.98589 5.79526 6.64996C5.93635 6.31403 6.14647 6.0115 6.412 5.762C6.49021 5.67332 6.58616 5.60205 6.69365 5.55278C6.80114 5.50352 6.91777 5.47736 7.036 5.476H7.4C7.543 5.476 7.738 5.476 7.92 5.879C8.102 6.282 8.583 7.491 8.648 7.608C8.67994 7.67036 8.6966 7.73943 8.6966 7.8095C8.6966 7.87957 8.67994 7.94864 8.648 8.011C8.59053 8.15227 8.5116 8.28381 8.414 8.401C8.297 8.544 8.167 8.713 8.063 8.817C7.959 8.921 7.829 9.051 7.959 9.285C8.31271 9.88195 8.75054 10.4248 9.259 10.897C9.8127 11.3863 10.4458 11.7775 11.131 12.054C11.365 12.171 11.508 12.158 11.638 12.054C11.768 11.95 12.223 11.378 12.379 11.144C12.535 10.91 12.691 10.949 12.899 11.027C13.107 11.105 14.264 11.664 14.498 11.781C14.732 11.898 14.875 11.95 14.94 12.054C14.9964 12.3942 14.9651 12.7432 14.849 13.068V13.107Z" fill="#00AC4A"/>
</svg>
